  0
SECTION
  2
HEADER
  9
$ACADVER
  1
AC1009
  9
$DWGCODEPAGE
  3
ANSI_1252
  9
$INSBASE
 10
0.0
 20
0.0
 30
0.0
  9
$EXTMIN
 10
1e+20
 20
1e+20
 30
1e+20
  9
$EXTMAX
 10
-1e+20
 20
-1e+20
 30
-1e+20
  9
$LIMMIN
 10
0.0
 20
0.0
  9
$LIMMAX
 10
420.0
 20
297.0
  9
$ORTHOMODE
 70
0
  9
$REGENMODE
 70
1
  9
$FILLMODE
 70
1
  9
$DRAGMODE
 70
2
  9
$QTEXTMODE
 70
0
  9
$MIRRTEXT
 70
1
  9
$OSMODE
 70
20583
  9
$LTSCALE
 40
1.0
  9
$ATTMODE
 70
1
  9
$TEXTSIZE
 40
2.5
  9
$TRACEWID
 40
1.0
  9
$TEXTSTYLE
  7
Standard
  9
$CLAYER
  8
0
  9
$CELTYPE
  6
ByLayer
  9
$CECOLOR
 62
256
  9
$DIMSCALE
 40
1.0
  9
$DIMASZ
 40
2.5
  9
$DIMEXO
 40
0.625
  9
$DIMDLI
 40
3.75
  9
$DIMRND
 40
0.0
  9
$DIMDLE
 40
0.0
  9
$DIMEXE
 40
1.25
  9
$DIMTP
 40
0.0
  9
$DIMTM
 40
0.0
  9
$DIMTXT
 40
2.5
  9
$DIMCEN
 40
2.5
  9
$DIMTSZ
 40
0.0
  9
$DIMTOL
 70
0
  9
$DIMLIM
 70
0
  9
$DIMTIH
 70
0
  9
$DIMTOH
 70
0
  9
$DIMSE1
 70
0
  9
$DIMSE2
 70
0
  9
$DIMTAD
 70
1
  9
$DIMZIN
 70
8
  9
$DIMBLK
  1

  9
$DIMASO
 70
1
  9
$DIMSHO
 70
1
  9
$DIMPOST
  1

  9
$DIMAPOST
  1

  9
$DIMALT
 70
0
  9
$DIMALTD
 70
3
  9
$DIMALTF
 40
0.03937007874
  9
$DIMLFAC
 40
1.0
  9
$DIMTOFL
 70
1
  9
$DIMTVP
 40
0.0
  9
$DIMTIX
 70
0
  9
$DIMSOXD
 70
0
  9
$DIMSAH
 70
0
  9
$DIMBLK1
  1

  9
$DIMBLK2
  1

  9
$DIMSTYLE
  2
ISO-25
  9
$DIMCLRD
 70
0
  9
$DIMCLRE
 70
0
  9
$DIMCLRT
 70
0
  9
$DIMTFAC
 40
1.0
  9
$DIMGAP
 40
0.625
  9
$COORDS
 70
1
  9
$ATTDIA
 70
0
  9
$ATTREQ
 70
1
  9
$HANDLING
 70
1
  9
$LUNITS
 70
2
  9
$LUPREC
 70
4
  9
$SKETCHINC
 40
1.0
  9
$FILLETRAD
 40
10.0
  9
$AUNITS
 70
0
  9
$AUPREC
 70
2
  9
$MENU
  1
.
  9
$ELEVATION
 40
0.0
  9
$PELEVATION
 40
0.0
  9
$THICKNESS
 40
0.0
  9
$LIMCHECK
 70
0
  9
$CHAMFERA
 40
0.0
  9
$CHAMFERB
 40
0.0
  9
$SKPOLY
 70
0
  9
$TDCREATE
 40
2459984.7314351853
  9
$TDUPDATE
 40
2459984.7314351853
  9
$TDINDWG
 40
0.0
  9
$TDUSRTIMER
 40
0.0
  9
$USRTIMER
 70
1
  9
$ANGBASE
 50
0.0
  9
$ANGDIR
 70
0
  9
$PDMODE
 70
0
  9
$PDSIZE
 40
0.0
  9
$PLINEWID
 40
0.0
  9
$SPLFRAME
 70
0
  9
$SPLINETYPE
 70
6
  9
$SPLINESEGS
 70
8
  9
$HANDSEED
  5
52F
  9
$SURFTAB1
 70
6
  9
$SURFTAB2
 70
6
  9
$SURFTYPE
 70
6
  9
$SURFU
 70
6
  9
$SURFV
 70
6
  9
$UCSNAME
  2

  9
$UCSORG
 10
0.0
 20
0.0
 30
0.0
  9
$UCSXDIR
 10
1.0
 20
0.0
 30
0.0
  9
$UCSYDIR
 10
0.0
 20
1.0
 30
0.0
  9
$PUCSNAME
  2

  9
$PUCSORG
 10
0.0
 20
0.0
 30
0.0
  9
$PUCSXDIR
 10
1.0
 20
0.0
 30
0.0
  9
$PUCSYDIR
 10
0.0
 20
1.0
 30
0.0
  9
$USERI1
 70
0
  9
$USERI2
 70
0
  9
$USERI3
 70
0
  9
$USERI4
 70
0
  9
$USERI5
 70
0
  9
$USERR1
 40
0.0
  9
$USERR2
 40
0.0
  9
$USERR3
 40
0.0
  9
$USERR4
 40
0.0
  9
$USERR5
 40
0.0
  9
$WORLDVIEW
 70
1
  9
$SHADEDGE
 70
3
  9
$SHADEDIF
 70
70
  9
$TILEMODE
 70
1
  9
$MAXACTVP
 70
64
  9
$PLIMCHECK
 70
0
  9
$PEXTMIN
 10
1e+20
 20
1e+20
 30
1e+20
  9
$PEXTMAX
 10
-1e+20
 20
-1e+20
 30
-1e+20
  9
$PLIMMIN
 10
0.0
 20
0.0
  9
$PLIMMAX
 10
420.0
 20
297.0
  9
$UNITMODE
 70
0
  9
$VISRETAIN
 70
1
  9
$PLINEGEN
 70
0
  9
$PSLTSCALE
 70
1
  0
ENDSEC
  0
SECTION
  2
TABLES
  0
TABLE
  2
VPORT
 70
1
  0
VPORT
  5
522
  2
*Active
 70
0
 10
0.0
 20
0.0
 11
1.0
 21
1.0
 12
0.0
 22
0.0
 13
0.0
 23
0.0
 14
0.5
 24
0.5
 15
0.5
 25
0.5
 16
0.0
 26
0.0
 36
1.0
 17
0.0
 27
0.0
 37
0.0
 40
1000.0
 41
1.34
 42
50.0
 43
0.0
 44
0.0
 50
0.0
 51
0.0
 71
0
 72
1000
 73
1
 74
3
 75
0
 76
0
 77
0
 78
0
  0
ENDTAB
  0
TABLE
  2
LTYPE
 70
3
  0
LTYPE
  5
523
  2
ByBlock
 70
0
  3

 72
65
 73
0
 40
0.0
  0
LTYPE
  5
524
  2
ByLayer
 70
0
  3

 72
65
 73
0
 40
0.0
  0
LTYPE
  5
525
  2
Continuous
 70
0
  3

 72
65
 73
0
 40
0.0
  0
ENDTAB
  0
TABLE
  2
LAYER
 70
2
  0
LAYER
  5
526
  2
0
 70
0
 62
7
  6
Continuous
  0
LAYER
  5
527
  2
Defpoints
 70
0
 62
7
  6
Continuous
  0
ENDTAB
  0
TABLE
  2
STYLE
 70
1
  0
STYLE
  5
528
  2
Standard
 70
0
 40
0.0
 41
1.0
 50
0.0
 71
0
 42
2.5
  3
txt
  4

  0
ENDTAB
  0
TABLE
  2
VIEW
 70
0
  0
ENDTAB
  0
TABLE
  2
UCS
 70
0
  0
ENDTAB
  0
TABLE
  2
APPID
 70
3
  0
APPID
  5
529
  2
ACAD
 70
0
  0
APPID
  5
52D
  2
HATCHBACKGROUNDCOLOR
 70
0
  0
APPID
  5
52E
  2
EZDXF
 70
0
  0
ENDTAB
  0
TABLE
  2
DIMSTYLE
 70
1
  0
DIMSTYLE
105
52A
  2
Standard
 70
0
  3

  4

  5

  6

  7

 40
1.0
 41
2.5
 42
0.625
 43
3.75
 44
1.25
 45
0.0
 46
0.0
 47
0.0
 48
0.0
140
2.5
141
2.5
142
0.0
143
0.03937007874
144
1.0
145
0.0
146
1.0
147
0.625
 71
0
 72
0
 73
0
 74
0
 75
0
 76
0
 77
1
 78
8
170
0
171
3
172
1
173
0
174
0
175
0
176
0
177
0
178
0
  0
ENDTAB
  0
ENDSEC
  0
SECTION
  2
BLOCKS
  0
BLOCK
  5
503
  8
0
  2
$Model_Space
 70
0
 10
0.0
 20
0.0
 30
0.0
  3
$Model_Space
  1

1001
EZDXF
1000
WRITTEN_BY_EZDXF
1000
1.0.1 @ 2023-02-08T07:33:16.249743+00:00
  0
ENDBLK
  5
504
  8
0
  0
BLOCK
  5
505
  8
0
  2
$Paper_Space
 70
0
 10
0.0
 20
0.0
 30
0.0
  3
$Paper_Space
  1

  0
ENDBLK
  5
506
  8
0
  0
ENDSEC
  0
SECTION
  2
ENTITIES
  0
LINE
  5
100
  8
0
 10
-1.0318
 20
39.4694
 30
0.0
 11
-0.490936
 21
39.7723
 31
0.0
  0
LINE
  5
101
  8
0
 10
-0.490936
 20
39.7723
 30
0.0
 11
0.124649
 21
39.8452
 31
0.0
  0
LINE
  5
102
  8
0
 10
0.124649
 20
39.8452
 30
0.0
 11
0.721268
 21
39.6769
 31
0.0
  0
LINE
  5
103
  8
0
 10
0.721268
 20
39.6769
 30
0.0
 11
1.20808
 21
39.2931
 31
0.0
  0
LINE
  5
104
  8
0
 10
1.20808
 20
39.2931
 30
0.0
 11
1.22018
 21
39.2715
 31
0.0
  0
LINE
  5
105
  8
0
 10
1.22018
 20
39.2715
 30
0.0
 11
3.91525
 21
39.2715
 31
0.0
  0
LINE
  5
106
  8
0
 10
3.91525
 20
39.2715
 30
0.0
 11
4.58058
 21
39.4129
 31
0.0
  0
LINE
  5
107
  8
0
 10
4.58058
 20
39.4129
 30
0.0
 11
4.7773
 21
39.7642
 31
0.0
  0
LINE
  5
108
  8
0
 10
4.7773
 20
39.7642
 30
0.0
 11
5.26411
 21
40.148
 31
0.0
  0
LINE
  5
109
  8
0
 10
5.26411
 20
40.148
 30
0.0
 11
5.86073
 21
40.3162
 31
0.0
  0
LINE
  5
10A
  8
0
 10
5.86073
 20
40.3162
 30
0.0
 11
6.47633
 21
40.2434
 31
0.0
  0
LINE
  5
10B
  8
0
 10
6.47633
 20
40.2434
 30
0.0
 11
7.0172
 21
39.9405
 31
0.0
  0
LINE
  5
10C
  8
0
 10
7.0172
 20
39.9405
 30
0.0
 11
7.02368
 21
39.9322
 31
0.0
  0
LINE
  5
10D
  8
0
 10
7.02368
 20
39.9322
 30
0.0
 11
10.3488
 21
40.639
 31
0.0
  0
LINE
  5
10E
  8
0
 10
10.3488
 20
40.639
 30
0.0
 11
10.4688
 21
40.9641
 31
0.0
  0
LINE
  5
10F
  8
0
 10
10.4688
 20
40.9641
 30
0.0
 11
10.8896
 21
41.4193
 31
0.0
  0
LINE
  5
110
  8
0
 10
10.8896
 20
41.4193
 30
0.0
 11
11.4525
 21
41.6788
 31
0.0
  0
LINE
  5
111
  8
0
 10
11.4525
 20
41.6788
 30
0.0
 11
12.0719
 21
41.7032
 31
0.0
  0
LINE
  5
112
  8
0
 10
12.0719
 20
41.7032
 30
0.0
 11
12.6535
 21
41.4886
 31
0.0
  0
LINE
  5
113
  8
0
 10
12.6535
 20
41.4886
 30
0.0
 11
12.7329
 21
41.4153
 31
0.0
  0
LINE
  5
114
  8
0
 10
12.7329
 20
41.4153
 30
0.0
 11
15.856
 21
42.8057
 31
0.0
  0
LINE
  5
115
  8
0
 10
15.856
 20
42.8057
 30
0.0
 11
15.9025
 21
43.0396
 31
0.0
  0
LINE
  5
116
  8
0
 10
15.9025
 20
43.0396
 30
0.0
 11
16.2469
 21
43.555
 31
0.0
  0
LINE
  5
117
  8
0
 10
16.2469
 20
43.555
 30
0.0
 11
16.7623
 21
43.8994
 31
0.0
  0
LINE
  5
118
  8
0
 10
16.7623
 20
43.8994
 30
0.0
 11
17.3703
 21
44.0203
 31
0.0
  0
LINE
  5
119
  8
0
 10
17.3703
 20
44.0203
 30
0.0
 11
17.9783
 21
43.8994
 31
0.0
  0
LINE
  5
11A
  8
0
 10
17.9783
 20
43.8994
 30
0.0
 11
18.1118
 21
43.8101
 31
0.0
  0
LINE
  5
11B
  8
0
 10
18.1118
 20
43.8101
 30
0.0
 11
18.7282
 21
44.0845
 31
0.0
  0
LINE
  5
11C
  8
0
 10
18.7282
 20
44.0845
 30
0.0
 11
20.9347
 21
45.6877
 31
0.0
  0
LINE
  5
11D
  8
0
 10
20.9347
 20
45.6877
 30
0.0
 11
20.9446
 21
45.9395
 31
0.0
  0
LINE
  5
11E
  8
0
 10
20.9446
 20
45.9395
 30
0.0
 11
21.2041
 21
46.5024
 31
0.0
  0
LINE
  5
11F
  8
0
 10
21.2041
 20
46.5024
 30
0.0
 11
21.6593
 21
46.9232
 31
0.0
  0
LINE
  5
120
  8
0
 10
21.6593
 20
46.9232
 30
0.0
 11
22.2409
 21
47.1378
 31
0.0
  0
LINE
  5
121
  8
0
 10
22.2409
 20
47.1378
 30
0.0
 11
22.8603
 21
47.1134
 31
0.0
  0
LINE
  5
122
  8
0
 10
22.8603
 20
47.1134
 30
0.0
 11
22.8828
 21
47.1031
 31
0.0
  0
LINE
  5
123
  8
0
 10
22.8828
 20
47.1031
 30
0.0
 11
25.0632
 21
48.6872
 31
0.0
  0
LINE
  5
124
  8
0
 10
25.0632
 20
48.6872
 30
0.0
 11
25.5183
 21
49.1927
 31
0.0
  0
LINE
  5
125
  8
0
 10
25.5183
 20
49.1927
 30
0.0
 11
25.471
 21
49.5925
 31
0.0
  0
LINE
  5
126
  8
0
 10
25.471
 20
49.5925
 30
0.0
 11
25.6393
 21
50.1891
 31
0.0
  0
LINE
  5
127
  8
0
 10
25.6393
 20
50.1891
 30
0.0
 11
26.023
 21
50.6759
 31
0.0
  0
LINE
  5
128
  8
0
 10
26.023
 20
50.6759
 30
0.0
 11
26.5639
 21
50.9788
 31
0.0
  0
LINE
  5
129
  8
0
 10
26.5639
 20
50.9788
 30
0.0
 11
27.1795
 21
51.0517
 31
0.0
  0
LINE
  5
12A
  8
0
 10
27.1795
 20
51.0517
 30
0.0
 11
27.1896
 21
51.0488
 31
0.0
  0
LINE
  5
12B
  8
0
 10
27.1896
 20
51.0488
 30
0.0
 11
29.4643
 21
53.5751
 31
0.0
  0
LINE
  5
12C
  8
0
 10
29.4643
 20
53.5751
 30
0.0
 11
29.3702
 21
53.9086
 31
0.0
  0
LINE
  5
12D
  8
0
 10
29.3702
 20
53.9086
 30
0.0
 11
29.4431
 21
54.5242
 31
0.0
  0
LINE
  5
12E
  8
0
 10
29.4431
 20
54.5242
 30
0.0
 11
29.746
 21
55.065
 31
0.0
  0
LINE
  5
12F
  8
0
 10
29.746
 20
55.065
 30
0.0
 11
30.2328
 21
55.4488
 31
0.0
  0
LINE
  5
130
  8
0
 10
30.2328
 20
55.4488
 30
0.0
 11
30.8294
 21
55.6171
 31
0.0
  0
LINE
  5
131
  8
0
 10
30.8294
 20
55.6171
 30
0.0
 11
30.9367
 21
55.6044
 31
0.0
  0
LINE
  5
132
  8
0
 10
30.9367
 20
55.6044
 30
0.0
 11
32.646
 21
58.565
 31
0.0
  0
LINE
  5
133
  8
0
 10
32.646
 20
58.565
 30
0.0
 11
32.5462
 21
58.7815
 31
0.0
  0
LINE
  5
134
  8
0
 10
32.5462
 20
58.7815
 30
0.0
 11
32.5219
 21
59.4009
 31
0.0
  0
LINE
  5
135
  8
0
 10
32.5219
 20
59.4009
 30
0.0
 11
32.7365
 21
59.9825
 31
0.0
  0
LINE
  5
136
  8
0
 10
32.7365
 20
59.9825
 30
0.0
 11
33.1572
 21
60.4377
 31
0.0
  0
LINE
  5
137
  8
0
 10
33.1572
 20
60.4377
 30
0.0
 11
33.7202
 21
60.6972
 31
0.0
  0
LINE
  5
138
  8
0
 10
33.7202
 20
60.6972
 30
0.0
 11
33.8807
 21
60.7035
 31
0.0
  0
LINE
  5
139
  8
0
 10
33.8807
 20
60.7035
 30
0.0
 11
34.2181
 21
61.2878
 31
0.0
  0
LINE
  5
13A
  8
0
 10
34.2181
 20
61.2878
 30
0.0
 11
35.0609
 21
63.8817
 31
0.0
  0
LINE
  5
13B
  8
0
 10
35.0609
 20
63.8817
 30
0.0
 11
34.9209
 21
64.0913
 31
0.0
  0
LINE
  5
13C
  8
0
 10
34.9209
 20
64.0913
 30
0.0
 11
34.7999
 21
64.6993
 31
0.0
  0
LINE
  5
13D
  8
0
 10
34.7999
 20
64.6993
 30
0.0
 11
34.9209
 21
65.3073
 31
0.0
  0
LINE
  5
13E
  8
0
 10
34.9209
 20
65.3073
 30
0.0
 11
35.2653
 21
65.8227
 31
0.0
  0
LINE
  5
13F
  8
0
 10
35.2653
 20
65.8227
 30
0.0
 11
35.7807
 21
66.1671
 31
0.0
  0
LINE
  5
140
  8
0
 10
35.7807
 20
66.1671
 30
0.0
 11
35.805
 21
66.1719
 31
0.0
  0
LINE
  5
141
  8
0
 10
35.805
 20
66.1719
 30
0.0
 11
36.6378
 21
68.735
 31
0.0
  0
LINE
  5
142
  8
0
 10
36.6378
 20
68.735
 30
0.0
 11
36.7089
 21
69.4115
 31
0.0
  0
LINE
  5
143
  8
0
 10
36.7089
 20
69.4115
 30
0.0
 11
36.4356
 21
69.7072
 31
0.0
  0
LINE
  5
144
  8
0
 10
36.4356
 20
69.7072
 30
0.0
 11
36.2211
 21
70.2887
 31
0.0
  0
LINE
  5
145
  8
0
 10
36.2211
 20
70.2887
 30
0.0
 11
36.2454
 21
70.9082
 31
0.0
  0
LINE
  5
146
  8
0
 10
36.2454
 20
70.9082
 30
0.0
 11
36.5049
 21
71.4711
 31
0.0
  0
LINE
  5
147
  8
0
 10
36.5049
 20
71.4711
 30
0.0
 11
36.9601
 21
71.8919
 31
0.0
  0
LINE
  5
148
  8
0
 10
36.9601
 20
71.8919
 30
0.0
 11
36.97
 21
71.8955
 31
0.0
  0
LINE
  5
149
  8
0
 10
36.97
 20
71.8955
 30
0.0
 11
37.3253
 21
75.2764
 31
0.0
  0
LINE
  5
14A
  8
0
 10
37.3253
 20
75.2764
 30
0.0
 11
37.0532
 21
75.4909
 31
0.0
  0
LINE
  5
14B
  8
0
 10
37.0532
 20
75.4909
 30
0.0
 11
36.7503
 21
76.0317
 31
0.0
  0
LINE
  5
14C
  8
0
 10
36.7503
 20
76.0317
 30
0.0
 11
36.6775
 21
76.6473
 31
0.0
  0
LINE
  5
14D
  8
0
 10
36.6775
 20
76.6473
 30
0.0
 11
36.8457
 21
77.2439
 31
0.0
  0
LINE
  5
14E
  8
0
 10
36.8457
 20
77.2439
 30
0.0
 11
37.2295
 21
77.7308
 31
0.0
  0
LINE
  5
14F
  8
0
 10
37.2295
 20
77.7308
 30
0.0
 11
37.3238
 21
77.7836
 31
0.0
  0
LINE
  5
150
  8
0
 10
37.3238
 20
77.7836
 30
0.0
 11
36.9665
 21
81.1835
 31
0.0
  0
LINE
  5
151
  8
0
 10
36.9665
 20
81.1835
 30
0.0
 11
36.7585
 21
81.3
 31
0.0
  0
LINE
  5
152
  8
0
 10
36.7585
 20
81.3
 30
0.0
 11
36.3747
 21
81.7868
 31
0.0
  0
LINE
  5
153
  8
0
 10
36.3747
 20
81.7868
 30
0.0
 11
36.2064
 21
82.3834
 31
0.0
  0
LINE
  5
154
  8
0
 10
36.2064
 20
82.3834
 30
0.0
 11
36.2793
 21
82.999
 31
0.0
  0
LINE
  5
155
  8
0
 10
36.2793
 20
82.999
 30
0.0
 11
36.5822
 21
83.5399
 31
0.0
  0
LINE
  5
156
  8
0
 10
36.5822
 20
83.5399
 30
0.0
 11
36.7083
 21
83.6393
 31
0.0
  0
LINE
  5
157
  8
0
 10
36.7083
 20
83.6393
 30
0.0
 11
36.6378
 21
84.3103
 31
0.0
  0
LINE
  5
158
  8
0
 10
36.6378
 20
84.3103
 30
0.0
 11
35.795
 21
86.9042
 31
0.0
  0
LINE
  5
159
  8
0
 10
35.795
 20
86.9042
 30
0.0
 11
35.5586
 21
86.9914
 31
0.0
  0
LINE
  5
15A
  8
0
 10
35.5586
 20
86.9914
 30
0.0
 11
35.1034
 21
87.4122
 31
0.0
  0
LINE
  5
15B
  8
0
 10
35.1034
 20
87.4122
 30
0.0
 11
34.8438
 21
87.9752
 31
0.0
  0
LINE
  5
15C
  8
0
 10
34.8438
 20
87.9752
 30
0.0
 11
34.8195
 21
88.5946
 31
0.0
  0
LINE
  5
15D
  8
0
 10
34.8195
 20
88.5946
 30
0.0
 11
35.0341
 21
89.1762
 31
0.0
  0
LINE
  5
15E
  8
0
 10
35.0341
 20
89.1762
 30
0.0
 11
35.0509
 21
89.1944
 31
0.0
  0
LINE
  5
15F
  8
0
 10
35.0509
 20
89.1944
 30
0.0
 11
34.2181
 21
91.7575
 31
0.0
  0
LINE
  5
160
  8
0
 10
34.2181
 20
91.7575
 30
0.0
 11
33.878
 21
92.3466
 31
0.0
  0
LINE
  5
161
  8
0
 10
33.878
 20
92.3466
 30
0.0
 11
33.4831
 21
92.4251
 31
0.0
  0
LINE
  5
162
  8
0
 10
33.4831
 20
92.4251
 30
0.0
 11
32.9677
 21
92.7695
 31
0.0
  0
LINE
  5
163
  8
0
 10
32.9677
 20
92.7695
 30
0.0
 11
32.6233
 21
93.285
 31
0.0
  0
LINE
  5
164
  8
0
 10
32.6233
 20
93.285
 30
0.0
 11
32.5023
 21
93.8929
 31
0.0
  0
LINE
  5
165
  8
0
 10
32.5023
 20
93.8929
 30
0.0
 11
32.6233
 21
94.5009
 31
0.0
  0
LINE
  5
166
  8
0
 10
32.6233
 20
94.5009
 30
0.0
 11
32.6291
 21
94.5097
 31
0.0
  0
LINE
  5
167
  8
0
 10
32.6291
 20
94.5097
 30
0.0
 11
30.9294
 21
97.4537
 31
0.0
  0
LINE
  5
168
  8
0
 10
30.9294
 20
97.4537
 30
0.0
 11
30.5832
 21
97.4673
 31
0.0
  0
LINE
  5
169
  8
0
 10
30.5832
 20
97.4673
 30
0.0
 11
30.0202
 21
97.7268
 31
0.0
  0
LINE
  5
16A
  8
0
 10
30.0202
 20
97.7268
 30
0.0
 11
29.5994
 21
98.182
 31
0.0
  0
LINE
  5
16B
  8
0
 10
29.5994
 20
98.182
 30
0.0
 11
29.3849
 21
98.7636
 31
0.0
  0
LINE
  5
16C
  8
0
 10
29.3849
 20
98.7636
 30
0.0
 11
29.4092
 21
99.383
 31
0.0
  0
LINE
  5
16D
  8
0
 10
29.4092
 20
99.383
 30
0.0
 11
29.4545
 21
99.4811
 31
0.0
  0
LINE
  5
16E
  8
0
 10
29.4545
 20
99.4811
 30
0.0
 11
27.1669
 21
102.022
 31
0.0
  0
LINE
  5
16F
  8
0
 10
27.1669
 20
102.022
 30
0.0
 11
26.9302
 21
101.994
 31
0.0
  0
LINE
  5
170
  8
0
 10
26.9302
 20
101.994
 30
0.0
 11
26.3336
 21
102.162
 31
0.0
  0
LINE
  5
171
  8
0
 10
26.3336
 20
102.162
 30
0.0
 11
25.8468
 21
102.546
 31
0.0
  0
LINE
  5
172
  8
0
 10
25.8468
 20
102.546
 30
0.0
 11
25.5439
 21
103.087
 31
0.0
  0
LINE
  5
173
  8
0
 10
25.5439
 20
103.087
 30
0.0
 11
25.471
 21
103.702
 31
0.0
  0
LINE
  5
174
  8
0
 10
25.471
 20
103.702
 30
0.0
 11
25.5146
 21
103.857
 31
0.0
  0
LINE
  5
175
  8
0
 10
25.5146
 20
103.857
 30
0.0
 11
25.0632
 21
104.358
 31
0.0
  0
LINE
  5
176
  8
0
 10
25.0632
 20
104.358
 30
0.0
 11
22.8566
 21
105.961
 31
0.0
  0
LINE
  5
177
  8
0
 10
22.8566
 20
105.961
 30
0.0
 11
22.6141
 21
105.893
 31
0.0
  0
LINE
  5
178
  8
0
 10
22.6141
 20
105.893
 30
0.0
 11
21.9985
 21
105.966
 31
0.0
  0
LINE
  5
179
  8
0
 10
21.9985
 20
105.966
 30
0.0
 11
21.4576
 21
106.269
 31
0.0
  0
LINE
  5
17A
  8
0
 10
21.4576
 20
106.269
 30
0.0
 11
21.0739
 21
106.755
 31
0.0
  0
LINE
  5
17B
  8
0
 10
21.0739
 20
106.755
 30
0.0
 11
20.9056
 21
107.352
 31
0.0
  0
LINE
  5
17C
  8
0
 10
20.9056
 20
107.352
 30
0.0
 11
20.9085
 21
107.377
 31
0.0
  0
LINE
  5
17D
  8
0
 10
20.9085
 20
107.377
 30
0.0
 11
18.7282
 21
108.961
 31
0.0
  0
LINE
  5
17E
  8
0
 10
18.7282
 20
108.961
 30
0.0
 11
18.1068
 21
109.237
 31
0.0
  0
LINE
  5
17F
  8
0
 10
18.1068
 20
109.237
 30
0.0
 11
17.7412
 21
109.069
 31
0.0
  0
LINE
  5
180
  8
0
 10
17.7412
 20
109.069
 30
0.0
 11
17.1217
 21
109.045
 31
0.0
  0
LINE
  5
181
  8
0
 10
17.1217
 20
109.045
 30
0.0
 11
16.5402
 21
109.259
 31
0.0
  0
LINE
  5
182
  8
0
 10
16.5402
 20
109.259
 30
0.0
 11
16.0849
 21
109.68
 31
0.0
  0
LINE
  5
183
  8
0
 10
16.0849
 20
109.68
 30
0.0
 11
15.8254
 21
110.243
 31
0.0
  0
LINE
  5
184
  8
0
 10
15.8254
 20
110.243
 30
0.0
 11
15.825
 21
110.253
 31
0.0
  0
LINE
  5
185
  8
0
 10
15.825
 20
110.253
 30
0.0
 11
12.7195
 21
111.636
 31
0.0
  0
LINE
  5
186
  8
0
 10
12.7195
 20
111.636
 30
0.0
 11
12.4314
 21
111.444
 31
0.0
  0
LINE
  5
187
  8
0
 10
12.4314
 20
111.444
 30
0.0
 11
11.8234
 21
111.323
 31
0.0
  0
LINE
  5
188
  8
0
 10
11.8234
 20
111.323
 30
0.0
 11
11.2154
 21
111.444
 31
0.0
  0
LINE
  5
189
  8
0
 10
11.2154
 20
111.444
 30
0.0
 11
10.7
 21
111.788
 31
0.0
  0
LINE
  5
18A
  8
0
 10
10.7
 20
111.788
 30
0.0
 11
10.3556
 21
112.303
 31
0.0
  0
LINE
  5
18B
  8
0
 10
10.3556
 20
112.303
 30
0.0
 11
10.3345
 21
112.409
 31
0.0
  0
LINE
  5
18C
  8
0
 10
10.3345
 20
112.409
 30
0.0
 11
6.99055
 21
113.12
 31
0.0
  0
LINE
  5
18D
  8
0
 10
6.99055
 20
113.12
 30
0.0
 11
6.81551
 21
112.958
 31
0.0
  0
LINE
  5
18E
  8
0
 10
6.81551
 20
112.958
 30
0.0
 11
6.23392
 21
112.744
 31
0.0
  0
LINE
  5
18F
  8
0
 10
6.23392
 20
112.744
 30
0.0
 11
5.6145
 21
112.768
 31
0.0
  0
LINE
  5
190
  8
0
 10
5.6145
 20
112.768
 30
0.0
 11
5.05154
 21
113.028
 31
0.0
  0
LINE
  5
191
  8
0
 10
5.05154
 20
113.028
 30
0.0
 11
4.63075
 21
113.483
 31
0.0
  0
LINE
  5
192
  8
0
 10
4.63075
 20
113.483
 30
0.0
 11
4.57515
 21
113.634
 31
0.0
  0
LINE
  5
193
  8
0
 10
4.57515
 20
113.634
 30
0.0
 11
3.91525
 21
113.774
 31
0.0
  0
LINE
  5
194
  8
0
 10
3.91525
 20
113.774
 30
0.0
 11
1.18782
 21
113.774
 31
0.0
  0
LINE
  5
195
  8
0
 10
1.18782
 20
113.774
 30
0.0
 11
1.0318
 21
113.576
 31
0.0
  0
LINE
  5
196
  8
0
 10
1.0318
 20
113.576
 30
0.0
 11
0.490936
 21
113.273
 31
0.0
  0
LINE
  5
197
  8
0
 10
0.490936
 20
113.273
 30
0.0
 11
-0.124649
 21
113.2
 31
0.0
  0
LINE
  5
198
  8
0
 10
-0.124649
 20
113.2
 30
0.0
 11
-0.721268
 21
113.368
 31
0.0
  0
LINE
  5
199
  8
0
 10
-0.721268
 20
113.368
 30
0.0
 11
-1.20808
 21
113.752
 31
0.0
  0
LINE
  5
19A
  8
0
 10
-1.20808
 20
113.752
 30
0.0
 11
-1.22018
 21
113.774
 31
0.0
  0
LINE
  5
19B
  8
0
 10
-1.22018
 20
113.774
 30
0.0
 11
-3.91525
 21
113.774
 31
0.0
  0
LINE
  5
19C
  8
0
 10
-3.91525
 20
113.774
 30
0.0
 11
-4.58058
 21
113.632
 31
0.0
  0
LINE
  5
19D
  8
0
 10
-4.58058
 20
113.632
 30
0.0
 11
-4.7773
 21
113.281
 31
0.0
  0
LINE
  5
19E
  8
0
 10
-4.7773
 20
113.281
 30
0.0
 11
-5.26411
 21
112.897
 31
0.0
  0
LINE
  5
19F
  8
0
 10
-5.26411
 20
112.897
 30
0.0
 11
-5.86073
 21
112.729
 31
0.0
  0
LINE
  5
1A0
  8
0
 10
-5.86073
 20
112.729
 30
0.0
 11
-6.47633
 21
112.802
 31
0.0
  0
LINE
  5
1A1
  8
0
 10
-6.47633
 20
112.802
 30
0.0
 11
-7.0172
 21
113.105
 31
0.0
  0
LINE
  5
1A2
  8
0
 10
-7.0172
 20
113.105
 30
0.0
 11
-7.02368
 21
113.113
 31
0.0
  0
LINE
  5
1A3
  8
0
 10
-7.02368
 20
113.113
 30
0.0
 11
-10.3488
 21
112.406
 31
0.0
  0
LINE
  5
1A4
  8
0
 10
-10.3488
 20
112.406
 30
0.0
 11
-10.4688
 21
112.081
 31
0.0
  0
LINE
  5
1A5
  8
0
 10
-10.4688
 20
112.081
 30
0.0
 11
-10.8896
 21
111.626
 31
0.0
  0
LINE
  5
1A6
  8
0
 10
-10.8896
 20
111.626
 30
0.0
 11
-11.4525
 21
111.367
 31
0.0
  0
LINE
  5
1A7
  8
0
 10
-11.4525
 20
111.367
 30
0.0
 11
-12.0719
 21
111.342
 31
0.0
  0
LINE
  5
1A8
  8
0
 10
-12.0719
 20
111.342
 30
0.0
 11
-12.6535
 21
111.557
 31
0.0
  0
LINE
  5
1A9
  8
0
 10
-12.6535
 20
111.557
 30
0.0
 11
-12.7329
 21
111.63
 31
0.0
  0
LINE
  5
1AA
  8
0
 10
-12.7329
 20
111.63
 30
0.0
 11
-15.856
 21
110.24
 31
0.0
  0
LINE
  5
1AB
  8
0
 10
-15.856
 20
110.24
 30
0.0
 11
-15.9025
 21
110.006
 31
0.0
  0
LINE
  5
1AC
  8
0
 10
-15.9025
 20
110.006
 30
0.0
 11
-16.2469
 21
109.49
 31
0.0
  0
LINE
  5
1AD
  8
0
 10
-16.2469
 20
109.49
 30
0.0
 11
-16.7623
 21
109.146
 31
0.0
  0
LINE
  5
1AE
  8
0
 10
-16.7623
 20
109.146
 30
0.0
 11
-17.3703
 21
109.025
 31
0.0
  0
LINE
  5
1AF
  8
0
 10
-17.3703
 20
109.025
 30
0.0
 11
-17.9783
 21
109.146
 31
0.0
  0
LINE
  5
1B0
  8
0
 10
-17.9783
 20
109.146
 30
0.0
 11
-18.1118
 21
109.235
 31
0.0
  0
LINE
  5
1B1
  8
0
 10
-18.1118
 20
109.235
 30
0.0
 11
-18.7282
 21
108.961
 31
0.0
  0
LINE
  5
1B2
  8
0
 10
-18.7282
 20
108.961
 30
0.0
 11
-20.9347
 21
107.358
 31
0.0
  0
LINE
  5
1B3
  8
0
 10
-20.9347
 20
107.358
 30
0.0
 11
-20.9446
 21
107.106
 31
0.0
  0
LINE
  5
1B4
  8
0
 10
-20.9446
 20
107.106
 30
0.0
 11
-21.2041
 21
106.543
 31
0.0
  0
LINE
  5
1B5
  8
0
 10
-21.2041
 20
106.543
 30
0.0
 11
-21.6593
 21
106.122
 31
0.0
  0
LINE
  5
1B6
  8
0
 10
-21.6593
 20
106.122
 30
0.0
 11
-22.2409
 21
105.908
 31
0.0
  0
LINE
  5
1B7
  8
0
 10
-22.2409
 20
105.908
 30
0.0
 11
-22.8603
 21
105.932
 31
0.0
  0
LINE
  5
1B8
  8
0
 10
-22.8603
 20
105.932
 30
0.0
 11
-22.8828
 21
105.942
 31
0.0
  0
LINE
  5
1B9
  8
0
 10
-22.8828
 20
105.942
 30
0.0
 11
-25.0632
 21
104.358
 31
0.0
  0
LINE
  5
1BA
  8
0
 10
-25.0632
 20
104.358
 30
0.0
 11
-25.5183
 21
103.853
 31
0.0
  0
LINE
  5
1BB
  8
0
 10
-25.5183
 20
103.853
 30
0.0
 11
-25.471
 21
103.453
 31
0.0
  0
LINE
  5
1BC
  8
0
 10
-25.471
 20
103.453
 30
0.0
 11
-25.6393
 21
102.856
 31
0.0
  0
LINE
  5
1BD
  8
0
 10
-25.6393
 20
102.856
 30
0.0
 11
-26.023
 21
102.369
 31
0.0
  0
LINE
  5
1BE
  8
0
 10
-26.023
 20
102.369
 30
0.0
 11
-26.5639
 21
102.067
 31
0.0
  0
LINE
  5
1BF
  8
0
 10
-26.5639
 20
102.067
 30
0.0
 11
-27.1795
 21
101.994
 31
0.0
  0
LINE
  5
1C0
  8
0
 10
-27.1795
 20
101.994
 30
0.0
 11
-27.1896
 21
101.997
 31
0.0
  0
LINE
  5
1C1
  8
0
 10
-27.1896
 20
101.997
 30
0.0
 11
-29.4643
 21
99.4702
 31
0.0
  0
LINE
  5
1C2
  8
0
 10
-29.4643
 20
99.4702
 30
0.0
 11
-29.3702
 21
99.1368
 31
0.0
  0
LINE
  5
1C3
  8
0
 10
-29.3702
 20
99.1368
 30
0.0
 11
-29.4431
 21
98.5212
 31
0.0
  0
LINE
  5
1C4
  8
0
 10
-29.4431
 20
98.5212
 30
0.0
 11
-29.746
 21
97.9803
 31
0.0
  0
LINE
  5
1C5
  8
0
 10
-29.746
 20
97.9803
 30
0.0
 11
-30.2328
 21
97.5965
 31
0.0
  0
LINE
  5
1C6
  8
0
 10
-30.2328
 20
97.5965
 30
0.0
 11
-30.8294
 21
97.4283
 31
0.0
  0
LINE
  5
1C7
  8
0
 10
-30.8294
 20
97.4283
 30
0.0
 11
-30.9367
 21
97.441
 31
0.0
  0
LINE
  5
1C8
  8
0
 10
-30.9367
 20
97.441
 30
0.0
 11
-32.646
 21
94.4803
 31
0.0
  0
LINE
  5
1C9
  8
0
 10
-32.646
 20
94.4803
 30
0.0
 11
-32.5462
 21
94.2638
 31
0.0
  0
LINE
  5
1CA
  8
0
 10
-32.5462
 20
94.2638
 30
0.0
 11
-32.5219
 21
93.6444
 31
0.0
  0
LINE
  5
1CB
  8
0
 10
-32.5219
 20
93.6444
 30
0.0
 11
-32.7365
 21
93.0628
 31
0.0
  0
LINE
  5
1CC
  8
0
 10
-32.7365
 20
93.0628
 30
0.0
 11
-33.1572
 21
92.6076
 31
0.0
  0
LINE
  5
1CD
  8
0
 10
-33.1572
 20
92.6076
 30
0.0
 11
-33.7202
 21
92.3481
 31
0.0
  0
LINE
  5
1CE
  8
0
 10
-33.7202
 20
92.3481
 30
0.0
 11
-33.8807
 21
92.3418
 31
0.0
  0
LINE
  5
1CF
  8
0
 10
-33.8807
 20
92.3418
 30
0.0
 11
-34.2181
 21
91.7575
 31
0.0
  0
LINE
  5
1D0
  8
0
 10
-34.2181
 20
91.7575
 30
0.0
 11
-35.0609
 21
89.1636
 31
0.0
  0
LINE
  5
1D1
  8
0
 10
-35.0609
 20
89.1636
 30
0.0
 11
-34.9209
 21
88.9541
 31
0.0
  0
LINE
  5
1D2
  8
0
 10
-34.9209
 20
88.9541
 30
0.0
 11
-34.7999
 21
88.3461
 31
0.0
  0
LINE
  5
1D3
  8
0
 10
-34.7999
 20
88.3461
 30
0.0
 11
-34.9209
 21
87.7381
 31
0.0
  0
LINE
  5
1D4
  8
0
 10
-34.9209
 20
87.7381
 30
0.0
 11
-35.2653
 21
87.2227
 31
0.0
  0
LINE
  5
1D5
  8
0
 10
-35.2653
 20
87.2227
 30
0.0
 11
-35.7807
 21
86.8783
 31
0.0
  0
LINE
  5
1D6
  8
0
 10
-35.7807
 20
86.8783
 30
0.0
 11
-35.805
 21
86.8734
 31
0.0
  0
LINE
  5
1D7
  8
0
 10
-35.805
 20
86.8734
 30
0.0
 11
-36.6378
 21
84.3103
 31
0.0
  0
LINE
  5
1D8
  8
0
 10
-36.6378
 20
84.3103
 30
0.0
 11
-36.7089
 21
83.6338
 31
0.0
  0
LINE
  5
1D9
  8
0
 10
-36.7089
 20
83.6338
 30
0.0
 11
-36.4356
 21
83.3382
 31
0.0
  0
LINE
  5
1DA
  8
0
 10
-36.4356
 20
83.3382
 30
0.0
 11
-36.2211
 21
82.7566
 31
0.0
  0
LINE
  5
1DB
  8
0
 10
-36.2211
 20
82.7566
 30
0.0
 11
-36.2454
 21
82.1372
 31
0.0
  0
LINE
  5
1DC
  8
0
 10
-36.2454
 20
82.1372
 30
0.0
 11
-36.5049
 21
81.5742
 31
0.0
  0
LINE
  5
1DD
  8
0
 10
-36.5049
 20
81.5742
 30
0.0
 11
-36.9601
 21
81.1534
 31
0.0
  0
LINE
  5
1DE
  8
0
 10
-36.9601
 20
81.1534
 30
0.0
 11
-36.97
 21
81.1498
 31
0.0
  0
LINE
  5
1DF
  8
0
 10
-36.97
 20
81.1498
 30
0.0
 11
-37.3253
 21
77.769
 31
0.0
  0
LINE
  5
1E0
  8
0
 10
-37.3253
 20
77.769
 30
0.0
 11
-37.0532
 21
77.5545
 31
0.0
  0
LINE
  5
1E1
  8
0
 10
-37.0532
 20
77.5545
 30
0.0
 11
-36.7503
 21
77.0136
 31
0.0
  0
LINE
  5
1E2
  8
0
 10
-36.7503
 20
77.0136
 30
0.0
 11
-36.6775
 21
76.398
 31
0.0
  0
LINE
  5
1E3
  8
0
 10
-36.6775
 20
76.398
 30
0.0
 11
-36.8457
 21
75.8014
 31
0.0
  0
LINE
  5
1E4
  8
0
 10
-36.8457
 20
75.8014
 30
0.0
 11
-37.2295
 21
75.3146
 31
0.0
  0
LINE
  5
1E5
  8
0
 10
-37.2295
 20
75.3146
 30
0.0
 11
-37.3238
 21
75.2618
 31
0.0
  0
LINE
  5
1E6
  8
0
 10
-37.3238
 20
75.2618
 30
0.0
 11
-36.9665
 21
71.8618
 31
0.0
  0
LINE
  5
1E7
  8
0
 10
-36.9665
 20
71.8618
 30
0.0
 11
-36.7585
 21
71.7454
 31
0.0
  0
LINE
  5
1E8
  8
0
 10
-36.7585
 20
71.7454
 30
0.0
 11
-36.3747
 21
71.2585
 31
0.0
  0
LINE
  5
1E9
  8
0
 10
-36.3747
 20
71.2585
 30
0.0
 11
-36.2064
 21
70.6619
 31
0.0
  0
LINE
  5
1EA
  8
0
 10
-36.2064
 20
70.6619
 30
0.0
 11
-36.2793
 21
70.0463
 31
0.0
  0
LINE
  5
1EB
  8
0
 10
-36.2793
 20
70.0463
 30
0.0
 11
-36.5822
 21
69.5055
 31
0.0
  0
LINE
  5
1EC
  8
0
 10
-36.5822
 20
69.5055
 30
0.0
 11
-36.7083
 21
69.406
 31
0.0
  0
LINE
  5
1ED
  8
0
 10
-36.7083
 20
69.406
 30
0.0
 11
-36.6378
 21
68.735
 31
0.0
  0
LINE
  5
1EE
  8
0
 10
-36.6378
 20
68.735
 30
0.0
 11
-35.795
 21
66.1411
 31
0.0
  0
LINE
  5
1EF
  8
0
 10
-35.795
 20
66.1411
 30
0.0
 11
-35.5586
 21
66.0539
 31
0.0
  0
LINE
  5
1F0
  8
0
 10
-35.5586
 20
66.0539
 30
0.0
 11
-35.1034
 21
65.6331
 31
0.0
  0
LINE
  5
1F1
  8
0
 10
-35.1034
 20
65.6331
 30
0.0
 11
-34.8438
 21
65.0701
 31
0.0
  0
LINE
  5
1F2
  8
0
 10
-34.8438
 20
65.0701
 30
0.0
 11
-34.8195
 21
64.4507
 31
0.0
  0
LINE
  5
1F3
  8
0
 10
-34.8195
 20
64.4507
 30
0.0
 11
-35.0341
 21
63.8691
 31
0.0
  0
LINE
  5
1F4
  8
0
 10
-35.0341
 20
63.8691
 30
0.0
 11
-35.0509
 21
63.851
 31
0.0
  0
LINE
  5
1F5
  8
0
 10
-35.0509
 20
63.851
 30
0.0
 11
-34.2181
 21
61.2878
 31
0.0
  0
LINE
  5
1F6
  8
0
 10
-34.2181
 20
61.2878
 30
0.0
 11
-33.878
 21
60.6987
 31
0.0
  0
LINE
  5
1F7
  8
0
 10
-33.878
 20
60.6987
 30
0.0
 11
-33.4831
 21
60.6202
 31
0.0
  0
LINE
  5
1F8
  8
0
 10
-33.4831
 20
60.6202
 30
0.0
 11
-32.9677
 21
60.2758
 31
0.0
  0
LINE
  5
1F9
  8
0
 10
-32.9677
 20
60.2758
 30
0.0
 11
-32.6233
 21
59.7604
 31
0.0
  0
LINE
  5
1FA
  8
0
 10
-32.6233
 20
59.7604
 30
0.0
 11
-32.5023
 21
59.1524
 31
0.0
  0
LINE
  5
1FB
  8
0
 10
-32.5023
 20
59.1524
 30
0.0
 11
-32.6233
 21
58.5444
 31
0.0
  0
LINE
  5
1FC
  8
0
 10
-32.6233
 20
58.5444
 30
0.0
 11
-32.6291
 21
58.5357
 31
0.0
  0
LINE
  5
1FD
  8
0
 10
-32.6291
 20
58.5357
 30
0.0
 11
-30.9294
 21
55.5917
 31
0.0
  0
LINE
  5
1FE
  8
0
 10
-30.9294
 20
55.5917
 30
0.0
 11
-30.5832
 21
55.5781
 31
0.0
  0
LINE
  5
1FF
  8
0
 10
-30.5832
 20
55.5781
 30
0.0
 11
-30.0202
 21
55.3185
 31
0.0
  0
LINE
  5
200
  8
0
 10
-30.0202
 20
55.3185
 30
0.0
 11
-29.5994
 21
54.8633
 31
0.0
  0
LINE
  5
201
  8
0
 10
-29.5994
 20
54.8633
 30
0.0
 11
-29.3849
 21
54.2818
 31
0.0
  0
LINE
  5
202
  8
0
 10
-29.3849
 20
54.2818
 30
0.0
 11
-29.4092
 21
53.6623
 31
0.0
  0
LINE
  5
203
  8
0
 10
-29.4092
 20
53.6623
 30
0.0
 11
-29.4545
 21
53.5642
 31
0.0
  0
LINE
  5
204
  8
0
 10
-29.4545
 20
53.5642
 30
0.0
 11
-27.1669
 21
51.0236
 31
0.0
  0
LINE
  5
205
  8
0
 10
-27.1669
 20
51.0236
 30
0.0
 11
-26.9302
 21
51.0517
 31
0.0
  0
LINE
  5
206
  8
0
 10
-26.9302
 20
51.0517
 30
0.0
 11
-26.3336
 21
50.8834
 31
0.0
  0
LINE
  5
207
  8
0
 10
-26.3336
 20
50.8834
 30
0.0
 11
-25.8468
 21
50.4996
 31
0.0
  0
LINE
  5
208
  8
0
 10
-25.8468
 20
50.4996
 30
0.0
 11
-25.5439
 21
49.9588
 31
0.0
  0
LINE
  5
209
  8
0
 10
-25.5439
 20
49.9588
 30
0.0
 11
-25.471
 21
49.3432
 31
0.0
  0
LINE
  5
20A
  8
0
 10
-25.471
 20
49.3432
 30
0.0
 11
-25.5146
 21
49.1885
 31
0.0
  0
LINE
  5
20B
  8
0
 10
-25.5146
 20
49.1885
 30
0.0
 11
-25.0632
 21
48.6872
 31
0.0
  0
LINE
  5
20C
  8
0
 10
-25.0632
 20
48.6872
 30
0.0
 11
-22.8566
 21
47.084
 31
0.0
  0
LINE
  5
20D
  8
0
 10
-22.8566
 20
47.084
 30
0.0
 11
-22.6141
 21
47.1524
 31
0.0
  0
LINE
  5
20E
  8
0
 10
-22.6141
 20
47.1524
 30
0.0
 11
-21.9985
 21
47.0796
 31
0.0
  0
LINE
  5
20F
  8
0
 10
-21.9985
 20
47.0796
 30
0.0
 11
-21.4576
 21
46.7767
 31
0.0
  0
LINE
  5
210
  8
0
 10
-21.4576
 20
46.7767
 30
0.0
 11
-21.0739
 21
46.2899
 31
0.0
  0
LINE
  5
211
  8
0
 10
-21.0739
 20
46.2899
 30
0.0
 11
-20.9056
 21
45.6932
 31
0.0
  0
LINE
  5
212
  8
0
 10
-20.9056
 20
45.6932
 30
0.0
 11
-20.9085
 21
45.6686
 31
0.0
  0
LINE
  5
213
  8
0
 10
-20.9085
 20
45.6686
 30
0.0
 11
-18.7282
 21
44.0845
 31
0.0
  0
LINE
  5
214
  8
0
 10
-18.7282
 20
44.0845
 30
0.0
 11
-18.1068
 21
43.8079
 31
0.0
  0
LINE
  5
215
  8
0
 10
-18.1068
 20
43.8079
 30
0.0
 11
-17.7412
 21
43.9764
 31
0.0
  0
LINE
  5
216
  8
0
 10
-17.7412
 20
43.9764
 30
0.0
 11
-17.1217
 21
44.0007
 31
0.0
  0
LINE
  5
217
  8
0
 10
-17.1217
 20
44.0007
 30
0.0
 11
-16.5402
 21
43.7862
 31
0.0
  0
LINE
  5
218
  8
0
 10
-16.5402
 20
43.7862
 30
0.0
 11
-16.0849
 21
43.3654
 31
0.0
  0
LINE
  5
219
  8
0
 10
-16.0849
 20
43.3654
 30
0.0
 11
-15.8254
 21
42.8024
 31
0.0
  0
LINE
  5
21A
  8
0
 10
-15.8254
 20
42.8024
 30
0.0
 11
-15.825
 21
42.792
 31
0.0
  0
LINE
  5
21B
  8
0
 10
-15.825
 20
42.792
 30
0.0
 11
-12.7195
 21
41.4093
 31
0.0
  0
LINE
  5
21C
  8
0
 10
-12.7195
 20
41.4093
 30
0.0
 11
-12.4314
 21
41.6018
 31
0.0
  0
LINE
  5
21D
  8
0
 10
-12.4314
 20
41.6018
 30
0.0
 11
-11.8234
 21
41.7227
 31
0.0
  0
LINE
  5
21E
  8
0
 10
-11.8234
 20
41.7227
 30
0.0
 11
-11.2154
 21
41.6018
 31
0.0
  0
LINE
  5
21F
  8
0
 10
-11.2154
 20
41.6018
 30
0.0
 11
-10.7
 21
41.2574
 31
0.0
  0
LINE
  5
220
  8
0
 10
-10.7
 20
41.2574
 30
0.0
 11
-10.3556
 21
40.742
 31
0.0
  0
LINE
  5
221
  8
0
 10
-10.3556
 20
40.742
 30
0.0
 11
-10.3345
 21
40.636
 31
0.0
  0
LINE
  5
222
  8
0
 10
-10.3345
 20
40.636
 30
0.0
 11
-6.99055
 21
39.9252
 31
0.0
  0
LINE
  5
223
  8
0
 10
-6.99055
 20
39.9252
 30
0.0
 11
-6.81551
 21
40.087
 31
0.0
  0
LINE
  5
224
  8
0
 10
-6.81551
 20
40.087
 30
0.0
 11
-6.23392
 21
40.3016
 31
0.0
  0
LINE
  5
225
  8
0
 10
-6.23392
 20
40.3016
 30
0.0
 11
-5.6145
 21
40.2772
 31
0.0
  0
LINE
  5
226
  8
0
 10
-5.6145
 20
40.2772
 30
0.0
 11
-5.05154
 21
40.0177
 31
0.0
  0
LINE
  5
227
  8
0
 10
-5.05154
 20
40.0177
 30
0.0
 11
-4.63075
 21
39.5625
 31
0.0
  0
LINE
  5
228
  8
0
 10
-4.63075
 20
39.5625
 30
0.0
 11
-4.57515
 21
39.4118
 31
0.0
  0
LINE
  5
229
  8
0
 10
-4.57515
 20
39.4118
 30
0.0
 11
-3.91525
 21
39.2715
 31
0.0
  0
LINE
  5
22A
  8
0
 10
-3.91525
 20
39.2715
 30
0.0
 11
-1.18782
 21
39.2715
 31
0.0
  0
LINE
  5
22B
  8
0
 10
-1.18782
 20
39.2715
 30
0.0
 11
-1.0318
 21
39.4694
 31
0.0
  0
LINE
  5
22C
  8
0
 10
-1.44638
 20
70.1856
 30
0.0
 11
-3.25
 21
70.8935
 31
0.0
  0
LINE
  5
22D
  8
0
 10
-3.25
 20
70.8935
 30
0.0
 11
-4.76483
 21
72.1015
 31
0.0
  0
LINE
  5
22E
  8
0
 10
-4.76483
 20
72.1015
 30
0.0
 11
-5.85629
 21
73.7024
 31
0.0
  0
LINE
  5
22F
  8
0
 10
-5.85629
 20
73.7024
 30
0.0
 11
-6.4274
 21
75.5539
 31
0.0
  0
LINE
  5
230
  8
0
 10
-6.4274
 20
75.5539
 30
0.0
 11
-6.4274
 21
77.4914
 31
0.0
  0
LINE
  5
231
  8
0
 10
-6.4274
 20
77.4914
 30
0.0
 11
-5.85629
 21
79.3429
 31
0.0
  0
LINE
  5
232
  8
0
 10
-5.85629
 20
79.3429
 30
0.0
 11
-4.76483
 21
80.9438
 31
0.0
  0
LINE
  5
233
  8
0
 10
-4.76483
 20
80.9438
 30
0.0
 11
-3.25
 21
82.1518
 31
0.0
  0
LINE
  5
234
  8
0
 10
-3.25
 20
82.1518
 30
0.0
 11
-1.44638
 21
82.8597
 31
0.0
  0
LINE
  5
235
  8
0
 10
-1.44638
 20
82.8597
 30
0.0
 11
0.485733
 21
83.0045
 31
0.0
  0
LINE
  5
236
  8
0
 10
0.485733
 20
83.0045
 30
0.0
 11
2.37471
 21
82.5733
 31
0.0
  0
LINE
  5
237
  8
0
 10
2.37471
 20
82.5733
 30
0.0
 11
4.05267
 21
81.6046
 31
0.0
  0
LINE
  5
238
  8
0
 10
4.05267
 20
81.6046
 30
0.0
 11
5.37054
 21
80.1842
 31
0.0
  0
LINE
  5
239
  8
0
 10
5.37054
 20
80.1842
 30
0.0
 11
6.21121
 21
78.4386
 31
0.0
  0
LINE
  5
23A
  8
0
 10
6.21121
 20
78.4386
 30
0.0
 11
6.5
 21
76.5227
 31
0.0
  0
LINE
  5
23B
  8
0
 10
6.5
 20
76.5227
 30
0.0
 11
6.21121
 21
74.6068
 31
0.0
  0
LINE
  5
23C
  8
0
 10
6.21121
 20
74.6068
 30
0.0
 11
5.37054
 21
72.8611
 31
0.0
  0
LINE
  5
23D
  8
0
 10
5.37054
 20
72.8611
 30
0.0
 11
4.05267
 21
71.4408
 31
0.0
  0
LINE
  5
23E
  8
0
 10
4.05267
 20
71.4408
 30
0.0
 11
2.37471
 21
70.472
 31
0.0
  0
LINE
  5
23F
  8
0
 10
2.37471
 20
70.472
 30
0.0
 11
0.485733
 21
70.0408
 31
0.0
  0
LINE
  5
240
  8
0
 10
0.485733
 20
70.0408
 30
0.0
 11
-1.44638
 21
70.1856
 31
0.0
  0
LINE
  5
241
  8
0
 10
17.0871
 20
75.2377
 30
0.0
 11
17.0871
 21
77.8077
 31
0.0
  0
LINE
  5
242
  8
0
 10
17.0871
 20
77.8077
 30
0.0
 11
27.6742
 21
77.8077
 31
0.0
  0
LINE
  5
243
  8
0
 10
27.6742
 20
77.8077
 30
0.0
 11
27.6742
 21
75.2377
 31
0.0
  0
LINE
  5
244
  8
0
 10
27.6742
 20
75.2377
 30
0.0
 11
17.0871
 21
75.2377
 31
0.0
  0
LINE
  5
245
  8
0
 10
-3.80487
 20
-37.1544
 30
0.0
 11
-2.57556
 21
-37.2511
 31
0.0
  0
LINE
  5
246
  8
0
 10
-2.57556
 20
-37.2511
 30
0.0
 11
-1.87392
 21
-37.2511
 31
0.0
  0
LINE
  5
247
  8
0
 10
-1.87392
 20
-37.2511
 30
0.0
 11
-1.38858
 21
-36.6355
 31
0.0
  0
LINE
  5
248
  8
0
 10
-1.38858
 20
-36.6355
 30
0.0
 11
-0.660706
 21
-36.2279
 31
0.0
  0
LINE
  5
249
  8
0
 10
-0.660706
 20
-36.2279
 30
0.0
 11
0.16774
 21
-36.1298
 31
0.0
  0
LINE
  5
24A
  8
0
 10
0.16774
 20
-36.1298
 30
0.0
 11
0.970673
 21
-36.3563
 31
0.0
  0
LINE
  5
24B
  8
0
 10
0.970673
 20
-36.3563
 30
0.0
 11
1.62582
 21
-36.8727
 31
0.0
  0
LINE
  5
24C
  8
0
 10
1.62582
 20
-36.8727
 30
0.0
 11
1.83774
 21
-37.2511
 31
0.0
  0
LINE
  5
24D
  8
0
 10
1.83774
 20
-37.2511
 30
0.0
 11
2.57556
 21
-37.2511
 31
0.0
  0
LINE
  5
24E
  8
0
 10
2.57556
 20
-37.2511
 30
0.0
 11
3.95033
 21
-37.1429
 31
0.0
  0
LINE
  5
24F
  8
0
 10
3.95033
 20
-37.1429
 30
0.0
 11
3.95192
 21
-37.1295
 31
0.0
  0
LINE
  5
250
  8
0
 10
3.95192
 20
-37.1295
 30
0.0
 11
4.35956
 21
-36.4017
 31
0.0
  0
LINE
  5
251
  8
0
 10
4.35956
 20
-36.4017
 30
0.0
 11
5.01471
 21
-35.8852
 31
0.0
  0
LINE
  5
252
  8
0
 10
5.01471
 20
-35.8852
 30
0.0
 11
5.81763
 21
-35.6588
 31
0.0
  0
LINE
  5
253
  8
0
 10
5.81763
 20
-35.6588
 30
0.0
 11
6.6461
 21
-35.7568
 31
0.0
  0
LINE
  5
254
  8
0
 10
6.6461
 20
-35.7568
 30
0.0
 11
7.37398
 21
-36.1644
 31
0.0
  0
LINE
  5
255
  8
0
 10
7.37398
 20
-36.1644
 30
0.0
 11
7.61133
 21
-36.4655
 31
0.0
  0
LINE
  5
256
  8
0
 10
7.61133
 20
-36.4655
 30
0.0
 11
9.72568
 21
-36.0161
 31
0.0
  0
LINE
  5
257
  8
0
 10
9.72568
 20
-36.0161
 30
0.0
 11
10.0004
 21
-35.2715
 31
0.0
  0
LINE
  5
258
  8
0
 10
10.0004
 20
-35.2715
 30
0.0
 11
10.5667
 21
-34.6589
 31
0.0
  0
LINE
  5
259
  8
0
 10
10.5667
 20
-34.6589
 30
0.0
 11
11.3243
 21
-34.3096
 31
0.0
  0
LINE
  5
25A
  8
0
 10
11.3243
 20
-34.3096
 30
0.0
 11
12.1579
 21
-34.2769
 31
0.0
  0
LINE
  5
25B
  8
0
 10
12.1579
 20
-34.2769
 30
0.0
 11
12.9406
 21
-34.5656
 31
0.0
  0
LINE
  5
25C
  8
0
 10
12.9406
 20
-34.5656
 30
0.0
 11
13.2686
 21
-34.8689
 31
0.0
  0
LINE
  5
25D
  8
0
 10
13.2686
 20
-34.8689
 30
0.0
 11
15.2532
 21
-33.9853
 31
0.0
  0
LINE
  5
25E
  8
0
 10
15.2532
 20
-33.9853
 30
0.0
 11
15.3949
 21
-33.2729
 31
0.0
  0
LINE
  5
25F
  8
0
 10
15.3949
 20
-33.2729
 30
0.0
 11
15.8584
 21
-32.5792
 31
0.0
  0
LINE
  5
260
  8
0
 10
15.8584
 20
-32.5792
 30
0.0
 11
16.552
 21
-32.1157
 31
0.0
  0
LINE
  5
261
  8
0
 10
16.552
 20
-32.1157
 30
0.0
 11
17.3703
 21
-31.953
 31
0.0
  0
LINE
  5
262
  8
0
 10
17.3703
 20
-31.953
 30
0.0
 11
18.1885
 21
-32.1157
 31
0.0
  0
LINE
  5
263
  8
0
 10
18.1885
 20
-32.1157
 30
0.0
 11
18.6938
 21
-32.4534
 31
0.0
  0
LINE
  5
264
  8
0
 10
18.6938
 20
-32.4534
 30
0.0
 11
18.7282
 21
-32.4381
 31
0.0
  0
LINE
  5
265
  8
0
 10
18.7282
 20
-32.4381
 30
0.0
 11
18.8113
 21
-32.3777
 31
0.0
  0
LINE
  5
266
  8
0
 10
18.8113
 20
-32.3777
 30
0.0
 11
18.7606
 21
-32.295
 31
0.0
  0
LINE
  5
267
  8
0
 10
18.7606
 20
-32.295
 30
0.0
 11
19.812
 21
-31.6507
 31
0.0
  0
LINE
  5
268
  8
0
 10
19.812
 20
-31.6507
 30
0.0
 11
20.3796
 21
-31.2383
 31
0.0
  0
LINE
  5
269
  8
0
 10
20.3796
 20
-31.2383
 30
0.0
 11
20.4104
 21
-30.4549
 31
0.0
  0
LINE
  5
26A
  8
0
 10
20.4104
 20
-30.4549
 30
0.0
 11
20.7597
 21
-29.6973
 31
0.0
  0
LINE
  5
26B
  8
0
 10
20.7597
 20
-29.6973
 30
0.0
 11
21.3723
 21
-29.131
 31
0.0
  0
LINE
  5
26C
  8
0
 10
21.3723
 20
-29.131
 30
0.0
 11
22.155
 21
-28.8423
 31
0.0
  0
LINE
  5
26D
  8
0
 10
22.155
 20
-28.8423
 30
0.0
 11
22.9886
 21
-28.875
 31
0.0
  0
LINE
  5
26E
  8
0
 10
22.9886
 20
-28.875
 30
0.0
 11
23.3824
 21
-29.0566
 31
0.0
  0
LINE
  5
26F
  8
0
 10
23.3824
 20
-29.0566
 30
0.0
 11
23.9793
 21
-28.6229
 31
0.0
  0
LINE
  5
270
  8
0
 10
23.9793
 20
-28.6229
 30
0.0
 11
25.028
 21
-27.7273
 31
0.0
  0
LINE
  5
271
  8
0
 10
25.028
 20
-27.7273
 30
0.0
 11
25.0214
 21
-27.7156
 31
0.0
  0
LINE
  5
272
  8
0
 10
25.0214
 20
-27.7156
 30
0.0
 11
24.9233
 21
-26.8871
 31
0.0
  0
LINE
  5
273
  8
0
 10
24.9233
 20
-26.8871
 30
0.0
 11
25.1498
 21
-26.0842
 31
0.0
  0
LINE
  5
274
  8
0
 10
25.1498
 20
-26.0842
 30
0.0
 11
25.6662
 21
-25.429
 31
0.0
  0
LINE
  5
275
  8
0
 10
25.6662
 20
-25.429
 30
0.0
 11
26.3941
 21
-25.0214
 31
0.0
  0
LINE
  5
276
  8
0
 10
26.3941
 20
-25.0214
 30
0.0
 11
27.2226
 21
-24.9233
 31
0.0
  0
LINE
  5
277
  8
0
 10
27.2226
 20
-24.9233
 30
0.0
 11
27.5916
 21
-25.0274
 31
0.0
  0
LINE
  5
278
  8
0
 10
27.5916
 20
-25.0274
 30
0.0
 11
29.038
 21
-23.421
 31
0.0
  0
LINE
  5
279
  8
0
 10
29.038
 20
-23.421
 30
0.0
 11
28.8225
 21
-22.6572
 31
0.0
  0
LINE
  5
27A
  8
0
 10
28.8225
 20
-22.6572
 30
0.0
 11
28.9206
 21
-21.8287
 31
0.0
  0
LINE
  5
27B
  8
0
 10
28.9206
 20
-21.8287
 30
0.0
 11
29.3282
 21
-21.1008
 31
0.0
  0
LINE
  5
27C
  8
0
 10
29.3282
 20
-21.1008
 30
0.0
 11
29.9834
 21
-20.5844
 31
0.0
  0
LINE
  5
27D
  8
0
 10
29.9834
 20
-20.5844
 30
0.0
 11
30.7863
 21
-20.3579
 31
0.0
  0
LINE
  5
27E
  8
0
 10
30.7863
 20
-20.3579
 30
0.0
 11
31.2299
 21
-20.4104
 31
0.0
  0
LINE
  5
27F
  8
0
 10
31.2299
 20
-20.4104
 30
0.0
 11
32.3161
 21
-18.5291
 31
0.0
  0
LINE
  5
280
  8
0
 10
32.3161
 20
-18.5291
 30
0.0
 11
32.0121
 21
-17.8694
 31
0.0
  0
LINE
  5
281
  8
0
 10
32.0121
 20
-17.8694
 30
0.0
 11
31.9793
 21
-17.0358
 31
0.0
  0
LINE
  5
282
  8
0
 10
31.9793
 20
-17.0358
 30
0.0
 11
32.2681
 21
-16.2531
 31
0.0
  0
LINE
  5
283
  8
0
 10
32.2681
 20
-16.2531
 30
0.0
 11
32.8343
 21
-15.6405
 31
0.0
  0
LINE
  5
284
  8
0
 10
32.8343
 20
-15.6405
 30
0.0
 11
33.592
 21
-15.2912
 31
0.0
  0
LINE
  5
285
  8
0
 10
33.592
 20
-15.2912
 30
0.0
 11
34.1993
 21
-15.2674
 31
0.0
  0
LINE
  5
286
  8
0
 10
34.1993
 20
-15.2674
 30
0.0
 11
34.2181
 21
-15.2349
 31
0.0
  0
LINE
  5
287
  8
0
 10
34.2181
 20
-15.2349
 30
0.0
 11
34.2498
 21
-15.1371
 31
0.0
  0
LINE
  5
288
  8
0
 10
34.2498
 20
-15.1371
 30
0.0
 11
34.1602
 21
-15.1
 31
0.0
  0
LINE
  5
289
  8
0
 10
34.1602
 20
-15.1
 30
0.0
 11
34.632
 21
-13.9607
 31
0.0
  0
LINE
  5
28A
  8
0
 10
34.632
 20
-13.9607
 30
0.0
 11
34.8489
 21
-13.2934
 31
0.0
  0
LINE
  5
28B
  8
0
 10
34.8489
 20
-13.2934
 30
0.0
 11
34.4133
 21
-12.6416
 31
0.0
  0
LINE
  5
28C
  8
0
 10
34.4133
 20
-12.6416
 30
0.0
 11
34.2506
 21
-11.8234
 31
0.0
  0
LINE
  5
28D
  8
0
 10
34.2506
 20
-11.8234
 30
0.0
 11
34.4133
 21
-11.0052
 31
0.0
  0
LINE
  5
28E
  8
0
 10
34.4133
 20
-11.0052
 30
0.0
 11
34.8768
 21
-10.3115
 31
0.0
  0
LINE
  5
28F
  8
0
 10
34.8768
 20
-10.3115
 30
0.0
 11
35.5705
 21
-9.84804
 31
0.0
  0
LINE
  5
290
  8
0
 10
35.5705
 20
-9.84804
 30
0.0
 11
35.9958
 21
-9.76343
 31
0.0
  0
LINE
  5
291
  8
0
 10
35.9958
 20
-9.76343
 30
0.0
 11
36.2238
 21
-9.06172
 31
0.0
  0
LINE
  5
292
  8
0
 10
36.2238
 20
-9.06172
 30
0.0
 11
36.5458
 21
-7.72079
 31
0.0
  0
LINE
  5
293
  8
0
 10
36.5458
 20
-7.72079
 30
0.0
 11
36.5335
 21
-7.71515
 31
0.0
  0
LINE
  5
294
  8
0
 10
36.5335
 20
-7.71515
 30
0.0
 11
35.9672
 21
-7.10254
 31
0.0
  0
LINE
  5
295
  8
0
 10
35.9672
 20
-7.10254
 30
0.0
 11
35.6785
 21
-6.31985
 31
0.0
  0
LINE
  5
296
  8
0
 10
35.6785
 20
-6.31985
 30
0.0
 11
35.7112
 21
-5.48625
 31
0.0
  0
LINE
  5
297
  8
0
 10
35.7112
 20
-5.48625
 30
0.0
 11
36.0605
 21
-4.72864
 31
0.0
  0
LINE
  5
298
  8
0
 10
36.0605
 20
-4.72864
 30
0.0
 11
36.6731
 21
-4.16234
 31
0.0
  0
LINE
  5
299
  8
0
 10
36.6731
 20
-4.16234
 30
0.0
 11
37.0328
 21
-4.02965
 31
0.0
  0
LINE
  5
29A
  8
0
 10
37.0328
 20
-4.02965
 30
0.0
 11
37.2587
 21
-1.87991
 31
0.0
  0
LINE
  5
29B
  8
0
 10
37.2587
 20
-1.87991
 30
0.0
 11
36.6355
 21
-1.38858
 31
0.0
  0
LINE
  5
29C
  8
0
 10
36.6355
 20
-1.38858
 30
0.0
 11
36.2279
 21
-0.660706
 31
0.0
  0
LINE
  5
29D
  8
0
 10
36.2279
 20
-0.660706
 30
0.0
 11
36.1298
 21
0.16774
 31
0.0
  0
LINE
  5
29E
  8
0
 10
36.1298
 20
0.16774
 30
0.0
 11
36.3563
 21
0.970673
 31
0.0
  0
LINE
  5
29F
  8
0
 10
36.3563
 20
0.970673
 30
0.0
 11
36.8727
 21
1.62582
 31
0.0
  0
LINE
  5
2A0
  8
0
 10
36.8727
 20
1.62582
 30
0.0
 11
37.2625
 21
1.8441
 31
0.0
  0
LINE
  5
2A1
  8
0
 10
37.2625
 20
1.8441
 30
0.0
 11
37.0354
 21
4.00464
 31
0.0
  0
LINE
  5
2A2
  8
0
 10
37.0354
 20
4.00464
 30
0.0
 11
36.4017
 21
4.35956
 31
0.0
  0
LINE
  5
2A3
  8
0
 10
36.4017
 20
4.35956
 30
0.0
 11
35.8852
 21
5.01471
 31
0.0
  0
LINE
  5
2A4
  8
0
 10
35.8852
 20
5.01471
 30
0.0
 11
35.6588
 21
5.81763
 31
0.0
  0
LINE
  5
2A5
  8
0
 10
35.6588
 20
5.81763
 30
0.0
 11
35.7568
 21
6.6461
 31
0.0
  0
LINE
  5
2A6
  8
0
 10
35.7568
 20
6.6461
 30
0.0
 11
36.1644
 21
7.37398
 31
0.0
  0
LINE
  5
2A7
  8
0
 10
36.1644
 20
7.37398
 30
0.0
 11
36.6417
 21
7.75026
 31
0.0
  0
LINE
  5
2A8
  8
0
 10
36.6417
 20
7.75026
 30
0.0
 11
36.6378
 21
7.7876
 31
0.0
  0
LINE
  5
2A9
  8
0
 10
36.6378
 20
7.7876
 30
0.0
 11
36.6061
 21
7.88533
 31
0.0
  0
LINE
  5
2AA
  8
0
 10
36.6061
 20
7.88533
 30
0.0
 11
36.5117
 21
7.86267
 31
0.0
  0
LINE
  5
2AB
  8
0
 10
36.5117
 20
7.86267
 30
0.0
 11
36.2238
 21
9.06172
 31
0.0
  0
LINE
  5
2AC
  8
0
 10
36.2238
 20
9.06172
 30
0.0
 11
36.007
 21
9.72902
 31
0.0
  0
LINE
  5
2AD
  8
0
 10
36.007
 20
9.72902
 30
0.0
 11
35.2715
 21
10.0004
 31
0.0
  0
LINE
  5
2AE
  8
0
 10
35.2715
 20
10.0004
 30
0.0
 11
34.6589
 21
10.5667
 31
0.0
  0
LINE
  5
2AF
  8
0
 10
34.6589
 20
10.5667
 30
0.0
 11
34.3096
 21
11.3243
 31
0.0
  0
LINE
  5
2B0
  8
0
 10
34.3096
 20
11.3243
 30
0.0
 11
34.2769
 21
12.1579
 31
0.0
  0
LINE
  5
2B1
  8
0
 10
34.2769
 20
12.1579
 30
0.0
 11
34.5656
 21
12.9406
 31
0.0
  0
LINE
  5
2B2
  8
0
 10
34.5656
 20
12.9406
 30
0.0
 11
34.86
 21
13.259
 31
0.0
  0
LINE
  5
2B3
  8
0
 10
34.86
 20
13.259
 30
0.0
 11
34.632
 21
13.9607
 31
0.0
  0
LINE
  5
2B4
  8
0
 10
34.632
 20
13.9607
 30
0.0
 11
34.1043
 21
15.2348
 31
0.0
  0
LINE
  5
2B5
  8
0
 10
34.1043
 20
15.2348
 30
0.0
 11
34.0911
 21
15.2322
 31
0.0
  0
LINE
  5
2B6
  8
0
 10
34.0911
 20
15.2322
 30
0.0
 11
33.2729
 21
15.3949
 31
0.0
  0
LINE
  5
2B7
  8
0
 10
33.2729
 20
15.3949
 30
0.0
 11
32.5792
 21
15.8584
 31
0.0
  0
LINE
  5
2B8
  8
0
 10
32.5792
 20
15.8584
 30
0.0
 11
32.1157
 21
16.552
 31
0.0
  0
LINE
  5
2B9
  8
0
 10
32.1157
 20
16.552
 30
0.0
 11
31.953
 21
17.3703
 31
0.0
  0
LINE
  5
2BA
  8
0
 10
31.953
 20
17.3703
 30
0.0
 11
32.1157
 21
18.1885
 31
0.0
  0
LINE
  5
2BB
  8
0
 10
32.1157
 20
18.1885
 30
0.0
 11
32.3287
 21
18.5073
 31
0.0
  0
LINE
  5
2BC
  8
0
 10
32.3287
 20
18.5073
 30
0.0
 11
31.2479
 21
20.3792
 31
0.0
  0
LINE
  5
2BD
  8
0
 10
31.2479
 20
20.3792
 30
0.0
 11
30.4549
 21
20.4104
 31
0.0
  0
LINE
  5
2BE
  8
0
 10
30.4549
 20
20.4104
 30
0.0
 11
29.6973
 21
20.7597
 31
0.0
  0
LINE
  5
2BF
  8
0
 10
29.6973
 20
20.7597
 30
0.0
 11
29.131
 21
21.3723
 31
0.0
  0
LINE
  5
2C0
  8
0
 10
29.131
 20
21.3723
 30
0.0
 11
28.8423
 21
22.155
 31
0.0
  0
LINE
  5
2C1
  8
0
 10
28.8423
 20
22.155
 30
0.0
 11
28.875
 21
22.9886
 31
0.0
  0
LINE
  5
2C2
  8
0
 10
28.875
 20
22.9886
 30
0.0
 11
29.0621
 21
23.3943
 31
0.0
  0
LINE
  5
2C3
  8
0
 10
29.0621
 20
23.3943
 30
0.0
 11
27.6084
 21
25.0087
 31
0.0
  0
LINE
  5
2C4
  8
0
 10
27.6084
 20
25.0087
 30
0.0
 11
26.8871
 21
24.9233
 31
0.0
  0
LINE
  5
2C5
  8
0
 10
26.8871
 20
24.9233
 30
0.0
 11
26.0842
 21
25.1498
 31
0.0
  0
LINE
  5
2C6
  8
0
 10
26.0842
 20
25.1498
 30
0.0
 11
25.429
 21
25.6662
 31
0.0
  0
LINE
  5
2C7
  8
0
 10
25.429
 20
25.6662
 30
0.0
 11
25.0214
 21
26.3941
 31
0.0
  0
LINE
  5
2C8
  8
0
 10
25.0214
 20
26.3941
 30
0.0
 11
24.9233
 21
27.2226
 31
0.0
  0
LINE
  5
2C9
  8
0
 10
24.9233
 20
27.2226
 30
0.0
 11
25.0883
 21
27.8076
 31
0.0
  0
LINE
  5
2CA
  8
0
 10
25.0883
 20
27.8076
 30
0.0
 11
25.0632
 21
27.8355
 31
0.0
  0
LINE
  5
2CB
  8
0
 10
25.0632
 20
27.8355
 30
0.0
 11
24.98
 21
27.8959
 31
0.0
  0
LINE
  5
2CC
  8
0
 10
24.98
 20
27.8959
 30
0.0
 11
24.917
 21
27.8221
 31
0.0
  0
LINE
  5
2CD
  8
0
 10
24.917
 20
27.8221
 30
0.0
 11
23.9793
 21
28.6229
 31
0.0
  0
LINE
  5
2CE
  8
0
 10
23.9793
 20
28.6229
 30
0.0
 11
23.4117
 21
29.0353
 31
0.0
  0
LINE
  5
2CF
  8
0
 10
23.4117
 20
29.0353
 30
0.0
 11
22.6572
 21
28.8225
 31
0.0
  0
LINE
  5
2D0
  8
0
 10
22.6572
 20
28.8225
 30
0.0
 11
21.8287
 21
28.9206
 31
0.0
  0
LINE
  5
2D1
  8
0
 10
21.8287
 20
28.9206
 30
0.0
 11
21.1008
 21
29.3282
 31
0.0
  0
LINE
  5
2D2
  8
0
 10
21.1008
 20
29.3282
 30
0.0
 11
20.5844
 21
29.9834
 31
0.0
  0
LINE
  5
2D3
  8
0
 10
20.5844
 20
29.9834
 30
0.0
 11
20.3579
 21
30.7863
 31
0.0
  0
LINE
  5
2D4
  8
0
 10
20.3579
 20
30.7863
 30
0.0
 11
20.4089
 21
31.217
 31
0.0
  0
LINE
  5
2D5
  8
0
 10
20.4089
 20
31.217
 30
0.0
 11
19.812
 21
31.6507
 31
0.0
  0
LINE
  5
2D6
  8
0
 10
19.812
 20
31.6507
 30
0.0
 11
18.6362
 21
32.3712
 31
0.0
  0
LINE
  5
2D7
  8
0
 10
18.6362
 20
32.3712
 30
0.0
 11
18.627
 21
32.3613
 31
0.0
  0
LINE
  5
2D8
  8
0
 10
18.627
 20
32.3613
 30
0.0
 11
17.8694
 21
32.0121
 31
0.0
  0
LINE
  5
2D9
  8
0
 10
17.8694
 20
32.0121
 30
0.0
 11
17.0358
 21
31.9793
 31
0.0
  0
LINE
  5
2DA
  8
0
 10
17.0358
 20
31.9793
 30
0.0
 11
16.2531
 21
32.2681
 31
0.0
  0
LINE
  5
2DB
  8
0
 10
16.2531
 20
32.2681
 30
0.0
 11
15.6405
 21
32.8343
 31
0.0
  0
LINE
  5
2DC
  8
0
 10
15.6405
 20
32.8343
 30
0.0
 11
15.2912
 21
33.592
 31
0.0
  0
LINE
  5
2DD
  8
0
 10
15.2912
 20
33.592
 30
0.0
 11
15.2762
 21
33.9751
 31
0.0
  0
LINE
  5
2DE
  8
0
 10
15.2762
 20
33.9751
 30
0.0
 11
13.3015
 21
34.8542
 31
0.0
  0
LINE
  5
2DF
  8
0
 10
13.3015
 20
34.8542
 30
0.0
 11
12.6416
 21
34.4133
 31
0.0
  0
LINE
  5
2E0
  8
0
 10
12.6416
 20
34.4133
 30
0.0
 11
11.8234
 21
34.2506
 31
0.0
  0
LINE
  5
2E1
  8
0
 10
11.8234
 20
34.2506
 30
0.0
 11
11.0052
 21
34.4133
 31
0.0
  0
LINE
  5
2E2
  8
0
 10
11.0052
 20
34.4133
 30
0.0
 11
10.3115
 21
34.8768
 31
0.0
  0
LINE
  5
2E3
  8
0
 10
10.3115
 20
34.8768
 30
0.0
 11
9.84804
 21
35.5705
 31
0.0
  0
LINE
  5
2E4
  8
0
 10
9.84804
 20
35.5705
 30
0.0
 11
9.76088
 21
36.0086
 31
0.0
  0
LINE
  5
2E5
  8
0
 10
9.76088
 20
36.0086
 30
0.0
 11
7.63593
 21
36.4603
 31
0.0
  0
LINE
  5
2E6
  8
0
 10
7.63593
 20
36.4603
 30
0.0
 11
7.10254
 21
35.9672
 31
0.0
  0
LINE
  5
2E7
  8
0
 10
7.10254
 20
35.9672
 30
0.0
 11
6.31985
 21
35.6785
 31
0.0
  0
LINE
  5
2E8
  8
0
 10
6.31985
 20
35.6785
 30
0.0
 11
5.48625
 21
35.7112
 31
0.0
  0
LINE
  5
2E9
  8
0
 10
5.48625
 20
35.7112
 30
0.0
 11
4.72864
 21
36.0605
 31
0.0
  0
LINE
  5
2EA
  8
0
 10
4.72864
 20
36.0605
 30
0.0
 11
4.16234
 21
36.6731
 31
0.0
  0
LINE
  5
2EB
  8
0
 10
4.16234
 20
36.6731
 30
0.0
 11
3.95198
 21
37.2433
 31
0.0
  0
LINE
  5
2EC
  8
0
 10
3.95198
 20
37.2433
 30
0.0
 11
3.91525
 21
37.2511
 31
0.0
  0
LINE
  5
2ED
  8
0
 10
3.91525
 20
37.2511
 30
0.0
 11
3.81248
 21
37.2511
 31
0.0
  0
LINE
  5
2EE
  8
0
 10
3.81248
 20
37.2511
 30
0.0
 11
3.80487
 21
37.1544
 31
0.0
  0
LINE
  5
2EF
  8
0
 10
3.80487
 20
37.1544
 30
0.0
 11
2.57556
 21
37.2511
 31
0.0
  0
LINE
  5
2F0
  8
0
 10
2.57556
 20
37.2511
 30
0.0
 11
1.87392
 21
37.2511
 31
0.0
  0
LINE
  5
2F1
  8
0
 10
1.87392
 20
37.2511
 30
0.0
 11
1.38858
 21
36.6355
 31
0.0
  0
LINE
  5
2F2
  8
0
 10
1.38858
 20
36.6355
 30
0.0
 11
0.660706
 21
36.2279
 31
0.0
  0
LINE
  5
2F3
  8
0
 10
0.660706
 20
36.2279
 30
0.0
 11
-0.16774
 21
36.1298
 31
0.0
  0
LINE
  5
2F4
  8
0
 10
-0.16774
 20
36.1298
 30
0.0
 11
-0.970673
 21
36.3563
 31
0.0
  0
LINE
  5
2F5
  8
0
 10
-0.970673
 20
36.3563
 30
0.0
 11
-1.62582
 21
36.8727
 31
0.0
  0
LINE
  5
2F6
  8
0
 10
-1.62582
 20
36.8727
 30
0.0
 11
-1.83774
 21
37.2511
 31
0.0
  0
LINE
  5
2F7
  8
0
 10
-1.83774
 20
37.2511
 30
0.0
 11
-2.57556
 21
37.2511
 31
0.0
  0
LINE
  5
2F8
  8
0
 10
-2.57556
 20
37.2511
 30
0.0
 11
-3.95033
 21
37.1429
 31
0.0
  0
LINE
  5
2F9
  8
0
 10
-3.95033
 20
37.1429
 30
0.0
 11
-3.95192
 21
37.1295
 31
0.0
  0
LINE
  5
2FA
  8
0
 10
-3.95192
 20
37.1295
 30
0.0
 11
-4.35956
 21
36.4017
 31
0.0
  0
LINE
  5
2FB
  8
0
 10
-4.35956
 20
36.4017
 30
0.0
 11
-5.01471
 21
35.8852
 31
0.0
  0
LINE
  5
2FC
  8
0
 10
-5.01471
 20
35.8852
 30
0.0
 11
-5.81763
 21
35.6588
 31
0.0
  0
LINE
  5
2FD
  8
0
 10
-5.81763
 20
35.6588
 30
0.0
 11
-6.6461
 21
35.7568
 31
0.0
  0
LINE
  5
2FE
  8
0
 10
-6.6461
 20
35.7568
 30
0.0
 11
-7.37398
 21
36.1644
 31
0.0
  0
LINE
  5
2FF
  8
0
 10
-7.37398
 20
36.1644
 30
0.0
 11
-7.61133
 21
36.4655
 31
0.0
  0
LINE
  5
300
  8
0
 10
-7.61133
 20
36.4655
 30
0.0
 11
-9.72568
 21
36.0161
 31
0.0
  0
LINE
  5
301
  8
0
 10
-9.72568
 20
36.0161
 30
0.0
 11
-10.0004
 21
35.2715
 31
0.0
  0
LINE
  5
302
  8
0
 10
-10.0004
 20
35.2715
 30
0.0
 11
-10.5667
 21
34.6589
 31
0.0
  0
LINE
  5
303
  8
0
 10
-10.5667
 20
34.6589
 30
0.0
 11
-11.3243
 21
34.3096
 31
0.0
  0
LINE
  5
304
  8
0
 10
-11.3243
 20
34.3096
 30
0.0
 11
-12.1579
 21
34.2769
 31
0.0
  0
LINE
  5
305
  8
0
 10
-12.1579
 20
34.2769
 30
0.0
 11
-12.9406
 21
34.5656
 31
0.0
  0
LINE
  5
306
  8
0
 10
-12.9406
 20
34.5656
 30
0.0
 11
-13.2686
 21
34.8689
 31
0.0
  0
LINE
  5
307
  8
0
 10
-13.2686
 20
34.8689
 30
0.0
 11
-15.2532
 21
33.9853
 31
0.0
  0
LINE
  5
308
  8
0
 10
-15.2532
 20
33.9853
 30
0.0
 11
-15.3949
 21
33.2729
 31
0.0
  0
LINE
  5
309
  8
0
 10
-15.3949
 20
33.2729
 30
0.0
 11
-15.8584
 21
32.5792
 31
0.0
  0
LINE
  5
30A
  8
0
 10
-15.8584
 20
32.5792
 30
0.0
 11
-16.552
 21
32.1157
 31
0.0
  0
LINE
  5
30B
  8
0
 10
-16.552
 20
32.1157
 30
0.0
 11
-17.3703
 21
31.953
 31
0.0
  0
LINE
  5
30C
  8
0
 10
-17.3703
 20
31.953
 30
0.0
 11
-18.1885
 21
32.1157
 31
0.0
  0
LINE
  5
30D
  8
0
 10
-18.1885
 20
32.1157
 30
0.0
 11
-18.6938
 21
32.4534
 31
0.0
  0
LINE
  5
30E
  8
0
 10
-18.6938
 20
32.4534
 30
0.0
 11
-18.7282
 21
32.4381
 31
0.0
  0
LINE
  5
30F
  8
0
 10
-18.7282
 20
32.4381
 30
0.0
 11
-18.8113
 21
32.3777
 31
0.0
  0
LINE
  5
310
  8
0
 10
-18.8113
 20
32.3777
 30
0.0
 11
-18.7606
 21
32.295
 31
0.0
  0
LINE
  5
311
  8
0
 10
-18.7606
 20
32.295
 30
0.0
 11
-19.812
 21
31.6507
 31
0.0
  0
LINE
  5
312
  8
0
 10
-19.812
 20
31.6507
 30
0.0
 11
-20.3796
 21
31.2383
 31
0.0
  0
LINE
  5
313
  8
0
 10
-20.3796
 20
31.2383
 30
0.0
 11
-20.4104
 21
30.4549
 31
0.0
  0
LINE
  5
314
  8
0
 10
-20.4104
 20
30.4549
 30
0.0
 11
-20.7597
 21
29.6973
 31
0.0
  0
LINE
  5
315
  8
0
 10
-20.7597
 20
29.6973
 30
0.0
 11
-21.3723
 21
29.131
 31
0.0
  0
LINE
  5
316
  8
0
 10
-21.3723
 20
29.131
 30
0.0
 11
-22.155
 21
28.8423
 31
0.0
  0
LINE
  5
317
  8
0
 10
-22.155
 20
28.8423
 30
0.0
 11
-22.9886
 21
28.875
 31
0.0
  0
LINE
  5
318
  8
0
 10
-22.9886
 20
28.875
 30
0.0
 11
-23.3824
 21
29.0566
 31
0.0
  0
LINE
  5
319
  8
0
 10
-23.3824
 20
29.0566
 30
0.0
 11
-23.9793
 21
28.6229
 31
0.0
  0
LINE
  5
31A
  8
0
 10
-23.9793
 20
28.6229
 30
0.0
 11
-25.028
 21
27.7273
 31
0.0
  0
LINE
  5
31B
  8
0
 10
-25.028
 20
27.7273
 30
0.0
 11
-25.0214
 21
27.7156
 31
0.0
  0
LINE
  5
31C
  8
0
 10
-25.0214
 20
27.7156
 30
0.0
 11
-24.9233
 21
26.8871
 31
0.0
  0
LINE
  5
31D
  8
0
 10
-24.9233
 20
26.8871
 30
0.0
 11
-25.1498
 21
26.0842
 31
0.0
  0
LINE
  5
31E
  8
0
 10
-25.1498
 20
26.0842
 30
0.0
 11
-25.6662
 21
25.429
 31
0.0
  0
LINE
  5
31F
  8
0
 10
-25.6662
 20
25.429
 30
0.0
 11
-26.3941
 21
25.0214
 31
0.0
  0
LINE
  5
320
  8
0
 10
-26.3941
 20
25.0214
 30
0.0
 11
-27.2226
 21
24.9233
 31
0.0
  0
LINE
  5
321
  8
0
 10
-27.2226
 20
24.9233
 30
0.0
 11
-27.5916
 21
25.0274
 31
0.0
  0
LINE
  5
322
  8
0
 10
-27.5916
 20
25.0274
 30
0.0
 11
-29.038
 21
23.421
 31
0.0
  0
LINE
  5
323
  8
0
 10
-29.038
 20
23.421
 30
0.0
 11
-28.8225
 21
22.6572
 31
0.0
  0
LINE
  5
324
  8
0
 10
-28.8225
 20
22.6572
 30
0.0
 11
-28.9206
 21
21.8287
 31
0.0
  0
LINE
  5
325
  8
0
 10
-28.9206
 20
21.8287
 30
0.0
 11
-29.3282
 21
21.1008
 31
0.0
  0
LINE
  5
326
  8
0
 10
-29.3282
 20
21.1008
 30
0.0
 11
-29.9834
 21
20.5844
 31
0.0
  0
LINE
  5
327
  8
0
 10
-29.9834
 20
20.5844
 30
0.0
 11
-30.7863
 21
20.3579
 31
0.0
  0
LINE
  5
328
  8
0
 10
-30.7863
 20
20.3579
 30
0.0
 11
-31.2299
 21
20.4104
 31
0.0
  0
LINE
  5
329
  8
0
 10
-31.2299
 20
20.4104
 30
0.0
 11
-32.3161
 21
18.5291
 31
0.0
  0
LINE
  5
32A
  8
0
 10
-32.3161
 20
18.5291
 30
0.0
 11
-32.0121
 21
17.8694
 31
0.0
  0
LINE
  5
32B
  8
0
 10
-32.0121
 20
17.8694
 30
0.0
 11
-31.9793
 21
17.0358
 31
0.0
  0
LINE
  5
32C
  8
0
 10
-31.9793
 20
17.0358
 30
0.0
 11
-32.2681
 21
16.2531
 31
0.0
  0
LINE
  5
32D
  8
0
 10
-32.2681
 20
16.2531
 30
0.0
 11
-32.8343
 21
15.6405
 31
0.0
  0
LINE
  5
32E
  8
0
 10
-32.8343
 20
15.6405
 30
0.0
 11
-33.592
 21
15.2912
 31
0.0
  0
LINE
  5
32F
  8
0
 10
-33.592
 20
15.2912
 30
0.0
 11
-34.1993
 21
15.2674
 31
0.0
  0
LINE
  5
330
  8
0
 10
-34.1993
 20
15.2674
 30
0.0
 11
-34.2181
 21
15.2349
 31
0.0
  0
LINE
  5
331
  8
0
 10
-34.2181
 20
15.2349
 30
0.0
 11
-34.2498
 21
15.1371
 31
0.0
  0
LINE
  5
332
  8
0
 10
-34.2498
 20
15.1371
 30
0.0
 11
-34.1602
 21
15.1
 31
0.0
  0
LINE
  5
333
  8
0
 10
-34.1602
 20
15.1
 30
0.0
 11
-34.632
 21
13.9607
 31
0.0
  0
LINE
  5
334
  8
0
 10
-34.632
 20
13.9607
 30
0.0
 11
-34.8489
 21
13.2934
 31
0.0
  0
LINE
  5
335
  8
0
 10
-34.8489
 20
13.2934
 30
0.0
 11
-34.4133
 21
12.6416
 31
0.0
  0
LINE
  5
336
  8
0
 10
-34.4133
 20
12.6416
 30
0.0
 11
-34.2506
 21
11.8234
 31
0.0
  0
LINE
  5
337
  8
0
 10
-34.2506
 20
11.8234
 30
0.0
 11
-34.4133
 21
11.0052
 31
0.0
  0
LINE
  5
338
  8
0
 10
-34.4133
 20
11.0052
 30
0.0
 11
-34.8768
 21
10.3115
 31
0.0
  0
LINE
  5
339
  8
0
 10
-34.8768
 20
10.3115
 30
0.0
 11
-35.5705
 21
9.84804
 31
0.0
  0
LINE
  5
33A
  8
0
 10
-35.5705
 20
9.84804
 30
0.0
 11
-35.9958
 21
9.76343
 31
0.0
  0
LINE
  5
33B
  8
0
 10
-35.9958
 20
9.76343
 30
0.0
 11
-36.2238
 21
9.06172
 31
0.0
  0
LINE
  5
33C
  8
0
 10
-36.2238
 20
9.06172
 30
0.0
 11
-36.5458
 21
7.72079
 31
0.0
  0
LINE
  5
33D
  8
0
 10
-36.5458
 20
7.72079
 30
0.0
 11
-36.5335
 21
7.71515
 31
0.0
  0
LINE
  5
33E
  8
0
 10
-36.5335
 20
7.71515
 30
0.0
 11
-35.9672
 21
7.10254
 31
0.0
  0
LINE
  5
33F
  8
0
 10
-35.9672
 20
7.10254
 30
0.0
 11
-35.6785
 21
6.31985
 31
0.0
  0
LINE
  5
340
  8
0
 10
-35.6785
 20
6.31985
 30
0.0
 11
-35.7112
 21
5.48625
 31
0.0
  0
LINE
  5
341
  8
0
 10
-35.7112
 20
5.48625
 30
0.0
 11
-36.0605
 21
4.72864
 31
0.0
  0
LINE
  5
342
  8
0
 10
-36.0605
 20
4.72864
 30
0.0
 11
-36.6731
 21
4.16234
 31
0.0
  0
LINE
  5
343
  8
0
 10
-36.6731
 20
4.16234
 30
0.0
 11
-37.0328
 21
4.02965
 31
0.0
  0
LINE
  5
344
  8
0
 10
-37.0328
 20
4.02965
 30
0.0
 11
-37.2587
 21
1.87991
 31
0.0
  0
LINE
  5
345
  8
0
 10
-37.2587
 20
1.87991
 30
0.0
 11
-36.6355
 21
1.38858
 31
0.0
  0
LINE
  5
346
  8
0
 10
-36.6355
 20
1.38858
 30
0.0
 11
-36.2279
 21
0.660706
 31
0.0
  0
LINE
  5
347
  8
0
 10
-36.2279
 20
0.660706
 30
0.0
 11
-36.1298
 21
-0.16774
 31
0.0
  0
LINE
  5
348
  8
0
 10
-36.1298
 20
-0.16774
 30
0.0
 11
-36.3563
 21
-0.970673
 31
0.0
  0
LINE
  5
349
  8
0
 10
-36.3563
 20
-0.970673
 30
0.0
 11
-36.8727
 21
-1.62582
 31
0.0
  0
LINE
  5
34A
  8
0
 10
-36.8727
 20
-1.62582
 30
0.0
 11
-37.2625
 21
-1.8441
 31
0.0
  0
LINE
  5
34B
  8
0
 10
-37.2625
 20
-1.8441
 30
0.0
 11
-37.0354
 21
-4.00464
 31
0.0
  0
LINE
  5
34C
  8
0
 10
-37.0354
 20
-4.00464
 30
0.0
 11
-36.4017
 21
-4.35956
 31
0.0
  0
LINE
  5
34D
  8
0
 10
-36.4017
 20
-4.35956
 30
0.0
 11
-35.8852
 21
-5.01471
 31
0.0
  0
LINE
  5
34E
  8
0
 10
-35.8852
 20
-5.01471
 30
0.0
 11
-35.6588
 21
-5.81763
 31
0.0
  0
LINE
  5
34F
  8
0
 10
-35.6588
 20
-5.81763
 30
0.0
 11
-35.7568
 21
-6.6461
 31
0.0
  0
LINE
  5
350
  8
0
 10
-35.7568
 20
-6.6461
 30
0.0
 11
-36.1644
 21
-7.37398
 31
0.0
  0
LINE
  5
351
  8
0
 10
-36.1644
 20
-7.37398
 30
0.0
 11
-36.6417
 21
-7.75026
 31
0.0
  0
LINE
  5
352
  8
0
 10
-36.6417
 20
-7.75026
 30
0.0
 11
-36.6378
 21
-7.7876
 31
0.0
  0
LINE
  5
353
  8
0
 10
-36.6378
 20
-7.7876
 30
0.0
 11
-36.6061
 21
-7.88533
 31
0.0
  0
LINE
  5
354
  8
0
 10
-36.6061
 20
-7.88533
 30
0.0
 11
-36.5117
 21
-7.86267
 31
0.0
  0
LINE
  5
355
  8
0
 10
-36.5117
 20
-7.86267
 30
0.0
 11
-36.2238
 21
-9.06172
 31
0.0
  0
LINE
  5
356
  8
0
 10
-36.2238
 20
-9.06172
 30
0.0
 11
-36.007
 21
-9.72902
 31
0.0
  0
LINE
  5
357
  8
0
 10
-36.007
 20
-9.72902
 30
0.0
 11
-35.2715
 21
-10.0004
 31
0.0
  0
LINE
  5
358
  8
0
 10
-35.2715
 20
-10.0004
 30
0.0
 11
-34.6589
 21
-10.5667
 31
0.0
  0
LINE
  5
359
  8
0
 10
-34.6589
 20
-10.5667
 30
0.0
 11
-34.3096
 21
-11.3243
 31
0.0
  0
LINE
  5
35A
  8
0
 10
-34.3096
 20
-11.3243
 30
0.0
 11
-34.2769
 21
-12.1579
 31
0.0
  0
LINE
  5
35B
  8
0
 10
-34.2769
 20
-12.1579
 30
0.0
 11
-34.5656
 21
-12.9406
 31
0.0
  0
LINE
  5
35C
  8
0
 10
-34.5656
 20
-12.9406
 30
0.0
 11
-34.86
 21
-13.259
 31
0.0
  0
LINE
  5
35D
  8
0
 10
-34.86
 20
-13.259
 30
0.0
 11
-34.632
 21
-13.9607
 31
0.0
  0
LINE
  5
35E
  8
0
 10
-34.632
 20
-13.9607
 30
0.0
 11
-34.1043
 21
-15.2348
 31
0.0
  0
LINE
  5
35F
  8
0
 10
-34.1043
 20
-15.2348
 30
0.0
 11
-34.0911
 21
-15.2322
 31
0.0
  0
LINE
  5
360
  8
0
 10
-34.0911
 20
-15.2322
 30
0.0
 11
-33.2729
 21
-15.3949
 31
0.0
  0
LINE
  5
361
  8
0
 10
-33.2729
 20
-15.3949
 30
0.0
 11
-32.5792
 21
-15.8584
 31
0.0
  0
LINE
  5
362
  8
0
 10
-32.5792
 20
-15.8584
 30
0.0
 11
-32.1157
 21
-16.552
 31
0.0
  0
LINE
  5
363
  8
0
 10
-32.1157
 20
-16.552
 30
0.0
 11
-31.953
 21
-17.3703
 31
0.0
  0
LINE
  5
364
  8
0
 10
-31.953
 20
-17.3703
 30
0.0
 11
-32.1157
 21
-18.1885
 31
0.0
  0
LINE
  5
365
  8
0
 10
-32.1157
 20
-18.1885
 30
0.0
 11
-32.3287
 21
-18.5073
 31
0.0
  0
LINE
  5
366
  8
0
 10
-32.3287
 20
-18.5073
 30
0.0
 11
-31.2479
 21
-20.3792
 31
0.0
  0
LINE
  5
367
  8
0
 10
-31.2479
 20
-20.3792
 30
0.0
 11
-30.4549
 21
-20.4104
 31
0.0
  0
LINE
  5
368
  8
0
 10
-30.4549
 20
-20.4104
 30
0.0
 11
-29.6973
 21
-20.7597
 31
0.0
  0
LINE
  5
369
  8
0
 10
-29.6973
 20
-20.7597
 30
0.0
 11
-29.131
 21
-21.3723
 31
0.0
  0
LINE
  5
36A
  8
0
 10
-29.131
 20
-21.3723
 30
0.0
 11
-28.8423
 21
-22.155
 31
0.0
  0
LINE
  5
36B
  8
0
 10
-28.8423
 20
-22.155
 30
0.0
 11
-28.875
 21
-22.9886
 31
0.0
  0
LINE
  5
36C
  8
0
 10
-28.875
 20
-22.9886
 30
0.0
 11
-29.0621
 21
-23.3943
 31
0.0
  0
LINE
  5
36D
  8
0
 10
-29.0621
 20
-23.3943
 30
0.0
 11
-27.6084
 21
-25.0087
 31
0.0
  0
LINE
  5
36E
  8
0
 10
-27.6084
 20
-25.0087
 30
0.0
 11
-26.8871
 21
-24.9233
 31
0.0
  0
LINE
  5
36F
  8
0
 10
-26.8871
 20
-24.9233
 30
0.0
 11
-26.0842
 21
-25.1498
 31
0.0
  0
LINE
  5
370
  8
0
 10
-26.0842
 20
-25.1498
 30
0.0
 11
-25.429
 21
-25.6662
 31
0.0
  0
LINE
  5
371
  8
0
 10
-25.429
 20
-25.6662
 30
0.0
 11
-25.0214
 21
-26.3941
 31
0.0
  0
LINE
  5
372
  8
0
 10
-25.0214
 20
-26.3941
 30
0.0
 11
-24.9233
 21
-27.2226
 31
0.0
  0
LINE
  5
373
  8
0
 10
-24.9233
 20
-27.2226
 30
0.0
 11
-25.0883
 21
-27.8076
 31
0.0
  0
LINE
  5
374
  8
0
 10
-25.0883
 20
-27.8076
 30
0.0
 11
-25.0632
 21
-27.8355
 31
0.0
  0
LINE
  5
375
  8
0
 10
-25.0632
 20
-27.8355
 30
0.0
 11
-24.98
 21
-27.8959
 31
0.0
  0
LINE
  5
376
  8
0
 10
-24.98
 20
-27.8959
 30
0.0
 11
-24.917
 21
-27.8221
 31
0.0
  0
LINE
  5
377
  8
0
 10
-24.917
 20
-27.8221
 30
0.0
 11
-23.9793
 21
-28.6229
 31
0.0
  0
LINE
  5
378
  8
0
 10
-23.9793
 20
-28.6229
 30
0.0
 11
-23.4117
 21
-29.0353
 31
0.0
  0
LINE
  5
379
  8
0
 10
-23.4117
 20
-29.0353
 30
0.0
 11
-22.6572
 21
-28.8225
 31
0.0
  0
LINE
  5
37A
  8
0
 10
-22.6572
 20
-28.8225
 30
0.0
 11
-21.8287
 21
-28.9206
 31
0.0
  0
LINE
  5
37B
  8
0
 10
-21.8287
 20
-28.9206
 30
0.0
 11
-21.1008
 21
-29.3282
 31
0.0
  0
LINE
  5
37C
  8
0
 10
-21.1008
 20
-29.3282
 30
0.0
 11
-20.5844
 21
-29.9834
 31
0.0
  0
LINE
  5
37D
  8
0
 10
-20.5844
 20
-29.9834
 30
0.0
 11
-20.3579
 21
-30.7863
 31
0.0
  0
LINE
  5
37E
  8
0
 10
-20.3579
 20
-30.7863
 30
0.0
 11
-20.4089
 21
-31.217
 31
0.0
  0
LINE
  5
37F
  8
0
 10
-20.4089
 20
-31.217
 30
0.0
 11
-19.812
 21
-31.6507
 31
0.0
  0
LINE
  5
380
  8
0
 10
-19.812
 20
-31.6507
 30
0.0
 11
-18.6362
 21
-32.3712
 31
0.0
  0
LINE
  5
381
  8
0
 10
-18.6362
 20
-32.3712
 30
0.0
 11
-18.627
 21
-32.3613
 31
0.0
  0
LINE
  5
382
  8
0
 10
-18.627
 20
-32.3613
 30
0.0
 11
-17.8694
 21
-32.0121
 31
0.0
  0
LINE
  5
383
  8
0
 10
-17.8694
 20
-32.0121
 30
0.0
 11
-17.0358
 21
-31.9793
 31
0.0
  0
LINE
  5
384
  8
0
 10
-17.0358
 20
-31.9793
 30
0.0
 11
-16.2531
 21
-32.2681
 31
0.0
  0
LINE
  5
385
  8
0
 10
-16.2531
 20
-32.2681
 30
0.0
 11
-15.6405
 21
-32.8343
 31
0.0
  0
LINE
  5
386
  8
0
 10
-15.6405
 20
-32.8343
 30
0.0
 11
-15.2912
 21
-33.592
 31
0.0
  0
LINE
  5
387
  8
0
 10
-15.2912
 20
-33.592
 30
0.0
 11
-15.2762
 21
-33.9751
 31
0.0
  0
LINE
  5
388
  8
0
 10
-15.2762
 20
-33.9751
 30
0.0
 11
-13.3015
 21
-34.8542
 31
0.0
  0
LINE
  5
389
  8
0
 10
-13.3015
 20
-34.8542
 30
0.0
 11
-12.6416
 21
-34.4133
 31
0.0
  0
LINE
  5
38A
  8
0
 10
-12.6416
 20
-34.4133
 30
0.0
 11
-11.8234
 21
-34.2506
 31
0.0
  0
LINE
  5
38B
  8
0
 10
-11.8234
 20
-34.2506
 30
0.0
 11
-11.0052
 21
-34.4133
 31
0.0
  0
LINE
  5
38C
  8
0
 10
-11.0052
 20
-34.4133
 30
0.0
 11
-10.3115
 21
-34.8768
 31
0.0
  0
LINE
  5
38D
  8
0
 10
-10.3115
 20
-34.8768
 30
0.0
 11
-9.84804
 21
-35.5705
 31
0.0
  0
LINE
  5
38E
  8
0
 10
-9.84804
 20
-35.5705
 30
0.0
 11
-9.76088
 21
-36.0086
 31
0.0
  0
LINE
  5
38F
  8
0
 10
-9.76088
 20
-36.0086
 30
0.0
 11
-7.63593
 21
-36.4603
 31
0.0
  0
LINE
  5
390
  8
0
 10
-7.63593
 20
-36.4603
 30
0.0
 11
-7.10254
 21
-35.9672
 31
0.0
  0
LINE
  5
391
  8
0
 10
-7.10254
 20
-35.9672
 30
0.0
 11
-6.31985
 21
-35.6785
 31
0.0
  0
LINE
  5
392
  8
0
 10
-6.31985
 20
-35.6785
 30
0.0
 11
-5.48625
 21
-35.7112
 31
0.0
  0
LINE
  5
393
  8
0
 10
-5.48625
 20
-35.7112
 30
0.0
 11
-4.72864
 21
-36.0605
 31
0.0
  0
LINE
  5
394
  8
0
 10
-4.72864
 20
-36.0605
 30
0.0
 11
-4.16234
 21
-36.6731
 31
0.0
  0
LINE
  5
395
  8
0
 10
-4.16234
 20
-36.6731
 30
0.0
 11
-3.95198
 21
-37.2433
 31
0.0
  0
LINE
  5
396
  8
0
 10
-3.95198
 20
-37.2433
 30
0.0
 11
-3.91525
 21
-37.2511
 31
0.0
  0
LINE
  5
397
  8
0
 10
-3.91525
 20
-37.2511
 30
0.0
 11
-3.81248
 21
-37.2511
 31
0.0
  0
LINE
  5
398
  8
0
 10
-3.81248
 20
-37.2511
 30
0.0
 11
-3.80487
 21
-37.1544
 31
0.0
  0
LINE
  5
399
  8
0
 10
-1.44638
 20
-6.33702
 30
0.0
 11
-3.25
 21
-5.62915
 31
0.0
  0
LINE
  5
39A
  8
0
 10
-3.25
 20
-5.62915
 30
0.0
 11
-4.76483
 21
-4.42111
 31
0.0
  0
LINE
  5
39B
  8
0
 10
-4.76483
 20
-4.42111
 30
0.0
 11
-5.85629
 21
-2.82024
 31
0.0
  0
LINE
  5
39C
  8
0
 10
-5.85629
 20
-2.82024
 30
0.0
 11
-6.4274
 21
-0.968765
 31
0.0
  0
LINE
  5
39D
  8
0
 10
-6.4274
 20
-0.968765
 30
0.0
 11
-6.4274
 21
0.968765
 31
0.0
  0
LINE
  5
39E
  8
0
 10
-6.4274
 20
0.968765
 30
0.0
 11
-5.85629
 21
2.82024
 31
0.0
  0
LINE
  5
39F
  8
0
 10
-5.85629
 20
2.82024
 30
0.0
 11
-4.76483
 21
4.42111
 31
0.0
  0
LINE
  5
3A0
  8
0
 10
-4.76483
 20
4.42111
 30
0.0
 11
-3.25
 21
5.62915
 31
0.0
  0
LINE
  5
3A1
  8
0
 10
-3.25
 20
5.62915
 30
0.0
 11
-1.44638
 21
6.33702
 31
0.0
  0
LINE
  5
3A2
  8
0
 10
-1.44638
 20
6.33702
 30
0.0
 11
0.485733
 21
6.48181
 31
0.0
  0
LINE
  5
3A3
  8
0
 10
0.485733
 20
6.48181
 30
0.0
 11
2.37471
 21
6.05067
 31
0.0
  0
LINE
  5
3A4
  8
0
 10
2.37471
 20
6.05067
 30
0.0
 11
4.05267
 21
5.08189
 31
0.0
  0
LINE
  5
3A5
  8
0
 10
4.05267
 20
5.08189
 30
0.0
 11
5.37054
 21
3.66158
 31
0.0
  0
LINE
  5
3A6
  8
0
 10
5.37054
 20
3.66158
 30
0.0
 11
6.21121
 21
1.91589
 31
0.0
  0
LINE
  5
3A7
  8
0
 10
6.21121
 20
1.91589
 30
0.0
 11
6.5
 21
0.0
 31
0.0
  0
LINE
  5
3A8
  8
0
 10
6.5
 20
0.0
 30
0.0
 11
6.21121
 21
-1.91589
 31
0.0
  0
LINE
  5
3A9
  8
0
 10
6.21121
 20
-1.91589
 30
0.0
 11
5.37054
 21
-3.66158
 31
0.0
  0
LINE
  5
3AA
  8
0
 10
5.37054
 20
-3.66158
 30
0.0
 11
4.05267
 21
-5.08189
 31
0.0
  0
LINE
  5
3AB
  8
0
 10
4.05267
 20
-5.08189
 30
0.0
 11
2.37471
 21
-6.05067
 31
0.0
  0
LINE
  5
3AC
  8
0
 10
2.37471
 20
-6.05067
 30
0.0
 11
0.485733
 21
-6.48181
 31
0.0
  0
LINE
  5
3AD
  8
0
 10
0.485733
 20
-6.48181
 30
0.0
 11
-1.44638
 21
-6.33702
 31
0.0
  0
LINE
  5
3AE
  8
0
 10
17.0871
 20
-1.28499
 30
0.0
 11
17.0871
 21
1.28499
 31
0.0
  0
LINE
  5
3AF
  8
0
 10
17.0871
 20
1.28499
 30
0.0
 11
27.6742
 21
1.28499
 31
0.0
  0
LINE
  5
3B0
  8
0
 10
27.6742
 20
1.28499
 30
0.0
 11
27.6742
 21
-1.28499
 31
0.0
  0
LINE
  5
3B1
  8
0
 10
27.6742
 20
-1.28499
 30
0.0
 11
17.0871
 21
-1.28499
 31
0.0
  0
LINE
  5
3B2
  8
0
 10
75.4909
 20
-37.0532
 30
0.0
 11
76.0317
 21
-36.7503
 31
0.0
  0
LINE
  5
3B3
  8
0
 10
76.0317
 20
-36.7503
 30
0.0
 11
76.6473
 21
-36.6775
 31
0.0
  0
LINE
  5
3B4
  8
0
 10
76.6473
 20
-36.6775
 30
0.0
 11
77.2439
 21
-36.8457
 31
0.0
  0
LINE
  5
3B5
  8
0
 10
77.2439
 20
-36.8457
 30
0.0
 11
77.7308
 21
-37.2295
 31
0.0
  0
LINE
  5
3B6
  8
0
 10
77.7308
 20
-37.2295
 30
0.0
 11
77.7429
 21
-37.2511
 31
0.0
  0
LINE
  5
3B7
  8
0
 10
77.7429
 20
-37.2511
 30
0.0
 11
80.4379
 21
-37.2511
 31
0.0
  0
LINE
  5
3B8
  8
0
 10
80.4379
 20
-37.2511
 30
0.0
 11
81.1032
 21
-37.1097
 31
0.0
  0
LINE
  5
3B9
  8
0
 10
81.1032
 20
-37.1097
 30
0.0
 11
81.3
 21
-36.7585
 31
0.0
  0
LINE
  5
3BA
  8
0
 10
81.3
 20
-36.7585
 30
0.0
 11
81.7868
 21
-36.3747
 31
0.0
  0
LINE
  5
3BB
  8
0
 10
81.7868
 20
-36.3747
 30
0.0
 11
82.3834
 21
-36.2064
 31
0.0
  0
LINE
  5
3BC
  8
0
 10
82.3834
 20
-36.2064
 30
0.0
 11
82.999
 21
-36.2793
 31
0.0
  0
LINE
  5
3BD
  8
0
 10
82.999
 20
-36.2793
 30
0.0
 11
83.5399
 21
-36.5822
 31
0.0
  0
LINE
  5
3BE
  8
0
 10
83.5399
 20
-36.5822
 30
0.0
 11
83.5464
 21
-36.5904
 31
0.0
  0
LINE
  5
3BF
  8
0
 10
83.5464
 20
-36.5904
 30
0.0
 11
86.8715
 21
-35.8836
 31
0.0
  0
LINE
  5
3C0
  8
0
 10
86.8715
 20
-35.8836
 30
0.0
 11
86.9914
 21
-35.5586
 31
0.0
  0
LINE
  5
3C1
  8
0
 10
86.9914
 20
-35.5586
 30
0.0
 11
87.4122
 21
-35.1034
 31
0.0
  0
LINE
  5
3C2
  8
0
 10
87.4122
 20
-35.1034
 30
0.0
 11
87.9752
 21
-34.8438
 31
0.0
  0
LINE
  5
3C3
  8
0
 10
87.9752
 20
-34.8438
 30
0.0
 11
88.5946
 21
-34.8195
 31
0.0
  0
LINE
  5
3C4
  8
0
 10
88.5946
 20
-34.8195
 30
0.0
 11
89.1762
 21
-35.0341
 31
0.0
  0
LINE
  5
3C5
  8
0
 10
89.1762
 20
-35.0341
 30
0.0
 11
89.2555
 21
-35.1074
 31
0.0
  0
LINE
  5
3C6
  8
0
 10
89.2555
 20
-35.1074
 30
0.0
 11
92.3786
 21
-33.7169
 31
0.0
  0
LINE
  5
3C7
  8
0
 10
92.3786
 20
-33.7169
 30
0.0
 11
92.4251
 21
-33.4831
 31
0.0
  0
LINE
  5
3C8
  8
0
 10
92.4251
 20
-33.4831
 30
0.0
 11
92.7695
 21
-32.9677
 31
0.0
  0
LINE
  5
3C9
  8
0
 10
92.7695
 20
-32.9677
 30
0.0
 11
93.285
 21
-32.6233
 31
0.0
  0
LINE
  5
3CA
  8
0
 10
93.285
 20
-32.6233
 30
0.0
 11
93.8929
 21
-32.5023
 31
0.0
  0
LINE
  5
3CB
  8
0
 10
93.8929
 20
-32.5023
 30
0.0
 11
94.5009
 21
-32.6233
 31
0.0
  0
LINE
  5
3CC
  8
0
 10
94.5009
 20
-32.6233
 30
0.0
 11
94.6345
 21
-32.7125
 31
0.0
  0
LINE
  5
3CD
  8
0
 10
94.6345
 20
-32.7125
 30
0.0
 11
95.2508
 21
-32.4381
 31
0.0
  0
LINE
  5
3CE
  8
0
 10
95.2508
 20
-32.4381
 30
0.0
 11
97.4574
 21
-30.835
 31
0.0
  0
LINE
  5
3CF
  8
0
 10
97.4574
 20
-30.835
 30
0.0
 11
97.4673
 21
-30.5832
 31
0.0
  0
LINE
  5
3D0
  8
0
 10
97.4673
 20
-30.5832
 30
0.0
 11
97.7268
 21
-30.0202
 31
0.0
  0
LINE
  5
3D1
  8
0
 10
97.7268
 20
-30.0202
 30
0.0
 11
98.182
 21
-29.5994
 31
0.0
  0
LINE
  5
3D2
  8
0
 10
98.182
 20
-29.5994
 30
0.0
 11
98.7636
 21
-29.3849
 31
0.0
  0
LINE
  5
3D3
  8
0
 10
98.7636
 20
-29.3849
 30
0.0
 11
99.383
 21
-29.4092
 31
0.0
  0
LINE
  5
3D4
  8
0
 10
99.383
 20
-29.4092
 30
0.0
 11
99.4055
 21
-29.4196
 31
0.0
  0
LINE
  5
3D5
  8
0
 10
99.4055
 20
-29.4196
 30
0.0
 11
101.586
 21
-27.8355
 31
0.0
  0
LINE
  5
3D6
  8
0
 10
101.586
 20
-27.8355
 30
0.0
 11
102.041
 21
-27.33
 31
0.0
  0
LINE
  5
3D7
  8
0
 10
102.041
 20
-27.33
 30
0.0
 11
101.994
 21
-26.9302
 31
0.0
  0
LINE
  5
3D8
  8
0
 10
101.994
 20
-26.9302
 30
0.0
 11
102.162
 21
-26.3336
 31
0.0
  0
LINE
  5
3D9
  8
0
 10
102.162
 20
-26.3336
 30
0.0
 11
102.546
 21
-25.8468
 31
0.0
  0
LINE
  5
3DA
  8
0
 10
102.546
 20
-25.8468
 30
0.0
 11
103.087
 21
-25.5439
 31
0.0
  0
LINE
  5
3DB
  8
0
 10
103.087
 20
-25.5439
 30
0.0
 11
103.702
 21
-25.471
 31
0.0
  0
LINE
  5
3DC
  8
0
 10
103.702
 20
-25.471
 30
0.0
 11
103.712
 21
-25.4738
 31
0.0
  0
LINE
  5
3DD
  8
0
 10
103.712
 20
-25.4738
 30
0.0
 11
105.987
 21
-22.9476
 31
0.0
  0
LINE
  5
3DE
  8
0
 10
105.987
 20
-22.9476
 30
0.0
 11
105.893
 21
-22.6141
 31
0.0
  0
LINE
  5
3DF
  8
0
 10
105.893
 20
-22.6141
 30
0.0
 11
105.966
 21
-21.9985
 31
0.0
  0
LINE
  5
3E0
  8
0
 10
105.966
 20
-21.9985
 30
0.0
 11
106.269
 21
-21.4576
 31
0.0
  0
LINE
  5
3E1
  8
0
 10
106.269
 20
-21.4576
 30
0.0
 11
106.755
 21
-21.0739
 31
0.0
  0
LINE
  5
3E2
  8
0
 10
106.755
 20
-21.0739
 30
0.0
 11
107.352
 21
-20.9056
 31
0.0
  0
LINE
  5
3E3
  8
0
 10
107.352
 20
-20.9056
 30
0.0
 11
107.459
 21
-20.9183
 31
0.0
  0
LINE
  5
3E4
  8
0
 10
107.459
 20
-20.9183
 30
0.0
 11
109.169
 21
-17.9577
 31
0.0
  0
LINE
  5
3E5
  8
0
 10
109.169
 20
-17.9577
 30
0.0
 11
109.069
 21
-17.7412
 31
0.0
  0
LINE
  5
3E6
  8
0
 10
109.069
 20
-17.7412
 30
0.0
 11
109.045
 21
-17.1217
 31
0.0
  0
LINE
  5
3E7
  8
0
 10
109.045
 20
-17.1217
 30
0.0
 11
109.259
 21
-16.5402
 31
0.0
  0
LINE
  5
3E8
  8
0
 10
109.259
 20
-16.5402
 30
0.0
 11
109.68
 21
-16.0849
 31
0.0
  0
LINE
  5
3E9
  8
0
 10
109.68
 20
-16.0849
 30
0.0
 11
110.243
 21
-15.8254
 31
0.0
  0
LINE
  5
3EA
  8
0
 10
110.243
 20
-15.8254
 30
0.0
 11
110.403
 21
-15.8191
 31
0.0
  0
LINE
  5
3EB
  8
0
 10
110.403
 20
-15.8191
 30
0.0
 11
110.741
 21
-15.2349
 31
0.0
  0
LINE
  5
3EC
  8
0
 10
110.741
 20
-15.2349
 30
0.0
 11
111.584
 21
-12.6409
 31
0.0
  0
LINE
  5
3ED
  8
0
 10
111.584
 20
-12.6409
 30
0.0
 11
111.444
 21
-12.4314
 31
0.0
  0
LINE
  5
3EE
  8
0
 10
111.444
 20
-12.4314
 30
0.0
 11
111.323
 21
-11.8234
 31
0.0
  0
LINE
  5
3EF
  8
0
 10
111.323
 20
-11.8234
 30
0.0
 11
111.444
 21
-11.2154
 31
0.0
  0
LINE
  5
3F0
  8
0
 10
111.444
 20
-11.2154
 30
0.0
 11
111.788
 21
-10.7
 31
0.0
  0
LINE
  5
3F1
  8
0
 10
111.788
 20
-10.7
 30
0.0
 11
112.303
 21
-10.3556
 31
0.0
  0
LINE
  5
3F2
  8
0
 10
112.303
 20
-10.3556
 30
0.0
 11
112.328
 21
-10.3508
 31
0.0
  0
LINE
  5
3F3
  8
0
 10
112.328
 20
-10.3508
 30
0.0
 11
113.16
 21
-7.7876
 31
0.0
  0
LINE
  5
3F4
  8
0
 10
113.16
 20
-7.7876
 30
0.0
 11
113.232
 21
-7.11113
 31
0.0
  0
LINE
  5
3F5
  8
0
 10
113.232
 20
-7.11113
 30
0.0
 11
112.958
 21
-6.81551
 31
0.0
  0
LINE
  5
3F6
  8
0
 10
112.958
 20
-6.81551
 30
0.0
 11
112.744
 21
-6.23392
 31
0.0
  0
LINE
  5
3F7
  8
0
 10
112.744
 20
-6.23392
 30
0.0
 11
112.768
 21
-5.6145
 31
0.0
  0
LINE
  5
3F8
  8
0
 10
112.768
 20
-5.6145
 30
0.0
 11
113.028
 21
-5.05154
 31
0.0
  0
LINE
  5
3F9
  8
0
 10
113.028
 20
-5.05154
 30
0.0
 11
113.483
 21
-4.63075
 31
0.0
  0
LINE
  5
3FA
  8
0
 10
113.483
 20
-4.63075
 30
0.0
 11
113.493
 21
-4.62712
 31
0.0
  0
LINE
  5
3FB
  8
0
 10
113.493
 20
-4.62712
 30
0.0
 11
113.848
 21
-1.24631
 31
0.0
  0
LINE
  5
3FC
  8
0
 10
113.848
 20
-1.24631
 30
0.0
 11
113.576
 21
-1.0318
 31
0.0
  0
LINE
  5
3FD
  8
0
 10
113.576
 20
-1.0318
 30
0.0
 11
113.273
 21
-0.490936
 31
0.0
  0
LINE
  5
3FE
  8
0
 10
113.273
 20
-0.490936
 30
0.0
 11
113.2
 21
0.124649
 31
0.0
  0
LINE
  5
3FF
  8
0
 10
113.2
 20
0.124649
 30
0.0
 11
113.368
 21
0.721268
 31
0.0
  0
LINE
  5
400
  8
0
 10
113.368
 20
0.721268
 30
0.0
 11
113.752
 21
1.20808
 31
0.0
  0
LINE
  5
401
  8
0
 10
113.752
 20
1.20808
 30
0.0
 11
113.846
 21
1.26088
 31
0.0
  0
LINE
  5
402
  8
0
 10
113.846
 20
1.26088
 30
0.0
 11
113.489
 21
4.66081
 31
0.0
  0
LINE
  5
403
  8
0
 10
113.489
 20
4.66081
 30
0.0
 11
113.281
 21
4.7773
 31
0.0
  0
LINE
  5
404
  8
0
 10
113.281
 20
4.7773
 30
0.0
 11
112.897
 21
5.26411
 31
0.0
  0
LINE
  5
405
  8
0
 10
112.897
 20
5.26411
 30
0.0
 11
112.729
 21
5.86073
 31
0.0
  0
LINE
  5
406
  8
0
 10
112.729
 20
5.86073
 30
0.0
 11
112.802
 21
6.47633
 31
0.0
  0
LINE
  5
407
  8
0
 10
112.802
 20
6.47633
 30
0.0
 11
113.105
 21
7.0172
 31
0.0
  0
LINE
  5
408
  8
0
 10
113.105
 20
7.0172
 30
0.0
 11
113.231
 21
7.11665
 31
0.0
  0
LINE
  5
409
  8
0
 10
113.231
 20
7.11665
 30
0.0
 11
113.16
 21
7.7876
 31
0.0
  0
LINE
  5
40A
  8
0
 10
113.16
 20
7.7876
 30
0.0
 11
112.318
 21
10.3815
 31
0.0
  0
LINE
  5
40B
  8
0
 10
112.318
 20
10.3815
 30
0.0
 11
112.081
 21
10.4688
 31
0.0
  0
LINE
  5
40C
  8
0
 10
112.081
 20
10.4688
 30
0.0
 11
111.626
 21
10.8896
 31
0.0
  0
LINE
  5
40D
  8
0
 10
111.626
 20
10.8896
 30
0.0
 11
111.367
 21
11.4525
 31
0.0
  0
LINE
  5
40E
  8
0
 10
111.367
 20
11.4525
 30
0.0
 11
111.342
 21
12.0719
 31
0.0
  0
LINE
  5
40F
  8
0
 10
111.342
 20
12.0719
 30
0.0
 11
111.557
 21
12.6535
 31
0.0
  0
LINE
  5
410
  8
0
 10
111.557
 20
12.6535
 30
0.0
 11
111.574
 21
12.6717
 31
0.0
  0
LINE
  5
411
  8
0
 10
111.574
 20
12.6717
 30
0.0
 11
110.741
 21
15.2349
 31
0.0
  0
LINE
  5
412
  8
0
 10
110.741
 20
15.2349
 30
0.0
 11
110.401
 21
15.8239
 31
0.0
  0
LINE
  5
413
  8
0
 10
110.401
 20
15.8239
 30
0.0
 11
110.006
 21
15.9025
 31
0.0
  0
LINE
  5
414
  8
0
 10
110.006
 20
15.9025
 30
0.0
 11
109.49
 21
16.2469
 31
0.0
  0
LINE
  5
415
  8
0
 10
109.49
 20
16.2469
 30
0.0
 11
109.146
 21
16.7623
 31
0.0
  0
LINE
  5
416
  8
0
 10
109.146
 20
16.7623
 30
0.0
 11
109.025
 21
17.3703
 31
0.0
  0
LINE
  5
417
  8
0
 10
109.025
 20
17.3703
 30
0.0
 11
109.146
 21
17.9783
 31
0.0
  0
LINE
  5
418
  8
0
 10
109.146
 20
17.9783
 30
0.0
 11
109.152
 21
17.987
 31
0.0
  0
LINE
  5
419
  8
0
 10
109.152
 20
17.987
 30
0.0
 11
107.452
 21
20.931
 31
0.0
  0
LINE
  5
41A
  8
0
 10
107.452
 20
20.931
 30
0.0
 11
107.106
 21
20.9446
 31
0.0
  0
LINE
  5
41B
  8
0
 10
107.106
 20
20.9446
 30
0.0
 11
106.543
 21
21.2041
 31
0.0
  0
LINE
  5
41C
  8
0
 10
106.543
 20
21.2041
 30
0.0
 11
106.122
 21
21.6593
 31
0.0
  0
LINE
  5
41D
  8
0
 10
106.122
 20
21.6593
 30
0.0
 11
105.908
 21
22.2409
 31
0.0
  0
LINE
  5
41E
  8
0
 10
105.908
 20
22.2409
 30
0.0
 11
105.932
 21
22.8603
 31
0.0
  0
LINE
  5
41F
  8
0
 10
105.932
 20
22.8603
 30
0.0
 11
105.977
 21
22.9585
 31
0.0
  0
LINE
  5
420
  8
0
 10
105.977
 20
22.9585
 30
0.0
 11
103.69
 21
25.499
 31
0.0
  0
LINE
  5
421
  8
0
 10
103.69
 20
25.499
 30
0.0
 11
103.453
 21
25.471
 31
0.0
  0
LINE
  5
422
  8
0
 10
103.453
 20
25.471
 30
0.0
 11
102.856
 21
25.6393
 31
0.0
  0
LINE
  5
423
  8
0
 10
102.856
 20
25.6393
 30
0.0
 11
102.369
 21
26.023
 31
0.0
  0
LINE
  5
424
  8
0
 10
102.369
 20
26.023
 30
0.0
 11
102.067
 21
26.5639
 31
0.0
  0
LINE
  5
425
  8
0
 10
102.067
 20
26.5639
 30
0.0
 11
101.994
 21
27.1795
 31
0.0
  0
LINE
  5
426
  8
0
 10
101.994
 20
27.1795
 30
0.0
 11
102.037
 21
27.3341
 31
0.0
  0
LINE
  5
427
  8
0
 10
102.037
 20
27.3341
 30
0.0
 11
101.586
 21
27.8355
 31
0.0
  0
LINE
  5
428
  8
0
 10
101.586
 20
27.8355
 30
0.0
 11
99.3793
 21
29.4386
 31
0.0
  0
LINE
  5
429
  8
0
 10
99.3793
 20
29.4386
 30
0.0
 11
99.1368
 21
29.3702
 31
0.0
  0
LINE
  5
42A
  8
0
 10
99.1368
 20
29.3702
 30
0.0
 11
98.5212
 21
29.4431
 31
0.0
  0
LINE
  5
42B
  8
0
 10
98.5212
 20
29.4431
 30
0.0
 11
97.9803
 21
29.746
 31
0.0
  0
LINE
  5
42C
  8
0
 10
97.9803
 20
29.746
 30
0.0
 11
97.5965
 21
30.2328
 31
0.0
  0
LINE
  5
42D
  8
0
 10
97.5965
 20
30.2328
 30
0.0
 11
97.4283
 21
30.8294
 31
0.0
  0
LINE
  5
42E
  8
0
 10
97.4283
 20
30.8294
 30
0.0
 11
97.4312
 21
30.854
 31
0.0
  0
LINE
  5
42F
  8
0
 10
97.4312
 20
30.854
 30
0.0
 11
95.2508
 21
32.4381
 31
0.0
  0
LINE
  5
430
  8
0
 10
95.2508
 20
32.4381
 30
0.0
 11
94.6294
 21
32.7148
 31
0.0
  0
LINE
  5
431
  8
0
 10
94.6294
 20
32.7148
 30
0.0
 11
94.2638
 21
32.5462
 31
0.0
  0
LINE
  5
432
  8
0
 10
94.2638
 20
32.5462
 30
0.0
 11
93.6444
 21
32.5219
 31
0.0
  0
LINE
  5
433
  8
0
 10
93.6444
 20
32.5219
 30
0.0
 11
93.0628
 21
32.7365
 31
0.0
  0
LINE
  5
434
  8
0
 10
93.0628
 20
32.7365
 30
0.0
 11
92.6076
 21
33.1572
 31
0.0
  0
LINE
  5
435
  8
0
 10
92.6076
 20
33.1572
 30
0.0
 11
92.3481
 21
33.7202
 31
0.0
  0
LINE
  5
436
  8
0
 10
92.3481
 20
33.7202
 30
0.0
 11
92.3477
 21
33.7307
 31
0.0
  0
LINE
  5
437
  8
0
 10
92.3477
 20
33.7307
 30
0.0
 11
89.2421
 21
35.1134
 31
0.0
  0
LINE
  5
438
  8
0
 10
89.2421
 20
35.1134
 30
0.0
 11
88.9541
 21
34.9209
 31
0.0
  0
LINE
  5
439
  8
0
 10
88.9541
 20
34.9209
 30
0.0
 11
88.3461
 21
34.7999
 31
0.0
  0
LINE
  5
43A
  8
0
 10
88.3461
 20
34.7999
 30
0.0
 11
87.7381
 21
34.9209
 31
0.0
  0
LINE
  5
43B
  8
0
 10
87.7381
 20
34.9209
 30
0.0
 11
87.2227
 21
35.2653
 31
0.0
  0
LINE
  5
43C
  8
0
 10
87.2227
 20
35.2653
 30
0.0
 11
86.8783
 21
35.7807
 31
0.0
  0
LINE
  5
43D
  8
0
 10
86.8783
 20
35.7807
 30
0.0
 11
86.8572
 21
35.8867
 31
0.0
  0
LINE
  5
43E
  8
0
 10
86.8572
 20
35.8867
 30
0.0
 11
83.5132
 21
36.5975
 31
0.0
  0
LINE
  5
43F
  8
0
 10
83.5132
 20
36.5975
 30
0.0
 11
83.3382
 21
36.4356
 31
0.0
  0
LINE
  5
440
  8
0
 10
83.3382
 20
36.4356
 30
0.0
 11
82.7566
 21
36.2211
 31
0.0
  0
LINE
  5
441
  8
0
 10
82.7566
 20
36.2211
 30
0.0
 11
82.1372
 21
36.2454
 31
0.0
  0
LINE
  5
442
  8
0
 10
82.1372
 20
36.2454
 30
0.0
 11
81.5742
 21
36.5049
 31
0.0
  0
LINE
  5
443
  8
0
 10
81.5742
 20
36.5049
 30
0.0
 11
81.1534
 21
36.9601
 31
0.0
  0
LINE
  5
444
  8
0
 10
81.1534
 20
36.9601
 30
0.0
 11
81.0978
 21
37.1109
 31
0.0
  0
LINE
  5
445
  8
0
 10
81.0978
 20
37.1109
 30
0.0
 11
80.4379
 21
37.2511
 31
0.0
  0
LINE
  5
446
  8
0
 10
80.4379
 20
37.2511
 30
0.0
 11
77.7105
 21
37.2511
 31
0.0
  0
LINE
  5
447
  8
0
 10
77.7105
 20
37.2511
 30
0.0
 11
77.5545
 21
37.0532
 31
0.0
  0
LINE
  5
448
  8
0
 10
77.5545
 20
37.0532
 30
0.0
 11
77.0136
 21
36.7503
 31
0.0
  0
LINE
  5
449
  8
0
 10
77.0136
 20
36.7503
 30
0.0
 11
76.398
 21
36.6775
 31
0.0
  0
LINE
  5
44A
  8
0
 10
76.398
 20
36.6775
 30
0.0
 11
75.8014
 21
36.8457
 31
0.0
  0
LINE
  5
44B
  8
0
 10
75.8014
 20
36.8457
 30
0.0
 11
75.3146
 21
37.2295
 31
0.0
  0
LINE
  5
44C
  8
0
 10
75.3146
 20
37.2295
 30
0.0
 11
75.3025
 21
37.2511
 31
0.0
  0
LINE
  5
44D
  8
0
 10
75.3025
 20
37.2511
 30
0.0
 11
72.6074
 21
37.2511
 31
0.0
  0
LINE
  5
44E
  8
0
 10
72.6074
 20
37.2511
 30
0.0
 11
71.9421
 21
37.1097
 31
0.0
  0
LINE
  5
44F
  8
0
 10
71.9421
 20
37.1097
 30
0.0
 11
71.7454
 21
36.7585
 31
0.0
  0
LINE
  5
450
  8
0
 10
71.7454
 20
36.7585
 30
0.0
 11
71.2585
 21
36.3747
 31
0.0
  0
LINE
  5
451
  8
0
 10
71.2585
 20
36.3747
 30
0.0
 11
70.6619
 21
36.2064
 31
0.0
  0
LINE
  5
452
  8
0
 10
70.6619
 20
36.2064
 30
0.0
 11
70.0463
 21
36.2793
 31
0.0
  0
LINE
  5
453
  8
0
 10
70.0463
 20
36.2793
 30
0.0
 11
69.5055
 21
36.5822
 31
0.0
  0
LINE
  5
454
  8
0
 10
69.5055
 20
36.5822
 30
0.0
 11
69.499
 21
36.5904
 31
0.0
  0
LINE
  5
455
  8
0
 10
69.499
 20
36.5904
 30
0.0
 11
66.1738
 21
35.8836
 31
0.0
  0
LINE
  5
456
  8
0
 10
66.1738
 20
35.8836
 30
0.0
 11
66.0539
 21
35.5586
 31
0.0
  0
LINE
  5
457
  8
0
 10
66.0539
 20
35.5586
 30
0.0
 11
65.6331
 21
35.1034
 31
0.0
  0
LINE
  5
458
  8
0
 10
65.6331
 20
35.1034
 30
0.0
 11
65.0701
 21
34.8438
 31
0.0
  0
LINE
  5
459
  8
0
 10
65.0701
 20
34.8438
 30
0.0
 11
64.4507
 21
34.8195
 31
0.0
  0
LINE
  5
45A
  8
0
 10
64.4507
 20
34.8195
 30
0.0
 11
63.8691
 21
35.0341
 31
0.0
  0
LINE
  5
45B
  8
0
 10
63.8691
 20
35.0341
 30
0.0
 11
63.7898
 21
35.1074
 31
0.0
  0
LINE
  5
45C
  8
0
 10
63.7898
 20
35.1074
 30
0.0
 11
60.6667
 21
33.7169
 31
0.0
  0
LINE
  5
45D
  8
0
 10
60.6667
 20
33.7169
 30
0.0
 11
60.6202
 21
33.4831
 31
0.0
  0
LINE
  5
45E
  8
0
 10
60.6202
 20
33.4831
 30
0.0
 11
60.2758
 21
32.9677
 31
0.0
  0
LINE
  5
45F
  8
0
 10
60.2758
 20
32.9677
 30
0.0
 11
59.7604
 21
32.6233
 31
0.0
  0
LINE
  5
460
  8
0
 10
59.7604
 20
32.6233
 30
0.0
 11
59.1524
 21
32.5023
 31
0.0
  0
LINE
  5
461
  8
0
 10
59.1524
 20
32.5023
 30
0.0
 11
58.5444
 21
32.6233
 31
0.0
  0
LINE
  5
462
  8
0
 10
58.5444
 20
32.6233
 30
0.0
 11
58.4108
 21
32.7125
 31
0.0
  0
LINE
  5
463
  8
0
 10
58.4108
 20
32.7125
 30
0.0
 11
57.7945
 21
32.4381
 31
0.0
  0
LINE
  5
464
  8
0
 10
57.7945
 20
32.4381
 30
0.0
 11
55.588
 21
30.835
 31
0.0
  0
LINE
  5
465
  8
0
 10
55.588
 20
30.835
 30
0.0
 11
55.5781
 21
30.5832
 31
0.0
  0
LINE
  5
466
  8
0
 10
55.5781
 20
30.5832
 30
0.0
 11
55.3185
 21
30.0202
 31
0.0
  0
LINE
  5
467
  8
0
 10
55.3185
 20
30.0202
 30
0.0
 11
54.8633
 21
29.5994
 31
0.0
  0
LINE
  5
468
  8
0
 10
54.8633
 20
29.5994
 30
0.0
 11
54.2818
 21
29.3849
 31
0.0
  0
LINE
  5
469
  8
0
 10
54.2818
 20
29.3849
 30
0.0
 11
53.6623
 21
29.4092
 31
0.0
  0
LINE
  5
46A
  8
0
 10
53.6623
 20
29.4092
 30
0.0
 11
53.6398
 21
29.4196
 31
0.0
  0
LINE
  5
46B
  8
0
 10
53.6398
 20
29.4196
 30
0.0
 11
51.4595
 21
27.8355
 31
0.0
  0
LINE
  5
46C
  8
0
 10
51.4595
 20
27.8355
 30
0.0
 11
51.0043
 21
27.33
 31
0.0
  0
LINE
  5
46D
  8
0
 10
51.0043
 20
27.33
 30
0.0
 11
51.0517
 21
26.9302
 31
0.0
  0
LINE
  5
46E
  8
0
 10
51.0517
 20
26.9302
 30
0.0
 11
50.8834
 21
26.3336
 31
0.0
  0
LINE
  5
46F
  8
0
 10
50.8834
 20
26.3336
 30
0.0
 11
50.4996
 21
25.8468
 31
0.0
  0
LINE
  5
470
  8
0
 10
50.4996
 20
25.8468
 30
0.0
 11
49.9588
 21
25.5439
 31
0.0
  0
LINE
  5
471
  8
0
 10
49.9588
 20
25.5439
 30
0.0
 11
49.3432
 21
25.471
 31
0.0
  0
LINE
  5
472
  8
0
 10
49.3432
 20
25.471
 30
0.0
 11
49.3331
 21
25.4738
 31
0.0
  0
LINE
  5
473
  8
0
 10
49.3331
 20
25.4738
 30
0.0
 11
47.0584
 21
22.9476
 31
0.0
  0
LINE
  5
474
  8
0
 10
47.0584
 20
22.9476
 30
0.0
 11
47.1524
 21
22.6141
 31
0.0
  0
LINE
  5
475
  8
0
 10
47.1524
 20
22.6141
 30
0.0
 11
47.0796
 21
21.9985
 31
0.0
  0
LINE
  5
476
  8
0
 10
47.0796
 20
21.9985
 30
0.0
 11
46.7767
 21
21.4576
 31
0.0
  0
LINE
  5
477
  8
0
 10
46.7767
 20
21.4576
 30
0.0
 11
46.2899
 21
21.0739
 31
0.0
  0
LINE
  5
478
  8
0
 10
46.2899
 20
21.0739
 30
0.0
 11
45.6932
 21
20.9056
 31
0.0
  0
LINE
  5
479
  8
0
 10
45.6932
 20
20.9056
 30
0.0
 11
45.5859
 21
20.9183
 31
0.0
  0
LINE
  5
47A
  8
0
 10
45.5859
 20
20.9183
 30
0.0
 11
43.8766
 21
17.9577
 31
0.0
  0
LINE
  5
47B
  8
0
 10
43.8766
 20
17.9577
 30
0.0
 11
43.9764
 21
17.7412
 31
0.0
  0
LINE
  5
47C
  8
0
 10
43.9764
 20
17.7412
 30
0.0
 11
44.0007
 21
17.1217
 31
0.0
  0
LINE
  5
47D
  8
0
 10
44.0007
 20
17.1217
 30
0.0
 11
43.7862
 21
16.5402
 31
0.0
  0
LINE
  5
47E
  8
0
 10
43.7862
 20
16.5402
 30
0.0
 11
43.3654
 21
16.0849
 31
0.0
  0
LINE
  5
47F
  8
0
 10
43.3654
 20
16.0849
 30
0.0
 11
42.8024
 21
15.8254
 31
0.0
  0
LINE
  5
480
  8
0
 10
42.8024
 20
15.8254
 30
0.0
 11
42.6419
 21
15.8191
 31
0.0
  0
LINE
  5
481
  8
0
 10
42.6419
 20
15.8191
 30
0.0
 11
42.3046
 21
15.2349
 31
0.0
  0
LINE
  5
482
  8
0
 10
42.3046
 20
15.2349
 30
0.0
 11
41.4618
 21
12.6409
 31
0.0
  0
LINE
  5
483
  8
0
 10
41.4618
 20
12.6409
 30
0.0
 11
41.6018
 21
12.4314
 31
0.0
  0
LINE
  5
484
  8
0
 10
41.6018
 20
12.4314
 30
0.0
 11
41.7227
 21
11.8234
 31
0.0
  0
LINE
  5
485
  8
0
 10
41.7227
 20
11.8234
 30
0.0
 11
41.6018
 21
11.2154
 31
0.0
  0
LINE
  5
486
  8
0
 10
41.6018
 20
11.2154
 30
0.0
 11
41.2574
 21
10.7
 31
0.0
  0
LINE
  5
487
  8
0
 10
41.2574
 20
10.7
 30
0.0
 11
40.742
 21
10.3556
 31
0.0
  0
LINE
  5
488
  8
0
 10
40.742
 20
10.3556
 30
0.0
 11
40.7177
 21
10.3508
 31
0.0
  0
LINE
  5
489
  8
0
 10
40.7177
 20
10.3508
 30
0.0
 11
39.8848
 21
7.7876
 31
0.0
  0
LINE
  5
48A
  8
0
 10
39.8848
 20
7.7876
 30
0.0
 11
39.8137
 21
7.11113
 31
0.0
  0
LINE
  5
48B
  8
0
 10
39.8137
 20
7.11113
 30
0.0
 11
40.087
 21
6.81551
 31
0.0
  0
LINE
  5
48C
  8
0
 10
40.087
 20
6.81551
 30
0.0
 11
40.3016
 21
6.23392
 31
0.0
  0
LINE
  5
48D
  8
0
 10
40.3016
 20
6.23392
 30
0.0
 11
40.2772
 21
5.6145
 31
0.0
  0
LINE
  5
48E
  8
0
 10
40.2772
 20
5.6145
 30
0.0
 11
40.0177
 21
5.05154
 31
0.0
  0
LINE
  5
48F
  8
0
 10
40.0177
 20
5.05154
 30
0.0
 11
39.5625
 21
4.63075
 31
0.0
  0
LINE
  5
490
  8
0
 10
39.5625
 20
4.63075
 30
0.0
 11
39.5527
 21
4.62712
 31
0.0
  0
LINE
  5
491
  8
0
 10
39.5527
 20
4.62712
 30
0.0
 11
39.1973
 21
1.24631
 31
0.0
  0
LINE
  5
492
  8
0
 10
39.1973
 20
1.24631
 30
0.0
 11
39.4694
 21
1.0318
 31
0.0
  0
LINE
  5
493
  8
0
 10
39.4694
 20
1.0318
 30
0.0
 11
39.7723
 21
0.490936
 31
0.0
  0
LINE
  5
494
  8
0
 10
39.7723
 20
0.490936
 30
0.0
 11
39.8452
 21
-0.124649
 31
0.0
  0
LINE
  5
495
  8
0
 10
39.8452
 20
-0.124649
 30
0.0
 11
39.6769
 21
-0.721268
 31
0.0
  0
LINE
  5
496
  8
0
 10
39.6769
 20
-0.721268
 30
0.0
 11
39.2931
 21
-1.20808
 31
0.0
  0
LINE
  5
497
  8
0
 10
39.2931
 20
-1.20808
 30
0.0
 11
39.1989
 21
-1.26088
 31
0.0
  0
LINE
  5
498
  8
0
 10
39.1989
 20
-1.26088
 30
0.0
 11
39.5562
 21
-4.66081
 31
0.0
  0
LINE
  5
499
  8
0
 10
39.5562
 20
-4.66081
 30
0.0
 11
39.7642
 21
-4.7773
 31
0.0
  0
LINE
  5
49A
  8
0
 10
39.7642
 20
-4.7773
 30
0.0
 11
40.148
 21
-5.26411
 31
0.0
  0
LINE
  5
49B
  8
0
 10
40.148
 20
-5.26411
 30
0.0
 11
40.3162
 21
-5.86073
 31
0.0
  0
LINE
  5
49C
  8
0
 10
40.3162
 20
-5.86073
 30
0.0
 11
40.2434
 21
-6.47633
 31
0.0
  0
LINE
  5
49D
  8
0
 10
40.2434
 20
-6.47633
 30
0.0
 11
39.9405
 21
-7.0172
 31
0.0
  0
LINE
  5
49E
  8
0
 10
39.9405
 20
-7.0172
 30
0.0
 11
39.8143
 21
-7.11665
 31
0.0
  0
LINE
  5
49F
  8
0
 10
39.8143
 20
-7.11665
 30
0.0
 11
39.8848
 21
-7.7876
 31
0.0
  0
LINE
  5
4A0
  8
0
 10
39.8848
 20
-7.7876
 30
0.0
 11
40.7277
 21
-10.3815
 31
0.0
  0
LINE
  5
4A1
  8
0
 10
40.7277
 20
-10.3815
 30
0.0
 11
40.9641
 21
-10.4688
 31
0.0
  0
LINE
  5
4A2
  8
0
 10
40.9641
 20
-10.4688
 30
0.0
 11
41.4193
 21
-10.8896
 31
0.0
  0
LINE
  5
4A3
  8
0
 10
41.4193
 20
-10.8896
 30
0.0
 11
41.6788
 21
-11.4525
 31
0.0
  0
LINE
  5
4A4
  8
0
 10
41.6788
 20
-11.4525
 30
0.0
 11
41.7032
 21
-12.0719
 31
0.0
  0
LINE
  5
4A5
  8
0
 10
41.7032
 20
-12.0719
 30
0.0
 11
41.4886
 21
-12.6535
 31
0.0
  0
LINE
  5
4A6
  8
0
 10
41.4886
 20
-12.6535
 30
0.0
 11
41.4718
 21
-12.6717
 31
0.0
  0
LINE
  5
4A7
  8
0
 10
41.4718
 20
-12.6717
 30
0.0
 11
42.3046
 21
-15.2349
 31
0.0
  0
LINE
  5
4A8
  8
0
 10
42.3046
 20
-15.2349
 30
0.0
 11
42.6447
 21
-15.8239
 31
0.0
  0
LINE
  5
4A9
  8
0
 10
42.6447
 20
-15.8239
 30
0.0
 11
43.0396
 21
-15.9025
 31
0.0
  0
LINE
  5
4AA
  8
0
 10
43.0396
 20
-15.9025
 30
0.0
 11
43.555
 21
-16.2469
 31
0.0
  0
LINE
  5
4AB
  8
0
 10
43.555
 20
-16.2469
 30
0.0
 11
43.8994
 21
-16.7623
 31
0.0
  0
LINE
  5
4AC
  8
0
 10
43.8994
 20
-16.7623
 30
0.0
 11
44.0203
 21
-17.3703
 31
0.0
  0
LINE
  5
4AD
  8
0
 10
44.0203
 20
-17.3703
 30
0.0
 11
43.8994
 21
-17.9783
 31
0.0
  0
LINE
  5
4AE
  8
0
 10
43.8994
 20
-17.9783
 30
0.0
 11
43.8935
 21
-17.987
 31
0.0
  0
LINE
  5
4AF
  8
0
 10
43.8935
 20
-17.987
 30
0.0
 11
45.5933
 21
-20.931
 31
0.0
  0
LINE
  5
4B0
  8
0
 10
45.5933
 20
-20.931
 30
0.0
 11
45.9395
 21
-20.9446
 31
0.0
  0
LINE
  5
4B1
  8
0
 10
45.9395
 20
-20.9446
 30
0.0
 11
46.5024
 21
-21.2041
 31
0.0
  0
LINE
  5
4B2
  8
0
 10
46.5024
 20
-21.2041
 30
0.0
 11
46.9232
 21
-21.6593
 31
0.0
  0
LINE
  5
4B3
  8
0
 10
46.9232
 20
-21.6593
 30
0.0
 11
47.1378
 21
-22.2409
 31
0.0
  0
LINE
  5
4B4
  8
0
 10
47.1378
 20
-22.2409
 30
0.0
 11
47.1134
 21
-22.8603
 31
0.0
  0
LINE
  5
4B5
  8
0
 10
47.1134
 20
-22.8603
 30
0.0
 11
47.0682
 21
-22.9585
 31
0.0
  0
LINE
  5
4B6
  8
0
 10
47.0682
 20
-22.9585
 30
0.0
 11
49.3557
 21
-25.499
 31
0.0
  0
LINE
  5
4B7
  8
0
 10
49.3557
 20
-25.499
 30
0.0
 11
49.5925
 21
-25.471
 31
0.0
  0
LINE
  5
4B8
  8
0
 10
49.5925
 20
-25.471
 30
0.0
 11
50.1891
 21
-25.6393
 31
0.0
  0
LINE
  5
4B9
  8
0
 10
50.1891
 20
-25.6393
 30
0.0
 11
50.6759
 21
-26.023
 31
0.0
  0
LINE
  5
4BA
  8
0
 10
50.6759
 20
-26.023
 30
0.0
 11
50.9788
 21
-26.5639
 31
0.0
  0
LINE
  5
4BB
  8
0
 10
50.9788
 20
-26.5639
 30
0.0
 11
51.0517
 21
-27.1795
 31
0.0
  0
LINE
  5
4BC
  8
0
 10
51.0517
 20
-27.1795
 30
0.0
 11
51.0081
 21
-27.3341
 31
0.0
  0
LINE
  5
4BD
  8
0
 10
51.0081
 20
-27.3341
 30
0.0
 11
51.4595
 21
-27.8355
 31
0.0
  0
LINE
  5
4BE
  8
0
 10
51.4595
 20
-27.8355
 30
0.0
 11
53.666
 21
-29.4386
 31
0.0
  0
LINE
  5
4BF
  8
0
 10
53.666
 20
-29.4386
 30
0.0
 11
53.9086
 21
-29.3702
 31
0.0
  0
LINE
  5
4C0
  8
0
 10
53.9086
 20
-29.3702
 30
0.0
 11
54.5242
 21
-29.4431
 31
0.0
  0
LINE
  5
4C1
  8
0
 10
54.5242
 20
-29.4431
 30
0.0
 11
55.065
 21
-29.746
 31
0.0
  0
LINE
  5
4C2
  8
0
 10
55.065
 20
-29.746
 30
0.0
 11
55.4488
 21
-30.2328
 31
0.0
  0
LINE
  5
4C3
  8
0
 10
55.4488
 20
-30.2328
 30
0.0
 11
55.6171
 21
-30.8294
 31
0.0
  0
LINE
  5
4C4
  8
0
 10
55.6171
 20
-30.8294
 30
0.0
 11
55.6142
 21
-30.854
 31
0.0
  0
LINE
  5
4C5
  8
0
 10
55.6142
 20
-30.854
 30
0.0
 11
57.7945
 21
-32.4381
 31
0.0
  0
LINE
  5
4C6
  8
0
 10
57.7945
 20
-32.4381
 30
0.0
 11
58.4159
 21
-32.7148
 31
0.0
  0
LINE
  5
4C7
  8
0
 10
58.4159
 20
-32.7148
 30
0.0
 11
58.7815
 21
-32.5462
 31
0.0
  0
LINE
  5
4C8
  8
0
 10
58.7815
 20
-32.5462
 30
0.0
 11
59.4009
 21
-32.5219
 31
0.0
  0
LINE
  5
4C9
  8
0
 10
59.4009
 20
-32.5219
 30
0.0
 11
59.9825
 21
-32.7365
 31
0.0
  0
LINE
  5
4CA
  8
0
 10
59.9825
 20
-32.7365
 30
0.0
 11
60.4377
 21
-33.1572
 31
0.0
  0
LINE
  5
4CB
  8
0
 10
60.4377
 20
-33.1572
 30
0.0
 11
60.6972
 21
-33.7202
 31
0.0
  0
LINE
  5
4CC
  8
0
 10
60.6972
 20
-33.7202
 30
0.0
 11
60.6976
 21
-33.7307
 31
0.0
  0
LINE
  5
4CD
  8
0
 10
60.6976
 20
-33.7307
 30
0.0
 11
63.8032
 21
-35.1134
 31
0.0
  0
LINE
  5
4CE
  8
0
 10
63.8032
 20
-35.1134
 30
0.0
 11
64.0913
 21
-34.9209
 31
0.0
  0
LINE
  5
4CF
  8
0
 10
64.0913
 20
-34.9209
 30
0.0
 11
64.6993
 21
-34.7999
 31
0.0
  0
LINE
  5
4D0
  8
0
 10
64.6993
 20
-34.7999
 30
0.0
 11
65.3073
 21
-34.9209
 31
0.0
  0
LINE
  5
4D1
  8
0
 10
65.3073
 20
-34.9209
 30
0.0
 11
65.8227
 21
-35.2653
 31
0.0
  0
LINE
  5
4D2
  8
0
 10
65.8227
 20
-35.2653
 30
0.0
 11
66.1671
 21
-35.7807
 31
0.0
  0
LINE
  5
4D3
  8
0
 10
66.1671
 20
-35.7807
 30
0.0
 11
66.1882
 21
-35.8867
 31
0.0
  0
LINE
  5
4D4
  8
0
 10
66.1882
 20
-35.8867
 30
0.0
 11
69.5321
 21
-36.5975
 31
0.0
  0
LINE
  5
4D5
  8
0
 10
69.5321
 20
-36.5975
 30
0.0
 11
69.7072
 21
-36.4356
 31
0.0
  0
LINE
  5
4D6
  8
0
 10
69.7072
 20
-36.4356
 30
0.0
 11
70.2887
 21
-36.2211
 31
0.0
  0
LINE
  5
4D7
  8
0
 10
70.2887
 20
-36.2211
 30
0.0
 11
70.9082
 21
-36.2454
 31
0.0
  0
LINE
  5
4D8
  8
0
 10
70.9082
 20
-36.2454
 30
0.0
 11
71.4711
 21
-36.5049
 31
0.0
  0
LINE
  5
4D9
  8
0
 10
71.4711
 20
-36.5049
 30
0.0
 11
71.8919
 21
-36.9601
 31
0.0
  0
LINE
  5
4DA
  8
0
 10
71.8919
 20
-36.9601
 30
0.0
 11
71.9475
 21
-37.1109
 31
0.0
  0
LINE
  5
4DB
  8
0
 10
71.9475
 20
-37.1109
 30
0.0
 11
72.6074
 21
-37.2511
 31
0.0
  0
LINE
  5
4DC
  8
0
 10
72.6074
 20
-37.2511
 30
0.0
 11
75.3348
 21
-37.2511
 31
0.0
  0
LINE
  5
4DD
  8
0
 10
75.3348
 20
-37.2511
 30
0.0
 11
75.4909
 21
-37.0532
 31
0.0
  0
LINE
  5
4DE
  8
0
 10
75.0763
 20
-6.33702
 30
0.0
 11
73.2727
 21
-5.62915
 31
0.0
  0
LINE
  5
4DF
  8
0
 10
73.2727
 20
-5.62915
 30
0.0
 11
71.7578
 21
-4.42111
 31
0.0
  0
LINE
  5
4E0
  8
0
 10
71.7578
 20
-4.42111
 30
0.0
 11
70.6664
 21
-2.82024
 31
0.0
  0
LINE
  5
4E1
  8
0
 10
70.6664
 20
-2.82024
 30
0.0
 11
70.0953
 21
-0.968765
 31
0.0
  0
LINE
  5
4E2
  8
0
 10
70.0953
 20
-0.968765
 30
0.0
 11
70.0953
 21
0.968765
 31
0.0
  0
LINE
  5
4E3
  8
0
 10
70.0953
 20
0.968765
 30
0.0
 11
70.6664
 21
2.82024
 31
0.0
  0
LINE
  5
4E4
  8
0
 10
70.6664
 20
2.82024
 30
0.0
 11
71.7578
 21
4.42111
 31
0.0
  0
LINE
  5
4E5
  8
0
 10
71.7578
 20
4.42111
 30
0.0
 11
73.2727
 21
5.62915
 31
0.0
  0
LINE
  5
4E6
  8
0
 10
73.2727
 20
5.62915
 30
0.0
 11
75.0763
 21
6.33702
 31
0.0
  0
LINE
  5
4E7
  8
0
 10
75.0763
 20
6.33702
 30
0.0
 11
77.0084
 21
6.48181
 31
0.0
  0
LINE
  5
4E8
  8
0
 10
77.0084
 20
6.48181
 30
0.0
 11
78.8974
 21
6.05067
 31
0.0
  0
LINE
  5
4E9
  8
0
 10
78.8974
 20
6.05067
 30
0.0
 11
80.5753
 21
5.08189
 31
0.0
  0
LINE
  5
4EA
  8
0
 10
80.5753
 20
5.08189
 30
0.0
 11
81.8932
 21
3.66158
 31
0.0
  0
LINE
  5
4EB
  8
0
 10
81.8932
 20
3.66158
 30
0.0
 11
82.7339
 21
1.91589
 31
0.0
  0
LINE
  5
4EC
  8
0
 10
82.7339
 20
1.91589
 30
0.0
 11
83.0227
 21
0.0
 31
0.0
  0
LINE
  5
4ED
  8
0
 10
83.0227
 20
0.0
 30
0.0
 11
82.7339
 21
-1.91589
 31
0.0
  0
LINE
  5
4EE
  8
0
 10
82.7339
 20
-1.91589
 30
0.0
 11
81.8932
 21
-3.66158
 31
0.0
  0
LINE
  5
4EF
  8
0
 10
81.8932
 20
-3.66158
 30
0.0
 11
80.5753
 21
-5.08189
 31
0.0
  0
LINE
  5
4F0
  8
0
 10
80.5753
 20
-5.08189
 30
0.0
 11
78.8974
 21
-6.05067
 31
0.0
  0
LINE
  5
4F1
  8
0
 10
78.8974
 20
-6.05067
 30
0.0
 11
77.0084
 21
-6.48181
 31
0.0
  0
LINE
  5
4F2
  8
0
 10
77.0084
 20
-6.48181
 30
0.0
 11
75.0763
 21
-6.33702
 31
0.0
  0
LINE
  5
4F3
  8
0
 10
93.6098
 20
-1.28499
 30
0.0
 11
93.6098
 21
1.28499
 31
0.0
  0
LINE
  5
4F4
  8
0
 10
93.6098
 20
1.28499
 30
0.0
 11
104.197
 21
1.28499
 31
0.0
  0
LINE
  5
4F5
  8
0
 10
104.197
 20
1.28499
 30
0.0
 11
104.197
 21
-1.28499
 31
0.0
  0
LINE
  5
4F6
  8
0
 10
104.197
 20
-1.28499
 30
0.0
 11
93.6098
 21
-1.28499
 31
0.0
  0
TEXT
  5
52C
  8
0
 62
5
 10
0.0
 20
0.0
 30
0.0
 40
3.0
  1
4
  7
OpenSans-Regular
  0
ENDSEC
  0
EOF
