  0
SECTION
  2
HEADER
  9
$ACADVER
  1
AC1009
  9
$DWGCODEPAGE
  3
ANSI_1252
  9
$INSBASE
 10
0.0
 20
0.0
 30
0.0
  9
$EXTMIN
 10
1e+20
 20
1e+20
 30
1e+20
  9
$EXTMAX
 10
-1e+20
 20
-1e+20
 30
-1e+20
  9
$LIMMIN
 10
0.0
 20
0.0
  9
$LIMMAX
 10
420.0
 20
297.0
  9
$ORTHOMODE
 70
0
  9
$REGENMODE
 70
1
  9
$FILLMODE
 70
1
  9
$DRAGMODE
 70
2
  9
$QTEXTMODE
 70
0
  9
$MIRRTEXT
 70
1
  9
$OSMODE
 70
20583
  9
$LTSCALE
 40
1.0
  9
$ATTMODE
 70
1
  9
$TEXTSIZE
 40
2.5
  9
$TRACEWID
 40
1.0
  9
$TEXTSTYLE
  7
Standard
  9
$CLAYER
  8
0
  9
$CELTYPE
  6
ByLayer
  9
$CECOLOR
 62
256
  9
$DIMSCALE
 40
1.0
  9
$DIMASZ
 40
2.5
  9
$DIMEXO
 40
0.625
  9
$DIMDLI
 40
3.75
  9
$DIMRND
 40
0.0
  9
$DIMDLE
 40
0.0
  9
$DIMEXE
 40
1.25
  9
$DIMTP
 40
0.0
  9
$DIMTM
 40
0.0
  9
$DIMTXT
 40
2.5
  9
$DIMCEN
 40
2.5
  9
$DIMTSZ
 40
0.0
  9
$DIMTOL
 70
0
  9
$DIMLIM
 70
0
  9
$DIMTIH
 70
0
  9
$DIMTOH
 70
0
  9
$DIMSE1
 70
0
  9
$DIMSE2
 70
0
  9
$DIMTAD
 70
1
  9
$DIMZIN
 70
8
  9
$DIMBLK
  1

  9
$DIMASO
 70
1
  9
$DIMSHO
 70
1
  9
$DIMPOST
  1

  9
$DIMAPOST
  1

  9
$DIMALT
 70
0
  9
$DIMALTD
 70
3
  9
$DIMALTF
 40
0.03937007874
  9
$DIMLFAC
 40
1.0
  9
$DIMTOFL
 70
1
  9
$DIMTVP
 40
0.0
  9
$DIMTIX
 70
0
  9
$DIMSOXD
 70
0
  9
$DIMSAH
 70
0
  9
$DIMBLK1
  1

  9
$DIMBLK2
  1

  9
$DIMSTYLE
  2
ISO-25
  9
$DIMCLRD
 70
0
  9
$DIMCLRE
 70
0
  9
$DIMCLRT
 70
0
  9
$DIMTFAC
 40
1.0
  9
$DIMGAP
 40
0.625
  9
$COORDS
 70
1
  9
$ATTDIA
 70
0
  9
$ATTREQ
 70
1
  9
$HANDLING
 70
1
  9
$LUNITS
 70
2
  9
$LUPREC
 70
4
  9
$SKETCHINC
 40
1.0
  9
$FILLETRAD
 40
10.0
  9
$AUNITS
 70
0
  9
$AUPREC
 70
2
  9
$MENU
  1
.
  9
$ELEVATION
 40
0.0
  9
$PELEVATION
 40
0.0
  9
$THICKNESS
 40
0.0
  9
$LIMCHECK
 70
0
  9
$CHAMFERA
 40
0.0
  9
$CHAMFERB
 40
0.0
  9
$SKPOLY
 70
0
  9
$TDCREATE
 40
2459973.944351852
  9
$TDUPDATE
 40
2459973.944351852
  9
$TDINDWG
 40
0.0
  9
$TDUSRTIMER
 40
0.0
  9
$USRTIMER
 70
1
  9
$ANGBASE
 50
0.0
  9
$ANGDIR
 70
0
  9
$PDMODE
 70
0
  9
$PDSIZE
 40
0.0
  9
$PLINEWID
 40
0.0
  9
$SPLFRAME
 70
0
  9
$SPLINETYPE
 70
6
  9
$SPLINESEGS
 70
8
  9
$HANDSEED
  5
468
  9
$SURFTAB1
 70
6
  9
$SURFTAB2
 70
6
  9
$SURFTYPE
 70
6
  9
$SURFU
 70
6
  9
$SURFV
 70
6
  9
$UCSNAME
  2

  9
$UCSORG
 10
0.0
 20
0.0
 30
0.0
  9
$UCSXDIR
 10
1.0
 20
0.0
 30
0.0
  9
$UCSYDIR
 10
0.0
 20
1.0
 30
0.0
  9
$PUCSNAME
  2

  9
$PUCSORG
 10
0.0
 20
0.0
 30
0.0
  9
$PUCSXDIR
 10
1.0
 20
0.0
 30
0.0
  9
$PUCSYDIR
 10
0.0
 20
1.0
 30
0.0
  9
$USERI1
 70
0
  9
$USERI2
 70
0
  9
$USERI3
 70
0
  9
$USERI4
 70
0
  9
$USERI5
 70
0
  9
$USERR1
 40
0.0
  9
$USERR2
 40
0.0
  9
$USERR3
 40
0.0
  9
$USERR4
 40
0.0
  9
$USERR5
 40
0.0
  9
$WORLDVIEW
 70
1
  9
$SHADEDGE
 70
3
  9
$SHADEDIF
 70
70
  9
$TILEMODE
 70
1
  9
$MAXACTVP
 70
64
  9
$PLIMCHECK
 70
0
  9
$PEXTMIN
 10
1e+20
 20
1e+20
 30
1e+20
  9
$PEXTMAX
 10
-1e+20
 20
-1e+20
 30
-1e+20
  9
$PLIMMIN
 10
0.0
 20
0.0
  9
$PLIMMAX
 10
420.0
 20
297.0
  9
$UNITMODE
 70
0
  9
$VISRETAIN
 70
1
  9
$PLINEGEN
 70
0
  9
$PSLTSCALE
 70
1
  0
ENDSEC
  0
SECTION
  2
TABLES
  0
TABLE
  2
VPORT
 70
1
  0
VPORT
  5
43A
  2
*Active
 70
0
 10
0.0
 20
0.0
 11
1.0
 21
1.0
 12
0.0
 22
0.0
 13
0.0
 23
0.0
 14
0.5
 24
0.5
 15
0.5
 25
0.5
 16
0.0
 26
0.0
 36
1.0
 17
0.0
 27
0.0
 37
0.0
 40
1000.0
 41
1.34
 42
50.0
 43
0.0
 44
0.0
 50
0.0
 51
0.0
 71
0
 72
1000
 73
1
 74
3
 75
0
 76
0
 77
0
 78
0
  0
ENDTAB
  0
TABLE
  2
LTYPE
 70
3
  0
LTYPE
  5
43B
  2
ByBlock
 70
0
  3

 72
65
 73
0
 40
0.0
  0
LTYPE
  5
43C
  2
ByLayer
 70
0
  3

 72
65
 73
0
 40
0.0
  0
LTYPE
  5
43D
  2
Continuous
 70
0
  3

 72
65
 73
0
 40
0.0
  0
ENDTAB
  0
TABLE
  2
LAYER
 70
2
  0
LAYER
  5
43E
  2
0
 70
0
 62
7
  6
Continuous
  0
LAYER
  5
43F
  2
Defpoints
 70
0
 62
7
  6
Continuous
  0
ENDTAB
  0
TABLE
  2
STYLE
 70
1
  0
STYLE
  5
440
  2
Standard
 70
0
 40
0.0
 41
1.0
 50
0.0
 71
0
 42
2.5
  3
txt
  4

  0
ENDTAB
  0
TABLE
  2
VIEW
 70
0
  0
ENDTAB
  0
TABLE
  2
UCS
 70
0
  0
ENDTAB
  0
TABLE
  2
APPID
 70
3
  0
APPID
  5
441
  2
ACAD
 70
0
  0
APPID
  5
445
  2
HATCHBACKGROUNDCOLOR
 70
0
  0
APPID
  5
446
  2
EZDXF
 70
0
  0
ENDTAB
  0
TABLE
  2
DIMSTYLE
 70
1
  0
DIMSTYLE
105
442
  2
Standard
 70
0
  3

  4

  5

  6

  7

 40
1.0
 41
2.5
 42
0.625
 43
3.75
 44
1.25
 45
0.0
 46
0.0
 47
0.0
 48
0.0
140
2.5
141
2.5
142
0.0
143
0.03937007874
144
1.0
145
0.0
146
1.0
147
0.625
 71
0
 72
0
 73
0
 74
0
 75
0
 76
0
 77
1
 78
8
170
0
171
3
172
1
173
0
174
0
175
0
176
0
177
0
178
0
  0
ENDTAB
  0
ENDSEC
  0
SECTION
  2
BLOCKS
  0
BLOCK
  5
41B
  8
0
  2
$Model_Space
 70
0
 10
0.0
 20
0.0
 30
0.0
  3
$Model_Space
  1

1001
EZDXF
1000
WRITTEN_BY_EZDXF
1000
1.0.1 @ 2023-01-28T12:39:52.240878+00:00
  0
ENDBLK
  5
41C
  8
0
  0
BLOCK
  5
41D
  8
0
  2
$Paper_Space
 70
0
 10
0.0
 20
0.0
 30
0.0
  3
$Paper_Space
  1

  0
ENDBLK
  5
41E
  8
0
  0
ENDSEC
  0
SECTION
  2
ENTITIES
  0
LINE
  5
100
  8
0
 10
1.85669
 20
29.7896
 30
0.0
 11
2.37212
 21
30.134
 31
0.0
  0
LINE
  5
101
  8
0
 10
2.37212
 20
30.134
 30
0.0
 11
2.9801
 21
30.255
 31
0.0
  0
LINE
  5
102
  8
0
 10
2.9801
 20
30.255
 30
0.0
 11
3.58809
 21
30.134
 31
0.0
  0
LINE
  5
103
  8
0
 10
3.58809
 20
30.134
 30
0.0
 11
4.10352
 21
29.7896
 31
0.0
  0
LINE
  5
104
  8
0
 10
4.10352
 20
29.7896
 30
0.0
 11
4.14223
 21
29.7317
 31
0.0
  0
LINE
  5
105
  8
0
 10
4.14223
 20
29.7317
 30
0.0
 11
7.33379
 21
30.4101
 31
0.0
  0
LINE
  5
106
  8
0
 10
7.33379
 20
30.4101
 30
0.0
 11
7.47765
 21
30.7707
 31
0.0
  0
LINE
  5
107
  8
0
 10
7.47765
 20
30.7707
 30
0.0
 11
7.9102
 21
31.2148
 31
0.0
  0
LINE
  5
108
  8
0
 10
7.9102
 20
31.2148
 30
0.0
 11
8.47977
 21
31.4595
 31
0.0
  0
LINE
  5
109
  8
0
 10
8.47977
 20
31.4595
 30
0.0
 11
9.09961
 21
31.4676
 31
0.0
  0
LINE
  5
10A
  8
0
 10
9.09961
 20
31.4676
 30
0.0
 11
9.67538
 21
31.2379
 31
0.0
  0
LINE
  5
10B
  8
0
 10
9.67538
 20
31.2379
 30
0.0
 11
9.72528
 21
31.1893
 31
0.0
  0
LINE
  5
10C
  8
0
 10
9.72528
 20
31.1893
 30
0.0
 11
12.7061
 21
32.5164
 31
0.0
  0
LINE
  5
10D
  8
0
 10
12.7061
 20
32.5164
 30
0.0
 11
12.7718
 21
32.899
 31
0.0
  0
LINE
  5
10E
  8
0
 10
12.7718
 20
32.899
 30
0.0
 11
13.1026
 21
33.4233
 31
0.0
  0
LINE
  5
10F
  8
0
 10
13.1026
 20
33.4233
 30
0.0
 11
13.6088
 21
33.7811
 31
0.0
  0
LINE
  5
110
  8
0
 10
13.6088
 20
33.7811
 30
0.0
 11
14.2134
 21
33.9179
 31
0.0
  0
LINE
  5
111
  8
0
 10
14.2134
 20
33.9179
 30
0.0
 11
14.8244
 21
33.8129
 31
0.0
  0
LINE
  5
112
  8
0
 10
14.8244
 20
33.8129
 30
0.0
 11
14.8833
 21
33.7757
 31
0.0
  0
LINE
  5
113
  8
0
 10
14.8833
 20
33.7757
 30
0.0
 11
17.523
 21
35.6936
 31
0.0
  0
LINE
  5
114
  8
0
 10
17.523
 20
35.6936
 30
0.0
 11
17.5078
 21
36.0815
 31
0.0
  0
LINE
  5
115
  8
0
 10
17.5078
 20
36.0815
 30
0.0
 11
17.7223
 21
36.6631
 31
0.0
  0
LINE
  5
116
  8
0
 10
17.7223
 20
36.6631
 30
0.0
 11
18.1431
 21
37.1183
 31
0.0
  0
LINE
  5
117
  8
0
 10
18.1431
 20
37.1183
 30
0.0
 11
18.7061
 21
37.3779
 31
0.0
  0
LINE
  5
118
  8
0
 10
18.7061
 20
37.3779
 30
0.0
 11
19.3255
 21
37.4022
 31
0.0
  0
LINE
  5
119
  8
0
 10
19.3255
 20
37.4022
 30
0.0
 11
19.3908
 21
37.3781
 31
0.0
  0
LINE
  5
11A
  8
0
 10
19.3908
 20
37.3781
 30
0.0
 11
21.5741
 21
39.8029
 31
0.0
  0
LINE
  5
11B
  8
0
 10
21.5741
 20
39.8029
 30
0.0
 11
21.4785
 21
40.1792
 31
0.0
  0
LINE
  5
11C
  8
0
 10
21.4785
 20
40.1792
 30
0.0
 11
21.5675
 21
40.7926
 31
0.0
  0
LINE
  5
11D
  8
0
 10
21.5675
 20
40.7926
 30
0.0
 11
21.8844
 21
41.3254
 31
0.0
  0
LINE
  5
11E
  8
0
 10
21.8844
 20
41.3254
 30
0.0
 11
22.3811
 21
41.6963
 31
0.0
  0
LINE
  5
11F
  8
0
 10
22.3811
 20
41.6963
 30
0.0
 11
22.982
 21
41.8489
 31
0.0
  0
LINE
  5
120
  8
0
 10
22.982
 20
41.8489
 30
0.0
 11
23.0509
 21
41.8389
 31
0.0
  0
LINE
  5
121
  8
0
 10
23.0509
 20
41.8389
 30
0.0
 11
24.6823
 21
44.6646
 31
0.0
  0
LINE
  5
122
  8
0
 10
24.6823
 20
44.6646
 30
0.0
 11
24.5106
 21
45.0128
 31
0.0
  0
LINE
  5
123
  8
0
 10
24.5106
 20
45.0128
 30
0.0
 11
24.4701
 21
45.6314
 31
0.0
  0
LINE
  5
124
  8
0
 10
24.4701
 20
45.6314
 30
0.0
 11
24.6693
 21
46.2184
 31
0.0
  0
LINE
  5
125
  8
0
 10
24.6693
 20
46.2184
 30
0.0
 11
25.0781
 21
46.6845
 31
0.0
  0
LINE
  5
126
  8
0
 10
25.0781
 20
46.6845
 30
0.0
 11
25.634
 21
46.9586
 31
0.0
  0
LINE
  5
127
  8
0
 10
25.634
 20
46.9586
 30
0.0
 11
25.7035
 21
46.9632
 31
0.0
  0
LINE
  5
128
  8
0
 10
25.7035
 20
46.9632
 30
0.0
 11
26.7118
 21
50.0664
 31
0.0
  0
LINE
  5
129
  8
0
 10
26.7118
 20
50.0664
 30
0.0
 11
26.4715
 21
50.3713
 31
0.0
  0
LINE
  5
12A
  8
0
 10
26.4715
 20
50.3713
 30
0.0
 11
26.3032
 21
50.9679
 31
0.0
  0
LINE
  5
12B
  8
0
 10
26.3032
 20
50.9679
 30
0.0
 11
26.3761
 21
51.5835
 31
0.0
  0
LINE
  5
12C
  8
0
 10
26.3761
 20
51.5835
 30
0.0
 11
26.6789
 21
52.1243
 31
0.0
  0
LINE
  5
12D
  8
0
 10
26.6789
 20
52.1243
 30
0.0
 11
27.1658
 21
52.5081
 31
0.0
  0
LINE
  5
12E
  8
0
 10
27.1658
 20
52.5081
 30
0.0
 11
27.2328
 21
52.527
 31
0.0
  0
LINE
  5
12F
  8
0
 10
27.2328
 20
52.527
 30
0.0
 11
27.5739
 21
55.772
 31
0.0
  0
LINE
  5
130
  8
0
 10
27.5739
 20
55.772
 30
0.0
 11
27.2754
 21
56.0203
 31
0.0
  0
LINE
  5
131
  8
0
 10
27.2754
 20
56.0203
 30
0.0
 11
26.9867
 21
56.5689
 31
0.0
  0
LINE
  5
132
  8
0
 10
26.9867
 20
56.5689
 30
0.0
 11
26.93
 21
57.1862
 31
0.0
  0
LINE
  5
133
  8
0
 10
26.93
 20
57.1862
 30
0.0
 11
27.1138
 21
57.7782
 31
0.0
  0
LINE
  5
134
  8
0
 10
27.1138
 20
57.7782
 30
0.0
 11
27.5102
 21
58.2548
 31
0.0
  0
LINE
  5
135
  8
0
 10
27.5102
 20
58.2548
 30
0.0
 11
27.5719
 21
58.2872
 31
0.0
  0
LINE
  5
136
  8
0
 10
27.5719
 20
58.2872
 30
0.0
 11
27.2308
 21
61.5322
 31
0.0
  0
LINE
  5
137
  8
0
 10
27.2308
 20
61.5322
 30
0.0
 11
26.8872
 21
61.713
 31
0.0
  0
LINE
  5
138
  8
0
 10
26.8872
 20
61.713
 30
0.0
 11
26.4908
 21
62.1896
 31
0.0
  0
LINE
  5
139
  8
0
 10
26.4908
 20
62.1896
 30
0.0
 11
26.307
 21
62.7816
 31
0.0
  0
LINE
  5
13A
  8
0
 10
26.307
 20
62.7816
 30
0.0
 11
26.3637
 21
63.3989
 31
0.0
  0
LINE
  5
13B
  8
0
 10
26.3637
 20
63.3989
 30
0.0
 11
26.6523
 21
63.9475
 31
0.0
  0
LINE
  5
13C
  8
0
 10
26.6523
 20
63.9475
 30
0.0
 11
26.7059
 21
63.9921
 31
0.0
  0
LINE
  5
13D
  8
0
 10
26.7059
 20
63.9921
 30
0.0
 11
25.6976
 21
67.0952
 31
0.0
  0
LINE
  5
13E
  8
0
 10
25.6976
 20
67.0952
 30
0.0
 11
25.3239
 21
67.2006
 31
0.0
  0
LINE
  5
13F
  8
0
 10
25.3239
 20
67.2006
 30
0.0
 11
24.8371
 21
67.5844
 31
0.0
  0
LINE
  5
140
  8
0
 10
24.8371
 20
67.5844
 30
0.0
 11
24.5342
 21
68.1252
 31
0.0
  0
LINE
  5
141
  8
0
 10
24.5342
 20
68.1252
 30
0.0
 11
24.4614
 21
68.7408
 31
0.0
  0
LINE
  5
142
  8
0
 10
24.4614
 20
68.7408
 30
0.0
 11
24.6296
 21
69.3375
 31
0.0
  0
LINE
  5
143
  8
0
 10
24.6296
 20
69.3375
 30
0.0
 11
24.6728
 21
69.3922
 31
0.0
  0
LINE
  5
144
  8
0
 10
24.6728
 20
69.3922
 30
0.0
 11
23.0413
 21
72.2179
 31
0.0
  0
LINE
  5
145
  8
0
 10
23.0413
 20
72.2179
 30
0.0
 11
22.6539
 21
72.2433
 31
0.0
  0
LINE
  5
146
  8
0
 10
22.6539
 20
72.2433
 30
0.0
 11
22.0979
 21
72.5175
 31
0.0
  0
LINE
  5
147
  8
0
 10
22.0979
 20
72.5175
 30
0.0
 11
21.6892
 21
72.9835
 31
0.0
  0
LINE
  5
148
  8
0
 10
21.6892
 20
72.9835
 30
0.0
 11
21.49
 21
73.5705
 31
0.0
  0
LINE
  5
149
  8
0
 10
21.49
 20
73.5705
 30
0.0
 11
21.5305
 21
74.1891
 31
0.0
  0
LINE
  5
14A
  8
0
 10
21.5305
 20
74.1891
 30
0.0
 11
21.5613
 21
74.2516
 31
0.0
  0
LINE
  5
14B
  8
0
 10
21.5613
 20
74.2516
 30
0.0
 11
19.378
 21
76.6764
 31
0.0
  0
LINE
  5
14C
  8
0
 10
19.378
 20
76.6764
 30
0.0
 11
18.9938
 21
76.6206
 31
0.0
  0
LINE
  5
14D
  8
0
 10
18.9938
 20
76.6206
 30
0.0
 11
18.393
 21
76.7732
 31
0.0
  0
LINE
  5
14E
  8
0
 10
18.393
 20
76.7732
 30
0.0
 11
17.8963
 21
77.1441
 31
0.0
  0
LINE
  5
14F
  8
0
 10
17.8963
 20
77.1441
 30
0.0
 11
17.5793
 21
77.6769
 31
0.0
  0
LINE
  5
150
  8
0
 10
17.5793
 20
77.6769
 30
0.0
 11
17.4904
 21
78.2904
 31
0.0
  0
LINE
  5
151
  8
0
 10
17.4904
 20
78.2904
 30
0.0
 11
17.5075
 21
78.3579
 31
0.0
  0
LINE
  5
152
  8
0
 10
17.5075
 20
78.3579
 30
0.0
 11
14.8678
 21
80.2757
 31
0.0
  0
LINE
  5
153
  8
0
 10
14.8678
 20
80.2757
 30
0.0
 11
14.5036
 21
80.1414
 31
0.0
  0
LINE
  5
154
  8
0
 10
14.5036
 20
80.1414
 30
0.0
 11
13.8841
 21
80.1657
 31
0.0
  0
LINE
  5
155
  8
0
 10
13.8841
 20
80.1657
 30
0.0
 11
13.3212
 21
80.4252
 31
0.0
  0
LINE
  5
156
  8
0
 10
13.3212
 20
80.4252
 30
0.0
 11
12.9004
 21
80.8804
 31
0.0
  0
LINE
  5
157
  8
0
 10
12.9004
 20
80.8804
 30
0.0
 11
12.6858
 21
81.462
 31
0.0
  0
LINE
  5
158
  8
0
 10
12.6858
 20
81.462
 30
0.0
 11
12.6886
 21
81.5316
 31
0.0
  0
LINE
  5
159
  8
0
 10
12.6886
 20
81.5316
 30
0.0
 11
9.70779
 21
82.8587
 31
0.0
  0
LINE
  5
15A
  8
0
 10
9.70779
 20
82.8587
 30
0.0
 11
9.37944
 21
82.6516
 31
0.0
  0
LINE
  5
15B
  8
0
 10
9.37944
 20
82.6516
 30
0.0
 11
8.76849
 21
82.5466
 31
0.0
  0
LINE
  5
15C
  8
0
 10
8.76849
 20
82.5466
 30
0.0
 11
8.16388
 21
82.6834
 31
0.0
  0
LINE
  5
15D
  8
0
 10
8.16388
 20
82.6834
 30
0.0
 11
7.65765
 21
83.0412
 31
0.0
  0
LINE
  5
15E
  8
0
 10
7.65765
 20
83.0412
 30
0.0
 11
7.32686
 21
83.5654
 31
0.0
  0
LINE
  5
15F
  8
0
 10
7.32686
 20
83.5654
 30
0.0
 11
7.31506
 21
83.6341
 31
0.0
  0
LINE
  5
160
  8
0
 10
7.31506
 20
83.6341
 30
0.0
 11
4.1235
 21
84.3125
 31
0.0
  0
LINE
  5
161
  8
0
 10
4.1235
 20
84.3125
 30
0.0
 11
3.8454
 21
84.0415
 31
0.0
  0
LINE
  5
162
  8
0
 10
3.8454
 20
84.0415
 30
0.0
 11
3.26964
 21
83.8118
 31
0.0
  0
LINE
  5
163
  8
0
 10
3.26964
 20
83.8118
 30
0.0
 11
2.64978
 21
83.82
 31
0.0
  0
LINE
  5
164
  8
0
 10
2.64978
 20
83.82
 30
0.0
 11
2.08023
 21
84.0647
 31
0.0
  0
LINE
  5
165
  8
0
 10
2.08023
 20
84.0647
 30
0.0
 11
1.64767
 21
84.5087
 31
0.0
  0
LINE
  5
166
  8
0
 10
1.64767
 20
84.5087
 30
0.0
 11
1.62186
 21
84.5734
 31
0.0
  0
LINE
  5
167
  8
0
 10
1.62186
 20
84.5734
 30
0.0
 11
-1.64099
 21
84.5734
 31
0.0
  0
LINE
  5
168
  8
0
 10
-1.64099
 20
84.5734
 30
0.0
 11
-1.85669
 21
84.2506
 31
0.0
  0
LINE
  5
169
  8
0
 10
-1.85669
 20
84.2506
 30
0.0
 11
-2.37212
 21
83.9062
 31
0.0
  0
LINE
  5
16A
  8
0
 10
-2.37212
 20
83.9062
 30
0.0
 11
-2.9801
 21
83.7852
 31
0.0
  0
LINE
  5
16B
  8
0
 10
-2.9801
 20
83.7852
 30
0.0
 11
-3.58809
 21
83.9062
 31
0.0
  0
LINE
  5
16C
  8
0
 10
-3.58809
 20
83.9062
 30
0.0
 11
-4.10352
 21
84.2506
 31
0.0
  0
LINE
  5
16D
  8
0
 10
-4.10352
 20
84.2506
 30
0.0
 11
-4.14223
 21
84.3085
 31
0.0
  0
LINE
  5
16E
  8
0
 10
-4.14223
 20
84.3085
 30
0.0
 11
-7.33379
 21
83.6301
 31
0.0
  0
LINE
  5
16F
  8
0
 10
-7.33379
 20
83.6301
 30
0.0
 11
-7.47765
 21
83.2695
 31
0.0
  0
LINE
  5
170
  8
0
 10
-7.47765
 20
83.2695
 30
0.0
 11
-7.9102
 21
82.8255
 31
0.0
  0
LINE
  5
171
  8
0
 10
-7.9102
 20
82.8255
 30
0.0
 11
-8.47977
 21
82.5808
 31
0.0
  0
LINE
  5
172
  8
0
 10
-8.47977
 20
82.5808
 30
0.0
 11
-9.09961
 21
82.5726
 31
0.0
  0
LINE
  5
173
  8
0
 10
-9.09961
 20
82.5726
 30
0.0
 11
-9.67538
 21
82.8024
 31
0.0
  0
LINE
  5
174
  8
0
 10
-9.67538
 20
82.8024
 30
0.0
 11
-9.72528
 21
82.851
 31
0.0
  0
LINE
  5
175
  8
0
 10
-9.72528
 20
82.851
 30
0.0
 11
-12.7061
 21
81.5238
 31
0.0
  0
LINE
  5
176
  8
0
 10
-12.7061
 20
81.5238
 30
0.0
 11
-12.7718
 21
81.1412
 31
0.0
  0
LINE
  5
177
  8
0
 10
-12.7718
 20
81.1412
 30
0.0
 11
-13.1026
 21
80.6169
 31
0.0
  0
LINE
  5
178
  8
0
 10
-13.1026
 20
80.6169
 30
0.0
 11
-13.6088
 21
80.2592
 31
0.0
  0
LINE
  5
179
  8
0
 10
-13.6088
 20
80.2592
 30
0.0
 11
-14.2134
 21
80.1223
 31
0.0
  0
LINE
  5
17A
  8
0
 10
-14.2134
 20
80.1223
 30
0.0
 11
-14.8244
 21
80.2273
 31
0.0
  0
LINE
  5
17B
  8
0
 10
-14.8244
 20
80.2273
 30
0.0
 11
-14.8833
 21
80.2645
 31
0.0
  0
LINE
  5
17C
  8
0
 10
-14.8833
 20
80.2645
 30
0.0
 11
-17.523
 21
78.3466
 31
0.0
  0
LINE
  5
17D
  8
0
 10
-17.523
 20
78.3466
 30
0.0
 11
-17.5078
 21
77.9587
 31
0.0
  0
LINE
  5
17E
  8
0
 10
-17.5078
 20
77.9587
 30
0.0
 11
-17.7223
 21
77.3771
 31
0.0
  0
LINE
  5
17F
  8
0
 10
-17.7223
 20
77.3771
 30
0.0
 11
-18.1431
 21
76.9219
 31
0.0
  0
LINE
  5
180
  8
0
 10
-18.1431
 20
76.9219
 30
0.0
 11
-18.7061
 21
76.6624
 31
0.0
  0
LINE
  5
181
  8
0
 10
-18.7061
 20
76.6624
 30
0.0
 11
-19.3255
 21
76.638
 31
0.0
  0
LINE
  5
182
  8
0
 10
-19.3255
 20
76.638
 30
0.0
 11
-19.3908
 21
76.6621
 31
0.0
  0
LINE
  5
183
  8
0
 10
-19.3908
 20
76.6621
 30
0.0
 11
-21.5741
 21
74.2374
 31
0.0
  0
LINE
  5
184
  8
0
 10
-21.5741
 20
74.2374
 30
0.0
 11
-21.4785
 21
73.8611
 31
0.0
  0
LINE
  5
185
  8
0
 10
-21.4785
 20
73.8611
 30
0.0
 11
-21.5675
 21
73.2476
 31
0.0
  0
LINE
  5
186
  8
0
 10
-21.5675
 20
73.2476
 30
0.0
 11
-21.8844
 21
72.7148
 31
0.0
  0
LINE
  5
187
  8
0
 10
-21.8844
 20
72.7148
 30
0.0
 11
-22.3811
 21
72.3439
 31
0.0
  0
LINE
  5
188
  8
0
 10
-22.3811
 20
72.3439
 30
0.0
 11
-22.982
 21
72.1913
 31
0.0
  0
LINE
  5
189
  8
0
 10
-22.982
 20
72.1913
 30
0.0
 11
-23.0509
 21
72.2013
 31
0.0
  0
LINE
  5
18A
  8
0
 10
-23.0509
 20
72.2013
 30
0.0
 11
-24.6823
 21
69.3756
 31
0.0
  0
LINE
  5
18B
  8
0
 10
-24.6823
 20
69.3756
 30
0.0
 11
-24.5106
 21
69.0274
 31
0.0
  0
LINE
  5
18C
  8
0
 10
-24.5106
 20
69.0274
 30
0.0
 11
-24.4701
 21
68.4088
 31
0.0
  0
LINE
  5
18D
  8
0
 10
-24.4701
 20
68.4088
 30
0.0
 11
-24.6693
 21
67.8218
 31
0.0
  0
LINE
  5
18E
  8
0
 10
-24.6693
 20
67.8218
 30
0.0
 11
-25.0781
 21
67.3558
 31
0.0
  0
LINE
  5
18F
  8
0
 10
-25.0781
 20
67.3558
 30
0.0
 11
-25.634
 21
67.0816
 31
0.0
  0
LINE
  5
190
  8
0
 10
-25.634
 20
67.0816
 30
0.0
 11
-25.7035
 21
67.077
 31
0.0
  0
LINE
  5
191
  8
0
 10
-25.7035
 20
67.077
 30
0.0
 11
-26.7118
 21
63.9739
 31
0.0
  0
LINE
  5
192
  8
0
 10
-26.7118
 20
63.9739
 30
0.0
 11
-26.4715
 21
63.669
 31
0.0
  0
LINE
  5
193
  8
0
 10
-26.4715
 20
63.669
 30
0.0
 11
-26.3032
 21
63.0723
 31
0.0
  0
LINE
  5
194
  8
0
 10
-26.3032
 20
63.0723
 30
0.0
 11
-26.3761
 21
62.4567
 31
0.0
  0
LINE
  5
195
  8
0
 10
-26.3761
 20
62.4567
 30
0.0
 11
-26.6789
 21
61.9159
 31
0.0
  0
LINE
  5
196
  8
0
 10
-26.6789
 20
61.9159
 30
0.0
 11
-27.1658
 21
61.5321
 31
0.0
  0
LINE
  5
197
  8
0
 10
-27.1658
 20
61.5321
 30
0.0
 11
-27.2328
 21
61.5132
 31
0.0
  0
LINE
  5
198
  8
0
 10
-27.2328
 20
61.5132
 30
0.0
 11
-27.5739
 21
58.2682
 31
0.0
  0
LINE
  5
199
  8
0
 10
-27.5739
 20
58.2682
 30
0.0
 11
-27.2754
 21
58.0199
 31
0.0
  0
LINE
  5
19A
  8
0
 10
-27.2754
 20
58.0199
 30
0.0
 11
-26.9867
 21
57.4713
 31
0.0
  0
LINE
  5
19B
  8
0
 10
-26.9867
 20
57.4713
 30
0.0
 11
-26.93
 21
56.854
 31
0.0
  0
LINE
  5
19C
  8
0
 10
-26.93
 20
56.854
 30
0.0
 11
-27.1138
 21
56.262
 31
0.0
  0
LINE
  5
19D
  8
0
 10
-27.1138
 20
56.262
 30
0.0
 11
-27.5102
 21
55.7854
 31
0.0
  0
LINE
  5
19E
  8
0
 10
-27.5102
 20
55.7854
 30
0.0
 11
-27.5719
 21
55.753
 31
0.0
  0
LINE
  5
19F
  8
0
 10
-27.5719
 20
55.753
 30
0.0
 11
-27.2308
 21
52.508
 31
0.0
  0
LINE
  5
1A0
  8
0
 10
-27.2308
 20
52.508
 30
0.0
 11
-26.8872
 21
52.3272
 31
0.0
  0
LINE
  5
1A1
  8
0
 10
-26.8872
 20
52.3272
 30
0.0
 11
-26.4908
 21
51.8506
 31
0.0
  0
LINE
  5
1A2
  8
0
 10
-26.4908
 20
51.8506
 30
0.0
 11
-26.307
 21
51.2586
 31
0.0
  0
LINE
  5
1A3
  8
0
 10
-26.307
 20
51.2586
 30
0.0
 11
-26.3637
 21
50.6413
 31
0.0
  0
LINE
  5
1A4
  8
0
 10
-26.3637
 20
50.6413
 30
0.0
 11
-26.6523
 21
50.0927
 31
0.0
  0
LINE
  5
1A5
  8
0
 10
-26.6523
 20
50.0927
 30
0.0
 11
-26.7059
 21
50.0482
 31
0.0
  0
LINE
  5
1A6
  8
0
 10
-26.7059
 20
50.0482
 30
0.0
 11
-25.6976
 21
46.945
 31
0.0
  0
LINE
  5
1A7
  8
0
 10
-25.6976
 20
46.945
 30
0.0
 11
-25.3239
 21
46.8396
 31
0.0
  0
LINE
  5
1A8
  8
0
 10
-25.3239
 20
46.8396
 30
0.0
 11
-24.8371
 21
46.4558
 31
0.0
  0
LINE
  5
1A9
  8
0
 10
-24.8371
 20
46.4558
 30
0.0
 11
-24.5342
 21
45.915
 31
0.0
  0
LINE
  5
1AA
  8
0
 10
-24.5342
 20
45.915
 30
0.0
 11
-24.4614
 21
45.2994
 31
0.0
  0
LINE
  5
1AB
  8
0
 10
-24.4614
 20
45.2994
 30
0.0
 11
-24.6296
 21
44.7027
 31
0.0
  0
LINE
  5
1AC
  8
0
 10
-24.6296
 20
44.7027
 30
0.0
 11
-24.6728
 21
44.648
 31
0.0
  0
LINE
  5
1AD
  8
0
 10
-24.6728
 20
44.648
 30
0.0
 11
-23.0413
 21
41.8223
 31
0.0
  0
LINE
  5
1AE
  8
0
 10
-23.0413
 20
41.8223
 30
0.0
 11
-22.6539
 21
41.7969
 31
0.0
  0
LINE
  5
1AF
  8
0
 10
-22.6539
 20
41.7969
 30
0.0
 11
-22.0979
 21
41.5228
 31
0.0
  0
LINE
  5
1B0
  8
0
 10
-22.0979
 20
41.5228
 30
0.0
 11
-21.6892
 21
41.0567
 31
0.0
  0
LINE
  5
1B1
  8
0
 10
-21.6892
 20
41.0567
 30
0.0
 11
-21.49
 21
40.4697
 31
0.0
  0
LINE
  5
1B2
  8
0
 10
-21.49
 20
40.4697
 30
0.0
 11
-21.5305
 21
39.8511
 31
0.0
  0
LINE
  5
1B3
  8
0
 10
-21.5305
 20
39.8511
 30
0.0
 11
-21.5613
 21
39.7886
 31
0.0
  0
LINE
  5
1B4
  8
0
 10
-21.5613
 20
39.7886
 30
0.0
 11
-19.378
 21
37.3639
 31
0.0
  0
LINE
  5
1B5
  8
0
 10
-19.378
 20
37.3639
 30
0.0
 11
-18.9938
 21
37.4196
 31
0.0
  0
LINE
  5
1B6
  8
0
 10
-18.9938
 20
37.4196
 30
0.0
 11
-18.393
 21
37.267
 31
0.0
  0
LINE
  5
1B7
  8
0
 10
-18.393
 20
37.267
 30
0.0
 11
-17.8963
 21
36.8961
 31
0.0
  0
LINE
  5
1B8
  8
0
 10
-17.8963
 20
36.8961
 30
0.0
 11
-17.5793
 21
36.3633
 31
0.0
  0
LINE
  5
1B9
  8
0
 10
-17.5793
 20
36.3633
 30
0.0
 11
-17.4904
 21
35.7499
 31
0.0
  0
LINE
  5
1BA
  8
0
 10
-17.4904
 20
35.7499
 30
0.0
 11
-17.5075
 21
35.6823
 31
0.0
  0
LINE
  5
1BB
  8
0
 10
-17.5075
 20
35.6823
 30
0.0
 11
-14.8678
 21
33.7645
 31
0.0
  0
LINE
  5
1BC
  8
0
 10
-14.8678
 20
33.7645
 30
0.0
 11
-14.5036
 21
33.8989
 31
0.0
  0
LINE
  5
1BD
  8
0
 10
-14.5036
 20
33.8989
 30
0.0
 11
-13.8841
 21
33.8745
 31
0.0
  0
LINE
  5
1BE
  8
0
 10
-13.8841
 20
33.8745
 30
0.0
 11
-13.3212
 21
33.615
 31
0.0
  0
LINE
  5
1BF
  8
0
 10
-13.3212
 20
33.615
 30
0.0
 11
-12.9004
 21
33.1598
 31
0.0
  0
LINE
  5
1C0
  8
0
 10
-12.9004
 20
33.1598
 30
0.0
 11
-12.6858
 21
32.5782
 31
0.0
  0
LINE
  5
1C1
  8
0
 10
-12.6858
 20
32.5782
 30
0.0
 11
-12.6886
 21
32.5086
 31
0.0
  0
LINE
  5
1C2
  8
0
 10
-12.6886
 20
32.5086
 30
0.0
 11
-9.70779
 21
31.1815
 31
0.0
  0
LINE
  5
1C3
  8
0
 10
-9.70779
 20
31.1815
 30
0.0
 11
-9.37944
 21
31.3887
 31
0.0
  0
LINE
  5
1C4
  8
0
 10
-9.37944
 20
31.3887
 30
0.0
 11
-8.76849
 21
31.4936
 31
0.0
  0
LINE
  5
1C5
  8
0
 10
-8.76849
 20
31.4936
 30
0.0
 11
-8.16388
 21
31.3568
 31
0.0
  0
LINE
  5
1C6
  8
0
 10
-8.16388
 20
31.3568
 30
0.0
 11
-7.65765
 21
30.9991
 31
0.0
  0
LINE
  5
1C7
  8
0
 10
-7.65765
 20
30.9991
 30
0.0
 11
-7.32686
 21
30.4748
 31
0.0
  0
LINE
  5
1C8
  8
0
 10
-7.32686
 20
30.4748
 30
0.0
 11
-7.31506
 21
30.4061
 31
0.0
  0
LINE
  5
1C9
  8
0
 10
-7.31506
 20
30.4061
 30
0.0
 11
-4.1235
 21
29.7278
 31
0.0
  0
LINE
  5
1CA
  8
0
 10
-4.1235
 20
29.7278
 30
0.0
 11
-3.8454
 21
29.9987
 31
0.0
  0
LINE
  5
1CB
  8
0
 10
-3.8454
 20
29.9987
 30
0.0
 11
-3.26964
 21
30.2284
 31
0.0
  0
LINE
  5
1CC
  8
0
 10
-3.26964
 20
30.2284
 30
0.0
 11
-2.64978
 21
30.2203
 31
0.0
  0
LINE
  5
1CD
  8
0
 10
-2.64978
 20
30.2203
 30
0.0
 11
-2.08023
 21
29.9756
 31
0.0
  0
LINE
  5
1CE
  8
0
 10
-2.08023
 20
29.9756
 30
0.0
 11
-1.64767
 21
29.5315
 31
0.0
  0
LINE
  5
1CF
  8
0
 10
-1.64767
 20
29.5315
 30
0.0
 11
-1.62186
 21
29.4668
 31
0.0
  0
LINE
  5
1D0
  8
0
 10
-1.62186
 20
29.4668
 30
0.0
 11
1.64099
 21
29.4668
 31
0.0
  0
LINE
  5
1D1
  8
0
 10
1.64099
 20
29.4668
 30
0.0
 11
1.85669
 21
29.7896
 31
0.0
  0
LINE
  5
1D2
  8
0
 10
-1.44638
 20
50.6831
 30
0.0
 11
-3.25
 21
51.3909
 31
0.0
  0
LINE
  5
1D3
  8
0
 10
-3.25
 20
51.3909
 30
0.0
 11
-4.76483
 21
52.599
 31
0.0
  0
LINE
  5
1D4
  8
0
 10
-4.76483
 20
52.599
 30
0.0
 11
-5.85629
 21
54.1999
 31
0.0
  0
LINE
  5
1D5
  8
0
 10
-5.85629
 20
54.1999
 30
0.0
 11
-6.4274
 21
56.0513
 31
0.0
  0
LINE
  5
1D6
  8
0
 10
-6.4274
 20
56.0513
 30
0.0
 11
-6.4274
 21
57.9889
 31
0.0
  0
LINE
  5
1D7
  8
0
 10
-6.4274
 20
57.9889
 30
0.0
 11
-5.85629
 21
59.8403
 31
0.0
  0
LINE
  5
1D8
  8
0
 10
-5.85629
 20
59.8403
 30
0.0
 11
-4.76483
 21
61.4412
 31
0.0
  0
LINE
  5
1D9
  8
0
 10
-4.76483
 20
61.4412
 30
0.0
 11
-3.25
 21
62.6493
 31
0.0
  0
LINE
  5
1DA
  8
0
 10
-3.25
 20
62.6493
 30
0.0
 11
-1.44638
 21
63.3571
 31
0.0
  0
LINE
  5
1DB
  8
0
 10
-1.44638
 20
63.3571
 30
0.0
 11
0.485733
 21
63.5019
 31
0.0
  0
LINE
  5
1DC
  8
0
 10
0.485733
 20
63.5019
 30
0.0
 11
2.37471
 21
63.0708
 31
0.0
  0
LINE
  5
1DD
  8
0
 10
2.37471
 20
63.0708
 30
0.0
 11
4.05267
 21
62.102
 31
0.0
  0
LINE
  5
1DE
  8
0
 10
4.05267
 20
62.102
 30
0.0
 11
5.37054
 21
60.6817
 31
0.0
  0
LINE
  5
1DF
  8
0
 10
5.37054
 20
60.6817
 30
0.0
 11
6.21121
 21
58.936
 31
0.0
  0
LINE
  5
1E0
  8
0
 10
6.21121
 20
58.936
 30
0.0
 11
6.5
 21
57.0201
 31
0.0
  0
LINE
  5
1E1
  8
0
 10
6.5
 20
57.0201
 30
0.0
 11
6.21121
 21
55.1042
 31
0.0
  0
LINE
  5
1E2
  8
0
 10
6.21121
 20
55.1042
 30
0.0
 11
5.37054
 21
53.3585
 31
0.0
  0
LINE
  5
1E3
  8
0
 10
5.37054
 20
53.3585
 30
0.0
 11
4.05267
 21
51.9382
 31
0.0
  0
LINE
  5
1E4
  8
0
 10
4.05267
 20
51.9382
 30
0.0
 11
2.37471
 21
50.9694
 31
0.0
  0
LINE
  5
1E5
  8
0
 10
2.37471
 20
50.9694
 30
0.0
 11
0.485733
 21
50.5383
 31
0.0
  0
LINE
  5
1E6
  8
0
 10
0.485733
 20
50.5383
 30
0.0
 11
-1.44638
 21
50.6831
 31
0.0
  0
LINE
  5
1E7
  8
0
 10
-0.899872
 20
-27.5489
 30
0.0
 11
1.00212
 21
-27.5489
 31
0.0
  0
LINE
  5
1E8
  8
0
 10
1.00212
 20
-27.5489
 30
0.0
 11
1.00475
 21
-27.5356
 31
0.0
  0
LINE
  5
1E9
  8
0
 10
1.00475
 20
-27.5356
 30
0.0
 11
1.46823
 21
-26.842
 31
0.0
  0
LINE
  5
1EA
  8
0
 10
1.46823
 20
-26.842
 30
0.0
 11
2.16188
 21
-26.3785
 31
0.0
  0
LINE
  5
1EB
  8
0
 10
2.16188
 20
-26.3785
 30
0.0
 11
2.9801
 21
-26.2158
 31
0.0
  0
LINE
  5
1EC
  8
0
 10
2.9801
 20
-26.2158
 30
0.0
 11
3.79832
 21
-26.3785
 31
0.0
  0
LINE
  5
1ED
  8
0
 10
3.79832
 20
-26.3785
 30
0.0
 11
4.49197
 21
-26.842
 31
0.0
  0
LINE
  5
1EE
  8
0
 10
4.49197
 20
-26.842
 30
0.0
 11
4.70966
 21
-27.1678
 31
0.0
  0
LINE
  5
1EF
  8
0
 10
4.70966
 20
-27.1678
 30
0.0
 11
4.84842
 21
-27.1383
 31
0.0
  0
LINE
  5
1F0
  8
0
 10
4.84842
 20
-27.1383
 30
0.0
 11
4.8475
 21
-27.134
 31
0.0
  0
LINE
  5
1F1
  8
0
 10
4.8475
 20
-27.134
 30
0.0
 11
6.70795
 21
-26.7385
 31
0.0
  0
LINE
  5
1F2
  8
0
 10
6.70795
 20
-26.7385
 30
0.0
 11
6.70778
 21
-26.725
 31
0.0
  0
LINE
  5
1F3
  8
0
 10
6.70778
 20
-26.725
 30
0.0
 11
7.01691
 21
-25.9502
 31
0.0
  0
LINE
  5
1F4
  8
0
 10
7.01691
 20
-25.9502
 30
0.0
 11
7.59904
 21
-25.3526
 31
0.0
  0
LINE
  5
1F5
  8
0
 10
7.59904
 20
-25.3526
 30
0.0
 11
8.36554
 21
-25.0233
 31
0.0
  0
LINE
  5
1F6
  8
0
 10
8.36554
 20
-25.0233
 30
0.0
 11
9.19972
 21
-25.0124
 31
0.0
  0
LINE
  5
1F7
  8
0
 10
9.19972
 20
-25.0124
 30
0.0
 11
9.97458
 21
-25.3215
 31
0.0
  0
LINE
  5
1F8
  8
0
 10
9.97458
 20
-25.3215
 30
0.0
 11
10.2552
 21
-25.5949
 31
0.0
  0
LINE
  5
1F9
  8
0
 10
10.2552
 20
-25.5949
 30
0.0
 11
10.3848
 21
-25.5372
 31
0.0
  0
LINE
  5
1FA
  8
0
 10
10.3848
 20
-25.5372
 30
0.0
 11
10.383
 21
-25.5332
 31
0.0
  0
LINE
  5
1FB
  8
0
 10
10.383
 20
-25.5332
 30
0.0
 11
12.1206
 21
-24.7595
 31
0.0
  0
LINE
  5
1FC
  8
0
 10
12.1206
 20
-24.7595
 30
0.0
 11
12.1176
 21
-24.7464
 31
0.0
  0
LINE
  5
1FD
  8
0
 10
12.1176
 20
-24.7464
 30
0.0
 11
12.2589
 21
-23.9242
 31
0.0
  0
LINE
  5
1FE
  8
0
 10
12.2589
 20
-23.9242
 30
0.0
 11
12.7041
 21
-23.2186
 31
0.0
  0
LINE
  5
1FF
  8
0
 10
12.7041
 20
-23.2186
 30
0.0
 11
13.3854
 21
-22.7372
 31
0.0
  0
LINE
  5
200
  8
0
 10
13.3854
 20
-22.7372
 30
0.0
 11
14.1991
 21
-22.5531
 31
0.0
  0
LINE
  5
201
  8
0
 10
14.1991
 20
-22.5531
 30
0.0
 11
15.0213
 21
-22.6943
 31
0.0
  0
LINE
  5
202
  8
0
 10
15.0213
 20
-22.6943
 30
0.0
 11
15.3526
 21
-22.9034
 31
0.0
  0
LINE
  5
203
  8
0
 10
15.3526
 20
-22.9034
 30
0.0
 11
15.4674
 21
-22.82
 31
0.0
  0
LINE
  5
204
  8
0
 10
15.4674
 20
-22.82
 30
0.0
 11
15.4648
 21
-22.8164
 31
0.0
  0
LINE
  5
205
  8
0
 10
15.4648
 20
-22.8164
 30
0.0
 11
17.0036
 21
-21.6985
 31
0.0
  0
LINE
  5
206
  8
0
 10
17.0036
 20
-21.6985
 30
0.0
 11
16.9979
 21
-21.6862
 31
0.0
  0
LINE
  5
207
  8
0
 10
16.9979
 20
-21.6862
 30
0.0
 11
16.9652
 21
-20.8526
 31
0.0
  0
LINE
  5
208
  8
0
 10
16.9652
 20
-20.8526
 30
0.0
 11
17.2539
 21
-20.0699
 31
0.0
  0
LINE
  5
209
  8
0
 10
17.2539
 20
-20.0699
 30
0.0
 11
17.8202
 21
-19.4573
 31
0.0
  0
LINE
  5
20A
  8
0
 10
17.8202
 20
-19.4573
 30
0.0
 11
18.5778
 21
-19.1081
 31
0.0
  0
LINE
  5
20B
  8
0
 10
18.5778
 20
-19.1081
 30
0.0
 11
19.4114
 21
-19.0753
 31
0.0
  0
LINE
  5
20C
  8
0
 10
19.4114
 20
-19.0753
 30
0.0
 11
19.779
 21
-19.2109
 31
0.0
  0
LINE
  5
20D
  8
0
 10
19.779
 20
-19.2109
 30
0.0
 11
19.8739
 21
-19.1055
 31
0.0
  0
LINE
  5
20E
  8
0
 10
19.8739
 20
-19.1055
 30
0.0
 11
19.8707
 21
-19.1025
 31
0.0
  0
LINE
  5
20F
  8
0
 10
19.8707
 20
-19.1025
 30
0.0
 11
21.1434
 21
-17.6891
 31
0.0
  0
LINE
  5
210
  8
0
 10
21.1434
 20
-17.6891
 30
0.0
 11
21.1353
 21
-17.6783
 31
0.0
  0
LINE
  5
211
  8
0
 10
21.1353
 20
-17.6783
 30
0.0
 11
20.9299
 21
-16.8697
 31
0.0
  0
LINE
  5
212
  8
0
 10
20.9299
 20
-16.8697
 30
0.0
 11
21.0496
 21
-16.0441
 31
0.0
  0
LINE
  5
213
  8
0
 10
21.0496
 20
-16.0441
 30
0.0
 11
21.4762
 21
-15.3271
 31
0.0
  0
LINE
  5
214
  8
0
 10
21.4762
 20
-15.3271
 30
0.0
 11
22.1446
 21
-14.828
 31
0.0
  0
LINE
  5
215
  8
0
 10
22.1446
 20
-14.828
 30
0.0
 11
22.9532
 21
-14.6226
 31
0.0
  0
LINE
  5
216
  8
0
 10
22.9532
 20
-14.6226
 30
0.0
 11
23.341
 21
-14.6788
 31
0.0
  0
LINE
  5
217
  8
0
 10
23.341
 20
-14.6788
 30
0.0
 11
23.4119
 21
-14.556
 31
0.0
  0
LINE
  5
218
  8
0
 10
23.4119
 20
-14.556
 30
0.0
 11
23.4081
 21
-14.5538
 31
0.0
  0
LINE
  5
219
  8
0
 10
23.4081
 20
-14.5538
 30
0.0
 11
24.3591
 21
-12.9066
 31
0.0
  0
LINE
  5
21A
  8
0
 10
24.3591
 20
-12.9066
 30
0.0
 11
24.349
 21
-12.8977
 31
0.0
  0
LINE
  5
21B
  8
0
 10
24.349
 20
-12.8977
 30
0.0
 11
23.98
 21
-12.1495
 31
0.0
  0
LINE
  5
21C
  8
0
 10
23.98
 20
-12.1495
 30
0.0
 11
23.9254
 21
-11.317
 31
0.0
  0
LINE
  5
21D
  8
0
 10
23.9254
 20
-11.317
 30
0.0
 11
24.1936
 21
-10.527
 31
0.0
  0
LINE
  5
21E
  8
0
 10
24.1936
 20
-10.527
 30
0.0
 11
24.7436
 21
-9.8998
 31
0.0
  0
LINE
  5
21F
  8
0
 10
24.7436
 20
-9.8998
 30
0.0
 11
25.4918
 21
-9.53082
 31
0.0
  0
LINE
  5
220
  8
0
 10
25.4918
 20
-9.53082
 30
0.0
 11
25.8828
 21
-9.5052
 31
0.0
  0
LINE
  5
221
  8
0
 10
25.8828
 20
-9.5052
 30
0.0
 11
25.9267
 21
-9.37027
 31
0.0
  0
LINE
  5
222
  8
0
 10
25.9267
 20
-9.37027
 30
0.0
 11
25.9225
 21
-9.36891
 31
0.0
  0
LINE
  5
223
  8
0
 10
25.9225
 20
-9.36891
 30
0.0
 11
26.5102
 21
-7.55998
 31
0.0
  0
LINE
  5
224
  8
0
 10
26.5102
 20
-7.55998
 30
0.0
 11
26.4984
 21
-7.55341
 31
0.0
  0
LINE
  5
225
  8
0
 10
26.4984
 20
-7.55341
 30
0.0
 11
25.982
 21
-6.89825
 31
0.0
  0
LINE
  5
226
  8
0
 10
25.982
 20
-6.89825
 30
0.0
 11
25.7555
 21
-6.09532
 31
0.0
  0
LINE
  5
227
  8
0
 10
25.7555
 20
-6.09532
 30
0.0
 11
25.8536
 21
-5.26686
 31
0.0
  0
LINE
  5
228
  8
0
 10
25.8536
 20
-5.26686
 30
0.0
 11
26.2612
 21
-4.53897
 31
0.0
  0
LINE
  5
229
  8
0
 10
26.2612
 20
-4.53897
 30
0.0
 11
26.9164
 21
-4.02249
 31
0.0
  0
LINE
  5
22A
  8
0
 10
26.9164
 20
-4.02249
 30
0.0
 11
27.2934
 21
-3.91614
 31
0.0
  0
LINE
  5
22B
  8
0
 10
27.2934
 20
-3.91614
 30
0.0
 11
27.3083
 21
-3.77505
 31
0.0
  0
LINE
  5
22C
  8
0
 10
27.3083
 20
-3.77505
 30
0.0
 11
27.3039
 21
-3.7746
 31
0.0
  0
LINE
  5
22D
  8
0
 10
27.3039
 20
-3.7746
 30
0.0
 11
27.5027
 21
-1.883
 31
0.0
  0
LINE
  5
22E
  8
0
 10
27.5027
 20
-1.883
 30
0.0
 11
27.4898
 21
-1.879
 31
0.0
  0
LINE
  5
22F
  8
0
 10
27.4898
 20
-1.879
 30
0.0
 11
26.8484
 21
-1.34555
 31
0.0
  0
LINE
  5
230
  8
0
 10
26.8484
 20
-1.34555
 30
0.0
 11
26.46
 21
-0.607254
 31
0.0
  0
LINE
  5
231
  8
0
 10
26.46
 20
-0.607254
 30
0.0
 11
26.3837
 21
0.22348
 31
0.0
  0
LINE
  5
232
  8
0
 10
26.3837
 20
0.22348
 30
0.0
 11
26.631
 21
1.02022
 31
0.0
  0
LINE
  5
233
  8
0
 10
26.631
 20
1.02022
 30
0.0
 11
27.1645
 21
1.66162
 31
0.0
  0
LINE
  5
234
  8
0
 10
27.1645
 20
1.66162
 30
0.0
 11
27.5112
 21
1.84404
 31
0.0
  0
LINE
  5
235
  8
0
 10
27.5112
 20
1.84404
 30
0.0
 11
27.4964
 21
1.98514
 31
0.0
  0
LINE
  5
236
  8
0
 10
27.4964
 20
1.98514
 30
0.0
 11
27.492
 21
1.98468
 31
0.0
  0
LINE
  5
237
  8
0
 10
27.492
 20
1.98468
 30
0.0
 11
27.2932
 21
3.87627
 31
0.0
  0
LINE
  5
238
  8
0
 10
27.2932
 20
3.87627
 30
0.0
 11
27.2798
 21
3.8775
 31
0.0
  0
LINE
  5
239
  8
0
 10
27.2798
 20
3.8775
 30
0.0
 11
26.5415
 21
4.26595
 31
0.0
  0
LINE
  5
23A
  8
0
 10
26.5415
 20
4.26595
 30
0.0
 11
26.008
 21
4.90735
 31
0.0
  0
LINE
  5
23B
  8
0
 10
26.008
 20
4.90735
 30
0.0
 11
25.7606
 21
5.70407
 31
0.0
  0
LINE
  5
23C
  8
0
 10
25.7606
 20
5.70407
 30
0.0
 11
25.837
 21
6.53482
 31
0.0
  0
LINE
  5
23D
  8
0
 10
25.837
 20
6.53482
 30
0.0
 11
26.2254
 21
7.27312
 31
0.0
  0
LINE
  5
23E
  8
0
 10
26.2254
 20
7.27312
 30
0.0
 11
26.5266
 21
7.52365
 31
0.0
  0
LINE
  5
23F
  8
0
 10
26.5266
 20
7.52365
 30
0.0
 11
26.4828
 21
7.65858
 31
0.0
  0
LINE
  5
240
  8
0
 10
26.4828
 20
7.65858
 30
0.0
 11
26.4786
 21
7.65723
 31
0.0
  0
LINE
  5
241
  8
0
 10
26.4786
 20
7.65723
 30
0.0
 11
25.8909
 21
9.46614
 31
0.0
  0
LINE
  5
242
  8
0
 10
25.8909
 20
9.46614
 30
0.0
 11
25.8775
 21
9.46455
 31
0.0
  0
LINE
  5
243
  8
0
 10
25.8775
 20
9.46455
 30
0.0
 11
25.0745
 21
9.69101
 31
0.0
  0
LINE
  5
244
  8
0
 10
25.0745
 20
9.69101
 30
0.0
 11
24.4194
 21
10.2075
 31
0.0
  0
LINE
  5
245
  8
0
 10
24.4194
 20
10.2075
 30
0.0
 11
24.0118
 21
10.9354
 31
0.0
  0
LINE
  5
246
  8
0
 10
24.0118
 20
10.9354
 30
0.0
 11
23.9137
 21
11.7638
 31
0.0
  0
LINE
  5
247
  8
0
 10
23.9137
 20
11.7638
 30
0.0
 11
24.1402
 21
12.5668
 31
0.0
  0
LINE
  5
248
  8
0
 10
24.1402
 20
12.5668
 30
0.0
 11
24.3827
 21
12.8745
 31
0.0
  0
LINE
  5
249
  8
0
 10
24.3827
 20
12.8745
 30
0.0
 11
24.3118
 21
12.9973
 31
0.0
  0
LINE
  5
24A
  8
0
 10
24.3118
 20
12.9973
 30
0.0
 11
24.308
 21
12.9951
 31
0.0
  0
LINE
  5
24B
  8
0
 10
24.308
 20
12.9951
 30
0.0
 11
23.357
 21
14.6423
 31
0.0
  0
LINE
  5
24C
  8
0
 10
23.357
 20
14.6423
 30
0.0
 11
23.3442
 21
14.638
 31
0.0
  0
LINE
  5
24D
  8
0
 10
23.3442
 20
14.638
 30
0.0
 11
22.5117
 21
14.6925
 31
0.0
  0
LINE
  5
24E
  8
0
 10
22.5117
 20
14.6925
 30
0.0
 11
21.7635
 21
15.0615
 31
0.0
  0
LINE
  5
24F
  8
0
 10
21.7635
 20
15.0615
 30
0.0
 11
21.2135
 21
15.6887
 31
0.0
  0
LINE
  5
250
  8
0
 10
21.2135
 20
15.6887
 30
0.0
 11
20.9453
 21
16.4787
 31
0.0
  0
LINE
  5
251
  8
0
 10
20.9453
 20
16.4787
 30
0.0
 11
20.9999
 21
17.3112
 31
0.0
  0
LINE
  5
252
  8
0
 10
20.9999
 20
17.3112
 30
0.0
 11
21.1731
 21
17.6626
 31
0.0
  0
LINE
  5
253
  8
0
 10
21.1731
 20
17.6626
 30
0.0
 11
21.0782
 21
17.768
 31
0.0
  0
LINE
  5
254
  8
0
 10
21.0782
 20
17.768
 30
0.0
 11
21.0749
 21
17.765
 31
0.0
  0
LINE
  5
255
  8
0
 10
21.0749
 20
17.765
 30
0.0
 11
19.8022
 21
19.1785
 31
0.0
  0
LINE
  5
256
  8
0
 10
19.8022
 20
19.1785
 30
0.0
 11
19.7907
 21
19.1716
 31
0.0
  0
LINE
  5
257
  8
0
 10
19.7907
 20
19.1716
 30
0.0
 11
18.965
 21
19.0519
 31
0.0
  0
LINE
  5
258
  8
0
 10
18.965
 20
19.0519
 30
0.0
 11
18.1565
 21
19.2573
 31
0.0
  0
LINE
  5
259
  8
0
 10
18.1565
 20
19.2573
 30
0.0
 11
17.488
 21
19.7564
 31
0.0
  0
LINE
  5
25A
  8
0
 10
17.488
 20
19.7564
 30
0.0
 11
17.0615
 21
20.4734
 31
0.0
  0
LINE
  5
25B
  8
0
 10
17.0615
 20
20.4734
 30
0.0
 11
16.9418
 21
21.299
 31
0.0
  0
LINE
  5
25C
  8
0
 10
16.9418
 20
21.299
 30
0.0
 11
17.0382
 21
21.6787
 31
0.0
  0
LINE
  5
25D
  8
0
 10
17.0382
 20
21.6787
 30
0.0
 11
16.9234
 21
21.7621
 31
0.0
  0
LINE
  5
25E
  8
0
 10
16.9234
 20
21.7621
 30
0.0
 11
16.9208
 21
21.7586
 31
0.0
  0
LINE
  5
25F
  8
0
 10
16.9208
 20
21.7586
 30
0.0
 11
15.3821
 21
22.8765
 31
0.0
  0
LINE
  5
260
  8
0
 10
15.3821
 20
22.8765
 30
0.0
 11
15.3722
 21
22.8674
 31
0.0
  0
LINE
  5
261
  8
0
 10
15.3722
 20
22.8674
 30
0.0
 11
14.5895
 21
22.5786
 31
0.0
  0
LINE
  5
262
  8
0
 10
14.5895
 20
22.5786
 30
0.0
 11
13.7559
 21
22.6114
 31
0.0
  0
LINE
  5
263
  8
0
 10
13.7559
 20
22.6114
 30
0.0
 11
12.9983
 21
22.9607
 31
0.0
  0
LINE
  5
264
  8
0
 10
12.9983
 20
22.9607
 30
0.0
 11
12.432
 21
23.5733
 31
0.0
  0
LINE
  5
265
  8
0
 10
12.432
 20
23.5733
 30
0.0
 11
12.1432
 21
24.356
 31
0.0
  0
LINE
  5
266
  8
0
 10
12.1432
 20
24.356
 30
0.0
 11
12.1586
 21
24.7475
 31
0.0
  0
LINE
  5
267
  8
0
 10
12.1586
 20
24.7475
 30
0.0
 11
12.029
 21
24.8052
 31
0.0
  0
LINE
  5
268
  8
0
 10
12.029
 20
24.8052
 30
0.0
 11
12.0272
 21
24.8011
 31
0.0
  0
LINE
  5
269
  8
0
 10
12.0272
 20
24.8011
 30
0.0
 11
10.2896
 21
25.5748
 31
0.0
  0
LINE
  5
26A
  8
0
 10
10.2896
 20
25.5748
 30
0.0
 11
10.2819
 21
25.5637
 31
0.0
  0
LINE
  5
26B
  8
0
 10
10.2819
 20
25.5637
 30
0.0
 11
9.57631
 21
25.1186
 31
0.0
  0
LINE
  5
26C
  8
0
 10
9.57631
 20
25.1186
 30
0.0
 11
8.75412
 21
24.9773
 31
0.0
  0
LINE
  5
26D
  8
0
 10
8.75412
 20
24.9773
 30
0.0
 11
7.94043
 21
25.1614
 31
0.0
  0
LINE
  5
26E
  8
0
 10
7.94043
 20
25.1614
 30
0.0
 11
7.25916
 21
25.6429
 31
0.0
  0
LINE
  5
26F
  8
0
 10
7.25916
 20
25.6429
 30
0.0
 11
6.81398
 21
26.3484
 31
0.0
  0
LINE
  5
270
  8
0
 10
6.81398
 20
26.3484
 30
0.0
 11
6.74763
 21
26.7346
 31
0.0
  0
LINE
  5
271
  8
0
 10
6.74763
 20
26.7346
 30
0.0
 11
6.60887
 21
26.7641
 31
0.0
  0
LINE
  5
272
  8
0
 10
6.60887
 20
26.7641
 30
0.0
 11
6.60794
 21
26.7598
 31
0.0
  0
LINE
  5
273
  8
0
 10
6.60794
 20
26.7598
 30
0.0
 11
4.7475
 21
27.1552
 31
0.0
  0
LINE
  5
274
  8
0
 10
4.7475
 20
27.1552
 30
0.0
 11
4.74217
 21
27.1428
 31
0.0
  0
LINE
  5
275
  8
0
 10
4.74217
 20
27.1428
 30
0.0
 11
4.14461
 21
26.5607
 31
0.0
  0
LINE
  5
276
  8
0
 10
4.14461
 20
26.5607
 30
0.0
 11
3.36975
 21
26.2516
 31
0.0
  0
LINE
  5
277
  8
0
 10
3.36975
 20
26.2516
 30
0.0
 11
2.53557
 21
26.2625
 31
0.0
  0
LINE
  5
278
  8
0
 10
2.53557
 20
26.2625
 30
0.0
 11
1.76907
 21
26.5918
 31
0.0
  0
LINE
  5
279
  8
0
 10
1.76907
 20
26.5918
 30
0.0
 11
1.18694
 21
27.1894
 31
0.0
  0
LINE
  5
27A
  8
0
 10
1.18694
 20
27.1894
 30
0.0
 11
1.04175
 21
27.5533
 31
0.0
  0
LINE
  5
27B
  8
0
 10
1.04175
 20
27.5533
 30
0.0
 11
0.899872
 21
27.5533
 31
0.0
  0
LINE
  5
27C
  8
0
 10
0.899872
 20
27.5533
 30
0.0
 11
0.899872
 21
27.5489
 31
0.0
  0
LINE
  5
27D
  8
0
 10
0.899872
 20
27.5489
 30
0.0
 11
-1.00212
 21
27.5489
 31
0.0
  0
LINE
  5
27E
  8
0
 10
-1.00212
 20
27.5489
 30
0.0
 11
-1.00475
 21
27.5356
 31
0.0
  0
LINE
  5
27F
  8
0
 10
-1.00475
 20
27.5356
 30
0.0
 11
-1.46823
 21
26.842
 31
0.0
  0
LINE
  5
280
  8
0
 10
-1.46823
 20
26.842
 30
0.0
 11
-2.16188
 21
26.3785
 31
0.0
  0
LINE
  5
281
  8
0
 10
-2.16188
 20
26.3785
 30
0.0
 11
-2.9801
 21
26.2158
 31
0.0
  0
LINE
  5
282
  8
0
 10
-2.9801
 20
26.2158
 30
0.0
 11
-3.79832
 21
26.3785
 31
0.0
  0
LINE
  5
283
  8
0
 10
-3.79832
 20
26.3785
 30
0.0
 11
-4.49197
 21
26.842
 31
0.0
  0
LINE
  5
284
  8
0
 10
-4.49197
 20
26.842
 30
0.0
 11
-4.70966
 21
27.1678
 31
0.0
  0
LINE
  5
285
  8
0
 10
-4.70966
 20
27.1678
 30
0.0
 11
-4.84842
 21
27.1383
 31
0.0
  0
LINE
  5
286
  8
0
 10
-4.84842
 20
27.1383
 30
0.0
 11
-4.8475
 21
27.134
 31
0.0
  0
LINE
  5
287
  8
0
 10
-4.8475
 20
27.134
 30
0.0
 11
-6.70795
 21
26.7385
 31
0.0
  0
LINE
  5
288
  8
0
 10
-6.70795
 20
26.7385
 30
0.0
 11
-6.70778
 21
26.725
 31
0.0
  0
LINE
  5
289
  8
0
 10
-6.70778
 20
26.725
 30
0.0
 11
-7.01691
 21
25.9502
 31
0.0
  0
LINE
  5
28A
  8
0
 10
-7.01691
 20
25.9502
 30
0.0
 11
-7.59904
 21
25.3526
 31
0.0
  0
LINE
  5
28B
  8
0
 10
-7.59904
 20
25.3526
 30
0.0
 11
-8.36554
 21
25.0233
 31
0.0
  0
LINE
  5
28C
  8
0
 10
-8.36554
 20
25.0233
 30
0.0
 11
-9.19972
 21
25.0124
 31
0.0
  0
LINE
  5
28D
  8
0
 10
-9.19972
 20
25.0124
 30
0.0
 11
-9.97458
 21
25.3215
 31
0.0
  0
LINE
  5
28E
  8
0
 10
-9.97458
 20
25.3215
 30
0.0
 11
-10.2552
 21
25.5949
 31
0.0
  0
LINE
  5
28F
  8
0
 10
-10.2552
 20
25.5949
 30
0.0
 11
-10.3848
 21
25.5372
 31
0.0
  0
LINE
  5
290
  8
0
 10
-10.3848
 20
25.5372
 30
0.0
 11
-10.383
 21
25.5332
 31
0.0
  0
LINE
  5
291
  8
0
 10
-10.383
 20
25.5332
 30
0.0
 11
-12.1206
 21
24.7595
 31
0.0
  0
LINE
  5
292
  8
0
 10
-12.1206
 20
24.7595
 30
0.0
 11
-12.1176
 21
24.7464
 31
0.0
  0
LINE
  5
293
  8
0
 10
-12.1176
 20
24.7464
 30
0.0
 11
-12.2589
 21
23.9242
 31
0.0
  0
LINE
  5
294
  8
0
 10
-12.2589
 20
23.9242
 30
0.0
 11
-12.7041
 21
23.2186
 31
0.0
  0
LINE
  5
295
  8
0
 10
-12.7041
 20
23.2186
 30
0.0
 11
-13.3854
 21
22.7372
 31
0.0
  0
LINE
  5
296
  8
0
 10
-13.3854
 20
22.7372
 30
0.0
 11
-14.1991
 21
22.5531
 31
0.0
  0
LINE
  5
297
  8
0
 10
-14.1991
 20
22.5531
 30
0.0
 11
-15.0213
 21
22.6943
 31
0.0
  0
LINE
  5
298
  8
0
 10
-15.0213
 20
22.6943
 30
0.0
 11
-15.3526
 21
22.9034
 31
0.0
  0
LINE
  5
299
  8
0
 10
-15.3526
 20
22.9034
 30
0.0
 11
-15.4674
 21
22.82
 31
0.0
  0
LINE
  5
29A
  8
0
 10
-15.4674
 20
22.82
 30
0.0
 11
-15.4648
 21
22.8164
 31
0.0
  0
LINE
  5
29B
  8
0
 10
-15.4648
 20
22.8164
 30
0.0
 11
-17.0036
 21
21.6985
 31
0.0
  0
LINE
  5
29C
  8
0
 10
-17.0036
 20
21.6985
 30
0.0
 11
-16.9979
 21
21.6862
 31
0.0
  0
LINE
  5
29D
  8
0
 10
-16.9979
 20
21.6862
 30
0.0
 11
-16.9652
 21
20.8526
 31
0.0
  0
LINE
  5
29E
  8
0
 10
-16.9652
 20
20.8526
 30
0.0
 11
-17.2539
 21
20.0699
 31
0.0
  0
LINE
  5
29F
  8
0
 10
-17.2539
 20
20.0699
 30
0.0
 11
-17.8202
 21
19.4573
 31
0.0
  0
LINE
  5
2A0
  8
0
 10
-17.8202
 20
19.4573
 30
0.0
 11
-18.5778
 21
19.1081
 31
0.0
  0
LINE
  5
2A1
  8
0
 10
-18.5778
 20
19.1081
 30
0.0
 11
-19.4114
 21
19.0753
 31
0.0
  0
LINE
  5
2A2
  8
0
 10
-19.4114
 20
19.0753
 30
0.0
 11
-19.779
 21
19.2109
 31
0.0
  0
LINE
  5
2A3
  8
0
 10
-19.779
 20
19.2109
 30
0.0
 11
-19.8739
 21
19.1055
 31
0.0
  0
LINE
  5
2A4
  8
0
 10
-19.8739
 20
19.1055
 30
0.0
 11
-19.8707
 21
19.1025
 31
0.0
  0
LINE
  5
2A5
  8
0
 10
-19.8707
 20
19.1025
 30
0.0
 11
-21.1434
 21
17.6891
 31
0.0
  0
LINE
  5
2A6
  8
0
 10
-21.1434
 20
17.6891
 30
0.0
 11
-21.1353
 21
17.6783
 31
0.0
  0
LINE
  5
2A7
  8
0
 10
-21.1353
 20
17.6783
 30
0.0
 11
-20.9299
 21
16.8697
 31
0.0
  0
LINE
  5
2A8
  8
0
 10
-20.9299
 20
16.8697
 30
0.0
 11
-21.0496
 21
16.0441
 31
0.0
  0
LINE
  5
2A9
  8
0
 10
-21.0496
 20
16.0441
 30
0.0
 11
-21.4762
 21
15.3271
 31
0.0
  0
LINE
  5
2AA
  8
0
 10
-21.4762
 20
15.3271
 30
0.0
 11
-22.1446
 21
14.828
 31
0.0
  0
LINE
  5
2AB
  8
0
 10
-22.1446
 20
14.828
 30
0.0
 11
-22.9532
 21
14.6226
 31
0.0
  0
LINE
  5
2AC
  8
0
 10
-22.9532
 20
14.6226
 30
0.0
 11
-23.341
 21
14.6788
 31
0.0
  0
LINE
  5
2AD
  8
0
 10
-23.341
 20
14.6788
 30
0.0
 11
-23.4119
 21
14.556
 31
0.0
  0
LINE
  5
2AE
  8
0
 10
-23.4119
 20
14.556
 30
0.0
 11
-23.4081
 21
14.5538
 31
0.0
  0
LINE
  5
2AF
  8
0
 10
-23.4081
 20
14.5538
 30
0.0
 11
-24.3591
 21
12.9066
 31
0.0
  0
LINE
  5
2B0
  8
0
 10
-24.3591
 20
12.9066
 30
0.0
 11
-24.349
 21
12.8977
 31
0.0
  0
LINE
  5
2B1
  8
0
 10
-24.349
 20
12.8977
 30
0.0
 11
-23.98
 21
12.1495
 31
0.0
  0
LINE
  5
2B2
  8
0
 10
-23.98
 20
12.1495
 30
0.0
 11
-23.9254
 21
11.317
 31
0.0
  0
LINE
  5
2B3
  8
0
 10
-23.9254
 20
11.317
 30
0.0
 11
-24.1936
 21
10.527
 31
0.0
  0
LINE
  5
2B4
  8
0
 10
-24.1936
 20
10.527
 30
0.0
 11
-24.7436
 21
9.8998
 31
0.0
  0
LINE
  5
2B5
  8
0
 10
-24.7436
 20
9.8998
 30
0.0
 11
-25.4918
 21
9.53082
 31
0.0
  0
LINE
  5
2B6
  8
0
 10
-25.4918
 20
9.53082
 30
0.0
 11
-25.8828
 21
9.5052
 31
0.0
  0
LINE
  5
2B7
  8
0
 10
-25.8828
 20
9.5052
 30
0.0
 11
-25.9267
 21
9.37027
 31
0.0
  0
LINE
  5
2B8
  8
0
 10
-25.9267
 20
9.37027
 30
0.0
 11
-25.9225
 21
9.36891
 31
0.0
  0
LINE
  5
2B9
  8
0
 10
-25.9225
 20
9.36891
 30
0.0
 11
-26.5102
 21
7.55998
 31
0.0
  0
LINE
  5
2BA
  8
0
 10
-26.5102
 20
7.55998
 30
0.0
 11
-26.4984
 21
7.55341
 31
0.0
  0
LINE
  5
2BB
  8
0
 10
-26.4984
 20
7.55341
 30
0.0
 11
-25.982
 21
6.89825
 31
0.0
  0
LINE
  5
2BC
  8
0
 10
-25.982
 20
6.89825
 30
0.0
 11
-25.7555
 21
6.09532
 31
0.0
  0
LINE
  5
2BD
  8
0
 10
-25.7555
 20
6.09532
 30
0.0
 11
-25.8536
 21
5.26686
 31
0.0
  0
LINE
  5
2BE
  8
0
 10
-25.8536
 20
5.26686
 30
0.0
 11
-26.2612
 21
4.53897
 31
0.0
  0
LINE
  5
2BF
  8
0
 10
-26.2612
 20
4.53897
 30
0.0
 11
-26.9164
 21
4.02249
 31
0.0
  0
LINE
  5
2C0
  8
0
 10
-26.9164
 20
4.02249
 30
0.0
 11
-27.2934
 21
3.91614
 31
0.0
  0
LINE
  5
2C1
  8
0
 10
-27.2934
 20
3.91614
 30
0.0
 11
-27.3083
 21
3.77505
 31
0.0
  0
LINE
  5
2C2
  8
0
 10
-27.3083
 20
3.77505
 30
0.0
 11
-27.3039
 21
3.7746
 31
0.0
  0
LINE
  5
2C3
  8
0
 10
-27.3039
 20
3.7746
 30
0.0
 11
-27.5027
 21
1.883
 31
0.0
  0
LINE
  5
2C4
  8
0
 10
-27.5027
 20
1.883
 30
0.0
 11
-27.4898
 21
1.879
 31
0.0
  0
LINE
  5
2C5
  8
0
 10
-27.4898
 20
1.879
 30
0.0
 11
-26.8484
 21
1.34555
 31
0.0
  0
LINE
  5
2C6
  8
0
 10
-26.8484
 20
1.34555
 30
0.0
 11
-26.46
 21
0.607254
 31
0.0
  0
LINE
  5
2C7
  8
0
 10
-26.46
 20
0.607254
 30
0.0
 11
-26.3837
 21
-0.22348
 31
0.0
  0
LINE
  5
2C8
  8
0
 10
-26.3837
 20
-0.22348
 30
0.0
 11
-26.631
 21
-1.02022
 31
0.0
  0
LINE
  5
2C9
  8
0
 10
-26.631
 20
-1.02022
 30
0.0
 11
-27.1645
 21
-1.66162
 31
0.0
  0
LINE
  5
2CA
  8
0
 10
-27.1645
 20
-1.66162
 30
0.0
 11
-27.5112
 21
-1.84404
 31
0.0
  0
LINE
  5
2CB
  8
0
 10
-27.5112
 20
-1.84404
 30
0.0
 11
-27.4964
 21
-1.98514
 31
0.0
  0
LINE
  5
2CC
  8
0
 10
-27.4964
 20
-1.98514
 30
0.0
 11
-27.492
 21
-1.98468
 31
0.0
  0
LINE
  5
2CD
  8
0
 10
-27.492
 20
-1.98468
 30
0.0
 11
-27.2932
 21
-3.87627
 31
0.0
  0
LINE
  5
2CE
  8
0
 10
-27.2932
 20
-3.87627
 30
0.0
 11
-27.2798
 21
-3.8775
 31
0.0
  0
LINE
  5
2CF
  8
0
 10
-27.2798
 20
-3.8775
 30
0.0
 11
-26.5415
 21
-4.26595
 31
0.0
  0
LINE
  5
2D0
  8
0
 10
-26.5415
 20
-4.26595
 30
0.0
 11
-26.008
 21
-4.90735
 31
0.0
  0
LINE
  5
2D1
  8
0
 10
-26.008
 20
-4.90735
 30
0.0
 11
-25.7606
 21
-5.70407
 31
0.0
  0
LINE
  5
2D2
  8
0
 10
-25.7606
 20
-5.70407
 30
0.0
 11
-25.837
 21
-6.53482
 31
0.0
  0
LINE
  5
2D3
  8
0
 10
-25.837
 20
-6.53482
 30
0.0
 11
-26.2254
 21
-7.27312
 31
0.0
  0
LINE
  5
2D4
  8
0
 10
-26.2254
 20
-7.27312
 30
0.0
 11
-26.5266
 21
-7.52365
 31
0.0
  0
LINE
  5
2D5
  8
0
 10
-26.5266
 20
-7.52365
 30
0.0
 11
-26.4828
 21
-7.65858
 31
0.0
  0
LINE
  5
2D6
  8
0
 10
-26.4828
 20
-7.65858
 30
0.0
 11
-26.4786
 21
-7.65723
 31
0.0
  0
LINE
  5
2D7
  8
0
 10
-26.4786
 20
-7.65723
 30
0.0
 11
-25.8909
 21
-9.46614
 31
0.0
  0
LINE
  5
2D8
  8
0
 10
-25.8909
 20
-9.46614
 30
0.0
 11
-25.8775
 21
-9.46455
 31
0.0
  0
LINE
  5
2D9
  8
0
 10
-25.8775
 20
-9.46455
 30
0.0
 11
-25.0745
 21
-9.69101
 31
0.0
  0
LINE
  5
2DA
  8
0
 10
-25.0745
 20
-9.69101
 30
0.0
 11
-24.4194
 21
-10.2075
 31
0.0
  0
LINE
  5
2DB
  8
0
 10
-24.4194
 20
-10.2075
 30
0.0
 11
-24.0118
 21
-10.9354
 31
0.0
  0
LINE
  5
2DC
  8
0
 10
-24.0118
 20
-10.9354
 30
0.0
 11
-23.9137
 21
-11.7638
 31
0.0
  0
LINE
  5
2DD
  8
0
 10
-23.9137
 20
-11.7638
 30
0.0
 11
-24.1402
 21
-12.5668
 31
0.0
  0
LINE
  5
2DE
  8
0
 10
-24.1402
 20
-12.5668
 30
0.0
 11
-24.3827
 21
-12.8745
 31
0.0
  0
LINE
  5
2DF
  8
0
 10
-24.3827
 20
-12.8745
 30
0.0
 11
-24.3118
 21
-12.9973
 31
0.0
  0
LINE
  5
2E0
  8
0
 10
-24.3118
 20
-12.9973
 30
0.0
 11
-24.308
 21
-12.9951
 31
0.0
  0
LINE
  5
2E1
  8
0
 10
-24.308
 20
-12.9951
 30
0.0
 11
-23.357
 21
-14.6423
 31
0.0
  0
LINE
  5
2E2
  8
0
 10
-23.357
 20
-14.6423
 30
0.0
 11
-23.3442
 21
-14.638
 31
0.0
  0
LINE
  5
2E3
  8
0
 10
-23.3442
 20
-14.638
 30
0.0
 11
-22.5117
 21
-14.6925
 31
0.0
  0
LINE
  5
2E4
  8
0
 10
-22.5117
 20
-14.6925
 30
0.0
 11
-21.7635
 21
-15.0615
 31
0.0
  0
LINE
  5
2E5
  8
0
 10
-21.7635
 20
-15.0615
 30
0.0
 11
-21.2135
 21
-15.6887
 31
0.0
  0
LINE
  5
2E6
  8
0
 10
-21.2135
 20
-15.6887
 30
0.0
 11
-20.9453
 21
-16.4787
 31
0.0
  0
LINE
  5
2E7
  8
0
 10
-20.9453
 20
-16.4787
 30
0.0
 11
-20.9999
 21
-17.3112
 31
0.0
  0
LINE
  5
2E8
  8
0
 10
-20.9999
 20
-17.3112
 30
0.0
 11
-21.1731
 21
-17.6626
 31
0.0
  0
LINE
  5
2E9
  8
0
 10
-21.1731
 20
-17.6626
 30
0.0
 11
-21.0782
 21
-17.768
 31
0.0
  0
LINE
  5
2EA
  8
0
 10
-21.0782
 20
-17.768
 30
0.0
 11
-21.0749
 21
-17.765
 31
0.0
  0
LINE
  5
2EB
  8
0
 10
-21.0749
 20
-17.765
 30
0.0
 11
-19.8022
 21
-19.1785
 31
0.0
  0
LINE
  5
2EC
  8
0
 10
-19.8022
 20
-19.1785
 30
0.0
 11
-19.7907
 21
-19.1716
 31
0.0
  0
LINE
  5
2ED
  8
0
 10
-19.7907
 20
-19.1716
 30
0.0
 11
-18.965
 21
-19.0519
 31
0.0
  0
LINE
  5
2EE
  8
0
 10
-18.965
 20
-19.0519
 30
0.0
 11
-18.1565
 21
-19.2573
 31
0.0
  0
LINE
  5
2EF
  8
0
 10
-18.1565
 20
-19.2573
 30
0.0
 11
-17.488
 21
-19.7564
 31
0.0
  0
LINE
  5
2F0
  8
0
 10
-17.488
 20
-19.7564
 30
0.0
 11
-17.0615
 21
-20.4734
 31
0.0
  0
LINE
  5
2F1
  8
0
 10
-17.0615
 20
-20.4734
 30
0.0
 11
-16.9418
 21
-21.299
 31
0.0
  0
LINE
  5
2F2
  8
0
 10
-16.9418
 20
-21.299
 30
0.0
 11
-17.0382
 21
-21.6787
 31
0.0
  0
LINE
  5
2F3
  8
0
 10
-17.0382
 20
-21.6787
 30
0.0
 11
-16.9234
 21
-21.7621
 31
0.0
  0
LINE
  5
2F4
  8
0
 10
-16.9234
 20
-21.7621
 30
0.0
 11
-16.9208
 21
-21.7586
 31
0.0
  0
LINE
  5
2F5
  8
0
 10
-16.9208
 20
-21.7586
 30
0.0
 11
-15.3821
 21
-22.8765
 31
0.0
  0
LINE
  5
2F6
  8
0
 10
-15.3821
 20
-22.8765
 30
0.0
 11
-15.3722
 21
-22.8674
 31
0.0
  0
LINE
  5
2F7
  8
0
 10
-15.3722
 20
-22.8674
 30
0.0
 11
-14.5895
 21
-22.5786
 31
0.0
  0
LINE
  5
2F8
  8
0
 10
-14.5895
 20
-22.5786
 30
0.0
 11
-13.7559
 21
-22.6114
 31
0.0
  0
LINE
  5
2F9
  8
0
 10
-13.7559
 20
-22.6114
 30
0.0
 11
-12.9983
 21
-22.9607
 31
0.0
  0
LINE
  5
2FA
  8
0
 10
-12.9983
 20
-22.9607
 30
0.0
 11
-12.432
 21
-23.5733
 31
0.0
  0
LINE
  5
2FB
  8
0
 10
-12.432
 20
-23.5733
 30
0.0
 11
-12.1432
 21
-24.356
 31
0.0
  0
LINE
  5
2FC
  8
0
 10
-12.1432
 20
-24.356
 30
0.0
 11
-12.1586
 21
-24.7475
 31
0.0
  0
LINE
  5
2FD
  8
0
 10
-12.1586
 20
-24.7475
 30
0.0
 11
-12.029
 21
-24.8052
 31
0.0
  0
LINE
  5
2FE
  8
0
 10
-12.029
 20
-24.8052
 30
0.0
 11
-12.0272
 21
-24.8011
 31
0.0
  0
LINE
  5
2FF
  8
0
 10
-12.0272
 20
-24.8011
 30
0.0
 11
-10.2896
 21
-25.5748
 31
0.0
  0
LINE
  5
300
  8
0
 10
-10.2896
 20
-25.5748
 30
0.0
 11
-10.2819
 21
-25.5637
 31
0.0
  0
LINE
  5
301
  8
0
 10
-10.2819
 20
-25.5637
 30
0.0
 11
-9.57631
 21
-25.1186
 31
0.0
  0
LINE
  5
302
  8
0
 10
-9.57631
 20
-25.1186
 30
0.0
 11
-8.75412
 21
-24.9773
 31
0.0
  0
LINE
  5
303
  8
0
 10
-8.75412
 20
-24.9773
 30
0.0
 11
-7.94043
 21
-25.1614
 31
0.0
  0
LINE
  5
304
  8
0
 10
-7.94043
 20
-25.1614
 30
0.0
 11
-7.25916
 21
-25.6429
 31
0.0
  0
LINE
  5
305
  8
0
 10
-7.25916
 20
-25.6429
 30
0.0
 11
-6.81398
 21
-26.3484
 31
0.0
  0
LINE
  5
306
  8
0
 10
-6.81398
 20
-26.3484
 30
0.0
 11
-6.74763
 21
-26.7346
 31
0.0
  0
LINE
  5
307
  8
0
 10
-6.74763
 20
-26.7346
 30
0.0
 11
-6.60887
 21
-26.7641
 31
0.0
  0
LINE
  5
308
  8
0
 10
-6.60887
 20
-26.7641
 30
0.0
 11
-6.60794
 21
-26.7598
 31
0.0
  0
LINE
  5
309
  8
0
 10
-6.60794
 20
-26.7598
 30
0.0
 11
-4.7475
 21
-27.1552
 31
0.0
  0
LINE
  5
30A
  8
0
 10
-4.7475
 20
-27.1552
 30
0.0
 11
-4.74217
 21
-27.1428
 31
0.0
  0
LINE
  5
30B
  8
0
 10
-4.74217
 20
-27.1428
 30
0.0
 11
-4.14461
 21
-26.5607
 31
0.0
  0
LINE
  5
30C
  8
0
 10
-4.14461
 20
-26.5607
 30
0.0
 11
-3.36975
 21
-26.2516
 31
0.0
  0
LINE
  5
30D
  8
0
 10
-3.36975
 20
-26.2516
 30
0.0
 11
-2.53557
 21
-26.2625
 31
0.0
  0
LINE
  5
30E
  8
0
 10
-2.53557
 20
-26.2625
 30
0.0
 11
-1.76907
 21
-26.5918
 31
0.0
  0
LINE
  5
30F
  8
0
 10
-1.76907
 20
-26.5918
 30
0.0
 11
-1.18694
 21
-27.1894
 31
0.0
  0
LINE
  5
310
  8
0
 10
-1.18694
 20
-27.1894
 30
0.0
 11
-1.04175
 21
-27.5533
 31
0.0
  0
LINE
  5
311
  8
0
 10
-1.04175
 20
-27.5533
 30
0.0
 11
-0.899872
 21
-27.5533
 31
0.0
  0
LINE
  5
312
  8
0
 10
-0.899872
 20
-27.5533
 30
0.0
 11
-0.899872
 21
-27.5489
 31
0.0
  0
LINE
  5
313
  8
0
 10
-1.44638
 20
-6.33702
 30
0.0
 11
-3.25
 21
-5.62915
 31
0.0
  0
LINE
  5
314
  8
0
 10
-3.25
 20
-5.62915
 30
0.0
 11
-4.76483
 21
-4.42111
 31
0.0
  0
LINE
  5
315
  8
0
 10
-4.76483
 20
-4.42111
 30
0.0
 11
-5.85629
 21
-2.82024
 31
0.0
  0
LINE
  5
316
  8
0
 10
-5.85629
 20
-2.82024
 30
0.0
 11
-6.4274
 21
-0.968765
 31
0.0
  0
LINE
  5
317
  8
0
 10
-6.4274
 20
-0.968765
 30
0.0
 11
-6.4274
 21
0.968765
 31
0.0
  0
LINE
  5
318
  8
0
 10
-6.4274
 20
0.968765
 30
0.0
 11
-5.85629
 21
2.82024
 31
0.0
  0
LINE
  5
319
  8
0
 10
-5.85629
 20
2.82024
 30
0.0
 11
-4.76483
 21
4.42111
 31
0.0
  0
LINE
  5
31A
  8
0
 10
-4.76483
 20
4.42111
 30
0.0
 11
-3.25
 21
5.62915
 31
0.0
  0
LINE
  5
31B
  8
0
 10
-3.25
 20
5.62915
 30
0.0
 11
-1.44638
 21
6.33702
 31
0.0
  0
LINE
  5
31C
  8
0
 10
-1.44638
 20
6.33702
 30
0.0
 11
0.485733
 21
6.48181
 31
0.0
  0
LINE
  5
31D
  8
0
 10
0.485733
 20
6.48181
 30
0.0
 11
2.37471
 21
6.05067
 31
0.0
  0
LINE
  5
31E
  8
0
 10
2.37471
 20
6.05067
 30
0.0
 11
4.05267
 21
5.08189
 31
0.0
  0
LINE
  5
31F
  8
0
 10
4.05267
 20
5.08189
 30
0.0
 11
5.37054
 21
3.66158
 31
0.0
  0
LINE
  5
320
  8
0
 10
5.37054
 20
3.66158
 30
0.0
 11
6.21121
 21
1.91589
 31
0.0
  0
LINE
  5
321
  8
0
 10
6.21121
 20
1.91589
 30
0.0
 11
6.5
 21
0.0
 31
0.0
  0
LINE
  5
322
  8
0
 10
6.5
 20
0.0
 30
0.0
 11
6.21121
 21
-1.91589
 31
0.0
  0
LINE
  5
323
  8
0
 10
6.21121
 20
-1.91589
 30
0.0
 11
5.37054
 21
-3.66158
 31
0.0
  0
LINE
  5
324
  8
0
 10
5.37054
 20
-3.66158
 30
0.0
 11
4.05267
 21
-5.08189
 31
0.0
  0
LINE
  5
325
  8
0
 10
4.05267
 20
-5.08189
 30
0.0
 11
2.37471
 21
-6.05067
 31
0.0
  0
LINE
  5
326
  8
0
 10
2.37471
 20
-6.05067
 30
0.0
 11
0.485733
 21
-6.48181
 31
0.0
  0
LINE
  5
327
  8
0
 10
0.485733
 20
-6.48181
 30
0.0
 11
-1.44638
 21
-6.33702
 31
0.0
  0
LINE
  5
328
  8
0
 10
58.8768
 20
-27.2305
 30
0.0
 11
59.3922
 21
-26.8861
 31
0.0
  0
LINE
  5
329
  8
0
 10
59.3922
 20
-26.8861
 30
0.0
 11
60.0002
 21
-26.7651
 31
0.0
  0
LINE
  5
32A
  8
0
 10
60.0002
 20
-26.7651
 30
0.0
 11
60.6082
 21
-26.8861
 31
0.0
  0
LINE
  5
32B
  8
0
 10
60.6082
 20
-26.8861
 30
0.0
 11
61.1236
 21
-27.2305
 31
0.0
  0
LINE
  5
32C
  8
0
 10
61.1236
 20
-27.2305
 30
0.0
 11
61.1623
 21
-27.2884
 31
0.0
  0
LINE
  5
32D
  8
0
 10
61.1623
 20
-27.2884
 30
0.0
 11
64.3539
 21
-26.61
 31
0.0
  0
LINE
  5
32E
  8
0
 10
64.3539
 20
-26.61
 30
0.0
 11
64.4978
 21
-26.2494
 31
0.0
  0
LINE
  5
32F
  8
0
 10
64.4978
 20
-26.2494
 30
0.0
 11
64.9303
 21
-25.8053
 31
0.0
  0
LINE
  5
330
  8
0
 10
64.9303
 20
-25.8053
 30
0.0
 11
65.4999
 21
-25.5606
 31
0.0
  0
LINE
  5
331
  8
0
 10
65.4999
 20
-25.5606
 30
0.0
 11
66.1197
 21
-25.5525
 31
0.0
  0
LINE
  5
332
  8
0
 10
66.1197
 20
-25.5525
 30
0.0
 11
66.6955
 21
-25.7822
 31
0.0
  0
LINE
  5
333
  8
0
 10
66.6955
 20
-25.7822
 30
0.0
 11
66.7454
 21
-25.8308
 31
0.0
  0
LINE
  5
334
  8
0
 10
66.7454
 20
-25.8308
 30
0.0
 11
69.7262
 21
-24.5037
 31
0.0
  0
LINE
  5
335
  8
0
 10
69.7262
 20
-24.5037
 30
0.0
 11
69.7919
 21
-24.1211
 31
0.0
  0
LINE
  5
336
  8
0
 10
69.7919
 20
-24.1211
 30
0.0
 11
70.1227
 21
-23.5968
 31
0.0
  0
LINE
  5
337
  8
0
 10
70.1227
 20
-23.5968
 30
0.0
 11
70.6289
 21
-23.239
 31
0.0
  0
LINE
  5
338
  8
0
 10
70.6289
 20
-23.239
 30
0.0
 11
71.2336
 21
-23.1022
 31
0.0
  0
LINE
  5
339
  8
0
 10
71.2336
 20
-23.1022
 30
0.0
 11
71.8445
 21
-23.2072
 31
0.0
  0
LINE
  5
33A
  8
0
 10
71.8445
 20
-23.2072
 30
0.0
 11
71.9034
 21
-23.2444
 31
0.0
  0
LINE
  5
33B
  8
0
 10
71.9034
 20
-23.2444
 30
0.0
 11
74.5431
 21
-21.3265
 31
0.0
  0
LINE
  5
33C
  8
0
 10
74.5431
 20
-21.3265
 30
0.0
 11
74.5279
 21
-20.9386
 31
0.0
  0
LINE
  5
33D
  8
0
 10
74.5279
 20
-20.9386
 30
0.0
 11
74.7424
 21
-20.357
 31
0.0
  0
LINE
  5
33E
  8
0
 10
74.7424
 20
-20.357
 30
0.0
 11
75.1632
 21
-19.9018
 31
0.0
  0
LINE
  5
33F
  8
0
 10
75.1632
 20
-19.9018
 30
0.0
 11
75.7262
 21
-19.6422
 31
0.0
  0
LINE
  5
340
  8
0
 10
75.7262
 20
-19.6422
 30
0.0
 11
76.3456
 21
-19.6179
 31
0.0
  0
LINE
  5
341
  8
0
 10
76.3456
 20
-19.6179
 30
0.0
 11
76.4109
 21
-19.642
 31
0.0
  0
LINE
  5
342
  8
0
 10
76.4109
 20
-19.642
 30
0.0
 11
78.5942
 21
-17.2172
 31
0.0
  0
LINE
  5
343
  8
0
 10
78.5942
 20
-17.2172
 30
0.0
 11
78.4987
 21
-16.8409
 31
0.0
  0
LINE
  5
344
  8
0
 10
78.4987
 20
-16.8409
 30
0.0
 11
78.5876
 21
-16.2274
 31
0.0
  0
LINE
  5
345
  8
0
 10
78.5876
 20
-16.2274
 30
0.0
 11
78.9046
 21
-15.6947
 31
0.0
  0
LINE
  5
346
  8
0
 10
78.9046
 20
-15.6947
 30
0.0
 11
79.4013
 21
-15.3238
 31
0.0
  0
LINE
  5
347
  8
0
 10
79.4013
 20
-15.3238
 30
0.0
 11
80.0021
 21
-15.1712
 31
0.0
  0
LINE
  5
348
  8
0
 10
80.0021
 20
-15.1712
 30
0.0
 11
80.071
 21
-15.1812
 31
0.0
  0
LINE
  5
349
  8
0
 10
80.071
 20
-15.1812
 30
0.0
 11
81.7025
 21
-12.3555
 31
0.0
  0
LINE
  5
34A
  8
0
 10
81.7025
 20
-12.3555
 30
0.0
 11
81.5307
 21
-12.0073
 31
0.0
  0
LINE
  5
34B
  8
0
 10
81.5307
 20
-12.0073
 30
0.0
 11
81.4902
 21
-11.3887
 31
0.0
  0
LINE
  5
34C
  8
0
 10
81.4902
 20
-11.3887
 30
0.0
 11
81.6895
 21
-10.8017
 31
0.0
  0
LINE
  5
34D
  8
0
 10
81.6895
 20
-10.8017
 30
0.0
 11
82.0982
 21
-10.3356
 31
0.0
  0
LINE
  5
34E
  8
0
 10
82.0982
 20
-10.3356
 30
0.0
 11
82.6541
 21
-10.0615
 31
0.0
  0
LINE
  5
34F
  8
0
 10
82.6541
 20
-10.0615
 30
0.0
 11
82.7237
 21
-10.0569
 31
0.0
  0
LINE
  5
350
  8
0
 10
82.7237
 20
-10.0569
 30
0.0
 11
83.7319
 21
-6.95375
 31
0.0
  0
LINE
  5
351
  8
0
 10
83.7319
 20
-6.95375
 30
0.0
 11
83.4916
 21
-6.64885
 31
0.0
  0
LINE
  5
352
  8
0
 10
83.4916
 20
-6.64885
 30
0.0
 11
83.3233
 21
-6.05222
 31
0.0
  0
LINE
  5
353
  8
0
 10
83.3233
 20
-6.05222
 30
0.0
 11
83.3962
 21
-5.43661
 31
0.0
  0
LINE
  5
354
  8
0
 10
83.3962
 20
-5.43661
 30
0.0
 11
83.6991
 21
-4.89575
 31
0.0
  0
LINE
  5
355
  8
0
 10
83.6991
 20
-4.89575
 30
0.0
 11
84.1859
 21
-4.51198
 31
0.0
  0
LINE
  5
356
  8
0
 10
84.1859
 20
-4.51198
 30
0.0
 11
84.2529
 21
-4.49307
 31
0.0
  0
LINE
  5
357
  8
0
 10
84.2529
 20
-4.49307
 30
0.0
 11
84.594
 21
-1.24809
 31
0.0
  0
LINE
  5
358
  8
0
 10
84.594
 20
-1.24809
 30
0.0
 11
84.2955
 21
-0.999817
 31
0.0
  0
LINE
  5
359
  8
0
 10
84.2955
 20
-0.999817
 30
0.0
 11
84.0069
 21
-0.451218
 31
0.0
  0
LINE
  5
35A
  8
0
 10
84.0069
 20
-0.451218
 30
0.0
 11
83.9501
 21
0.166061
 31
0.0
  0
LINE
  5
35B
  8
0
 10
83.9501
 20
0.166061
 30
0.0
 11
84.134
 21
0.758072
 31
0.0
  0
LINE
  5
35C
  8
0
 10
84.134
 20
0.758072
 30
0.0
 11
84.5303
 21
1.23468
 31
0.0
  0
LINE
  5
35D
  8
0
 10
84.5303
 20
1.23468
 30
0.0
 11
84.592
 21
1.26712
 31
0.0
  0
LINE
  5
35E
  8
0
 10
84.592
 20
1.26712
 30
0.0
 11
84.2509
 21
4.5121
 31
0.0
  0
LINE
  5
35F
  8
0
 10
84.2509
 20
4.5121
 30
0.0
 11
83.9073
 21
4.69289
 31
0.0
  0
LINE
  5
360
  8
0
 10
83.9073
 20
4.69289
 30
0.0
 11
83.5109
 21
5.16948
 31
0.0
  0
LINE
  5
361
  8
0
 10
83.5109
 20
5.16948
 30
0.0
 11
83.3271
 21
5.76151
 31
0.0
  0
LINE
  5
362
  8
0
 10
83.3271
 20
5.76151
 30
0.0
 11
83.3838
 21
6.3788
 31
0.0
  0
LINE
  5
363
  8
0
 10
83.3838
 20
6.3788
 30
0.0
 11
83.6725
 21
6.9274
 31
0.0
  0
LINE
  5
364
  8
0
 10
83.6725
 20
6.9274
 30
0.0
 11
83.726
 21
6.97194
 31
0.0
  0
LINE
  5
365
  8
0
 10
83.726
 20
6.97194
 30
0.0
 11
82.7177
 21
10.0751
 31
0.0
  0
LINE
  5
366
  8
0
 10
82.7177
 20
10.0751
 30
0.0
 11
82.3441
 21
10.1805
 31
0.0
  0
LINE
  5
367
  8
0
 10
82.3441
 20
10.1805
 30
0.0
 11
81.8573
 21
10.5643
 31
0.0
  0
LINE
  5
368
  8
0
 10
81.8573
 20
10.5643
 30
0.0
 11
81.5544
 21
11.1051
 31
0.0
  0
LINE
  5
369
  8
0
 10
81.5544
 20
11.1051
 30
0.0
 11
81.4815
 21
11.7207
 31
0.0
  0
LINE
  5
36A
  8
0
 10
81.4815
 20
11.7207
 30
0.0
 11
81.6498
 21
12.3174
 31
0.0
  0
LINE
  5
36B
  8
0
 10
81.6498
 20
12.3174
 30
0.0
 11
81.6929
 21
12.3721
 31
0.0
  0
LINE
  5
36C
  8
0
 10
81.6929
 20
12.3721
 30
0.0
 11
80.0615
 21
15.1978
 31
0.0
  0
LINE
  5
36D
  8
0
 10
80.0615
 20
15.1978
 30
0.0
 11
79.674
 21
15.2232
 31
0.0
  0
LINE
  5
36E
  8
0
 10
79.674
 20
15.2232
 30
0.0
 11
79.1181
 21
15.4973
 31
0.0
  0
LINE
  5
36F
  8
0
 10
79.1181
 20
15.4973
 30
0.0
 11
78.7093
 21
15.9634
 31
0.0
  0
LINE
  5
370
  8
0
 10
78.7093
 20
15.9634
 30
0.0
 11
78.5101
 21
16.5504
 31
0.0
  0
LINE
  5
371
  8
0
 10
78.5101
 20
16.5504
 30
0.0
 11
78.5506
 21
17.169
 31
0.0
  0
LINE
  5
372
  8
0
 10
78.5506
 20
17.169
 30
0.0
 11
78.5814
 21
17.2315
 31
0.0
  0
LINE
  5
373
  8
0
 10
78.5814
 20
17.2315
 30
0.0
 11
76.3981
 21
19.6562
 31
0.0
  0
LINE
  5
374
  8
0
 10
76.3981
 20
19.6562
 30
0.0
 11
76.0139
 21
19.6005
 31
0.0
  0
LINE
  5
375
  8
0
 10
76.0139
 20
19.6005
 30
0.0
 11
75.4131
 21
19.7531
 31
0.0
  0
LINE
  5
376
  8
0
 10
75.4131
 20
19.7531
 30
0.0
 11
74.9164
 21
20.124
 31
0.0
  0
LINE
  5
377
  8
0
 10
74.9164
 20
20.124
 30
0.0
 11
74.5994
 21
20.6568
 31
0.0
  0
LINE
  5
378
  8
0
 10
74.5994
 20
20.6568
 30
0.0
 11
74.5105
 21
21.2702
 31
0.0
  0
LINE
  5
379
  8
0
 10
74.5105
 20
21.2702
 30
0.0
 11
74.5276
 21
21.3378
 31
0.0
  0
LINE
  5
37A
  8
0
 10
74.5276
 20
21.3378
 30
0.0
 11
71.8879
 21
23.2556
 31
0.0
  0
LINE
  5
37B
  8
0
 10
71.8879
 20
23.2556
 30
0.0
 11
71.5237
 21
23.1212
 31
0.0
  0
LINE
  5
37C
  8
0
 10
71.5237
 20
23.1212
 30
0.0
 11
70.9043
 21
23.1456
 31
0.0
  0
LINE
  5
37D
  8
0
 10
70.9043
 20
23.1456
 30
0.0
 11
70.3413
 21
23.4051
 31
0.0
  0
LINE
  5
37E
  8
0
 10
70.3413
 20
23.4051
 30
0.0
 11
69.9205
 21
23.8603
 31
0.0
  0
LINE
  5
37F
  8
0
 10
69.9205
 20
23.8603
 30
0.0
 11
69.7059
 21
24.4419
 31
0.0
  0
LINE
  5
380
  8
0
 10
69.7059
 20
24.4419
 30
0.0
 11
69.7087
 21
24.5115
 31
0.0
  0
LINE
  5
381
  8
0
 10
69.7087
 20
24.5115
 30
0.0
 11
66.7279
 21
25.8386
 31
0.0
  0
LINE
  5
382
  8
0
 10
66.7279
 20
25.8386
 30
0.0
 11
66.3996
 21
25.6315
 31
0.0
  0
LINE
  5
383
  8
0
 10
66.3996
 20
25.6315
 30
0.0
 11
65.7886
 21
25.5265
 31
0.0
  0
LINE
  5
384
  8
0
 10
65.7886
 20
25.5265
 30
0.0
 11
65.184
 21
25.6633
 31
0.0
  0
LINE
  5
385
  8
0
 10
65.184
 20
25.6633
 30
0.0
 11
64.6778
 21
26.021
 31
0.0
  0
LINE
  5
386
  8
0
 10
64.6778
 20
26.021
 30
0.0
 11
64.347
 21
26.5453
 31
0.0
  0
LINE
  5
387
  8
0
 10
64.347
 20
26.5453
 30
0.0
 11
64.3352
 21
26.614
 31
0.0
  0
LINE
  5
388
  8
0
 10
64.3352
 20
26.614
 30
0.0
 11
61.1436
 21
27.2924
 31
0.0
  0
LINE
  5
389
  8
0
 10
61.1436
 20
27.2924
 30
0.0
 11
60.8655
 21
27.0214
 31
0.0
  0
LINE
  5
38A
  8
0
 10
60.8655
 20
27.0214
 30
0.0
 11
60.2897
 21
26.7917
 31
0.0
  0
LINE
  5
38B
  8
0
 10
60.2897
 20
26.7917
 30
0.0
 11
59.6699
 21
26.7998
 31
0.0
  0
LINE
  5
38C
  8
0
 10
59.6699
 20
26.7998
 30
0.0
 11
59.1003
 21
27.0445
 31
0.0
  0
LINE
  5
38D
  8
0
 10
59.1003
 20
27.0445
 30
0.0
 11
58.6678
 21
27.4886
 31
0.0
  0
LINE
  5
38E
  8
0
 10
58.6678
 20
27.4886
 30
0.0
 11
58.642
 21
27.5533
 31
0.0
  0
LINE
  5
38F
  8
0
 10
58.642
 20
27.5533
 30
0.0
 11
55.3791
 21
27.5533
 31
0.0
  0
LINE
  5
390
  8
0
 10
55.3791
 20
27.5533
 30
0.0
 11
55.1634
 21
27.2305
 31
0.0
  0
LINE
  5
391
  8
0
 10
55.1634
 20
27.2305
 30
0.0
 11
54.648
 21
26.8861
 31
0.0
  0
LINE
  5
392
  8
0
 10
54.648
 20
26.8861
 30
0.0
 11
54.04
 21
26.7651
 31
0.0
  0
LINE
  5
393
  8
0
 10
54.04
 20
26.7651
 30
0.0
 11
53.432
 21
26.8861
 31
0.0
  0
LINE
  5
394
  8
0
 10
53.432
 20
26.8861
 30
0.0
 11
52.9166
 21
27.2305
 31
0.0
  0
LINE
  5
395
  8
0
 10
52.9166
 20
27.2305
 30
0.0
 11
52.8779
 21
27.2884
 31
0.0
  0
LINE
  5
396
  8
0
 10
52.8779
 20
27.2884
 30
0.0
 11
49.6863
 21
26.61
 31
0.0
  0
LINE
  5
397
  8
0
 10
49.6863
 20
26.61
 30
0.0
 11
49.5424
 21
26.2494
 31
0.0
  0
LINE
  5
398
  8
0
 10
49.5424
 20
26.2494
 30
0.0
 11
49.1099
 21
25.8053
 31
0.0
  0
LINE
  5
399
  8
0
 10
49.1099
 20
25.8053
 30
0.0
 11
48.5403
 21
25.5606
 31
0.0
  0
LINE
  5
39A
  8
0
 10
48.5403
 20
25.5606
 30
0.0
 11
47.9205
 21
25.5525
 31
0.0
  0
LINE
  5
39B
  8
0
 10
47.9205
 20
25.5525
 30
0.0
 11
47.3447
 21
25.7822
 31
0.0
  0
LINE
  5
39C
  8
0
 10
47.3447
 20
25.7822
 30
0.0
 11
47.2948
 21
25.8308
 31
0.0
  0
LINE
  5
39D
  8
0
 10
47.2948
 20
25.8308
 30
0.0
 11
44.3141
 21
24.5037
 31
0.0
  0
LINE
  5
39E
  8
0
 10
44.3141
 20
24.5037
 30
0.0
 11
44.2483
 21
24.1211
 31
0.0
  0
LINE
  5
39F
  8
0
 10
44.2483
 20
24.1211
 30
0.0
 11
43.9175
 21
23.5968
 31
0.0
  0
LINE
  5
3A0
  8
0
 10
43.9175
 20
23.5968
 30
0.0
 11
43.4113
 21
23.239
 31
0.0
  0
LINE
  5
3A1
  8
0
 10
43.4113
 20
23.239
 30
0.0
 11
42.8067
 21
23.1022
 31
0.0
  0
LINE
  5
3A2
  8
0
 10
42.8067
 20
23.1022
 30
0.0
 11
42.1957
 21
23.2072
 31
0.0
  0
LINE
  5
3A3
  8
0
 10
42.1957
 20
23.2072
 30
0.0
 11
42.1368
 21
23.2444
 31
0.0
  0
LINE
  5
3A4
  8
0
 10
42.1368
 20
23.2444
 30
0.0
 11
39.4971
 21
21.3265
 31
0.0
  0
LINE
  5
3A5
  8
0
 10
39.4971
 20
21.3265
 30
0.0
 11
39.5123
 21
20.9386
 31
0.0
  0
LINE
  5
3A6
  8
0
 10
39.5123
 20
20.9386
 30
0.0
 11
39.2978
 21
20.357
 31
0.0
  0
LINE
  5
3A7
  8
0
 10
39.2978
 20
20.357
 30
0.0
 11
38.877
 21
19.9018
 31
0.0
  0
LINE
  5
3A8
  8
0
 10
38.877
 20
19.9018
 30
0.0
 11
38.314
 21
19.6422
 31
0.0
  0
LINE
  5
3A9
  8
0
 10
38.314
 20
19.6422
 30
0.0
 11
37.6946
 21
19.6179
 31
0.0
  0
LINE
  5
3AA
  8
0
 10
37.6946
 20
19.6179
 30
0.0
 11
37.6293
 21
19.642
 31
0.0
  0
LINE
  5
3AB
  8
0
 10
37.6293
 20
19.642
 30
0.0
 11
35.446
 21
17.2172
 31
0.0
  0
LINE
  5
3AC
  8
0
 10
35.446
 20
17.2172
 30
0.0
 11
35.5415
 21
16.8409
 31
0.0
  0
LINE
  5
3AD
  8
0
 10
35.5415
 20
16.8409
 30
0.0
 11
35.4526
 21
16.2274
 31
0.0
  0
LINE
  5
3AE
  8
0
 10
35.4526
 20
16.2274
 30
0.0
 11
35.1357
 21
15.6947
 31
0.0
  0
LINE
  5
3AF
  8
0
 10
35.1357
 20
15.6947
 30
0.0
 11
34.639
 21
15.3238
 31
0.0
  0
LINE
  5
3B0
  8
0
 10
34.639
 20
15.3238
 30
0.0
 11
34.0381
 21
15.1712
 31
0.0
  0
LINE
  5
3B1
  8
0
 10
34.0381
 20
15.1712
 30
0.0
 11
33.9692
 21
15.1812
 31
0.0
  0
LINE
  5
3B2
  8
0
 10
33.9692
 20
15.1812
 30
0.0
 11
32.3378
 21
12.3555
 31
0.0
  0
LINE
  5
3B3
  8
0
 10
32.3378
 20
12.3555
 30
0.0
 11
32.5095
 21
12.0073
 31
0.0
  0
LINE
  5
3B4
  8
0
 10
32.5095
 20
12.0073
 30
0.0
 11
32.55
 21
11.3887
 31
0.0
  0
LINE
  5
3B5
  8
0
 10
32.55
 20
11.3887
 30
0.0
 11
32.3508
 21
10.8017
 31
0.0
  0
LINE
  5
3B6
  8
0
 10
32.3508
 20
10.8017
 30
0.0
 11
31.942
 21
10.3356
 31
0.0
  0
LINE
  5
3B7
  8
0
 10
31.942
 20
10.3356
 30
0.0
 11
31.3861
 21
10.0615
 31
0.0
  0
LINE
  5
3B8
  8
0
 10
31.3861
 20
10.0615
 30
0.0
 11
31.3166
 21
10.0569
 31
0.0
  0
LINE
  5
3B9
  8
0
 10
31.3166
 20
10.0569
 30
0.0
 11
30.3083
 21
6.95375
 31
0.0
  0
LINE
  5
3BA
  8
0
 10
30.3083
 20
6.95375
 30
0.0
 11
30.5486
 21
6.64885
 31
0.0
  0
LINE
  5
3BB
  8
0
 10
30.5486
 20
6.64885
 30
0.0
 11
30.7169
 21
6.05222
 31
0.0
  0
LINE
  5
3BC
  8
0
 10
30.7169
 20
6.05222
 30
0.0
 11
30.6441
 21
5.43661
 31
0.0
  0
LINE
  5
3BD
  8
0
 10
30.6441
 20
5.43661
 30
0.0
 11
30.3412
 21
4.89575
 31
0.0
  0
LINE
  5
3BE
  8
0
 10
30.3412
 20
4.89575
 30
0.0
 11
29.8543
 21
4.51198
 31
0.0
  0
LINE
  5
3BF
  8
0
 10
29.8543
 20
4.51198
 30
0.0
 11
29.7873
 21
4.49307
 31
0.0
  0
LINE
  5
3C0
  8
0
 10
29.7873
 20
4.49307
 30
0.0
 11
29.4462
 21
1.24809
 31
0.0
  0
LINE
  5
3C1
  8
0
 10
29.4462
 20
1.24809
 30
0.0
 11
29.7447
 21
0.999817
 31
0.0
  0
LINE
  5
3C2
  8
0
 10
29.7447
 20
0.999817
 30
0.0
 11
30.0334
 21
0.451218
 31
0.0
  0
LINE
  5
3C3
  8
0
 10
30.0334
 20
0.451218
 30
0.0
 11
30.0901
 21
-0.166061
 31
0.0
  0
LINE
  5
3C4
  8
0
 10
30.0901
 20
-0.166061
 30
0.0
 11
29.9063
 21
-0.758072
 31
0.0
  0
LINE
  5
3C5
  8
0
 10
29.9063
 20
-0.758072
 30
0.0
 11
29.5099
 21
-1.23468
 31
0.0
  0
LINE
  5
3C6
  8
0
 10
29.5099
 20
-1.23468
 30
0.0
 11
29.4482
 21
-1.26712
 31
0.0
  0
LINE
  5
3C7
  8
0
 10
29.4482
 20
-1.26712
 30
0.0
 11
29.7893
 21
-4.5121
 31
0.0
  0
LINE
  5
3C8
  8
0
 10
29.7893
 20
-4.5121
 30
0.0
 11
30.1329
 21
-4.69289
 31
0.0
  0
LINE
  5
3C9
  8
0
 10
30.1329
 20
-4.69289
 30
0.0
 11
30.5293
 21
-5.16948
 31
0.0
  0
LINE
  5
3CA
  8
0
 10
30.5293
 20
-5.16948
 30
0.0
 11
30.7131
 21
-5.76151
 31
0.0
  0
LINE
  5
3CB
  8
0
 10
30.7131
 20
-5.76151
 30
0.0
 11
30.6564
 21
-6.3788
 31
0.0
  0
LINE
  5
3CC
  8
0
 10
30.6564
 20
-6.3788
 30
0.0
 11
30.3678
 21
-6.9274
 31
0.0
  0
LINE
  5
3CD
  8
0
 10
30.3678
 20
-6.9274
 30
0.0
 11
30.3142
 21
-6.97194
 31
0.0
  0
LINE
  5
3CE
  8
0
 10
30.3142
 20
-6.97194
 30
0.0
 11
31.3225
 21
-10.0751
 31
0.0
  0
LINE
  5
3CF
  8
0
 10
31.3225
 20
-10.0751
 30
0.0
 11
31.6962
 21
-10.1805
 31
0.0
  0
LINE
  5
3D0
  8
0
 10
31.6962
 20
-10.1805
 30
0.0
 11
32.183
 21
-10.5643
 31
0.0
  0
LINE
  5
3D1
  8
0
 10
32.183
 20
-10.5643
 30
0.0
 11
32.4859
 21
-11.1051
 31
0.0
  0
LINE
  5
3D2
  8
0
 10
32.4859
 20
-11.1051
 30
0.0
 11
32.5587
 21
-11.7207
 31
0.0
  0
LINE
  5
3D3
  8
0
 10
32.5587
 20
-11.7207
 30
0.0
 11
32.3905
 21
-12.3174
 31
0.0
  0
LINE
  5
3D4
  8
0
 10
32.3905
 20
-12.3174
 30
0.0
 11
32.3473
 21
-12.3721
 31
0.0
  0
LINE
  5
3D5
  8
0
 10
32.3473
 20
-12.3721
 30
0.0
 11
33.9788
 21
-15.1978
 31
0.0
  0
LINE
  5
3D6
  8
0
 10
33.9788
 20
-15.1978
 30
0.0
 11
34.3662
 21
-15.2232
 31
0.0
  0
LINE
  5
3D7
  8
0
 10
34.3662
 20
-15.2232
 30
0.0
 11
34.9221
 21
-15.4973
 31
0.0
  0
LINE
  5
3D8
  8
0
 10
34.9221
 20
-15.4973
 30
0.0
 11
35.3309
 21
-15.9634
 31
0.0
  0
LINE
  5
3D9
  8
0
 10
35.3309
 20
-15.9634
 30
0.0
 11
35.5301
 21
-16.5504
 31
0.0
  0
LINE
  5
3DA
  8
0
 10
35.5301
 20
-16.5504
 30
0.0
 11
35.4896
 21
-17.169
 31
0.0
  0
LINE
  5
3DB
  8
0
 10
35.4896
 20
-17.169
 30
0.0
 11
35.4588
 21
-17.2315
 31
0.0
  0
LINE
  5
3DC
  8
0
 10
35.4588
 20
-17.2315
 30
0.0
 11
37.6421
 21
-19.6562
 31
0.0
  0
LINE
  5
3DD
  8
0
 10
37.6421
 20
-19.6562
 30
0.0
 11
38.0263
 21
-19.6005
 31
0.0
  0
LINE
  5
3DE
  8
0
 10
38.0263
 20
-19.6005
 30
0.0
 11
38.6271
 21
-19.7531
 31
0.0
  0
LINE
  5
3DF
  8
0
 10
38.6271
 20
-19.7531
 30
0.0
 11
39.1238
 21
-20.124
 31
0.0
  0
LINE
  5
3E0
  8
0
 10
39.1238
 20
-20.124
 30
0.0
 11
39.4408
 21
-20.6568
 31
0.0
  0
LINE
  5
3E1
  8
0
 10
39.4408
 20
-20.6568
 30
0.0
 11
39.5297
 21
-21.2702
 31
0.0
  0
LINE
  5
3E2
  8
0
 10
39.5297
 20
-21.2702
 30
0.0
 11
39.5126
 21
-21.3378
 31
0.0
  0
LINE
  5
3E3
  8
0
 10
39.5126
 20
-21.3378
 30
0.0
 11
42.1523
 21
-23.2556
 31
0.0
  0
LINE
  5
3E4
  8
0
 10
42.1523
 20
-23.2556
 30
0.0
 11
42.5165
 21
-23.1212
 31
0.0
  0
LINE
  5
3E5
  8
0
 10
42.5165
 20
-23.1212
 30
0.0
 11
43.136
 21
-23.1456
 31
0.0
  0
LINE
  5
3E6
  8
0
 10
43.136
 20
-23.1456
 30
0.0
 11
43.6989
 21
-23.4051
 31
0.0
  0
LINE
  5
3E7
  8
0
 10
43.6989
 20
-23.4051
 30
0.0
 11
44.1197
 21
-23.8603
 31
0.0
  0
LINE
  5
3E8
  8
0
 10
44.1197
 20
-23.8603
 30
0.0
 11
44.3343
 21
-24.4419
 31
0.0
  0
LINE
  5
3E9
  8
0
 10
44.3343
 20
-24.4419
 30
0.0
 11
44.3315
 21
-24.5115
 31
0.0
  0
LINE
  5
3EA
  8
0
 10
44.3315
 20
-24.5115
 30
0.0
 11
47.3123
 21
-25.8386
 31
0.0
  0
LINE
  5
3EB
  8
0
 10
47.3123
 20
-25.8386
 30
0.0
 11
47.6407
 21
-25.6315
 31
0.0
  0
LINE
  5
3EC
  8
0
 10
47.6407
 20
-25.6315
 30
0.0
 11
48.2516
 21
-25.5265
 31
0.0
  0
LINE
  5
3ED
  8
0
 10
48.2516
 20
-25.5265
 30
0.0
 11
48.8562
 21
-25.6633
 31
0.0
  0
LINE
  5
3EE
  8
0
 10
48.8562
 20
-25.6633
 30
0.0
 11
49.3625
 21
-26.021
 31
0.0
  0
LINE
  5
3EF
  8
0
 10
49.3625
 20
-26.021
 30
0.0
 11
49.6932
 21
-26.5453
 31
0.0
  0
LINE
  5
3F0
  8
0
 10
49.6932
 20
-26.5453
 30
0.0
 11
49.705
 21
-26.614
 31
0.0
  0
LINE
  5
3F1
  8
0
 10
49.705
 20
-26.614
 30
0.0
 11
52.8966
 21
-27.2924
 31
0.0
  0
LINE
  5
3F2
  8
0
 10
52.8966
 20
-27.2924
 30
0.0
 11
53.1747
 21
-27.0214
 31
0.0
  0
LINE
  5
3F3
  8
0
 10
53.1747
 20
-27.0214
 30
0.0
 11
53.7505
 21
-26.7917
 31
0.0
  0
LINE
  5
3F4
  8
0
 10
53.7505
 20
-26.7917
 30
0.0
 11
54.3703
 21
-26.7998
 31
0.0
  0
LINE
  5
3F5
  8
0
 10
54.3703
 20
-26.7998
 30
0.0
 11
54.9399
 21
-27.0445
 31
0.0
  0
LINE
  5
3F6
  8
0
 10
54.9399
 20
-27.0445
 30
0.0
 11
55.3724
 21
-27.4886
 31
0.0
  0
LINE
  5
3F7
  8
0
 10
55.3724
 20
-27.4886
 30
0.0
 11
55.3982
 21
-27.5533
 31
0.0
  0
LINE
  5
3F8
  8
0
 10
55.3982
 20
-27.5533
 30
0.0
 11
58.6611
 21
-27.5533
 31
0.0
  0
LINE
  5
3F9
  8
0
 10
58.6611
 20
-27.5533
 30
0.0
 11
58.8768
 21
-27.2305
 31
0.0
  0
LINE
  5
3FA
  8
0
 10
55.5737
 20
-6.33702
 30
0.0
 11
53.7701
 21
-5.62915
 31
0.0
  0
LINE
  5
3FB
  8
0
 10
53.7701
 20
-5.62915
 30
0.0
 11
52.2553
 21
-4.42111
 31
0.0
  0
LINE
  5
3FC
  8
0
 10
52.2553
 20
-4.42111
 30
0.0
 11
51.1638
 21
-2.82024
 31
0.0
  0
LINE
  5
3FD
  8
0
 10
51.1638
 20
-2.82024
 30
0.0
 11
50.5927
 21
-0.968765
 31
0.0
  0
LINE
  5
3FE
  8
0
 10
50.5927
 20
-0.968765
 30
0.0
 11
50.5927
 21
0.968765
 31
0.0
  0
LINE
  5
3FF
  8
0
 10
50.5927
 20
0.968765
 30
0.0
 11
51.1638
 21
2.82024
 31
0.0
  0
LINE
  5
400
  8
0
 10
51.1638
 20
2.82024
 30
0.0
 11
52.2553
 21
4.42111
 31
0.0
  0
LINE
  5
401
  8
0
 10
52.2553
 20
4.42111
 30
0.0
 11
53.7701
 21
5.62915
 31
0.0
  0
LINE
  5
402
  8
0
 10
53.7701
 20
5.62915
 30
0.0
 11
55.5737
 21
6.33702
 31
0.0
  0
LINE
  5
403
  8
0
 10
55.5737
 20
6.33702
 30
0.0
 11
57.5059
 21
6.48181
 31
0.0
  0
LINE
  5
404
  8
0
 10
57.5059
 20
6.48181
 30
0.0
 11
59.3948
 21
6.05067
 31
0.0
  0
LINE
  5
405
  8
0
 10
59.3948
 20
6.05067
 30
0.0
 11
61.0728
 21
5.08189
 31
0.0
  0
LINE
  5
406
  8
0
 10
61.0728
 20
5.08189
 30
0.0
 11
62.3907
 21
3.66158
 31
0.0
  0
LINE
  5
407
  8
0
 10
62.3907
 20
3.66158
 30
0.0
 11
63.2313
 21
1.91589
 31
0.0
  0
LINE
  5
408
  8
0
 10
63.2313
 20
1.91589
 30
0.0
 11
63.5201
 21
0.0
 31
0.0
  0
LINE
  5
409
  8
0
 10
63.5201
 20
0.0
 30
0.0
 11
63.2313
 21
-1.91589
 31
0.0
  0
LINE
  5
40A
  8
0
 10
63.2313
 20
-1.91589
 30
0.0
 11
62.3907
 21
-3.66158
 31
0.0
  0
LINE
  5
40B
  8
0
 10
62.3907
 20
-3.66158
 30
0.0
 11
61.0728
 21
-5.08189
 31
0.0
  0
LINE
  5
40C
  8
0
 10
61.0728
 20
-5.08189
 30
0.0
 11
59.3948
 21
-6.05067
 31
0.0
  0
LINE
  5
40D
  8
0
 10
59.3948
 20
-6.05067
 30
0.0
 11
57.5059
 21
-6.48181
 31
0.0
  0
LINE
  5
40E
  8
0
 10
57.5059
 20
-6.48181
 30
0.0
 11
55.5737
 21
-6.33702
 31
0.0
  0
TEXT
  5
444
  8
0
 62
5
 10
0.0
 20
0.0
 30
0.0
 40
3.0
  1
3
  7
OpenSans-Regular
  0
TEXT
  5
467
  8
0
 62
5
 10
0.0
 20
0.0
 30
0.0
 40
3.0
  1
3
  7
OpenSans-Regular
  0
ENDSEC
  0
EOF
