  0
SECTION
  2
HEADER
  9
$ACADVER
  1
AC1009
  9
$DWGCODEPAGE
  3
ANSI_1252
  9
$INSBASE
 10
0.0
 20
0.0
 30
0.0
  9
$EXTMIN
 10
1e+20
 20
1e+20
 30
1e+20
  9
$EXTMAX
 10
-1e+20
 20
-1e+20
 30
-1e+20
  9
$LIMMIN
 10
0.0
 20
0.0
  9
$LIMMAX
 10
420.0
 20
297.0
  9
$ORTHOMODE
 70
0
  9
$REGENMODE
 70
1
  9
$FILLMODE
 70
1
  9
$DRAGMODE
 70
2
  9
$QTEXTMODE
 70
0
  9
$MIRRTEXT
 70
1
  9
$OSMODE
 70
20583
  9
$LTSCALE
 40
1.0
  9
$ATTMODE
 70
1
  9
$TEXTSIZE
 40
2.5
  9
$TRACEWID
 40
1.0
  9
$TEXTSTYLE
  7
Standard
  9
$CLAYER
  8
0
  9
$CELTYPE
  6
ByLayer
  9
$CECOLOR
 62
256
  9
$DIMSCALE
 40
1.0
  9
$DIMASZ
 40
2.5
  9
$DIMEXO
 40
0.625
  9
$DIMDLI
 40
3.75
  9
$DIMRND
 40
0.0
  9
$DIMDLE
 40
0.0
  9
$DIMEXE
 40
1.25
  9
$DIMTP
 40
0.0
  9
$DIMTM
 40
0.0
  9
$DIMTXT
 40
2.5
  9
$DIMCEN
 40
2.5
  9
$DIMTSZ
 40
0.0
  9
$DIMTOL
 70
0
  9
$DIMLIM
 70
0
  9
$DIMTIH
 70
0
  9
$DIMTOH
 70
0
  9
$DIMSE1
 70
0
  9
$DIMSE2
 70
0
  9
$DIMTAD
 70
1
  9
$DIMZIN
 70
8
  9
$DIMBLK
  1

  9
$DIMASO
 70
1
  9
$DIMSHO
 70
1
  9
$DIMPOST
  1

  9
$DIMAPOST
  1

  9
$DIMALT
 70
0
  9
$DIMALTD
 70
3
  9
$DIMALTF
 40
0.03937007874
  9
$DIMLFAC
 40
1.0
  9
$DIMTOFL
 70
1
  9
$DIMTVP
 40
0.0
  9
$DIMTIX
 70
0
  9
$DIMSOXD
 70
0
  9
$DIMSAH
 70
0
  9
$DIMBLK1
  1

  9
$DIMBLK2
  1

  9
$DIMSTYLE
  2
ISO-25
  9
$DIMCLRD
 70
0
  9
$DIMCLRE
 70
0
  9
$DIMCLRT
 70
0
  9
$DIMTFAC
 40
1.0
  9
$DIMGAP
 40
0.625
  9
$COORDS
 70
1
  9
$ATTDIA
 70
0
  9
$ATTREQ
 70
1
  9
$HANDLING
 70
1
  9
$LUNITS
 70
2
  9
$LUPREC
 70
4
  9
$SKETCHINC
 40
1.0
  9
$FILLETRAD
 40
10.0
  9
$AUNITS
 70
0
  9
$AUPREC
 70
2
  9
$MENU
  1
.
  9
$ELEVATION
 40
0.0
  9
$PELEVATION
 40
0.0
  9
$THICKNESS
 40
0.0
  9
$LIMCHECK
 70
0
  9
$CHAMFERA
 40
0.0
  9
$CHAMFERB
 40
0.0
  9
$SKPOLY
 70
0
  9
$TDCREATE
 40
2459987.9453819445
  9
$TDUPDATE
 40
2459987.9453819445
  9
$TDINDWG
 40
0.0
  9
$TDUSRTIMER
 40
0.0
  9
$USRTIMER
 70
1
  9
$ANGBASE
 50
0.0
  9
$ANGDIR
 70
0
  9
$PDMODE
 70
0
  9
$PDSIZE
 40
0.0
  9
$PLINEWID
 40
0.0
  9
$SPLFRAME
 70
0
  9
$SPLINETYPE
 70
6
  9
$SPLINESEGS
 70
8
  9
$HANDSEED
  5
363
  9
$SURFTAB1
 70
6
  9
$SURFTAB2
 70
6
  9
$SURFTYPE
 70
6
  9
$SURFU
 70
6
  9
$SURFV
 70
6
  9
$UCSNAME
  2

  9
$UCSORG
 10
0.0
 20
0.0
 30
0.0
  9
$UCSXDIR
 10
1.0
 20
0.0
 30
0.0
  9
$UCSYDIR
 10
0.0
 20
1.0
 30
0.0
  9
$PUCSNAME
  2

  9
$PUCSORG
 10
0.0
 20
0.0
 30
0.0
  9
$PUCSXDIR
 10
1.0
 20
0.0
 30
0.0
  9
$PUCSYDIR
 10
0.0
 20
1.0
 30
0.0
  9
$USERI1
 70
0
  9
$USERI2
 70
0
  9
$USERI3
 70
0
  9
$USERI4
 70
0
  9
$USERI5
 70
0
  9
$USERR1
 40
0.0
  9
$USERR2
 40
0.0
  9
$USERR3
 40
0.0
  9
$USERR4
 40
0.0
  9
$USERR5
 40
0.0
  9
$WORLDVIEW
 70
1
  9
$SHADEDGE
 70
3
  9
$SHADEDIF
 70
70
  9
$TILEMODE
 70
1
  9
$MAXACTVP
 70
64
  9
$PLIMCHECK
 70
0
  9
$PEXTMIN
 10
1e+20
 20
1e+20
 30
1e+20
  9
$PEXTMAX
 10
-1e+20
 20
-1e+20
 30
-1e+20
  9
$PLIMMIN
 10
0.0
 20
0.0
  9
$PLIMMAX
 10
420.0
 20
297.0
  9
$UNITMODE
 70
0
  9
$VISRETAIN
 70
1
  9
$PLINEGEN
 70
0
  9
$PSLTSCALE
 70
1
  0
ENDSEC
  0
SECTION
  2
TABLES
  0
TABLE
  2
VPORT
 70
1
  0
VPORT
  5
356
  2
*Active
 70
0
 10
0.0
 20
0.0
 11
1.0
 21
1.0
 12
0.0
 22
0.0
 13
0.0
 23
0.0
 14
0.5
 24
0.5
 15
0.5
 25
0.5
 16
0.0
 26
0.0
 36
1.0
 17
0.0
 27
0.0
 37
0.0
 40
1000.0
 41
1.34
 42
50.0
 43
0.0
 44
0.0
 50
0.0
 51
0.0
 71
0
 72
1000
 73
1
 74
3
 75
0
 76
0
 77
0
 78
0
  0
ENDTAB
  0
TABLE
  2
LTYPE
 70
3
  0
LTYPE
  5
357
  2
ByBlock
 70
0
  3

 72
65
 73
0
 40
0.0
  0
LTYPE
  5
358
  2
ByLayer
 70
0
  3

 72
65
 73
0
 40
0.0
  0
LTYPE
  5
359
  2
Continuous
 70
0
  3

 72
65
 73
0
 40
0.0
  0
ENDTAB
  0
TABLE
  2
LAYER
 70
2
  0
LAYER
  5
35A
  2
0
 70
0
 62
7
  6
Continuous
  0
LAYER
  5
35B
  2
Defpoints
 70
0
 62
7
  6
Continuous
  0
ENDTAB
  0
TABLE
  2
STYLE
 70
1
  0
STYLE
  5
35C
  2
Standard
 70
0
 40
0.0
 41
1.0
 50
0.0
 71
0
 42
2.5
  3
txt
  4

  0
ENDTAB
  0
TABLE
  2
VIEW
 70
0
  0
ENDTAB
  0
TABLE
  2
UCS
 70
0
  0
ENDTAB
  0
TABLE
  2
APPID
 70
3
  0
APPID
  5
35D
  2
ACAD
 70
0
  0
APPID
  5
361
  2
HATCHBACKGROUNDCOLOR
 70
0
  0
APPID
  5
362
  2
EZDXF
 70
0
  0
ENDTAB
  0
TABLE
  2
DIMSTYLE
 70
1
  0
DIMSTYLE
105
35E
  2
Standard
 70
0
  3

  4

  5

  6

  7

 40
1.0
 41
2.5
 42
0.625
 43
3.75
 44
1.25
 45
0.0
 46
0.0
 47
0.0
 48
0.0
140
2.5
141
2.5
142
0.0
143
0.03937007874
144
1.0
145
0.0
146
1.0
147
0.625
 71
0
 72
0
 73
0
 74
0
 75
0
 76
0
 77
1
 78
8
170
0
171
3
172
1
173
0
174
0
175
0
176
0
177
0
178
0
  0
ENDTAB
  0
ENDSEC
  0
SECTION
  2
BLOCKS
  0
BLOCK
  5
337
  8
0
  2
$Model_Space
 70
0
 10
0.0
 20
0.0
 30
0.0
  3
$Model_Space
  1

1001
EZDXF
1000
WRITTEN_BY_EZDXF
1000
1.0.1 @ 2023-02-11T12:41:21.690146+00:00
  0
ENDBLK
  5
338
  8
0
  0
BLOCK
  5
339
  8
0
  2
$Paper_Space
 70
0
 10
0.0
 20
0.0
 30
0.0
  3
$Paper_Space
  1

  0
ENDBLK
  5
33A
  8
0
  0
ENDSEC
  0
SECTION
  2
ENTITIES
  0
LINE
  5
100
  8
0
 10
-1.28748
 20
19.5535
 30
0.0
 11
-0.933838
 21
19.9361
 31
0.0
  0
LINE
  5
101
  8
0
 10
-0.933838
 20
19.9361
 30
0.0
 11
-0.37088
 21
20.1956
 31
0.0
  0
LINE
  5
102
  8
0
 10
-0.37088
 20
20.1956
 30
0.0
 11
0.24852
 21
20.2199
 31
0.0
  0
LINE
  5
103
  8
0
 10
0.24852
 20
20.2199
 30
0.0
 11
0.830109
 21
20.0054
 31
0.0
  0
LINE
  5
104
  8
0
 10
0.830109
 20
20.0054
 30
0.0
 11
1.28531
 21
19.5846
 31
0.0
  0
LINE
  5
105
  8
0
 10
1.28531
 20
19.5846
 30
0.0
 11
1.29964
 21
19.5535
 31
0.0
  0
LINE
  5
106
  8
0
 10
1.29964
 20
19.5535
 30
0.0
 11
1.86539
 21
19.5535
 31
0.0
  0
LINE
  5
107
  8
0
 10
1.86539
 20
19.5535
 30
0.0
 11
4.27948
 21
20.0667
 31
0.0
  0
LINE
  5
108
  8
0
 10
4.27948
 20
20.0667
 30
0.0
 11
4.47807
 21
20.4974
 31
0.0
  0
LINE
  5
109
  8
0
 10
4.47807
 20
20.4974
 30
0.0
 11
4.93327
 21
20.9182
 31
0.0
  0
LINE
  5
10A
  8
0
 10
4.93327
 20
20.9182
 30
0.0
 11
5.51486
 21
21.1328
 31
0.0
  0
LINE
  5
10B
  8
0
 10
5.51486
 20
21.1328
 30
0.0
 11
6.13428
 21
21.1084
 31
0.0
  0
LINE
  5
10C
  8
0
 10
6.13428
 20
21.1084
 30
0.0
 11
6.68973
 21
20.8524
 31
0.0
  0
LINE
  5
10D
  8
0
 10
6.68973
 20
20.8524
 30
0.0
 11
8.92287
 21
21.8466
 31
0.0
  0
LINE
  5
10E
  8
0
 10
8.92287
 20
21.8466
 30
0.0
 11
9.39041
 21
22.1863
 31
0.0
  0
LINE
  5
10F
  8
0
 10
9.39041
 20
22.1863
 30
0.0
 11
9.45164
 21
22.7037
 31
0.0
  0
LINE
  5
110
  8
0
 10
9.45164
 20
22.7037
 30
0.0
 11
9.75455
 21
23.2445
 31
0.0
  0
LINE
  5
111
  8
0
 10
9.75455
 20
23.2445
 30
0.0
 11
10.2414
 21
23.6283
 31
0.0
  0
LINE
  5
112
  8
0
 10
10.2414
 20
23.6283
 30
0.0
 11
10.838
 21
23.7966
 31
0.0
  0
LINE
  5
113
  8
0
 10
10.838
 20
23.7966
 30
0.0
 11
11.4536
 21
23.7237
 31
0.0
  0
LINE
  5
114
  8
0
 10
11.4536
 20
23.7237
 30
0.0
 11
11.4834
 21
23.707
 31
0.0
  0
LINE
  5
115
  8
0
 10
11.4834
 20
23.707
 30
0.0
 11
11.9411
 21
24.0395
 31
0.0
  0
LINE
  5
116
  8
0
 10
11.9411
 20
24.0395
 30
0.0
 11
13.5926
 21
25.8736
 31
0.0
  0
LINE
  5
117
  8
0
 10
13.5926
 20
25.8736
 30
0.0
 11
13.5
 21
26.3389
 31
0.0
  0
LINE
  5
118
  8
0
 10
13.5
 20
26.3389
 30
0.0
 11
13.621
 21
26.9469
 31
0.0
  0
LINE
  5
119
  8
0
 10
13.621
 20
26.9469
 30
0.0
 11
13.9654
 21
27.4623
 31
0.0
  0
LINE
  5
11A
  8
0
 10
13.9654
 20
27.4623
 30
0.0
 11
14.4808
 21
27.8067
 31
0.0
  0
LINE
  5
11B
  8
0
 10
14.4808
 20
27.8067
 30
0.0
 11
15.0807
 21
27.926
 31
0.0
  0
LINE
  5
11C
  8
0
 10
15.0807
 20
27.926
 30
0.0
 11
16.3029
 21
30.043
 31
0.0
  0
LINE
  5
11D
  8
0
 10
16.3029
 20
30.043
 30
0.0
 11
16.4815
 21
30.5926
 31
0.0
  0
LINE
  5
11E
  8
0
 10
16.4815
 20
30.5926
 30
0.0
 11
16.2269
 21
31.0472
 31
0.0
  0
LINE
  5
11F
  8
0
 10
16.2269
 20
31.0472
 30
0.0
 11
16.1541
 21
31.6628
 31
0.0
  0
LINE
  5
120
  8
0
 10
16.1541
 20
31.6628
 30
0.0
 11
16.3223
 21
32.2594
 31
0.0
  0
LINE
  5
121
  8
0
 10
16.3223
 20
32.2594
 30
0.0
 11
16.7061
 21
32.7462
 31
0.0
  0
LINE
  5
122
  8
0
 10
16.7061
 20
32.7462
 30
0.0
 11
17.247
 21
33.0491
 31
0.0
  0
LINE
  5
123
  8
0
 10
17.247
 20
33.0491
 30
0.0
 11
17.281
 21
33.0531
 31
0.0
  0
LINE
  5
124
  8
0
 10
17.281
 20
33.0531
 30
0.0
 11
17.4558
 21
33.5912
 31
0.0
  0
LINE
  5
125
  8
0
 10
17.4558
 20
33.5912
 30
0.0
 11
17.7138
 21
36.0457
 31
0.0
  0
LINE
  5
126
  8
0
 10
17.7138
 20
36.0457
 30
0.0
 11
17.3654
 21
36.3677
 31
0.0
  0
LINE
  5
127
  8
0
 10
17.3654
 20
36.3677
 30
0.0
 11
17.1059
 21
36.9306
 31
0.0
  0
LINE
  5
128
  8
0
 10
17.1059
 20
36.9306
 30
0.0
 11
17.0816
 21
37.55
 31
0.0
  0
LINE
  5
129
  8
0
 10
17.0816
 20
37.55
 30
0.0
 11
17.2961
 21
38.1316
 31
0.0
  0
LINE
  5
12A
  8
0
 10
17.2961
 20
38.1316
 30
0.0
 11
17.7113
 21
38.5808
 31
0.0
  0
LINE
  5
12B
  8
0
 10
17.7113
 20
38.5808
 30
0.0
 11
17.4558
 21
41.0119
 31
0.0
  0
LINE
  5
12C
  8
0
 10
17.4558
 20
41.0119
 30
0.0
 11
17.2772
 21
41.5615
 31
0.0
  0
LINE
  5
12D
  8
0
 10
17.2772
 20
41.5615
 30
0.0
 11
16.8041
 21
41.7796
 31
0.0
  0
LINE
  5
12E
  8
0
 10
16.8041
 20
41.7796
 30
0.0
 11
16.3833
 21
42.2348
 31
0.0
  0
LINE
  5
12F
  8
0
 10
16.3833
 20
42.2348
 30
0.0
 11
16.1687
 21
42.8164
 31
0.0
  0
LINE
  5
130
  8
0
 10
16.1687
 20
42.8164
 30
0.0
 11
16.1931
 21
43.4358
 31
0.0
  0
LINE
  5
131
  8
0
 10
16.1931
 20
43.4358
 30
0.0
 11
16.4526
 21
43.9988
 31
0.0
  0
LINE
  5
132
  8
0
 10
16.4526
 20
43.9988
 30
0.0
 11
16.4777
 21
44.022
 31
0.0
  0
LINE
  5
133
  8
0
 10
16.4777
 20
44.022
 30
0.0
 11
16.3029
 21
44.56
 31
0.0
  0
LINE
  5
134
  8
0
 10
16.3029
 20
44.56
 30
0.0
 11
15.0689
 21
46.6974
 31
0.0
  0
LINE
  5
135
  8
0
 10
15.0689
 20
46.6974
 30
0.0
 11
14.5978
 21
46.7532
 31
0.0
  0
LINE
  5
136
  8
0
 10
14.5978
 20
46.7532
 30
0.0
 11
14.057
 21
47.0561
 31
0.0
  0
LINE
  5
137
  8
0
 10
14.057
 20
47.0561
 30
0.0
 11
13.6732
 21
47.5429
 31
0.0
  0
LINE
  5
138
  8
0
 10
13.6732
 20
47.5429
 30
0.0
 11
13.5049
 21
48.1395
 31
0.0
  0
LINE
  5
139
  8
0
 10
13.5049
 20
48.1395
 30
0.0
 11
13.5768
 21
48.7469
 31
0.0
  0
LINE
  5
13A
  8
0
 10
13.5768
 20
48.7469
 30
0.0
 11
11.9411
 21
50.5635
 31
0.0
  0
LINE
  5
13B
  8
0
 10
11.9411
 20
50.5635
 30
0.0
 11
11.4736
 21
50.9032
 31
0.0
  0
LINE
  5
13C
  8
0
 10
11.4736
 20
50.9032
 30
0.0
 11
10.9626
 21
50.8016
 31
0.0
  0
LINE
  5
13D
  8
0
 10
10.9626
 20
50.8016
 30
0.0
 11
10.3546
 21
50.9225
 31
0.0
  0
LINE
  5
13E
  8
0
 10
10.3546
 20
50.9225
 30
0.0
 11
9.83922
 21
51.2669
 31
0.0
  0
LINE
  5
13F
  8
0
 10
9.83922
 20
51.2669
 30
0.0
 11
9.49483
 21
51.7823
 31
0.0
  0
LINE
  5
140
  8
0
 10
9.49483
 20
51.7823
 30
0.0
 11
9.37389
 21
52.3903
 31
0.0
  0
LINE
  5
141
  8
0
 10
9.37389
 20
52.3903
 30
0.0
 11
9.38057
 21
52.4239
 31
0.0
  0
LINE
  5
142
  8
0
 10
9.38057
 20
52.4239
 30
0.0
 11
8.92287
 21
52.7564
 31
0.0
  0
LINE
  5
143
  8
0
 10
8.92287
 20
52.7564
 30
0.0
 11
6.66821
 21
53.7602
 31
0.0
  0
LINE
  5
144
  8
0
 10
6.66821
 20
53.7602
 30
0.0
 11
6.25435
 21
53.5285
 31
0.0
  0
LINE
  5
145
  8
0
 10
6.25435
 20
53.5285
 30
0.0
 11
5.63875
 21
53.4556
 31
0.0
  0
LINE
  5
146
  8
0
 10
5.63875
 20
53.4556
 30
0.0
 11
5.04211
 21
53.6239
 31
0.0
  0
LINE
  5
147
  8
0
 10
5.04211
 20
53.6239
 30
0.0
 11
4.5553
 21
54.0076
 31
0.0
  0
LINE
  5
148
  8
0
 10
4.5553
 20
54.0076
 30
0.0
 11
4.25645
 21
54.5413
 31
0.0
  0
LINE
  5
149
  8
0
 10
4.25645
 20
54.5413
 30
0.0
 11
1.86539
 21
55.0495
 31
0.0
  0
LINE
  5
14A
  8
0
 10
1.86539
 20
55.0495
 30
0.0
 11
1.28748
 21
55.0495
 31
0.0
  0
LINE
  5
14B
  8
0
 10
1.28748
 20
55.0495
 30
0.0
 11
0.933838
 21
54.667
 31
0.0
  0
LINE
  5
14C
  8
0
 10
0.933838
 20
54.667
 30
0.0
 11
0.37088
 21
54.4074
 31
0.0
  0
LINE
  5
14D
  8
0
 10
0.37088
 20
54.4074
 30
0.0
 11
-0.24852
 21
54.3831
 31
0.0
  0
LINE
  5
14E
  8
0
 10
-0.24852
 20
54.3831
 30
0.0
 11
-0.830109
 21
54.5977
 31
0.0
  0
LINE
  5
14F
  8
0
 10
-0.830109
 20
54.5977
 30
0.0
 11
-1.28531
 21
55.0184
 31
0.0
  0
LINE
  5
150
  8
0
 10
-1.28531
 20
55.0184
 30
0.0
 11
-1.29964
 21
55.0495
 31
0.0
  0
LINE
  5
151
  8
0
 10
-1.29964
 20
55.0495
 30
0.0
 11
-1.86539
 21
55.0495
 31
0.0
  0
LINE
  5
152
  8
0
 10
-1.86539
 20
55.0495
 30
0.0
 11
-4.27948
 21
54.5364
 31
0.0
  0
LINE
  5
153
  8
0
 10
-4.27948
 20
54.5364
 30
0.0
 11
-4.47807
 21
54.1056
 31
0.0
  0
LINE
  5
154
  8
0
 10
-4.47807
 20
54.1056
 30
0.0
 11
-4.93327
 21
53.6848
 31
0.0
  0
LINE
  5
155
  8
0
 10
-4.93327
 20
53.6848
 30
0.0
 11
-5.51486
 21
53.4703
 31
0.0
  0
LINE
  5
156
  8
0
 10
-5.51486
 20
53.4703
 30
0.0
 11
-6.13428
 21
53.4946
 31
0.0
  0
LINE
  5
157
  8
0
 10
-6.13428
 20
53.4946
 30
0.0
 11
-6.68973
 21
53.7507
 31
0.0
  0
LINE
  5
158
  8
0
 10
-6.68973
 20
53.7507
 30
0.0
 11
-8.92287
 21
52.7564
 31
0.0
  0
LINE
  5
159
  8
0
 10
-8.92287
 20
52.7564
 30
0.0
 11
-9.39041
 21
52.4167
 31
0.0
  0
LINE
  5
15A
  8
0
 10
-9.39041
 20
52.4167
 30
0.0
 11
-9.45164
 21
51.8994
 31
0.0
  0
LINE
  5
15B
  8
0
 10
-9.45164
 20
51.8994
 30
0.0
 11
-9.75455
 21
51.3585
 31
0.0
  0
LINE
  5
15C
  8
0
 10
-9.75455
 20
51.3585
 30
0.0
 11
-10.2414
 21
50.9747
 31
0.0
  0
LINE
  5
15D
  8
0
 10
-10.2414
 20
50.9747
 30
0.0
 11
-10.838
 21
50.8065
 31
0.0
  0
LINE
  5
15E
  8
0
 10
-10.838
 20
50.8065
 30
0.0
 11
-11.4536
 21
50.8793
 31
0.0
  0
LINE
  5
15F
  8
0
 10
-11.4536
 20
50.8793
 30
0.0
 11
-11.4834
 21
50.896
 31
0.0
  0
LINE
  5
160
  8
0
 10
-11.4834
 20
50.896
 30
0.0
 11
-11.9411
 21
50.5635
 31
0.0
  0
LINE
  5
161
  8
0
 10
-11.9411
 20
50.5635
 30
0.0
 11
-13.5926
 21
48.7294
 31
0.0
  0
LINE
  5
162
  8
0
 10
-13.5926
 20
48.7294
 30
0.0
 11
-13.5
 21
48.2642
 31
0.0
  0
LINE
  5
163
  8
0
 10
-13.5
 20
48.2642
 30
0.0
 11
-13.621
 21
47.6562
 31
0.0
  0
LINE
  5
164
  8
0
 10
-13.621
 20
47.6562
 30
0.0
 11
-13.9654
 21
47.1407
 31
0.0
  0
LINE
  5
165
  8
0
 10
-13.9654
 20
47.1407
 30
0.0
 11
-14.4808
 21
46.7964
 31
0.0
  0
LINE
  5
166
  8
0
 10
-14.4808
 20
46.7964
 30
0.0
 11
-15.0807
 21
46.677
 31
0.0
  0
LINE
  5
167
  8
0
 10
-15.0807
 20
46.677
 30
0.0
 11
-16.3029
 21
44.56
 31
0.0
  0
LINE
  5
168
  8
0
 10
-16.3029
 20
44.56
 30
0.0
 11
-16.4815
 21
44.0104
 31
0.0
  0
LINE
  5
169
  8
0
 10
-16.4815
 20
44.0104
 30
0.0
 11
-16.2269
 21
43.5559
 31
0.0
  0
LINE
  5
16A
  8
0
 10
-16.2269
 20
43.5559
 30
0.0
 11
-16.1541
 21
42.9403
 31
0.0
  0
LINE
  5
16B
  8
0
 10
-16.1541
 20
42.9403
 30
0.0
 11
-16.3223
 21
42.3436
 31
0.0
  0
LINE
  5
16C
  8
0
 10
-16.3223
 20
42.3436
 30
0.0
 11
-16.7061
 21
41.8568
 31
0.0
  0
LINE
  5
16D
  8
0
 10
-16.7061
 20
41.8568
 30
0.0
 11
-17.247
 21
41.5539
 31
0.0
  0
LINE
  5
16E
  8
0
 10
-17.247
 20
41.5539
 30
0.0
 11
-17.281
 21
41.5499
 31
0.0
  0
LINE
  5
16F
  8
0
 10
-17.281
 20
41.5499
 30
0.0
 11
-17.4558
 21
41.0119
 31
0.0
  0
LINE
  5
170
  8
0
 10
-17.4558
 20
41.0119
 30
0.0
 11
-17.7138
 21
38.5573
 31
0.0
  0
LINE
  5
171
  8
0
 10
-17.7138
 20
38.5573
 30
0.0
 11
-17.3654
 21
38.2354
 31
0.0
  0
LINE
  5
172
  8
0
 10
-17.3654
 20
38.2354
 30
0.0
 11
-17.1059
 21
37.6724
 31
0.0
  0
LINE
  5
173
  8
0
 10
-17.1059
 20
37.6724
 30
0.0
 11
-17.0816
 21
37.053
 31
0.0
  0
LINE
  5
174
  8
0
 10
-17.0816
 20
37.053
 30
0.0
 11
-17.2961
 21
36.4714
 31
0.0
  0
LINE
  5
175
  8
0
 10
-17.2961
 20
36.4714
 30
0.0
 11
-17.7113
 21
36.0223
 31
0.0
  0
LINE
  5
176
  8
0
 10
-17.7113
 20
36.0223
 30
0.0
 11
-17.4558
 21
33.5912
 31
0.0
  0
LINE
  5
177
  8
0
 10
-17.4558
 20
33.5912
 30
0.0
 11
-17.2772
 21
33.0415
 31
0.0
  0
LINE
  5
178
  8
0
 10
-17.2772
 20
33.0415
 30
0.0
 11
-16.8041
 21
32.8234
 31
0.0
  0
LINE
  5
179
  8
0
 10
-16.8041
 20
32.8234
 30
0.0
 11
-16.3833
 21
32.3682
 31
0.0
  0
LINE
  5
17A
  8
0
 10
-16.3833
 20
32.3682
 30
0.0
 11
-16.1687
 21
31.7867
 31
0.0
  0
LINE
  5
17B
  8
0
 10
-16.1687
 20
31.7867
 30
0.0
 11
-16.1931
 21
31.1672
 31
0.0
  0
LINE
  5
17C
  8
0
 10
-16.1931
 20
31.1672
 30
0.0
 11
-16.4526
 21
30.6043
 31
0.0
  0
LINE
  5
17D
  8
0
 10
-16.4526
 20
30.6043
 30
0.0
 11
-16.4777
 21
30.581
 31
0.0
  0
LINE
  5
17E
  8
0
 10
-16.4777
 20
30.581
 30
0.0
 11
-16.3029
 21
30.043
 31
0.0
  0
LINE
  5
17F
  8
0
 10
-16.3029
 20
30.043
 30
0.0
 11
-15.0689
 21
27.9056
 31
0.0
  0
LINE
  5
180
  8
0
 10
-15.0689
 20
27.9056
 30
0.0
 11
-14.5978
 21
27.8499
 31
0.0
  0
LINE
  5
181
  8
0
 10
-14.5978
 20
27.8499
 30
0.0
 11
-14.057
 21
27.547
 31
0.0
  0
LINE
  5
182
  8
0
 10
-14.057
 20
27.547
 30
0.0
 11
-13.6732
 21
27.0602
 31
0.0
  0
LINE
  5
183
  8
0
 10
-13.6732
 20
27.0602
 30
0.0
 11
-13.5049
 21
26.4635
 31
0.0
  0
LINE
  5
184
  8
0
 10
-13.5049
 20
26.4635
 30
0.0
 11
-13.5768
 21
25.8561
 31
0.0
  0
LINE
  5
185
  8
0
 10
-13.5768
 20
25.8561
 30
0.0
 11
-11.9411
 21
24.0395
 31
0.0
  0
LINE
  5
186
  8
0
 10
-11.9411
 20
24.0395
 30
0.0
 11
-11.4736
 21
23.6998
 31
0.0
  0
LINE
  5
187
  8
0
 10
-11.4736
 20
23.6998
 30
0.0
 11
-10.9626
 21
23.8015
 31
0.0
  0
LINE
  5
188
  8
0
 10
-10.9626
 20
23.8015
 30
0.0
 11
-10.3546
 21
23.6805
 31
0.0
  0
LINE
  5
189
  8
0
 10
-10.3546
 20
23.6805
 30
0.0
 11
-9.83922
 21
23.3362
 31
0.0
  0
LINE
  5
18A
  8
0
 10
-9.83922
 20
23.3362
 30
0.0
 11
-9.49483
 21
22.8207
 31
0.0
  0
LINE
  5
18B
  8
0
 10
-9.49483
 20
22.8207
 30
0.0
 11
-9.37389
 21
22.2127
 31
0.0
  0
LINE
  5
18C
  8
0
 10
-9.37389
 20
22.2127
 30
0.0
 11
-9.38057
 21
22.1792
 31
0.0
  0
LINE
  5
18D
  8
0
 10
-9.38057
 20
22.1792
 30
0.0
 11
-8.92287
 21
21.8466
 31
0.0
  0
LINE
  5
18E
  8
0
 10
-8.92287
 20
21.8466
 30
0.0
 11
-6.66821
 21
20.8428
 31
0.0
  0
LINE
  5
18F
  8
0
 10
-6.66821
 20
20.8428
 30
0.0
 11
-6.25435
 21
21.0746
 31
0.0
  0
LINE
  5
190
  8
0
 10
-6.25435
 20
21.0746
 30
0.0
 11
-5.63875
 21
21.1474
 31
0.0
  0
LINE
  5
191
  8
0
 10
-5.63875
 20
21.1474
 30
0.0
 11
-5.04211
 21
20.9792
 31
0.0
  0
LINE
  5
192
  8
0
 10
-5.04211
 20
20.9792
 30
0.0
 11
-4.5553
 21
20.5954
 31
0.0
  0
LINE
  5
193
  8
0
 10
-4.5553
 20
20.5954
 30
0.0
 11
-4.25645
 21
20.0618
 31
0.0
  0
LINE
  5
194
  8
0
 10
-4.25645
 20
20.0618
 30
0.0
 11
-1.86539
 21
19.5535
 31
0.0
  0
LINE
  5
195
  8
0
 10
-1.86539
 20
19.5535
 30
0.0
 11
-1.28748
 21
19.5535
 31
0.0
  0
LINE
  5
196
  8
0
 10
-1.44638
 20
30.9645
 30
0.0
 11
-3.25
 21
31.6723
 31
0.0
  0
LINE
  5
197
  8
0
 10
-3.25
 20
31.6723
 30
0.0
 11
-4.76483
 21
32.8804
 31
0.0
  0
LINE
  5
198
  8
0
 10
-4.76483
 20
32.8804
 30
0.0
 11
-5.85629
 21
34.4813
 31
0.0
  0
LINE
  5
199
  8
0
 10
-5.85629
 20
34.4813
 30
0.0
 11
-6.4274
 21
36.3327
 31
0.0
  0
LINE
  5
19A
  8
0
 10
-6.4274
 20
36.3327
 30
0.0
 11
-6.4274
 21
38.2703
 31
0.0
  0
LINE
  5
19B
  8
0
 10
-6.4274
 20
38.2703
 30
0.0
 11
-5.85629
 21
40.1218
 31
0.0
  0
LINE
  5
19C
  8
0
 10
-5.85629
 20
40.1218
 30
0.0
 11
-4.76483
 21
41.7226
 31
0.0
  0
LINE
  5
19D
  8
0
 10
-4.76483
 20
41.7226
 30
0.0
 11
-3.25
 21
42.9307
 31
0.0
  0
LINE
  5
19E
  8
0
 10
-3.25
 20
42.9307
 30
0.0
 11
-1.44638
 21
43.6385
 31
0.0
  0
LINE
  5
19F
  8
0
 10
-1.44638
 20
43.6385
 30
0.0
 11
0.485733
 21
43.7833
 31
0.0
  0
LINE
  5
1A0
  8
0
 10
0.485733
 20
43.7833
 30
0.0
 11
2.37471
 21
43.3522
 31
0.0
  0
LINE
  5
1A1
  8
0
 10
2.37471
 20
43.3522
 30
0.0
 11
4.05267
 21
42.3834
 31
0.0
  0
LINE
  5
1A2
  8
0
 10
4.05267
 20
42.3834
 30
0.0
 11
5.37054
 21
40.9631
 31
0.0
  0
LINE
  5
1A3
  8
0
 10
5.37054
 20
40.9631
 30
0.0
 11
6.21121
 21
39.2174
 31
0.0
  0
LINE
  5
1A4
  8
0
 10
6.21121
 20
39.2174
 30
0.0
 11
6.5
 21
37.3015
 31
0.0
  0
LINE
  5
1A5
  8
0
 10
6.5
 20
37.3015
 30
0.0
 11
6.21121
 21
35.3856
 31
0.0
  0
LINE
  5
1A6
  8
0
 10
6.21121
 20
35.3856
 30
0.0
 11
5.37054
 21
33.6399
 31
0.0
  0
LINE
  5
1A7
  8
0
 10
5.37054
 20
33.6399
 30
0.0
 11
4.05267
 21
32.2196
 31
0.0
  0
LINE
  5
1A8
  8
0
 10
4.05267
 20
32.2196
 30
0.0
 11
2.37471
 21
31.2508
 31
0.0
  0
LINE
  5
1A9
  8
0
 10
2.37471
 20
31.2508
 30
0.0
 11
0.485733
 21
30.8197
 31
0.0
  0
LINE
  5
1AA
  8
0
 10
0.485733
 20
30.8197
 30
0.0
 11
-1.44638
 21
30.9645
 31
0.0
  0
LINE
  5
1AB
  8
0
 10
10.5502
 20
36.0165
 30
0.0
 11
10.5502
 21
38.5865
 31
0.0
  0
LINE
  5
1AC
  8
0
 10
10.5502
 20
38.5865
 30
0.0
 11
14.6005
 21
38.5865
 31
0.0
  0
LINE
  5
1AD
  8
0
 10
14.6005
 20
38.5865
 30
0.0
 11
14.6005
 21
36.0165
 31
0.0
  0
LINE
  5
1AE
  8
0
 10
14.6005
 20
36.0165
 30
0.0
 11
10.5502
 21
36.0165
 31
0.0
  0
LINE
  5
1AF
  8
0
 10
36.014
 20
-17.748
 30
0.0
 11
36.3677
 21
-17.3654
 31
0.0
  0
LINE
  5
1B0
  8
0
 10
36.3677
 20
-17.3654
 30
0.0
 11
36.9306
 21
-17.1059
 31
0.0
  0
LINE
  5
1B1
  8
0
 10
36.9306
 20
-17.1059
 30
0.0
 11
37.55
 21
-17.0816
 31
0.0
  0
LINE
  5
1B2
  8
0
 10
37.55
 20
-17.0816
 30
0.0
 11
38.1316
 21
-17.2961
 31
0.0
  0
LINE
  5
1B3
  8
0
 10
38.1316
 20
-17.2961
 30
0.0
 11
38.5868
 21
-17.7169
 31
0.0
  0
LINE
  5
1B4
  8
0
 10
38.5868
 20
-17.7169
 30
0.0
 11
38.6012
 21
-17.748
 31
0.0
  0
LINE
  5
1B5
  8
0
 10
38.6012
 20
-17.748
 30
0.0
 11
39.1669
 21
-17.748
 31
0.0
  0
LINE
  5
1B6
  8
0
 10
39.1669
 20
-17.748
 30
0.0
 11
41.581
 21
-17.2349
 31
0.0
  0
LINE
  5
1B7
  8
0
 10
41.581
 20
-17.2349
 30
0.0
 11
41.7796
 21
-16.8041
 31
0.0
  0
LINE
  5
1B8
  8
0
 10
41.7796
 20
-16.8041
 30
0.0
 11
42.2348
 21
-16.3833
 31
0.0
  0
LINE
  5
1B9
  8
0
 10
42.2348
 20
-16.3833
 30
0.0
 11
42.8164
 21
-16.1687
 31
0.0
  0
LINE
  5
1BA
  8
0
 10
42.8164
 20
-16.1687
 30
0.0
 11
43.4358
 21
-16.1931
 31
0.0
  0
LINE
  5
1BB
  8
0
 10
43.4358
 20
-16.1931
 30
0.0
 11
43.9913
 21
-16.4491
 31
0.0
  0
LINE
  5
1BC
  8
0
 10
43.9913
 20
-16.4491
 30
0.0
 11
46.2244
 21
-15.4549
 31
0.0
  0
LINE
  5
1BD
  8
0
 10
46.2244
 20
-15.4549
 30
0.0
 11
46.6919
 21
-15.1152
 31
0.0
  0
LINE
  5
1BE
  8
0
 10
46.6919
 20
-15.1152
 30
0.0
 11
46.7532
 21
-14.5978
 31
0.0
  0
LINE
  5
1BF
  8
0
 10
46.7532
 20
-14.5978
 30
0.0
 11
47.0561
 21
-14.057
 31
0.0
  0
LINE
  5
1C0
  8
0
 10
47.0561
 20
-14.057
 30
0.0
 11
47.5429
 21
-13.6732
 31
0.0
  0
LINE
  5
1C1
  8
0
 10
47.5429
 20
-13.6732
 30
0.0
 11
48.1395
 21
-13.5049
 31
0.0
  0
LINE
  5
1C2
  8
0
 10
48.1395
 20
-13.5049
 30
0.0
 11
48.7551
 21
-13.5778
 31
0.0
  0
LINE
  5
1C3
  8
0
 10
48.7551
 20
-13.5778
 30
0.0
 11
48.785
 21
-13.5945
 31
0.0
  0
LINE
  5
1C4
  8
0
 10
48.785
 20
-13.5945
 30
0.0
 11
49.2427
 21
-13.262
 31
0.0
  0
LINE
  5
1C5
  8
0
 10
49.2427
 20
-13.262
 30
0.0
 11
50.8941
 21
-11.4279
 31
0.0
  0
LINE
  5
1C6
  8
0
 10
50.8941
 20
-11.4279
 30
0.0
 11
50.8016
 21
-10.9626
 31
0.0
  0
LINE
  5
1C7
  8
0
 10
50.8016
 20
-10.9626
 30
0.0
 11
50.9225
 21
-10.3546
 31
0.0
  0
LINE
  5
1C8
  8
0
 10
50.9225
 20
-10.3546
 30
0.0
 11
51.2669
 21
-9.83922
 31
0.0
  0
LINE
  5
1C9
  8
0
 10
51.2669
 20
-9.83922
 30
0.0
 11
51.7823
 21
-9.49483
 31
0.0
  0
LINE
  5
1CA
  8
0
 10
51.7823
 20
-9.49483
 30
0.0
 11
52.3822
 21
-9.3755
 31
0.0
  0
LINE
  5
1CB
  8
0
 10
52.3822
 20
-9.3755
 30
0.0
 11
53.6044
 21
-7.25851
 31
0.0
  0
LINE
  5
1CC
  8
0
 10
53.6044
 20
-7.25851
 30
0.0
 11
53.783
 21
-6.70889
 31
0.0
  0
LINE
  5
1CD
  8
0
 10
53.783
 20
-6.70889
 30
0.0
 11
53.5285
 21
-6.25435
 31
0.0
  0
LINE
  5
1CE
  8
0
 10
53.5285
 20
-6.25435
 30
0.0
 11
53.4556
 21
-5.63875
 31
0.0
  0
LINE
  5
1CF
  8
0
 10
53.4556
 20
-5.63875
 30
0.0
 11
53.6239
 21
-5.04211
 31
0.0
  0
LINE
  5
1D0
  8
0
 10
53.6239
 20
-5.04211
 30
0.0
 11
54.0076
 21
-4.5553
 31
0.0
  0
LINE
  5
1D1
  8
0
 10
54.0076
 20
-4.5553
 30
0.0
 11
54.5485
 21
-4.25241
 31
0.0
  0
LINE
  5
1D2
  8
0
 10
54.5485
 20
-4.25241
 30
0.0
 11
54.5825
 21
-4.24838
 31
0.0
  0
LINE
  5
1D3
  8
0
 10
54.5825
 20
-4.24838
 30
0.0
 11
54.7573
 21
-3.71034
 31
0.0
  0
LINE
  5
1D4
  8
0
 10
54.7573
 20
-3.71034
 30
0.0
 11
55.0153
 21
-1.25583
 31
0.0
  0
LINE
  5
1D5
  8
0
 10
55.0153
 20
-1.25583
 30
0.0
 11
54.667
 21
-0.933838
 31
0.0
  0
LINE
  5
1D6
  8
0
 10
54.667
 20
-0.933838
 30
0.0
 11
54.4074
 21
-0.37088
 31
0.0
  0
LINE
  5
1D7
  8
0
 10
54.4074
 20
-0.37088
 30
0.0
 11
54.3831
 21
0.24852
 31
0.0
  0
LINE
  5
1D8
  8
0
 10
54.3831
 20
0.24852
 30
0.0
 11
54.5977
 21
0.830109
 31
0.0
  0
LINE
  5
1D9
  8
0
 10
54.5977
 20
0.830109
 30
0.0
 11
55.0128
 21
1.27924
 31
0.0
  0
LINE
  5
1DA
  8
0
 10
55.0128
 20
1.27924
 30
0.0
 11
54.7573
 21
3.71034
 31
0.0
  0
LINE
  5
1DB
  8
0
 10
54.7573
 20
3.71034
 30
0.0
 11
54.5787
 21
4.25996
 31
0.0
  0
LINE
  5
1DC
  8
0
 10
54.5787
 20
4.25996
 30
0.0
 11
54.1056
 21
4.47807
 31
0.0
  0
LINE
  5
1DD
  8
0
 10
54.1056
 20
4.47807
 30
0.0
 11
53.6848
 21
4.93327
 31
0.0
  0
LINE
  5
1DE
  8
0
 10
53.6848
 20
4.93327
 30
0.0
 11
53.4703
 21
5.51486
 31
0.0
  0
LINE
  5
1DF
  8
0
 10
53.4703
 20
5.51486
 30
0.0
 11
53.4946
 21
6.13428
 31
0.0
  0
LINE
  5
1E0
  8
0
 10
53.4946
 20
6.13428
 30
0.0
 11
53.7541
 21
6.69724
 31
0.0
  0
LINE
  5
1E1
  8
0
 10
53.7541
 20
6.69724
 30
0.0
 11
53.7793
 21
6.72047
 31
0.0
  0
LINE
  5
1E2
  8
0
 10
53.7793
 20
6.72047
 30
0.0
 11
53.6044
 21
7.25851
 31
0.0
  0
LINE
  5
1E3
  8
0
 10
53.6044
 20
7.25851
 30
0.0
 11
52.3704
 21
9.39589
 31
0.0
  0
LINE
  5
1E4
  8
0
 10
52.3704
 20
9.39589
 30
0.0
 11
51.8994
 21
9.45164
 31
0.0
  0
LINE
  5
1E5
  8
0
 10
51.8994
 20
9.45164
 30
0.0
 11
51.3585
 21
9.75455
 31
0.0
  0
LINE
  5
1E6
  8
0
 10
51.3585
 20
9.75455
 30
0.0
 11
50.9747
 21
10.2414
 31
0.0
  0
LINE
  5
1E7
  8
0
 10
50.9747
 20
10.2414
 30
0.0
 11
50.8065
 21
10.838
 31
0.0
  0
LINE
  5
1E8
  8
0
 10
50.8065
 20
10.838
 30
0.0
 11
50.8783
 21
11.4454
 31
0.0
  0
LINE
  5
1E9
  8
0
 10
50.8783
 20
11.4454
 30
0.0
 11
49.2427
 21
13.262
 31
0.0
  0
LINE
  5
1EA
  8
0
 10
49.2427
 20
13.262
 30
0.0
 11
48.7751
 21
13.6017
 31
0.0
  0
LINE
  5
1EB
  8
0
 10
48.7751
 20
13.6017
 30
0.0
 11
48.2642
 21
13.5
 31
0.0
  0
LINE
  5
1EC
  8
0
 10
48.2642
 20
13.5
 30
0.0
 11
47.6562
 21
13.621
 31
0.0
  0
LINE
  5
1ED
  8
0
 10
47.6562
 20
13.621
 30
0.0
 11
47.1407
 21
13.9654
 31
0.0
  0
LINE
  5
1EE
  8
0
 10
47.1407
 20
13.9654
 30
0.0
 11
46.7964
 21
14.4808
 31
0.0
  0
LINE
  5
1EF
  8
0
 10
46.7964
 20
14.4808
 30
0.0
 11
46.6754
 21
15.0888
 31
0.0
  0
LINE
  5
1F0
  8
0
 10
46.6754
 20
15.0888
 30
0.0
 11
46.6821
 21
15.1223
 31
0.0
  0
LINE
  5
1F1
  8
0
 10
46.6821
 20
15.1223
 30
0.0
 11
46.2244
 21
15.4549
 31
0.0
  0
LINE
  5
1F2
  8
0
 10
46.2244
 20
15.4549
 30
0.0
 11
43.9697
 21
16.4587
 31
0.0
  0
LINE
  5
1F3
  8
0
 10
43.9697
 20
16.4587
 30
0.0
 11
43.5559
 21
16.2269
 31
0.0
  0
LINE
  5
1F4
  8
0
 10
43.5559
 20
16.2269
 30
0.0
 11
42.9403
 21
16.1541
 31
0.0
  0
LINE
  5
1F5
  8
0
 10
42.9403
 20
16.1541
 30
0.0
 11
42.3436
 21
16.3223
 31
0.0
  0
LINE
  5
1F6
  8
0
 10
42.3436
 20
16.3223
 30
0.0
 11
41.8568
 21
16.7061
 31
0.0
  0
LINE
  5
1F7
  8
0
 10
41.8568
 20
16.7061
 30
0.0
 11
41.558
 21
17.2398
 31
0.0
  0
LINE
  5
1F8
  8
0
 10
41.558
 20
17.2398
 30
0.0
 11
39.1669
 21
17.748
 31
0.0
  0
LINE
  5
1F9
  8
0
 10
39.1669
 20
17.748
 30
0.0
 11
38.589
 21
17.748
 31
0.0
  0
LINE
  5
1FA
  8
0
 10
38.589
 20
17.748
 30
0.0
 11
38.2354
 21
17.3654
 31
0.0
  0
LINE
  5
1FB
  8
0
 10
38.2354
 20
17.3654
 30
0.0
 11
37.6724
 21
17.1059
 31
0.0
  0
LINE
  5
1FC
  8
0
 10
37.6724
 20
17.1059
 30
0.0
 11
37.053
 21
17.0816
 31
0.0
  0
LINE
  5
1FD
  8
0
 10
37.053
 20
17.0816
 30
0.0
 11
36.4714
 21
17.2961
 31
0.0
  0
LINE
  5
1FE
  8
0
 10
36.4714
 20
17.2961
 30
0.0
 11
36.0162
 21
17.7169
 31
0.0
  0
LINE
  5
1FF
  8
0
 10
36.0162
 20
17.7169
 30
0.0
 11
36.0019
 21
17.748
 31
0.0
  0
LINE
  5
200
  8
0
 10
36.0019
 20
17.748
 30
0.0
 11
35.4361
 21
17.748
 31
0.0
  0
LINE
  5
201
  8
0
 10
35.4361
 20
17.748
 30
0.0
 11
33.022
 21
17.2349
 31
0.0
  0
LINE
  5
202
  8
0
 10
33.022
 20
17.2349
 30
0.0
 11
32.8234
 21
16.8041
 31
0.0
  0
LINE
  5
203
  8
0
 10
32.8234
 20
16.8041
 30
0.0
 11
32.3682
 21
16.3833
 31
0.0
  0
LINE
  5
204
  8
0
 10
32.3682
 20
16.3833
 30
0.0
 11
31.7867
 21
16.1687
 31
0.0
  0
LINE
  5
205
  8
0
 10
31.7867
 20
16.1687
 30
0.0
 11
31.1672
 21
16.1931
 31
0.0
  0
LINE
  5
206
  8
0
 10
31.1672
 20
16.1931
 30
0.0
 11
30.6118
 21
16.4491
 31
0.0
  0
LINE
  5
207
  8
0
 10
30.6118
 20
16.4491
 30
0.0
 11
28.3786
 21
15.4549
 31
0.0
  0
LINE
  5
208
  8
0
 10
28.3786
 20
15.4549
 30
0.0
 11
27.9111
 21
15.1152
 31
0.0
  0
LINE
  5
209
  8
0
 10
27.9111
 20
15.1152
 30
0.0
 11
27.8499
 21
14.5978
 31
0.0
  0
LINE
  5
20A
  8
0
 10
27.8499
 20
14.5978
 30
0.0
 11
27.547
 21
14.057
 31
0.0
  0
LINE
  5
20B
  8
0
 10
27.547
 20
14.057
 30
0.0
 11
27.0602
 21
13.6732
 31
0.0
  0
LINE
  5
20C
  8
0
 10
27.0602
 20
13.6732
 30
0.0
 11
26.4635
 21
13.5049
 31
0.0
  0
LINE
  5
20D
  8
0
 10
26.4635
 20
13.5049
 30
0.0
 11
25.8479
 21
13.5778
 31
0.0
  0
LINE
  5
20E
  8
0
 10
25.8479
 20
13.5778
 30
0.0
 11
25.8181
 21
13.5945
 31
0.0
  0
LINE
  5
20F
  8
0
 10
25.8181
 20
13.5945
 30
0.0
 11
25.3604
 21
13.262
 31
0.0
  0
LINE
  5
210
  8
0
 10
25.3604
 20
13.262
 30
0.0
 11
23.7089
 21
11.4279
 31
0.0
  0
LINE
  5
211
  8
0
 10
23.7089
 20
11.4279
 30
0.0
 11
23.8015
 21
10.9626
 31
0.0
  0
LINE
  5
212
  8
0
 10
23.8015
 20
10.9626
 30
0.0
 11
23.6805
 21
10.3546
 31
0.0
  0
LINE
  5
213
  8
0
 10
23.6805
 20
10.3546
 30
0.0
 11
23.3362
 21
9.83922
 31
0.0
  0
LINE
  5
214
  8
0
 10
23.3362
 20
9.83922
 30
0.0
 11
22.8207
 21
9.49483
 31
0.0
  0
LINE
  5
215
  8
0
 10
22.8207
 20
9.49483
 30
0.0
 11
22.2208
 21
9.3755
 31
0.0
  0
LINE
  5
216
  8
0
 10
22.2208
 20
9.3755
 30
0.0
 11
20.9986
 21
7.25851
 31
0.0
  0
LINE
  5
217
  8
0
 10
20.9986
 20
7.25851
 30
0.0
 11
20.82
 21
6.70889
 31
0.0
  0
LINE
  5
218
  8
0
 10
20.82
 20
6.70889
 30
0.0
 11
21.0746
 21
6.25435
 31
0.0
  0
LINE
  5
219
  8
0
 10
21.0746
 20
6.25435
 30
0.0
 11
21.1474
 21
5.63875
 31
0.0
  0
LINE
  5
21A
  8
0
 10
21.1474
 20
5.63875
 30
0.0
 11
20.9792
 21
5.04211
 31
0.0
  0
LINE
  5
21B
  8
0
 10
20.9792
 20
5.04211
 30
0.0
 11
20.5954
 21
4.5553
 31
0.0
  0
LINE
  5
21C
  8
0
 10
20.5954
 20
4.5553
 30
0.0
 11
20.0545
 21
4.25241
 31
0.0
  0
LINE
  5
21D
  8
0
 10
20.0545
 20
4.25241
 30
0.0
 11
20.0206
 21
4.24838
 31
0.0
  0
LINE
  5
21E
  8
0
 10
20.0206
 20
4.24838
 30
0.0
 11
19.8457
 21
3.71034
 31
0.0
  0
LINE
  5
21F
  8
0
 10
19.8457
 20
3.71034
 30
0.0
 11
19.5878
 21
1.25583
 31
0.0
  0
LINE
  5
220
  8
0
 10
19.5878
 20
1.25583
 30
0.0
 11
19.9361
 21
0.933838
 31
0.0
  0
LINE
  5
221
  8
0
 10
19.9361
 20
0.933838
 30
0.0
 11
20.1956
 21
0.37088
 31
0.0
  0
LINE
  5
222
  8
0
 10
20.1956
 20
0.37088
 30
0.0
 11
20.2199
 21
-0.24852
 31
0.0
  0
LINE
  5
223
  8
0
 10
20.2199
 20
-0.24852
 30
0.0
 11
20.0054
 21
-0.830109
 31
0.0
  0
LINE
  5
224
  8
0
 10
20.0054
 20
-0.830109
 30
0.0
 11
19.5902
 21
-1.27924
 31
0.0
  0
LINE
  5
225
  8
0
 10
19.5902
 20
-1.27924
 30
0.0
 11
19.8457
 21
-3.71034
 31
0.0
  0
LINE
  5
226
  8
0
 10
19.8457
 20
-3.71034
 30
0.0
 11
20.0243
 21
-4.25996
 31
0.0
  0
LINE
  5
227
  8
0
 10
20.0243
 20
-4.25996
 30
0.0
 11
20.4974
 21
-4.47807
 31
0.0
  0
LINE
  5
228
  8
0
 10
20.4974
 20
-4.47807
 30
0.0
 11
20.9182
 21
-4.93327
 31
0.0
  0
LINE
  5
229
  8
0
 10
20.9182
 20
-4.93327
 30
0.0
 11
21.1328
 21
-5.51486
 31
0.0
  0
LINE
  5
22A
  8
0
 10
21.1328
 20
-5.51486
 30
0.0
 11
21.1084
 21
-6.13428
 31
0.0
  0
LINE
  5
22B
  8
0
 10
21.1084
 20
-6.13428
 30
0.0
 11
20.8489
 21
-6.69724
 31
0.0
  0
LINE
  5
22C
  8
0
 10
20.8489
 20
-6.69724
 30
0.0
 11
20.8238
 21
-6.72047
 31
0.0
  0
LINE
  5
22D
  8
0
 10
20.8238
 20
-6.72047
 30
0.0
 11
20.9986
 21
-7.25851
 31
0.0
  0
LINE
  5
22E
  8
0
 10
20.9986
 20
-7.25851
 30
0.0
 11
22.2326
 21
-9.39589
 31
0.0
  0
LINE
  5
22F
  8
0
 10
22.2326
 20
-9.39589
 30
0.0
 11
22.7037
 21
-9.45164
 31
0.0
  0
LINE
  5
230
  8
0
 10
22.7037
 20
-9.45164
 30
0.0
 11
23.2445
 21
-9.75455
 31
0.0
  0
LINE
  5
231
  8
0
 10
23.2445
 20
-9.75455
 30
0.0
 11
23.6283
 21
-10.2414
 31
0.0
  0
LINE
  5
232
  8
0
 10
23.6283
 20
-10.2414
 30
0.0
 11
23.7966
 21
-10.838
 31
0.0
  0
LINE
  5
233
  8
0
 10
23.7966
 20
-10.838
 30
0.0
 11
23.7247
 21
-11.4454
 31
0.0
  0
LINE
  5
234
  8
0
 10
23.7247
 20
-11.4454
 30
0.0
 11
25.3604
 21
-13.262
 31
0.0
  0
LINE
  5
235
  8
0
 10
25.3604
 20
-13.262
 30
0.0
 11
25.8279
 21
-13.6017
 31
0.0
  0
LINE
  5
236
  8
0
 10
25.8279
 20
-13.6017
 30
0.0
 11
26.3389
 21
-13.5
 31
0.0
  0
LINE
  5
237
  8
0
 10
26.3389
 20
-13.5
 30
0.0
 11
26.9469
 21
-13.621
 31
0.0
  0
LINE
  5
238
  8
0
 10
26.9469
 20
-13.621
 30
0.0
 11
27.4623
 21
-13.9654
 31
0.0
  0
LINE
  5
239
  8
0
 10
27.4623
 20
-13.9654
 30
0.0
 11
27.8067
 21
-14.4808
 31
0.0
  0
LINE
  5
23A
  8
0
 10
27.8067
 20
-14.4808
 30
0.0
 11
27.9276
 21
-15.0888
 31
0.0
  0
LINE
  5
23B
  8
0
 10
27.9276
 20
-15.0888
 30
0.0
 11
27.9209
 21
-15.1223
 31
0.0
  0
LINE
  5
23C
  8
0
 10
27.9209
 20
-15.1223
 30
0.0
 11
28.3786
 21
-15.4549
 31
0.0
  0
LINE
  5
23D
  8
0
 10
28.3786
 20
-15.4549
 30
0.0
 11
30.6333
 21
-16.4587
 31
0.0
  0
LINE
  5
23E
  8
0
 10
30.6333
 20
-16.4587
 30
0.0
 11
31.0472
 21
-16.2269
 31
0.0
  0
LINE
  5
23F
  8
0
 10
31.0472
 20
-16.2269
 30
0.0
 11
31.6628
 21
-16.1541
 31
0.0
  0
LINE
  5
240
  8
0
 10
31.6628
 20
-16.1541
 30
0.0
 11
32.2594
 21
-16.3223
 31
0.0
  0
LINE
  5
241
  8
0
 10
32.2594
 20
-16.3223
 30
0.0
 11
32.7462
 21
-16.7061
 31
0.0
  0
LINE
  5
242
  8
0
 10
32.7462
 20
-16.7061
 30
0.0
 11
33.0451
 21
-17.2398
 31
0.0
  0
LINE
  5
243
  8
0
 10
33.0451
 20
-17.2398
 30
0.0
 11
35.4361
 21
-17.748
 31
0.0
  0
LINE
  5
244
  8
0
 10
35.4361
 20
-17.748
 30
0.0
 11
36.014
 21
-17.748
 31
0.0
  0
LINE
  5
245
  8
0
 10
35.8551
 20
-6.33702
 30
0.0
 11
34.0515
 21
-5.62915
 31
0.0
  0
LINE
  5
246
  8
0
 10
34.0515
 20
-5.62915
 30
0.0
 11
32.5367
 21
-4.42111
 31
0.0
  0
LINE
  5
247
  8
0
 10
32.5367
 20
-4.42111
 30
0.0
 11
31.4452
 21
-2.82024
 31
0.0
  0
LINE
  5
248
  8
0
 10
31.4452
 20
-2.82024
 30
0.0
 11
30.8741
 21
-0.968765
 31
0.0
  0
LINE
  5
249
  8
0
 10
30.8741
 20
-0.968765
 30
0.0
 11
30.8741
 21
0.968765
 31
0.0
  0
LINE
  5
24A
  8
0
 10
30.8741
 20
0.968765
 30
0.0
 11
31.4452
 21
2.82024
 31
0.0
  0
LINE
  5
24B
  8
0
 10
31.4452
 20
2.82024
 30
0.0
 11
32.5367
 21
4.42111
 31
0.0
  0
LINE
  5
24C
  8
0
 10
32.5367
 20
4.42111
 30
0.0
 11
34.0515
 21
5.62915
 31
0.0
  0
LINE
  5
24D
  8
0
 10
34.0515
 20
5.62915
 30
0.0
 11
35.8551
 21
6.33702
 31
0.0
  0
LINE
  5
24E
  8
0
 10
35.8551
 20
6.33702
 30
0.0
 11
37.7873
 21
6.48181
 31
0.0
  0
LINE
  5
24F
  8
0
 10
37.7873
 20
6.48181
 30
0.0
 11
39.6762
 21
6.05067
 31
0.0
  0
LINE
  5
250
  8
0
 10
39.6762
 20
6.05067
 30
0.0
 11
41.3542
 21
5.08189
 31
0.0
  0
LINE
  5
251
  8
0
 10
41.3542
 20
5.08189
 30
0.0
 11
42.6721
 21
3.66158
 31
0.0
  0
LINE
  5
252
  8
0
 10
42.6721
 20
3.66158
 30
0.0
 11
43.5127
 21
1.91589
 31
0.0
  0
LINE
  5
253
  8
0
 10
43.5127
 20
1.91589
 30
0.0
 11
43.8015
 21
0.0
 31
0.0
  0
LINE
  5
254
  8
0
 10
43.8015
 20
0.0
 30
0.0
 11
43.5127
 21
-1.91589
 31
0.0
  0
LINE
  5
255
  8
0
 10
43.5127
 20
-1.91589
 30
0.0
 11
42.6721
 21
-3.66158
 31
0.0
  0
LINE
  5
256
  8
0
 10
42.6721
 20
-3.66158
 30
0.0
 11
41.3542
 21
-5.08189
 31
0.0
  0
LINE
  5
257
  8
0
 10
41.3542
 20
-5.08189
 30
0.0
 11
39.6762
 21
-6.05067
 31
0.0
  0
LINE
  5
258
  8
0
 10
39.6762
 20
-6.05067
 30
0.0
 11
37.7873
 21
-6.48181
 31
0.0
  0
LINE
  5
259
  8
0
 10
37.7873
 20
-6.48181
 30
0.0
 11
35.8551
 21
-6.33702
 31
0.0
  0
LINE
  5
25A
  8
0
 10
47.8518
 20
-1.28499
 30
0.0
 11
47.8518
 21
1.28499
 31
0.0
  0
LINE
  5
25B
  8
0
 10
47.8518
 20
1.28499
 30
0.0
 11
51.902
 21
1.28499
 31
0.0
  0
LINE
  5
25C
  8
0
 10
51.902
 20
1.28499
 30
0.0
 11
51.902
 21
-1.28499
 31
0.0
  0
LINE
  5
25D
  8
0
 10
51.902
 20
-1.28499
 30
0.0
 11
47.8518
 21
-1.28499
 31
0.0
  0
LINE
  5
25E
  8
0
 10
1.80524
 20
-17.5498
 30
0.0
 11
3.68384
 21
-17.2523
 31
0.0
  0
LINE
  5
25F
  8
0
 10
3.68384
 20
-17.2523
 30
0.0
 11
3.68436
 21
-17.2388
 31
0.0
  0
LINE
  5
260
  8
0
 10
3.68436
 20
-17.2388
 30
0.0
 11
4.03363
 21
-16.4812
 31
0.0
  0
LINE
  5
261
  8
0
 10
4.03363
 20
-16.4812
 30
0.0
 11
4.64624
 21
-15.9149
 31
0.0
  0
LINE
  5
262
  8
0
 10
4.64624
 20
-15.9149
 30
0.0
 11
5.42892
 21
-15.6261
 31
0.0
  0
LINE
  5
263
  8
0
 10
5.42892
 20
-15.6261
 30
0.0
 11
6.26253
 21
-15.6589
 31
0.0
  0
LINE
  5
264
  8
0
 10
6.26253
 20
-15.6589
 30
0.0
 11
7.02014
 21
-16.0081
 31
0.0
  0
LINE
  5
265
  8
0
 10
7.02014
 20
-16.0081
 30
0.0
 11
7.14561
 21
-16.1439
 31
0.0
  0
LINE
  5
266
  8
0
 10
7.14561
 20
-16.1439
 30
0.0
 11
7.14008
 21
-16.133
 31
0.0
  0
LINE
  5
267
  8
0
 10
7.14008
 20
-16.133
 30
0.0
 11
8.83478
 21
-15.2695
 31
0.0
  0
LINE
  5
268
  8
0
 10
8.83478
 20
-15.2695
 30
0.0
 11
8.83112
 21
-15.2565
 31
0.0
  0
LINE
  5
269
  8
0
 10
8.83112
 20
-15.2565
 30
0.0
 11
8.92917
 21
-14.4281
 31
0.0
  0
LINE
  5
26A
  8
0
 10
8.92917
 20
-14.4281
 30
0.0
 11
9.33681
 21
-13.7002
 31
0.0
  0
LINE
  5
26B
  8
0
 10
9.33681
 20
-13.7002
 30
0.0
 11
9.99196
 21
-13.1837
 31
0.0
  0
LINE
  5
26C
  8
0
 10
9.99196
 20
-13.1837
 30
0.0
 11
10.7949
 21
-12.9573
 31
0.0
  0
LINE
  5
26D
  8
0
 10
10.7949
 20
-12.9573
 30
0.0
 11
11.6234
 21
-13.0553
 31
0.0
  0
LINE
  5
26E
  8
0
 10
11.6234
 20
-13.0553
 30
0.0
 11
11.7846
 21
-13.1456
 31
0.0
  0
LINE
  5
26F
  8
0
 10
11.7846
 20
-13.1456
 30
0.0
 11
11.776
 21
-13.137
 31
0.0
  0
LINE
  5
270
  8
0
 10
11.776
 20
-13.137
 30
0.0
 11
13.1209
 21
-11.7921
 31
0.0
  0
LINE
  5
271
  8
0
 10
13.1209
 20
-11.7921
 30
0.0
 11
13.1134
 21
-11.7809
 31
0.0
  0
LINE
  5
272
  8
0
 10
13.1134
 20
-11.7809
 30
0.0
 11
12.9507
 21
-10.9626
 31
0.0
  0
LINE
  5
273
  8
0
 10
12.9507
 20
-10.9626
 30
0.0
 11
13.1134
 21
-10.1444
 31
0.0
  0
LINE
  5
274
  8
0
 10
13.1134
 20
-10.1444
 30
0.0
 11
13.5769
 21
-9.45076
 31
0.0
  0
LINE
  5
275
  8
0
 10
13.5769
 20
-9.45076
 30
0.0
 11
14.2706
 21
-8.98727
 31
0.0
  0
LINE
  5
276
  8
0
 10
14.2706
 20
-8.98727
 30
0.0
 11
15.0888
 21
-8.82452
 31
0.0
  0
LINE
  5
277
  8
0
 10
15.0888
 20
-8.82452
 30
0.0
 11
15.2701
 21
-8.86058
 31
0.0
  0
LINE
  5
278
  8
0
 10
15.2701
 20
-8.86058
 30
0.0
 11
15.2592
 21
-8.85504
 31
0.0
  0
LINE
  5
279
  8
0
 10
15.2592
 20
-8.85504
 30
0.0
 11
16.1227
 21
-7.16034
 31
0.0
  0
LINE
  5
27A
  8
0
 10
16.1227
 20
-7.16034
 30
0.0
 11
16.1121
 21
-7.15199
 31
0.0
  0
LINE
  5
27B
  8
0
 10
16.1121
 20
-7.15199
 30
0.0
 11
15.7045
 21
-6.4241
 31
0.0
  0
LINE
  5
27C
  8
0
 10
15.7045
 20
-6.4241
 30
0.0
 11
15.6064
 21
-5.59564
 31
0.0
  0
LINE
  5
27D
  8
0
 10
15.6064
 20
-5.59564
 30
0.0
 11
15.8329
 21
-4.79271
 31
0.0
  0
LINE
  5
27E
  8
0
 10
15.8329
 20
-4.79271
 30
0.0
 11
16.3493
 21
-4.13756
 31
0.0
  0
LINE
  5
27F
  8
0
 10
16.3493
 20
-4.13756
 30
0.0
 11
17.0772
 21
-3.72993
 31
0.0
  0
LINE
  5
280
  8
0
 10
17.0772
 20
-3.72993
 30
0.0
 11
17.2608
 21
-3.70821
 31
0.0
  0
LINE
  5
281
  8
0
 10
17.2608
 20
-3.70821
 30
0.0
 11
17.2487
 21
-3.7063
 31
0.0
  0
LINE
  5
282
  8
0
 10
17.2487
 20
-3.7063
 30
0.0
 11
17.5462
 21
-1.8277
 31
0.0
  0
LINE
  5
283
  8
0
 10
17.5462
 20
-1.8277
 30
0.0
 11
17.5336
 21
-1.82303
 31
0.0
  0
LINE
  5
284
  8
0
 10
17.5336
 20
-1.82303
 30
0.0
 11
16.921
 21
-1.25674
 31
0.0
  0
LINE
  5
285
  8
0
 10
16.921
 20
-1.25674
 30
0.0
 11
16.5717
 21
-0.49913
 31
0.0
  0
LINE
  5
286
  8
0
 10
16.5717
 20
-0.49913
 30
0.0
 11
16.539
 21
0.334473
 31
0.0
  0
LINE
  5
287
  8
0
 10
16.539
 20
0.334473
 30
0.0
 11
16.8277
 21
1.11716
 31
0.0
  0
LINE
  5
288
  8
0
 10
16.8277
 20
1.11716
 30
0.0
 11
17.394
 21
1.72977
 31
0.0
  0
LINE
  5
289
  8
0
 10
17.394
 20
1.72977
 30
0.0
 11
17.5619
 21
1.80714
 31
0.0
  0
LINE
  5
28A
  8
0
 10
17.5619
 20
1.80714
 30
0.0
 11
17.5498
 21
1.80524
 31
0.0
  0
LINE
  5
28B
  8
0
 10
17.5498
 20
1.80524
 30
0.0
 11
17.2523
 21
3.68384
 31
0.0
  0
LINE
  5
28C
  8
0
 10
17.2523
 20
3.68384
 30
0.0
 11
17.2388
 21
3.68436
 31
0.0
  0
LINE
  5
28D
  8
0
 10
17.2388
 20
3.68436
 30
0.0
 11
16.4812
 21
4.03363
 31
0.0
  0
LINE
  5
28E
  8
0
 10
16.4812
 20
4.03363
 30
0.0
 11
15.9149
 21
4.64624
 31
0.0
  0
LINE
  5
28F
  8
0
 10
15.9149
 20
4.64624
 30
0.0
 11
15.6261
 21
5.42892
 31
0.0
  0
LINE
  5
290
  8
0
 10
15.6261
 20
5.42892
 30
0.0
 11
15.6589
 21
6.26253
 31
0.0
  0
LINE
  5
291
  8
0
 10
15.6589
 20
6.26253
 30
0.0
 11
16.0081
 21
7.02014
 31
0.0
  0
LINE
  5
292
  8
0
 10
16.0081
 20
7.02014
 30
0.0
 11
16.1439
 21
7.14561
 31
0.0
  0
LINE
  5
293
  8
0
 10
16.1439
 20
7.14561
 30
0.0
 11
16.133
 21
7.14008
 31
0.0
  0
LINE
  5
294
  8
0
 10
16.133
 20
7.14008
 30
0.0
 11
15.2695
 21
8.83478
 31
0.0
  0
LINE
  5
295
  8
0
 10
15.2695
 20
8.83478
 30
0.0
 11
15.2565
 21
8.83112
 31
0.0
  0
LINE
  5
296
  8
0
 10
15.2565
 20
8.83112
 30
0.0
 11
14.4281
 21
8.92917
 31
0.0
  0
LINE
  5
297
  8
0
 10
14.4281
 20
8.92917
 30
0.0
 11
13.7002
 21
9.33681
 31
0.0
  0
LINE
  5
298
  8
0
 10
13.7002
 20
9.33681
 30
0.0
 11
13.1837
 21
9.99196
 31
0.0
  0
LINE
  5
299
  8
0
 10
13.1837
 20
9.99196
 30
0.0
 11
12.9573
 21
10.7949
 31
0.0
  0
LINE
  5
29A
  8
0
 10
12.9573
 20
10.7949
 30
0.0
 11
13.0553
 21
11.6234
 31
0.0
  0
LINE
  5
29B
  8
0
 10
13.0553
 20
11.6234
 30
0.0
 11
13.1456
 21
11.7846
 31
0.0
  0
LINE
  5
29C
  8
0
 10
13.1456
 20
11.7846
 30
0.0
 11
13.137
 21
11.776
 31
0.0
  0
LINE
  5
29D
  8
0
 10
13.137
 20
11.776
 30
0.0
 11
11.7921
 21
13.1209
 31
0.0
  0
LINE
  5
29E
  8
0
 10
11.7921
 20
13.1209
 30
0.0
 11
11.7809
 21
13.1134
 31
0.0
  0
LINE
  5
29F
  8
0
 10
11.7809
 20
13.1134
 30
0.0
 11
10.9626
 21
12.9507
 31
0.0
  0
LINE
  5
2A0
  8
0
 10
10.9626
 20
12.9507
 30
0.0
 11
10.1444
 21
13.1134
 31
0.0
  0
LINE
  5
2A1
  8
0
 10
10.1444
 20
13.1134
 30
0.0
 11
9.45076
 21
13.5769
 31
0.0
  0
LINE
  5
2A2
  8
0
 10
9.45076
 20
13.5769
 30
0.0
 11
8.98727
 21
14.2706
 31
0.0
  0
LINE
  5
2A3
  8
0
 10
8.98727
 20
14.2706
 30
0.0
 11
8.82452
 21
15.0888
 31
0.0
  0
LINE
  5
2A4
  8
0
 10
8.82452
 20
15.0888
 30
0.0
 11
8.86058
 21
15.2701
 31
0.0
  0
LINE
  5
2A5
  8
0
 10
8.86058
 20
15.2701
 30
0.0
 11
8.85504
 21
15.2592
 31
0.0
  0
LINE
  5
2A6
  8
0
 10
8.85504
 20
15.2592
 30
0.0
 11
7.16034
 21
16.1227
 31
0.0
  0
LINE
  5
2A7
  8
0
 10
7.16034
 20
16.1227
 30
0.0
 11
7.15199
 21
16.1121
 31
0.0
  0
LINE
  5
2A8
  8
0
 10
7.15199
 20
16.1121
 30
0.0
 11
6.4241
 21
15.7045
 31
0.0
  0
LINE
  5
2A9
  8
0
 10
6.4241
 20
15.7045
 30
0.0
 11
5.59564
 21
15.6064
 31
0.0
  0
LINE
  5
2AA
  8
0
 10
5.59564
 20
15.6064
 30
0.0
 11
4.79271
 21
15.8329
 31
0.0
  0
LINE
  5
2AB
  8
0
 10
4.79271
 20
15.8329
 30
0.0
 11
4.13756
 21
16.3493
 31
0.0
  0
LINE
  5
2AC
  8
0
 10
4.13756
 20
16.3493
 30
0.0
 11
3.72993
 21
17.0772
 31
0.0
  0
LINE
  5
2AD
  8
0
 10
3.72993
 20
17.0772
 30
0.0
 11
3.70821
 21
17.2608
 31
0.0
  0
LINE
  5
2AE
  8
0
 10
3.70821
 20
17.2608
 30
0.0
 11
3.7063
 21
17.2487
 31
0.0
  0
LINE
  5
2AF
  8
0
 10
3.7063
 20
17.2487
 30
0.0
 11
1.8277
 21
17.5462
 31
0.0
  0
LINE
  5
2B0
  8
0
 10
1.8277
 20
17.5462
 30
0.0
 11
1.82303
 21
17.5336
 31
0.0
  0
LINE
  5
2B1
  8
0
 10
1.82303
 20
17.5336
 30
0.0
 11
1.25674
 21
16.921
 31
0.0
  0
LINE
  5
2B2
  8
0
 10
1.25674
 20
16.921
 30
0.0
 11
0.49913
 21
16.5717
 31
0.0
  0
LINE
  5
2B3
  8
0
 10
0.49913
 20
16.5717
 30
0.0
 11
-0.334473
 21
16.539
 31
0.0
  0
LINE
  5
2B4
  8
0
 10
-0.334473
 20
16.539
 30
0.0
 11
-1.11716
 21
16.8277
 31
0.0
  0
LINE
  5
2B5
  8
0
 10
-1.11716
 20
16.8277
 30
0.0
 11
-1.72977
 21
17.394
 31
0.0
  0
LINE
  5
2B6
  8
0
 10
-1.72977
 20
17.394
 30
0.0
 11
-1.80714
 21
17.5619
 31
0.0
  0
LINE
  5
2B7
  8
0
 10
-1.80714
 20
17.5619
 30
0.0
 11
-1.80524
 21
17.5498
 31
0.0
  0
LINE
  5
2B8
  8
0
 10
-1.80524
 20
17.5498
 30
0.0
 11
-3.68384
 21
17.2523
 31
0.0
  0
LINE
  5
2B9
  8
0
 10
-3.68384
 20
17.2523
 30
0.0
 11
-3.68436
 21
17.2388
 31
0.0
  0
LINE
  5
2BA
  8
0
 10
-3.68436
 20
17.2388
 30
0.0
 11
-4.03363
 21
16.4812
 31
0.0
  0
LINE
  5
2BB
  8
0
 10
-4.03363
 20
16.4812
 30
0.0
 11
-4.64624
 21
15.9149
 31
0.0
  0
LINE
  5
2BC
  8
0
 10
-4.64624
 20
15.9149
 30
0.0
 11
-5.42892
 21
15.6261
 31
0.0
  0
LINE
  5
2BD
  8
0
 10
-5.42892
 20
15.6261
 30
0.0
 11
-6.26253
 21
15.6589
 31
0.0
  0
LINE
  5
2BE
  8
0
 10
-6.26253
 20
15.6589
 30
0.0
 11
-7.02014
 21
16.0081
 31
0.0
  0
LINE
  5
2BF
  8
0
 10
-7.02014
 20
16.0081
 30
0.0
 11
-7.14561
 21
16.1439
 31
0.0
  0
LINE
  5
2C0
  8
0
 10
-7.14561
 20
16.1439
 30
0.0
 11
-7.14008
 21
16.133
 31
0.0
  0
LINE
  5
2C1
  8
0
 10
-7.14008
 20
16.133
 30
0.0
 11
-8.83478
 21
15.2695
 31
0.0
  0
LINE
  5
2C2
  8
0
 10
-8.83478
 20
15.2695
 30
0.0
 11
-8.83112
 21
15.2565
 31
0.0
  0
LINE
  5
2C3
  8
0
 10
-8.83112
 20
15.2565
 30
0.0
 11
-8.92917
 21
14.4281
 31
0.0
  0
LINE
  5
2C4
  8
0
 10
-8.92917
 20
14.4281
 30
0.0
 11
-9.33681
 21
13.7002
 31
0.0
  0
LINE
  5
2C5
  8
0
 10
-9.33681
 20
13.7002
 30
0.0
 11
-9.99196
 21
13.1837
 31
0.0
  0
LINE
  5
2C6
  8
0
 10
-9.99196
 20
13.1837
 30
0.0
 11
-10.7949
 21
12.9573
 31
0.0
  0
LINE
  5
2C7
  8
0
 10
-10.7949
 20
12.9573
 30
0.0
 11
-11.6234
 21
13.0553
 31
0.0
  0
LINE
  5
2C8
  8
0
 10
-11.6234
 20
13.0553
 30
0.0
 11
-11.7846
 21
13.1456
 31
0.0
  0
LINE
  5
2C9
  8
0
 10
-11.7846
 20
13.1456
 30
0.0
 11
-11.776
 21
13.137
 31
0.0
  0
LINE
  5
2CA
  8
0
 10
-11.776
 20
13.137
 30
0.0
 11
-13.1209
 21
11.7921
 31
0.0
  0
LINE
  5
2CB
  8
0
 10
-13.1209
 20
11.7921
 30
0.0
 11
-13.1134
 21
11.7809
 31
0.0
  0
LINE
  5
2CC
  8
0
 10
-13.1134
 20
11.7809
 30
0.0
 11
-12.9507
 21
10.9626
 31
0.0
  0
LINE
  5
2CD
  8
0
 10
-12.9507
 20
10.9626
 30
0.0
 11
-13.1134
 21
10.1444
 31
0.0
  0
LINE
  5
2CE
  8
0
 10
-13.1134
 20
10.1444
 30
0.0
 11
-13.5769
 21
9.45076
 31
0.0
  0
LINE
  5
2CF
  8
0
 10
-13.5769
 20
9.45076
 30
0.0
 11
-14.2706
 21
8.98727
 31
0.0
  0
LINE
  5
2D0
  8
0
 10
-14.2706
 20
8.98727
 30
0.0
 11
-15.0888
 21
8.82452
 31
0.0
  0
LINE
  5
2D1
  8
0
 10
-15.0888
 20
8.82452
 30
0.0
 11
-15.2701
 21
8.86058
 31
0.0
  0
LINE
  5
2D2
  8
0
 10
-15.2701
 20
8.86058
 30
0.0
 11
-15.2592
 21
8.85504
 31
0.0
  0
LINE
  5
2D3
  8
0
 10
-15.2592
 20
8.85504
 30
0.0
 11
-16.1227
 21
7.16034
 31
0.0
  0
LINE
  5
2D4
  8
0
 10
-16.1227
 20
7.16034
 30
0.0
 11
-16.1121
 21
7.15199
 31
0.0
  0
LINE
  5
2D5
  8
0
 10
-16.1121
 20
7.15199
 30
0.0
 11
-15.7045
 21
6.4241
 31
0.0
  0
LINE
  5
2D6
  8
0
 10
-15.7045
 20
6.4241
 30
0.0
 11
-15.6064
 21
5.59564
 31
0.0
  0
LINE
  5
2D7
  8
0
 10
-15.6064
 20
5.59564
 30
0.0
 11
-15.8329
 21
4.79271
 31
0.0
  0
LINE
  5
2D8
  8
0
 10
-15.8329
 20
4.79271
 30
0.0
 11
-16.3493
 21
4.13756
 31
0.0
  0
LINE
  5
2D9
  8
0
 10
-16.3493
 20
4.13756
 30
0.0
 11
-17.0772
 21
3.72993
 31
0.0
  0
LINE
  5
2DA
  8
0
 10
-17.0772
 20
3.72993
 30
0.0
 11
-17.2608
 21
3.70821
 31
0.0
  0
LINE
  5
2DB
  8
0
 10
-17.2608
 20
3.70821
 30
0.0
 11
-17.2487
 21
3.7063
 31
0.0
  0
LINE
  5
2DC
  8
0
 10
-17.2487
 20
3.7063
 30
0.0
 11
-17.5462
 21
1.8277
 31
0.0
  0
LINE
  5
2DD
  8
0
 10
-17.5462
 20
1.8277
 30
0.0
 11
-17.5336
 21
1.82303
 31
0.0
  0
LINE
  5
2DE
  8
0
 10
-17.5336
 20
1.82303
 30
0.0
 11
-16.921
 21
1.25674
 31
0.0
  0
LINE
  5
2DF
  8
0
 10
-16.921
 20
1.25674
 30
0.0
 11
-16.5717
 21
0.49913
 31
0.0
  0
LINE
  5
2E0
  8
0
 10
-16.5717
 20
0.49913
 30
0.0
 11
-16.539
 21
-0.334473
 31
0.0
  0
LINE
  5
2E1
  8
0
 10
-16.539
 20
-0.334473
 30
0.0
 11
-16.8277
 21
-1.11716
 31
0.0
  0
LINE
  5
2E2
  8
0
 10
-16.8277
 20
-1.11716
 30
0.0
 11
-17.394
 21
-1.72977
 31
0.0
  0
LINE
  5
2E3
  8
0
 10
-17.394
 20
-1.72977
 30
0.0
 11
-17.5619
 21
-1.80714
 31
0.0
  0
LINE
  5
2E4
  8
0
 10
-17.5619
 20
-1.80714
 30
0.0
 11
-17.5498
 21
-1.80524
 31
0.0
  0
LINE
  5
2E5
  8
0
 10
-17.5498
 20
-1.80524
 30
0.0
 11
-17.2523
 21
-3.68384
 31
0.0
  0
LINE
  5
2E6
  8
0
 10
-17.2523
 20
-3.68384
 30
0.0
 11
-17.2388
 21
-3.68436
 31
0.0
  0
LINE
  5
2E7
  8
0
 10
-17.2388
 20
-3.68436
 30
0.0
 11
-16.4812
 21
-4.03363
 31
0.0
  0
LINE
  5
2E8
  8
0
 10
-16.4812
 20
-4.03363
 30
0.0
 11
-15.9149
 21
-4.64624
 31
0.0
  0
LINE
  5
2E9
  8
0
 10
-15.9149
 20
-4.64624
 30
0.0
 11
-15.6261
 21
-5.42892
 31
0.0
  0
LINE
  5
2EA
  8
0
 10
-15.6261
 20
-5.42892
 30
0.0
 11
-15.6589
 21
-6.26253
 31
0.0
  0
LINE
  5
2EB
  8
0
 10
-15.6589
 20
-6.26253
 30
0.0
 11
-16.0081
 21
-7.02014
 31
0.0
  0
LINE
  5
2EC
  8
0
 10
-16.0081
 20
-7.02014
 30
0.0
 11
-16.1439
 21
-7.14561
 31
0.0
  0
LINE
  5
2ED
  8
0
 10
-16.1439
 20
-7.14561
 30
0.0
 11
-16.133
 21
-7.14008
 31
0.0
  0
LINE
  5
2EE
  8
0
 10
-16.133
 20
-7.14008
 30
0.0
 11
-15.2695
 21
-8.83478
 31
0.0
  0
LINE
  5
2EF
  8
0
 10
-15.2695
 20
-8.83478
 30
0.0
 11
-15.2565
 21
-8.83112
 31
0.0
  0
LINE
  5
2F0
  8
0
 10
-15.2565
 20
-8.83112
 30
0.0
 11
-14.4281
 21
-8.92917
 31
0.0
  0
LINE
  5
2F1
  8
0
 10
-14.4281
 20
-8.92917
 30
0.0
 11
-13.7002
 21
-9.33681
 31
0.0
  0
LINE
  5
2F2
  8
0
 10
-13.7002
 20
-9.33681
 30
0.0
 11
-13.1837
 21
-9.99196
 31
0.0
  0
LINE
  5
2F3
  8
0
 10
-13.1837
 20
-9.99196
 30
0.0
 11
-12.9573
 21
-10.7949
 31
0.0
  0
LINE
  5
2F4
  8
0
 10
-12.9573
 20
-10.7949
 30
0.0
 11
-13.0553
 21
-11.6234
 31
0.0
  0
LINE
  5
2F5
  8
0
 10
-13.0553
 20
-11.6234
 30
0.0
 11
-13.1456
 21
-11.7846
 31
0.0
  0
LINE
  5
2F6
  8
0
 10
-13.1456
 20
-11.7846
 30
0.0
 11
-13.137
 21
-11.776
 31
0.0
  0
LINE
  5
2F7
  8
0
 10
-13.137
 20
-11.776
 30
0.0
 11
-11.7921
 21
-13.1209
 31
0.0
  0
LINE
  5
2F8
  8
0
 10
-11.7921
 20
-13.1209
 30
0.0
 11
-11.7809
 21
-13.1134
 31
0.0
  0
LINE
  5
2F9
  8
0
 10
-11.7809
 20
-13.1134
 30
0.0
 11
-10.9626
 21
-12.9507
 31
0.0
  0
LINE
  5
2FA
  8
0
 10
-10.9626
 20
-12.9507
 30
0.0
 11
-10.1444
 21
-13.1134
 31
0.0
  0
LINE
  5
2FB
  8
0
 10
-10.1444
 20
-13.1134
 30
0.0
 11
-9.45076
 21
-13.5769
 31
0.0
  0
LINE
  5
2FC
  8
0
 10
-9.45076
 20
-13.5769
 30
0.0
 11
-8.98727
 21
-14.2706
 31
0.0
  0
LINE
  5
2FD
  8
0
 10
-8.98727
 20
-14.2706
 30
0.0
 11
-8.82452
 21
-15.0888
 31
0.0
  0
LINE
  5
2FE
  8
0
 10
-8.82452
 20
-15.0888
 30
0.0
 11
-8.86058
 21
-15.2701
 31
0.0
  0
LINE
  5
2FF
  8
0
 10
-8.86058
 20
-15.2701
 30
0.0
 11
-8.85504
 21
-15.2592
 31
0.0
  0
LINE
  5
300
  8
0
 10
-8.85504
 20
-15.2592
 30
0.0
 11
-7.16034
 21
-16.1227
 31
0.0
  0
LINE
  5
301
  8
0
 10
-7.16034
 20
-16.1227
 30
0.0
 11
-7.15199
 21
-16.1121
 31
0.0
  0
LINE
  5
302
  8
0
 10
-7.15199
 20
-16.1121
 30
0.0
 11
-6.4241
 21
-15.7045
 31
0.0
  0
LINE
  5
303
  8
0
 10
-6.4241
 20
-15.7045
 30
0.0
 11
-5.59564
 21
-15.6064
 31
0.0
  0
LINE
  5
304
  8
0
 10
-5.59564
 20
-15.6064
 30
0.0
 11
-4.79271
 21
-15.8329
 31
0.0
  0
LINE
  5
305
  8
0
 10
-4.79271
 20
-15.8329
 30
0.0
 11
-4.13756
 21
-16.3493
 31
0.0
  0
LINE
  5
306
  8
0
 10
-4.13756
 20
-16.3493
 30
0.0
 11
-3.72993
 21
-17.0772
 31
0.0
  0
LINE
  5
307
  8
0
 10
-3.72993
 20
-17.0772
 30
0.0
 11
-3.70821
 21
-17.2608
 31
0.0
  0
LINE
  5
308
  8
0
 10
-3.70821
 20
-17.2608
 30
0.0
 11
-3.7063
 21
-17.2487
 31
0.0
  0
LINE
  5
309
  8
0
 10
-3.7063
 20
-17.2487
 30
0.0
 11
-1.8277
 21
-17.5462
 31
0.0
  0
LINE
  5
30A
  8
0
 10
-1.8277
 20
-17.5462
 30
0.0
 11
-1.82303
 21
-17.5336
 31
0.0
  0
LINE
  5
30B
  8
0
 10
-1.82303
 20
-17.5336
 30
0.0
 11
-1.25674
 21
-16.921
 31
0.0
  0
LINE
  5
30C
  8
0
 10
-1.25674
 20
-16.921
 30
0.0
 11
-0.49913
 21
-16.5717
 31
0.0
  0
LINE
  5
30D
  8
0
 10
-0.49913
 20
-16.5717
 30
0.0
 11
0.334473
 21
-16.539
 31
0.0
  0
LINE
  5
30E
  8
0
 10
0.334473
 20
-16.539
 30
0.0
 11
1.11716
 21
-16.8277
 31
0.0
  0
LINE
  5
30F
  8
0
 10
1.11716
 20
-16.8277
 30
0.0
 11
1.72977
 21
-17.394
 31
0.0
  0
LINE
  5
310
  8
0
 10
1.72977
 20
-17.394
 30
0.0
 11
1.80714
 21
-17.5619
 31
0.0
  0
LINE
  5
311
  8
0
 10
1.80714
 20
-17.5619
 30
0.0
 11
1.80524
 21
-17.5498
 31
0.0
  0
LINE
  5
312
  8
0
 10
-1.44638
 20
-6.33702
 30
0.0
 11
-3.25
 21
-5.62915
 31
0.0
  0
LINE
  5
313
  8
0
 10
-3.25
 20
-5.62915
 30
0.0
 11
-4.76483
 21
-4.42111
 31
0.0
  0
LINE
  5
314
  8
0
 10
-4.76483
 20
-4.42111
 30
0.0
 11
-5.85629
 21
-2.82024
 31
0.0
  0
LINE
  5
315
  8
0
 10
-5.85629
 20
-2.82024
 30
0.0
 11
-6.4274
 21
-0.968765
 31
0.0
  0
LINE
  5
316
  8
0
 10
-6.4274
 20
-0.968765
 30
0.0
 11
-6.4274
 21
0.968765
 31
0.0
  0
LINE
  5
317
  8
0
 10
-6.4274
 20
0.968765
 30
0.0
 11
-5.85629
 21
2.82024
 31
0.0
  0
LINE
  5
318
  8
0
 10
-5.85629
 20
2.82024
 30
0.0
 11
-4.76483
 21
4.42111
 31
0.0
  0
LINE
  5
319
  8
0
 10
-4.76483
 20
4.42111
 30
0.0
 11
-3.25
 21
5.62915
 31
0.0
  0
LINE
  5
31A
  8
0
 10
-3.25
 20
5.62915
 30
0.0
 11
-1.44638
 21
6.33702
 31
0.0
  0
LINE
  5
31B
  8
0
 10
-1.44638
 20
6.33702
 30
0.0
 11
0.485733
 21
6.48181
 31
0.0
  0
LINE
  5
31C
  8
0
 10
0.485733
 20
6.48181
 30
0.0
 11
2.37471
 21
6.05067
 31
0.0
  0
LINE
  5
31D
  8
0
 10
2.37471
 20
6.05067
 30
0.0
 11
4.05267
 21
5.08189
 31
0.0
  0
LINE
  5
31E
  8
0
 10
4.05267
 20
5.08189
 30
0.0
 11
5.37054
 21
3.66158
 31
0.0
  0
LINE
  5
31F
  8
0
 10
5.37054
 20
3.66158
 30
0.0
 11
6.21121
 21
1.91589
 31
0.0
  0
LINE
  5
320
  8
0
 10
6.21121
 20
1.91589
 30
0.0
 11
6.5
 21
0.0
 31
0.0
  0
LINE
  5
321
  8
0
 10
6.5
 20
0.0
 30
0.0
 11
6.21121
 21
-1.91589
 31
0.0
  0
LINE
  5
322
  8
0
 10
6.21121
 20
-1.91589
 30
0.0
 11
5.37054
 21
-3.66158
 31
0.0
  0
LINE
  5
323
  8
0
 10
5.37054
 20
-3.66158
 30
0.0
 11
4.05267
 21
-5.08189
 31
0.0
  0
LINE
  5
324
  8
0
 10
4.05267
 20
-5.08189
 30
0.0
 11
2.37471
 21
-6.05067
 31
0.0
  0
LINE
  5
325
  8
0
 10
2.37471
 20
-6.05067
 30
0.0
 11
0.485733
 21
-6.48181
 31
0.0
  0
LINE
  5
326
  8
0
 10
0.485733
 20
-6.48181
 30
0.0
 11
-1.44638
 21
-6.33702
 31
0.0
  0
LINE
  5
327
  8
0
 10
10.5502
 20
-1.28499
 30
0.0
 11
10.5502
 21
1.28499
 31
0.0
  0
LINE
  5
328
  8
0
 10
10.5502
 20
1.28499
 30
0.0
 11
14.6005
 21
1.28499
 31
0.0
  0
LINE
  5
329
  8
0
 10
14.6005
 20
1.28499
 30
0.0
 11
14.6005
 21
-1.28499
 31
0.0
  0
LINE
  5
32A
  8
0
 10
14.6005
 20
-1.28499
 30
0.0
 11
10.5502
 21
-1.28499
 31
0.0
  0
TEXT
  5
360
  8
0
 62
5
 10
0.0
 20
0.0
 30
0.0
 40
3.0
  1
5
  7
OpenSans-Regular
  0
ENDSEC
  0
EOF
