  0
SECTION
  2
HEADER
  9
$ACADVER
  1
AC1009
  9
$DWGCODEPAGE
  3
ANSI_1252
  9
$INSBASE
 10
0.0
 20
0.0
 30
0.0
  9
$EXTMIN
 10
1e+20
 20
1e+20
 30
1e+20
  9
$EXTMAX
 10
-1e+20
 20
-1e+20
 30
-1e+20
  9
$LIMMIN
 10
0.0
 20
0.0
  9
$LIMMAX
 10
420.0
 20
297.0
  9
$ORTHOMODE
 70
0
  9
$REGENMODE
 70
1
  9
$FILLMODE
 70
1
  9
$DRAGMODE
 70
2
  9
$QTEXTMODE
 70
0
  9
$MIRRTEXT
 70
1
  9
$OSMODE
 70
20583
  9
$LTSCALE
 40
1.0
  9
$ATTMODE
 70
1
  9
$TEXTSIZE
 40
2.5
  9
$TRACEWID
 40
1.0
  9
$TEXTSTYLE
  7
Standard
  9
$CLAYER
  8
0
  9
$CELTYPE
  6
ByLayer
  9
$CECOLOR
 62
256
  9
$DIMSCALE
 40
1.0
  9
$DIMASZ
 40
2.5
  9
$DIMEXO
 40
0.625
  9
$DIMDLI
 40
3.75
  9
$DIMRND
 40
0.0
  9
$DIMDLE
 40
0.0
  9
$DIMEXE
 40
1.25
  9
$DIMTP
 40
0.0
  9
$DIMTM
 40
0.0
  9
$DIMTXT
 40
2.5
  9
$DIMCEN
 40
2.5
  9
$DIMTSZ
 40
0.0
  9
$DIMTOL
 70
0
  9
$DIMLIM
 70
0
  9
$DIMTIH
 70
0
  9
$DIMTOH
 70
0
  9
$DIMSE1
 70
0
  9
$DIMSE2
 70
0
  9
$DIMTAD
 70
1
  9
$DIMZIN
 70
8
  9
$DIMBLK
  1

  9
$DIMASO
 70
1
  9
$DIMSHO
 70
1
  9
$DIMPOST
  1

  9
$DIMAPOST
  1

  9
$DIMALT
 70
0
  9
$DIMALTD
 70
3
  9
$DIMALTF
 40
0.03937007874
  9
$DIMLFAC
 40
1.0
  9
$DIMTOFL
 70
1
  9
$DIMTVP
 40
0.0
  9
$DIMTIX
 70
0
  9
$DIMSOXD
 70
0
  9
$DIMSAH
 70
0
  9
$DIMBLK1
  1

  9
$DIMBLK2
  1

  9
$DIMSTYLE
  2
ISO-25
  9
$DIMCLRD
 70
0
  9
$DIMCLRE
 70
0
  9
$DIMCLRT
 70
0
  9
$DIMTFAC
 40
1.0
  9
$DIMGAP
 40
0.625
  9
$COORDS
 70
1
  9
$ATTDIA
 70
0
  9
$ATTREQ
 70
1
  9
$HANDLING
 70
1
  9
$LUNITS
 70
2
  9
$LUPREC
 70
4
  9
$SKETCHINC
 40
1.0
  9
$FILLETRAD
 40
10.0
  9
$AUNITS
 70
0
  9
$AUPREC
 70
2
  9
$MENU
  1
.
  9
$ELEVATION
 40
0.0
  9
$PELEVATION
 40
0.0
  9
$THICKNESS
 40
0.0
  9
$LIMCHECK
 70
0
  9
$CHAMFERA
 40
0.0
  9
$CHAMFERB
 40
0.0
  9
$SKPOLY
 70
0
  9
$TDCREATE
 40
2459989.840925926
  9
$TDUPDATE
 40
2459989.840925926
  9
$TDINDWG
 40
0.0
  9
$TDUSRTIMER
 40
0.0
  9
$USRTIMER
 70
1
  9
$ANGBASE
 50
0.0
  9
$ANGDIR
 70
0
  9
$PDMODE
 70
0
  9
$PDSIZE
 40
0.0
  9
$PLINEWID
 40
0.0
  9
$SPLFRAME
 70
0
  9
$SPLINETYPE
 70
6
  9
$SPLINESEGS
 70
8
  9
$HANDSEED
  5
2EB
  9
$SURFTAB1
 70
6
  9
$SURFTAB2
 70
6
  9
$SURFTYPE
 70
6
  9
$SURFU
 70
6
  9
$SURFV
 70
6
  9
$UCSNAME
  2

  9
$UCSORG
 10
0.0
 20
0.0
 30
0.0
  9
$UCSXDIR
 10
1.0
 20
0.0
 30
0.0
  9
$UCSYDIR
 10
0.0
 20
1.0
 30
0.0
  9
$PUCSNAME
  2

  9
$PUCSORG
 10
0.0
 20
0.0
 30
0.0
  9
$PUCSXDIR
 10
1.0
 20
0.0
 30
0.0
  9
$PUCSYDIR
 10
0.0
 20
1.0
 30
0.0
  9
$USERI1
 70
0
  9
$USERI2
 70
0
  9
$USERI3
 70
0
  9
$USERI4
 70
0
  9
$USERI5
 70
0
  9
$USERR1
 40
0.0
  9
$USERR2
 40
0.0
  9
$USERR3
 40
0.0
  9
$USERR4
 40
0.0
  9
$USERR5
 40
0.0
  9
$WORLDVIEW
 70
1
  9
$SHADEDGE
 70
3
  9
$SHADEDIF
 70
70
  9
$TILEMODE
 70
1
  9
$MAXACTVP
 70
64
  9
$PLIMCHECK
 70
0
  9
$PEXTMIN
 10
1e+20
 20
1e+20
 30
1e+20
  9
$PEXTMAX
 10
-1e+20
 20
-1e+20
 30
-1e+20
  9
$PLIMMIN
 10
0.0
 20
0.0
  9
$PLIMMAX
 10
420.0
 20
297.0
  9
$UNITMODE
 70
0
  9
$VISRETAIN
 70
1
  9
$PLINEGEN
 70
0
  9
$PSLTSCALE
 70
1
  0
ENDSEC
  0
SECTION
  2
TABLES
  0
TABLE
  2
VPORT
 70
1
  0
VPORT
  5
2DE
  2
*Active
 70
0
 10
0.0
 20
0.0
 11
1.0
 21
1.0
 12
0.0
 22
0.0
 13
0.0
 23
0.0
 14
0.5
 24
0.5
 15
0.5
 25
0.5
 16
0.0
 26
0.0
 36
1.0
 17
0.0
 27
0.0
 37
0.0
 40
1000.0
 41
1.34
 42
50.0
 43
0.0
 44
0.0
 50
0.0
 51
0.0
 71
0
 72
1000
 73
1
 74
3
 75
0
 76
0
 77
0
 78
0
  0
ENDTAB
  0
TABLE
  2
LTYPE
 70
3
  0
LTYPE
  5
2DF
  2
ByBlock
 70
0
  3

 72
65
 73
0
 40
0.0
  0
LTYPE
  5
2E0
  2
ByLayer
 70
0
  3

 72
65
 73
0
 40
0.0
  0
LTYPE
  5
2E1
  2
Continuous
 70
0
  3

 72
65
 73
0
 40
0.0
  0
ENDTAB
  0
TABLE
  2
LAYER
 70
2
  0
LAYER
  5
2E2
  2
0
 70
0
 62
7
  6
Continuous
  0
LAYER
  5
2E3
  2
Defpoints
 70
0
 62
7
  6
Continuous
  0
ENDTAB
  0
TABLE
  2
STYLE
 70
1
  0
STYLE
  5
2E4
  2
Standard
 70
0
 40
0.0
 41
1.0
 50
0.0
 71
0
 42
2.5
  3
txt
  4

  0
ENDTAB
  0
TABLE
  2
VIEW
 70
0
  0
ENDTAB
  0
TABLE
  2
UCS
 70
0
  0
ENDTAB
  0
TABLE
  2
APPID
 70
3
  0
APPID
  5
2E5
  2
ACAD
 70
0
  0
APPID
  5
2E9
  2
HATCHBACKGROUNDCOLOR
 70
0
  0
APPID
  5
2EA
  2
EZDXF
 70
0
  0
ENDTAB
  0
TABLE
  2
DIMSTYLE
 70
1
  0
DIMSTYLE
105
2E6
  2
Standard
 70
0
  3

  4

  5

  6

  7

 40
1.0
 41
2.5
 42
0.625
 43
3.75
 44
1.25
 45
0.0
 46
0.0
 47
0.0
 48
0.0
140
2.5
141
2.5
142
0.0
143
0.03937007874
144
1.0
145
0.0
146
1.0
147
0.625
 71
0
 72
0
 73
0
 74
0
 75
0
 76
0
 77
1
 78
8
170
0
171
3
172
1
173
0
174
0
175
0
176
0
177
0
178
0
  0
ENDTAB
  0
ENDSEC
  0
SECTION
  2
BLOCKS
  0
BLOCK
  5
2BF
  8
0
  2
$Model_Space
 70
0
 10
0.0
 20
0.0
 30
0.0
  3
$Model_Space
  1

1001
EZDXF
1000
WRITTEN_BY_EZDXF
1000
1.0.1 @ 2023-02-13T10:10:56.523092+00:00
  0
ENDBLK
  5
2C0
  8
0
  0
BLOCK
  5
2C1
  8
0
  2
$Paper_Space
 70
0
 10
0.0
 20
0.0
 30
0.0
  3
$Paper_Space
  1

  0
ENDBLK
  5
2C2
  8
0
  0
ENDSEC
  0
SECTION
  2
ENTITIES
  0
LINE
  5
100
  8
0
 10
-1.32098
 20
15.5128
 30
0.0
 11
-0.882645
 21
15.9511
 31
0.0
  0
LINE
  5
101
  8
0
 10
-0.882645
 20
15.9511
 30
0.0
 11
-0.309937
 21
16.1883
 31
0.0
  0
LINE
  5
102
  8
0
 10
-0.309937
 20
16.1883
 30
0.0
 11
0.309937
 21
16.1883
 31
0.0
  0
LINE
  5
103
  8
0
 10
0.309937
 20
16.1883
 30
0.0
 11
0.882645
 21
15.9511
 31
0.0
  0
LINE
  5
104
  8
0
 10
0.882645
 20
15.9511
 30
0.0
 11
1.32098
 21
15.5128
 31
0.0
  0
LINE
  5
105
  8
0
 10
1.32098
 20
15.5128
 30
0.0
 11
1.32178
 21
15.5109
 31
0.0
  0
LINE
  5
106
  8
0
 10
1.32178
 20
15.5109
 30
0.0
 11
1.44511
 21
15.5109
 31
0.0
  0
LINE
  5
107
  8
0
 10
1.44511
 20
15.5109
 30
0.0
 11
4.04448
 21
16.0634
 31
0.0
  0
LINE
  5
108
  8
0
 10
4.04448
 20
16.0634
 30
0.0
 11
4.27771
 21
16.6264
 31
0.0
  0
LINE
  5
109
  8
0
 10
4.27771
 20
16.6264
 30
0.0
 11
4.71605
 21
17.0648
 31
0.0
  0
LINE
  5
10A
  8
0
 10
4.71605
 20
17.0648
 30
0.0
 11
5.28876
 21
17.302
 31
0.0
  0
LINE
  5
10B
  8
0
 10
5.28876
 20
17.302
 30
0.0
 11
5.90865
 21
17.302
 31
0.0
  0
LINE
  5
10C
  8
0
 10
5.90865
 20
17.302
 30
0.0
 11
6.44577
 21
17.0795
 31
0.0
  0
LINE
  5
10D
  8
0
 10
6.44577
 20
17.0795
 30
0.0
 11
6.91255
 21
17.2873
 31
0.0
  0
LINE
  5
10E
  8
0
 10
6.91255
 20
17.2873
 30
0.0
 11
8.78683
 21
18.6491
 31
0.0
  0
LINE
  5
10F
  8
0
 10
8.78683
 20
18.6491
 30
0.0
 11
8.78683
 21
19.2251
 31
0.0
  0
LINE
  5
110
  8
0
 10
8.78683
 20
19.2251
 30
0.0
 11
9.02406
 21
19.7979
 31
0.0
  0
LINE
  5
111
  8
0
 10
9.02406
 20
19.7979
 30
0.0
 11
9.4624
 21
20.2362
 31
0.0
  0
LINE
  5
112
  8
0
 10
9.4624
 20
20.2362
 30
0.0
 11
10.0351
 21
20.4734
 31
0.0
  0
LINE
  5
113
  8
0
 10
10.0351
 20
20.4734
 30
0.0
 11
10.5899
 21
20.4734
 31
0.0
  0
LINE
  5
114
  8
0
 10
10.5899
 20
20.4734
 30
0.0
 11
11.1848
 21
21.134
 31
0.0
  0
LINE
  5
115
  8
0
 10
11.1848
 20
21.134
 30
0.0
 11
12.17
 21
22.8405
 31
0.0
  0
LINE
  5
116
  8
0
 10
12.17
 20
22.8405
 30
0.0
 11
11.9583
 21
23.3516
 31
0.0
  0
LINE
  5
117
  8
0
 10
11.9583
 20
23.3516
 30
0.0
 11
11.9583
 21
23.9715
 31
0.0
  0
LINE
  5
118
  8
0
 10
11.9583
 20
23.9715
 30
0.0
 11
12.1955
 21
24.5442
 31
0.0
  0
LINE
  5
119
  8
0
 10
12.1955
 20
24.5442
 30
0.0
 11
12.6338
 21
24.9825
 31
0.0
  0
LINE
  5
11A
  8
0
 10
12.6338
 20
24.9825
 30
0.0
 11
13.1344
 21
25.1899
 31
0.0
  0
LINE
  5
11B
  8
0
 10
13.1344
 20
25.1899
 30
0.0
 11
13.523
 21
26.3858
 31
0.0
  0
LINE
  5
11C
  8
0
 10
13.523
 20
26.3858
 30
0.0
 11
13.6921
 21
27.9946
 31
0.0
  0
LINE
  5
11D
  8
0
 10
13.6921
 20
27.9946
 30
0.0
 11
13.3091
 21
28.3776
 31
0.0
  0
LINE
  5
11E
  8
0
 10
13.3091
 20
28.3776
 30
0.0
 11
13.0719
 21
28.9503
 31
0.0
  0
LINE
  5
11F
  8
0
 10
13.0719
 20
28.9503
 30
0.0
 11
13.0719
 21
29.5702
 31
0.0
  0
LINE
  5
120
  8
0
 10
13.0719
 20
29.5702
 30
0.0
 11
13.3091
 21
30.1429
 31
0.0
  0
LINE
  5
121
  8
0
 10
13.3091
 20
30.1429
 30
0.0
 11
13.6921
 21
30.5259
 31
0.0
  0
LINE
  5
122
  8
0
 10
13.6921
 20
30.5259
 30
0.0
 11
13.523
 21
32.1347
 31
0.0
  0
LINE
  5
123
  8
0
 10
13.523
 20
32.1347
 30
0.0
 11
13.1344
 21
33.3306
 31
0.0
  0
LINE
  5
124
  8
0
 10
13.1344
 20
33.3306
 30
0.0
 11
12.6338
 21
33.538
 31
0.0
  0
LINE
  5
125
  8
0
 10
12.6338
 20
33.538
 30
0.0
 11
12.1955
 21
33.9763
 31
0.0
  0
LINE
  5
126
  8
0
 10
12.1955
 20
33.9763
 30
0.0
 11
11.9583
 21
34.549
 31
0.0
  0
LINE
  5
127
  8
0
 10
11.9583
 20
34.549
 30
0.0
 11
11.9583
 21
35.1689
 31
0.0
  0
LINE
  5
128
  8
0
 10
11.9583
 20
35.1689
 30
0.0
 11
12.17
 21
35.68
 31
0.0
  0
LINE
  5
129
  8
0
 10
12.17
 20
35.68
 30
0.0
 11
11.1848
 21
37.3865
 31
0.0
  0
LINE
  5
12A
  8
0
 10
11.1848
 20
37.3865
 30
0.0
 11
10.5899
 21
38.0471
 31
0.0
  0
LINE
  5
12B
  8
0
 10
10.5899
 20
38.0471
 30
0.0
 11
10.0351
 21
38.0471
 31
0.0
  0
LINE
  5
12C
  8
0
 10
10.0351
 20
38.0471
 30
0.0
 11
9.4624
 21
38.2843
 31
0.0
  0
LINE
  5
12D
  8
0
 10
9.4624
 20
38.2843
 30
0.0
 11
9.02406
 21
38.7227
 31
0.0
  0
LINE
  5
12E
  8
0
 10
9.02406
 20
38.7227
 30
0.0
 11
8.78683
 21
39.2954
 31
0.0
  0
LINE
  5
12F
  8
0
 10
8.78683
 20
39.2954
 30
0.0
 11
8.78683
 21
39.8714
 31
0.0
  0
LINE
  5
130
  8
0
 10
8.78683
 20
39.8714
 30
0.0
 11
6.91255
 21
41.2332
 31
0.0
  0
LINE
  5
131
  8
0
 10
6.91255
 20
41.2332
 30
0.0
 11
6.44577
 21
41.441
 31
0.0
  0
LINE
  5
132
  8
0
 10
6.44577
 20
41.441
 30
0.0
 11
5.90865
 21
41.2185
 31
0.0
  0
LINE
  5
133
  8
0
 10
5.90865
 20
41.2185
 30
0.0
 11
5.28876
 21
41.2185
 31
0.0
  0
LINE
  5
134
  8
0
 10
5.28876
 20
41.2185
 30
0.0
 11
4.71605
 21
41.4557
 31
0.0
  0
LINE
  5
135
  8
0
 10
4.71605
 20
41.4557
 30
0.0
 11
4.27771
 21
41.8941
 31
0.0
  0
LINE
  5
136
  8
0
 10
4.27771
 20
41.8941
 30
0.0
 11
4.04448
 21
42.4572
 31
0.0
  0
LINE
  5
137
  8
0
 10
4.04448
 20
42.4572
 30
0.0
 11
1.44511
 21
43.0097
 31
0.0
  0
LINE
  5
138
  8
0
 10
1.44511
 20
43.0097
 30
0.0
 11
1.32178
 21
43.0097
 31
0.0
  0
LINE
  5
139
  8
0
 10
1.32178
 20
43.0097
 30
0.0
 11
1.32098
 21
43.0077
 31
0.0
  0
LINE
  5
13A
  8
0
 10
1.32098
 20
43.0077
 30
0.0
 11
0.882645
 21
42.5694
 31
0.0
  0
LINE
  5
13B
  8
0
 10
0.882645
 20
42.5694
 30
0.0
 11
0.309937
 21
42.3322
 31
0.0
  0
LINE
  5
13C
  8
0
 10
0.309937
 20
42.3322
 30
0.0
 11
-0.309937
 21
42.3322
 31
0.0
  0
LINE
  5
13D
  8
0
 10
-0.309937
 20
42.3322
 30
0.0
 11
-0.882645
 21
42.5694
 31
0.0
  0
LINE
  5
13E
  8
0
 10
-0.882645
 20
42.5694
 30
0.0
 11
-1.32098
 21
43.0077
 31
0.0
  0
LINE
  5
13F
  8
0
 10
-1.32098
 20
43.0077
 30
0.0
 11
-1.32178
 21
43.0097
 31
0.0
  0
LINE
  5
140
  8
0
 10
-1.32178
 20
43.0097
 30
0.0
 11
-1.44511
 21
43.0097
 31
0.0
  0
LINE
  5
141
  8
0
 10
-1.44511
 20
43.0097
 30
0.0
 11
-4.04448
 21
42.4572
 31
0.0
  0
LINE
  5
142
  8
0
 10
-4.04448
 20
42.4572
 30
0.0
 11
-4.27771
 21
41.8941
 31
0.0
  0
LINE
  5
143
  8
0
 10
-4.27771
 20
41.8941
 30
0.0
 11
-4.71605
 21
41.4557
 31
0.0
  0
LINE
  5
144
  8
0
 10
-4.71605
 20
41.4557
 30
0.0
 11
-5.28876
 21
41.2185
 31
0.0
  0
LINE
  5
145
  8
0
 10
-5.28876
 20
41.2185
 30
0.0
 11
-5.90865
 21
41.2185
 31
0.0
  0
LINE
  5
146
  8
0
 10
-5.90865
 20
41.2185
 30
0.0
 11
-6.44577
 21
41.441
 31
0.0
  0
LINE
  5
147
  8
0
 10
-6.44577
 20
41.441
 30
0.0
 11
-6.91255
 21
41.2332
 31
0.0
  0
LINE
  5
148
  8
0
 10
-6.91255
 20
41.2332
 30
0.0
 11
-8.78683
 21
39.8714
 31
0.0
  0
LINE
  5
149
  8
0
 10
-8.78683
 20
39.8714
 30
0.0
 11
-8.78683
 21
39.2954
 31
0.0
  0
LINE
  5
14A
  8
0
 10
-8.78683
 20
39.2954
 30
0.0
 11
-9.02406
 21
38.7227
 31
0.0
  0
LINE
  5
14B
  8
0
 10
-9.02406
 20
38.7227
 30
0.0
 11
-9.4624
 21
38.2843
 31
0.0
  0
LINE
  5
14C
  8
0
 10
-9.4624
 20
38.2843
 30
0.0
 11
-10.0351
 21
38.0471
 31
0.0
  0
LINE
  5
14D
  8
0
 10
-10.0351
 20
38.0471
 30
0.0
 11
-10.5899
 21
38.0471
 31
0.0
  0
LINE
  5
14E
  8
0
 10
-10.5899
 20
38.0471
 30
0.0
 11
-11.1848
 21
37.3865
 31
0.0
  0
LINE
  5
14F
  8
0
 10
-11.1848
 20
37.3865
 30
0.0
 11
-12.17
 21
35.68
 31
0.0
  0
LINE
  5
150
  8
0
 10
-12.17
 20
35.68
 30
0.0
 11
-11.9583
 21
35.1689
 31
0.0
  0
LINE
  5
151
  8
0
 10
-11.9583
 20
35.1689
 30
0.0
 11
-11.9583
 21
34.549
 31
0.0
  0
LINE
  5
152
  8
0
 10
-11.9583
 20
34.549
 30
0.0
 11
-12.1955
 21
33.9763
 31
0.0
  0
LINE
  5
153
  8
0
 10
-12.1955
 20
33.9763
 30
0.0
 11
-12.6338
 21
33.538
 31
0.0
  0
LINE
  5
154
  8
0
 10
-12.6338
 20
33.538
 30
0.0
 11
-13.1344
 21
33.3306
 31
0.0
  0
LINE
  5
155
  8
0
 10
-13.1344
 20
33.3306
 30
0.0
 11
-13.523
 21
32.1347
 31
0.0
  0
LINE
  5
156
  8
0
 10
-13.523
 20
32.1347
 30
0.0
 11
-13.6921
 21
30.5259
 31
0.0
  0
LINE
  5
157
  8
0
 10
-13.6921
 20
30.5259
 30
0.0
 11
-13.3091
 21
30.1429
 31
0.0
  0
LINE
  5
158
  8
0
 10
-13.3091
 20
30.1429
 30
0.0
 11
-13.0719
 21
29.5702
 31
0.0
  0
LINE
  5
159
  8
0
 10
-13.0719
 20
29.5702
 30
0.0
 11
-13.0719
 21
28.9503
 31
0.0
  0
LINE
  5
15A
  8
0
 10
-13.0719
 20
28.9503
 30
0.0
 11
-13.3091
 21
28.3776
 31
0.0
  0
LINE
  5
15B
  8
0
 10
-13.3091
 20
28.3776
 30
0.0
 11
-13.6921
 21
27.9946
 31
0.0
  0
LINE
  5
15C
  8
0
 10
-13.6921
 20
27.9946
 30
0.0
 11
-13.523
 21
26.3858
 31
0.0
  0
LINE
  5
15D
  8
0
 10
-13.523
 20
26.3858
 30
0.0
 11
-13.1344
 21
25.1899
 31
0.0
  0
LINE
  5
15E
  8
0
 10
-13.1344
 20
25.1899
 30
0.0
 11
-12.6338
 21
24.9825
 31
0.0
  0
LINE
  5
15F
  8
0
 10
-12.6338
 20
24.9825
 30
0.0
 11
-12.1955
 21
24.5442
 31
0.0
  0
LINE
  5
160
  8
0
 10
-12.1955
 20
24.5442
 30
0.0
 11
-11.9583
 21
23.9715
 31
0.0
  0
LINE
  5
161
  8
0
 10
-11.9583
 20
23.9715
 30
0.0
 11
-11.9583
 21
23.3516
 31
0.0
  0
LINE
  5
162
  8
0
 10
-11.9583
 20
23.3516
 30
0.0
 11
-12.17
 21
22.8405
 31
0.0
  0
LINE
  5
163
  8
0
 10
-12.17
 20
22.8405
 30
0.0
 11
-11.1848
 21
21.134
 31
0.0
  0
LINE
  5
164
  8
0
 10
-11.1848
 20
21.134
 30
0.0
 11
-10.5899
 21
20.4734
 31
0.0
  0
LINE
  5
165
  8
0
 10
-10.5899
 20
20.4734
 30
0.0
 11
-10.0351
 21
20.4734
 31
0.0
  0
LINE
  5
166
  8
0
 10
-10.0351
 20
20.4734
 30
0.0
 11
-9.4624
 21
20.2362
 31
0.0
  0
LINE
  5
167
  8
0
 10
-9.4624
 20
20.2362
 30
0.0
 11
-9.02406
 21
19.7979
 31
0.0
  0
LINE
  5
168
  8
0
 10
-9.02406
 20
19.7979
 30
0.0
 11
-8.78683
 21
19.2251
 31
0.0
  0
LINE
  5
169
  8
0
 10
-8.78683
 20
19.2251
 30
0.0
 11
-8.78683
 21
18.6491
 31
0.0
  0
LINE
  5
16A
  8
0
 10
-8.78683
 20
18.6491
 30
0.0
 11
-6.91255
 21
17.2873
 31
0.0
  0
LINE
  5
16B
  8
0
 10
-6.91255
 20
17.2873
 30
0.0
 11
-6.44577
 21
17.0795
 31
0.0
  0
LINE
  5
16C
  8
0
 10
-6.44577
 20
17.0795
 30
0.0
 11
-5.90865
 21
17.302
 31
0.0
  0
LINE
  5
16D
  8
0
 10
-5.90865
 20
17.302
 30
0.0
 11
-5.28876
 21
17.302
 31
0.0
  0
LINE
  5
16E
  8
0
 10
-5.28876
 20
17.302
 30
0.0
 11
-4.71605
 21
17.0648
 31
0.0
  0
LINE
  5
16F
  8
0
 10
-4.71605
 20
17.0648
 30
0.0
 11
-4.27771
 21
16.6264
 31
0.0
  0
LINE
  5
170
  8
0
 10
-4.27771
 20
16.6264
 30
0.0
 11
-4.04448
 21
16.0634
 31
0.0
  0
LINE
  5
171
  8
0
 10
-4.04448
 20
16.0634
 30
0.0
 11
-1.44511
 21
15.5109
 31
0.0
  0
LINE
  5
172
  8
0
 10
-1.44511
 20
15.5109
 30
0.0
 11
-1.32178
 21
15.5109
 31
0.0
  0
LINE
  5
173
  8
0
 10
-1.32178
 20
15.5109
 30
0.0
 11
-1.32098
 21
15.5128
 31
0.0
  0
LINE
  5
174
  8
0
 10
-1.44638
 20
22.9232
 30
0.0
 11
-3.25
 21
23.6311
 31
0.0
  0
LINE
  5
175
  8
0
 10
-3.25
 20
23.6311
 30
0.0
 11
-4.76483
 21
24.8391
 31
0.0
  0
LINE
  5
176
  8
0
 10
-4.76483
 20
24.8391
 30
0.0
 11
-5.85629
 21
26.44
 31
0.0
  0
LINE
  5
177
  8
0
 10
-5.85629
 20
26.44
 30
0.0
 11
-6.4274
 21
28.2915
 31
0.0
  0
LINE
  5
178
  8
0
 10
-6.4274
 20
28.2915
 30
0.0
 11
-6.4274
 21
30.229
 31
0.0
  0
LINE
  5
179
  8
0
 10
-6.4274
 20
30.229
 30
0.0
 11
-5.85629
 21
32.0805
 31
0.0
  0
LINE
  5
17A
  8
0
 10
-5.85629
 20
32.0805
 30
0.0
 11
-4.76483
 21
33.6814
 31
0.0
  0
LINE
  5
17B
  8
0
 10
-4.76483
 20
33.6814
 30
0.0
 11
-3.25
 21
34.8894
 31
0.0
  0
LINE
  5
17C
  8
0
 10
-3.25
 20
34.8894
 30
0.0
 11
-1.44638
 21
35.5973
 31
0.0
  0
LINE
  5
17D
  8
0
 10
-1.44638
 20
35.5973
 30
0.0
 11
0.485733
 21
35.7421
 31
0.0
  0
LINE
  5
17E
  8
0
 10
0.485733
 20
35.7421
 30
0.0
 11
2.37471
 21
35.3109
 31
0.0
  0
LINE
  5
17F
  8
0
 10
2.37471
 20
35.3109
 30
0.0
 11
4.05267
 21
34.3422
 31
0.0
  0
LINE
  5
180
  8
0
 10
4.05267
 20
34.3422
 30
0.0
 11
5.37054
 21
32.9218
 31
0.0
  0
LINE
  5
181
  8
0
 10
5.37054
 20
32.9218
 30
0.0
 11
6.21121
 21
31.1762
 31
0.0
  0
LINE
  5
182
  8
0
 10
6.21121
 20
31.1762
 30
0.0
 11
6.5
 21
29.2603
 31
0.0
  0
LINE
  5
183
  8
0
 10
6.5
 20
29.2603
 30
0.0
 11
6.21121
 21
27.3444
 31
0.0
  0
LINE
  5
184
  8
0
 10
6.21121
 20
27.3444
 30
0.0
 11
5.37054
 21
25.5987
 31
0.0
  0
LINE
  5
185
  8
0
 10
5.37054
 20
25.5987
 30
0.0
 11
4.05267
 21
24.1784
 31
0.0
  0
LINE
  5
186
  8
0
 10
4.05267
 20
24.1784
 30
0.0
 11
2.37471
 21
23.2096
 31
0.0
  0
LINE
  5
187
  8
0
 10
2.37471
 20
23.2096
 30
0.0
 11
0.485733
 21
22.7784
 31
0.0
  0
LINE
  5
188
  8
0
 10
0.485733
 20
22.7784
 30
0.0
 11
-1.44638
 21
22.9232
 31
0.0
  0
LINE
  5
189
  8
0
 10
9.21004
 20
27.9753
 30
0.0
 11
9.21004
 21
30.5453
 31
0.0
  0
LINE
  5
18A
  8
0
 10
9.21004
 20
30.5453
 30
0.0
 11
11.9201
 21
30.5453
 31
0.0
  0
LINE
  5
18B
  8
0
 10
11.9201
 20
30.5453
 30
0.0
 11
11.9201
 21
27.9753
 31
0.0
  0
LINE
  5
18C
  8
0
 10
11.9201
 20
27.9753
 30
0.0
 11
9.21004
 21
27.9753
 31
0.0
  0
LINE
  5
18D
  8
0
 10
27.9393
 20
-13.7475
 30
0.0
 11
28.3776
 21
-13.3091
 31
0.0
  0
LINE
  5
18E
  8
0
 10
28.3776
 20
-13.3091
 30
0.0
 11
28.9503
 21
-13.0719
 31
0.0
  0
LINE
  5
18F
  8
0
 10
28.9503
 20
-13.0719
 30
0.0
 11
29.5702
 21
-13.0719
 31
0.0
  0
LINE
  5
190
  8
0
 10
29.5702
 20
-13.0719
 30
0.0
 11
30.1429
 21
-13.3091
 31
0.0
  0
LINE
  5
191
  8
0
 10
30.1429
 20
-13.3091
 30
0.0
 11
30.5813
 21
-13.7475
 31
0.0
  0
LINE
  5
192
  8
0
 10
30.5813
 20
-13.7475
 30
0.0
 11
30.582
 21
-13.7494
 31
0.0
  0
LINE
  5
193
  8
0
 10
30.582
 20
-13.7494
 30
0.0
 11
30.7054
 21
-13.7494
 31
0.0
  0
LINE
  5
194
  8
0
 10
30.7054
 20
-13.7494
 30
0.0
 11
33.3047
 21
-13.1969
 31
0.0
  0
LINE
  5
195
  8
0
 10
33.3047
 20
-13.1969
 30
0.0
 11
33.538
 21
-12.6338
 31
0.0
  0
LINE
  5
196
  8
0
 10
33.538
 20
-12.6338
 30
0.0
 11
33.9763
 21
-12.1955
 31
0.0
  0
LINE
  5
197
  8
0
 10
33.9763
 20
-12.1955
 30
0.0
 11
34.549
 21
-11.9583
 31
0.0
  0
LINE
  5
198
  8
0
 10
34.549
 20
-11.9583
 30
0.0
 11
35.1689
 21
-11.9583
 31
0.0
  0
LINE
  5
199
  8
0
 10
35.1689
 20
-11.9583
 30
0.0
 11
35.706
 21
-12.1807
 31
0.0
  0
LINE
  5
19A
  8
0
 10
35.706
 20
-12.1807
 30
0.0
 11
36.1728
 21
-11.9729
 31
0.0
  0
LINE
  5
19B
  8
0
 10
36.1728
 20
-11.9729
 30
0.0
 11
38.0471
 21
-10.6112
 31
0.0
  0
LINE
  5
19C
  8
0
 10
38.0471
 20
-10.6112
 30
0.0
 11
38.0471
 21
-10.0351
 31
0.0
  0
LINE
  5
19D
  8
0
 10
38.0471
 20
-10.0351
 30
0.0
 11
38.2843
 21
-9.4624
 31
0.0
  0
LINE
  5
19E
  8
0
 10
38.2843
 20
-9.4624
 30
0.0
 11
38.7227
 21
-9.02406
 31
0.0
  0
LINE
  5
19F
  8
0
 10
38.7227
 20
-9.02406
 30
0.0
 11
39.2954
 21
-8.78683
 31
0.0
  0
LINE
  5
1A0
  8
0
 10
39.2954
 20
-8.78683
 30
0.0
 11
39.8502
 21
-8.78683
 31
0.0
  0
LINE
  5
1A1
  8
0
 10
39.8502
 20
-8.78683
 30
0.0
 11
40.445
 21
-8.12621
 31
0.0
  0
LINE
  5
1A2
  8
0
 10
40.445
 20
-8.12621
 30
0.0
 11
41.4302
 21
-6.41977
 31
0.0
  0
LINE
  5
1A3
  8
0
 10
41.4302
 20
-6.41977
 30
0.0
 11
41.2185
 21
-5.90865
 31
0.0
  0
LINE
  5
1A4
  8
0
 10
41.2185
 20
-5.90865
 30
0.0
 11
41.2185
 21
-5.28876
 31
0.0
  0
LINE
  5
1A5
  8
0
 10
41.2185
 20
-5.28876
 30
0.0
 11
41.4557
 21
-4.71605
 31
0.0
  0
LINE
  5
1A6
  8
0
 10
41.4557
 20
-4.71605
 30
0.0
 11
41.8941
 21
-4.27771
 31
0.0
  0
LINE
  5
1A7
  8
0
 10
41.8941
 20
-4.27771
 30
0.0
 11
42.3947
 21
-4.07034
 31
0.0
  0
LINE
  5
1A8
  8
0
 10
42.3947
 20
-4.07034
 30
0.0
 11
42.7833
 21
-2.8744
 31
0.0
  0
LINE
  5
1A9
  8
0
 10
42.7833
 20
-2.8744
 30
0.0
 11
42.9524
 21
-1.26562
 31
0.0
  0
LINE
  5
1AA
  8
0
 10
42.9524
 20
-1.26562
 30
0.0
 11
42.5694
 21
-0.882645
 31
0.0
  0
LINE
  5
1AB
  8
0
 10
42.5694
 20
-0.882645
 30
0.0
 11
42.3322
 21
-0.309937
 31
0.0
  0
LINE
  5
1AC
  8
0
 10
42.3322
 20
-0.309937
 30
0.0
 11
42.3322
 21
0.309937
 31
0.0
  0
LINE
  5
1AD
  8
0
 10
42.3322
 20
0.309937
 30
0.0
 11
42.5694
 21
0.882645
 31
0.0
  0
LINE
  5
1AE
  8
0
 10
42.5694
 20
0.882645
 30
0.0
 11
42.9524
 21
1.26562
 31
0.0
  0
LINE
  5
1AF
  8
0
 10
42.9524
 20
1.26562
 30
0.0
 11
42.7833
 21
2.8744
 31
0.0
  0
LINE
  5
1B0
  8
0
 10
42.7833
 20
2.8744
 30
0.0
 11
42.3947
 21
4.07034
 31
0.0
  0
LINE
  5
1B1
  8
0
 10
42.3947
 20
4.07034
 30
0.0
 11
41.8941
 21
4.27771
 31
0.0
  0
LINE
  5
1B2
  8
0
 10
41.8941
 20
4.27771
 30
0.0
 11
41.4557
 21
4.71605
 31
0.0
  0
LINE
  5
1B3
  8
0
 10
41.4557
 20
4.71605
 30
0.0
 11
41.2185
 21
5.28876
 31
0.0
  0
LINE
  5
1B4
  8
0
 10
41.2185
 20
5.28876
 30
0.0
 11
41.2185
 21
5.90865
 31
0.0
  0
LINE
  5
1B5
  8
0
 10
41.2185
 20
5.90865
 30
0.0
 11
41.4302
 21
6.41977
 31
0.0
  0
LINE
  5
1B6
  8
0
 10
41.4302
 20
6.41977
 30
0.0
 11
40.445
 21
8.12621
 31
0.0
  0
LINE
  5
1B7
  8
0
 10
40.445
 20
8.12621
 30
0.0
 11
39.8502
 21
8.78683
 31
0.0
  0
LINE
  5
1B8
  8
0
 10
39.8502
 20
8.78683
 30
0.0
 11
39.2954
 21
8.78683
 31
0.0
  0
LINE
  5
1B9
  8
0
 10
39.2954
 20
8.78683
 30
0.0
 11
38.7227
 21
9.02406
 31
0.0
  0
LINE
  5
1BA
  8
0
 10
38.7227
 20
9.02406
 30
0.0
 11
38.2843
 21
9.4624
 31
0.0
  0
LINE
  5
1BB
  8
0
 10
38.2843
 20
9.4624
 30
0.0
 11
38.0471
 21
10.0351
 31
0.0
  0
LINE
  5
1BC
  8
0
 10
38.0471
 20
10.0351
 30
0.0
 11
38.0471
 21
10.6112
 31
0.0
  0
LINE
  5
1BD
  8
0
 10
38.0471
 20
10.6112
 30
0.0
 11
36.1728
 21
11.9729
 31
0.0
  0
LINE
  5
1BE
  8
0
 10
36.1728
 20
11.9729
 30
0.0
 11
35.706
 21
12.1807
 31
0.0
  0
LINE
  5
1BF
  8
0
 10
35.706
 20
12.1807
 30
0.0
 11
35.1689
 21
11.9583
 31
0.0
  0
LINE
  5
1C0
  8
0
 10
35.1689
 20
11.9583
 30
0.0
 11
34.549
 21
11.9583
 31
0.0
  0
LINE
  5
1C1
  8
0
 10
34.549
 20
11.9583
 30
0.0
 11
33.9763
 21
12.1955
 31
0.0
  0
LINE
  5
1C2
  8
0
 10
33.9763
 20
12.1955
 30
0.0
 11
33.538
 21
12.6338
 31
0.0
  0
LINE
  5
1C3
  8
0
 10
33.538
 20
12.6338
 30
0.0
 11
33.3047
 21
13.1969
 31
0.0
  0
LINE
  5
1C4
  8
0
 10
33.3047
 20
13.1969
 30
0.0
 11
30.7054
 21
13.7494
 31
0.0
  0
LINE
  5
1C5
  8
0
 10
30.7054
 20
13.7494
 30
0.0
 11
30.582
 21
13.7494
 31
0.0
  0
LINE
  5
1C6
  8
0
 10
30.582
 20
13.7494
 30
0.0
 11
30.5813
 21
13.7475
 31
0.0
  0
LINE
  5
1C7
  8
0
 10
30.5813
 20
13.7475
 30
0.0
 11
30.1429
 21
13.3091
 31
0.0
  0
LINE
  5
1C8
  8
0
 10
30.1429
 20
13.3091
 30
0.0
 11
29.5702
 21
13.0719
 31
0.0
  0
LINE
  5
1C9
  8
0
 10
29.5702
 20
13.0719
 30
0.0
 11
28.9503
 21
13.0719
 31
0.0
  0
LINE
  5
1CA
  8
0
 10
28.9503
 20
13.0719
 30
0.0
 11
28.3776
 21
13.3091
 31
0.0
  0
LINE
  5
1CB
  8
0
 10
28.3776
 20
13.3091
 30
0.0
 11
27.9393
 21
13.7475
 31
0.0
  0
LINE
  5
1CC
  8
0
 10
27.9393
 20
13.7475
 30
0.0
 11
27.9385
 21
13.7494
 31
0.0
  0
LINE
  5
1CD
  8
0
 10
27.9385
 20
13.7494
 30
0.0
 11
27.8151
 21
13.7494
 31
0.0
  0
LINE
  5
1CE
  8
0
 10
27.8151
 20
13.7494
 30
0.0
 11
25.2158
 21
13.1969
 31
0.0
  0
LINE
  5
1CF
  8
0
 10
25.2158
 20
13.1969
 30
0.0
 11
24.9825
 21
12.6338
 31
0.0
  0
LINE
  5
1D0
  8
0
 10
24.9825
 20
12.6338
 30
0.0
 11
24.5442
 21
12.1955
 31
0.0
  0
LINE
  5
1D1
  8
0
 10
24.5442
 20
12.1955
 30
0.0
 11
23.9715
 21
11.9583
 31
0.0
  0
LINE
  5
1D2
  8
0
 10
23.9715
 20
11.9583
 30
0.0
 11
23.3516
 21
11.9583
 31
0.0
  0
LINE
  5
1D3
  8
0
 10
23.3516
 20
11.9583
 30
0.0
 11
22.8145
 21
12.1807
 31
0.0
  0
LINE
  5
1D4
  8
0
 10
22.8145
 20
12.1807
 30
0.0
 11
22.3477
 21
11.9729
 31
0.0
  0
LINE
  5
1D5
  8
0
 10
22.3477
 20
11.9729
 30
0.0
 11
20.4734
 21
10.6112
 31
0.0
  0
LINE
  5
1D6
  8
0
 10
20.4734
 20
10.6112
 30
0.0
 11
20.4734
 21
10.0351
 31
0.0
  0
LINE
  5
1D7
  8
0
 10
20.4734
 20
10.0351
 30
0.0
 11
20.2362
 21
9.4624
 31
0.0
  0
LINE
  5
1D8
  8
0
 10
20.2362
 20
9.4624
 30
0.0
 11
19.7979
 21
9.02406
 31
0.0
  0
LINE
  5
1D9
  8
0
 10
19.7979
 20
9.02406
 30
0.0
 11
19.2251
 21
8.78683
 31
0.0
  0
LINE
  5
1DA
  8
0
 10
19.2251
 20
8.78683
 30
0.0
 11
18.6703
 21
8.78683
 31
0.0
  0
LINE
  5
1DB
  8
0
 10
18.6703
 20
8.78683
 30
0.0
 11
18.0755
 21
8.12621
 31
0.0
  0
LINE
  5
1DC
  8
0
 10
18.0755
 20
8.12621
 30
0.0
 11
17.0903
 21
6.41977
 31
0.0
  0
LINE
  5
1DD
  8
0
 10
17.0903
 20
6.41977
 30
0.0
 11
17.302
 21
5.90865
 31
0.0
  0
LINE
  5
1DE
  8
0
 10
17.302
 20
5.90865
 30
0.0
 11
17.302
 21
5.28876
 31
0.0
  0
LINE
  5
1DF
  8
0
 10
17.302
 20
5.28876
 30
0.0
 11
17.0648
 21
4.71605
 31
0.0
  0
LINE
  5
1E0
  8
0
 10
17.0648
 20
4.71605
 30
0.0
 11
16.6264
 21
4.27771
 31
0.0
  0
LINE
  5
1E1
  8
0
 10
16.6264
 20
4.27771
 30
0.0
 11
16.1258
 21
4.07034
 31
0.0
  0
LINE
  5
1E2
  8
0
 10
16.1258
 20
4.07034
 30
0.0
 11
15.7372
 21
2.8744
 31
0.0
  0
LINE
  5
1E3
  8
0
 10
15.7372
 20
2.8744
 30
0.0
 11
15.5681
 21
1.26562
 31
0.0
  0
LINE
  5
1E4
  8
0
 10
15.5681
 20
1.26562
 30
0.0
 11
15.9511
 21
0.882645
 31
0.0
  0
LINE
  5
1E5
  8
0
 10
15.9511
 20
0.882645
 30
0.0
 11
16.1883
 21
0.309937
 31
0.0
  0
LINE
  5
1E6
  8
0
 10
16.1883
 20
0.309937
 30
0.0
 11
16.1883
 21
-0.309937
 31
0.0
  0
LINE
  5
1E7
  8
0
 10
16.1883
 20
-0.309937
 30
0.0
 11
15.9511
 21
-0.882645
 31
0.0
  0
LINE
  5
1E8
  8
0
 10
15.9511
 20
-0.882645
 30
0.0
 11
15.5681
 21
-1.26562
 31
0.0
  0
LINE
  5
1E9
  8
0
 10
15.5681
 20
-1.26562
 30
0.0
 11
15.7372
 21
-2.8744
 31
0.0
  0
LINE
  5
1EA
  8
0
 10
15.7372
 20
-2.8744
 30
0.0
 11
16.1258
 21
-4.07034
 31
0.0
  0
LINE
  5
1EB
  8
0
 10
16.1258
 20
-4.07034
 30
0.0
 11
16.6264
 21
-4.27771
 31
0.0
  0
LINE
  5
1EC
  8
0
 10
16.6264
 20
-4.27771
 30
0.0
 11
17.0648
 21
-4.71605
 31
0.0
  0
LINE
  5
1ED
  8
0
 10
17.0648
 20
-4.71605
 30
0.0
 11
17.302
 21
-5.28876
 31
0.0
  0
LINE
  5
1EE
  8
0
 10
17.302
 20
-5.28876
 30
0.0
 11
17.302
 21
-5.90865
 31
0.0
  0
LINE
  5
1EF
  8
0
 10
17.302
 20
-5.90865
 30
0.0
 11
17.0903
 21
-6.41977
 31
0.0
  0
LINE
  5
1F0
  8
0
 10
17.0903
 20
-6.41977
 30
0.0
 11
18.0755
 21
-8.12621
 31
0.0
  0
LINE
  5
1F1
  8
0
 10
18.0755
 20
-8.12621
 30
0.0
 11
18.6703
 21
-8.78683
 31
0.0
  0
LINE
  5
1F2
  8
0
 10
18.6703
 20
-8.78683
 30
0.0
 11
19.2251
 21
-8.78683
 31
0.0
  0
LINE
  5
1F3
  8
0
 10
19.2251
 20
-8.78683
 30
0.0
 11
19.7979
 21
-9.02406
 31
0.0
  0
LINE
  5
1F4
  8
0
 10
19.7979
 20
-9.02406
 30
0.0
 11
20.2362
 21
-9.4624
 31
0.0
  0
LINE
  5
1F5
  8
0
 10
20.2362
 20
-9.4624
 30
0.0
 11
20.4734
 21
-10.0351
 31
0.0
  0
LINE
  5
1F6
  8
0
 10
20.4734
 20
-10.0351
 30
0.0
 11
20.4734
 21
-10.6112
 31
0.0
  0
LINE
  5
1F7
  8
0
 10
20.4734
 20
-10.6112
 30
0.0
 11
22.3477
 21
-11.9729
 31
0.0
  0
LINE
  5
1F8
  8
0
 10
22.3477
 20
-11.9729
 30
0.0
 11
22.8145
 21
-12.1807
 31
0.0
  0
LINE
  5
1F9
  8
0
 10
22.8145
 20
-12.1807
 30
0.0
 11
23.3516
 21
-11.9583
 31
0.0
  0
LINE
  5
1FA
  8
0
 10
23.3516
 20
-11.9583
 30
0.0
 11
23.9715
 21
-11.9583
 31
0.0
  0
LINE
  5
1FB
  8
0
 10
23.9715
 20
-11.9583
 30
0.0
 11
24.5442
 21
-12.1955
 31
0.0
  0
LINE
  5
1FC
  8
0
 10
24.5442
 20
-12.1955
 30
0.0
 11
24.9825
 21
-12.6338
 31
0.0
  0
LINE
  5
1FD
  8
0
 10
24.9825
 20
-12.6338
 30
0.0
 11
25.2158
 21
-13.1969
 31
0.0
  0
LINE
  5
1FE
  8
0
 10
25.2158
 20
-13.1969
 30
0.0
 11
27.8151
 21
-13.7494
 31
0.0
  0
LINE
  5
1FF
  8
0
 10
27.8151
 20
-13.7494
 30
0.0
 11
27.9385
 21
-13.7494
 31
0.0
  0
LINE
  5
200
  8
0
 10
27.9385
 20
-13.7494
 30
0.0
 11
27.9393
 21
-13.7475
 31
0.0
  0
LINE
  5
201
  8
0
 10
27.8139
 20
-6.33702
 30
0.0
 11
26.0103
 21
-5.62915
 31
0.0
  0
LINE
  5
202
  8
0
 10
26.0103
 20
-5.62915
 30
0.0
 11
24.4954
 21
-4.42111
 31
0.0
  0
LINE
  5
203
  8
0
 10
24.4954
 20
-4.42111
 30
0.0
 11
23.404
 21
-2.82024
 31
0.0
  0
LINE
  5
204
  8
0
 10
23.404
 20
-2.82024
 30
0.0
 11
22.8329
 21
-0.968765
 31
0.0
  0
LINE
  5
205
  8
0
 10
22.8329
 20
-0.968765
 30
0.0
 11
22.8329
 21
0.968765
 31
0.0
  0
LINE
  5
206
  8
0
 10
22.8329
 20
0.968765
 30
0.0
 11
23.404
 21
2.82024
 31
0.0
  0
LINE
  5
207
  8
0
 10
23.404
 20
2.82024
 30
0.0
 11
24.4954
 21
4.42111
 31
0.0
  0
LINE
  5
208
  8
0
 10
24.4954
 20
4.42111
 30
0.0
 11
26.0103
 21
5.62915
 31
0.0
  0
LINE
  5
209
  8
0
 10
26.0103
 20
5.62915
 30
0.0
 11
27.8139
 21
6.33702
 31
0.0
  0
LINE
  5
20A
  8
0
 10
27.8139
 20
6.33702
 30
0.0
 11
29.746
 21
6.48181
 31
0.0
  0
LINE
  5
20B
  8
0
 10
29.746
 20
6.48181
 30
0.0
 11
31.635
 21
6.05067
 31
0.0
  0
LINE
  5
20C
  8
0
 10
31.635
 20
6.05067
 30
0.0
 11
33.3129
 21
5.08189
 31
0.0
  0
LINE
  5
20D
  8
0
 10
33.3129
 20
5.08189
 30
0.0
 11
34.6308
 21
3.66158
 31
0.0
  0
LINE
  5
20E
  8
0
 10
34.6308
 20
3.66158
 30
0.0
 11
35.4715
 21
1.91589
 31
0.0
  0
LINE
  5
20F
  8
0
 10
35.4715
 20
1.91589
 30
0.0
 11
35.7603
 21
0.0
 31
0.0
  0
LINE
  5
210
  8
0
 10
35.7603
 20
0.0
 30
0.0
 11
35.4715
 21
-1.91589
 31
0.0
  0
LINE
  5
211
  8
0
 10
35.4715
 20
-1.91589
 30
0.0
 11
34.6308
 21
-3.66158
 31
0.0
  0
LINE
  5
212
  8
0
 10
34.6308
 20
-3.66158
 30
0.0
 11
33.3129
 21
-5.08189
 31
0.0
  0
LINE
  5
213
  8
0
 10
33.3129
 20
-5.08189
 30
0.0
 11
31.635
 21
-6.05067
 31
0.0
  0
LINE
  5
214
  8
0
 10
31.635
 20
-6.05067
 30
0.0
 11
29.746
 21
-6.48181
 31
0.0
  0
LINE
  5
215
  8
0
 10
29.746
 20
-6.48181
 30
0.0
 11
27.8139
 21
-6.33702
 31
0.0
  0
LINE
  5
216
  8
0
 10
38.4703
 20
-1.28499
 30
0.0
 11
38.4703
 21
1.28499
 31
0.0
  0
LINE
  5
217
  8
0
 10
38.4703
 20
1.28499
 30
0.0
 11
41.1803
 21
1.28499
 31
0.0
  0
LINE
  5
218
  8
0
 10
41.1803
 20
1.28499
 30
0.0
 11
41.1803
 21
-1.28499
 31
0.0
  0
LINE
  5
219
  8
0
 10
41.1803
 20
-1.28499
 30
0.0
 11
38.4703
 21
-1.28499
 31
0.0
  0
LINE
  5
21A
  8
0
 10
3.50168
 20
-13.1128
 30
0.0
 11
3.50168
 21
-13.0993
 31
0.0
  0
LINE
  5
21B
  8
0
 10
3.50168
 20
-13.0993
 30
0.0
 11
3.82092
 21
-12.3286
 31
0.0
  0
LINE
  5
21C
  8
0
 10
3.82092
 20
-12.3286
 30
0.0
 11
4.41083
 21
-11.7387
 31
0.0
  0
LINE
  5
21D
  8
0
 10
4.41083
 20
-11.7387
 30
0.0
 11
5.18158
 21
-11.4194
 31
0.0
  0
LINE
  5
21E
  8
0
 10
5.18158
 20
-11.4194
 30
0.0
 11
6.01582
 21
-11.4194
 31
0.0
  0
LINE
  5
21F
  8
0
 10
6.01582
 20
-11.4194
 30
0.0
 11
6.78658
 21
-11.7387
 31
0.0
  0
LINE
  5
220
  8
0
 10
6.78658
 20
-11.7387
 30
0.0
 11
6.79611
 21
-11.7482
 31
0.0
  0
LINE
  5
221
  8
0
 10
6.79611
 20
-11.7482
 30
0.0
 11
8.25319
 21
-10.7746
 31
0.0
  0
LINE
  5
222
  8
0
 10
8.25319
 20
-10.7746
 30
0.0
 11
8.24803
 21
-10.7622
 31
0.0
  0
LINE
  5
223
  8
0
 10
8.24803
 20
-10.7622
 30
0.0
 11
8.24803
 21
-9.92793
 31
0.0
  0
LINE
  5
224
  8
0
 10
8.24803
 20
-9.92793
 30
0.0
 11
8.56729
 21
-9.15718
 31
0.0
  0
LINE
  5
225
  8
0
 10
8.56729
 20
-9.15718
 30
0.0
 11
9.1572
 21
-8.56729
 31
0.0
  0
LINE
  5
226
  8
0
 10
9.1572
 20
-8.56729
 30
0.0
 11
9.92793
 21
-8.24803
 31
0.0
  0
LINE
  5
227
  8
0
 10
9.92793
 20
-8.24803
 30
0.0
 11
10.7622
 21
-8.24803
 31
0.0
  0
LINE
  5
228
  8
0
 10
10.7622
 20
-8.24803
 30
0.0
 11
10.7746
 21
-8.25319
 31
0.0
  0
LINE
  5
229
  8
0
 10
10.7746
 20
-8.25319
 30
0.0
 11
11.7482
 21
-6.79611
 31
0.0
  0
LINE
  5
22A
  8
0
 10
11.7482
 20
-6.79611
 30
0.0
 11
11.7387
 21
-6.78658
 31
0.0
  0
LINE
  5
22B
  8
0
 10
11.7387
 20
-6.78658
 30
0.0
 11
11.4194
 21
-6.01582
 31
0.0
  0
LINE
  5
22C
  8
0
 10
11.4194
 20
-6.01582
 30
0.0
 11
11.4194
 21
-5.18158
 31
0.0
  0
LINE
  5
22D
  8
0
 10
11.4194
 20
-5.18158
 30
0.0
 11
11.7387
 21
-4.41083
 31
0.0
  0
LINE
  5
22E
  8
0
 10
11.7387
 20
-4.41083
 30
0.0
 11
12.3286
 21
-3.82092
 31
0.0
  0
LINE
  5
22F
  8
0
 10
12.3286
 20
-3.82092
 30
0.0
 11
13.0993
 21
-3.50168
 31
0.0
  0
LINE
  5
230
  8
0
 10
13.0993
 20
-3.50168
 30
0.0
 11
13.1128
 21
-3.50168
 31
0.0
  0
LINE
  5
231
  8
0
 10
13.1128
 20
-3.50168
 30
0.0
 11
13.4547
 21
-1.78293
 31
0.0
  0
LINE
  5
232
  8
0
 10
13.4547
 20
-1.78293
 30
0.0
 11
13.4423
 21
-1.77777
 31
0.0
  0
LINE
  5
233
  8
0
 10
13.4423
 20
-1.77777
 30
0.0
 11
12.8524
 21
-1.18787
 31
0.0
  0
LINE
  5
234
  8
0
 10
12.8524
 20
-1.18787
 30
0.0
 11
12.5331
 21
-0.417114
 31
0.0
  0
LINE
  5
235
  8
0
 10
12.5331
 20
-0.417114
 30
0.0
 11
12.5331
 21
0.417114
 31
0.0
  0
LINE
  5
236
  8
0
 10
12.5331
 20
0.417114
 30
0.0
 11
12.8524
 21
1.18787
 31
0.0
  0
LINE
  5
237
  8
0
 10
12.8524
 20
1.18787
 30
0.0
 11
13.4423
 21
1.77777
 31
0.0
  0
LINE
  5
238
  8
0
 10
13.4423
 20
1.77777
 30
0.0
 11
13.4547
 21
1.78293
 31
0.0
  0
LINE
  5
239
  8
0
 10
13.4547
 20
1.78293
 30
0.0
 11
13.1128
 21
3.50168
 31
0.0
  0
LINE
  5
23A
  8
0
 10
13.1128
 20
3.50168
 30
0.0
 11
13.0993
 21
3.50168
 31
0.0
  0
LINE
  5
23B
  8
0
 10
13.0993
 20
3.50168
 30
0.0
 11
12.3286
 21
3.82092
 31
0.0
  0
LINE
  5
23C
  8
0
 10
12.3286
 20
3.82092
 30
0.0
 11
11.7387
 21
4.41083
 31
0.0
  0
LINE
  5
23D
  8
0
 10
11.7387
 20
4.41083
 30
0.0
 11
11.4194
 21
5.18158
 31
0.0
  0
LINE
  5
23E
  8
0
 10
11.4194
 20
5.18158
 30
0.0
 11
11.4194
 21
6.01582
 31
0.0
  0
LINE
  5
23F
  8
0
 10
11.4194
 20
6.01582
 30
0.0
 11
11.7387
 21
6.78658
 31
0.0
  0
LINE
  5
240
  8
0
 10
11.7387
 20
6.78658
 30
0.0
 11
11.7482
 21
6.79611
 31
0.0
  0
LINE
  5
241
  8
0
 10
11.7482
 20
6.79611
 30
0.0
 11
10.7746
 21
8.25319
 31
0.0
  0
LINE
  5
242
  8
0
 10
10.7746
 20
8.25319
 30
0.0
 11
10.7622
 21
8.24803
 31
0.0
  0
LINE
  5
243
  8
0
 10
10.7622
 20
8.24803
 30
0.0
 11
9.92793
 21
8.24803
 31
0.0
  0
LINE
  5
244
  8
0
 10
9.92793
 20
8.24803
 30
0.0
 11
9.15718
 21
8.56729
 31
0.0
  0
LINE
  5
245
  8
0
 10
9.15718
 20
8.56729
 30
0.0
 11
8.56729
 21
9.1572
 31
0.0
  0
LINE
  5
246
  8
0
 10
8.56729
 20
9.1572
 30
0.0
 11
8.24803
 21
9.92793
 31
0.0
  0
LINE
  5
247
  8
0
 10
8.24803
 20
9.92793
 30
0.0
 11
8.24803
 21
10.7622
 31
0.0
  0
LINE
  5
248
  8
0
 10
8.24803
 20
10.7622
 30
0.0
 11
8.25319
 21
10.7746
 31
0.0
  0
LINE
  5
249
  8
0
 10
8.25319
 20
10.7746
 30
0.0
 11
6.79611
 21
11.7482
 31
0.0
  0
LINE
  5
24A
  8
0
 10
6.79611
 20
11.7482
 30
0.0
 11
6.78658
 21
11.7387
 31
0.0
  0
LINE
  5
24B
  8
0
 10
6.78658
 20
11.7387
 30
0.0
 11
6.01582
 21
11.4194
 31
0.0
  0
LINE
  5
24C
  8
0
 10
6.01582
 20
11.4194
 30
0.0
 11
5.18158
 21
11.4194
 31
0.0
  0
LINE
  5
24D
  8
0
 10
5.18158
 20
11.4194
 30
0.0
 11
4.41083
 21
11.7387
 31
0.0
  0
LINE
  5
24E
  8
0
 10
4.41083
 20
11.7387
 30
0.0
 11
3.82092
 21
12.3286
 31
0.0
  0
LINE
  5
24F
  8
0
 10
3.82092
 20
12.3286
 30
0.0
 11
3.50168
 21
13.0993
 31
0.0
  0
LINE
  5
250
  8
0
 10
3.50168
 20
13.0993
 30
0.0
 11
3.50168
 21
13.1128
 31
0.0
  0
LINE
  5
251
  8
0
 10
3.50168
 20
13.1128
 30
0.0
 11
1.78293
 21
13.4547
 31
0.0
  0
LINE
  5
252
  8
0
 10
1.78293
 20
13.4547
 30
0.0
 11
1.77777
 21
13.4423
 31
0.0
  0
LINE
  5
253
  8
0
 10
1.77777
 20
13.4423
 30
0.0
 11
1.18787
 21
12.8524
 31
0.0
  0
LINE
  5
254
  8
0
 10
1.18787
 20
12.8524
 30
0.0
 11
0.417114
 21
12.5331
 31
0.0
  0
LINE
  5
255
  8
0
 10
0.417114
 20
12.5331
 30
0.0
 11
-0.417114
 21
12.5331
 31
0.0
  0
LINE
  5
256
  8
0
 10
-0.417114
 20
12.5331
 30
0.0
 11
-1.18787
 21
12.8524
 31
0.0
  0
LINE
  5
257
  8
0
 10
-1.18787
 20
12.8524
 30
0.0
 11
-1.77777
 21
13.4423
 31
0.0
  0
LINE
  5
258
  8
0
 10
-1.77777
 20
13.4423
 30
0.0
 11
-1.78293
 21
13.4547
 31
0.0
  0
LINE
  5
259
  8
0
 10
-1.78293
 20
13.4547
 30
0.0
 11
-3.50168
 21
13.1128
 31
0.0
  0
LINE
  5
25A
  8
0
 10
-3.50168
 20
13.1128
 30
0.0
 11
-3.50168
 21
13.0993
 31
0.0
  0
LINE
  5
25B
  8
0
 10
-3.50168
 20
13.0993
 30
0.0
 11
-3.82092
 21
12.3286
 31
0.0
  0
LINE
  5
25C
  8
0
 10
-3.82092
 20
12.3286
 30
0.0
 11
-4.41083
 21
11.7387
 31
0.0
  0
LINE
  5
25D
  8
0
 10
-4.41083
 20
11.7387
 30
0.0
 11
-5.18158
 21
11.4194
 31
0.0
  0
LINE
  5
25E
  8
0
 10
-5.18158
 20
11.4194
 30
0.0
 11
-6.01582
 21
11.4194
 31
0.0
  0
LINE
  5
25F
  8
0
 10
-6.01582
 20
11.4194
 30
0.0
 11
-6.78658
 21
11.7387
 31
0.0
  0
LINE
  5
260
  8
0
 10
-6.78658
 20
11.7387
 30
0.0
 11
-6.79611
 21
11.7482
 31
0.0
  0
LINE
  5
261
  8
0
 10
-6.79611
 20
11.7482
 30
0.0
 11
-8.25319
 21
10.7746
 31
0.0
  0
LINE
  5
262
  8
0
 10
-8.25319
 20
10.7746
 30
0.0
 11
-8.24803
 21
10.7622
 31
0.0
  0
LINE
  5
263
  8
0
 10
-8.24803
 20
10.7622
 30
0.0
 11
-8.24803
 21
9.92793
 31
0.0
  0
LINE
  5
264
  8
0
 10
-8.24803
 20
9.92793
 30
0.0
 11
-8.56729
 21
9.15718
 31
0.0
  0
LINE
  5
265
  8
0
 10
-8.56729
 20
9.15718
 30
0.0
 11
-9.1572
 21
8.56729
 31
0.0
  0
LINE
  5
266
  8
0
 10
-9.1572
 20
8.56729
 30
0.0
 11
-9.92793
 21
8.24803
 31
0.0
  0
LINE
  5
267
  8
0
 10
-9.92793
 20
8.24803
 30
0.0
 11
-10.7622
 21
8.24803
 31
0.0
  0
LINE
  5
268
  8
0
 10
-10.7622
 20
8.24803
 30
0.0
 11
-10.7746
 21
8.25319
 31
0.0
  0
LINE
  5
269
  8
0
 10
-10.7746
 20
8.25319
 30
0.0
 11
-11.7482
 21
6.79611
 31
0.0
  0
LINE
  5
26A
  8
0
 10
-11.7482
 20
6.79611
 30
0.0
 11
-11.7387
 21
6.78658
 31
0.0
  0
LINE
  5
26B
  8
0
 10
-11.7387
 20
6.78658
 30
0.0
 11
-11.4194
 21
6.01582
 31
0.0
  0
LINE
  5
26C
  8
0
 10
-11.4194
 20
6.01582
 30
0.0
 11
-11.4194
 21
5.18158
 31
0.0
  0
LINE
  5
26D
  8
0
 10
-11.4194
 20
5.18158
 30
0.0
 11
-11.7387
 21
4.41083
 31
0.0
  0
LINE
  5
26E
  8
0
 10
-11.7387
 20
4.41083
 30
0.0
 11
-12.3286
 21
3.82092
 31
0.0
  0
LINE
  5
26F
  8
0
 10
-12.3286
 20
3.82092
 30
0.0
 11
-13.0993
 21
3.50168
 31
0.0
  0
LINE
  5
270
  8
0
 10
-13.0993
 20
3.50168
 30
0.0
 11
-13.1128
 21
3.50168
 31
0.0
  0
LINE
  5
271
  8
0
 10
-13.1128
 20
3.50168
 30
0.0
 11
-13.4547
 21
1.78293
 31
0.0
  0
LINE
  5
272
  8
0
 10
-13.4547
 20
1.78293
 30
0.0
 11
-13.4423
 21
1.77777
 31
0.0
  0
LINE
  5
273
  8
0
 10
-13.4423
 20
1.77777
 30
0.0
 11
-12.8524
 21
1.18787
 31
0.0
  0
LINE
  5
274
  8
0
 10
-12.8524
 20
1.18787
 30
0.0
 11
-12.5331
 21
0.417114
 31
0.0
  0
LINE
  5
275
  8
0
 10
-12.5331
 20
0.417114
 30
0.0
 11
-12.5331
 21
-0.417114
 31
0.0
  0
LINE
  5
276
  8
0
 10
-12.5331
 20
-0.417114
 30
0.0
 11
-12.8524
 21
-1.18787
 31
0.0
  0
LINE
  5
277
  8
0
 10
-12.8524
 20
-1.18787
 30
0.0
 11
-13.4423
 21
-1.77777
 31
0.0
  0
LINE
  5
278
  8
0
 10
-13.4423
 20
-1.77777
 30
0.0
 11
-13.4547
 21
-1.78293
 31
0.0
  0
LINE
  5
279
  8
0
 10
-13.4547
 20
-1.78293
 30
0.0
 11
-13.1128
 21
-3.50168
 31
0.0
  0
LINE
  5
27A
  8
0
 10
-13.1128
 20
-3.50168
 30
0.0
 11
-13.0993
 21
-3.50168
 31
0.0
  0
LINE
  5
27B
  8
0
 10
-13.0993
 20
-3.50168
 30
0.0
 11
-12.3286
 21
-3.82092
 31
0.0
  0
LINE
  5
27C
  8
0
 10
-12.3286
 20
-3.82092
 30
0.0
 11
-11.7387
 21
-4.41083
 31
0.0
  0
LINE
  5
27D
  8
0
 10
-11.7387
 20
-4.41083
 30
0.0
 11
-11.4194
 21
-5.18158
 31
0.0
  0
LINE
  5
27E
  8
0
 10
-11.4194
 20
-5.18158
 30
0.0
 11
-11.4194
 21
-6.01582
 31
0.0
  0
LINE
  5
27F
  8
0
 10
-11.4194
 20
-6.01582
 30
0.0
 11
-11.7387
 21
-6.78658
 31
0.0
  0
LINE
  5
280
  8
0
 10
-11.7387
 20
-6.78658
 30
0.0
 11
-11.7482
 21
-6.79611
 31
0.0
  0
LINE
  5
281
  8
0
 10
-11.7482
 20
-6.79611
 30
0.0
 11
-10.7746
 21
-8.25319
 31
0.0
  0
LINE
  5
282
  8
0
 10
-10.7746
 20
-8.25319
 30
0.0
 11
-10.7622
 21
-8.24803
 31
0.0
  0
LINE
  5
283
  8
0
 10
-10.7622
 20
-8.24803
 30
0.0
 11
-9.92793
 21
-8.24803
 31
0.0
  0
LINE
  5
284
  8
0
 10
-9.92793
 20
-8.24803
 30
0.0
 11
-9.15718
 21
-8.56729
 31
0.0
  0
LINE
  5
285
  8
0
 10
-9.15718
 20
-8.56729
 30
0.0
 11
-8.56729
 21
-9.1572
 31
0.0
  0
LINE
  5
286
  8
0
 10
-8.56729
 20
-9.1572
 30
0.0
 11
-8.24803
 21
-9.92793
 31
0.0
  0
LINE
  5
287
  8
0
 10
-8.24803
 20
-9.92793
 30
0.0
 11
-8.24803
 21
-10.7622
 31
0.0
  0
LINE
  5
288
  8
0
 10
-8.24803
 20
-10.7622
 30
0.0
 11
-8.25319
 21
-10.7746
 31
0.0
  0
LINE
  5
289
  8
0
 10
-8.25319
 20
-10.7746
 30
0.0
 11
-6.79611
 21
-11.7482
 31
0.0
  0
LINE
  5
28A
  8
0
 10
-6.79611
 20
-11.7482
 30
0.0
 11
-6.78658
 21
-11.7387
 31
0.0
  0
LINE
  5
28B
  8
0
 10
-6.78658
 20
-11.7387
 30
0.0
 11
-6.01582
 21
-11.4194
 31
0.0
  0
LINE
  5
28C
  8
0
 10
-6.01582
 20
-11.4194
 30
0.0
 11
-5.18158
 21
-11.4194
 31
0.0
  0
LINE
  5
28D
  8
0
 10
-5.18158
 20
-11.4194
 30
0.0
 11
-4.41083
 21
-11.7387
 31
0.0
  0
LINE
  5
28E
  8
0
 10
-4.41083
 20
-11.7387
 30
0.0
 11
-3.82092
 21
-12.3286
 31
0.0
  0
LINE
  5
28F
  8
0
 10
-3.82092
 20
-12.3286
 30
0.0
 11
-3.50168
 21
-13.0993
 31
0.0
  0
LINE
  5
290
  8
0
 10
-3.50168
 20
-13.0993
 30
0.0
 11
-3.50168
 21
-13.1128
 31
0.0
  0
LINE
  5
291
  8
0
 10
-3.50168
 20
-13.1128
 30
0.0
 11
-1.78293
 21
-13.4547
 31
0.0
  0
LINE
  5
292
  8
0
 10
-1.78293
 20
-13.4547
 30
0.0
 11
-1.77777
 21
-13.4423
 31
0.0
  0
LINE
  5
293
  8
0
 10
-1.77777
 20
-13.4423
 30
0.0
 11
-1.18787
 21
-12.8524
 31
0.0
  0
LINE
  5
294
  8
0
 10
-1.18787
 20
-12.8524
 30
0.0
 11
-0.417114
 21
-12.5331
 31
0.0
  0
LINE
  5
295
  8
0
 10
-0.417114
 20
-12.5331
 30
0.0
 11
0.417114
 21
-12.5331
 31
0.0
  0
LINE
  5
296
  8
0
 10
0.417114
 20
-12.5331
 30
0.0
 11
1.18787
 21
-12.8524
 31
0.0
  0
LINE
  5
297
  8
0
 10
1.18787
 20
-12.8524
 30
0.0
 11
1.77777
 21
-13.4423
 31
0.0
  0
LINE
  5
298
  8
0
 10
1.77777
 20
-13.4423
 30
0.0
 11
1.78293
 21
-13.4547
 31
0.0
  0
LINE
  5
299
  8
0
 10
1.78293
 20
-13.4547
 30
0.0
 11
3.50168
 21
-13.1128
 31
0.0
  0
LINE
  5
29A
  8
0
 10
-1.44638
 20
-6.33702
 30
0.0
 11
-3.25
 21
-5.62915
 31
0.0
  0
LINE
  5
29B
  8
0
 10
-3.25
 20
-5.62915
 30
0.0
 11
-4.76483
 21
-4.42111
 31
0.0
  0
LINE
  5
29C
  8
0
 10
-4.76483
 20
-4.42111
 30
0.0
 11
-5.85629
 21
-2.82024
 31
0.0
  0
LINE
  5
29D
  8
0
 10
-5.85629
 20
-2.82024
 30
0.0
 11
-6.4274
 21
-0.968765
 31
0.0
  0
LINE
  5
29E
  8
0
 10
-6.4274
 20
-0.968765
 30
0.0
 11
-6.4274
 21
0.968765
 31
0.0
  0
LINE
  5
29F
  8
0
 10
-6.4274
 20
0.968765
 30
0.0
 11
-5.85629
 21
2.82024
 31
0.0
  0
LINE
  5
2A0
  8
0
 10
-5.85629
 20
2.82024
 30
0.0
 11
-4.76483
 21
4.42111
 31
0.0
  0
LINE
  5
2A1
  8
0
 10
-4.76483
 20
4.42111
 30
0.0
 11
-3.25
 21
5.62915
 31
0.0
  0
LINE
  5
2A2
  8
0
 10
-3.25
 20
5.62915
 30
0.0
 11
-1.44638
 21
6.33702
 31
0.0
  0
LINE
  5
2A3
  8
0
 10
-1.44638
 20
6.33702
 30
0.0
 11
0.485733
 21
6.48181
 31
0.0
  0
LINE
  5
2A4
  8
0
 10
0.485733
 20
6.48181
 30
0.0
 11
2.37471
 21
6.05067
 31
0.0
  0
LINE
  5
2A5
  8
0
 10
2.37471
 20
6.05067
 30
0.0
 11
4.05267
 21
5.08189
 31
0.0
  0
LINE
  5
2A6
  8
0
 10
4.05267
 20
5.08189
 30
0.0
 11
5.37054
 21
3.66158
 31
0.0
  0
LINE
  5
2A7
  8
0
 10
5.37054
 20
3.66158
 30
0.0
 11
6.21121
 21
1.91589
 31
0.0
  0
LINE
  5
2A8
  8
0
 10
6.21121
 20
1.91589
 30
0.0
 11
6.5
 21
0.0
 31
0.0
  0
LINE
  5
2A9
  8
0
 10
6.5
 20
0.0
 30
0.0
 11
6.21121
 21
-1.91589
 31
0.0
  0
LINE
  5
2AA
  8
0
 10
6.21121
 20
-1.91589
 30
0.0
 11
5.37054
 21
-3.66158
 31
0.0
  0
LINE
  5
2AB
  8
0
 10
5.37054
 20
-3.66158
 30
0.0
 11
4.05267
 21
-5.08189
 31
0.0
  0
LINE
  5
2AC
  8
0
 10
4.05267
 20
-5.08189
 30
0.0
 11
2.37471
 21
-6.05067
 31
0.0
  0
LINE
  5
2AD
  8
0
 10
2.37471
 20
-6.05067
 30
0.0
 11
0.485733
 21
-6.48181
 31
0.0
  0
LINE
  5
2AE
  8
0
 10
0.485733
 20
-6.48181
 30
0.0
 11
-1.44638
 21
-6.33702
 31
0.0
  0
LINE
  5
2AF
  8
0
 10
9.21004
 20
-1.28499
 30
0.0
 11
9.21004
 21
1.28499
 31
0.0
  0
LINE
  5
2B0
  8
0
 10
9.21004
 20
1.28499
 30
0.0
 11
11.9201
 21
1.28499
 31
0.0
  0
LINE
  5
2B1
  8
0
 10
11.9201
 20
1.28499
 30
0.0
 11
11.9201
 21
-1.28499
 31
0.0
  0
LINE
  5
2B2
  8
0
 10
11.9201
 20
-1.28499
 30
0.0
 11
9.21004
 21
-1.28499
 31
0.0
  0
TEXT
  5
2E8
  8
0
 62
5
 10
0.0
 20
0.0
 30
0.0
 40
3.0
  1
6
  7
OpenSans-Regular
  0
ENDSEC
  0
EOF
