  0
SECTION
  2
BLOCKS
  0
ENDSEC
  0
SECTION
  2
ENTITIES
  0
LINE
  8
0
 10
14.32
 20
108.41
 11
20.24
 21
108.41
  0
LINE
  8
0
 10
20.24
 20
108.41
 11
20.24
 21
105.61
  0
LINE
  8
0
 10
20.24
 20
105.61
 11
26.16
 21
105.61
  0
LINE
  8
0
 10
26.16
 20
105.61
 11
26.16
 21
108.41
  0
LINE
  8
0
 10
26.16
 20
108.41
 11
32.08
 21
108.41
  0
LINE
  8
0
 10
32.08
 20
108.41
 11
32.08
 21
105.61
  0
LINE
  8
0
 10
32.08
 20
105.61
 11
38
 21
105.61
  0
LINE
  8
0
 10
38
 20
105.61
 11
38
 21
108.41
  0
LINE
  8
0
 10
38
 20
108.41
 11
43.92
 21
108.41
  0
LINE
  8
0
 10
43.92
 20
108.41
 11
43.92
 21
105.61
  0
LINE
  8
0
 10
43.92
 20
105.61
 11
49.84
 21
105.61
  0
LINE
  8
0
 10
49.84
 20
105.61
 11
49.84
 21
108.41
  0
LINE
  8
0
 10
49.84
 20
108.41
 11
55.76
 21
108.41
  0
LINE
  8
0
 10
55.76
 20
108.41
 11
55.76
 21
105.61
  0
LINE
  8
0
 10
55.76
 20
105.61
 11
61.68
 21
105.61
  0
LINE
  8
0
 10
61.68
 20
105.61
 11
61.68
 21
108.41
  0
LINE
  8
0
 10
61.68
 20
108.41
 11
67.6
 21
108.41
  0
LINE
  8
0
 10
67.6
 20
108.41
 11
67.6
 21
105.61
  0
LINE
  8
0
 10
67.6
 20
105.61
 11
73.52
 21
105.61
  0
LINE
  8
0
 10
73.52
 20
105.61
 11
73.52
 21
108.41
  0
LINE
  8
0
 10
73.52
 20
108.41
 11
79.44
 21
108.41
  0
LINE
  8
0
 10
79.44
 20
108.41
 11
79.44
 21
105.61
  0
LINE
  8
0
 10
79.44
 20
105.61
 11
85.36
 21
105.61
  0
LINE
  8
0
 10
85.36
 20
105.61
 11
85.36
 21
108.41
  0
LINE
  8
0
 10
85.36
 20
108.41
 11
91.28
 21
108.41
  0
LINE
  8
0
 10
91.28
 20
108.41
 11
91.28
 21
105.61
  0
LINE
  8
0
 10
91.28
 20
105.61
 11
97.2
 21
105.61
  0
LINE
  8
0
 10
97.2
 20
105.61
 11
97.2
 21
108.41
  0
LINE
  8
0
 10
97.2
 20
108.41
 11
102.8
 21
108.41
  0
LINE
  8
0
 10
102.8
 20
108.41
 11
102.8
 21
116.81
  0
LINE
  8
0
 10
102.8
 20
116.81
 11
105.6
 21
116.81
  0
LINE
  8
0
 10
105.6
 20
116.81
 11
105.6
 21
123.21
  0
LINE
  8
0
 10
105.6
 20
123.21
 11
102.8
 21
123.21
  0
LINE
  8
0
 10
102.8
 20
123.21
 11
102.8
 21
129.61
  0
LINE
  8
0
 10
102.8
 20
129.61
 11
105.6
 21
129.61
  0
LINE
  8
0
 10
105.6
 20
129.61
 11
105.6
 21
136.01
  0
LINE
  8
0
 10
105.6
 20
136.01
 11
102.8
 21
136.01
  0
LINE
  8
0
 10
102.8
 20
136.01
 11
102.8
 21
142.41
  0
LINE
  8
0
 10
102.8
 20
142.41
 11
105.6
 21
142.41
  0
LINE
  8
0
 10
105.6
 20
142.41
 11
105.6
 21
148.81
  0
LINE
  8
0
 10
105.6
 20
148.81
 11
102.8
 21
148.81
  0
LINE
  8
0
 10
102.8
 20
148.81
 11
102.8
 21
155.21
  0
LINE
  8
0
 10
102.8
 20
155.21
 11
105.6
 21
155.21
  0
LINE
  8
0
 10
105.6
 20
155.21
 11
105.6
 21
161.61
  0
LINE
  8
0
 10
105.6
 20
161.61
 11
102.8
 21
161.61
  0
LINE
  8
0
 10
102.8
 20
161.61
 11
102.8
 21
168.01
  0
LINE
  8
0
 10
102.8
 20
168.01
 11
105.6
 21
168.01
  0
LINE
  8
0
 10
105.6
 20
168.01
 11
105.6
 21
174.41
  0
LINE
  8
0
 10
105.6
 20
174.41
 11
102.8
 21
174.41
  0
LINE
  8
0
 10
102.8
 20
174.41
 11
102.8
 21
180.81
  0
LINE
  8
0
 10
102.8
 20
180.81
 11
105.6
 21
180.81
  0
LINE
  8
0
 10
105.6
 20
180.81
 11
105.6
 21
187.21
  0
LINE
  8
0
 10
105.6
 20
187.21
 11
102.8
 21
187.21
  0
LINE
  8
0
 10
102.8
 20
187.21
 11
102.8
 21
193.61
  0
LINE
  8
0
 10
102.8
 20
193.61
 11
105.6
 21
193.61
  0
LINE
  8
0
 10
105.6
 20
193.61
 11
105.6
 21
200.01
  0
LINE
  8
0
 10
105.6
 20
200.01
 11
102.8
 21
200.01
  0
LINE
  8
0
 10
102.8
 20
200.01
 11
102.8
 21
208.41
  0
LINE
  8
0
 10
102.8
 20
208.41
 11
97.2
 21
208.41
  0
LINE
  8
0
 10
97.2
 20
208.41
 11
97.2
 21
211.21
  0
LINE
  8
0
 10
97.2
 20
211.21
 11
91.28
 21
211.21
  0
LINE
  8
0
 10
91.28
 20
211.21
 11
91.28
 21
208.41
  0
LINE
  8
0
 10
91.28
 20
208.41
 11
85.36
 21
208.41
  0
LINE
  8
0
 10
85.36
 20
208.41
 11
85.36
 21
211.21
  0
LINE
  8
0
 10
85.36
 20
211.21
 11
79.44
 21
211.21
  0
LINE
  8
0
 10
79.44
 20
211.21
 11
79.44
 21
208.41
  0
LINE
  8
0
 10
79.44
 20
208.41
 11
73.52
 21
208.41
  0
LINE
  8
0
 10
73.52
 20
208.41
 11
73.52
 21
211.21
  0
LINE
  8
0
 10
73.52
 20
211.21
 11
67.6
 21
211.21
  0
LINE
  8
0
 10
67.6
 20
211.21
 11
67.6
 21
208.41
  0
LINE
  8
0
 10
67.6
 20
208.41
 11
61.68
 21
208.41
  0
LINE
  8
0
 10
61.68
 20
208.41
 11
61.68
 21
211.21
  0
LINE
  8
0
 10
61.68
 20
211.21
 11
55.76
 21
211.21
  0
LINE
  8
0
 10
55.76
 20
211.21
 11
55.76
 21
208.41
  0
LINE
  8
0
 10
55.76
 20
208.41
 11
49.84
 21
208.41
  0
LINE
  8
0
 10
49.84
 20
208.41
 11
49.84
 21
211.21
  0
LINE
  8
0
 10
49.84
 20
211.21
 11
43.92
 21
211.21
  0
LINE
  8
0
 10
43.92
 20
211.21
 11
43.92
 21
208.41
  0
LINE
  8
0
 10
43.92
 20
208.41
 11
38
 21
208.41
  0
LINE
  8
0
 10
38
 20
208.41
 11
38
 21
211.21
  0
LINE
  8
0
 10
38
 20
211.21
 11
32.08
 21
211.21
  0
LINE
  8
0
 10
32.08
 20
211.21
 11
32.08
 21
208.41
  0
LINE
  8
0
 10
32.08
 20
208.41
 11
26.16
 21
208.41
  0
LINE
  8
0
 10
26.16
 20
208.41
 11
26.16
 21
211.21
  0
LINE
  8
0
 10
26.16
 20
211.21
 11
20.24
 21
211.21
  0
LINE
  8
0
 10
20.24
 20
211.21
 11
20.24
 21
208.41
  0
LINE
  8
0
 10
20.24
 20
208.41
 11
14.32
 21
208.41
  0
LINE
  8
0
 10
14.32
 20
208.41
 11
14.32
 21
211.21
  0
LINE
  8
0
 10
14.32
 20
211.21
 11
8.39999
 21
211.21
  0
LINE
  8
0
 10
8.39999
 20
211.21
 11
8.39999
 21
208.41
  0
LINE
  8
0
 10
8.39999
 20
208.41
 11
2.79999
 21
208.41
  0
LINE
  8
0
 10
2.79999
 20
208.41
 11
2.79999
 21
200.01
  0
LINE
  8
0
 10
2.79999
 20
200.01
 11
0
 21
200.01
  0
LINE
  8
0
 10
0
 20
200.01
 11
0
 21
193.61
  0
LINE
  8
0
 10
0
 20
193.61
 11
2.79999
 21
193.61
  0
LINE
  8
0
 10
2.79999
 20
193.61
 11
2.79999
 21
187.21
  0
LINE
  8
0
 10
2.79999
 20
187.21
 11
0
 21
187.21
  0
LINE
  8
0
 10
0
 20
187.21
 11
0
 21
180.81
  0
LINE
  8
0
 10
0
 20
180.81
 11
2.79999
 21
180.81
  0
LINE
  8
0
 10
2.79999
 20
180.81
 11
2.79999
 21
174.41
  0
LINE
  8
0
 10
2.79999
 20
174.41
 11
0
 21
174.41
  0
LINE
  8
0
 10
0
 20
174.41
 11
0
 21
168.01
  0
LINE
  8
0
 10
0
 20
168.01
 11
2.79999
 21
168.01
  0
LINE
  8
0
 10
2.79999
 20
168.01
 11
2.79999
 21
161.61
  0
LINE
  8
0
 10
2.79999
 20
161.61
 11
0
 21
161.61
  0
LINE
  8
0
 10
0
 20
161.61
 11
0
 21
155.21
  0
LINE
  8
0
 10
0
 20
155.21
 11
2.79999
 21
155.21
  0
LINE
  8
0
 10
2.79999
 20
155.21
 11
2.79999
 21
148.81
  0
LINE
  8
0
 10
2.79999
 20
148.81
 11
0
 21
148.81
  0
LINE
  8
0
 10
0
 20
148.81
 11
0
 21
142.41
  0
LINE
  8
0
 10
0
 20
142.41
 11
2.79999
 21
142.41
  0
LINE
  8
0
 10
2.79999
 20
142.41
 11
2.79999
 21
136.01
  0
LINE
  8
0
 10
2.79999
 20
136.01
 11
0
 21
136.01
  0
LINE
  8
0
 10
0
 20
136.01
 11
0
 21
129.61
  0
LINE
  8
0
 10
0
 20
129.61
 11
2.79999
 21
129.61
  0
LINE
  8
0
 10
2.79999
 20
129.61
 11
2.79999
 21
123.21
  0
LINE
  8
0
 10
2.79999
 20
123.21
 11
0
 21
123.21
  0
LINE
  8
0
 10
0
 20
123.21
 11
0
 21
116.81
  0
LINE
  8
0
 10
0
 20
116.81
 11
2.79999
 21
116.81
  0
LINE
  8
0
 10
2.79999
 20
116.81
 11
2.79999
 21
108.41
  0
LINE
  8
0
 10
2.79999
 20
108.41
 11
8.39999
 21
108.41
  0
LINE
  8
0
 10
8.39999
 20
108.41
 11
8.39999
 21
105.61
  0
LINE
  8
0
 10
8.39999
 20
105.61
 11
14.32
 21
105.61
  0
LINE
  8
0
 10
14.32
 20
105.61
 11
14.32
 21
108.41
  0
LINE
  8
0
 10
8.39999
 20
2.79999
 11
14.32
 21
2.79999
  0
LINE
  8
0
 10
14.32
 20
2.79999
 11
14.32
 21
0
  0
LINE
  8
0
 10
14.32
 20
0
 11
20.24
 21
0
  0
LINE
  8
0
 10
20.24
 20
0
 11
20.24
 21
2.79999
  0
LINE
  8
0
 10
20.24
 20
2.79999
 11
26.16
 21
2.79999
  0
LINE
  8
0
 10
26.16
 20
2.79999
 11
26.16
 21
0
  0
LINE
  8
0
 10
26.16
 20
0
 11
32.08
 21
0
  0
LINE
  8
0
 10
32.08
 20
0
 11
32.08
 21
2.79999
  0
LINE
  8
0
 10
32.08
 20
2.79999
 11
38
 21
2.79999
  0
LINE
  8
0
 10
38
 20
2.79999
 11
38
 21
0
  0
LINE
  8
0
 10
38
 20
0
 11
43.92
 21
0
  0
LINE
  8
0
 10
43.92
 20
0
 11
43.92
 21
2.79999
  0
LINE
  8
0
 10
43.92
 20
2.79999
 11
49.84
 21
2.79999
  0
LINE
  8
0
 10
49.84
 20
2.79999
 11
49.84
 21
0
  0
LINE
  8
0
 10
49.84
 20
0
 11
55.76
 21
0
  0
LINE
  8
0
 10
55.76
 20
0
 11
55.76
 21
2.79999
  0
LINE
  8
0
 10
55.76
 20
2.79999
 11
61.68
 21
2.79999
  0
LINE
  8
0
 10
61.68
 20
2.79999
 11
61.68
 21
0
  0
LINE
  8
0
 10
61.68
 20
0
 11
67.6
 21
0
  0
LINE
  8
0
 10
67.6
 20
0
 11
67.6
 21
2.79999
  0
LINE
  8
0
 10
67.6
 20
2.79999
 11
73.52
 21
2.79999
  0
LINE
  8
0
 10
73.52
 20
2.79999
 11
73.52
 21
0
  0
LINE
  8
0
 10
73.52
 20
0
 11
79.44
 21
0
  0
LINE
  8
0
 10
79.44
 20
0
 11
79.44
 21
2.79999
  0
LINE
  8
0
 10
79.44
 20
2.79999
 11
85.36
 21
2.79999
  0
LINE
  8
0
 10
85.36
 20
2.79999
 11
85.36
 21
0
  0
LINE
  8
0
 10
85.36
 20
0
 11
91.28
 21
0
  0
LINE
  8
0
 10
91.28
 20
0
 11
91.28
 21
2.79999
  0
LINE
  8
0
 10
91.28
 20
2.79999
 11
97.2
 21
2.79999
  0
LINE
  8
0
 10
97.2
 20
2.79999
 11
97.2
 21
0
  0
LINE
  8
0
 10
97.2
 20
0
 11
105.6
 21
0
  0
LINE
  8
0
 10
105.6
 20
0
 11
105.6
 21
8.39999
  0
LINE
  8
0
 10
105.6
 20
8.39999
 11
102.8
 21
8.39999
  0
LINE
  8
0
 10
102.8
 20
8.39999
 11
102.8
 21
14.32
  0
LINE
  8
0
 10
102.8
 20
14.32
 11
105.6
 21
14.32
  0
LINE
  8
0
 10
105.6
 20
14.32
 11
105.6
 21
20.24
  0
LINE
  8
0
 10
105.6
 20
20.24
 11
102.8
 21
20.24
  0
LINE
  8
0
 10
102.8
 20
20.24
 11
102.8
 21
26.16
  0
LINE
  8
0
 10
102.8
 20
26.16
 11
105.6
 21
26.16
  0
LINE
  8
0
 10
105.6
 20
26.16
 11
105.6
 21
32.08
  0
LINE
  8
0
 10
105.6
 20
32.08
 11
102.8
 21
32.08
  0
LINE
  8
0
 10
102.8
 20
32.08
 11
102.8
 21
38
  0
LINE
  8
0
 10
102.8
 20
38
 11
105.6
 21
38
  0
LINE
  8
0
 10
105.6
 20
38
 11
105.6
 21
43.92
  0
LINE
  8
0
 10
105.6
 20
43.92
 11
102.8
 21
43.92
  0
LINE
  8
0
 10
102.8
 20
43.92
 11
102.8
 21
49.84
  0
LINE
  8
0
 10
102.8
 20
49.84
 11
105.6
 21
49.84
  0
LINE
  8
0
 10
105.6
 20
49.84
 11
105.6
 21
55.76
  0
LINE
  8
0
 10
105.6
 20
55.76
 11
102.8
 21
55.76
  0
LINE
  8
0
 10
102.8
 20
55.76
 11
102.8
 21
61.68
  0
LINE
  8
0
 10
102.8
 20
61.68
 11
105.6
 21
61.68
  0
LINE
  8
0
 10
105.6
 20
61.68
 11
105.6
 21
67.6
  0
LINE
  8
0
 10
105.6
 20
67.6
 11
102.8
 21
67.6
  0
LINE
  8
0
 10
102.8
 20
67.6
 11
102.8
 21
73.52
  0
LINE
  8
0
 10
102.8
 20
73.52
 11
105.6
 21
73.52
  0
LINE
  8
0
 10
105.6
 20
73.52
 11
105.6
 21
79.44
  0
LINE
  8
0
 10
105.6
 20
79.44
 11
102.8
 21
79.44
  0
LINE
  8
0
 10
102.8
 20
79.44
 11
102.8
 21
85.36
  0
LINE
  8
0
 10
102.8
 20
85.36
 11
105.6
 21
85.36
  0
LINE
  8
0
 10
105.6
 20
85.36
 11
105.6
 21
91.28
  0
LINE
  8
0
 10
105.6
 20
91.28
 11
102.8
 21
91.28
  0
LINE
  8
0
 10
102.8
 20
91.28
 11
102.8
 21
97.2
  0
LINE
  8
0
 10
102.8
 20
97.2
 11
105.6
 21
97.2
  0
LINE
  8
0
 10
105.6
 20
97.2
 11
105.6
 21
105.6
  0
LINE
  8
0
 10
105.6
 20
105.6
 11
0
 21
105.6
  0
LINE
  8
0
 10
0
 20
105.6
 11
0
 21
97.2
  0
LINE
  8
0
 10
0
 20
97.2
 11
2.79999
 21
97.2
  0
LINE
  8
0
 10
2.79999
 20
97.2
 11
2.79999
 21
91.28
  0
LINE
  8
0
 10
2.79999
 20
91.28
 11
0
 21
91.28
  0
LINE
  8
0
 10
0
 20
91.28
 11
0
 21
85.36
  0
LINE
  8
0
 10
0
 20
85.36
 11
2.79999
 21
85.36
  0
LINE
  8
0
 10
2.79999
 20
85.36
 11
2.79999
 21
79.44
  0
LINE
  8
0
 10
2.79999
 20
79.44
 11
0
 21
79.44
  0
LINE
  8
0
 10
0
 20
79.44
 11
0
 21
73.52
  0
LINE
  8
0
 10
0
 20
73.52
 11
2.79999
 21
73.52
  0
LINE
  8
0
 10
2.79999
 20
73.52
 11
2.79999
 21
67.6
  0
LINE
  8
0
 10
2.79999
 20
67.6
 11
0
 21
67.6
  0
LINE
  8
0
 10
0
 20
67.6
 11
0
 21
61.68
  0
LINE
  8
0
 10
0
 20
61.68
 11
2.79999
 21
61.68
  0
LINE
  8
0
 10
2.79999
 20
61.68
 11
2.79999
 21
55.76
  0
LINE
  8
0
 10
2.79999
 20
55.76
 11
0
 21
55.76
  0
LINE
  8
0
 10
0
 20
55.76
 11
0
 21
49.84
  0
LINE
  8
0
 10
0
 20
49.84
 11
2.79999
 21
49.84
  0
LINE
  8
0
 10
2.79999
 20
49.84
 11
2.79999
 21
43.92
  0
LINE
  8
0
 10
2.79999
 20
43.92
 11
0
 21
43.92
  0
LINE
  8
0
 10
0
 20
43.92
 11
0
 21
38
  0
LINE
  8
0
 10
0
 20
38
 11
2.79999
 21
38
  0
LINE
  8
0
 10
2.79999
 20
38
 11
2.79999
 21
32.08
  0
LINE
  8
0
 10
2.79999
 20
32.08
 11
0
 21
32.08
  0
LINE
  8
0
 10
0
 20
32.08
 11
0
 21
26.16
  0
LINE
  8
0
 10
0
 20
26.16
 11
2.79999
 21
26.16
  0
LINE
  8
0
 10
2.79999
 20
26.16
 11
2.79999
 21
20.24
  0
LINE
  8
0
 10
2.79999
 20
20.24
 11
0
 21
20.24
  0
LINE
  8
0
 10
0
 20
20.24
 11
0
 21
14.32
  0
LINE
  8
0
 10
0
 20
14.32
 11
2.79999
 21
14.32
  0
LINE
  8
0
 10
2.79999
 20
14.32
 11
2.79999
 21
8.39999
  0
LINE
  8
0
 10
2.79999
 20
8.39999
 11
0
 21
8.39999
  0
LINE
  8
0
 10
0
 20
8.39999
 11
0
 21
0
  0
LINE
  8
0
 10
0
 20
0
 11
8.39999
 21
0
  0
LINE
  8
0
 10
8.39999
 20
0
 11
8.39999
 21
2.79999
  0
LINE
  8
0
 10
114.01
 20
2.79999
 11
119.93
 21
2.79999
  0
LINE
  8
0
 10
119.93
 20
2.79999
 11
119.93
 21
0
  0
LINE
  8
0
 10
119.93
 20
0
 11
125.85
 21
0
  0
LINE
  8
0
 10
125.85
 20
0
 11
125.85
 21
2.79999
  0
LINE
  8
0
 10
125.85
 20
2.79999
 11
131.77
 21
2.79999
  0
LINE
  8
0
 10
131.77
 20
2.79999
 11
131.77
 21
0
  0
LINE
  8
0
 10
131.77
 20
0
 11
137.69
 21
0
  0
LINE
  8
0
 10
137.69
 20
0
 11
137.69
 21
2.79999
  0
LINE
  8
0
 10
137.69
 20
2.79999
 11
143.61
 21
2.79999
  0
LINE
  8
0
 10
143.61
 20
2.79999
 11
143.61
 21
0
  0
LINE
  8
0
 10
143.61
 20
0
 11
149.53
 21
0
  0
LINE
  8
0
 10
149.53
 20
0
 11
149.53
 21
2.79999
  0
LINE
  8
0
 10
149.53
 20
2.79999
 11
155.45
 21
2.79999
  0
LINE
  8
0
 10
155.45
 20
2.79999
 11
155.45
 21
0
  0
LINE
  8
0
 10
155.45
 20
0
 11
161.37
 21
0
  0
LINE
  8
0
 10
161.37
 20
0
 11
161.37
 21
2.79999
  0
LINE
  8
0
 10
161.37
 20
2.79999
 11
167.29
 21
2.79999
  0
LINE
  8
0
 10
167.29
 20
2.79999
 11
167.29
 21
0
  0
LINE
  8
0
 10
167.29
 20
0
 11
173.21
 21
0
  0
LINE
  8
0
 10
173.21
 20
0
 11
173.21
 21
2.79999
  0
LINE
  8
0
 10
173.21
 20
2.79999
 11
179.13
 21
2.79999
  0
LINE
  8
0
 10
179.13
 20
2.79999
 11
179.13
 21
0
  0
LINE
  8
0
 10
179.13
 20
0
 11
185.05
 21
0
  0
LINE
  8
0
 10
185.05
 20
0
 11
185.05
 21
2.79999
  0
LINE
  8
0
 10
185.05
 20
2.79999
 11
190.97
 21
2.79999
  0
LINE
  8
0
 10
190.97
 20
2.79999
 11
190.97
 21
0
  0
LINE
  8
0
 10
190.97
 20
0
 11
196.89
 21
0
  0
LINE
  8
0
 10
196.89
 20
0
 11
196.89
 21
2.79999
  0
LINE
  8
0
 10
196.89
 20
2.79999
 11
202.81
 21
2.79999
  0
LINE
  8
0
 10
202.81
 20
2.79999
 11
202.81
 21
0
  0
LINE
  8
0
 10
202.81
 20
0
 11
211.21
 21
0
  0
LINE
  8
0
 10
211.21
 20
0
 11
211.21
 21
8.39999
  0
LINE
  8
0
 10
211.21
 20
8.39999
 11
208.41
 21
8.39999
  0
LINE
  8
0
 10
208.41
 20
8.39999
 11
208.41
 21
14.32
  0
LINE
  8
0
 10
208.41
 20
14.32
 11
211.21
 21
14.32
  0
LINE
  8
0
 10
211.21
 20
14.32
 11
211.21
 21
20.24
  0
LINE
  8
0
 10
211.21
 20
20.24
 11
208.41
 21
20.24
  0
LINE
  8
0
 10
208.41
 20
20.24
 11
208.41
 21
26.16
  0
LINE
  8
0
 10
208.41
 20
26.16
 11
211.21
 21
26.16
  0
LINE
  8
0
 10
211.21
 20
26.16
 11
211.21
 21
32.08
  0
LINE
  8
0
 10
211.21
 20
32.08
 11
208.41
 21
32.08
  0
LINE
  8
0
 10
208.41
 20
32.08
 11
208.41
 21
38
  0
LINE
  8
0
 10
208.41
 20
38
 11
211.21
 21
38
  0
LINE
  8
0
 10
211.21
 20
38
 11
211.21
 21
43.92
  0
LINE
  8
0
 10
211.21
 20
43.92
 11
208.41
 21
43.92
  0
LINE
  8
0
 10
208.41
 20
43.92
 11
208.41
 21
49.84
  0
LINE
  8
0
 10
208.41
 20
49.84
 11
211.21
 21
49.84
  0
LINE
  8
0
 10
211.21
 20
49.84
 11
211.21
 21
55.76
  0
LINE
  8
0
 10
211.21
 20
55.76
 11
208.41
 21
55.76
  0
LINE
  8
0
 10
208.41
 20
55.76
 11
208.41
 21
61.68
  0
LINE
  8
0
 10
208.41
 20
61.68
 11
211.21
 21
61.68
  0
LINE
  8
0
 10
211.21
 20
61.68
 11
211.21
 21
67.6
  0
LINE
  8
0
 10
211.21
 20
67.6
 11
208.41
 21
67.6
  0
LINE
  8
0
 10
208.41
 20
67.6
 11
208.41
 21
73.52
  0
LINE
  8
0
 10
208.41
 20
73.52
 11
211.21
 21
73.52
  0
LINE
  8
0
 10
211.21
 20
73.52
 11
211.21
 21
79.44
  0
LINE
  8
0
 10
211.21
 20
79.44
 11
208.41
 21
79.44
  0
LINE
  8
0
 10
208.41
 20
79.44
 11
208.41
 21
85.36
  0
LINE
  8
0
 10
208.41
 20
85.36
 11
211.21
 21
85.36
  0
LINE
  8
0
 10
211.21
 20
85.36
 11
211.21
 21
91.28
  0
LINE
  8
0
 10
211.21
 20
91.28
 11
208.41
 21
91.28
  0
LINE
  8
0
 10
208.41
 20
91.28
 11
208.41
 21
97.2
  0
LINE
  8
0
 10
208.41
 20
97.2
 11
211.21
 21
97.2
  0
LINE
  8
0
 10
211.21
 20
97.2
 11
211.21
 21
105.6
  0
LINE
  8
0
 10
211.21
 20
105.6
 11
105.61
 21
105.6
  0
LINE
  8
0
 10
105.61
 20
105.6
 11
105.61
 21
97.2
  0
LINE
  8
0
 10
105.61
 20
97.2
 11
108.41
 21
97.2
  0
LINE
  8
0
 10
108.41
 20
97.2
 11
108.41
 21
91.28
  0
LINE
  8
0
 10
108.41
 20
91.28
 11
105.61
 21
91.28
  0
LINE
  8
0
 10
105.61
 20
91.28
 11
105.61
 21
85.36
  0
LINE
  8
0
 10
105.61
 20
85.36
 11
108.41
 21
85.36
  0
LINE
  8
0
 10
108.41
 20
85.36
 11
108.41
 21
79.44
  0
LINE
  8
0
 10
108.41
 20
79.44
 11
105.61
 21
79.44
  0
LINE
  8
0
 10
105.61
 20
79.44
 11
105.61
 21
73.52
  0
LINE
  8
0
 10
105.61
 20
73.52
 11
108.41
 21
73.52
  0
LINE
  8
0
 10
108.41
 20
73.52
 11
108.41
 21
67.6
  0
LINE
  8
0
 10
108.41
 20
67.6
 11
105.61
 21
67.6
  0
LINE
  8
0
 10
105.61
 20
67.6
 11
105.61
 21
61.68
  0
LINE
  8
0
 10
105.61
 20
61.68
 11
108.41
 21
61.68
  0
LINE
  8
0
 10
108.41
 20
61.68
 11
108.41
 21
55.76
  0
LINE
  8
0
 10
108.41
 20
55.76
 11
105.61
 21
55.76
  0
LINE
  8
0
 10
105.61
 20
55.76
 11
105.61
 21
49.84
  0
LINE
  8
0
 10
105.61
 20
49.84
 11
108.41
 21
49.84
  0
LINE
  8
0
 10
108.41
 20
49.84
 11
108.41
 21
43.92
  0
LINE
  8
0
 10
108.41
 20
43.92
 11
105.61
 21
43.92
  0
LINE
  8
0
 10
105.61
 20
43.92
 11
105.61
 21
38
  0
LINE
  8
0
 10
105.61
 20
38
 11
108.41
 21
38
  0
LINE
  8
0
 10
108.41
 20
38
 11
108.41
 21
32.08
  0
LINE
  8
0
 10
108.41
 20
32.08
 11
105.61
 21
32.08
  0
LINE
  8
0
 10
105.61
 20
32.08
 11
105.61
 21
26.16
  0
LINE
  8
0
 10
105.61
 20
26.16
 11
108.41
 21
26.16
  0
LINE
  8
0
 10
108.41
 20
26.16
 11
108.41
 21
20.24
  0
LINE
  8
0
 10
108.41
 20
20.24
 11
105.61
 21
20.24
  0
LINE
  8
0
 10
105.61
 20
20.24
 11
105.61
 21
14.32
  0
LINE
  8
0
 10
105.61
 20
14.32
 11
108.41
 21
14.32
  0
LINE
  8
0
 10
108.41
 20
14.32
 11
108.41
 21
8.39999
  0
LINE
  8
0
 10
108.41
 20
8.39999
 11
105.61
 21
8.39999
  0
LINE
  8
0
 10
105.61
 20
8.39999
 11
105.61
 21
0
  0
LINE
  8
0
 10
105.61
 20
0
 11
114.01
 21
0
  0
LINE
  8
0
 10
114.01
 20
0
 11
114.01
 21
2.79999
  0
LINE
  8
0
 10
328.03
 20
2.79999
 11
334.43
 21
2.79999
  0
LINE
  8
0
 10
334.43
 20
2.79999
 11
334.43
 21
0
  0
LINE
  8
0
 10
334.43
 20
0
 11
340.83
 21
0
  0
LINE
  8
0
 10
340.83
 20
0
 11
340.83
 21
2.79999
  0
LINE
  8
0
 10
340.83
 20
2.79999
 11
347.23
 21
2.79999
  0
LINE
  8
0
 10
347.23
 20
2.79999
 11
347.23
 21
0
  0
LINE
  8
0
 10
347.23
 20
0
 11
353.63
 21
0
  0
LINE
  8
0
 10
353.63
 20
0
 11
353.63
 21
2.79999
  0
LINE
  8
0
 10
353.63
 20
2.79999
 11
360.03
 21
2.79999
  0
LINE
  8
0
 10
360.03
 20
2.79999
 11
360.03
 21
0
  0
LINE
  8
0
 10
360.03
 20
0
 11
366.43
 21
0
  0
LINE
  8
0
 10
366.43
 20
0
 11
366.43
 21
2.79999
  0
LINE
  8
0
 10
366.43
 20
2.79999
 11
372.83
 21
2.79999
  0
LINE
  8
0
 10
372.83
 20
2.79999
 11
372.83
 21
0
  0
LINE
  8
0
 10
372.83
 20
0
 11
379.23
 21
0
  0
LINE
  8
0
 10
379.23
 20
0
 11
379.23
 21
2.79999
  0
LINE
  8
0
 10
379.23
 20
2.79999
 11
385.63
 21
2.79999
  0
LINE
  8
0
 10
385.63
 20
2.79999
 11
385.63
 21
0
  0
LINE
  8
0
 10
385.63
 20
0
 11
392.03
 21
0
  0
LINE
  8
0
 10
392.03
 20
0
 11
392.03
 21
2.79999
  0
LINE
  8
0
 10
392.03
 20
2.79999
 11
398.43
 21
2.79999
  0
LINE
  8
0
 10
398.43
 20
2.79999
 11
398.43
 21
0
  0
LINE
  8
0
 10
398.43
 20
0
 11
404.83
 21
0
  0
LINE
  8
0
 10
404.83
 20
0
 11
404.83
 21
2.79999
  0
LINE
  8
0
 10
404.83
 20
2.79999
 11
411.23
 21
2.79999
  0
LINE
  8
0
 10
411.23
 20
2.79999
 11
411.23
 21
0
  0
LINE
  8
0
 10
411.23
 20
0
 11
419.63
 21
0
  0
LINE
  8
0
 10
419.63
 20
0
 11
419.63
 21
8.39999
  0
LINE
  8
0
 10
419.63
 20
8.39999
 11
422.43
 21
8.39999
  0
LINE
  8
0
 10
422.43
 20
8.39999
 11
422.43
 21
14.32
  0
LINE
  8
0
 10
422.43
 20
14.32
 11
419.63
 21
14.32
  0
LINE
  8
0
 10
419.63
 20
14.32
 11
419.63
 21
20.24
  0
LINE
  8
0
 10
419.63
 20
20.24
 11
422.43
 21
20.24
  0
LINE
  8
0
 10
422.43
 20
20.24
 11
422.43
 21
26.16
  0
LINE
  8
0
 10
422.43
 20
26.16
 11
419.63
 21
26.16
  0
LINE
  8
0
 10
419.63
 20
26.16
 11
419.63
 21
32.08
  0
LINE
  8
0
 10
419.63
 20
32.08
 11
422.43
 21
32.08
  0
LINE
  8
0
 10
422.43
 20
32.08
 11
422.43
 21
38
  0
LINE
  8
0
 10
422.43
 20
38
 11
419.63
 21
38
  0
LINE
  8
0
 10
419.63
 20
38
 11
419.63
 21
43.92
  0
LINE
  8
0
 10
419.63
 20
43.92
 11
422.43
 21
43.92
  0
LINE
  8
0
 10
422.43
 20
43.92
 11
422.43
 21
49.84
  0
LINE
  8
0
 10
422.43
 20
49.84
 11
419.63
 21
49.84
  0
LINE
  8
0
 10
419.63
 20
49.84
 11
419.63
 21
55.76
  0
LINE
  8
0
 10
419.63
 20
55.76
 11
422.43
 21
55.76
  0
LINE
  8
0
 10
422.43
 20
55.76
 11
422.43
 21
61.68
  0
LINE
  8
0
 10
422.43
 20
61.68
 11
419.63
 21
61.68
  0
LINE
  8
0
 10
419.63
 20
61.68
 11
419.63
 21
67.6
  0
LINE
  8
0
 10
419.63
 20
67.6
 11
422.43
 21
67.6
  0
LINE
  8
0
 10
422.43
 20
67.6
 11
422.43
 21
73.52
  0
LINE
  8
0
 10
422.43
 20
73.52
 11
419.63
 21
73.52
  0
LINE
  8
0
 10
419.63
 20
73.52
 11
419.63
 21
79.44
  0
LINE
  8
0
 10
419.63
 20
79.44
 11
422.43
 21
79.44
  0
LINE
  8
0
 10
422.43
 20
79.44
 11
422.43
 21
85.36
  0
LINE
  8
0
 10
422.43
 20
85.36
 11
419.63
 21
85.36
  0
LINE
  8
0
 10
419.63
 20
85.36
 11
419.63
 21
91.28
  0
LINE
  8
0
 10
419.63
 20
91.28
 11
422.43
 21
91.28
  0
LINE
  8
0
 10
422.43
 20
91.28
 11
422.43
 21
97.2
  0
LINE
  8
0
 10
422.43
 20
97.2
 11
419.63
 21
97.2
  0
LINE
  8
0
 10
419.63
 20
97.2
 11
419.63
 21
105.6
  0
LINE
  8
0
 10
419.63
 20
105.6
 11
319.63
 21
105.6
  0
LINE
  8
0
 10
319.63
 20
105.6
 11
319.63
 21
97.2
  0
LINE
  8
0
 10
319.63
 20
97.2
 11
316.83
 21
97.2
  0
LINE
  8
0
 10
316.83
 20
97.2
 11
316.83
 21
91.28
  0
LINE
  8
0
 10
316.83
 20
91.28
 11
319.63
 21
91.28
  0
LINE
  8
0
 10
319.63
 20
91.28
 11
319.63
 21
85.36
  0
LINE
  8
0
 10
319.63
 20
85.36
 11
316.83
 21
85.36
  0
LINE
  8
0
 10
316.83
 20
85.36
 11
316.83
 21
79.44
  0
LINE
  8
0
 10
316.83
 20
79.44
 11
319.63
 21
79.44
  0
LINE
  8
0
 10
319.63
 20
79.44
 11
319.63
 21
73.52
  0
LINE
  8
0
 10
319.63
 20
73.52
 11
316.83
 21
73.52
  0
LINE
  8
0
 10
316.83
 20
73.52
 11
316.83
 21
67.6
  0
LINE
  8
0
 10
316.83
 20
67.6
 11
319.63
 21
67.6
  0
LINE
  8
0
 10
319.63
 20
67.6
 11
319.63
 21
61.68
  0
LINE
  8
0
 10
319.63
 20
61.68
 11
316.83
 21
61.68
  0
LINE
  8
0
 10
316.83
 20
61.68
 11
316.83
 21
55.76
  0
LINE
  8
0
 10
316.83
 20
55.76
 11
319.63
 21
55.76
  0
LINE
  8
0
 10
319.63
 20
55.76
 11
319.63
 21
49.84
  0
LINE
  8
0
 10
319.63
 20
49.84
 11
316.83
 21
49.84
  0
LINE
  8
0
 10
316.83
 20
49.84
 11
316.83
 21
43.92
  0
LINE
  8
0
 10
316.83
 20
43.92
 11
319.63
 21
43.92
  0
LINE
  8
0
 10
319.63
 20
43.92
 11
319.63
 21
38
  0
LINE
  8
0
 10
319.63
 20
38
 11
316.83
 21
38
  0
LINE
  8
0
 10
316.83
 20
38
 11
316.83
 21
32.08
  0
LINE
  8
0
 10
316.83
 20
32.08
 11
319.63
 21
32.08
  0
LINE
  8
0
 10
319.63
 20
32.08
 11
319.63
 21
26.16
  0
LINE
  8
0
 10
319.63
 20
26.16
 11
316.83
 21
26.16
  0
LINE
  8
0
 10
316.83
 20
26.16
 11
316.83
 21
20.24
  0
LINE
  8
0
 10
316.83
 20
20.24
 11
319.63
 21
20.24
  0
LINE
  8
0
 10
319.63
 20
20.24
 11
319.63
 21
14.32
  0
LINE
  8
0
 10
319.63
 20
14.32
 11
316.83
 21
14.32
  0
LINE
  8
0
 10
316.83
 20
14.32
 11
316.83
 21
8.39999
  0
LINE
  8
0
 10
316.83
 20
8.39999
 11
319.63
 21
8.39999
  0
LINE
  8
0
 10
319.63
 20
8.39999
 11
319.63
 21
0
  0
LINE
  8
0
 10
319.63
 20
0
 11
328.03
 21
0
  0
LINE
  8
0
 10
328.03
 20
0
 11
328.03
 21
2.79999
  0
LINE
  8
0
 10
222.42
 20
2.79999
 11
228.82
 21
2.79999
  0
LINE
  8
0
 10
228.82
 20
2.79999
 11
228.82
 21
0
  0
LINE
  8
0
 10
228.82
 20
0
 11
235.22
 21
0
  0
LINE
  8
0
 10
235.22
 20
0
 11
235.22
 21
2.79999
  0
LINE
  8
0
 10
235.22
 20
2.79999
 11
241.62
 21
2.79999
  0
LINE
  8
0
 10
241.62
 20
2.79999
 11
241.62
 21
0
  0
LINE
  8
0
 10
241.62
 20
0
 11
248.02
 21
0
  0
LINE
  8
0
 10
248.02
 20
0
 11
248.02
 21
2.79999
  0
LINE
  8
0
 10
248.02
 20
2.79999
 11
254.42
 21
2.79999
  0
LINE
  8
0
 10
254.42
 20
2.79999
 11
254.42
 21
0
  0
LINE
  8
0
 10
254.42
 20
0
 11
260.82
 21
0
  0
LINE
  8
0
 10
260.82
 20
0
 11
260.82
 21
2.79999
  0
LINE
  8
0
 10
260.82
 20
2.79999
 11
267.22
 21
2.79999
  0
LINE
  8
0
 10
267.22
 20
2.79999
 11
267.22
 21
0
  0
LINE
  8
0
 10
267.22
 20
0
 11
273.62
 21
0
  0
LINE
  8
0
 10
273.62
 20
0
 11
273.62
 21
2.79999
  0
LINE
  8
0
 10
273.62
 20
2.79999
 11
280.02
 21
2.79999
  0
LINE
  8
0
 10
280.02
 20
2.79999
 11
280.02
 21
0
  0
LINE
  8
0
 10
280.02
 20
0
 11
286.42
 21
0
  0
LINE
  8
0
 10
286.42
 20
0
 11
286.42
 21
2.79999
  0
LINE
  8
0
 10
286.42
 20
2.79999
 11
292.82
 21
2.79999
  0
LINE
  8
0
 10
292.82
 20
2.79999
 11
292.82
 21
0
  0
LINE
  8
0
 10
292.82
 20
0
 11
299.22
 21
0
  0
LINE
  8
0
 10
299.22
 20
0
 11
299.22
 21
2.79999
  0
LINE
  8
0
 10
299.22
 20
2.79999
 11
305.62
 21
2.79999
  0
LINE
  8
0
 10
305.62
 20
2.79999
 11
305.62
 21
0
  0
LINE
  8
0
 10
305.62
 20
0
 11
314.02
 21
0
  0
LINE
  8
0
 10
314.02
 20
0
 11
314.02
 21
8.39999
  0
LINE
  8
0
 10
314.02
 20
8.39999
 11
316.82
 21
8.39999
  0
LINE
  8
0
 10
316.82
 20
8.39999
 11
316.82
 21
14.32
  0
LINE
  8
0
 10
316.82
 20
14.32
 11
314.02
 21
14.32
  0
LINE
  8
0
 10
314.02
 20
14.32
 11
314.02
 21
20.24
  0
LINE
  8
0
 10
314.02
 20
20.24
 11
316.82
 21
20.24
  0
LINE
  8
0
 10
316.82
 20
20.24
 11
316.82
 21
26.16
  0
LINE
  8
0
 10
316.82
 20
26.16
 11
314.02
 21
26.16
  0
LINE
  8
0
 10
314.02
 20
26.16
 11
314.02
 21
32.08
  0
LINE
  8
0
 10
314.02
 20
32.08
 11
316.82
 21
32.08
  0
LINE
  8
0
 10
316.82
 20
32.08
 11
316.82
 21
38
  0
LINE
  8
0
 10
316.82
 20
38
 11
314.02
 21
38
  0
LINE
  8
0
 10
314.02
 20
38
 11
314.02
 21
43.92
  0
LINE
  8
0
 10
314.02
 20
43.92
 11
316.82
 21
43.92
  0
LINE
  8
0
 10
316.82
 20
43.92
 11
316.82
 21
49.84
  0
LINE
  8
0
 10
316.82
 20
49.84
 11
314.02
 21
49.84
  0
LINE
  8
0
 10
314.02
 20
49.84
 11
314.02
 21
55.76
  0
LINE
  8
0
 10
314.02
 20
55.76
 11
316.82
 21
55.76
  0
LINE
  8
0
 10
316.82
 20
55.76
 11
316.82
 21
61.68
  0
LINE
  8
0
 10
316.82
 20
61.68
 11
314.02
 21
61.68
  0
LINE
  8
0
 10
314.02
 20
61.68
 11
314.02
 21
67.6
  0
LINE
  8
0
 10
314.02
 20
67.6
 11
316.82
 21
67.6
  0
LINE
  8
0
 10
316.82
 20
67.6
 11
316.82
 21
73.52
  0
LINE
  8
0
 10
316.82
 20
73.52
 11
314.02
 21
73.52
  0
LINE
  8
0
 10
314.02
 20
73.52
 11
314.02
 21
79.44
  0
LINE
  8
0
 10
314.02
 20
79.44
 11
316.82
 21
79.44
  0
LINE
  8
0
 10
316.82
 20
79.44
 11
316.82
 21
85.36
  0
LINE
  8
0
 10
316.82
 20
85.36
 11
314.02
 21
85.36
  0
LINE
  8
0
 10
314.02
 20
85.36
 11
314.02
 21
91.28
  0
LINE
  8
0
 10
314.02
 20
91.28
 11
316.82
 21
91.28
  0
LINE
  8
0
 10
316.82
 20
91.28
 11
316.82
 21
97.2
  0
LINE
  8
0
 10
316.82
 20
97.2
 11
314.02
 21
97.2
  0
LINE
  8
0
 10
314.02
 20
97.2
 11
314.02
 21
105.6
  0
LINE
  8
0
 10
314.02
 20
105.6
 11
214.02
 21
105.6
  0
LINE
  8
0
 10
214.02
 20
105.6
 11
214.02
 21
97.2
  0
LINE
  8
0
 10
214.02
 20
97.2
 11
211.22
 21
97.2
  0
LINE
  8
0
 10
211.22
 20
97.2
 11
211.22
 21
91.28
  0
LINE
  8
0
 10
211.22
 20
91.28
 11
214.02
 21
91.28
  0
LINE
  8
0
 10
214.02
 20
91.28
 11
214.02
 21
85.36
  0
LINE
  8
0
 10
214.02
 20
85.36
 11
211.22
 21
85.36
  0
LINE
  8
0
 10
211.22
 20
85.36
 11
211.22
 21
79.44
  0
LINE
  8
0
 10
211.22
 20
79.44
 11
214.02
 21
79.44
  0
LINE
  8
0
 10
214.02
 20
79.44
 11
214.02
 21
73.52
  0
LINE
  8
0
 10
214.02
 20
73.52
 11
211.22
 21
73.52
  0
LINE
  8
0
 10
211.22
 20
73.52
 11
211.22
 21
67.6
  0
LINE
  8
0
 10
211.22
 20
67.6
 11
214.02
 21
67.6
  0
LINE
  8
0
 10
214.02
 20
67.6
 11
214.02
 21
61.68
  0
LINE
  8
0
 10
214.02
 20
61.68
 11
211.22
 21
61.68
  0
LINE
  8
0
 10
211.22
 20
61.68
 11
211.22
 21
55.76
  0
LINE
  8
0
 10
211.22
 20
55.76
 11
214.02
 21
55.76
  0
LINE
  8
0
 10
214.02
 20
55.76
 11
214.02
 21
49.84
  0
LINE
  8
0
 10
214.02
 20
49.84
 11
211.22
 21
49.84
  0
LINE
  8
0
 10
211.22
 20
49.84
 11
211.22
 21
43.92
  0
LINE
  8
0
 10
211.22
 20
43.92
 11
214.02
 21
43.92
  0
LINE
  8
0
 10
214.02
 20
43.92
 11
214.02
 21
38
  0
LINE
  8
0
 10
214.02
 20
38
 11
211.22
 21
38
  0
LINE
  8
0
 10
211.22
 20
38
 11
211.22
 21
32.08
  0
LINE
  8
0
 10
211.22
 20
32.08
 11
214.02
 21
32.08
  0
LINE
  8
0
 10
214.02
 20
32.08
 11
214.02
 21
26.16
  0
LINE
  8
0
 10
214.02
 20
26.16
 11
211.22
 21
26.16
  0
LINE
  8
0
 10
211.22
 20
26.16
 11
211.22
 21
20.24
  0
LINE
  8
0
 10
211.22
 20
20.24
 11
214.02
 21
20.24
  0
LINE
  8
0
 10
214.02
 20
20.24
 11
214.02
 21
14.32
  0
LINE
  8
0
 10
214.02
 20
14.32
 11
211.22
 21
14.32
  0
LINE
  8
0
 10
211.22
 20
14.32
 11
211.22
 21
8.39999
  0
LINE
  8
0
 10
211.22
 20
8.39999
 11
214.02
 21
8.39999
  0
LINE
  8
0
 10
214.02
 20
8.39999
 11
214.02
 21
0
  0
LINE
  8
0
 10
214.02
 20
0
 11
222.42
 21
0
  0
LINE
  8
0
 10
222.42
 20
0
 11
222.42
 21
2.79999
  0
ENDSEC
  0
SECTION
  2
OBJECTS
  0
DICTIONARY
  0
ENDSEC
  0
EOF
