  0
SECTION
  2
BLOCKS
  0
ENDSEC
  0
SECTION
  2
ENTITIES
  0
LINE
  8
0
 10
-0.933838
 20
19.9361
 11
-0.37088
 21
20.1956
  0
LINE
  8
0
 10
-0.37088
 20
20.1956
 11
0.24852
 21
20.2199
  0
LINE
  8
0
 10
0.24852
 20
20.2199
 11
0.830109
 21
20.0054
  0
LINE
  8
0
 10
0.830109
 20
20.0054
 11
1.28531
 21
19.5846
  0
LINE
  8
0
 10
1.28531
 20
19.5846
 11
1.29964
 21
19.5535
  0
LINE
  8
0
 10
1.29964
 20
19.5535
 11
1.86539
 21
19.5535
  0
LINE
  8
0
 10
1.86539
 20
19.5535
 11
4.27948
 21
20.0667
  0
LINE
  8
0
 10
4.27948
 20
20.0667
 11
4.47807
 21
20.4974
  0
LINE
  8
0
 10
4.47807
 20
20.4974
 11
4.93327
 21
20.9182
  0
LINE
  8
0
 10
4.93327
 20
20.9182
 11
5.51486
 21
21.1328
  0
LINE
  8
0
 10
5.51486
 20
21.1328
 11
6.13428
 21
21.1084
  0
LINE
  8
0
 10
6.13428
 20
21.1084
 11
6.68973
 21
20.8524
  0
LINE
  8
0
 10
6.68973
 20
20.8524
 11
8.92287
 21
21.8466
  0
LINE
  8
0
 10
8.92287
 20
21.8466
 11
9.39041
 21
22.1863
  0
LINE
  8
0
 10
9.39041
 20
22.1863
 11
9.45164
 21
22.7037
  0
LINE
  8
0
 10
9.45164
 20
22.7037
 11
9.75455
 21
23.2445
  0
LINE
  8
0
 10
9.75455
 20
23.2445
 11
10.2414
 21
23.6283
  0
LINE
  8
0
 10
10.2414
 20
23.6283
 11
10.838
 21
23.7966
  0
LINE
  8
0
 10
10.838
 20
23.7966
 11
11.4536
 21
23.7237
  0
LINE
  8
0
 10
11.4536
 20
23.7237
 11
11.4834
 21
23.707
  0
LINE
  8
0
 10
11.4834
 20
23.707
 11
11.9411
 21
24.0395
  0
LINE
  8
0
 10
11.9411
 20
24.0395
 11
13.5926
 21
25.8736
  0
LINE
  8
0
 10
13.5926
 20
25.8736
 11
13.5
 21
26.3389
  0
LINE
  8
0
 10
13.5
 20
26.3389
 11
13.621
 21
26.9469
  0
LINE
  8
0
 10
13.621
 20
26.9469
 11
13.9654
 21
27.4623
  0
LINE
  8
0
 10
13.9654
 20
27.4623
 11
14.4808
 21
27.8067
  0
LINE
  8
0
 10
14.4808
 20
27.8067
 11
15.0807
 21
27.926
  0
LINE
  8
0
 10
15.0807
 20
27.926
 11
16.3029
 21
30.043
  0
LINE
  8
0
 10
16.3029
 20
30.043
 11
16.4815
 21
30.5926
  0
LINE
  8
0
 10
16.4815
 20
30.5926
 11
16.2269
 21
31.0472
  0
LINE
  8
0
 10
16.2269
 20
31.0472
 11
16.1541
 21
31.6628
  0
LINE
  8
0
 10
16.1541
 20
31.6628
 11
16.3223
 21
32.2594
  0
LINE
  8
0
 10
16.3223
 20
32.2594
 11
16.7061
 21
32.7462
  0
LINE
  8
0
 10
16.7061
 20
32.7462
 11
17.247
 21
33.0491
  0
LINE
  8
0
 10
17.247
 20
33.0491
 11
17.281
 21
33.0531
  0
LINE
  8
0
 10
17.281
 20
33.0531
 11
17.4558
 21
33.5912
  0
LINE
  8
0
 10
17.4558
 20
33.5912
 11
17.7138
 21
36.0457
  0
LINE
  8
0
 10
17.7138
 20
36.0457
 11
17.3654
 21
36.3677
  0
LINE
  8
0
 10
17.3654
 20
36.3677
 11
17.1059
 21
36.9306
  0
LINE
  8
0
 10
17.1059
 20
36.9306
 11
17.0816
 21
37.55
  0
LINE
  8
0
 10
17.0816
 20
37.55
 11
17.2961
 21
38.1316
  0
LINE
  8
0
 10
17.2961
 20
38.1316
 11
17.7113
 21
38.5808
  0
LINE
  8
0
 10
17.7113
 20
38.5808
 11
17.4558
 21
41.0119
  0
LINE
  8
0
 10
17.4558
 20
41.0119
 11
17.2772
 21
41.5615
  0
LINE
  8
0
 10
17.2772
 20
41.5615
 11
16.8041
 21
41.7796
  0
LINE
  8
0
 10
16.8041
 20
41.7796
 11
16.3833
 21
42.2348
  0
LINE
  8
0
 10
16.3833
 20
42.2348
 11
16.1687
 21
42.8164
  0
LINE
  8
0
 10
16.1687
 20
42.8164
 11
16.1931
 21
43.4358
  0
LINE
  8
0
 10
16.1931
 20
43.4358
 11
16.4526
 21
43.9988
  0
LINE
  8
0
 10
16.4526
 20
43.9988
 11
16.4777
 21
44.022
  0
LINE
  8
0
 10
16.4777
 20
44.022
 11
16.3029
 21
44.56
  0
LINE
  8
0
 10
16.3029
 20
44.56
 11
15.0689
 21
46.6974
  0
LINE
  8
0
 10
15.0689
 20
46.6974
 11
14.5978
 21
46.7532
  0
LINE
  8
0
 10
14.5978
 20
46.7532
 11
14.057
 21
47.0561
  0
LINE
  8
0
 10
14.057
 20
47.0561
 11
13.6732
 21
47.5429
  0
LINE
  8
0
 10
13.6732
 20
47.5429
 11
13.5049
 21
48.1395
  0
LINE
  8
0
 10
13.5049
 20
48.1395
 11
13.5768
 21
48.7469
  0
LINE
  8
0
 10
13.5768
 20
48.7469
 11
11.9411
 21
50.5635
  0
LINE
  8
0
 10
11.9411
 20
50.5635
 11
11.4736
 21
50.9032
  0
LINE
  8
0
 10
11.4736
 20
50.9032
 11
10.9626
 21
50.8016
  0
LINE
  8
0
 10
10.9626
 20
50.8016
 11
10.3546
 21
50.9225
  0
LINE
  8
0
 10
10.3546
 20
50.9225
 11
9.83922
 21
51.2669
  0
LINE
  8
0
 10
9.83922
 20
51.2669
 11
9.49483
 21
51.7823
  0
LINE
  8
0
 10
9.49483
 20
51.7823
 11
9.37389
 21
52.3903
  0
LINE
  8
0
 10
9.37389
 20
52.3903
 11
9.38057
 21
52.4239
  0
LINE
  8
0
 10
9.38057
 20
52.4239
 11
8.92287
 21
52.7564
  0
LINE
  8
0
 10
8.92287
 20
52.7564
 11
6.66821
 21
53.7602
  0
LINE
  8
0
 10
6.66821
 20
53.7602
 11
6.25435
 21
53.5285
  0
LINE
  8
0
 10
6.25435
 20
53.5285
 11
5.63875
 21
53.4556
  0
LINE
  8
0
 10
5.63875
 20
53.4556
 11
5.04211
 21
53.6239
  0
LINE
  8
0
 10
5.04211
 20
53.6239
 11
4.5553
 21
54.0076
  0
LINE
  8
0
 10
4.5553
 20
54.0076
 11
4.25645
 21
54.5413
  0
LINE
  8
0
 10
4.25645
 20
54.5413
 11
1.86539
 21
55.0495
  0
LINE
  8
0
 10
1.86539
 20
55.0495
 11
1.28748
 21
55.0495
  0
LINE
  8
0
 10
1.28748
 20
55.0495
 11
0.933838
 21
54.667
  0
LINE
  8
0
 10
0.933838
 20
54.667
 11
0.37088
 21
54.4074
  0
LINE
  8
0
 10
0.37088
 20
54.4074
 11
-0.24852
 21
54.3831
  0
LINE
  8
0
 10
-0.24852
 20
54.3831
 11
-0.830109
 21
54.5977
  0
LINE
  8
0
 10
-0.830109
 20
54.5977
 11
-1.28531
 21
55.0184
  0
LINE
  8
0
 10
-1.28531
 20
55.0184
 11
-1.29964
 21
55.0495
  0
LINE
  8
0
 10
-1.29964
 20
55.0495
 11
-1.86539
 21
55.0495
  0
LINE
  8
0
 10
-1.86539
 20
55.0495
 11
-4.27948
 21
54.5364
  0
LINE
  8
0
 10
-4.27948
 20
54.5364
 11
-4.47807
 21
54.1056
  0
LINE
  8
0
 10
-4.47807
 20
54.1056
 11
-4.93327
 21
53.6848
  0
LINE
  8
0
 10
-4.93327
 20
53.6848
 11
-5.51486
 21
53.4703
  0
LINE
  8
0
 10
-5.51486
 20
53.4703
 11
-6.13428
 21
53.4946
  0
LINE
  8
0
 10
-6.13428
 20
53.4946
 11
-6.68973
 21
53.7507
  0
LINE
  8
0
 10
-6.68973
 20
53.7507
 11
-8.92287
 21
52.7564
  0
LINE
  8
0
 10
-8.92287
 20
52.7564
 11
-9.39041
 21
52.4167
  0
LINE
  8
0
 10
-9.39041
 20
52.4167
 11
-9.45164
 21
51.8994
  0
LINE
  8
0
 10
-9.45164
 20
51.8994
 11
-9.75455
 21
51.3585
  0
LINE
  8
0
 10
-9.75455
 20
51.3585
 11
-10.2414
 21
50.9747
  0
LINE
  8
0
 10
-10.2414
 20
50.9747
 11
-10.838
 21
50.8065
  0
LINE
  8
0
 10
-10.838
 20
50.8065
 11
-11.4536
 21
50.8793
  0
LINE
  8
0
 10
-11.4536
 20
50.8793
 11
-11.4834
 21
50.896
  0
LINE
  8
0
 10
-11.4834
 20
50.896
 11
-11.9411
 21
50.5635
  0
LINE
  8
0
 10
-11.9411
 20
50.5635
 11
-13.5926
 21
48.7294
  0
LINE
  8
0
 10
-13.5926
 20
48.7294
 11
-13.5
 21
48.2642
  0
LINE
  8
0
 10
-13.5
 20
48.2642
 11
-13.621
 21
47.6562
  0
LINE
  8
0
 10
-13.621
 20
47.6562
 11
-13.9654
 21
47.1407
  0
LINE
  8
0
 10
-13.9654
 20
47.1407
 11
-14.4808
 21
46.7964
  0
LINE
  8
0
 10
-14.4808
 20
46.7964
 11
-15.0807
 21
46.677
  0
LINE
  8
0
 10
-15.0807
 20
46.677
 11
-16.3029
 21
44.56
  0
LINE
  8
0
 10
-16.3029
 20
44.56
 11
-16.4815
 21
44.0104
  0
LINE
  8
0
 10
-16.4815
 20
44.0104
 11
-16.2269
 21
43.5559
  0
LINE
  8
0
 10
-16.2269
 20
43.5559
 11
-16.1541
 21
42.9403
  0
LINE
  8
0
 10
-16.1541
 20
42.9403
 11
-16.3223
 21
42.3436
  0
LINE
  8
0
 10
-16.3223
 20
42.3436
 11
-16.7061
 21
41.8568
  0
LINE
  8
0
 10
-16.7061
 20
41.8568
 11
-17.247
 21
41.5539
  0
LINE
  8
0
 10
-17.247
 20
41.5539
 11
-17.281
 21
41.5499
  0
LINE
  8
0
 10
-17.281
 20
41.5499
 11
-17.4558
 21
41.0119
  0
LINE
  8
0
 10
-17.4558
 20
41.0119
 11
-17.7138
 21
38.5573
  0
LINE
  8
0
 10
-17.7138
 20
38.5573
 11
-17.3654
 21
38.2354
  0
LINE
  8
0
 10
-17.3654
 20
38.2354
 11
-17.1059
 21
37.6724
  0
LINE
  8
0
 10
-17.1059
 20
37.6724
 11
-17.0816
 21
37.053
  0
LINE
  8
0
 10
-17.0816
 20
37.053
 11
-17.2961
 21
36.4714
  0
LINE
  8
0
 10
-17.2961
 20
36.4714
 11
-17.7113
 21
36.0223
  0
LINE
  8
0
 10
-17.7113
 20
36.0223
 11
-17.4558
 21
33.5912
  0
LINE
  8
0
 10
-17.4558
 20
33.5912
 11
-17.2772
 21
33.0415
  0
LINE
  8
0
 10
-17.2772
 20
33.0415
 11
-16.8041
 21
32.8234
  0
LINE
  8
0
 10
-16.8041
 20
32.8234
 11
-16.3833
 21
32.3682
  0
LINE
  8
0
 10
-16.3833
 20
32.3682
 11
-16.1687
 21
31.7867
  0
LINE
  8
0
 10
-16.1687
 20
31.7867
 11
-16.1931
 21
31.1672
  0
LINE
  8
0
 10
-16.1931
 20
31.1672
 11
-16.4526
 21
30.6043
  0
LINE
  8
0
 10
-16.4526
 20
30.6043
 11
-16.4777
 21
30.581
  0
LINE
  8
0
 10
-16.4777
 20
30.581
 11
-16.3029
 21
30.043
  0
LINE
  8
0
 10
-16.3029
 20
30.043
 11
-15.0689
 21
27.9056
  0
LINE
  8
0
 10
-15.0689
 20
27.9056
 11
-14.5978
 21
27.8499
  0
LINE
  8
0
 10
-14.5978
 20
27.8499
 11
-14.057
 21
27.547
  0
LINE
  8
0
 10
-14.057
 20
27.547
 11
-13.6732
 21
27.0602
  0
LINE
  8
0
 10
-13.6732
 20
27.0602
 11
-13.5049
 21
26.4635
  0
LINE
  8
0
 10
-13.5049
 20
26.4635
 11
-13.5768
 21
25.8561
  0
LINE
  8
0
 10
-13.5768
 20
25.8561
 11
-11.9411
 21
24.0395
  0
LINE
  8
0
 10
-11.9411
 20
24.0395
 11
-11.4736
 21
23.6998
  0
LINE
  8
0
 10
-11.4736
 20
23.6998
 11
-10.9626
 21
23.8015
  0
LINE
  8
0
 10
-10.9626
 20
23.8015
 11
-10.3546
 21
23.6805
  0
LINE
  8
0
 10
-10.3546
 20
23.6805
 11
-9.83922
 21
23.3362
  0
LINE
  8
0
 10
-9.83922
 20
23.3362
 11
-9.49483
 21
22.8207
  0
LINE
  8
0
 10
-9.49483
 20
22.8207
 11
-9.37389
 21
22.2127
  0
LINE
  8
0
 10
-9.37389
 20
22.2127
 11
-9.38057
 21
22.1792
  0
LINE
  8
0
 10
-9.38057
 20
22.1792
 11
-8.92287
 21
21.8466
  0
LINE
  8
0
 10
-8.92287
 20
21.8466
 11
-6.66821
 21
20.8428
  0
LINE
  8
0
 10
-6.66821
 20
20.8428
 11
-6.25435
 21
21.0746
  0
LINE
  8
0
 10
-6.25435
 20
21.0746
 11
-5.63875
 21
21.1474
  0
LINE
  8
0
 10
-5.63875
 20
21.1474
 11
-5.04211
 21
20.9792
  0
LINE
  8
0
 10
-5.04211
 20
20.9792
 11
-4.5553
 21
20.5954
  0
LINE
  8
0
 10
-4.5553
 20
20.5954
 11
-4.25645
 21
20.0618
  0
LINE
  8
0
 10
-4.25645
 20
20.0618
 11
-1.86539
 21
19.5535
  0
LINE
  8
0
 10
-1.86539
 20
19.5535
 11
-1.28748
 21
19.5535
  0
LINE
  8
0
 10
-1.28748
 20
19.5535
 11
-0.933838
 21
19.9361
  0
LINE
  8
0
 10
-1.44638
 20
30.9645
 11
-3.25
 21
31.6723
  0
LINE
  8
0
 10
-3.25
 20
31.6723
 11
-4.76483
 21
32.8804
  0
LINE
  8
0
 10
-4.76483
 20
32.8804
 11
-5.85629
 21
34.4813
  0
LINE
  8
0
 10
-5.85629
 20
34.4813
 11
-6.4274
 21
36.3327
  0
LINE
  8
0
 10
-6.4274
 20
36.3327
 11
-6.4274
 21
38.2703
  0
LINE
  8
0
 10
-6.4274
 20
38.2703
 11
-5.85629
 21
40.1218
  0
LINE
  8
0
 10
-5.85629
 20
40.1218
 11
-4.76483
 21
41.7226
  0
LINE
  8
0
 10
-4.76483
 20
41.7226
 11
-3.25
 21
42.9307
  0
LINE
  8
0
 10
-3.25
 20
42.9307
 11
-1.44638
 21
43.6385
  0
LINE
  8
0
 10
-1.44638
 20
43.6385
 11
0.485733
 21
43.7833
  0
LINE
  8
0
 10
0.485733
 20
43.7833
 11
2.37471
 21
43.3522
  0
LINE
  8
0
 10
2.37471
 20
43.3522
 11
4.05267
 21
42.3834
  0
LINE
  8
0
 10
4.05267
 20
42.3834
 11
5.37054
 21
40.9631
  0
LINE
  8
0
 10
5.37054
 20
40.9631
 11
6.21121
 21
39.2174
  0
LINE
  8
0
 10
6.21121
 20
39.2174
 11
6.5
 21
37.3015
  0
LINE
  8
0
 10
6.5
 20
37.3015
 11
6.21121
 21
35.3856
  0
LINE
  8
0
 10
6.21121
 20
35.3856
 11
5.37054
 21
33.6399
  0
LINE
  8
0
 10
5.37054
 20
33.6399
 11
4.05267
 21
32.2196
  0
LINE
  8
0
 10
4.05267
 20
32.2196
 11
2.37471
 21
31.2508
  0
LINE
  8
0
 10
2.37471
 20
31.2508
 11
0.485733
 21
30.8197
  0
LINE
  8
0
 10
0.485733
 20
30.8197
 11
-1.44638
 21
30.9645
  0
LINE
  8
0
 10
10.5502
 20
36.0165
 11
10.5502
 21
38.5865
  0
LINE
  8
0
 10
10.5502
 20
38.5865
 11
14.6005
 21
38.5865
  0
LINE
  8
0
 10
14.6005
 20
38.5865
 11
14.6005
 21
36.0165
  0
LINE
  8
0
 10
14.6005
 20
36.0165
 11
10.5502
 21
36.0165
  0
LINE
  8
0
 10
36.3677
 20
-17.3654
 11
36.9306
 21
-17.1059
  0
LINE
  8
0
 10
36.9306
 20
-17.1059
 11
37.55
 21
-17.0816
  0
LINE
  8
0
 10
37.55
 20
-17.0816
 11
38.1316
 21
-17.2961
  0
LINE
  8
0
 10
38.1316
 20
-17.2961
 11
38.5868
 21
-17.7169
  0
LINE
  8
0
 10
38.5868
 20
-17.7169
 11
38.6012
 21
-17.748
  0
LINE
  8
0
 10
38.6012
 20
-17.748
 11
39.1669
 21
-17.748
  0
LINE
  8
0
 10
39.1669
 20
-17.748
 11
41.581
 21
-17.2349
  0
LINE
  8
0
 10
41.581
 20
-17.2349
 11
41.7796
 21
-16.8041
  0
LINE
  8
0
 10
41.7796
 20
-16.8041
 11
42.2348
 21
-16.3833
  0
LINE
  8
0
 10
42.2348
 20
-16.3833
 11
42.8164
 21
-16.1687
  0
LINE
  8
0
 10
42.8164
 20
-16.1687
 11
43.4358
 21
-16.1931
  0
LINE
  8
0
 10
43.4358
 20
-16.1931
 11
43.9913
 21
-16.4491
  0
LINE
  8
0
 10
43.9913
 20
-16.4491
 11
46.2244
 21
-15.4549
  0
LINE
  8
0
 10
46.2244
 20
-15.4549
 11
46.6919
 21
-15.1152
  0
LINE
  8
0
 10
46.6919
 20
-15.1152
 11
46.7532
 21
-14.5978
  0
LINE
  8
0
 10
46.7532
 20
-14.5978
 11
47.0561
 21
-14.057
  0
LINE
  8
0
 10
47.0561
 20
-14.057
 11
47.5429
 21
-13.6732
  0
LINE
  8
0
 10
47.5429
 20
-13.6732
 11
48.1395
 21
-13.5049
  0
LINE
  8
0
 10
48.1395
 20
-13.5049
 11
48.7551
 21
-13.5778
  0
LINE
  8
0
 10
48.7551
 20
-13.5778
 11
48.785
 21
-13.5945
  0
LINE
  8
0
 10
48.785
 20
-13.5945
 11
49.2427
 21
-13.262
  0
LINE
  8
0
 10
49.2427
 20
-13.262
 11
50.8941
 21
-11.4279
  0
LINE
  8
0
 10
50.8941
 20
-11.4279
 11
50.8016
 21
-10.9626
  0
LINE
  8
0
 10
50.8016
 20
-10.9626
 11
50.9225
 21
-10.3546
  0
LINE
  8
0
 10
50.9225
 20
-10.3546
 11
51.2669
 21
-9.83922
  0
LINE
  8
0
 10
51.2669
 20
-9.83922
 11
51.7823
 21
-9.49483
  0
LINE
  8
0
 10
51.7823
 20
-9.49483
 11
52.3822
 21
-9.3755
  0
LINE
  8
0
 10
52.3822
 20
-9.3755
 11
53.6044
 21
-7.25851
  0
LINE
  8
0
 10
53.6044
 20
-7.25851
 11
53.783
 21
-6.70889
  0
LINE
  8
0
 10
53.783
 20
-6.70889
 11
53.5285
 21
-6.25435
  0
LINE
  8
0
 10
53.5285
 20
-6.25435
 11
53.4556
 21
-5.63875
  0
LINE
  8
0
 10
53.4556
 20
-5.63875
 11
53.6239
 21
-5.04211
  0
LINE
  8
0
 10
53.6239
 20
-5.04211
 11
54.0076
 21
-4.5553
  0
LINE
  8
0
 10
54.0076
 20
-4.5553
 11
54.5485
 21
-4.25241
  0
LINE
  8
0
 10
54.5485
 20
-4.25241
 11
54.5825
 21
-4.24838
  0
LINE
  8
0
 10
54.5825
 20
-4.24838
 11
54.7573
 21
-3.71034
  0
LINE
  8
0
 10
54.7573
 20
-3.71034
 11
55.0153
 21
-1.25583
  0
LINE
  8
0
 10
55.0153
 20
-1.25583
 11
54.667
 21
-0.933838
  0
LINE
  8
0
 10
54.667
 20
-0.933838
 11
54.4074
 21
-0.37088
  0
LINE
  8
0
 10
54.4074
 20
-0.37088
 11
54.3831
 21
0.24852
  0
LINE
  8
0
 10
54.3831
 20
0.24852
 11
54.5977
 21
0.830109
  0
LINE
  8
0
 10
54.5977
 20
0.830109
 11
55.0128
 21
1.27924
  0
LINE
  8
0
 10
55.0128
 20
1.27924
 11
54.7573
 21
3.71034
  0
LINE
  8
0
 10
54.7573
 20
3.71034
 11
54.5787
 21
4.25996
  0
LINE
  8
0
 10
54.5787
 20
4.25996
 11
54.1056
 21
4.47807
  0
LINE
  8
0
 10
54.1056
 20
4.47807
 11
53.6848
 21
4.93327
  0
LINE
  8
0
 10
53.6848
 20
4.93327
 11
53.4703
 21
5.51486
  0
LINE
  8
0
 10
53.4703
 20
5.51486
 11
53.4946
 21
6.13428
  0
LINE
  8
0
 10
53.4946
 20
6.13428
 11
53.7541
 21
6.69724
  0
LINE
  8
0
 10
53.7541
 20
6.69724
 11
53.7793
 21
6.72047
  0
LINE
  8
0
 10
53.7793
 20
6.72047
 11
53.6044
 21
7.25851
  0
LINE
  8
0
 10
53.6044
 20
7.25851
 11
52.3704
 21
9.39589
  0
LINE
  8
0
 10
52.3704
 20
9.39589
 11
51.8994
 21
9.45164
  0
LINE
  8
0
 10
51.8994
 20
9.45164
 11
51.3585
 21
9.75455
  0
LINE
  8
0
 10
51.3585
 20
9.75455
 11
50.9747
 21
10.2414
  0
LINE
  8
0
 10
50.9747
 20
10.2414
 11
50.8065
 21
10.838
  0
LINE
  8
0
 10
50.8065
 20
10.838
 11
50.8783
 21
11.4454
  0
LINE
  8
0
 10
50.8783
 20
11.4454
 11
49.2427
 21
13.262
  0
LINE
  8
0
 10
49.2427
 20
13.262
 11
48.7751
 21
13.6017
  0
LINE
  8
0
 10
48.7751
 20
13.6017
 11
48.2642
 21
13.5
  0
LINE
  8
0
 10
48.2642
 20
13.5
 11
47.6562
 21
13.621
  0
LINE
  8
0
 10
47.6562
 20
13.621
 11
47.1407
 21
13.9654
  0
LINE
  8
0
 10
47.1407
 20
13.9654
 11
46.7964
 21
14.4808
  0
LINE
  8
0
 10
46.7964
 20
14.4808
 11
46.6754
 21
15.0888
  0
LINE
  8
0
 10
46.6754
 20
15.0888
 11
46.6821
 21
15.1223
  0
LINE
  8
0
 10
46.6821
 20
15.1223
 11
46.2244
 21
15.4549
  0
LINE
  8
0
 10
46.2244
 20
15.4549
 11
43.9697
 21
16.4587
  0
LINE
  8
0
 10
43.9697
 20
16.4587
 11
43.5559
 21
16.2269
  0
LINE
  8
0
 10
43.5559
 20
16.2269
 11
42.9403
 21
16.1541
  0
LINE
  8
0
 10
42.9403
 20
16.1541
 11
42.3436
 21
16.3223
  0
LINE
  8
0
 10
42.3436
 20
16.3223
 11
41.8568
 21
16.7061
  0
LINE
  8
0
 10
41.8568
 20
16.7061
 11
41.558
 21
17.2398
  0
LINE
  8
0
 10
41.558
 20
17.2398
 11
39.1669
 21
17.748
  0
LINE
  8
0
 10
39.1669
 20
17.748
 11
38.589
 21
17.748
  0
LINE
  8
0
 10
38.589
 20
17.748
 11
38.2354
 21
17.3654
  0
LINE
  8
0
 10
38.2354
 20
17.3654
 11
37.6724
 21
17.1059
  0
LINE
  8
0
 10
37.6724
 20
17.1059
 11
37.053
 21
17.0816
  0
LINE
  8
0
 10
37.053
 20
17.0816
 11
36.4714
 21
17.2961
  0
LINE
  8
0
 10
36.4714
 20
17.2961
 11
36.0162
 21
17.7169
  0
LINE
  8
0
 10
36.0162
 20
17.7169
 11
36.0019
 21
17.748
  0
LINE
  8
0
 10
36.0019
 20
17.748
 11
35.4361
 21
17.748
  0
LINE
  8
0
 10
35.4361
 20
17.748
 11
33.022
 21
17.2349
  0
LINE
  8
0
 10
33.022
 20
17.2349
 11
32.8234
 21
16.8041
  0
LINE
  8
0
 10
32.8234
 20
16.8041
 11
32.3682
 21
16.3833
  0
LINE
  8
0
 10
32.3682
 20
16.3833
 11
31.7867
 21
16.1687
  0
LINE
  8
0
 10
31.7867
 20
16.1687
 11
31.1672
 21
16.1931
  0
LINE
  8
0
 10
31.1672
 20
16.1931
 11
30.6118
 21
16.4491
  0
LINE
  8
0
 10
30.6118
 20
16.4491
 11
28.3786
 21
15.4549
  0
LINE
  8
0
 10
28.3786
 20
15.4549
 11
27.9111
 21
15.1152
  0
LINE
  8
0
 10
27.9111
 20
15.1152
 11
27.8499
 21
14.5978
  0
LINE
  8
0
 10
27.8499
 20
14.5978
 11
27.547
 21
14.057
  0
LINE
  8
0
 10
27.547
 20
14.057
 11
27.0602
 21
13.6732
  0
LINE
  8
0
 10
27.0602
 20
13.6732
 11
26.4635
 21
13.5049
  0
LINE
  8
0
 10
26.4635
 20
13.5049
 11
25.8479
 21
13.5778
  0
LINE
  8
0
 10
25.8479
 20
13.5778
 11
25.8181
 21
13.5945
  0
LINE
  8
0
 10
25.8181
 20
13.5945
 11
25.3604
 21
13.262
  0
LINE
  8
0
 10
25.3604
 20
13.262
 11
23.7089
 21
11.4279
  0
LINE
  8
0
 10
23.7089
 20
11.4279
 11
23.8015
 21
10.9626
  0
LINE
  8
0
 10
23.8015
 20
10.9626
 11
23.6805
 21
10.3546
  0
LINE
  8
0
 10
23.6805
 20
10.3546
 11
23.3362
 21
9.83922
  0
LINE
  8
0
 10
23.3362
 20
9.83922
 11
22.8207
 21
9.49483
  0
LINE
  8
0
 10
22.8207
 20
9.49483
 11
22.2208
 21
9.3755
  0
LINE
  8
0
 10
22.2208
 20
9.3755
 11
20.9986
 21
7.25851
  0
LINE
  8
0
 10
20.9986
 20
7.25851
 11
20.82
 21
6.70889
  0
LINE
  8
0
 10
20.82
 20
6.70889
 11
21.0746
 21
6.25435
  0
LINE
  8
0
 10
21.0746
 20
6.25435
 11
21.1474
 21
5.63875
  0
LINE
  8
0
 10
21.1474
 20
5.63875
 11
20.9792
 21
5.04211
  0
LINE
  8
0
 10
20.9792
 20
5.04211
 11
20.5954
 21
4.5553
  0
LINE
  8
0
 10
20.5954
 20
4.5553
 11
20.0545
 21
4.25241
  0
LINE
  8
0
 10
20.0545
 20
4.25241
 11
20.0206
 21
4.24838
  0
LINE
  8
0
 10
20.0206
 20
4.24838
 11
19.8457
 21
3.71034
  0
LINE
  8
0
 10
19.8457
 20
3.71034
 11
19.5878
 21
1.25583
  0
LINE
  8
0
 10
19.5878
 20
1.25583
 11
19.9361
 21
0.933838
  0
LINE
  8
0
 10
19.9361
 20
0.933838
 11
20.1956
 21
0.37088
  0
LINE
  8
0
 10
20.1956
 20
0.37088
 11
20.2199
 21
-0.24852
  0
LINE
  8
0
 10
20.2199
 20
-0.24852
 11
20.0054
 21
-0.830109
  0
LINE
  8
0
 10
20.0054
 20
-0.830109
 11
19.5902
 21
-1.27924
  0
LINE
  8
0
 10
19.5902
 20
-1.27924
 11
19.8457
 21
-3.71034
  0
LINE
  8
0
 10
19.8457
 20
-3.71034
 11
20.0243
 21
-4.25996
  0
LINE
  8
0
 10
20.0243
 20
-4.25996
 11
20.4974
 21
-4.47807
  0
LINE
  8
0
 10
20.4974
 20
-4.47807
 11
20.9182
 21
-4.93327
  0
LINE
  8
0
 10
20.9182
 20
-4.93327
 11
21.1328
 21
-5.51486
  0
LINE
  8
0
 10
21.1328
 20
-5.51486
 11
21.1084
 21
-6.13428
  0
LINE
  8
0
 10
21.1084
 20
-6.13428
 11
20.8489
 21
-6.69724
  0
LINE
  8
0
 10
20.8489
 20
-6.69724
 11
20.8238
 21
-6.72047
  0
LINE
  8
0
 10
20.8238
 20
-6.72047
 11
20.9986
 21
-7.25851
  0
LINE
  8
0
 10
20.9986
 20
-7.25851
 11
22.2326
 21
-9.39589
  0
LINE
  8
0
 10
22.2326
 20
-9.39589
 11
22.7037
 21
-9.45164
  0
LINE
  8
0
 10
22.7037
 20
-9.45164
 11
23.2445
 21
-9.75455
  0
LINE
  8
0
 10
23.2445
 20
-9.75455
 11
23.6283
 21
-10.2414
  0
LINE
  8
0
 10
23.6283
 20
-10.2414
 11
23.7966
 21
-10.838
  0
LINE
  8
0
 10
23.7966
 20
-10.838
 11
23.7247
 21
-11.4454
  0
LINE
  8
0
 10
23.7247
 20
-11.4454
 11
25.3604
 21
-13.262
  0
LINE
  8
0
 10
25.3604
 20
-13.262
 11
25.8279
 21
-13.6017
  0
LINE
  8
0
 10
25.8279
 20
-13.6017
 11
26.3389
 21
-13.5
  0
LINE
  8
0
 10
26.3389
 20
-13.5
 11
26.9469
 21
-13.621
  0
LINE
  8
0
 10
26.9469
 20
-13.621
 11
27.4623
 21
-13.9654
  0
LINE
  8
0
 10
27.4623
 20
-13.9654
 11
27.8067
 21
-14.4808
  0
LINE
  8
0
 10
27.8067
 20
-14.4808
 11
27.9276
 21
-15.0888
  0
LINE
  8
0
 10
27.9276
 20
-15.0888
 11
27.9209
 21
-15.1223
  0
LINE
  8
0
 10
27.9209
 20
-15.1223
 11
28.3786
 21
-15.4549
  0
LINE
  8
0
 10
28.3786
 20
-15.4549
 11
30.6333
 21
-16.4587
  0
LINE
  8
0
 10
30.6333
 20
-16.4587
 11
31.0472
 21
-16.2269
  0
LINE
  8
0
 10
31.0472
 20
-16.2269
 11
31.6628
 21
-16.1541
  0
LINE
  8
0
 10
31.6628
 20
-16.1541
 11
32.2594
 21
-16.3223
  0
LINE
  8
0
 10
32.2594
 20
-16.3223
 11
32.7462
 21
-16.7061
  0
LINE
  8
0
 10
32.7462
 20
-16.7061
 11
33.0451
 21
-17.2398
  0
LINE
  8
0
 10
33.0451
 20
-17.2398
 11
35.4361
 21
-17.748
  0
LINE
  8
0
 10
35.4361
 20
-17.748
 11
36.014
 21
-17.748
  0
LINE
  8
0
 10
36.014
 20
-17.748
 11
36.3677
 21
-17.3654
  0
LINE
  8
0
 10
35.8551
 20
-6.33702
 11
34.0515
 21
-5.62915
  0
LINE
  8
0
 10
34.0515
 20
-5.62915
 11
32.5367
 21
-4.42111
  0
LINE
  8
0
 10
32.5367
 20
-4.42111
 11
31.4452
 21
-2.82024
  0
LINE
  8
0
 10
31.4452
 20
-2.82024
 11
30.8741
 21
-0.968765
  0
LINE
  8
0
 10
30.8741
 20
-0.968765
 11
30.8741
 21
0.968765
  0
LINE
  8
0
 10
30.8741
 20
0.968765
 11
31.4452
 21
2.82024
  0
LINE
  8
0
 10
31.4452
 20
2.82024
 11
32.5367
 21
4.42111
  0
LINE
  8
0
 10
32.5367
 20
4.42111
 11
34.0515
 21
5.62915
  0
LINE
  8
0
 10
34.0515
 20
5.62915
 11
35.8551
 21
6.33702
  0
LINE
  8
0
 10
35.8551
 20
6.33702
 11
37.7873
 21
6.48181
  0
LINE
  8
0
 10
37.7873
 20
6.48181
 11
39.6762
 21
6.05067
  0
LINE
  8
0
 10
39.6762
 20
6.05067
 11
41.3542
 21
5.08189
  0
LINE
  8
0
 10
41.3542
 20
5.08189
 11
42.6721
 21
3.66158
  0
LINE
  8
0
 10
42.6721
 20
3.66158
 11
43.5127
 21
1.91589
  0
LINE
  8
0
 10
43.5127
 20
1.91589
 11
43.8015
 21
0
  0
LINE
  8
0
 10
43.8015
 20
0
 11
43.5127
 21
-1.91589
  0
LINE
  8
0
 10
43.5127
 20
-1.91589
 11
42.6721
 21
-3.66158
  0
LINE
  8
0
 10
42.6721
 20
-3.66158
 11
41.3542
 21
-5.08189
  0
LINE
  8
0
 10
41.3542
 20
-5.08189
 11
39.6762
 21
-6.05067
  0
LINE
  8
0
 10
39.6762
 20
-6.05067
 11
37.7873
 21
-6.48181
  0
LINE
  8
0
 10
37.7873
 20
-6.48181
 11
35.8551
 21
-6.33702
  0
LINE
  8
0
 10
47.8518
 20
-1.28499
 11
47.8518
 21
1.28499
  0
LINE
  8
0
 10
47.8518
 20
1.28499
 11
51.902
 21
1.28499
  0
LINE
  8
0
 10
51.902
 20
1.28499
 11
51.902
 21
-1.28499
  0
LINE
  8
0
 10
51.902
 20
-1.28499
 11
47.8518
 21
-1.28499
  0
LINE
  8
0
 10
1.80524
 20
-17.5498
 11
3.68384
 21
-17.2523
  0
LINE
  8
0
 10
3.68384
 20
-17.2523
 11
3.68436
 21
-17.2388
  0
LINE
  8
0
 10
3.68436
 20
-17.2388
 11
4.03363
 21
-16.4812
  0
LINE
  8
0
 10
4.03363
 20
-16.4812
 11
4.64624
 21
-15.9149
  0
LINE
  8
0
 10
4.64624
 20
-15.9149
 11
5.42892
 21
-15.6261
  0
LINE
  8
0
 10
5.42892
 20
-15.6261
 11
6.26253
 21
-15.6589
  0
LINE
  8
0
 10
6.26253
 20
-15.6589
 11
7.02014
 21
-16.0081
  0
LINE
  8
0
 10
7.02014
 20
-16.0081
 11
7.14561
 21
-16.1439
  0
LINE
  8
0
 10
7.14561
 20
-16.1439
 11
7.14008
 21
-16.133
  0
LINE
  8
0
 10
7.14008
 20
-16.133
 11
8.83478
 21
-15.2695
  0
LINE
  8
0
 10
8.83478
 20
-15.2695
 11
8.83112
 21
-15.2565
  0
LINE
  8
0
 10
8.83112
 20
-15.2565
 11
8.92917
 21
-14.4281
  0
LINE
  8
0
 10
8.92917
 20
-14.4281
 11
9.33681
 21
-13.7002
  0
LINE
  8
0
 10
9.33681
 20
-13.7002
 11
9.99196
 21
-13.1837
  0
LINE
  8
0
 10
9.99196
 20
-13.1837
 11
10.7949
 21
-12.9573
  0
LINE
  8
0
 10
10.7949
 20
-12.9573
 11
11.6234
 21
-13.0553
  0
LINE
  8
0
 10
11.6234
 20
-13.0553
 11
11.7846
 21
-13.1456
  0
LINE
  8
0
 10
11.7846
 20
-13.1456
 11
11.776
 21
-13.137
  0
LINE
  8
0
 10
11.776
 20
-13.137
 11
13.1209
 21
-11.7921
  0
LINE
  8
0
 10
13.1209
 20
-11.7921
 11
13.1134
 21
-11.7809
  0
LINE
  8
0
 10
13.1134
 20
-11.7809
 11
12.9507
 21
-10.9626
  0
LINE
  8
0
 10
12.9507
 20
-10.9626
 11
13.1134
 21
-10.1444
  0
LINE
  8
0
 10
13.1134
 20
-10.1444
 11
13.5769
 21
-9.45076
  0
LINE
  8
0
 10
13.5769
 20
-9.45076
 11
14.2706
 21
-8.98727
  0
LINE
  8
0
 10
14.2706
 20
-8.98727
 11
15.0888
 21
-8.82452
  0
LINE
  8
0
 10
15.0888
 20
-8.82452
 11
15.2701
 21
-8.86058
  0
LINE
  8
0
 10
15.2701
 20
-8.86058
 11
15.2592
 21
-8.85504
  0
LINE
  8
0
 10
15.2592
 20
-8.85504
 11
16.1227
 21
-7.16034
  0
LINE
  8
0
 10
16.1227
 20
-7.16034
 11
16.1121
 21
-7.15199
  0
LINE
  8
0
 10
16.1121
 20
-7.15199
 11
15.7045
 21
-6.4241
  0
LINE
  8
0
 10
15.7045
 20
-6.4241
 11
15.6064
 21
-5.59564
  0
LINE
  8
0
 10
15.6064
 20
-5.59564
 11
15.8329
 21
-4.79271
  0
LINE
  8
0
 10
15.8329
 20
-4.79271
 11
16.3493
 21
-4.13756
  0
LINE
  8
0
 10
16.3493
 20
-4.13756
 11
17.0772
 21
-3.72993
  0
LINE
  8
0
 10
17.0772
 20
-3.72993
 11
17.2608
 21
-3.70821
  0
LINE
  8
0
 10
17.2608
 20
-3.70821
 11
17.2487
 21
-3.7063
  0
LINE
  8
0
 10
17.2487
 20
-3.7063
 11
17.5462
 21
-1.8277
  0
LINE
  8
0
 10
17.5462
 20
-1.8277
 11
17.5336
 21
-1.82303
  0
LINE
  8
0
 10
17.5336
 20
-1.82303
 11
16.921
 21
-1.25674
  0
LINE
  8
0
 10
16.921
 20
-1.25674
 11
16.5717
 21
-0.49913
  0
LINE
  8
0
 10
16.5717
 20
-0.49913
 11
16.539
 21
0.334473
  0
LINE
  8
0
 10
16.539
 20
0.334473
 11
16.8277
 21
1.11716
  0
LINE
  8
0
 10
16.8277
 20
1.11716
 11
17.394
 21
1.72977
  0
LINE
  8
0
 10
17.394
 20
1.72977
 11
17.5619
 21
1.80714
  0
LINE
  8
0
 10
17.5619
 20
1.80714
 11
17.5498
 21
1.80524
  0
LINE
  8
0
 10
17.5498
 20
1.80524
 11
17.2523
 21
3.68384
  0
LINE
  8
0
 10
17.2523
 20
3.68384
 11
17.2388
 21
3.68436
  0
LINE
  8
0
 10
17.2388
 20
3.68436
 11
16.4812
 21
4.03363
  0
LINE
  8
0
 10
16.4812
 20
4.03363
 11
15.9149
 21
4.64624
  0
LINE
  8
0
 10
15.9149
 20
4.64624
 11
15.6261
 21
5.42892
  0
LINE
  8
0
 10
15.6261
 20
5.42892
 11
15.6589
 21
6.26253
  0
LINE
  8
0
 10
15.6589
 20
6.26253
 11
16.0081
 21
7.02014
  0
LINE
  8
0
 10
16.0081
 20
7.02014
 11
16.1439
 21
7.14561
  0
LINE
  8
0
 10
16.1439
 20
7.14561
 11
16.133
 21
7.14008
  0
LINE
  8
0
 10
16.133
 20
7.14008
 11
15.2695
 21
8.83478
  0
LINE
  8
0
 10
15.2695
 20
8.83478
 11
15.2565
 21
8.83112
  0
LINE
  8
0
 10
15.2565
 20
8.83112
 11
14.4281
 21
8.92917
  0
LINE
  8
0
 10
14.4281
 20
8.92917
 11
13.7002
 21
9.33681
  0
LINE
  8
0
 10
13.7002
 20
9.33681
 11
13.1837
 21
9.99196
  0
LINE
  8
0
 10
13.1837
 20
9.99196
 11
12.9573
 21
10.7949
  0
LINE
  8
0
 10
12.9573
 20
10.7949
 11
13.0553
 21
11.6234
  0
LINE
  8
0
 10
13.0553
 20
11.6234
 11
13.1456
 21
11.7846
  0
LINE
  8
0
 10
13.1456
 20
11.7846
 11
13.137
 21
11.776
  0
LINE
  8
0
 10
13.137
 20
11.776
 11
11.7921
 21
13.1209
  0
LINE
  8
0
 10
11.7921
 20
13.1209
 11
11.7809
 21
13.1134
  0
LINE
  8
0
 10
11.7809
 20
13.1134
 11
10.9626
 21
12.9507
  0
LINE
  8
0
 10
10.9626
 20
12.9507
 11
10.1444
 21
13.1134
  0
LINE
  8
0
 10
10.1444
 20
13.1134
 11
9.45076
 21
13.5769
  0
LINE
  8
0
 10
9.45076
 20
13.5769
 11
8.98727
 21
14.2706
  0
LINE
  8
0
 10
8.98727
 20
14.2706
 11
8.82452
 21
15.0888
  0
LINE
  8
0
 10
8.82452
 20
15.0888
 11
8.86058
 21
15.2701
  0
LINE
  8
0
 10
8.86058
 20
15.2701
 11
8.85504
 21
15.2592
  0
LINE
  8
0
 10
8.85504
 20
15.2592
 11
7.16034
 21
16.1227
  0
LINE
  8
0
 10
7.16034
 20
16.1227
 11
7.15199
 21
16.1121
  0
LINE
  8
0
 10
7.15199
 20
16.1121
 11
6.4241
 21
15.7045
  0
LINE
  8
0
 10
6.4241
 20
15.7045
 11
5.59564
 21
15.6064
  0
LINE
  8
0
 10
5.59564
 20
15.6064
 11
4.79271
 21
15.8329
  0
LINE
  8
0
 10
4.79271
 20
15.8329
 11
4.13756
 21
16.3493
  0
LINE
  8
0
 10
4.13756
 20
16.3493
 11
3.72993
 21
17.0772
  0
LINE
  8
0
 10
3.72993
 20
17.0772
 11
3.70821
 21
17.2608
  0
LINE
  8
0
 10
3.70821
 20
17.2608
 11
3.7063
 21
17.2487
  0
LINE
  8
0
 10
3.7063
 20
17.2487
 11
1.8277
 21
17.5462
  0
LINE
  8
0
 10
1.8277
 20
17.5462
 11
1.82303
 21
17.5336
  0
LINE
  8
0
 10
1.82303
 20
17.5336
 11
1.25674
 21
16.921
  0
LINE
  8
0
 10
1.25674
 20
16.921
 11
0.49913
 21
16.5717
  0
LINE
  8
0
 10
0.49913
 20
16.5717
 11
-0.334473
 21
16.539
  0
LINE
  8
0
 10
-0.334473
 20
16.539
 11
-1.11716
 21
16.8277
  0
LINE
  8
0
 10
-1.11716
 20
16.8277
 11
-1.72977
 21
17.394
  0
LINE
  8
0
 10
-1.72977
 20
17.394
 11
-1.80714
 21
17.5619
  0
LINE
  8
0
 10
-1.80714
 20
17.5619
 11
-1.80524
 21
17.5498
  0
LINE
  8
0
 10
-1.80524
 20
17.5498
 11
-3.68384
 21
17.2523
  0
LINE
  8
0
 10
-3.68384
 20
17.2523
 11
-3.68436
 21
17.2388
  0
LINE
  8
0
 10
-3.68436
 20
17.2388
 11
-4.03363
 21
16.4812
  0
LINE
  8
0
 10
-4.03363
 20
16.4812
 11
-4.64624
 21
15.9149
  0
LINE
  8
0
 10
-4.64624
 20
15.9149
 11
-5.42892
 21
15.6261
  0
LINE
  8
0
 10
-5.42892
 20
15.6261
 11
-6.26253
 21
15.6589
  0
LINE
  8
0
 10
-6.26253
 20
15.6589
 11
-7.02014
 21
16.0081
  0
LINE
  8
0
 10
-7.02014
 20
16.0081
 11
-7.14561
 21
16.1439
  0
LINE
  8
0
 10
-7.14561
 20
16.1439
 11
-7.14008
 21
16.133
  0
LINE
  8
0
 10
-7.14008
 20
16.133
 11
-8.83478
 21
15.2695
  0
LINE
  8
0
 10
-8.83478
 20
15.2695
 11
-8.83112
 21
15.2565
  0
LINE
  8
0
 10
-8.83112
 20
15.2565
 11
-8.92917
 21
14.4281
  0
LINE
  8
0
 10
-8.92917
 20
14.4281
 11
-9.33681
 21
13.7002
  0
LINE
  8
0
 10
-9.33681
 20
13.7002
 11
-9.99196
 21
13.1837
  0
LINE
  8
0
 10
-9.99196
 20
13.1837
 11
-10.7949
 21
12.9573
  0
LINE
  8
0
 10
-10.7949
 20
12.9573
 11
-11.6234
 21
13.0553
  0
LINE
  8
0
 10
-11.6234
 20
13.0553
 11
-11.7846
 21
13.1456
  0
LINE
  8
0
 10
-11.7846
 20
13.1456
 11
-11.776
 21
13.137
  0
LINE
  8
0
 10
-11.776
 20
13.137
 11
-13.1209
 21
11.7921
  0
LINE
  8
0
 10
-13.1209
 20
11.7921
 11
-13.1134
 21
11.7809
  0
LINE
  8
0
 10
-13.1134
 20
11.7809
 11
-12.9507
 21
10.9626
  0
LINE
  8
0
 10
-12.9507
 20
10.9626
 11
-13.1134
 21
10.1444
  0
LINE
  8
0
 10
-13.1134
 20
10.1444
 11
-13.5769
 21
9.45076
  0
LINE
  8
0
 10
-13.5769
 20
9.45076
 11
-14.2706
 21
8.98727
  0
LINE
  8
0
 10
-14.2706
 20
8.98727
 11
-15.0888
 21
8.82452
  0
LINE
  8
0
 10
-15.0888
 20
8.82452
 11
-15.2701
 21
8.86058
  0
LINE
  8
0
 10
-15.2701
 20
8.86058
 11
-15.2592
 21
8.85504
  0
LINE
  8
0
 10
-15.2592
 20
8.85504
 11
-16.1227
 21
7.16034
  0
LINE
  8
0
 10
-16.1227
 20
7.16034
 11
-16.1121
 21
7.15199
  0
LINE
  8
0
 10
-16.1121
 20
7.15199
 11
-15.7045
 21
6.4241
  0
LINE
  8
0
 10
-15.7045
 20
6.4241
 11
-15.6064
 21
5.59564
  0
LINE
  8
0
 10
-15.6064
 20
5.59564
 11
-15.8329
 21
4.79271
  0
LINE
  8
0
 10
-15.8329
 20
4.79271
 11
-16.3493
 21
4.13756
  0
LINE
  8
0
 10
-16.3493
 20
4.13756
 11
-17.0772
 21
3.72993
  0
LINE
  8
0
 10
-17.0772
 20
3.72993
 11
-17.2608
 21
3.70821
  0
LINE
  8
0
 10
-17.2608
 20
3.70821
 11
-17.2487
 21
3.7063
  0
LINE
  8
0
 10
-17.2487
 20
3.7063
 11
-17.5462
 21
1.8277
  0
LINE
  8
0
 10
-17.5462
 20
1.8277
 11
-17.5336
 21
1.82303
  0
LINE
  8
0
 10
-17.5336
 20
1.82303
 11
-16.921
 21
1.25674
  0
LINE
  8
0
 10
-16.921
 20
1.25674
 11
-16.5717
 21
0.49913
  0
LINE
  8
0
 10
-16.5717
 20
0.49913
 11
-16.539
 21
-0.334473
  0
LINE
  8
0
 10
-16.539
 20
-0.334473
 11
-16.8277
 21
-1.11716
  0
LINE
  8
0
 10
-16.8277
 20
-1.11716
 11
-17.394
 21
-1.72977
  0
LINE
  8
0
 10
-17.394
 20
-1.72977
 11
-17.5619
 21
-1.80714
  0
LINE
  8
0
 10
-17.5619
 20
-1.80714
 11
-17.5498
 21
-1.80524
  0
LINE
  8
0
 10
-17.5498
 20
-1.80524
 11
-17.2523
 21
-3.68384
  0
LINE
  8
0
 10
-17.2523
 20
-3.68384
 11
-17.2388
 21
-3.68436
  0
LINE
  8
0
 10
-17.2388
 20
-3.68436
 11
-16.4812
 21
-4.03363
  0
LINE
  8
0
 10
-16.4812
 20
-4.03363
 11
-15.9149
 21
-4.64624
  0
LINE
  8
0
 10
-15.9149
 20
-4.64624
 11
-15.6261
 21
-5.42892
  0
LINE
  8
0
 10
-15.6261
 20
-5.42892
 11
-15.6589
 21
-6.26253
  0
LINE
  8
0
 10
-15.6589
 20
-6.26253
 11
-16.0081
 21
-7.02014
  0
LINE
  8
0
 10
-16.0081
 20
-7.02014
 11
-16.1439
 21
-7.14561
  0
LINE
  8
0
 10
-16.1439
 20
-7.14561
 11
-16.133
 21
-7.14008
  0
LINE
  8
0
 10
-16.133
 20
-7.14008
 11
-15.2695
 21
-8.83478
  0
LINE
  8
0
 10
-15.2695
 20
-8.83478
 11
-15.2565
 21
-8.83112
  0
LINE
  8
0
 10
-15.2565
 20
-8.83112
 11
-14.4281
 21
-8.92917
  0
LINE
  8
0
 10
-14.4281
 20
-8.92917
 11
-13.7002
 21
-9.33681
  0
LINE
  8
0
 10
-13.7002
 20
-9.33681
 11
-13.1837
 21
-9.99196
  0
LINE
  8
0
 10
-13.1837
 20
-9.99196
 11
-12.9573
 21
-10.7949
  0
LINE
  8
0
 10
-12.9573
 20
-10.7949
 11
-13.0553
 21
-11.6234
  0
LINE
  8
0
 10
-13.0553
 20
-11.6234
 11
-13.1456
 21
-11.7846
  0
LINE
  8
0
 10
-13.1456
 20
-11.7846
 11
-13.137
 21
-11.776
  0
LINE
  8
0
 10
-13.137
 20
-11.776
 11
-11.7921
 21
-13.1209
  0
LINE
  8
0
 10
-11.7921
 20
-13.1209
 11
-11.7809
 21
-13.1134
  0
LINE
  8
0
 10
-11.7809
 20
-13.1134
 11
-10.9626
 21
-12.9507
  0
LINE
  8
0
 10
-10.9626
 20
-12.9507
 11
-10.1444
 21
-13.1134
  0
LINE
  8
0
 10
-10.1444
 20
-13.1134
 11
-9.45076
 21
-13.5769
  0
LINE
  8
0
 10
-9.45076
 20
-13.5769
 11
-8.98727
 21
-14.2706
  0
LINE
  8
0
 10
-8.98727
 20
-14.2706
 11
-8.82452
 21
-15.0888
  0
LINE
  8
0
 10
-8.82452
 20
-15.0888
 11
-8.86058
 21
-15.2701
  0
LINE
  8
0
 10
-8.86058
 20
-15.2701
 11
-8.85504
 21
-15.2592
  0
LINE
  8
0
 10
-8.85504
 20
-15.2592
 11
-7.16034
 21
-16.1227
  0
LINE
  8
0
 10
-7.16034
 20
-16.1227
 11
-7.15199
 21
-16.1121
  0
LINE
  8
0
 10
-7.15199
 20
-16.1121
 11
-6.4241
 21
-15.7045
  0
LINE
  8
0
 10
-6.4241
 20
-15.7045
 11
-5.59564
 21
-15.6064
  0
LINE
  8
0
 10
-5.59564
 20
-15.6064
 11
-4.79271
 21
-15.8329
  0
LINE
  8
0
 10
-4.79271
 20
-15.8329
 11
-4.13756
 21
-16.3493
  0
LINE
  8
0
 10
-4.13756
 20
-16.3493
 11
-3.72993
 21
-17.0772
  0
LINE
  8
0
 10
-3.72993
 20
-17.0772
 11
-3.70821
 21
-17.2608
  0
LINE
  8
0
 10
-3.70821
 20
-17.2608
 11
-3.7063
 21
-17.2487
  0
LINE
  8
0
 10
-3.7063
 20
-17.2487
 11
-1.8277
 21
-17.5462
  0
LINE
  8
0
 10
-1.8277
 20
-17.5462
 11
-1.82303
 21
-17.5336
  0
LINE
  8
0
 10
-1.82303
 20
-17.5336
 11
-1.25674
 21
-16.921
  0
LINE
  8
0
 10
-1.25674
 20
-16.921
 11
-0.49913
 21
-16.5717
  0
LINE
  8
0
 10
-0.49913
 20
-16.5717
 11
0.334473
 21
-16.539
  0
LINE
  8
0
 10
0.334473
 20
-16.539
 11
1.11716
 21
-16.8277
  0
LINE
  8
0
 10
1.11716
 20
-16.8277
 11
1.72977
 21
-17.394
  0
LINE
  8
0
 10
1.72977
 20
-17.394
 11
1.80714
 21
-17.5619
  0
LINE
  8
0
 10
1.80714
 20
-17.5619
 11
1.80524
 21
-17.5498
  0
LINE
  8
0
 10
-1.44638
 20
-6.33702
 11
-3.25
 21
-5.62915
  0
LINE
  8
0
 10
-3.25
 20
-5.62915
 11
-4.76483
 21
-4.42111
  0
LINE
  8
0
 10
-4.76483
 20
-4.42111
 11
-5.85629
 21
-2.82024
  0
LINE
  8
0
 10
-5.85629
 20
-2.82024
 11
-6.4274
 21
-0.968765
  0
LINE
  8
0
 10
-6.4274
 20
-0.968765
 11
-6.4274
 21
0.968765
  0
LINE
  8
0
 10
-6.4274
 20
0.968765
 11
-5.85629
 21
2.82024
  0
LINE
  8
0
 10
-5.85629
 20
2.82024
 11
-4.76483
 21
4.42111
  0
LINE
  8
0
 10
-4.76483
 20
4.42111
 11
-3.25
 21
5.62915
  0
LINE
  8
0
 10
-3.25
 20
5.62915
 11
-1.44638
 21
6.33702
  0
LINE
  8
0
 10
-1.44638
 20
6.33702
 11
0.485733
 21
6.48181
  0
LINE
  8
0
 10
0.485733
 20
6.48181
 11
2.37471
 21
6.05067
  0
LINE
  8
0
 10
2.37471
 20
6.05067
 11
4.05267
 21
5.08189
  0
LINE
  8
0
 10
4.05267
 20
5.08189
 11
5.37054
 21
3.66158
  0
LINE
  8
0
 10
5.37054
 20
3.66158
 11
6.21121
 21
1.91589
  0
LINE
  8
0
 10
6.21121
 20
1.91589
 11
6.5
 21
0
  0
LINE
  8
0
 10
6.5
 20
0
 11
6.21121
 21
-1.91589
  0
LINE
  8
0
 10
6.21121
 20
-1.91589
 11
5.37054
 21
-3.66158
  0
LINE
  8
0
 10
5.37054
 20
-3.66158
 11
4.05267
 21
-5.08189
  0
LINE
  8
0
 10
4.05267
 20
-5.08189
 11
2.37471
 21
-6.05067
  0
LINE
  8
0
 10
2.37471
 20
-6.05067
 11
0.485733
 21
-6.48181
  0
LINE
  8
0
 10
0.485733
 20
-6.48181
 11
-1.44638
 21
-6.33702
  0
LINE
  8
0
 10
2.05025
 20
4.60999
 11
-2
 21
4.60999
  0
LINE
  8
0
 10
-2
 20
4.60999
 11
-2
 21
-4
  0
LINE
  8
0
 10
-2
 20
-4
 11
2.05025
 21
-4
  0
LINE
  8
0
 10
2.05025
 20
-4
 11
2.05025
 21
4.60999
  0
LINE
  8
0
 10
10.5502
 20
-1.28499
 11
10.5502
 21
1.28499
  0
LINE
  8
0
 10
10.5502
 20
1.28499
 11
14.6005
 21
1.28499
  0
LINE
  8
0
 10
14.6005
 20
1.28499
 11
14.6005
 21
-1.28499
  0
LINE
  8
0
 10
14.6005
 20
-1.28499
 11
10.5502
 21
-1.28499
  0
ENDSEC
  0
SECTION
  2
OBJECTS
  0
DICTIONARY
  0
ENDSEC
  0
EOF
