  0
SECTION
  2
HEADER
  9
$ACADVER
  1
AC1009
  9
$DWGCODEPAGE
  3
ANSI_1252
  9
$INSBASE
 10
0.0
 20
0.0
 30
0.0
  9
$EXTMIN
 10
1e+20
 20
1e+20
 30
1e+20
  9
$EXTMAX
 10
-1e+20
 20
-1e+20
 30
-1e+20
  9
$LIMMIN
 10
0.0
 20
0.0
  9
$LIMMAX
 10
420.0
 20
297.0
  9
$ORTHOMODE
 70
0
  9
$REGENMODE
 70
1
  9
$FILLMODE
 70
1
  9
$DRAGMODE
 70
2
  9
$QTEXTMODE
 70
0
  9
$MIRRTEXT
 70
1
  9
$OSMODE
 70
20583
  9
$LTSCALE
 40
1.0
  9
$ATTMODE
 70
1
  9
$TEXTSIZE
 40
2.5
  9
$TRACEWID
 40
1.0
  9
$TEXTSTYLE
  7
Standard
  9
$CLAYER
  8
0
  9
$CELTYPE
  6
ByLayer
  9
$CECOLOR
 62
256
  9
$DIMSCALE
 40
1.0
  9
$DIMASZ
 40
2.5
  9
$DIMEXO
 40
0.625
  9
$DIMDLI
 40
3.75
  9
$DIMRND
 40
0.0
  9
$DIMDLE
 40
0.0
  9
$DIMEXE
 40
1.25
  9
$DIMTP
 40
0.0
  9
$DIMTM
 40
0.0
  9
$DIMTXT
 40
2.5
  9
$DIMCEN
 40
2.5
  9
$DIMTSZ
 40
0.0
  9
$DIMTOL
 70
0
  9
$DIMLIM
 70
0
  9
$DIMTIH
 70
0
  9
$DIMTOH
 70
0
  9
$DIMSE1
 70
0
  9
$DIMSE2
 70
0
  9
$DIMTAD
 70
1
  9
$DIMZIN
 70
8
  9
$DIMBLK
  1

  9
$DIMASO
 70
1
  9
$DIMSHO
 70
1
  9
$DIMPOST
  1

  9
$DIMAPOST
  1

  9
$DIMALT
 70
0
  9
$DIMALTD
 70
3
  9
$DIMALTF
 40
0.03937007874
  9
$DIMLFAC
 40
1.0
  9
$DIMTOFL
 70
1
  9
$DIMTVP
 40
0.0
  9
$DIMTIX
 70
0
  9
$DIMSOXD
 70
0
  9
$DIMSAH
 70
0
  9
$DIMBLK1
  1

  9
$DIMBLK2
  1

  9
$DIMSTYLE
  2
ISO-25
  9
$DIMCLRD
 70
0
  9
$DIMCLRE
 70
0
  9
$DIMCLRT
 70
0
  9
$DIMTFAC
 40
1.0
  9
$DIMGAP
 40
0.625
  9
$COORDS
 70
1
  9
$ATTDIA
 70
0
  9
$ATTREQ
 70
1
  9
$HANDLING
 70
1
  9
$LUNITS
 70
2
  9
$LUPREC
 70
4
  9
$SKETCHINC
 40
1.0
  9
$FILLETRAD
 40
10.0
  9
$AUNITS
 70
0
  9
$AUPREC
 70
2
  9
$MENU
  1
.
  9
$ELEVATION
 40
0.0
  9
$PELEVATION
 40
0.0
  9
$THICKNESS
 40
0.0
  9
$LIMCHECK
 70
0
  9
$CHAMFERA
 40
0.0
  9
$CHAMFERB
 40
0.0
  9
$SKPOLY
 70
0
  9
$TDCREATE
 40
2459984.730381944
  9
$TDUPDATE
 40
2459984.730381944
  9
$TDINDWG
 40
0.0
  9
$TDUSRTIMER
 40
0.0
  9
$USRTIMER
 70
1
  9
$ANGBASE
 50
0.0
  9
$ANGDIR
 70
0
  9
$PDMODE
 70
0
  9
$PDSIZE
 40
0.0
  9
$PLINEWID
 40
0.0
  9
$SPLFRAME
 70
0
  9
$SPLINETYPE
 70
6
  9
$SPLINESEGS
 70
8
  9
$HANDSEED
  5
187
  9
$SURFTAB1
 70
6
  9
$SURFTAB2
 70
6
  9
$SURFTYPE
 70
6
  9
$SURFU
 70
6
  9
$SURFV
 70
6
  9
$UCSNAME
  2

  9
$UCSORG
 10
0.0
 20
0.0
 30
0.0
  9
$UCSXDIR
 10
1.0
 20
0.0
 30
0.0
  9
$UCSYDIR
 10
0.0
 20
1.0
 30
0.0
  9
$PUCSNAME
  2

  9
$PUCSORG
 10
0.0
 20
0.0
 30
0.0
  9
$PUCSXDIR
 10
1.0
 20
0.0
 30
0.0
  9
$PUCSYDIR
 10
0.0
 20
1.0
 30
0.0
  9
$USERI1
 70
0
  9
$USERI2
 70
0
  9
$USERI3
 70
0
  9
$USERI4
 70
0
  9
$USERI5
 70
0
  9
$USERR1
 40
0.0
  9
$USERR2
 40
0.0
  9
$USERR3
 40
0.0
  9
$USERR4
 40
0.0
  9
$USERR5
 40
0.0
  9
$WORLDVIEW
 70
1
  9
$SHADEDGE
 70
3
  9
$SHADEDIF
 70
70
  9
$TILEMODE
 70
1
  9
$MAXACTVP
 70
64
  9
$PLIMCHECK
 70
0
  9
$PEXTMIN
 10
1e+20
 20
1e+20
 30
1e+20
  9
$PEXTMAX
 10
-1e+20
 20
-1e+20
 30
-1e+20
  9
$PLIMMIN
 10
0.0
 20
0.0
  9
$PLIMMAX
 10
420.0
 20
297.0
  9
$UNITMODE
 70
0
  9
$VISRETAIN
 70
1
  9
$PLINEGEN
 70
0
  9
$PSLTSCALE
 70
1
  0
ENDSEC
  0
SECTION
  2
TABLES
  0
TABLE
  2
VPORT
 70
1
  0
VPORT
  5
17A
  2
*Active
 70
0
 10
0.0
 20
0.0
 11
1.0
 21
1.0
 12
0.0
 22
0.0
 13
0.0
 23
0.0
 14
0.5
 24
0.5
 15
0.5
 25
0.5
 16
0.0
 26
0.0
 36
1.0
 17
0.0
 27
0.0
 37
0.0
 40
1000.0
 41
1.34
 42
50.0
 43
0.0
 44
0.0
 50
0.0
 51
0.0
 71
0
 72
1000
 73
1
 74
3
 75
0
 76
0
 77
0
 78
0
  0
ENDTAB
  0
TABLE
  2
LTYPE
 70
3
  0
LTYPE
  5
17B
  2
ByBlock
 70
0
  3

 72
65
 73
0
 40
0.0
  0
LTYPE
  5
17C
  2
ByLayer
 70
0
  3

 72
65
 73
0
 40
0.0
  0
LTYPE
  5
17D
  2
Continuous
 70
0
  3

 72
65
 73
0
 40
0.0
  0
ENDTAB
  0
TABLE
  2
LAYER
 70
2
  0
LAYER
  5
17E
  2
0
 70
0
 62
7
  6
Continuous
  0
LAYER
  5
17F
  2
Defpoints
 70
0
 62
7
  6
Continuous
  0
ENDTAB
  0
TABLE
  2
STYLE
 70
1
  0
STYLE
  5
180
  2
Standard
 70
0
 40
0.0
 41
1.0
 50
0.0
 71
0
 42
2.5
  3
txt
  4

  0
ENDTAB
  0
TABLE
  2
VIEW
 70
0
  0
ENDTAB
  0
TABLE
  2
UCS
 70
0
  0
ENDTAB
  0
TABLE
  2
APPID
 70
3
  0
APPID
  5
181
  2
ACAD
 70
0
  0
APPID
  5
185
  2
HATCHBACKGROUNDCOLOR
 70
0
  0
APPID
  5
186
  2
EZDXF
 70
0
  0
ENDTAB
  0
TABLE
  2
DIMSTYLE
 70
1
  0
DIMSTYLE
105
182
  2
Standard
 70
0
  3

  4

  5

  6

  7

 40
1.0
 41
2.5
 42
0.625
 43
3.75
 44
1.25
 45
0.0
 46
0.0
 47
0.0
 48
0.0
140
2.5
141
2.5
142
0.0
143
0.03937007874
144
1.0
145
0.0
146
1.0
147
0.625
 71
0
 72
0
 73
0
 74
0
 75
0
 76
0
 77
1
 78
8
170
0
171
3
172
1
173
0
174
0
175
0
176
0
177
0
178
0
  0
ENDTAB
  0
ENDSEC
  0
SECTION
  2
BLOCKS
  0
BLOCK
  5
15B
  8
0
  2
$Model_Space
 70
0
 10
0.0
 20
0.0
 30
0.0
  3
$Model_Space
  1

1001
EZDXF
1000
WRITTEN_BY_EZDXF
1000
1.0.1 @ 2023-02-08T07:31:45.607272+00:00
  0
ENDBLK
  5
15C
  8
0
  0
BLOCK
  5
15D
  8
0
  2
$Paper_Space
 70
0
 10
0.0
 20
0.0
 30
0.0
  3
$Paper_Space
  1

  0
ENDBLK
  5
15E
  8
0
  0
ENDSEC
  0
SECTION
  2
ENTITIES
  0
LINE
  5
100
  8
0
 10
80.991
 20
-11.119
 30
0.0
 11
82.5472
 21
-11.5911
 31
0.0
  0
LINE
  5
101
  8
0
 10
82.5472
 20
-11.5911
 30
0.0
 11
84.8528
 21
-11.8182
 31
0.0
  0
LINE
  5
102
  8
0
 10
84.8528
 20
-11.8182
 30
0.0
 11
87.1584
 21
-11.5911
 31
0.0
  0
LINE
  5
103
  8
0
 10
87.1584
 20
-11.5911
 30
0.0
 11
89.3754
 21
-10.9186
 31
0.0
  0
LINE
  5
104
  8
0
 10
89.3754
 20
-10.9186
 30
0.0
 11
91.4186
 21
-9.82645
 31
0.0
  0
LINE
  5
105
  8
0
 10
91.4186
 20
-9.82645
 30
0.0
 11
93.2095
 21
-8.3567
 31
0.0
  0
LINE
  5
106
  8
0
 10
93.2095
 20
-8.3567
 30
0.0
 11
94.6793
 21
-6.56583
 31
0.0
  0
LINE
  5
107
  8
0
 10
94.6793
 20
-6.56583
 30
0.0
 11
95.7714
 21
-4.52261
 31
0.0
  0
LINE
  5
108
  8
0
 10
95.7714
 20
-4.52261
 30
0.0
 11
96.4439
 21
-2.3056
 31
0.0
  0
LINE
  5
109
  8
0
 10
96.4439
 20
-2.3056
 30
0.0
 11
96.671
 21
0.0
 31
0.0
  0
LINE
  5
10A
  8
0
 10
96.671
 20
0.0
 30
0.0
 11
96.4439
 21
2.3056
 31
0.0
  0
LINE
  5
10B
  8
0
 10
96.4439
 20
2.3056
 30
0.0
 11
95.7714
 21
4.52261
 31
0.0
  0
LINE
  5
10C
  8
0
 10
95.7714
 20
4.52261
 30
0.0
 11
94.6793
 21
6.56583
 31
0.0
  0
LINE
  5
10D
  8
0
 10
94.6793
 20
6.56583
 30
0.0
 11
93.2095
 21
8.3567
 31
0.0
  0
LINE
  5
10E
  8
0
 10
93.2095
 20
8.3567
 30
0.0
 11
91.4186
 21
9.82645
 31
0.0
  0
LINE
  5
10F
  8
0
 10
91.4186
 20
9.82645
 30
0.0
 11
89.3754
 21
10.9186
 31
0.0
  0
LINE
  5
110
  8
0
 10
89.3754
 20
10.9186
 30
0.0
 11
87.8528
 21
11.3804
 31
0.0
  0
LINE
  5
111
  8
0
 10
87.8528
 20
11.3804
 30
0.0
 11
87.8528
 21
71.8182
 31
0.0
  0
LINE
  5
112
  8
0
 10
87.8528
 20
71.8182
 30
0.0
 11
81.8528
 21
71.8182
 31
0.0
  0
LINE
  5
113
  8
0
 10
81.8528
 20
71.8182
 30
0.0
 11
81.8528
 21
11.3804
 31
0.0
  0
LINE
  5
114
  8
0
 10
81.8528
 20
11.3804
 30
0.0
 11
80.3898
 21
10.9367
 31
0.0
  0
LINE
  5
115
  8
0
 10
80.3898
 20
10.9367
 30
0.0
 11
51.0809
 21
52.7941
 31
0.0
  0
LINE
  5
116
  8
0
 10
51.0809
 20
52.7941
 30
0.0
 11
46.7932
 21
49.7919
 31
0.0
  0
LINE
  5
117
  8
0
 10
46.7932
 20
49.7919
 30
0.0
 11
46.9765
 21
49.53
 31
0.0
  0
LINE
  5
118
  8
0
 10
46.9765
 20
49.53
 30
0.0
 11
40.5758
 21
44.277
 31
0.0
  0
LINE
  5
119
  8
0
 10
40.5758
 20
44.277
 30
0.0
 11
39.8184
 21
43.3541
 31
0.0
  0
LINE
  5
11A
  8
0
 10
39.8184
 20
43.3541
 30
0.0
 11
42.2771
 21
38.139
 31
0.0
  0
LINE
  5
11B
  8
0
 10
42.2771
 20
38.139
 30
0.0
 11
44.277
 21
40.5758
 31
0.0
  0
LINE
  5
11C
  8
0
 10
44.277
 20
40.5758
 30
0.0
 11
49.9731
 21
45.2505
 31
0.0
  0
LINE
  5
11D
  8
0
 10
49.9731
 20
45.2505
 30
0.0
 11
76.1239
 21
7.90323
 31
0.0
  0
LINE
  5
11E
  8
0
 10
76.1239
 20
7.90323
 30
0.0
 11
75.0264
 21
6.56583
 31
0.0
  0
LINE
  5
11F
  8
0
 10
75.0264
 20
6.56583
 30
0.0
 11
73.9342
 21
4.52261
 31
0.0
  0
LINE
  5
120
  8
0
 10
73.9342
 20
4.52261
 30
0.0
 11
73.2617
 21
2.3056
 31
0.0
  0
LINE
  5
121
  8
0
 10
73.2617
 20
2.3056
 30
0.0
 11
73.0346
 21
0.0
 31
0.0
  0
LINE
  5
122
  8
0
 10
73.0346
 20
0.0
 30
0.0
 11
73.2617
 21
-2.3056
 31
0.0
  0
LINE
  5
123
  8
0
 10
73.2617
 20
-2.3056
 30
0.0
 11
73.9342
 21
-4.52261
 31
0.0
  0
LINE
  5
124
  8
0
 10
73.9342
 20
-4.52261
 30
0.0
 11
75.0264
 21
-6.56583
 31
0.0
  0
LINE
  5
125
  8
0
 10
75.0264
 20
-6.56583
 30
0.0
 11
76.4961
 21
-8.3567
 31
0.0
  0
LINE
  5
126
  8
0
 10
76.4961
 20
-8.3567
 30
0.0
 11
76.5283
 21
-8.38316
 31
0.0
  0
LINE
  5
127
  8
0
 10
76.5283
 20
-8.38316
 30
0.0
 11
52.2985
 21
-47.1589
 31
0.0
  0
LINE
  5
128
  8
0
 10
52.2985
 20
-47.1589
 30
0.0
 11
45.042
 21
-41.2037
 31
0.0
  0
LINE
  5
129
  8
0
 10
45.042
 20
-41.2037
 30
0.0
 11
39.868
 21
-43.4146
 31
0.0
  0
LINE
  5
12A
  8
0
 10
39.868
 20
-43.4146
 30
0.0
 11
40.5758
 21
-44.277
 31
0.0
  0
LINE
  5
12B
  8
0
 10
40.5758
 20
-44.277
 30
0.0
 11
49.5151
 21
-51.6134
 31
0.0
  0
LINE
  5
12C
  8
0
 10
49.5151
 20
-51.6134
 30
0.0
 11
49.4513
 21
-51.7155
 31
0.0
  0
LINE
  5
12D
  8
0
 10
49.4513
 20
-51.7155
 30
0.0
 11
53.8902
 21
-54.4893
 31
0.0
  0
LINE
  5
12E
  8
0
 10
53.8902
 20
-54.4893
 30
0.0
 11
80.991
 21
-11.119
 31
0.0
  0
LINE
  5
12F
  8
0
 10
83.5847
 20
-6.37509
 30
0.0
 11
82.3654
 21
-6.0052
 31
0.0
  0
LINE
  5
130
  8
0
 10
82.3654
 20
-6.0052
 30
0.0
 11
81.2416
 21
-5.40454
 31
0.0
  0
LINE
  5
131
  8
0
 10
81.2416
 20
-5.40454
 30
0.0
 11
80.2566
 21
-4.59619
 31
0.0
  0
LINE
  5
132
  8
0
 10
80.2566
 20
-4.59619
 30
0.0
 11
79.4483
 21
-3.61121
 31
0.0
  0
LINE
  5
133
  8
0
 10
79.4483
 20
-3.61121
 30
0.0
 11
78.8476
 21
-2.48744
 31
0.0
  0
LINE
  5
134
  8
0
 10
78.8476
 20
-2.48744
 30
0.0
 11
78.4777
 21
-1.26808
 31
0.0
  0
LINE
  5
135
  8
0
 10
78.4777
 20
-1.26808
 30
0.0
 11
78.3528
 21
0.0
 31
0.0
  0
LINE
  5
136
  8
0
 10
78.3528
 20
0.0
 30
0.0
 11
78.4777
 21
1.26808
 31
0.0
  0
LINE
  5
137
  8
0
 10
78.4777
 20
1.26808
 30
0.0
 11
78.8476
 21
2.48744
 31
0.0
  0
LINE
  5
138
  8
0
 10
78.8476
 20
2.48744
 30
0.0
 11
79.4483
 21
3.61121
 31
0.0
  0
LINE
  5
139
  8
0
 10
79.4483
 20
3.61121
 30
0.0
 11
80.2566
 21
4.59619
 31
0.0
  0
LINE
  5
13A
  8
0
 10
80.2566
 20
4.59619
 30
0.0
 11
81.2416
 21
5.40454
 31
0.0
  0
LINE
  5
13B
  8
0
 10
81.2416
 20
5.40454
 30
0.0
 11
82.3654
 21
6.0052
 31
0.0
  0
LINE
  5
13C
  8
0
 10
82.3654
 20
6.0052
 30
0.0
 11
83.5847
 21
6.37509
 31
0.0
  0
LINE
  5
13D
  8
0
 10
83.5847
 20
6.37509
 30
0.0
 11
84.8528
 21
6.5
 31
0.0
  0
LINE
  5
13E
  8
0
 10
84.8528
 20
6.5
 30
0.0
 11
86.1209
 21
6.37509
 31
0.0
  0
LINE
  5
13F
  8
0
 10
86.1209
 20
6.37509
 30
0.0
 11
87.3403
 21
6.0052
 31
0.0
  0
LINE
  5
140
  8
0
 10
87.3403
 20
6.0052
 30
0.0
 11
88.464
 21
5.40454
 31
0.0
  0
LINE
  5
141
  8
0
 10
88.464
 20
5.40454
 30
0.0
 11
89.449
 21
4.59619
 31
0.0
  0
LINE
  5
142
  8
0
 10
89.449
 20
4.59619
 30
0.0
 11
90.2574
 21
3.61121
 31
0.0
  0
LINE
  5
143
  8
0
 10
90.2574
 20
3.61121
 30
0.0
 11
90.858
 21
2.48744
 31
0.0
  0
LINE
  5
144
  8
0
 10
90.858
 20
2.48744
 30
0.0
 11
91.2279
 21
1.26808
 31
0.0
  0
LINE
  5
145
  8
0
 10
91.2279
 20
1.26808
 30
0.0
 11
91.3528
 21
0.0
 31
0.0
  0
LINE
  5
146
  8
0
 10
91.3528
 20
0.0
 30
0.0
 11
91.2279
 21
-1.26808
 31
0.0
  0
LINE
  5
147
  8
0
 10
91.2279
 20
-1.26808
 30
0.0
 11
90.858
 21
-2.48744
 31
0.0
  0
LINE
  5
148
  8
0
 10
90.858
 20
-2.48744
 30
0.0
 11
90.2574
 21
-3.61121
 31
0.0
  0
LINE
  5
149
  8
0
 10
90.2574
 20
-3.61121
 30
0.0
 11
89.449
 21
-4.59619
 31
0.0
  0
LINE
  5
14A
  8
0
 10
89.449
 20
-4.59619
 30
0.0
 11
88.464
 21
-5.40454
 31
0.0
  0
LINE
  5
14B
  8
0
 10
88.464
 20
-5.40454
 30
0.0
 11
87.3403
 21
-6.0052
 31
0.0
  0
LINE
  5
14C
  8
0
 10
87.3403
 20
-6.0052
 30
0.0
 11
86.1209
 21
-6.37509
 31
0.0
  0
LINE
  5
14D
  8
0
 10
86.1209
 20
-6.37509
 30
0.0
 11
84.8528
 21
-6.5
 31
0.0
  0
LINE
  5
14E
  8
0
 10
84.8528
 20
-6.5
 30
0.0
 11
83.5847
 21
-6.37509
 31
0.0
  0
TEXT
  5
184
  8
0
 62
5
 10
0.0
 20
0.0
 30
0.0
 40
3.0
  1
4
  7
OpenSans-Regular
  0
ENDSEC
  0
EOF
