  0
SECTION
  2
HEADER
  9
$ACADVER
  1
AC1009
  9
$DWGCODEPAGE
  3
ANSI_1252
  9
$INSBASE
 10
0.0
 20
0.0
 30
0.0
  9
$EXTMIN
 10
1e+20
 20
1e+20
 30
1e+20
  9
$EXTMAX
 10
-1e+20
 20
-1e+20
 30
-1e+20
  9
$LIMMIN
 10
0.0
 20
0.0
  9
$LIMMAX
 10
420.0
 20
297.0
  9
$ORTHOMODE
 70
0
  9
$REGENMODE
 70
1
  9
$FILLMODE
 70
1
  9
$DRAGMODE
 70
2
  9
$QTEXTMODE
 70
0
  9
$MIRRTEXT
 70
1
  9
$OSMODE
 70
20583
  9
$LTSCALE
 40
1.0
  9
$ATTMODE
 70
1
  9
$TEXTSIZE
 40
2.5
  9
$TRACEWID
 40
1.0
  9
$TEXTSTYLE
  7
Standard
  9
$CLAYER
  8
0
  9
$CELTYPE
  6
ByLayer
  9
$CECOLOR
 62
256
  9
$DIMSCALE
 40
1.0
  9
$DIMASZ
 40
2.5
  9
$DIMEXO
 40
0.625
  9
$DIMDLI
 40
3.75
  9
$DIMRND
 40
0.0
  9
$DIMDLE
 40
0.0
  9
$DIMEXE
 40
1.25
  9
$DIMTP
 40
0.0
  9
$DIMTM
 40
0.0
  9
$DIMTXT
 40
2.5
  9
$DIMCEN
 40
2.5
  9
$DIMTSZ
 40
0.0
  9
$DIMTOL
 70
0
  9
$DIMLIM
 70
0
  9
$DIMTIH
 70
0
  9
$DIMTOH
 70
0
  9
$DIMSE1
 70
0
  9
$DIMSE2
 70
0
  9
$DIMTAD
 70
1
  9
$DIMZIN
 70
8
  9
$DIMBLK
  1

  9
$DIMASO
 70
1
  9
$DIMSHO
 70
1
  9
$DIMPOST
  1

  9
$DIMAPOST
  1

  9
$DIMALT
 70
0
  9
$DIMALTD
 70
3
  9
$DIMALTF
 40
0.03937007874
  9
$DIMLFAC
 40
1.0
  9
$DIMTOFL
 70
1
  9
$DIMTVP
 40
0.0
  9
$DIMTIX
 70
0
  9
$DIMSOXD
 70
0
  9
$DIMSAH
 70
0
  9
$DIMBLK1
  1

  9
$DIMBLK2
  1

  9
$DIMSTYLE
  2
ISO-25
  9
$DIMCLRD
 70
0
  9
$DIMCLRE
 70
0
  9
$DIMCLRT
 70
0
  9
$DIMTFAC
 40
1.0
  9
$DIMGAP
 40
0.625
  9
$COORDS
 70
1
  9
$ATTDIA
 70
0
  9
$ATTREQ
 70
1
  9
$HANDLING
 70
1
  9
$LUNITS
 70
2
  9
$LUPREC
 70
4
  9
$SKETCHINC
 40
1.0
  9
$FILLETRAD
 40
10.0
  9
$AUNITS
 70
0
  9
$AUPREC
 70
2
  9
$MENU
  1
.
  9
$ELEVATION
 40
0.0
  9
$PELEVATION
 40
0.0
  9
$THICKNESS
 40
0.0
  9
$LIMCHECK
 70
0
  9
$CHAMFERA
 40
0.0
  9
$CHAMFERB
 40
0.0
  9
$SKPOLY
 70
0
  9
$TDCREATE
 40
2459992.876145833
  9
$TDUPDATE
 40
2459992.876145833
  9
$TDINDWG
 40
0.0
  9
$TDUSRTIMER
 40
0.0
  9
$USRTIMER
 70
1
  9
$ANGBASE
 50
0.0
  9
$ANGDIR
 70
0
  9
$PDMODE
 70
0
  9
$PDSIZE
 40
0.0
  9
$PLINEWID
 40
0.0
  9
$SPLFRAME
 70
0
  9
$SPLINETYPE
 70
6
  9
$SPLINESEGS
 70
8
  9
$HANDSEED
  5
20C
  9
$SURFTAB1
 70
6
  9
$SURFTAB2
 70
6
  9
$SURFTYPE
 70
6
  9
$SURFU
 70
6
  9
$SURFV
 70
6
  9
$UCSNAME
  2

  9
$UCSORG
 10
0.0
 20
0.0
 30
0.0
  9
$UCSXDIR
 10
1.0
 20
0.0
 30
0.0
  9
$UCSYDIR
 10
0.0
 20
1.0
 30
0.0
  9
$PUCSNAME
  2

  9
$PUCSORG
 10
0.0
 20
0.0
 30
0.0
  9
$PUCSXDIR
 10
1.0
 20
0.0
 30
0.0
  9
$PUCSYDIR
 10
0.0
 20
1.0
 30
0.0
  9
$USERI1
 70
0
  9
$USERI2
 70
0
  9
$USERI3
 70
0
  9
$USERI4
 70
0
  9
$USERI5
 70
0
  9
$USERR1
 40
0.0
  9
$USERR2
 40
0.0
  9
$USERR3
 40
0.0
  9
$USERR4
 40
0.0
  9
$USERR5
 40
0.0
  9
$WORLDVIEW
 70
1
  9
$SHADEDGE
 70
3
  9
$SHADEDIF
 70
70
  9
$TILEMODE
 70
1
  9
$MAXACTVP
 70
64
  9
$PLIMCHECK
 70
0
  9
$PEXTMIN
 10
1e+20
 20
1e+20
 30
1e+20
  9
$PEXTMAX
 10
-1e+20
 20
-1e+20
 30
-1e+20
  9
$PLIMMIN
 10
0.0
 20
0.0
  9
$PLIMMAX
 10
420.0
 20
297.0
  9
$UNITMODE
 70
0
  9
$VISRETAIN
 70
1
  9
$PLINEGEN
 70
0
  9
$PSLTSCALE
 70
1
  0
ENDSEC
  0
SECTION
  2
TABLES
  0
TABLE
  2
VPORT
 70
1
  0
VPORT
  5
1DE
  2
*Active
 70
0
 10
0.0
 20
0.0
 11
1.0
 21
1.0
 12
0.0
 22
0.0
 13
0.0
 23
0.0
 14
0.5
 24
0.5
 15
0.5
 25
0.5
 16
0.0
 26
0.0
 36
1.0
 17
0.0
 27
0.0
 37
0.0
 40
1000.0
 41
1.34
 42
50.0
 43
0.0
 44
0.0
 50
0.0
 51
0.0
 71
0
 72
1000
 73
1
 74
3
 75
0
 76
0
 77
0
 78
0
  0
ENDTAB
  0
TABLE
  2
LTYPE
 70
3
  0
LTYPE
  5
1DF
  2
ByBlock
 70
0
  3

 72
65
 73
0
 40
0.0
  0
LTYPE
  5
1E0
  2
ByLayer
 70
0
  3

 72
65
 73
0
 40
0.0
  0
LTYPE
  5
1E1
  2
Continuous
 70
0
  3

 72
65
 73
0
 40
0.0
  0
ENDTAB
  0
TABLE
  2
LAYER
 70
2
  0
LAYER
  5
1E2
  2
0
 70
0
 62
7
  6
Continuous
  0
LAYER
  5
1E3
  2
Defpoints
 70
0
 62
7
  6
Continuous
  0
ENDTAB
  0
TABLE
  2
STYLE
 70
1
  0
STYLE
  5
1E4
  2
Standard
 70
0
 40
0.0
 41
1.0
 50
0.0
 71
0
 42
2.5
  3
txt
  4

  0
ENDTAB
  0
TABLE
  2
VIEW
 70
0
  0
ENDTAB
  0
TABLE
  2
UCS
 70
0
  0
ENDTAB
  0
TABLE
  2
APPID
 70
3
  0
APPID
  5
1E5
  2
ACAD
 70
0
  0
APPID
  5
1E9
  2
HATCHBACKGROUNDCOLOR
 70
0
  0
APPID
  5
1EA
  2
EZDXF
 70
0
  0
ENDTAB
  0
TABLE
  2
DIMSTYLE
 70
1
  0
DIMSTYLE
105
1E6
  2
Standard
 70
0
  3

  4

  5

  6

  7

 40
1.0
 41
2.5
 42
0.625
 43
3.75
 44
1.25
 45
0.0
 46
0.0
 47
0.0
 48
0.0
140
2.5
141
2.5
142
0.0
143
0.03937007874
144
1.0
145
0.0
146
1.0
147
0.625
 71
0
 72
0
 73
0
 74
0
 75
0
 76
0
 77
1
 78
8
170
0
171
3
172
1
173
0
174
0
175
0
176
0
177
0
178
0
  0
ENDTAB
  0
ENDSEC
  0
SECTION
  2
BLOCKS
  0
BLOCK
  5
1BF
  8
0
  2
$Model_Space
 70
0
 10
0.0
 20
0.0
 30
0.0
  3
$Model_Space
  1

1001
EZDXF
1000
WRITTEN_BY_EZDXF
1000
1.0.1 @ 2023-02-16T11:01:39.056400+00:00
  0
ENDBLK
  5
1C0
  8
0
  0
BLOCK
  5
1C1
  8
0
  2
$Paper_Space
 70
0
 10
0.0
 20
0.0
 30
0.0
  3
$Paper_Space
  1

  0
ENDBLK
  5
1C2
  8
0
  0
ENDSEC
  0
SECTION
  2
ENTITIES
  0
LINE
  5
100
  8
0
 10
80.8316
 20
-14.2048
 30
0.0
 11
81.034
 21
-14.252
 31
0.0
  0
LINE
  5
101
  8
0
 10
81.034
 20
-14.252
 30
0.0
 11
81.9619
 21
-14.5334
 31
0.0
  0
LINE
  5
102
  8
0
 10
81.9619
 20
-14.5334
 30
0.0
 11
82.4455
 21
-14.5811
 31
0.0
  0
LINE
  5
103
  8
0
 10
82.4455
 20
-14.5811
 30
0.0
 11
82.9187
 21
-14.6914
 31
0.0
  0
LINE
  5
104
  8
0
 10
82.9187
 20
-14.6914
 30
0.0
 11
83.8878
 21
-14.7231
 31
0.0
  0
LINE
  5
105
  8
0
 10
83.8878
 20
-14.7231
 30
0.0
 11
84.8528
 21
-14.8182
 31
0.0
  0
LINE
  5
106
  8
0
 10
84.8528
 20
-14.8182
 30
0.0
 11
85.3363
 21
-14.7706
 31
0.0
  0
LINE
  5
107
  8
0
 10
85.3363
 20
-14.7706
 30
0.0
 11
85.822
 21
-14.7865
 31
0.0
  0
LINE
  5
108
  8
0
 10
85.822
 20
-14.7865
 30
0.0
 11
86.7787
 21
-14.6285
 31
0.0
  0
LINE
  5
109
  8
0
 10
86.7787
 20
-14.6285
 30
0.0
 11
87.7437
 21
-14.5334
 31
0.0
  0
LINE
  5
10A
  8
0
 10
87.7437
 20
-14.5334
 30
0.0
 11
88.2086
 21
-14.3924
 31
0.0
  0
LINE
  5
10B
  8
0
 10
88.2086
 20
-14.3924
 30
0.0
 11
88.688
 21
-14.3133
 31
0.0
  0
LINE
  5
10C
  8
0
 10
88.688
 20
-14.3133
 30
0.0
 11
89.5956
 21
-13.9717
 31
0.0
  0
LINE
  5
10D
  8
0
 10
89.5956
 20
-13.9717
 30
0.0
 11
90.5235
 21
-13.6902
 31
0.0
  0
LINE
  5
10E
  8
0
 10
90.5235
 20
-13.6902
 30
0.0
 11
90.952
 21
-13.4612
 31
0.0
  0
LINE
  5
10F
  8
0
 10
90.952
 20
-13.4612
 30
0.0
 11
91.4067
 21
-13.29
 31
0.0
  0
LINE
  5
110
  8
0
 10
91.4067
 20
-13.29
 30
0.0
 11
92.2301
 21
-12.778
 31
0.0
  0
LINE
  5
111
  8
0
 10
92.2301
 20
-12.778
 30
0.0
 11
93.0854
 21
-12.3209
 31
0.0
  0
LINE
  5
112
  8
0
 10
93.0854
 20
-12.3209
 30
0.0
 11
93.461
 21
-12.0126
 31
0.0
  0
LINE
  5
113
  8
0
 10
93.461
 20
-12.0126
 30
0.0
 11
93.8736
 21
-11.756
 31
0.0
  0
LINE
  5
114
  8
0
 10
93.8736
 20
-11.756
 30
0.0
 11
94.5813
 21
-11.0932
 31
0.0
  0
LINE
  5
115
  8
0
 10
94.5813
 20
-11.0932
 30
0.0
 11
95.3308
 21
-10.478
 31
0.0
  0
LINE
  5
116
  8
0
 10
95.3308
 20
-10.478
 30
0.0
 11
95.6391
 21
-10.1024
 31
0.0
  0
LINE
  5
117
  8
0
 10
95.6391
 20
-10.1024
 30
0.0
 11
95.9937
 21
-9.77029
 31
0.0
  0
LINE
  5
118
  8
0
 10
95.9937
 20
-9.77029
 30
0.0
 11
96.5585
 21
-8.9821
 31
0.0
  0
LINE
  5
119
  8
0
 10
96.5585
 20
-8.9821
 30
0.0
 11
97.1737
 21
-8.23253
 31
0.0
  0
LINE
  5
11A
  8
0
 10
97.1737
 20
-8.23253
 30
0.0
 11
97.4027
 21
-7.80403
 31
0.0
  0
LINE
  5
11B
  8
0
 10
97.4027
 20
-7.80403
 30
0.0
 11
97.6857
 21
-7.40909
 31
0.0
  0
LINE
  5
11C
  8
0
 10
97.6857
 20
-7.40909
 30
0.0
 11
98.0859
 21
-6.52585
 31
0.0
  0
LINE
  5
11D
  8
0
 10
98.0859
 20
-6.52585
 30
0.0
 11
98.543
 21
-5.67067
 31
0.0
  0
LINE
  5
11E
  8
0
 10
98.543
 20
-5.67067
 30
0.0
 11
98.6841
 21
-5.2057
 31
0.0
  0
LINE
  5
11F
  8
0
 10
98.6841
 20
-5.2057
 30
0.0
 11
98.8846
 21
-4.76314
 31
0.0
  0
LINE
  5
120
  8
0
 10
98.8846
 20
-4.76314
 30
0.0
 11
99.1048
 21
-3.8188
 31
0.0
  0
LINE
  5
121
  8
0
 10
99.1048
 20
-3.8188
 30
0.0
 11
99.1588
 21
-3.64075
 31
0.0
  0
LINE
  5
122
  8
0
 10
99.1588
 20
-3.64075
 30
0.0
 11
151.647
 21
-33.945
 31
0.0
  0
LINE
  5
123
  8
0
 10
151.647
 20
-33.945
 30
0.0
 11
155.647
 21
-27.0168
 31
0.0
  0
LINE
  5
124
  8
0
 10
155.647
 20
-27.0168
 30
0.0
 11
98.3253
 21
6.07808
 31
0.0
  0
LINE
  5
125
  8
0
 10
98.3253
 20
6.07808
 30
0.0
 11
98.3139
 21
6.09924
 31
0.0
  0
LINE
  5
126
  8
0
 10
98.3139
 20
6.09924
 30
0.0
 11
98.1428
 21
6.55391
 31
0.0
  0
LINE
  5
127
  8
0
 10
98.1428
 20
6.55391
 30
0.0
 11
97.6308
 21
7.37735
 31
0.0
  0
LINE
  5
128
  8
0
 10
97.6308
 20
7.37735
 30
0.0
 11
97.1737
 21
8.23253
 31
0.0
  0
LINE
  5
129
  8
0
 10
97.1737
 20
8.23253
 30
0.0
 11
96.8654
 21
8.60812
 31
0.0
  0
LINE
  5
12A
  8
0
 10
96.8654
 20
8.60812
 30
0.0
 11
96.6089
 21
9.02074
 31
0.0
  0
LINE
  5
12B
  8
0
 10
96.6089
 20
9.02074
 30
0.0
 11
95.946
 21
9.72847
 31
0.0
  0
LINE
  5
12C
  8
0
 10
95.946
 20
9.72847
 30
0.0
 11
95.3308
 21
10.478
 31
0.0
  0
LINE
  5
12D
  8
0
 10
95.3308
 20
10.478
 30
0.0
 11
94.9553
 21
10.7863
 31
0.0
  0
LINE
  5
12E
  8
0
 10
94.9553
 20
10.7863
 30
0.0
 11
94.6231
 21
11.1409
 31
0.0
  0
LINE
  5
12F
  8
0
 10
94.6231
 20
11.1409
 30
0.0
 11
93.835
 21
11.7057
 31
0.0
  0
LINE
  5
130
  8
0
 10
93.835
 20
11.7057
 30
0.0
 11
93.0854
 21
12.3209
 31
0.0
  0
LINE
  5
131
  8
0
 10
93.0854
 20
12.3209
 30
0.0
 11
92.6568
 21
12.5499
 31
0.0
  0
LINE
  5
132
  8
0
 10
92.6568
 20
12.5499
 30
0.0
 11
92.2619
 21
12.8329
 31
0.0
  0
LINE
  5
133
  8
0
 10
92.2619
 20
12.8329
 30
0.0
 11
91.3787
 21
13.2331
 31
0.0
  0
LINE
  5
134
  8
0
 10
91.3787
 20
13.2331
 30
0.0
 11
90.5235
 21
13.6902
 31
0.0
  0
LINE
  5
135
  8
0
 10
90.5235
 20
13.6902
 30
0.0
 11
90.0585
 21
13.8313
 31
0.0
  0
LINE
  5
136
  8
0
 10
90.0585
 20
13.8313
 30
0.0
 11
89.616
 21
14.0318
 31
0.0
  0
LINE
  5
137
  8
0
 10
89.616
 20
14.0318
 30
0.0
 11
88.6716
 21
14.252
 31
0.0
  0
LINE
  5
138
  8
0
 10
88.6716
 20
14.252
 30
0.0
 11
87.7437
 21
14.5334
 31
0.0
  0
LINE
  5
139
  8
0
 10
87.7437
 20
14.5334
 30
0.0
 11
87.2601
 21
14.5811
 31
0.0
  0
LINE
  5
13A
  8
0
 10
87.2601
 20
14.5811
 30
0.0
 11
86.787
 21
14.6914
 31
0.0
  0
LINE
  5
13B
  8
0
 10
86.787
 20
14.6914
 30
0.0
 11
85.8179
 21
14.7231
 31
0.0
  0
LINE
  5
13C
  8
0
 10
85.8179
 20
14.7231
 30
0.0
 11
84.8528
 21
14.8182
 31
0.0
  0
LINE
  5
13D
  8
0
 10
84.8528
 20
14.8182
 30
0.0
 11
84.3693
 21
14.7706
 31
0.0
  0
LINE
  5
13E
  8
0
 10
84.3693
 20
14.7706
 30
0.0
 11
83.8837
 21
14.7865
 31
0.0
  0
LINE
  5
13F
  8
0
 10
83.8837
 20
14.7865
 30
0.0
 11
82.9269
 21
14.6285
 31
0.0
  0
LINE
  5
140
  8
0
 10
82.9269
 20
14.6285
 30
0.0
 11
81.9619
 21
14.5334
 31
0.0
  0
LINE
  5
141
  8
0
 10
81.9619
 20
14.5334
 30
0.0
 11
81.6087
 21
14.4263
 31
0.0
  0
LINE
  5
142
  8
0
 10
81.6087
 20
14.4263
 30
0.0
 11
53.5384
 21
54.5149
 31
0.0
  0
LINE
  5
143
  8
0
 10
53.5384
 20
54.5149
 30
0.0
 11
46.7932
 21
49.7919
 31
0.0
  0
LINE
  5
144
  8
0
 10
46.7932
 20
49.7919
 30
0.0
 11
46.9765
 21
49.53
 31
0.0
  0
LINE
  5
145
  8
0
 10
46.9765
 20
49.53
 30
0.0
 11
40.5758
 21
44.277
 31
0.0
  0
LINE
  5
146
  8
0
 10
40.5758
 20
44.277
 30
0.0
 11
39.8184
 21
43.3541
 31
0.0
  0
LINE
  5
147
  8
0
 10
39.8184
 20
43.3541
 30
0.0
 11
42.2771
 21
38.139
 31
0.0
  0
LINE
  5
148
  8
0
 10
42.2771
 20
38.139
 30
0.0
 11
44.277
 21
40.5758
 31
0.0
  0
LINE
  5
149
  8
0
 10
44.277
 20
40.5758
 30
0.0
 11
49.9731
 21
45.2505
 31
0.0
  0
LINE
  5
14A
  8
0
 10
49.9731
 20
45.2505
 30
0.0
 11
74.3458
 21
10.4427
 31
0.0
  0
LINE
  5
14B
  8
0
 10
74.3458
 20
10.4427
 30
0.0
 11
74.0665
 21
10.1024
 31
0.0
  0
LINE
  5
14C
  8
0
 10
74.0665
 20
10.1024
 30
0.0
 11
73.7119
 21
9.77029
 31
0.0
  0
LINE
  5
14D
  8
0
 10
73.7119
 20
9.77029
 30
0.0
 11
73.1471
 21
8.9821
 31
0.0
  0
LINE
  5
14E
  8
0
 10
73.1471
 20
8.9821
 30
0.0
 11
72.5319
 21
8.23253
 31
0.0
  0
LINE
  5
14F
  8
0
 10
72.5319
 20
8.23253
 30
0.0
 11
72.3029
 21
7.80403
 31
0.0
  0
LINE
  5
150
  8
0
 10
72.3029
 20
7.80403
 30
0.0
 11
72.0199
 21
7.40909
 31
0.0
  0
LINE
  5
151
  8
0
 10
72.0199
 20
7.40909
 30
0.0
 11
71.6197
 21
6.52585
 31
0.0
  0
LINE
  5
152
  8
0
 10
71.6197
 20
6.52585
 30
0.0
 11
71.1626
 21
5.67067
 31
0.0
  0
LINE
  5
153
  8
0
 10
71.1626
 20
5.67067
 30
0.0
 11
71.0215
 21
5.20564
 31
0.0
  0
LINE
  5
154
  8
0
 10
71.0215
 20
5.20564
 30
0.0
 11
70.821
 21
4.76314
 31
0.0
  0
LINE
  5
155
  8
0
 10
70.821
 20
4.76314
 30
0.0
 11
70.6009
 21
3.81891
 31
0.0
  0
LINE
  5
156
  8
0
 10
70.6009
 20
3.81891
 30
0.0
 11
70.3194
 21
2.89087
 31
0.0
  0
LINE
  5
157
  8
0
 10
70.3194
 20
2.89087
 30
0.0
 11
70.2717
 21
2.40733
 31
0.0
  0
LINE
  5
158
  8
0
 10
70.2717
 20
2.40733
 30
0.0
 11
70.1614
 21
1.93416
 31
0.0
  0
LINE
  5
159
  8
0
 10
70.1614
 20
1.93416
 30
0.0
 11
70.1297
 21
0.964996
 31
0.0
  0
LINE
  5
15A
  8
0
 10
70.1297
 20
0.964996
 30
0.0
 11
70.0346
 21
0.0
 31
0.0
  0
LINE
  5
15B
  8
0
 10
70.0346
 20
0.0
 30
0.0
 11
70.0823
 21
-0.483643
 31
0.0
  0
LINE
  5
15C
  8
0
 10
70.0823
 20
-0.483643
 30
0.0
 11
70.0664
 21
-0.969147
 31
0.0
  0
LINE
  5
15D
  8
0
 10
70.0664
 20
-0.969147
 30
0.0
 11
70.2243
 21
-1.92587
 31
0.0
  0
LINE
  5
15E
  8
0
 10
70.2243
 20
-1.92587
 30
0.0
 11
70.3194
 21
-2.89087
 31
0.0
  0
LINE
  5
15F
  8
0
 10
70.3194
 20
-2.89087
 30
0.0
 11
70.4604
 21
-3.35583
 31
0.0
  0
LINE
  5
160
  8
0
 10
70.4604
 20
-3.35583
 30
0.0
 11
70.5396
 21
-3.83522
 31
0.0
  0
LINE
  5
161
  8
0
 10
70.5396
 20
-3.83522
 30
0.0
 11
70.8811
 21
-4.74274
 31
0.0
  0
LINE
  5
162
  8
0
 10
70.8811
 20
-4.74274
 30
0.0
 11
71.1626
 21
-5.67067
 31
0.0
  0
LINE
  5
163
  8
0
 10
71.1626
 20
-5.67067
 30
0.0
 11
71.3916
 21
-6.09917
 31
0.0
  0
LINE
  5
164
  8
0
 10
71.3916
 20
-6.09917
 30
0.0
 11
71.5628
 21
-6.55391
 31
0.0
  0
LINE
  5
165
  8
0
 10
71.5628
 20
-6.55391
 30
0.0
 11
72.0748
 21
-7.37724
 31
0.0
  0
LINE
  5
166
  8
0
 10
72.0748
 20
-7.37724
 30
0.0
 11
72.5319
 21
-8.23253
 31
0.0
  0
LINE
  5
167
  8
0
 10
72.5319
 20
-8.23253
 30
0.0
 11
72.8402
 21
-8.60812
 31
0.0
  0
LINE
  5
168
  8
0
 10
72.8402
 20
-8.60812
 30
0.0
 11
73.0968
 21
-9.02074
 31
0.0
  0
LINE
  5
169
  8
0
 10
73.0968
 20
-9.02074
 30
0.0
 11
73.7595
 21
-9.72835
 31
0.0
  0
LINE
  5
16A
  8
0
 10
73.7595
 20
-9.72835
 30
0.0
 11
73.8501
 21
-9.83867
 31
0.0
  0
LINE
  5
16B
  8
0
 10
73.8501
 20
-9.83867
 30
0.0
 11
51.1293
 21
-46.1994
 31
0.0
  0
LINE
  5
16C
  8
0
 10
51.1293
 20
-46.1994
 30
0.0
 11
45.042
 21
-41.2037
 31
0.0
  0
LINE
  5
16D
  8
0
 10
45.042
 20
-41.2037
 30
0.0
 11
39.868
 21
-43.4146
 31
0.0
  0
LINE
  5
16E
  8
0
 10
39.868
 20
-43.4146
 30
0.0
 11
40.5758
 21
-44.277
 31
0.0
  0
LINE
  5
16F
  8
0
 10
40.5758
 20
-44.277
 30
0.0
 11
48.3459
 21
-50.6538
 31
0.0
  0
LINE
  5
170
  8
0
 10
48.3459
 20
-50.6538
 30
0.0
 11
48.1792
 21
-50.9206
 31
0.0
  0
LINE
  5
171
  8
0
 10
48.1792
 20
-50.9206
 30
0.0
 11
55.1623
 21
-55.2841
 31
0.0
  0
LINE
  5
172
  8
0
 10
55.1623
 20
-55.2841
 30
0.0
 11
80.8316
 21
-14.2048
 31
0.0
  0
LINE
  5
173
  8
0
 10
84.4393
 20
-6.30927
 30
0.0
 11
83.8212
 21
-6.24838
 31
0.0
  0
LINE
  5
174
  8
0
 10
83.8212
 20
-6.24838
 30
0.0
 11
83.2164
 21
-6.10736
 31
0.0
  0
LINE
  5
175
  8
0
 10
83.2164
 20
-6.10736
 30
0.0
 11
82.622
 21
-5.92706
 31
0.0
  0
LINE
  5
176
  8
0
 10
82.622
 20
-5.92706
 30
0.0
 11
82.0563
 21
-5.67075
 31
0.0
  0
LINE
  5
177
  8
0
 10
82.0563
 20
-5.67075
 30
0.0
 11
81.5086
 21
-5.37798
 31
0.0
  0
LINE
  5
178
  8
0
 10
81.5086
 20
-5.37798
 30
0.0
 11
81.0037
 21
-5.01622
 31
0.0
  0
LINE
  5
179
  8
0
 10
81.0037
 20
-5.01622
 30
0.0
 11
80.5236
 21
-4.62221
 31
0.0
  0
LINE
  5
17A
  8
0
 10
80.5236
 20
-4.62221
 30
0.0
 11
80.0991
 21
-4.16891
 31
0.0
  0
LINE
  5
17B
  8
0
 10
80.0991
 20
-4.16891
 30
0.0
 11
79.7051
 21
-3.68881
 31
0.0
  0
LINE
  5
17C
  8
0
 10
79.7051
 20
-3.68881
 30
0.0
 11
79.3771
 21
-3.16139
 31
0.0
  0
LINE
  5
17D
  8
0
 10
79.3771
 20
-3.16139
 30
0.0
 11
79.0843
 21
-2.61366
 31
0.0
  0
LINE
  5
17E
  8
0
 10
79.0843
 20
-2.61366
 30
0.0
 11
78.8656
 21
-2.03239
 31
0.0
  0
LINE
  5
17F
  8
0
 10
78.8656
 20
-2.03239
 30
0.0
 11
78.6853
 21
-1.43806
 31
0.0
  0
LINE
  5
180
  8
0
 10
78.6853
 20
-1.43806
 30
0.0
 11
78.5841
 21
-0.825287
 31
0.0
  0
LINE
  5
181
  8
0
 10
78.5841
 20
-0.825287
 30
0.0
 11
78.5232
 21
-0.207199
 31
0.0
  0
LINE
  5
182
  8
0
 10
78.5232
 20
-0.207199
 30
0.0
 11
78.5435
 21
0.413528
 31
0.0
  0
LINE
  5
183
  8
0
 10
78.5435
 20
0.413528
 30
0.0
 11
78.6044
 21
1.0316
 31
0.0
  0
LINE
  5
184
  8
0
 10
78.6044
 20
1.0316
 30
0.0
 11
78.7455
 21
1.63646
 31
0.0
  0
LINE
  5
185
  8
0
 10
78.7455
 20
1.63646
 30
0.0
 11
78.9257
 21
2.23079
 31
0.0
  0
LINE
  5
186
  8
0
 10
78.9257
 20
2.23079
 30
0.0
 11
79.1821
 21
2.79649
 31
0.0
  0
LINE
  5
187
  8
0
 10
79.1821
 20
2.79649
 30
0.0
 11
79.4749
 21
3.34428
 31
0.0
  0
LINE
  5
188
  8
0
 10
79.4749
 20
3.34428
 30
0.0
 11
79.8366
 21
3.84908
 31
0.0
  0
LINE
  5
189
  8
0
 10
79.8366
 20
3.84908
 30
0.0
 11
80.2306
 21
4.32921
 31
0.0
  0
LINE
  5
18A
  8
0
 10
80.2306
 20
4.32921
 30
0.0
 11
80.6839
 21
4.75372
 31
0.0
  0
LINE
  5
18B
  8
0
 10
80.6839
 20
4.75372
 30
0.0
 11
81.164
 21
5.14774
 31
0.0
  0
LINE
  5
18C
  8
0
 10
81.164
 20
5.14774
 30
0.0
 11
81.6914
 21
5.47571
 31
0.0
  0
LINE
  5
18D
  8
0
 10
81.6914
 20
5.47571
 30
0.0
 11
82.2392
 21
5.76848
 31
0.0
  0
LINE
  5
18E
  8
0
 10
82.2392
 20
5.76848
 30
0.0
 11
82.8204
 21
5.98724
 31
0.0
  0
LINE
  5
18F
  8
0
 10
82.8204
 20
5.98724
 30
0.0
 11
83.4148
 21
6.16754
 31
0.0
  0
LINE
  5
190
  8
0
 10
83.4148
 20
6.16754
 30
0.0
 11
84.0275
 21
6.26871
 31
0.0
  0
LINE
  5
191
  8
0
 10
84.0275
 20
6.26871
 30
0.0
 11
84.6457
 21
6.32959
 31
0.0
  0
LINE
  5
192
  8
0
 10
84.6457
 20
6.32959
 30
0.0
 11
85.2663
 21
6.30927
 31
0.0
  0
LINE
  5
193
  8
0
 10
85.2663
 20
6.30927
 30
0.0
 11
85.8844
 21
6.24838
 31
0.0
  0
LINE
  5
194
  8
0
 10
85.8844
 20
6.24838
 30
0.0
 11
86.4892
 21
6.10738
 31
0.0
  0
LINE
  5
195
  8
0
 10
86.4892
 20
6.10738
 30
0.0
 11
87.0836
 21
5.92706
 31
0.0
  0
LINE
  5
196
  8
0
 10
87.0836
 20
5.92706
 30
0.0
 11
87.6493
 21
5.67075
 31
0.0
  0
LINE
  5
197
  8
0
 10
87.6493
 20
5.67075
 30
0.0
 11
88.1971
 21
5.37798
 31
0.0
  0
LINE
  5
198
  8
0
 10
88.1971
 20
5.37798
 30
0.0
 11
88.7019
 21
5.01622
 31
0.0
  0
LINE
  5
199
  8
0
 10
88.7019
 20
5.01622
 30
0.0
 11
89.182
 21
4.62221
 31
0.0
  0
LINE
  5
19A
  8
0
 10
89.182
 20
4.62221
 30
0.0
 11
89.6066
 21
4.16891
 31
0.0
  0
LINE
  5
19B
  8
0
 10
89.6066
 20
4.16891
 30
0.0
 11
90.0005
 21
3.68881
 31
0.0
  0
LINE
  5
19C
  8
0
 10
90.0005
 20
3.68881
 30
0.0
 11
90.3285
 21
3.16139
 31
0.0
  0
LINE
  5
19D
  8
0
 10
90.3285
 20
3.16139
 30
0.0
 11
90.6213
 21
2.61366
 31
0.0
  0
LINE
  5
19E
  8
0
 10
90.6213
 20
2.61366
 30
0.0
 11
90.8401
 21
2.03239
 31
0.0
  0
LINE
  5
19F
  8
0
 10
90.8401
 20
2.03239
 30
0.0
 11
91.0204
 21
1.43806
 31
0.0
  0
LINE
  5
1A0
  8
0
 10
91.0204
 20
1.43806
 30
0.0
 11
91.1215
 21
0.825287
 31
0.0
  0
LINE
  5
1A1
  8
0
 10
91.1215
 20
0.825287
 30
0.0
 11
91.1824
 21
0.207199
 31
0.0
  0
LINE
  5
1A2
  8
0
 10
91.1824
 20
0.207199
 30
0.0
 11
91.1621
 21
-0.413528
 31
0.0
  0
LINE
  5
1A3
  8
0
 10
91.1621
 20
-0.413528
 30
0.0
 11
91.1012
 21
-1.03166
 31
0.0
  0
LINE
  5
1A4
  8
0
 10
91.1012
 20
-1.03166
 30
0.0
 11
90.9602
 21
-1.63646
 31
0.0
  0
LINE
  5
1A5
  8
0
 10
90.9602
 20
-1.63646
 30
0.0
 11
90.7799
 21
-2.23079
 31
0.0
  0
LINE
  5
1A6
  8
0
 10
90.7799
 20
-2.23079
 30
0.0
 11
90.5236
 21
-2.79649
 31
0.0
  0
LINE
  5
1A7
  8
0
 10
90.5236
 20
-2.79649
 30
0.0
 11
90.2308
 21
-3.34424
 31
0.0
  0
LINE
  5
1A8
  8
0
 10
90.2308
 20
-3.34424
 30
0.0
 11
89.869
 21
-3.84908
 31
0.0
  0
LINE
  5
1A9
  8
0
 10
89.869
 20
-3.84908
 30
0.0
 11
89.475
 21
-4.32918
 31
0.0
  0
LINE
  5
1AA
  8
0
 10
89.475
 20
-4.32918
 30
0.0
 11
89.0217
 21
-4.75372
 31
0.0
  0
LINE
  5
1AB
  8
0
 10
89.0217
 20
-4.75372
 30
0.0
 11
88.5416
 21
-5.14774
 31
0.0
  0
LINE
  5
1AC
  8
0
 10
88.5416
 20
-5.14774
 30
0.0
 11
88.0143
 21
-5.47568
 31
0.0
  0
LINE
  5
1AD
  8
0
 10
88.0143
 20
-5.47568
 30
0.0
 11
87.4665
 21
-5.76848
 31
0.0
  0
LINE
  5
1AE
  8
0
 10
87.4665
 20
-5.76848
 30
0.0
 11
86.8852
 21
-5.98724
 31
0.0
  0
LINE
  5
1AF
  8
0
 10
86.8852
 20
-5.98724
 30
0.0
 11
86.2908
 21
-6.16754
 31
0.0
  0
LINE
  5
1B0
  8
0
 10
86.2908
 20
-6.16754
 30
0.0
 11
85.6781
 21
-6.26871
 31
0.0
  0
LINE
  5
1B1
  8
0
 10
85.6781
 20
-6.26871
 30
0.0
 11
85.06
 21
-6.32959
 31
0.0
  0
LINE
  5
1B2
  8
0
 10
85.06
 20
-6.32959
 30
0.0
 11
84.4393
 21
-6.30927
 31
0.0
  0
TEXT
  5
1E8
  8
0
 62
5
 10
0.0
 20
0.0
 30
0.0
 40
3.0
  1
8
  7
OpenSans-Regular
  0
TEXT
  5
20B
  8
0
 62
5
 10
0.0
 20
0.0
 30
0.0
 40
3.0
  1
escapement_fork
  7
OpenSans-Regular
  0
ENDSEC
  0
EOF
