  0
SECTION
  2
BLOCKS
  0
ENDSEC
  0
SECTION
  2
ENTITIES
  0
LINE
  8
0
 10
12.8383
 20
-58.5034
 11
15.2011
 21
-57.7867
  0
LINE
  8
0
 10
15.2011
 20
-57.7867
 11
15.3074
 21
-58.114
  0
LINE
  8
0
 10
15.3074
 20
-58.114
 11
19.7451
 21
-56.6721
  0
LINE
  8
0
 10
19.7451
 20
-56.6721
 11
23.8714
 21
-76.0845
  0
LINE
  8
0
 10
23.8714
 20
-76.0845
 11
24.7214
 21
-76.0845
  0
LINE
  8
0
 10
24.7214
 20
-76.0845
 11
24.7214
 21
-54.4918
  0
LINE
  8
0
 10
24.7214
 20
-54.4918
 11
31.0086
 21
-51.1312
  0
LINE
  8
0
 10
31.0086
 20
-51.1312
 11
39.1686
 21
-69.4588
  0
LINE
  8
0
 10
39.1686
 20
-69.4588
 11
40
 21
-69.282
  0
LINE
  8
0
 10
40
 20
-69.282
 11
35.4999
 21
-48.1108
  0
LINE
  8
0
 10
35.4999
 20
-48.1108
 11
40.9898
 21
-43.6054
  0
LINE
  8
0
 10
40.9898
 20
-43.6054
 11
52.7539
 21
-59.7973
  0
LINE
  8
0
 10
52.7539
 20
-59.7973
 11
53.5304
 21
-59.4516
  0
LINE
  8
0
 10
53.5304
 20
-59.4516
 11
44.711
 21
-39.6427
  0
LINE
  8
0
 10
44.711
 20
-39.6427
 11
49.2031
 21
-34.1689
  0
LINE
  8
0
 10
49.2031
 20
-34.1689
 11
64.0337
 21
-47.5224
  0
LINE
  8
0
 10
64.0337
 20
-47.5224
 11
64.7214
 21
-47.0228
  0
LINE
  8
0
 10
64.7214
 20
-47.0228
 11
51.9599
 21
-29.4582
  0
LINE
  8
0
 10
51.9599
 20
-29.4582
 11
55.2909
 21
-23.2263
  0
LINE
  8
0
 10
55.2909
 20
-23.2263
 11
72.5149
 21
-33.1706
  0
LINE
  8
0
 10
72.5149
 20
-33.1706
 11
73.0836
 21
-32.5389
  0
LINE
  8
0
 10
73.0836
 20
-32.5389
 11
56.9374
 21
-18.0008
  0
LINE
  8
0
 10
56.9374
 20
-18.0008
 11
58.8471
 21
-11.7054
  0
LINE
  8
0
 10
58.8471
 20
-11.7054
 11
58.8951
 21
-11.2178
  0
LINE
  8
0
 10
58.8951
 20
-11.2178
 11
77.8268
 21
-17.369
  0
LINE
  8
0
 10
77.8268
 20
-17.369
 11
78.2518
 21
-16.6329
  0
LINE
  8
0
 10
78.2518
 20
-16.6329
 11
59.432
 21
-5.76729
  0
LINE
  8
0
 10
59.432
 20
-5.76729
 11
59.6651
 21
-3.39999
  0
LINE
  8
0
 10
59.6651
 20
-3.39999
 11
60
 21
-3.39999
  0
LINE
  8
0
 10
60
 20
-3.39999
 11
60
 21
1.26607
  0
LINE
  8
0
 10
60
 20
1.26607
 11
79.7373
 21
-0.808395
  0
LINE
  8
0
 10
79.7373
 20
-0.808395
 11
80
 21
0
  0
LINE
  8
0
 10
80
 20
0
 11
59.3388
 21
6.71323
  0
LINE
  8
0
 10
59.3388
 20
6.71323
 11
58.8471
 21
11.7054
  0
LINE
  8
0
 10
58.8471
 20
11.7054
 11
58.2439
 21
13.694
  0
LINE
  8
0
 10
58.2439
 20
13.694
 11
78.1629
 21
15.7876
  0
LINE
  8
0
 10
78.1629
 20
15.7876
 11
78.2518
 21
16.6329
  0
LINE
  8
0
 10
78.2518
 20
16.6329
 11
56.6641
 21
18.9019
  0
LINE
  8
0
 10
56.6641
 20
18.9019
 11
55.4328
 21
22.961
  0
LINE
  8
0
 10
55.4328
 20
22.961
 11
54.0808
 21
25.4903
  0
LINE
  8
0
 10
54.0808
 20
25.4903
 11
73.1725
 21
31.6936
  0
LINE
  8
0
 10
73.1725
 20
31.6936
 11
73.0836
 21
32.5389
  0
LINE
  8
0
 10
73.0836
 20
32.5389
 11
51.5244
 21
30.273
  0
LINE
  8
0
 10
51.5244
 20
30.273
 11
49.8882
 21
33.3342
  0
LINE
  8
0
 10
49.8882
 20
33.3342
 11
47.5692
 21
36.1599
  0
LINE
  8
0
 10
47.5692
 20
36.1599
 11
64.984
 21
46.2144
  0
LINE
  8
0
 10
64.984
 20
46.2144
 11
64.7214
 21
47.0228
  0
LINE
  8
0
 10
64.7214
 20
47.0228
 11
44.1418
 21
40.3361
  0
LINE
  8
0
 10
44.1418
 20
40.3361
 11
42.4264
 21
42.4264
  0
LINE
  8
0
 10
42.4264
 20
42.4264
 11
38.9935
 21
45.2437
  0
LINE
  8
0
 10
38.9935
 20
45.2437
 11
53.9554
 21
58.7155
  0
LINE
  8
0
 10
53.9554
 20
58.7155
 11
53.5304
 21
59.4516
  0
LINE
  8
0
 10
53.5304
 20
59.4516
 11
34.8341
 21
48.6572
  0
LINE
  8
0
 10
34.8341
 20
48.6572
 11
33.3342
 21
49.8882
  0
LINE
  8
0
 10
33.3342
 20
49.8882
 11
28.7266
 21
52.351
  0
LINE
  8
0
 10
28.7266
 20
52.351
 11
40.5688
 21
68.6504
  0
LINE
  8
0
 10
40.5688
 20
68.6504
 11
40
 21
69.282
  0
LINE
  8
0
 10
40
 20
69.282
 11
24.0013
 21
54.8767
  0
LINE
  8
0
 10
24.0013
 20
54.8767
 11
22.961
 21
55.4328
  0
LINE
  8
0
 10
22.961
 20
55.4328
 11
21.7095
 21
55.8124
  0
LINE
  8
0
 10
21.7095
 20
55.8124
 11
21.7746
 21
56.0127
  0
LINE
  8
0
 10
21.7746
 20
56.0127
 11
17.3369
 21
57.4546
  0
LINE
  8
0
 10
17.3369
 20
57.4546
 11
25.409
 21
75.5849
  0
LINE
  8
0
 10
25.409
 20
75.5849
 11
24.7214
 21
76.0845
  0
LINE
  8
0
 10
24.7214
 20
76.0845
 11
12.1087
 21
58.7248
  0
LINE
  8
0
 10
12.1087
 20
58.7248
 11
11.7054
 21
58.8471
  0
LINE
  8
0
 10
11.7054
 20
58.8471
 11
4.95065
 21
59.5124
  0
LINE
  8
0
 10
4.95065
 20
59.5124
 11
9.13878
 21
79.216
  0
LINE
  8
0
 10
9.13878
 20
79.216
 11
8.36227
 21
79.5618
  0
LINE
  8
0
 10
8.36227
 20
79.5618
 11
-0.363098
 21
59.9642
  0
LINE
  8
0
 10
-0.363098
 20
59.9642
 11
-7.53084
 21
59.2583
  0
LINE
  8
0
 10
-7.53084
 20
59.2583
 11
-7.53084
 21
79.385
  0
LINE
  8
0
 10
-7.53084
 20
79.385
 11
-8.36227
 21
79.5618
  0
LINE
  8
0
 10
-8.36227
 20
79.5618
 11
-12.8383
 21
58.5034
  0
LINE
  8
0
 10
-12.8383
 20
58.5034
 11
-19.6924
 21
56.4243
  0
LINE
  8
0
 10
-19.6924
 20
56.4243
 11
-23.8714
 21
76.0845
  0
LINE
  8
0
 10
-23.8714
 20
76.0845
 11
-24.7214
 21
76.0845
  0
LINE
  8
0
 10
-24.7214
 20
76.0845
 11
-24.7214
 21
54.4918
  0
LINE
  8
0
 10
-24.7214
 20
54.4918
 11
-31.0086
 21
51.1312
  0
LINE
  8
0
 10
-31.0086
 20
51.1312
 11
-39.1686
 21
69.4588
  0
LINE
  8
0
 10
-39.1686
 20
69.4588
 11
-40
 21
69.282
  0
LINE
  8
0
 10
-40
 20
69.282
 11
-35.4999
 21
48.1108
  0
LINE
  8
0
 10
-35.4999
 20
48.1108
 11
-40.9898
 21
43.6054
  0
LINE
  8
0
 10
-40.9898
 20
43.6054
 11
-52.7539
 21
59.7973
  0
LINE
  8
0
 10
-52.7539
 20
59.7973
 11
-53.5304
 21
59.4516
  0
LINE
  8
0
 10
-53.5304
 20
59.4516
 11
-44.711
 21
39.6427
  0
LINE
  8
0
 10
-44.711
 20
39.6427
 11
-46.2305
 21
37.7911
  0
LINE
  8
0
 10
-46.2305
 20
37.7911
 11
-46.5425
 21
38.0178
  0
LINE
  8
0
 10
-46.5425
 20
38.0178
 11
-49.2852
 21
34.2428
  0
LINE
  8
0
 10
-49.2852
 20
34.2428
 11
-64.0337
 21
47.5224
  0
LINE
  8
0
 10
-64.0337
 20
47.5224
 11
-64.7214
 21
47.0228
  0
LINE
  8
0
 10
-64.7214
 20
47.0228
 11
-51.9599
 21
29.4582
  0
LINE
  8
0
 10
-51.9599
 20
29.4582
 11
-55.2909
 21
23.2263
  0
LINE
  8
0
 10
-55.2909
 20
23.2263
 11
-72.5149
 21
33.1706
  0
LINE
  8
0
 10
-72.5149
 20
33.1706
 11
-73.0836
 21
32.5389
  0
LINE
  8
0
 10
-73.0836
 20
32.5389
 11
-56.9374
 21
18.0008
  0
LINE
  8
0
 10
-56.9374
 20
18.0008
 11
-58.8471
 21
11.7054
  0
LINE
  8
0
 10
-58.8471
 20
11.7054
 11
-58.8951
 21
11.2178
  0
LINE
  8
0
 10
-58.8951
 20
11.2178
 11
-77.8268
 21
17.369
  0
LINE
  8
0
 10
-77.8268
 20
17.369
 11
-78.2518
 21
16.6329
  0
LINE
  8
0
 10
-78.2518
 20
16.6329
 11
-59.432
 21
5.76729
  0
LINE
  8
0
 10
-59.432
 20
5.76729
 11
-60
 21
0
  0
LINE
  8
0
 10
-60
 20
0
 11
-59.874
 21
-1.27931
  0
LINE
  8
0
 10
-59.874
 20
-1.27931
 11
-79.7373
 21
0.808395
  0
LINE
  8
0
 10
-79.7373
 20
0.808395
 11
-80
 21
0
  0
LINE
  8
0
 10
-80
 20
0
 11
-59.3388
 21
-6.71323
  0
LINE
  8
0
 10
-59.3388
 20
-6.71323
 11
-58.8471
 21
-11.7054
  0
LINE
  8
0
 10
-58.8471
 20
-11.7054
 11
-58.2439
 21
-13.694
  0
LINE
  8
0
 10
-58.2439
 20
-13.694
 11
-78.1629
 21
-15.7876
  0
LINE
  8
0
 10
-78.1629
 20
-15.7876
 11
-78.2518
 21
-16.6329
  0
LINE
  8
0
 10
-78.2518
 20
-16.6329
 11
-56.6641
 21
-18.9019
  0
LINE
  8
0
 10
-56.6641
 20
-18.9019
 11
-55.4328
 21
-22.961
  0
LINE
  8
0
 10
-55.4328
 20
-22.961
 11
-54.0808
 21
-25.4903
  0
LINE
  8
0
 10
-54.0808
 20
-25.4903
 11
-73.1725
 21
-31.6936
  0
LINE
  8
0
 10
-73.1725
 20
-31.6936
 11
-73.0836
 21
-32.5389
  0
LINE
  8
0
 10
-73.0836
 20
-32.5389
 11
-51.5244
 21
-30.273
  0
LINE
  8
0
 10
-51.5244
 20
-30.273
 11
-50.3852
 21
-32.4043
  0
LINE
  8
0
 10
-50.3852
 20
-32.4043
 11
-50.5395
 21
-32.5164
  0
LINE
  8
0
 10
-50.5395
 20
-32.5164
 11
-47.7968
 21
-36.2914
  0
LINE
  8
0
 10
-47.7968
 20
-36.2914
 11
-64.984
 21
-46.2144
  0
LINE
  8
0
 10
-64.984
 20
-46.2144
 11
-64.7214
 21
-47.0228
  0
LINE
  8
0
 10
-64.7214
 20
-47.0228
 11
-44.1419
 21
-40.3361
  0
LINE
  8
0
 10
-44.1419
 20
-40.3361
 11
-42.4264
 21
-42.4264
  0
LINE
  8
0
 10
-42.4264
 20
-42.4264
 11
-38.9935
 21
-45.2437
  0
LINE
  8
0
 10
-38.9935
 20
-45.2437
 11
-53.9554
 21
-58.7155
  0
LINE
  8
0
 10
-53.9554
 20
-58.7155
 11
-53.5304
 21
-59.4516
  0
LINE
  8
0
 10
-53.5304
 20
-59.4516
 11
-34.8341
 21
-48.6572
  0
LINE
  8
0
 10
-34.8341
 20
-48.6572
 11
-33.3342
 21
-49.8882
  0
LINE
  8
0
 10
-33.3342
 20
-49.8882
 11
-28.7266
 21
-52.351
  0
LINE
  8
0
 10
-28.7266
 20
-52.351
 11
-40.5688
 21
-68.6504
  0
LINE
  8
0
 10
-40.5688
 20
-68.6504
 11
-40
 21
-69.282
  0
LINE
  8
0
 10
-40
 20
-69.282
 11
-24.0013
 21
-54.8767
  0
LINE
  8
0
 10
-24.0013
 20
-54.8767
 11
-22.961
 21
-55.4328
  0
LINE
  8
0
 10
-22.961
 20
-55.4328
 11
-17.213
 21
-57.1764
  0
LINE
  8
0
 10
-17.213
 20
-57.1764
 11
-25.409
 21
-75.5849
  0
LINE
  8
0
 10
-25.409
 20
-75.5849
 11
-24.7214
 21
-76.0845
  0
LINE
  8
0
 10
-24.7214
 20
-76.0845
 11
-12.1087
 21
-58.7248
  0
LINE
  8
0
 10
-12.1087
 20
-58.7248
 11
-11.7054
 21
-58.8471
  0
LINE
  8
0
 10
-11.7054
 20
-58.8471
 11
-4.95065
 21
-59.5124
  0
LINE
  8
0
 10
-4.95065
 20
-59.5124
 11
-9.13878
 21
-79.216
  0
LINE
  8
0
 10
-9.13878
 20
-79.216
 11
-8.36227
 21
-79.5618
  0
LINE
  8
0
 10
-8.36227
 20
-79.5618
 11
0.363098
 21
-59.9642
  0
LINE
  8
0
 10
0.363098
 20
-59.9642
 11
7.53084
 21
-59.2583
  0
LINE
  8
0
 10
7.53084
 20
-59.2583
 11
7.53084
 21
-79.385
  0
LINE
  8
0
 10
7.53084
 20
-79.385
 11
8.36227
 21
-79.5618
  0
LINE
  8
0
 10
8.36227
 20
-79.5618
 11
12.8383
 21
-58.5034
  0
LINE
  8
0
 10
-40.1413
 20
33.367
 11
-37.0877
 21
37.0877
  0
LINE
  8
0
 10
-37.0877
 20
37.0877
 11
-29.1396
 21
43.6106
  0
LINE
  8
0
 10
-29.1396
 20
43.6106
 11
-20.0717
 21
48.4575
  0
LINE
  8
0
 10
-20.0717
 20
48.4575
 11
-10.2325
 21
51.4422
  0
LINE
  8
0
 10
-10.2325
 20
51.4422
 11
0
 21
52.45
  0
LINE
  8
0
 10
0
 20
52.45
 11
10.2325
 21
51.4422
  0
LINE
  8
0
 10
10.2325
 20
51.4422
 11
12.8788
 21
50.6394
  0
LINE
  8
0
 10
12.8788
 20
50.6394
 11
-0.641678
 21
9.02769
  0
LINE
  8
0
 10
-0.641678
 20
9.02769
 11
-1.77354
 21
8.91623
  0
LINE
  8
0
 10
-1.77354
 20
8.91623
 11
-3.47893
 21
8.3989
  0
LINE
  8
0
 10
-3.47893
 20
8.3989
 11
-4.80217
 21
7.6916
  0
LINE
  8
0
 10
-4.80217
 20
7.6916
 11
-40.1413
 21
33.367
  0
LINE
  8
0
 10
8.42284
 20
3.39999
 11
8.3989
 21
3.47893
  0
LINE
  8
0
 10
8.3989
 20
3.47893
 11
7.55881
 21
5.05063
  0
LINE
  8
0
 10
7.55881
 20
5.05063
 11
6.42824
 21
6.42824
  0
LINE
  8
0
 10
6.42824
 20
6.42824
 11
5.82458
 21
6.92363
  0
LINE
  8
0
 10
5.82458
 20
6.92363
 11
19.3872
 21
48.6651
  0
LINE
  8
0
 10
19.3872
 20
48.6651
 11
20.0717
 21
48.4575
  0
LINE
  8
0
 10
20.0717
 20
48.4575
 11
29.1396
 21
43.6106
  0
LINE
  8
0
 10
29.1396
 20
43.6106
 11
37.0877
 21
37.0877
  0
LINE
  8
0
 10
37.0877
 20
37.0877
 11
43.6106
 21
29.1396
  0
LINE
  8
0
 10
43.6106
 20
29.1396
 11
48.4575
 21
20.0717
  0
LINE
  8
0
 10
48.4575
 20
20.0717
 11
51.4422
 21
10.2325
  0
LINE
  8
0
 10
51.4422
 20
10.2325
 11
52.1151
 21
3.39999
  0
LINE
  8
0
 10
52.1151
 20
3.39999
 11
8.42284
 21
3.39999
  0
LINE
  8
0
 10
-48.4575
 20
-20.0717
 11
-51.4422
 21
-10.2325
  0
LINE
  8
0
 10
-51.4422
 20
-10.2325
 11
-52.45
 21
0
  0
LINE
  8
0
 10
-52.45
 20
0
 11
-51.4422
 21
10.2325
  0
LINE
  8
0
 10
-51.4422
 20
10.2325
 11
-48.4575
 21
20.0717
  0
LINE
  8
0
 10
-48.4575
 20
20.0717
 11
-44.2487
 21
27.9459
  0
LINE
  8
0
 10
-44.2487
 20
27.9459
 11
-8.79149
 21
2.18475
  0
LINE
  8
0
 10
-8.79149
 20
2.18475
 11
-8.91623
 21
1.77354
  0
LINE
  8
0
 10
-8.91623
 20
1.77354
 11
-9.0909
 21
0
  0
LINE
  8
0
 10
-9.0909
 20
0
 11
-8.91623
 21
-1.77354
  0
LINE
  8
0
 10
-8.91623
 20
-1.77354
 11
-8.79149
 21
-2.18475
  0
LINE
  8
0
 10
-8.79149
 20
-2.18475
 11
-44.2487
 21
-27.9459
  0
LINE
  8
0
 10
-44.2487
 20
-27.9459
 11
-48.4575
 21
-20.0717
  0
LINE
  8
0
 10
-0.975449
 20
-4.90392
 11
-1.91341
 21
-4.61938
  0
LINE
  8
0
 10
-1.91341
 20
-4.61938
 11
-2.77785
 21
-4.15733
  0
LINE
  8
0
 10
-2.77785
 20
-4.15733
 11
-3.53552
 21
-3.53552
  0
LINE
  8
0
 10
-3.53552
 20
-3.53552
 11
-4.15733
 21
-2.77785
  0
LINE
  8
0
 10
-4.15733
 20
-2.77785
 11
-4.61938
 21
-1.91341
  0
LINE
  8
0
 10
-4.61938
 20
-1.91341
 11
-4.90392
 21
-0.975449
  0
LINE
  8
0
 10
-4.90392
 20
-0.975449
 11
-5
 21
0
  0
LINE
  8
0
 10
-5
 20
0
 11
-4.90392
 21
0.975449
  0
LINE
  8
0
 10
-4.90392
 20
0.975449
 11
-4.61938
 21
1.91341
  0
LINE
  8
0
 10
-4.61938
 20
1.91341
 11
-4.15733
 21
2.77785
  0
LINE
  8
0
 10
-4.15733
 20
2.77785
 11
-3.53552
 21
3.53552
  0
LINE
  8
0
 10
-3.53552
 20
3.53552
 11
-2.77785
 21
4.15733
  0
LINE
  8
0
 10
-2.77785
 20
4.15733
 11
-1.91341
 21
4.61938
  0
LINE
  8
0
 10
-1.91341
 20
4.61938
 11
-0.975449
 21
4.90392
  0
LINE
  8
0
 10
-0.975449
 20
4.90392
 11
0
 21
5
  0
LINE
  8
0
 10
0
 20
5
 11
0.975449
 21
4.90392
  0
LINE
  8
0
 10
0.975449
 20
4.90392
 11
1.91341
 21
4.61938
  0
LINE
  8
0
 10
1.91341
 20
4.61938
 11
2.77785
 21
4.15733
  0
LINE
  8
0
 10
2.77785
 20
4.15733
 11
3.53552
 21
3.53552
  0
LINE
  8
0
 10
3.53552
 20
3.53552
 11
4.15733
 21
2.77785
  0
LINE
  8
0
 10
4.15733
 20
2.77785
 11
4.61938
 21
1.91341
  0
LINE
  8
0
 10
4.61938
 20
1.91341
 11
4.90392
 21
0.975449
  0
LINE
  8
0
 10
4.90392
 20
0.975449
 11
4.99998
 21
0
  0
LINE
  8
0
 10
4.99998
 20
0
 11
4.90392
 21
-0.975449
  0
LINE
  8
0
 10
4.90392
 20
-0.975449
 11
4.61938
 21
-1.91341
  0
LINE
  8
0
 10
4.61938
 20
-1.91341
 11
4.15733
 21
-2.77785
  0
LINE
  8
0
 10
4.15733
 20
-2.77785
 11
3.53552
 21
-3.53552
  0
LINE
  8
0
 10
3.53552
 20
-3.53552
 11
2.77785
 21
-4.15733
  0
LINE
  8
0
 10
2.77785
 20
-4.15733
 11
1.91341
 21
-4.61938
  0
LINE
  8
0
 10
1.91341
 20
-4.61938
 11
0.975449
 21
-4.90392
  0
LINE
  8
0
 10
0.975449
 20
-4.90392
 11
0
 21
-5
  0
LINE
  8
0
 10
0
 20
-5
 11
-0.975449
 21
-4.90392
  0
LINE
  8
0
 10
5.82458
 20
-6.92363
 11
6.42824
 21
-6.42824
  0
LINE
  8
0
 10
6.42824
 20
-6.42824
 11
7.55881
 21
-5.05063
  0
LINE
  8
0
 10
7.55881
 20
-5.05063
 11
8.3989
 21
-3.47893
  0
LINE
  8
0
 10
8.3989
 20
-3.47893
 11
8.42284
 21
-3.39999
  0
LINE
  8
0
 10
8.42284
 20
-3.39999
 11
52.1151
 21
-3.39999
  0
LINE
  8
0
 10
52.1151
 20
-3.39999
 11
51.4422
 21
-10.2325
  0
LINE
  8
0
 10
51.4422
 20
-10.2325
 11
48.4575
 21
-20.0717
  0
LINE
  8
0
 10
48.4575
 20
-20.0717
 11
43.6106
 21
-29.1396
  0
LINE
  8
0
 10
43.6106
 20
-29.1396
 11
37.0877
 21
-37.0877
  0
LINE
  8
0
 10
37.0877
 20
-37.0877
 11
29.1396
 21
-43.6106
  0
LINE
  8
0
 10
29.1396
 20
-43.6106
 11
20.0717
 21
-48.4575
  0
LINE
  8
0
 10
20.0717
 20
-48.4575
 11
19.3872
 21
-48.6651
  0
LINE
  8
0
 10
19.3872
 20
-48.6651
 11
5.82458
 21
-6.92363
  0
LINE
  8
0
 10
-10.2325
 20
-51.4422
 11
-20.0717
 21
-48.4575
  0
LINE
  8
0
 10
-20.0717
 20
-48.4575
 11
-29.1396
 21
-43.6106
  0
LINE
  8
0
 10
-29.1396
 20
-43.6106
 11
-37.0877
 21
-37.0877
  0
LINE
  8
0
 10
-37.0877
 20
-37.0877
 11
-40.1413
 21
-33.367
  0
LINE
  8
0
 10
-40.1413
 20
-33.367
 11
-4.80217
 21
-7.6916
  0
LINE
  8
0
 10
-4.80217
 20
-7.6916
 11
-3.47893
 21
-8.3989
  0
LINE
  8
0
 10
-3.47893
 20
-8.3989
 11
-1.77354
 21
-8.91623
  0
LINE
  8
0
 10
-1.77354
 20
-8.91623
 11
-0.641678
 21
-9.02769
  0
LINE
  8
0
 10
-0.641678
 20
-9.02769
 11
12.8788
 21
-50.6394
  0
LINE
  8
0
 10
12.8788
 20
-50.6394
 11
10.2325
 21
-51.4422
  0
LINE
  8
0
 10
10.2325
 20
-51.4422
 11
0
 21
-52.45
  0
LINE
  8
0
 10
0
 20
-52.45
 11
-10.2325
 21
-51.4422
  0
ENDSEC
  0
SECTION
  2
OBJECTS
  0
DICTIONARY
  0
ENDSEC
  0
EOF
