  0
SECTION
  2
BLOCKS
  0
ENDSEC
  0
SECTION
  2
ENTITIES
  0
LINE
  8
0
 10
111.662
 20
-8.94563
 11
113.137
 21
-9.0909
  0
LINE
  8
0
 10
113.137
 20
-9.0909
 11
114.911
 21
-8.91623
  0
LINE
  8
0
 10
114.911
 20
-8.91623
 11
116.616
 21
-8.3989
  0
LINE
  8
0
 10
116.616
 20
-8.3989
 11
118.188
 21
-7.55881
  0
LINE
  8
0
 10
118.188
 20
-7.55881
 11
119.565
 21
-6.42824
  0
LINE
  8
0
 10
119.565
 20
-6.42824
 11
120.696
 21
-5.05063
  0
LINE
  8
0
 10
120.696
 20
-5.05063
 11
121.536
 21
-3.47893
  0
LINE
  8
0
 10
121.536
 20
-3.47893
 11
122.053
 21
-1.77354
  0
LINE
  8
0
 10
122.053
 20
-1.77354
 11
122.228
 21
0
  0
LINE
  8
0
 10
122.228
 20
0
 11
122.053
 21
1.77354
  0
LINE
  8
0
 10
122.053
 20
1.77354
 11
121.536
 21
3.47893
  0
LINE
  8
0
 10
121.536
 20
3.47893
 11
120.696
 21
5.05063
  0
LINE
  8
0
 10
120.696
 20
5.05063
 11
119.565
 21
6.42824
  0
LINE
  8
0
 10
119.565
 20
6.42824
 11
118.188
 21
7.55881
  0
LINE
  8
0
 10
118.188
 20
7.55881
 11
116.616
 21
8.3989
  0
LINE
  8
0
 10
116.616
 20
8.3989
 11
114.911
 21
8.91623
  0
LINE
  8
0
 10
114.911
 20
8.91623
 11
113.137
 21
9.0909
  0
LINE
  8
0
 10
113.137
 20
9.0909
 11
111.364
 21
8.91623
  0
LINE
  8
0
 10
111.364
 20
8.91623
 11
111.191
 21
8.86375
  0
LINE
  8
0
 10
111.191
 20
8.86375
 11
68.1079
 21
70.3922
  0
LINE
  8
0
 10
68.1079
 20
70.3922
 11
62.3909
 21
66.3891
  0
LINE
  8
0
 10
62.3909
 20
66.3891
 11
62.6354
 21
66.04
  0
LINE
  8
0
 10
62.6354
 20
66.04
 11
54.101
 21
59.036
  0
LINE
  8
0
 10
54.101
 20
59.036
 11
53.0912
 21
57.8055
  0
LINE
  8
0
 10
53.0912
 20
57.8055
 11
56.3695
 21
50.852
  0
LINE
  8
0
 10
56.3695
 20
50.852
 11
59.036
 21
54.1011
  0
LINE
  8
0
 10
59.036
 20
54.1011
 11
66.6308
 21
60.334
  0
LINE
  8
0
 10
66.6308
 20
60.334
 11
105.475
 21
4.85817
  0
LINE
  8
0
 10
105.475
 20
4.85817
 11
104.738
 21
3.47893
  0
LINE
  8
0
 10
104.738
 20
3.47893
 11
104.221
 21
1.77354
  0
LINE
  8
0
 10
104.221
 20
1.77354
 11
104.046
 21
0
  0
LINE
  8
0
 10
104.046
 20
0
 11
104.221
 21
-1.77354
  0
LINE
  8
0
 10
104.221
 20
-1.77354
 11
104.738
 21
-3.47893
  0
LINE
  8
0
 10
104.738
 20
-3.47893
 11
105.578
 21
-5.05063
  0
LINE
  8
0
 10
105.578
 20
-5.05063
 11
105.742
 21
-5.24988
  0
LINE
  8
0
 10
105.742
 20
-5.24988
 11
69.7314
 21
-62.8786
  0
LINE
  8
0
 10
69.7314
 20
-62.8786
 11
60.056
 21
-54.9382
  0
LINE
  8
0
 10
60.056
 20
-54.9382
 11
53.1573
 21
-57.8862
  0
LINE
  8
0
 10
53.1573
 20
-57.8862
 11
54.101
 21
-59.036
  0
LINE
  8
0
 10
54.101
 20
-59.036
 11
66.0201
 21
-68.8178
  0
LINE
  8
0
 10
66.0201
 20
-68.8178
 11
65.935
 21
-68.954
  0
LINE
  8
0
 10
65.935
 20
-68.954
 11
71.8537
 21
-72.6524
  0
LINE
  8
0
 10
71.8537
 20
-72.6524
 11
111.662
 21
-8.94563
  0
LINE
  8
0
 10
112.162
 20
-4.90392
 11
111.224
 21
-4.61938
  0
LINE
  8
0
 10
111.224
 20
-4.61938
 11
110.359
 21
-4.15733
  0
LINE
  8
0
 10
110.359
 20
-4.15733
 11
109.602
 21
-3.53552
  0
LINE
  8
0
 10
109.602
 20
-3.53552
 11
108.98
 21
-2.77785
  0
LINE
  8
0
 10
108.98
 20
-2.77785
 11
108.518
 21
-1.91341
  0
LINE
  8
0
 10
108.518
 20
-1.91341
 11
108.233
 21
-0.975449
  0
LINE
  8
0
 10
108.233
 20
-0.975449
 11
108.137
 21
0
  0
LINE
  8
0
 10
108.137
 20
0
 11
108.233
 21
0.975449
  0
LINE
  8
0
 10
108.233
 20
0.975449
 11
108.518
 21
1.91341
  0
LINE
  8
0
 10
108.518
 20
1.91341
 11
108.98
 21
2.77785
  0
LINE
  8
0
 10
108.98
 20
2.77785
 11
109.602
 21
3.53552
  0
LINE
  8
0
 10
109.602
 20
3.53552
 11
110.359
 21
4.15733
  0
LINE
  8
0
 10
110.359
 20
4.15733
 11
111.224
 21
4.61938
  0
LINE
  8
0
 10
111.224
 20
4.61938
 11
112.162
 21
4.90392
  0
LINE
  8
0
 10
112.162
 20
4.90392
 11
113.137
 21
5
  0
LINE
  8
0
 10
113.137
 20
5
 11
114.113
 21
4.90392
  0
LINE
  8
0
 10
114.113
 20
4.90392
 11
115.05
 21
4.61938
  0
LINE
  8
0
 10
115.05
 20
4.61938
 11
115.915
 21
4.15733
  0
LINE
  8
0
 10
115.915
 20
4.15733
 11
116.673
 21
3.53552
  0
LINE
  8
0
 10
116.673
 20
3.53552
 11
117.294
 21
2.77785
  0
LINE
  8
0
 10
117.294
 20
2.77785
 11
117.756
 21
1.91341
  0
LINE
  8
0
 10
117.756
 20
1.91341
 11
118.041
 21
0.975449
  0
LINE
  8
0
 10
118.041
 20
0.975449
 11
118.137
 21
0
  0
LINE
  8
0
 10
118.137
 20
0
 11
118.041
 21
-0.975449
  0
LINE
  8
0
 10
118.041
 20
-0.975449
 11
117.756
 21
-1.91341
  0
LINE
  8
0
 10
117.756
 20
-1.91341
 11
117.294
 21
-2.77785
  0
LINE
  8
0
 10
117.294
 20
-2.77785
 11
116.673
 21
-3.53552
  0
LINE
  8
0
 10
116.673
 20
-3.53552
 11
115.915
 21
-4.15733
  0
LINE
  8
0
 10
115.915
 20
-4.15733
 11
115.05
 21
-4.61938
  0
LINE
  8
0
 10
115.05
 20
-4.61938
 11
114.113
 21
-4.90392
  0
LINE
  8
0
 10
114.113
 20
-4.90392
 11
113.137
 21
-5
  0
LINE
  8
0
 10
113.137
 20
-5
 11
112.162
 21
-4.90392
  0
ENDSEC
  0
SECTION
  2
OBJECTS
  0
DICTIONARY
  0
ENDSEC
  0
EOF
