  0
SECTION
  2
HEADER
  9
$ACADVER
  1
AC1009
  9
$DWGCODEPAGE
  3
ANSI_1252
  9
$INSBASE
 10
0.0
 20
0.0
 30
0.0
  9
$EXTMIN
 10
1e+20
 20
1e+20
 30
1e+20
  9
$EXTMAX
 10
-1e+20
 20
-1e+20
 30
-1e+20
  9
$LIMMIN
 10
0.0
 20
0.0
  9
$LIMMAX
 10
420.0
 20
297.0
  9
$ORTHOMODE
 70
0
  9
$REGENMODE
 70
1
  9
$FILLMODE
 70
1
  9
$DRAGMODE
 70
2
  9
$QTEXTMODE
 70
0
  9
$MIRRTEXT
 70
1
  9
$OSMODE
 70
20583
  9
$LTSCALE
 40
1.0
  9
$ATTMODE
 70
1
  9
$TEXTSIZE
 40
2.5
  9
$TRACEWID
 40
1.0
  9
$TEXTSTYLE
  7
Standard
  9
$CLAYER
  8
0
  9
$CELTYPE
  6
ByLayer
  9
$CECOLOR
 62
256
  9
$DIMSCALE
 40
1.0
  9
$DIMASZ
 40
2.5
  9
$DIMEXO
 40
0.625
  9
$DIMDLI
 40
3.75
  9
$DIMRND
 40
0.0
  9
$DIMDLE
 40
0.0
  9
$DIMEXE
 40
1.25
  9
$DIMTP
 40
0.0
  9
$DIMTM
 40
0.0
  9
$DIMTXT
 40
2.5
  9
$DIMCEN
 40
2.5
  9
$DIMTSZ
 40
0.0
  9
$DIMTOL
 70
0
  9
$DIMLIM
 70
0
  9
$DIMTIH
 70
0
  9
$DIMTOH
 70
0
  9
$DIMSE1
 70
0
  9
$DIMSE2
 70
0
  9
$DIMTAD
 70
1
  9
$DIMZIN
 70
8
  9
$DIMBLK
  1

  9
$DIMASO
 70
1
  9
$DIMSHO
 70
1
  9
$DIMPOST
  1

  9
$DIMAPOST
  1

  9
$DIMALT
 70
0
  9
$DIMALTD
 70
3
  9
$DIMALTF
 40
0.03937007874
  9
$DIMLFAC
 40
1.0
  9
$DIMTOFL
 70
1
  9
$DIMTVP
 40
0.0
  9
$DIMTIX
 70
0
  9
$DIMSOXD
 70
0
  9
$DIMSAH
 70
0
  9
$DIMBLK1
  1

  9
$DIMBLK2
  1

  9
$DIMSTYLE
  2
ISO-25
  9
$DIMCLRD
 70
0
  9
$DIMCLRE
 70
0
  9
$DIMCLRT
 70
0
  9
$DIMTFAC
 40
1.0
  9
$DIMGAP
 40
0.625
  9
$COORDS
 70
1
  9
$ATTDIA
 70
0
  9
$ATTREQ
 70
1
  9
$HANDLING
 70
1
  9
$LUNITS
 70
2
  9
$LUPREC
 70
4
  9
$SKETCHINC
 40
1.0
  9
$FILLETRAD
 40
10.0
  9
$AUNITS
 70
0
  9
$AUPREC
 70
2
  9
$MENU
  1
.
  9
$ELEVATION
 40
0.0
  9
$PELEVATION
 40
0.0
  9
$THICKNESS
 40
0.0
  9
$LIMCHECK
 70
0
  9
$CHAMFERA
 40
0.0
  9
$CHAMFERB
 40
0.0
  9
$SKPOLY
 70
0
  9
$TDCREATE
 40
2459989.8405439816
  9
$TDUPDATE
 40
2459989.8405439816
  9
$TDINDWG
 40
0.0
  9
$TDUSRTIMER
 40
0.0
  9
$USRTIMER
 70
1
  9
$ANGBASE
 50
0.0
  9
$ANGDIR
 70
0
  9
$PDMODE
 70
0
  9
$PDSIZE
 40
0.0
  9
$PLINEWID
 40
0.0
  9
$SPLFRAME
 70
0
  9
$SPLINETYPE
 70
6
  9
$SPLINESEGS
 70
8
  9
$HANDSEED
  5
230
  9
$SURFTAB1
 70
6
  9
$SURFTAB2
 70
6
  9
$SURFTYPE
 70
6
  9
$SURFU
 70
6
  9
$SURFV
 70
6
  9
$UCSNAME
  2

  9
$UCSORG
 10
0.0
 20
0.0
 30
0.0
  9
$UCSXDIR
 10
1.0
 20
0.0
 30
0.0
  9
$UCSYDIR
 10
0.0
 20
1.0
 30
0.0
  9
$PUCSNAME
  2

  9
$PUCSORG
 10
0.0
 20
0.0
 30
0.0
  9
$PUCSXDIR
 10
1.0
 20
0.0
 30
0.0
  9
$PUCSYDIR
 10
0.0
 20
1.0
 30
0.0
  9
$USERI1
 70
0
  9
$USERI2
 70
0
  9
$USERI3
 70
0
  9
$USERI4
 70
0
  9
$USERI5
 70
0
  9
$USERR1
 40
0.0
  9
$USERR2
 40
0.0
  9
$USERR3
 40
0.0
  9
$USERR4
 40
0.0
  9
$USERR5
 40
0.0
  9
$WORLDVIEW
 70
1
  9
$SHADEDGE
 70
3
  9
$SHADEDIF
 70
70
  9
$TILEMODE
 70
1
  9
$MAXACTVP
 70
64
  9
$PLIMCHECK
 70
0
  9
$PEXTMIN
 10
1e+20
 20
1e+20
 30
1e+20
  9
$PEXTMAX
 10
-1e+20
 20
-1e+20
 30
-1e+20
  9
$PLIMMIN
 10
0.0
 20
0.0
  9
$PLIMMAX
 10
420.0
 20
297.0
  9
$UNITMODE
 70
0
  9
$VISRETAIN
 70
1
  9
$PLINEGEN
 70
0
  9
$PSLTSCALE
 70
1
  0
ENDSEC
  0
SECTION
  2
TABLES
  0
TABLE
  2
VPORT
 70
1
  0
VPORT
  5
223
  2
*Active
 70
0
 10
0.0
 20
0.0
 11
1.0
 21
1.0
 12
0.0
 22
0.0
 13
0.0
 23
0.0
 14
0.5
 24
0.5
 15
0.5
 25
0.5
 16
0.0
 26
0.0
 36
1.0
 17
0.0
 27
0.0
 37
0.0
 40
1000.0
 41
1.34
 42
50.0
 43
0.0
 44
0.0
 50
0.0
 51
0.0
 71
0
 72
1000
 73
1
 74
3
 75
0
 76
0
 77
0
 78
0
  0
ENDTAB
  0
TABLE
  2
LTYPE
 70
3
  0
LTYPE
  5
224
  2
ByBlock
 70
0
  3

 72
65
 73
0
 40
0.0
  0
LTYPE
  5
225
  2
ByLayer
 70
0
  3

 72
65
 73
0
 40
0.0
  0
LTYPE
  5
226
  2
Continuous
 70
0
  3

 72
65
 73
0
 40
0.0
  0
ENDTAB
  0
TABLE
  2
LAYER
 70
2
  0
LAYER
  5
227
  2
0
 70
0
 62
7
  6
Continuous
  0
LAYER
  5
228
  2
Defpoints
 70
0
 62
7
  6
Continuous
  0
ENDTAB
  0
TABLE
  2
STYLE
 70
1
  0
STYLE
  5
229
  2
Standard
 70
0
 40
0.0
 41
1.0
 50
0.0
 71
0
 42
2.5
  3
txt
  4

  0
ENDTAB
  0
TABLE
  2
VIEW
 70
0
  0
ENDTAB
  0
TABLE
  2
UCS
 70
0
  0
ENDTAB
  0
TABLE
  2
APPID
 70
3
  0
APPID
  5
22A
  2
ACAD
 70
0
  0
APPID
  5
22E
  2
HATCHBACKGROUNDCOLOR
 70
0
  0
APPID
  5
22F
  2
EZDXF
 70
0
  0
ENDTAB
  0
TABLE
  2
DIMSTYLE
 70
1
  0
DIMSTYLE
105
22B
  2
Standard
 70
0
  3

  4

  5

  6

  7

 40
1.0
 41
2.5
 42
0.625
 43
3.75
 44
1.25
 45
0.0
 46
0.0
 47
0.0
 48
0.0
140
2.5
141
2.5
142
0.0
143
0.03937007874
144
1.0
145
0.0
146
1.0
147
0.625
 71
0
 72
0
 73
0
 74
0
 75
0
 76
0
 77
1
 78
8
170
0
171
3
172
1
173
0
174
0
175
0
176
0
177
0
178
0
  0
ENDTAB
  0
ENDSEC
  0
SECTION
  2
BLOCKS
  0
BLOCK
  5
204
  8
0
  2
$Model_Space
 70
0
 10
0.0
 20
0.0
 30
0.0
  3
$Model_Space
  1

1001
EZDXF
1000
WRITTEN_BY_EZDXF
1000
1.0.1 @ 2023-02-13T10:10:23.062732+00:00
  0
ENDBLK
  5
205
  8
0
  0
BLOCK
  5
206
  8
0
  2
$Paper_Space
 70
0
 10
0.0
 20
0.0
 30
0.0
  3
$Paper_Space
  1

  0
ENDBLK
  5
207
  8
0
  0
ENDSEC
  0
SECTION
  2
ENTITIES
  0
LINE
  5
100
  8
0
 10
9.62877
 20
-43.8776
 30
0.0
 11
11.4008
 21
-43.34
 31
0.0
  0
LINE
  5
101
  8
0
 10
11.4008
 20
-43.34
 30
0.0
 11
11.4806
 21
-43.5855
 31
0.0
  0
LINE
  5
102
  8
0
 10
11.4806
 20
-43.5855
 30
0.0
 11
14.6101
 21
-42.5687
 31
0.0
  0
LINE
  5
103
  8
0
 10
14.6101
 20
-42.5687
 30
0.0
 11
17.691
 21
-57.0634
 31
0.0
  0
LINE
  5
104
  8
0
 10
17.691
 20
-57.0634
 30
0.0
 11
18.541
 21
-57.0634
 31
0.0
  0
LINE
  5
105
  8
0
 10
18.541
 20
-57.0634
 30
0.0
 11
18.541
 21
-40.8689
 31
0.0
  0
LINE
  5
106
  8
0
 10
18.541
 20
-40.8689
 30
0.0
 11
23.0727
 21
-38.4467
 31
0.0
  0
LINE
  5
107
  8
0
 10
23.0727
 20
-38.4467
 30
0.0
 11
29.1686
 21
-52.1382
 31
0.0
  0
LINE
  5
108
  8
0
 10
29.1686
 20
-52.1382
 30
0.0
 11
30.0
 21
-51.9615
 31
0.0
  0
LINE
  5
109
  8
0
 10
30.0
 20
-51.9615
 30
0.0
 11
26.6249
 21
-36.0831
 31
0.0
  0
LINE
  5
10A
  8
0
 10
26.6249
 20
-36.0831
 30
0.0
 11
30.5814
 21
-32.8361
 31
0.0
  0
LINE
  5
10B
  8
0
 10
30.5814
 20
-32.8361
 30
0.0
 11
39.3713
 21
-44.9344
 31
0.0
  0
LINE
  5
10C
  8
0
 10
39.3713
 20
-44.9344
 30
0.0
 11
40.1478
 21
-44.5887
 31
0.0
  0
LINE
  5
10D
  8
0
 10
40.1478
 20
-44.5887
 30
0.0
 11
33.5332
 21
-29.732
 31
0.0
  0
LINE
  5
10E
  8
0
 10
33.5332
 20
-29.732
 30
0.0
 11
36.7703
 21
-25.7875
 31
0.0
  0
LINE
  5
10F
  8
0
 10
36.7703
 20
-25.7875
 30
0.0
 11
47.8533
 21
-35.7667
 31
0.0
  0
LINE
  5
110
  8
0
 10
47.8533
 20
-35.7667
 30
0.0
 11
48.541
 21
-35.2671
 31
0.0
  0
LINE
  5
111
  8
0
 10
48.541
 20
-35.2671
 30
0.0
 11
38.9699
 21
-22.0937
 31
0.0
  0
LINE
  5
112
  8
0
 10
38.9699
 20
-22.0937
 30
0.0
 11
41.3702
 21
-17.6032
 31
0.0
  0
LINE
  5
113
  8
0
 10
41.3702
 20
-17.6032
 30
0.0
 11
54.244
 21
-25.0359
 31
0.0
  0
LINE
  5
114
  8
0
 10
54.244
 20
-25.0359
 30
0.0
 11
54.8127
 21
-24.4042
 31
0.0
  0
LINE
  5
115
  8
0
 10
54.8127
 20
-24.4042
 30
0.0
 11
42.7031
 21
-13.5006
 31
0.0
  0
LINE
  5
116
  8
0
 10
42.7031
 20
-13.5006
 30
0.0
 11
44.1353
 21
-8.77905
 31
0.0
  0
LINE
  5
117
  8
0
 10
44.1353
 20
-8.77905
 30
0.0
 11
44.1505
 21
-8.62511
 31
0.0
  0
LINE
  5
118
  8
0
 10
44.1505
 20
-8.62511
 30
0.0
 11
58.2639
 21
-13.2108
 31
0.0
  0
LINE
  5
119
  8
0
 10
58.2639
 20
-13.2108
 30
0.0
 11
58.6888
 21
-12.4747
 31
0.0
  0
LINE
  5
11A
  8
0
 10
58.6888
 20
-12.4747
 30
0.0
 11
44.574
 21
-4.32547
 31
0.0
  0
LINE
  5
11B
  8
0
 10
44.574
 20
-4.32547
 30
0.0
 11
44.7488
 21
-2.54999
 31
0.0
  0
LINE
  5
11C
  8
0
 10
44.7488
 20
-2.54999
 30
0.0
 11
45.0
 21
-2.54999
 31
0.0
  0
LINE
  5
11D
  8
0
 10
45.0
 20
-2.54999
 30
0.0
 11
45.0
 21
0.740555
 31
0.0
  0
LINE
  5
11E
  8
0
 10
45.0
 20
0.740555
 30
0.0
 11
59.7373
 21
-0.808395
 31
0.0
  0
LINE
  5
11F
  8
0
 10
59.7373
 20
-0.808395
 30
0.0
 11
60.0
 21
0.0
 31
0.0
  0
LINE
  5
120
  8
0
 10
60.0
 20
0.0
 30
0.0
 11
44.5041
 21
5.03491
 31
0.0
  0
LINE
  5
121
  8
0
 10
44.5041
 20
5.03491
 30
0.0
 11
44.1353
 21
8.77905
 31
0.0
  0
LINE
  5
122
  8
0
 10
44.1353
 20
8.77905
 30
0.0
 11
43.7444
 21
10.068
 31
0.0
  0
LINE
  5
123
  8
0
 10
43.7444
 20
10.068
 30
0.0
 11
58.6
 21
11.6293
 31
0.0
  0
LINE
  5
124
  8
0
 10
58.6
 20
11.6293
 30
0.0
 11
58.6888
 21
12.4747
 31
0.0
  0
LINE
  5
125
  8
0
 10
58.6888
 20
12.4747
 30
0.0
 11
42.4981
 21
14.1764
 31
0.0
  0
LINE
  5
126
  8
0
 10
42.4981
 20
14.1764
 30
0.0
 11
41.5746
 21
17.2207
 31
0.0
  0
LINE
  5
127
  8
0
 10
41.5746
 20
17.2207
 30
0.0
 11
40.6601
 21
18.9315
 31
0.0
  0
LINE
  5
128
  8
0
 10
40.6601
 20
18.9315
 30
0.0
 11
54.9016
 21
23.5589
 31
0.0
  0
LINE
  5
129
  8
0
 10
54.9016
 20
23.5589
 30
0.0
 11
54.8127
 21
24.4042
 31
0.0
  0
LINE
  5
12A
  8
0
 10
54.8127
 20
24.4042
 30
0.0
 11
38.6433
 21
22.7047
 31
0.0
  0
LINE
  5
12B
  8
0
 10
38.6433
 20
22.7047
 30
0.0
 11
37.4161
 21
25.0007
 31
0.0
  0
LINE
  5
12C
  8
0
 10
37.4161
 20
25.0007
 30
0.0
 11
35.8105
 21
26.9571
 31
0.0
  0
LINE
  5
12D
  8
0
 10
35.8105
 20
26.9571
 30
0.0
 11
48.8037
 21
34.4587
 31
0.0
  0
LINE
  5
12E
  8
0
 10
48.8037
 20
34.4587
 30
0.0
 11
48.541
 21
35.2671
 31
0.0
  0
LINE
  5
12F
  8
0
 10
48.541
 20
35.2671
 30
0.0
 11
33.1064
 21
30.2521
 31
0.0
  0
LINE
  5
130
  8
0
 10
33.1064
 20
30.2521
 30
0.0
 11
31.8198
 21
31.8198
 31
0.0
  0
LINE
  5
131
  8
0
 10
31.8198
 20
31.8198
 30
0.0
 11
29.4077
 21
33.7994
 31
0.0
  0
LINE
  5
132
  8
0
 10
29.4077
 20
33.7994
 30
0.0
 11
40.5728
 21
43.8526
 31
0.0
  0
LINE
  5
133
  8
0
 10
40.5728
 20
43.8526
 30
0.0
 11
40.1478
 21
44.5887
 31
0.0
  0
LINE
  5
134
  8
0
 10
40.1478
 20
44.5887
 30
0.0
 11
26.1256
 21
36.4929
 31
0.0
  0
LINE
  5
135
  8
0
 10
26.1256
 20
36.4929
 30
0.0
 11
25.0007
 21
37.4161
 31
0.0
  0
LINE
  5
136
  8
0
 10
25.0007
 20
37.4161
 30
0.0
 11
21.73
 21
39.1643
 31
0.0
  0
LINE
  5
137
  8
0
 10
21.73
 20
39.1643
 30
0.0
 11
30.5688
 21
51.3298
 31
0.0
  0
LINE
  5
138
  8
0
 10
30.5688
 20
51.3298
 30
0.0
 11
30.0
 21
51.9615
 31
0.0
  0
LINE
  5
139
  8
0
 10
30.0
 20
51.9615
 30
0.0
 11
18.001
 21
41.1575
 31
0.0
  0
LINE
  5
13A
  8
0
 10
18.001
 20
41.1575
 30
0.0
 11
17.2207
 21
41.5746
 31
0.0
  0
LINE
  5
13B
  8
0
 10
17.2207
 20
41.5746
 30
0.0
 11
16.2821
 21
41.8593
 31
0.0
  0
LINE
  5
13C
  8
0
 10
16.2821
 20
41.8593
 30
0.0
 11
16.3309
 21
42.0095
 31
0.0
  0
LINE
  5
13D
  8
0
 10
16.3309
 20
42.0095
 30
0.0
 11
13.2014
 21
43.0264
 31
0.0
  0
LINE
  5
13E
  8
0
 10
13.2014
 20
43.0264
 30
0.0
 11
19.2287
 21
56.5638
 31
0.0
  0
LINE
  5
13F
  8
0
 10
19.2287
 20
56.5638
 30
0.0
 11
18.541
 21
57.0634
 31
0.0
  0
LINE
  5
140
  8
0
 10
18.541
 20
57.0634
 30
0.0
 11
9.08156
 21
44.0436
 31
0.0
  0
LINE
  5
141
  8
0
 10
9.08156
 20
44.0436
 30
0.0
 11
8.77905
 21
44.1353
 31
0.0
  0
LINE
  5
142
  8
0
 10
8.77905
 20
44.1353
 30
0.0
 11
3.92113
 21
44.6138
 31
0.0
  0
LINE
  5
143
  8
0
 10
3.92113
 20
44.6138
 30
0.0
 11
7.04822
 21
59.3256
 31
0.0
  0
LINE
  5
144
  8
0
 10
7.04822
 20
59.3256
 30
0.0
 11
6.2717
 21
59.6713
 31
0.0
  0
LINE
  5
145
  8
0
 10
6.2717
 20
59.6713
 30
0.0
 11
-0.272324
 21
44.9732
 31
0.0
  0
LINE
  5
146
  8
0
 10
-0.272324
 20
44.9732
 30
0.0
 11
-5.44028
 21
44.4642
 31
0.0
  0
LINE
  5
147
  8
0
 10
-5.44028
 20
44.4642
 30
0.0
 11
-5.44028
 21
59.4946
 31
0.0
  0
LINE
  5
148
  8
0
 10
-5.44028
 20
59.4946
 30
0.0
 11
-6.2717
 21
59.6713
 31
0.0
  0
LINE
  5
149
  8
0
 10
-6.2717
 20
59.6713
 30
0.0
 11
-9.62877
 21
43.8776
 31
0.0
  0
LINE
  5
14A
  8
0
 10
-9.62877
 20
43.8776
 30
0.0
 11
-14.5697
 21
42.3788
 31
0.0
  0
LINE
  5
14B
  8
0
 10
-14.5697
 20
42.3788
 30
0.0
 11
-17.691
 21
57.0634
 31
0.0
  0
LINE
  5
14C
  8
0
 10
-17.691
 20
57.0634
 30
0.0
 11
-18.541
 21
57.0634
 31
0.0
  0
LINE
  5
14D
  8
0
 10
-18.541
 20
57.0634
 30
0.0
 11
-18.541
 21
40.8689
 31
0.0
  0
LINE
  5
14E
  8
0
 10
-18.541
 20
40.8689
 30
0.0
 11
-23.0727
 21
38.4467
 31
0.0
  0
LINE
  5
14F
  8
0
 10
-23.0727
 20
38.4467
 30
0.0
 11
-29.1686
 21
52.1382
 31
0.0
  0
LINE
  5
150
  8
0
 10
-29.1686
 20
52.1382
 30
0.0
 11
-30.0
 21
51.9615
 31
0.0
  0
LINE
  5
151
  8
0
 10
-30.0
 20
51.9615
 30
0.0
 11
-26.6249
 21
36.0831
 31
0.0
  0
LINE
  5
152
  8
0
 10
-26.6249
 20
36.0831
 30
0.0
 11
-30.5814
 21
32.8361
 31
0.0
  0
LINE
  5
153
  8
0
 10
-30.5814
 20
32.8361
 30
0.0
 11
-39.3713
 21
44.9344
 31
0.0
  0
LINE
  5
154
  8
0
 10
-39.3713
 20
44.9344
 30
0.0
 11
-40.1478
 21
44.5887
 31
0.0
  0
LINE
  5
155
  8
0
 10
-40.1478
 20
44.5887
 30
0.0
 11
-33.5332
 21
29.732
 31
0.0
  0
LINE
  5
156
  8
0
 10
-33.5332
 20
29.732
 30
0.0
 11
-34.6729
 21
28.3433
 31
0.0
  0
LINE
  5
157
  8
0
 10
-34.6729
 20
28.3433
 30
0.0
 11
-34.9069
 21
28.5133
 31
0.0
  0
LINE
  5
158
  8
0
 10
-34.9069
 20
28.5133
 30
0.0
 11
-36.841
 21
25.8512
 31
0.0
  0
LINE
  5
159
  8
0
 10
-36.841
 20
25.8512
 30
0.0
 11
-47.8533
 21
35.7667
 31
0.0
  0
LINE
  5
15A
  8
0
 10
-47.8533
 20
35.7667
 30
0.0
 11
-48.541
 21
35.2671
 31
0.0
  0
LINE
  5
15B
  8
0
 10
-48.541
 20
35.2671
 30
0.0
 11
-38.9699
 21
22.0937
 31
0.0
  0
LINE
  5
15C
  8
0
 10
-38.9699
 20
22.0937
 30
0.0
 11
-41.3702
 21
17.6032
 31
0.0
  0
LINE
  5
15D
  8
0
 10
-41.3702
 20
17.6032
 30
0.0
 11
-54.244
 21
25.0359
 31
0.0
  0
LINE
  5
15E
  8
0
 10
-54.244
 20
25.0359
 30
0.0
 11
-54.8127
 21
24.4042
 31
0.0
  0
LINE
  5
15F
  8
0
 10
-54.8127
 20
24.4042
 30
0.0
 11
-42.7031
 21
13.5006
 31
0.0
  0
LINE
  5
160
  8
0
 10
-42.7031
 20
13.5006
 30
0.0
 11
-44.1353
 21
8.77905
 31
0.0
  0
LINE
  5
161
  8
0
 10
-44.1353
 20
8.77905
 30
0.0
 11
-44.1505
 21
8.62511
 31
0.0
  0
LINE
  5
162
  8
0
 10
-44.1505
 20
8.62511
 30
0.0
 11
-58.2639
 21
13.2108
 31
0.0
  0
LINE
  5
163
  8
0
 10
-58.2639
 20
13.2108
 30
0.0
 11
-58.6888
 21
12.4747
 31
0.0
  0
LINE
  5
164
  8
0
 10
-58.6888
 20
12.4747
 30
0.0
 11
-44.574
 21
4.32547
 31
0.0
  0
LINE
  5
165
  8
0
 10
-44.574
 20
4.32547
 30
0.0
 11
-45.0
 21
0.0
 31
0.0
  0
LINE
  5
166
  8
0
 10
-45.0
 20
0.0
 30
0.0
 11
-44.9263
 21
-0.748291
 31
0.0
  0
LINE
  5
167
  8
0
 10
-44.9263
 20
-0.748291
 30
0.0
 11
-59.7373
 21
0.808395
 31
0.0
  0
LINE
  5
168
  8
0
 10
-59.7373
 20
0.808395
 30
0.0
 11
-60.0
 21
0.0
 31
0.0
  0
LINE
  5
169
  8
0
 10
-60.0
 20
0.0
 30
0.0
 11
-44.5041
 21
-5.03491
 31
0.0
  0
LINE
  5
16A
  8
0
 10
-44.5041
 20
-5.03491
 30
0.0
 11
-44.1353
 21
-8.77905
 31
0.0
  0
LINE
  5
16B
  8
0
 10
-44.1353
 20
-8.77905
 30
0.0
 11
-43.7444
 21
-10.068
 31
0.0
  0
LINE
  5
16C
  8
0
 10
-43.7444
 20
-10.068
 30
0.0
 11
-58.6
 21
-11.6293
 31
0.0
  0
LINE
  5
16D
  8
0
 10
-58.6
 20
-11.6293
 30
0.0
 11
-58.6888
 21
-12.4747
 31
0.0
  0
LINE
  5
16E
  8
0
 10
-58.6888
 20
-12.4747
 30
0.0
 11
-42.4981
 21
-14.1764
 31
0.0
  0
LINE
  5
16F
  8
0
 10
-42.4981
 20
-14.1764
 30
0.0
 11
-41.5746
 21
-17.2207
 31
0.0
  0
LINE
  5
170
  8
0
 10
-41.5746
 20
-17.2207
 30
0.0
 11
-40.6601
 21
-18.9315
 31
0.0
  0
LINE
  5
171
  8
0
 10
-40.6601
 20
-18.9315
 30
0.0
 11
-54.9016
 21
-23.5589
 31
0.0
  0
LINE
  5
172
  8
0
 10
-54.9016
 20
-23.5589
 30
0.0
 11
-54.8127
 21
-24.4042
 31
0.0
  0
LINE
  5
173
  8
0
 10
-54.8127
 20
-24.4042
 30
0.0
 11
-38.6433
 21
-22.7047
 31
0.0
  0
LINE
  5
174
  8
0
 10
-38.6433
 20
-22.7047
 30
0.0
 11
-37.7889
 21
-24.3033
 31
0.0
  0
LINE
  5
175
  8
0
 10
-37.7889
 20
-24.3033
 30
0.0
 11
-37.9046
 21
-24.3873
 31
0.0
  0
LINE
  5
176
  8
0
 10
-37.9046
 20
-24.3873
 30
0.0
 11
-35.9705
 21
-27.0495
 31
0.0
  0
LINE
  5
177
  8
0
 10
-35.9705
 20
-27.0495
 30
0.0
 11
-48.8037
 21
-34.4587
 31
0.0
  0
LINE
  5
178
  8
0
 10
-48.8037
 20
-34.4587
 30
0.0
 11
-48.541
 21
-35.2671
 31
0.0
  0
LINE
  5
179
  8
0
 10
-48.541
 20
-35.2671
 30
0.0
 11
-33.1064
 21
-30.2521
 31
0.0
  0
LINE
  5
17A
  8
0
 10
-33.1064
 20
-30.2521
 30
0.0
 11
-31.8198
 21
-31.8198
 31
0.0
  0
LINE
  5
17B
  8
0
 10
-31.8198
 20
-31.8198
 30
0.0
 11
-29.4077
 21
-33.7994
 31
0.0
  0
LINE
  5
17C
  8
0
 10
-29.4077
 20
-33.7994
 30
0.0
 11
-40.5728
 21
-43.8526
 31
0.0
  0
LINE
  5
17D
  8
0
 10
-40.5728
 20
-43.8526
 30
0.0
 11
-40.1478
 21
-44.5887
 31
0.0
  0
LINE
  5
17E
  8
0
 10
-40.1478
 20
-44.5887
 30
0.0
 11
-26.1256
 21
-36.4929
 31
0.0
  0
LINE
  5
17F
  8
0
 10
-26.1256
 20
-36.4929
 30
0.0
 11
-25.0007
 21
-37.4161
 31
0.0
  0
LINE
  5
180
  8
0
 10
-25.0007
 20
-37.4161
 30
0.0
 11
-21.73
 21
-39.1643
 31
0.0
  0
LINE
  5
181
  8
0
 10
-21.73
 20
-39.1643
 30
0.0
 11
-30.5688
 21
-51.3298
 31
0.0
  0
LINE
  5
182
  8
0
 10
-30.5688
 20
-51.3298
 30
0.0
 11
-30.0
 21
-51.9615
 31
0.0
  0
LINE
  5
183
  8
0
 10
-30.0
 20
-51.9615
 30
0.0
 11
-18.001
 21
-41.1575
 31
0.0
  0
LINE
  5
184
  8
0
 10
-18.001
 20
-41.1575
 30
0.0
 11
-17.2207
 21
-41.5746
 31
0.0
  0
LINE
  5
185
  8
0
 10
-17.2207
 20
-41.5746
 30
0.0
 11
-13.1102
 21
-42.8215
 31
0.0
  0
LINE
  5
186
  8
0
 10
-13.1102
 20
-42.8215
 30
0.0
 11
-19.2287
 21
-56.5638
 31
0.0
  0
LINE
  5
187
  8
0
 10
-19.2287
 20
-56.5638
 30
0.0
 11
-18.541
 21
-57.0634
 31
0.0
  0
LINE
  5
188
  8
0
 10
-18.541
 20
-57.0634
 30
0.0
 11
-9.08156
 21
-44.0436
 31
0.0
  0
LINE
  5
189
  8
0
 10
-9.08156
 20
-44.0436
 30
0.0
 11
-8.77905
 21
-44.1353
 31
0.0
  0
LINE
  5
18A
  8
0
 10
-8.77905
 20
-44.1353
 30
0.0
 11
-3.92113
 21
-44.6138
 31
0.0
  0
LINE
  5
18B
  8
0
 10
-3.92113
 20
-44.6138
 30
0.0
 11
-7.04822
 21
-59.3256
 31
0.0
  0
LINE
  5
18C
  8
0
 10
-7.04822
 20
-59.3256
 30
0.0
 11
-6.2717
 21
-59.6713
 31
0.0
  0
LINE
  5
18D
  8
0
 10
-6.2717
 20
-59.6713
 30
0.0
 11
0.272324
 21
-44.9732
 31
0.0
  0
LINE
  5
18E
  8
0
 10
0.272324
 20
-44.9732
 30
0.0
 11
5.44028
 21
-44.4642
 31
0.0
  0
LINE
  5
18F
  8
0
 10
5.44028
 20
-44.4642
 30
0.0
 11
5.44028
 21
-59.4946
 31
0.0
  0
LINE
  5
190
  8
0
 10
5.44028
 20
-59.4946
 30
0.0
 11
6.2717
 21
-59.6713
 31
0.0
  0
LINE
  5
191
  8
0
 10
6.2717
 20
-59.6713
 30
0.0
 11
9.62877
 21
-43.8776
 31
0.0
  0
LINE
  5
192
  8
0
 10
-29.9547
 20
24.9154
 30
0.0
 11
-27.6832
 21
27.6832
 31
0.0
  0
LINE
  5
193
  8
0
 10
-27.6832
 20
27.6832
 30
0.0
 11
-21.7506
 21
32.552
 31
0.0
  0
LINE
  5
194
  8
0
 10
-21.7506
 20
32.552
 30
0.0
 11
-14.9821
 21
36.1699
 31
0.0
  0
LINE
  5
195
  8
0
 10
-14.9821
 20
36.1699
 30
0.0
 11
-7.63777
 21
38.3977
 31
0.0
  0
LINE
  5
196
  8
0
 10
-7.63777
 20
38.3977
 30
0.0
 11
0.0
 21
39.15
 31
0.0
  0
LINE
  5
197
  8
0
 10
0.0
 20
39.15
 30
0.0
 11
7.63777
 21
38.3977
 31
0.0
  0
LINE
  5
198
  8
0
 10
7.63777
 20
38.3977
 30
0.0
 11
9.60141
 21
37.8021
 31
0.0
  0
LINE
  5
199
  8
0
 10
9.60141
 20
37.8021
 30
0.0
 11
1.12279
 21
11.7076
 31
0.0
  0
LINE
  5
19A
  8
0
 10
1.12279
 20
11.7076
 30
0.0
 11
0.0
 21
11.8182
 31
0.0
  0
LINE
  5
19B
  8
0
 10
0.0
 20
11.8182
 30
0.0
 11
-2.3056
 21
11.5911
 31
0.0
  0
LINE
  5
19C
  8
0
 10
-2.3056
 20
11.5911
 30
0.0
 11
-4.52261
 21
10.9186
 31
0.0
  0
LINE
  5
19D
  8
0
 10
-4.52261
 20
10.9186
 30
0.0
 11
-6.56583
 21
9.82645
 31
0.0
  0
LINE
  5
19E
  8
0
 10
-6.56583
 20
9.82645
 30
0.0
 11
-7.79649
 21
8.81647
 31
0.0
  0
LINE
  5
19F
  8
0
 10
-7.79649
 20
8.81647
 30
0.0
 11
-29.9547
 21
24.9154
 31
0.0
  0
LINE
  5
1A0
  8
0
 10
11.517
 20
2.54999
 30
0.0
 11
10.9186
 21
4.52261
 31
0.0
  0
LINE
  5
1A1
  8
0
 10
10.9186
 20
4.52261
 30
0.0
 11
9.82645
 21
6.56583
 31
0.0
  0
LINE
  5
1A2
  8
0
 10
9.82645
 20
6.56583
 30
0.0
 11
8.3567
 21
8.3567
 31
0.0
  0
LINE
  5
1A3
  8
0
 10
8.3567
 20
8.3567
 30
0.0
 11
6.56583
 21
9.82645
 31
0.0
  0
LINE
  5
1A4
  8
0
 10
6.56583
 20
9.82645
 30
0.0
 11
5.97639
 21
10.1415
 31
0.0
  0
LINE
  5
1A5
  8
0
 10
5.97639
 20
10.1415
 30
0.0
 11
14.4827
 21
36.3213
 31
0.0
  0
LINE
  5
1A6
  8
0
 10
14.4827
 20
36.3213
 30
0.0
 11
14.9821
 21
36.1699
 31
0.0
  0
LINE
  5
1A7
  8
0
 10
14.9821
 20
36.1699
 30
0.0
 11
21.7506
 21
32.552
 31
0.0
  0
LINE
  5
1A8
  8
0
 10
21.7506
 20
32.552
 30
0.0
 11
27.6832
 21
27.6832
 31
0.0
  0
LINE
  5
1A9
  8
0
 10
27.6832
 20
27.6832
 30
0.0
 11
32.552
 21
21.7506
 31
0.0
  0
LINE
  5
1AA
  8
0
 10
32.552
 20
21.7506
 30
0.0
 11
36.1699
 21
14.9821
 31
0.0
  0
LINE
  5
1AB
  8
0
 10
36.1699
 20
14.9821
 30
0.0
 11
38.3977
 21
7.63777
 31
0.0
  0
LINE
  5
1AC
  8
0
 10
38.3977
 20
7.63777
 30
0.0
 11
38.8988
 21
2.54999
 31
0.0
  0
LINE
  5
1AD
  8
0
 10
38.8988
 20
2.54999
 30
0.0
 11
11.517
 21
2.54999
 31
0.0
  0
LINE
  5
1AE
  8
0
 10
-36.1699
 20
-14.9821
 30
0.0
 11
-38.3977
 21
-7.63777
 31
0.0
  0
LINE
  5
1AF
  8
0
 10
-38.3977
 20
-7.63777
 30
0.0
 11
-39.15
 21
0.0
 31
0.0
  0
LINE
  5
1B0
  8
0
 10
-39.15
 20
0.0
 30
0.0
 11
-38.3977
 21
7.63777
 31
0.0
  0
LINE
  5
1B1
  8
0
 10
-38.3977
 20
7.63777
 30
0.0
 11
-36.1699
 21
14.9821
 31
0.0
  0
LINE
  5
1B2
  8
0
 10
-36.1699
 20
14.9821
 30
0.0
 11
-33.0341
 21
20.8487
 31
0.0
  0
LINE
  5
1B3
  8
0
 10
-33.0341
 20
20.8487
 30
0.0
 11
-10.8192
 21
4.7086
 31
0.0
  0
LINE
  5
1B4
  8
0
 10
-10.8192
 20
4.7086
 30
0.0
 11
-10.9186
 21
4.52261
 31
0.0
  0
LINE
  5
1B5
  8
0
 10
-10.9186
 20
4.52261
 30
0.0
 11
-11.5911
 21
2.3056
 31
0.0
  0
LINE
  5
1B6
  8
0
 10
-11.5911
 20
2.3056
 30
0.0
 11
-11.8182
 21
0.0
 31
0.0
  0
LINE
  5
1B7
  8
0
 10
-11.8182
 20
0.0
 30
0.0
 11
-11.5911
 21
-2.3056
 31
0.0
  0
LINE
  5
1B8
  8
0
 10
-11.5911
 20
-2.3056
 30
0.0
 11
-10.9186
 21
-4.52261
 31
0.0
  0
LINE
  5
1B9
  8
0
 10
-10.9186
 20
-4.52261
 30
0.0
 11
-10.8192
 21
-4.7086
 31
0.0
  0
LINE
  5
1BA
  8
0
 10
-10.8192
 20
-4.7086
 30
0.0
 11
-33.0341
 21
-20.8487
 31
0.0
  0
LINE
  5
1BB
  8
0
 10
-33.0341
 20
-20.8487
 30
0.0
 11
-36.1699
 21
-14.9821
 31
0.0
  0
LINE
  5
1BC
  8
0
 10
-1.26808
 20
-6.37509
 30
0.0
 11
-2.48744
 21
-6.0052
 31
0.0
  0
LINE
  5
1BD
  8
0
 10
-2.48744
 20
-6.0052
 30
0.0
 11
-3.61121
 21
-5.40454
 31
0.0
  0
LINE
  5
1BE
  8
0
 10
-3.61121
 20
-5.40454
 30
0.0
 11
-4.59619
 21
-4.59619
 31
0.0
  0
LINE
  5
1BF
  8
0
 10
-4.59619
 20
-4.59619
 30
0.0
 11
-5.40454
 21
-3.61121
 31
0.0
  0
LINE
  5
1C0
  8
0
 10
-5.40454
 20
-3.61121
 30
0.0
 11
-6.0052
 21
-2.48744
 31
0.0
  0
LINE
  5
1C1
  8
0
 10
-6.0052
 20
-2.48744
 30
0.0
 11
-6.37509
 21
-1.26808
 31
0.0
  0
LINE
  5
1C2
  8
0
 10
-6.37509
 20
-1.26808
 30
0.0
 11
-6.5
 21
0.0
 31
0.0
  0
LINE
  5
1C3
  8
0
 10
-6.5
 20
0.0
 30
0.0
 11
-6.37509
 21
1.26808
 31
0.0
  0
LINE
  5
1C4
  8
0
 10
-6.37509
 20
1.26808
 30
0.0
 11
-6.0052
 21
2.48744
 31
0.0
  0
LINE
  5
1C5
  8
0
 10
-6.0052
 20
2.48744
 30
0.0
 11
-5.40454
 21
3.61121
 31
0.0
  0
LINE
  5
1C6
  8
0
 10
-5.40454
 20
3.61121
 30
0.0
 11
-4.59619
 21
4.59619
 31
0.0
  0
LINE
  5
1C7
  8
0
 10
-4.59619
 20
4.59619
 30
0.0
 11
-3.61121
 21
5.40454
 31
0.0
  0
LINE
  5
1C8
  8
0
 10
-3.61121
 20
5.40454
 30
0.0
 11
-2.48744
 21
6.0052
 31
0.0
  0
LINE
  5
1C9
  8
0
 10
-2.48744
 20
6.0052
 30
0.0
 11
-1.26808
 21
6.37509
 31
0.0
  0
LINE
  5
1CA
  8
0
 10
-1.26808
 20
6.37509
 30
0.0
 11
0.0
 21
6.5
 31
0.0
  0
LINE
  5
1CB
  8
0
 10
0.0
 20
6.5
 30
0.0
 11
1.26808
 21
6.37509
 31
0.0
  0
LINE
  5
1CC
  8
0
 10
1.26808
 20
6.37509
 30
0.0
 11
2.48744
 21
6.0052
 31
0.0
  0
LINE
  5
1CD
  8
0
 10
2.48744
 20
6.0052
 30
0.0
 11
3.61121
 21
5.40454
 31
0.0
  0
LINE
  5
1CE
  8
0
 10
3.61121
 20
5.40454
 30
0.0
 11
4.59619
 21
4.59619
 31
0.0
  0
LINE
  5
1CF
  8
0
 10
4.59619
 20
4.59619
 30
0.0
 11
5.40454
 21
3.61121
 31
0.0
  0
LINE
  5
1D0
  8
0
 10
5.40454
 20
3.61121
 30
0.0
 11
6.0052
 21
2.48744
 31
0.0
  0
LINE
  5
1D1
  8
0
 10
6.0052
 20
2.48744
 30
0.0
 11
6.37509
 21
1.26808
 31
0.0
  0
LINE
  5
1D2
  8
0
 10
6.37509
 20
1.26808
 30
0.0
 11
6.5
 21
0.0
 31
0.0
  0
LINE
  5
1D3
  8
0
 10
6.5
 20
0.0
 30
0.0
 11
6.37509
 21
-1.26808
 31
0.0
  0
LINE
  5
1D4
  8
0
 10
6.37509
 20
-1.26808
 30
0.0
 11
6.0052
 21
-2.48744
 31
0.0
  0
LINE
  5
1D5
  8
0
 10
6.0052
 20
-2.48744
 30
0.0
 11
5.40454
 21
-3.61121
 31
0.0
  0
LINE
  5
1D6
  8
0
 10
5.40454
 20
-3.61121
 30
0.0
 11
4.59619
 21
-4.59619
 31
0.0
  0
LINE
  5
1D7
  8
0
 10
4.59619
 20
-4.59619
 30
0.0
 11
3.61121
 21
-5.40454
 31
0.0
  0
LINE
  5
1D8
  8
0
 10
3.61121
 20
-5.40454
 30
0.0
 11
2.48744
 21
-6.0052
 31
0.0
  0
LINE
  5
1D9
  8
0
 10
2.48744
 20
-6.0052
 30
0.0
 11
1.26808
 21
-6.37509
 31
0.0
  0
LINE
  5
1DA
  8
0
 10
1.26808
 20
-6.37509
 30
0.0
 11
0.0
 21
-6.5
 31
0.0
  0
LINE
  5
1DB
  8
0
 10
0.0
 20
-6.5
 30
0.0
 11
-1.26808
 21
-6.37509
 31
0.0
  0
LINE
  5
1DC
  8
0
 10
5.97639
 20
-10.1415
 30
0.0
 11
6.56583
 21
-9.82645
 31
0.0
  0
LINE
  5
1DD
  8
0
 10
6.56583
 20
-9.82645
 30
0.0
 11
8.3567
 21
-8.3567
 31
0.0
  0
LINE
  5
1DE
  8
0
 10
8.3567
 20
-8.3567
 30
0.0
 11
9.82645
 21
-6.56583
 31
0.0
  0
LINE
  5
1DF
  8
0
 10
9.82645
 20
-6.56583
 30
0.0
 11
10.9186
 21
-4.52261
 31
0.0
  0
LINE
  5
1E0
  8
0
 10
10.9186
 20
-4.52261
 30
0.0
 11
11.517
 21
-2.54999
 31
0.0
  0
LINE
  5
1E1
  8
0
 10
11.517
 20
-2.54999
 30
0.0
 11
38.8988
 21
-2.54999
 31
0.0
  0
LINE
  5
1E2
  8
0
 10
38.8988
 20
-2.54999
 30
0.0
 11
38.3977
 21
-7.63777
 31
0.0
  0
LINE
  5
1E3
  8
0
 10
38.3977
 20
-7.63777
 30
0.0
 11
36.1699
 21
-14.9821
 31
0.0
  0
LINE
  5
1E4
  8
0
 10
36.1699
 20
-14.9821
 30
0.0
 11
32.552
 21
-21.7506
 31
0.0
  0
LINE
  5
1E5
  8
0
 10
32.552
 20
-21.7506
 30
0.0
 11
27.6832
 21
-27.6832
 31
0.0
  0
LINE
  5
1E6
  8
0
 10
27.6832
 20
-27.6832
 30
0.0
 11
21.7506
 21
-32.552
 31
0.0
  0
LINE
  5
1E7
  8
0
 10
21.7506
 20
-32.552
 30
0.0
 11
14.9821
 21
-36.1699
 31
0.0
  0
LINE
  5
1E8
  8
0
 10
14.9821
 20
-36.1699
 30
0.0
 11
14.4827
 21
-36.3213
 31
0.0
  0
LINE
  5
1E9
  8
0
 10
14.4827
 20
-36.3213
 30
0.0
 11
5.97639
 21
-10.1415
 31
0.0
  0
LINE
  5
1EA
  8
0
 10
-7.63777
 20
-38.3977
 30
0.0
 11
-14.9821
 21
-36.1699
 31
0.0
  0
LINE
  5
1EB
  8
0
 10
-14.9821
 20
-36.1699
 30
0.0
 11
-21.7506
 21
-32.552
 31
0.0
  0
LINE
  5
1EC
  8
0
 10
-21.7506
 20
-32.552
 30
0.0
 11
-27.6832
 21
-27.6832
 31
0.0
  0
LINE
  5
1ED
  8
0
 10
-27.6832
 20
-27.6832
 30
0.0
 11
-29.9547
 21
-24.9154
 31
0.0
  0
LINE
  5
1EE
  8
0
 10
-29.9547
 20
-24.9154
 30
0.0
 11
-7.79649
 21
-8.81647
 31
0.0
  0
LINE
  5
1EF
  8
0
 10
-7.79649
 20
-8.81647
 30
0.0
 11
-6.56583
 21
-9.82645
 31
0.0
  0
LINE
  5
1F0
  8
0
 10
-6.56583
 20
-9.82645
 30
0.0
 11
-4.52261
 21
-10.9186
 31
0.0
  0
LINE
  5
1F1
  8
0
 10
-4.52261
 20
-10.9186
 30
0.0
 11
-2.3056
 21
-11.5911
 31
0.0
  0
LINE
  5
1F2
  8
0
 10
-2.3056
 20
-11.5911
 30
0.0
 11
0.0
 21
-11.8182
 31
0.0
  0
LINE
  5
1F3
  8
0
 10
0.0
 20
-11.8182
 30
0.0
 11
1.12279
 21
-11.7076
 31
0.0
  0
LINE
  5
1F4
  8
0
 10
1.12279
 20
-11.7076
 30
0.0
 11
9.60141
 21
-37.8021
 31
0.0
  0
LINE
  5
1F5
  8
0
 10
9.60141
 20
-37.8021
 30
0.0
 11
7.63777
 21
-38.3977
 31
0.0
  0
LINE
  5
1F6
  8
0
 10
7.63777
 20
-38.3977
 30
0.0
 11
0.0
 21
-39.15
 31
0.0
  0
LINE
  5
1F7
  8
0
 10
0.0
 20
-39.15
 30
0.0
 11
-7.63777
 21
-38.3977
 31
0.0
  0
TEXT
  5
22D
  8
0
 62
5
 10
0.0
 20
0.0
 30
0.0
 40
3.0
  1
6
  7
OpenSans-Regular
  0
ENDSEC
  0
EOF
