  0
SECTION
  2
HEADER
  9
$ACADVER
  1
AC1009
  9
$DWGCODEPAGE
  3
ANSI_1252
  9
$INSBASE
 10
0.0
 20
0.0
 30
0.0
  9
$EXTMIN
 10
1e+20
 20
1e+20
 30
1e+20
  9
$EXTMAX
 10
-1e+20
 20
-1e+20
 30
-1e+20
  9
$LIMMIN
 10
0.0
 20
0.0
  9
$LIMMAX
 10
420.0
 20
297.0
  9
$ORTHOMODE
 70
0
  9
$REGENMODE
 70
1
  9
$FILLMODE
 70
1
  9
$DRAGMODE
 70
2
  9
$QTEXTMODE
 70
0
  9
$MIRRTEXT
 70
1
  9
$OSMODE
 70
20583
  9
$LTSCALE
 40
1.0
  9
$ATTMODE
 70
1
  9
$TEXTSIZE
 40
2.5
  9
$TRACEWID
 40
1.0
  9
$TEXTSTYLE
  7
Standard
  9
$CLAYER
  8
0
  9
$CELTYPE
  6
ByLayer
  9
$CECOLOR
 62
256
  9
$DIMSCALE
 40
1.0
  9
$DIMASZ
 40
2.5
  9
$DIMEXO
 40
0.625
  9
$DIMDLI
 40
3.75
  9
$DIMRND
 40
0.0
  9
$DIMDLE
 40
0.0
  9
$DIMEXE
 40
1.25
  9
$DIMTP
 40
0.0
  9
$DIMTM
 40
0.0
  9
$DIMTXT
 40
2.5
  9
$DIMCEN
 40
2.5
  9
$DIMTSZ
 40
0.0
  9
$DIMTOL
 70
0
  9
$DIMLIM
 70
0
  9
$DIMTIH
 70
0
  9
$DIMTOH
 70
0
  9
$DIMSE1
 70
0
  9
$DIMSE2
 70
0
  9
$DIMTAD
 70
1
  9
$DIMZIN
 70
8
  9
$DIMBLK
  1

  9
$DIMASO
 70
1
  9
$DIMSHO
 70
1
  9
$DIMPOST
  1

  9
$DIMAPOST
  1

  9
$DIMALT
 70
0
  9
$DIMALTD
 70
3
  9
$DIMALTF
 40
0.03937007874
  9
$DIMLFAC
 40
1.0
  9
$DIMTOFL
 70
1
  9
$DIMTVP
 40
0.0
  9
$DIMTIX
 70
0
  9
$DIMSOXD
 70
0
  9
$DIMSAH
 70
0
  9
$DIMBLK1
  1

  9
$DIMBLK2
  1

  9
$DIMSTYLE
  2
ISO-25
  9
$DIMCLRD
 70
0
  9
$DIMCLRE
 70
0
  9
$DIMCLRT
 70
0
  9
$DIMTFAC
 40
1.0
  9
$DIMGAP
 40
0.625
  9
$COORDS
 70
1
  9
$ATTDIA
 70
0
  9
$ATTREQ
 70
1
  9
$HANDLING
 70
1
  9
$LUNITS
 70
2
  9
$LUPREC
 70
4
  9
$SKETCHINC
 40
1.0
  9
$FILLETRAD
 40
10.0
  9
$AUNITS
 70
0
  9
$AUPREC
 70
2
  9
$MENU
  1
.
  9
$ELEVATION
 40
0.0
  9
$PELEVATION
 40
0.0
  9
$THICKNESS
 40
0.0
  9
$LIMCHECK
 70
0
  9
$CHAMFERA
 40
0.0
  9
$CHAMFERB
 40
0.0
  9
$SKPOLY
 70
0
  9
$TDCREATE
 40
2459991.730925926
  9
$TDUPDATE
 40
2459991.730925926
  9
$TDINDWG
 40
0.0
  9
$TDUSRTIMER
 40
0.0
  9
$USRTIMER
 70
1
  9
$ANGBASE
 50
0.0
  9
$ANGDIR
 70
0
  9
$PDMODE
 70
0
  9
$PDSIZE
 40
0.0
  9
$PLINEWID
 40
0.0
  9
$SPLFRAME
 70
0
  9
$SPLINETYPE
 70
6
  9
$SPLINESEGS
 70
8
  9
$HANDSEED
  5
20C
  9
$SURFTAB1
 70
6
  9
$SURFTAB2
 70
6
  9
$SURFTYPE
 70
6
  9
$SURFU
 70
6
  9
$SURFV
 70
6
  9
$UCSNAME
  2

  9
$UCSORG
 10
0.0
 20
0.0
 30
0.0
  9
$UCSXDIR
 10
1.0
 20
0.0
 30
0.0
  9
$UCSYDIR
 10
0.0
 20
1.0
 30
0.0
  9
$PUCSNAME
  2

  9
$PUCSORG
 10
0.0
 20
0.0
 30
0.0
  9
$PUCSXDIR
 10
1.0
 20
0.0
 30
0.0
  9
$PUCSYDIR
 10
0.0
 20
1.0
 30
0.0
  9
$USERI1
 70
0
  9
$USERI2
 70
0
  9
$USERI3
 70
0
  9
$USERI4
 70
0
  9
$USERI5
 70
0
  9
$USERR1
 40
0.0
  9
$USERR2
 40
0.0
  9
$USERR3
 40
0.0
  9
$USERR4
 40
0.0
  9
$USERR5
 40
0.0
  9
$WORLDVIEW
 70
1
  9
$SHADEDGE
 70
3
  9
$SHADEDIF
 70
70
  9
$TILEMODE
 70
1
  9
$MAXACTVP
 70
64
  9
$PLIMCHECK
 70
0
  9
$PEXTMIN
 10
1e+20
 20
1e+20
 30
1e+20
  9
$PEXTMAX
 10
-1e+20
 20
-1e+20
 30
-1e+20
  9
$PLIMMIN
 10
0.0
 20
0.0
  9
$PLIMMAX
 10
420.0
 20
297.0
  9
$UNITMODE
 70
0
  9
$VISRETAIN
 70
1
  9
$PLINEGEN
 70
0
  9
$PSLTSCALE
 70
1
  0
ENDSEC
  0
SECTION
  2
TABLES
  0
TABLE
  2
VPORT
 70
1
  0
VPORT
  5
1DE
  2
*Active
 70
0
 10
0.0
 20
0.0
 11
1.0
 21
1.0
 12
0.0
 22
0.0
 13
0.0
 23
0.0
 14
0.5
 24
0.5
 15
0.5
 25
0.5
 16
0.0
 26
0.0
 36
1.0
 17
0.0
 27
0.0
 37
0.0
 40
1000.0
 41
1.34
 42
50.0
 43
0.0
 44
0.0
 50
0.0
 51
0.0
 71
0
 72
1000
 73
1
 74
3
 75
0
 76
0
 77
0
 78
0
  0
ENDTAB
  0
TABLE
  2
LTYPE
 70
3
  0
LTYPE
  5
1DF
  2
ByBlock
 70
0
  3

 72
65
 73
0
 40
0.0
  0
LTYPE
  5
1E0
  2
ByLayer
 70
0
  3

 72
65
 73
0
 40
0.0
  0
LTYPE
  5
1E1
  2
Continuous
 70
0
  3

 72
65
 73
0
 40
0.0
  0
ENDTAB
  0
TABLE
  2
LAYER
 70
2
  0
LAYER
  5
1E2
  2
0
 70
0
 62
7
  6
Continuous
  0
LAYER
  5
1E3
  2
Defpoints
 70
0
 62
7
  6
Continuous
  0
ENDTAB
  0
TABLE
  2
STYLE
 70
1
  0
STYLE
  5
1E4
  2
Standard
 70
0
 40
0.0
 41
1.0
 50
0.0
 71
0
 42
2.5
  3
txt
  4

  0
ENDTAB
  0
TABLE
  2
VIEW
 70
0
  0
ENDTAB
  0
TABLE
  2
UCS
 70
0
  0
ENDTAB
  0
TABLE
  2
APPID
 70
3
  0
APPID
  5
1E5
  2
ACAD
 70
0
  0
APPID
  5
1E9
  2
HATCHBACKGROUNDCOLOR
 70
0
  0
APPID
  5
1EA
  2
EZDXF
 70
0
  0
ENDTAB
  0
TABLE
  2
DIMSTYLE
 70
1
  0
DIMSTYLE
105
1E6
  2
Standard
 70
0
  3

  4

  5

  6

  7

 40
1.0
 41
2.5
 42
0.625
 43
3.75
 44
1.25
 45
0.0
 46
0.0
 47
0.0
 48
0.0
140
2.5
141
2.5
142
0.0
143
0.03937007874
144
1.0
145
0.0
146
1.0
147
0.625
 71
0
 72
0
 73
0
 74
0
 75
0
 76
0
 77
1
 78
8
170
0
171
3
172
1
173
0
174
0
175
0
176
0
177
0
178
0
  0
ENDTAB
  0
ENDSEC
  0
SECTION
  2
BLOCKS
  0
BLOCK
  5
1BF
  8
0
  2
$Model_Space
 70
0
 10
0.0
 20
0.0
 30
0.0
  3
$Model_Space
  1

1001
EZDXF
1000
WRITTEN_BY_EZDXF
1000
1.0.1 @ 2023-02-15T07:32:32.036892+00:00
  0
ENDBLK
  5
1C0
  8
0
  0
BLOCK
  5
1C1
  8
0
  2
$Paper_Space
 70
0
 10
0.0
 20
0.0
 30
0.0
  3
$Paper_Space
  1

  0
ENDBLK
  5
1C2
  8
0
  0
ENDSEC
  0
SECTION
  2
ENTITIES
  0
LINE
  5
100
  8
0
 10
80.8316
 20
-14.2048
 30
0.0
 11
81.034
 21
-14.252
 31
0.0
  0
LINE
  5
101
  8
0
 10
81.034
 20
-14.252
 30
0.0
 11
81.9619
 21
-14.5334
 31
0.0
  0
LINE
  5
102
  8
0
 10
81.9619
 20
-14.5334
 30
0.0
 11
82.4455
 21
-14.5811
 31
0.0
  0
LINE
  5
103
  8
0
 10
82.4455
 20
-14.5811
 30
0.0
 11
82.9187
 21
-14.6914
 31
0.0
  0
LINE
  5
104
  8
0
 10
82.9187
 20
-14.6914
 30
0.0
 11
83.8878
 21
-14.7231
 31
0.0
  0
LINE
  5
105
  8
0
 10
83.8878
 20
-14.7231
 30
0.0
 11
84.8528
 21
-14.8182
 31
0.0
  0
LINE
  5
106
  8
0
 10
84.8528
 20
-14.8182
 30
0.0
 11
85.3363
 21
-14.7706
 31
0.0
  0
LINE
  5
107
  8
0
 10
85.3363
 20
-14.7706
 30
0.0
 11
85.822
 21
-14.7865
 31
0.0
  0
LINE
  5
108
  8
0
 10
85.822
 20
-14.7865
 30
0.0
 11
86.7787
 21
-14.6285
 31
0.0
  0
LINE
  5
109
  8
0
 10
86.7787
 20
-14.6285
 30
0.0
 11
87.7437
 21
-14.5334
 31
0.0
  0
LINE
  5
10A
  8
0
 10
87.7437
 20
-14.5334
 30
0.0
 11
88.2086
 21
-14.3924
 31
0.0
  0
LINE
  5
10B
  8
0
 10
88.2086
 20
-14.3924
 30
0.0
 11
88.688
 21
-14.3133
 31
0.0
  0
LINE
  5
10C
  8
0
 10
88.688
 20
-14.3133
 30
0.0
 11
89.5956
 21
-13.9717
 31
0.0
  0
LINE
  5
10D
  8
0
 10
89.5956
 20
-13.9717
 30
0.0
 11
90.5235
 21
-13.6902
 31
0.0
  0
LINE
  5
10E
  8
0
 10
90.5235
 20
-13.6902
 30
0.0
 11
90.952
 21
-13.4612
 31
0.0
  0
LINE
  5
10F
  8
0
 10
90.952
 20
-13.4612
 30
0.0
 11
91.4067
 21
-13.29
 31
0.0
  0
LINE
  5
110
  8
0
 10
91.4067
 20
-13.29
 30
0.0
 11
92.2301
 21
-12.778
 31
0.0
  0
LINE
  5
111
  8
0
 10
92.2301
 20
-12.778
 30
0.0
 11
93.0854
 21
-12.3209
 31
0.0
  0
LINE
  5
112
  8
0
 10
93.0854
 20
-12.3209
 30
0.0
 11
93.461
 21
-12.0126
 31
0.0
  0
LINE
  5
113
  8
0
 10
93.461
 20
-12.0126
 30
0.0
 11
93.8736
 21
-11.756
 31
0.0
  0
LINE
  5
114
  8
0
 10
93.8736
 20
-11.756
 30
0.0
 11
94.5813
 21
-11.0932
 31
0.0
  0
LINE
  5
115
  8
0
 10
94.5813
 20
-11.0932
 30
0.0
 11
95.3308
 21
-10.478
 31
0.0
  0
LINE
  5
116
  8
0
 10
95.3308
 20
-10.478
 30
0.0
 11
95.6391
 21
-10.1024
 31
0.0
  0
LINE
  5
117
  8
0
 10
95.6391
 20
-10.1024
 30
0.0
 11
95.9937
 21
-9.77029
 31
0.0
  0
LINE
  5
118
  8
0
 10
95.9937
 20
-9.77029
 30
0.0
 11
96.5585
 21
-8.9821
 31
0.0
  0
LINE
  5
119
  8
0
 10
96.5585
 20
-8.9821
 30
0.0
 11
97.1737
 21
-8.23253
 31
0.0
  0
LINE
  5
11A
  8
0
 10
97.1737
 20
-8.23253
 30
0.0
 11
97.4027
 21
-7.80403
 31
0.0
  0
LINE
  5
11B
  8
0
 10
97.4027
 20
-7.80403
 30
0.0
 11
97.6857
 21
-7.40909
 31
0.0
  0
LINE
  5
11C
  8
0
 10
97.6857
 20
-7.40909
 30
0.0
 11
98.0859
 21
-6.52585
 31
0.0
  0
LINE
  5
11D
  8
0
 10
98.0859
 20
-6.52585
 30
0.0
 11
98.543
 21
-5.67067
 31
0.0
  0
LINE
  5
11E
  8
0
 10
98.543
 20
-5.67067
 30
0.0
 11
98.6841
 21
-5.2057
 31
0.0
  0
LINE
  5
11F
  8
0
 10
98.6841
 20
-5.2057
 30
0.0
 11
98.8846
 21
-4.76314
 31
0.0
  0
LINE
  5
120
  8
0
 10
98.8846
 20
-4.76314
 30
0.0
 11
99.1048
 21
-3.8188
 31
0.0
  0
LINE
  5
121
  8
0
 10
99.1048
 20
-3.8188
 30
0.0
 11
99.1588
 21
-3.64075
 31
0.0
  0
LINE
  5
122
  8
0
 10
99.1588
 20
-3.64075
 30
0.0
 11
151.647
 21
-33.945
 31
0.0
  0
LINE
  5
123
  8
0
 10
151.647
 20
-33.945
 30
0.0
 11
155.647
 21
-27.0168
 31
0.0
  0
LINE
  5
124
  8
0
 10
155.647
 20
-27.0168
 30
0.0
 11
98.3253
 21
6.07808
 31
0.0
  0
LINE
  5
125
  8
0
 10
98.3253
 20
6.07808
 30
0.0
 11
98.3139
 21
6.09924
 31
0.0
  0
LINE
  5
126
  8
0
 10
98.3139
 20
6.09924
 30
0.0
 11
98.1428
 21
6.55391
 31
0.0
  0
LINE
  5
127
  8
0
 10
98.1428
 20
6.55391
 30
0.0
 11
97.6308
 21
7.37735
 31
0.0
  0
LINE
  5
128
  8
0
 10
97.6308
 20
7.37735
 30
0.0
 11
97.1737
 21
8.23253
 31
0.0
  0
LINE
  5
129
  8
0
 10
97.1737
 20
8.23253
 30
0.0
 11
96.8654
 21
8.60812
 31
0.0
  0
LINE
  5
12A
  8
0
 10
96.8654
 20
8.60812
 30
0.0
 11
96.6089
 21
9.02074
 31
0.0
  0
LINE
  5
12B
  8
0
 10
96.6089
 20
9.02074
 30
0.0
 11
95.946
 21
9.72847
 31
0.0
  0
LINE
  5
12C
  8
0
 10
95.946
 20
9.72847
 30
0.0
 11
95.3308
 21
10.478
 31
0.0
  0
LINE
  5
12D
  8
0
 10
95.3308
 20
10.478
 30
0.0
 11
94.9553
 21
10.7863
 31
0.0
  0
LINE
  5
12E
  8
0
 10
94.9553
 20
10.7863
 30
0.0
 11
94.6231
 21
11.1409
 31
0.0
  0
LINE
  5
12F
  8
0
 10
94.6231
 20
11.1409
 30
0.0
 11
93.835
 21
11.7057
 31
0.0
  0
LINE
  5
130
  8
0
 10
93.835
 20
11.7057
 30
0.0
 11
93.0854
 21
12.3209
 31
0.0
  0
LINE
  5
131
  8
0
 10
93.0854
 20
12.3209
 30
0.0
 11
92.6568
 21
12.5499
 31
0.0
  0
LINE
  5
132
  8
0
 10
92.6568
 20
12.5499
 30
0.0
 11
92.2619
 21
12.8329
 31
0.0
  0
LINE
  5
133
  8
0
 10
92.2619
 20
12.8329
 30
0.0
 11
91.3787
 21
13.2331
 31
0.0
  0
LINE
  5
134
  8
0
 10
91.3787
 20
13.2331
 30
0.0
 11
90.5235
 21
13.6902
 31
0.0
  0
LINE
  5
135
  8
0
 10
90.5235
 20
13.6902
 30
0.0
 11
90.0585
 21
13.8313
 31
0.0
  0
LINE
  5
136
  8
0
 10
90.0585
 20
13.8313
 30
0.0
 11
89.616
 21
14.0318
 31
0.0
  0
LINE
  5
137
  8
0
 10
89.616
 20
14.0318
 30
0.0
 11
88.6716
 21
14.252
 31
0.0
  0
LINE
  5
138
  8
0
 10
88.6716
 20
14.252
 30
0.0
 11
87.7437
 21
14.5334
 31
0.0
  0
LINE
  5
139
  8
0
 10
87.7437
 20
14.5334
 30
0.0
 11
87.2601
 21
14.5811
 31
0.0
  0
LINE
  5
13A
  8
0
 10
87.2601
 20
14.5811
 30
0.0
 11
86.787
 21
14.6914
 31
0.0
  0
LINE
  5
13B
  8
0
 10
86.787
 20
14.6914
 30
0.0
 11
85.8179
 21
14.7231
 31
0.0
  0
LINE
  5
13C
  8
0
 10
85.8179
 20
14.7231
 30
0.0
 11
84.8528
 21
14.8182
 31
0.0
  0
LINE
  5
13D
  8
0
 10
84.8528
 20
14.8182
 30
0.0
 11
84.3693
 21
14.7706
 31
0.0
  0
LINE
  5
13E
  8
0
 10
84.3693
 20
14.7706
 30
0.0
 11
83.8837
 21
14.7865
 31
0.0
  0
LINE
  5
13F
  8
0
 10
83.8837
 20
14.7865
 30
0.0
 11
82.9269
 21
14.6285
 31
0.0
  0
LINE
  5
140
  8
0
 10
82.9269
 20
14.6285
 30
0.0
 11
81.9619
 21
14.5334
 31
0.0
  0
LINE
  5
141
  8
0
 10
81.9619
 20
14.5334
 30
0.0
 11
81.6087
 21
14.4263
 31
0.0
  0
LINE
  5
142
  8
0
 10
81.6087
 20
14.4263
 30
0.0
 11
53.5384
 21
54.5149
 31
0.0
  0
LINE
  5
143
  8
0
 10
53.5384
 20
54.5149
 30
0.0
 11
46.7932
 21
49.7919
 31
0.0
  0
LINE
  5
144
  8
0
 10
46.7932
 20
49.7919
 30
0.0
 11
46.9765
 21
49.53
 31
0.0
  0
LINE
  5
145
  8
0
 10
46.9765
 20
49.53
 30
0.0
 11
40.5758
 21
44.277
 31
0.0
  0
LINE
  5
146
  8
0
 10
40.5758
 20
44.277
 30
0.0
 11
39.8184
 21
43.3541
 31
0.0
  0
LINE
  5
147
  8
0
 10
39.8184
 20
43.3541
 30
0.0
 11
42.2771
 21
38.139
 31
0.0
  0
LINE
  5
148
  8
0
 10
42.2771
 20
38.139
 30
0.0
 11
44.277
 21
40.5758
 31
0.0
  0
LINE
  5
149
  8
0
 10
44.277
 20
40.5758
 30
0.0
 11
49.9731
 21
45.2505
 31
0.0
  0
LINE
  5
14A
  8
0
 10
49.9731
 20
45.2505
 30
0.0
 11
74.3458
 21
10.4427
 31
0.0
  0
LINE
  5
14B
  8
0
 10
74.3458
 20
10.4427
 30
0.0
 11
74.0665
 21
10.1024
 31
0.0
  0
LINE
  5
14C
  8
0
 10
74.0665
 20
10.1024
 30
0.0
 11
73.7119
 21
9.77029
 31
0.0
  0
LINE
  5
14D
  8
0
 10
73.7119
 20
9.77029
 30
0.0
 11
73.1471
 21
8.9821
 31
0.0
  0
LINE
  5
14E
  8
0
 10
73.1471
 20
8.9821
 30
0.0
 11
72.5319
 21
8.23253
 31
0.0
  0
LINE
  5
14F
  8
0
 10
72.5319
 20
8.23253
 30
0.0
 11
72.3029
 21
7.80403
 31
0.0
  0
LINE
  5
150
  8
0
 10
72.3029
 20
7.80403
 30
0.0
 11
72.0199
 21
7.40909
 31
0.0
  0
LINE
  5
151
  8
0
 10
72.0199
 20
7.40909
 30
0.0
 11
71.6197
 21
6.52585
 31
0.0
  0
LINE
  5
152
  8
0
 10
71.6197
 20
6.52585
 30
0.0
 11
71.1626
 21
5.67067
 31
0.0
  0
LINE
  5
153
  8
0
 10
71.1626
 20
5.67067
 30
0.0
 11
71.0215
 21
5.20564
 31
0.0
  0
LINE
  5
154
  8
0
 10
71.0215
 20
5.20564
 30
0.0
 11
70.821
 21
4.76314
 31
0.0
  0
LINE
  5
155
  8
0
 10
70.821
 20
4.76314
 30
0.0
 11
70.6009
 21
3.81891
 31
0.0
  0
LINE
  5
156
  8
0
 10
70.6009
 20
3.81891
 30
0.0
 11
70.3194
 21
2.89087
 31
0.0
  0
LINE
  5
157
  8
0
 10
70.3194
 20
2.89087
 30
0.0
 11
70.2717
 21
2.40733
 31
0.0
  0
LINE
  5
158
  8
0
 10
70.2717
 20
2.40733
 30
0.0
 11
70.1614
 21
1.93416
 31
0.0
  0
LINE
  5
159
  8
0
 10
70.1614
 20
1.93416
 30
0.0
 11
70.1297
 21
0.964996
 31
0.0
  0
LINE
  5
15A
  8
0
 10
70.1297
 20
0.964996
 30
0.0
 11
70.0346
 21
0.0
 31
0.0
  0
LINE
  5
15B
  8
0
 10
70.0346
 20
0.0
 30
0.0
 11
70.0823
 21
-0.483643
 31
0.0
  0
LINE
  5
15C
  8
0
 10
70.0823
 20
-0.483643
 30
0.0
 11
70.0664
 21
-0.969147
 31
0.0
  0
LINE
  5
15D
  8
0
 10
70.0664
 20
-0.969147
 30
0.0
 11
70.2243
 21
-1.92587
 31
0.0
  0
LINE
  5
15E
  8
0
 10
70.2243
 20
-1.92587
 30
0.0
 11
70.3194
 21
-2.89087
 31
0.0
  0
LINE
  5
15F
  8
0
 10
70.3194
 20
-2.89087
 30
0.0
 11
70.4604
 21
-3.35583
 31
0.0
  0
LINE
  5
160
  8
0
 10
70.4604
 20
-3.35583
 30
0.0
 11
70.5396
 21
-3.83522
 31
0.0
  0
LINE
  5
161
  8
0
 10
70.5396
 20
-3.83522
 30
0.0
 11
70.8811
 21
-4.74274
 31
0.0
  0
LINE
  5
162
  8
0
 10
70.8811
 20
-4.74274
 30
0.0
 11
71.1626
 21
-5.67067
 31
0.0
  0
LINE
  5
163
  8
0
 10
71.1626
 20
-5.67067
 30
0.0
 11
71.3916
 21
-6.09917
 31
0.0
  0
LINE
  5
164
  8
0
 10
71.3916
 20
-6.09917
 30
0.0
 11
71.5628
 21
-6.55391
 31
0.0
  0
LINE
  5
165
  8
0
 10
71.5628
 20
-6.55391
 30
0.0
 11
72.0748
 21
-7.37724
 31
0.0
  0
LINE
  5
166
  8
0
 10
72.0748
 20
-7.37724
 30
0.0
 11
72.5319
 21
-8.23253
 31
0.0
  0
LINE
  5
167
  8
0
 10
72.5319
 20
-8.23253
 30
0.0
 11
72.8402
 21
-8.60812
 31
0.0
  0
LINE
  5
168
  8
0
 10
72.8402
 20
-8.60812
 30
0.0
 11
73.0968
 21
-9.02074
 31
0.0
  0
LINE
  5
169
  8
0
 10
73.0968
 20
-9.02074
 30
0.0
 11
73.7595
 21
-9.72835
 31
0.0
  0
LINE
  5
16A
  8
0
 10
73.7595
 20
-9.72835
 30
0.0
 11
73.8501
 21
-9.83867
 31
0.0
  0
LINE
  5
16B
  8
0
 10
73.8501
 20
-9.83867
 30
0.0
 11
51.1293
 21
-46.1994
 31
0.0
  0
LINE
  5
16C
  8
0
 10
51.1293
 20
-46.1994
 30
0.0
 11
45.042
 21
-41.2037
 31
0.0
  0
LINE
  5
16D
  8
0
 10
45.042
 20
-41.2037
 30
0.0
 11
39.868
 21
-43.4146
 31
0.0
  0
LINE
  5
16E
  8
0
 10
39.868
 20
-43.4146
 30
0.0
 11
40.5758
 21
-44.277
 31
0.0
  0
LINE
  5
16F
  8
0
 10
40.5758
 20
-44.277
 30
0.0
 11
48.3459
 21
-50.6538
 31
0.0
  0
LINE
  5
170
  8
0
 10
48.3459
 20
-50.6538
 30
0.0
 11
48.1792
 21
-50.9206
 31
0.0
  0
LINE
  5
171
  8
0
 10
48.1792
 20
-50.9206
 30
0.0
 11
55.1623
 21
-55.2841
 31
0.0
  0
LINE
  5
172
  8
0
 10
55.1623
 20
-55.2841
 30
0.0
 11
80.8316
 21
-14.2048
 31
0.0
  0
LINE
  5
173
  8
0
 10
84.7551
 20
-1.49037
 30
0.0
 11
84.6091
 21
-1.476
 31
0.0
  0
LINE
  5
174
  8
0
 10
84.6091
 20
-1.476
 30
0.0
 11
84.4662
 21
-1.44267
 31
0.0
  0
LINE
  5
175
  8
0
 10
84.4662
 20
-1.44267
 30
0.0
 11
84.3259
 21
-1.40009
 31
0.0
  0
LINE
  5
176
  8
0
 10
84.3259
 20
-1.40009
 30
0.0
 11
84.1922
 21
-1.33954
 31
0.0
  0
LINE
  5
177
  8
0
 10
84.1922
 20
-1.33954
 30
0.0
 11
84.0627
 21
-1.27032
 31
0.0
  0
LINE
  5
178
  8
0
 10
84.0627
 20
-1.27032
 30
0.0
 11
83.9436
 21
-1.18492
 31
0.0
  0
LINE
  5
179
  8
0
 10
83.9436
 20
-1.18492
 30
0.0
 11
83.8302
 21
-1.09186
 31
0.0
  0
LINE
  5
17A
  8
0
 10
83.8302
 20
-1.09186
 30
0.0
 11
83.7299
 21
-0.984772
 31
0.0
  0
LINE
  5
17B
  8
0
 10
83.7299
 20
-0.984772
 30
0.0
 11
83.6368
 21
-0.871368
 31
0.0
  0
LINE
  5
17C
  8
0
 10
83.6368
 20
-0.871368
 30
0.0
 11
83.5593
 21
-0.74678
 31
0.0
  0
LINE
  5
17D
  8
0
 10
83.5593
 20
-0.74678
 30
0.0
 11
83.4902
 21
-0.617386
 31
0.0
  0
LINE
  5
17E
  8
0
 10
83.4902
 20
-0.617386
 30
0.0
 11
83.4385
 21
-0.480209
 31
0.0
  0
LINE
  5
17F
  8
0
 10
83.4385
 20
-0.480209
 30
0.0
 11
83.3959
 21
-0.33963
 31
0.0
  0
LINE
  5
180
  8
0
 10
83.3959
 20
-0.33963
 30
0.0
 11
83.372
 21
-0.194946
 31
0.0
  0
LINE
  5
181
  8
0
 10
83.372
 20
-0.194946
 30
0.0
 11
83.3576
 21
-0.0489502
 31
0.0
  0
LINE
  5
182
  8
0
 10
83.3576
 20
-0.0489502
 30
0.0
 11
83.3624
 21
0.0975494
 31
0.0
  0
LINE
  5
183
  8
0
 10
83.3624
 20
0.0975494
 30
0.0
 11
83.3768
 21
0.243683
 31
0.0
  0
LINE
  5
184
  8
0
 10
83.3768
 20
0.243683
 30
0.0
 11
83.4101
 21
0.386551
 31
0.0
  0
LINE
  5
185
  8
0
 10
83.4101
 20
0.386551
 30
0.0
 11
83.4527
 21
0.526947
 31
0.0
  0
LINE
  5
186
  8
0
 10
83.4527
 20
0.526947
 30
0.0
 11
83.5133
 21
0.660568
 31
0.0
  0
LINE
  5
187
  8
0
 10
83.5133
 20
0.660568
 30
0.0
 11
83.5824
 21
0.789978
 31
0.0
  0
LINE
  5
188
  8
0
 10
83.5824
 20
0.789978
 30
0.0
 11
83.6679
 21
0.909225
 31
0.0
  0
LINE
  5
189
  8
0
 10
83.6679
 20
0.909225
 30
0.0
 11
83.761
 21
1.02263
 31
0.0
  0
LINE
  5
18A
  8
0
 10
83.761
 20
1.02263
 30
0.0
 11
83.868
 21
1.12292
 31
0.0
  0
LINE
  5
18B
  8
0
 10
83.868
 20
1.12292
 30
0.0
 11
83.9814
 21
1.21599
 31
0.0
  0
LINE
  5
18C
  8
0
 10
83.9814
 20
1.21599
 30
0.0
 11
84.1059
 21
1.29341
 31
0.0
  0
LINE
  5
18D
  8
0
 10
84.1059
 20
1.29341
 30
0.0
 11
84.2354
 21
1.36263
 31
0.0
  0
LINE
  5
18E
  8
0
 10
84.2354
 20
1.36263
 30
0.0
 11
84.3727
 21
1.41431
 31
0.0
  0
LINE
  5
18F
  8
0
 10
84.3727
 20
1.41431
 30
0.0
 11
84.5131
 21
1.45689
 31
0.0
  0
LINE
  5
190
  8
0
 10
84.5131
 20
1.45689
 30
0.0
 11
84.6579
 21
1.48079
 31
0.0
  0
LINE
  5
191
  8
0
 10
84.6579
 20
1.48079
 30
0.0
 11
84.8039
 21
1.49518
 31
0.0
  0
LINE
  5
192
  8
0
 10
84.8039
 20
1.49518
 30
0.0
 11
84.9505
 21
1.49037
 31
0.0
  0
LINE
  5
193
  8
0
 10
84.9505
 20
1.49037
 30
0.0
 11
85.0965
 21
1.476
 31
0.0
  0
LINE
  5
194
  8
0
 10
85.0965
 20
1.476
 30
0.0
 11
85.2394
 21
1.44267
 31
0.0
  0
LINE
  5
195
  8
0
 10
85.2394
 20
1.44267
 30
0.0
 11
85.3798
 21
1.40009
 31
0.0
  0
LINE
  5
196
  8
0
 10
85.3798
 20
1.40009
 30
0.0
 11
85.5134
 21
1.33954
 31
0.0
  0
LINE
  5
197
  8
0
 10
85.5134
 20
1.33954
 30
0.0
 11
85.6428
 21
1.27036
 31
0.0
  0
LINE
  5
198
  8
0
 10
85.6428
 20
1.27036
 30
0.0
 11
85.762
 21
1.18492
 31
0.0
  0
LINE
  5
199
  8
0
 10
85.762
 20
1.18492
 30
0.0
 11
85.8754
 21
1.09186
 31
0.0
  0
LINE
  5
19A
  8
0
 10
85.8754
 20
1.09186
 30
0.0
 11
85.9757
 21
0.984772
 31
0.0
  0
LINE
  5
19B
  8
0
 10
85.9757
 20
0.984772
 30
0.0
 11
86.0688
 21
0.871368
 31
0.0
  0
LINE
  5
19C
  8
0
 10
86.0688
 20
0.871368
 30
0.0
 11
86.1463
 21
0.74678
 31
0.0
  0
LINE
  5
19D
  8
0
 10
86.1463
 20
0.74678
 30
0.0
 11
86.2154
 21
0.617386
 31
0.0
  0
LINE
  5
19E
  8
0
 10
86.2154
 20
0.617386
 30
0.0
 11
86.2671
 21
0.480087
 31
0.0
  0
LINE
  5
19F
  8
0
 10
86.2671
 20
0.480087
 30
0.0
 11
86.3097
 21
0.339691
 31
0.0
  0
LINE
  5
1A0
  8
0
 10
86.3097
 20
0.339691
 30
0.0
 11
86.3336
 21
0.194946
 31
0.0
  0
LINE
  5
1A1
  8
0
 10
86.3336
 20
0.194946
 30
0.0
 11
86.348
 21
0.0489502
 31
0.0
  0
LINE
  5
1A2
  8
0
 10
86.348
 20
0.0489502
 30
0.0
 11
86.3432
 21
-0.0976868
 31
0.0
  0
LINE
  5
1A3
  8
0
 10
86.3432
 20
-0.0976868
 30
0.0
 11
86.3288
 21
-0.243683
 31
0.0
  0
LINE
  5
1A4
  8
0
 10
86.3288
 20
-0.243683
 30
0.0
 11
86.2955
 21
-0.386551
 31
0.0
  0
LINE
  5
1A5
  8
0
 10
86.2955
 20
-0.386551
 30
0.0
 11
86.2529
 21
-0.526947
 31
0.0
  0
LINE
  5
1A6
  8
0
 10
86.2529
 20
-0.526947
 30
0.0
 11
86.1924
 21
-0.660568
 31
0.0
  0
LINE
  5
1A7
  8
0
 10
86.1924
 20
-0.660568
 30
0.0
 11
86.1232
 21
-0.789978
 31
0.0
  0
LINE
  5
1A8
  8
0
 10
86.1232
 20
-0.789978
 30
0.0
 11
86.0378
 21
-0.909225
 31
0.0
  0
LINE
  5
1A9
  8
0
 10
86.0378
 20
-0.909225
 30
0.0
 11
85.9447
 21
-1.02263
 31
0.0
  0
LINE
  5
1AA
  8
0
 10
85.9447
 20
-1.02263
 30
0.0
 11
85.8376
 21
-1.12292
 31
0.0
  0
LINE
  5
1AB
  8
0
 10
85.8376
 20
-1.12292
 30
0.0
 11
85.7242
 21
-1.21599
 31
0.0
  0
LINE
  5
1AC
  8
0
 10
85.7242
 20
-1.21599
 30
0.0
 11
85.5996
 21
-1.29347
 31
0.0
  0
LINE
  5
1AD
  8
0
 10
85.5996
 20
-1.29347
 30
0.0
 11
85.4702
 21
-1.36263
 31
0.0
  0
LINE
  5
1AE
  8
0
 10
85.4702
 20
-1.36263
 30
0.0
 11
85.3329
 21
-1.41431
 31
0.0
  0
LINE
  5
1AF
  8
0
 10
85.3329
 20
-1.41431
 30
0.0
 11
85.1925
 21
-1.45689
 31
0.0
  0
LINE
  5
1B0
  8
0
 10
85.1925
 20
-1.45689
 30
0.0
 11
85.0478
 21
-1.48079
 31
0.0
  0
LINE
  5
1B1
  8
0
 10
85.0478
 20
-1.48079
 30
0.0
 11
84.9017
 21
-1.49518
 31
0.0
  0
LINE
  5
1B2
  8
0
 10
84.9017
 20
-1.49518
 30
0.0
 11
84.7551
 21
-1.49037
 31
0.0
  0
TEXT
  5
1E8
  8
0
 62
5
 10
0.0
 20
0.0
 30
0.0
 40
3.0
  1
7
  7
OpenSans-Regular
  0
TEXT
  5
20B
  8
0
 62
5
 10
0.0
 20
0.0
 30
0.0
 40
3.0
  1
escapement_fork
  7
OpenSans-Regular
  0
ENDSEC
  0
EOF
