  0
SECTION
  2
BLOCKS
  0
ENDSEC
  0
SECTION
  2
ENTITIES
  0
LINE
  8
0
 10
114.21
 20
-5.39432
 11
115.242
 21
-5.08133
  0
LINE
  8
0
 10
115.242
 20
-5.08133
 11
116.193
 21
-4.57307
  0
LINE
  8
0
 10
116.193
 20
-4.57307
 11
117.026
 21
-3.88908
  0
LINE
  8
0
 10
117.026
 20
-3.88908
 11
117.71
 21
-3.05563
  0
LINE
  8
0
 10
117.71
 20
-3.05563
 11
118.218
 21
-2.10475
  0
LINE
  8
0
 10
118.218
 20
-2.10475
 11
118.531
 21
-1.07298
  0
LINE
  8
0
 10
118.531
 20
-1.07298
 11
118.637
 21
0
  0
LINE
  8
0
 10
118.637
 20
0
 11
118.531
 21
1.07298
  0
LINE
  8
0
 10
118.531
 20
1.07298
 11
118.218
 21
2.10475
  0
LINE
  8
0
 10
118.218
 20
2.10475
 11
117.71
 21
3.05563
  0
LINE
  8
0
 10
117.71
 20
3.05563
 11
117.026
 21
3.88908
  0
LINE
  8
0
 10
117.026
 20
3.88908
 11
116.193
 21
4.57307
  0
LINE
  8
0
 10
116.193
 20
4.57307
 11
115.242
 21
5.08133
  0
LINE
  8
0
 10
115.242
 20
5.08133
 11
114.21
 21
5.39432
  0
LINE
  8
0
 10
114.21
 20
5.39432
 11
113.137
 21
5.5
  0
LINE
  8
0
 10
113.137
 20
5.5
 11
0
 21
5.5
  0
LINE
  8
0
 10
0
 20
5.5
 11
-1.07298
 21
5.39432
  0
LINE
  8
0
 10
-1.07298
 20
5.39432
 11
-2.10475
 21
5.08133
  0
LINE
  8
0
 10
-2.10475
 20
5.08133
 11
-3.05563
 21
4.57307
  0
LINE
  8
0
 10
-3.05563
 20
4.57307
 11
-3.88908
 21
3.88908
  0
LINE
  8
0
 10
-3.88908
 20
3.88908
 11
-4.57307
 21
3.05563
  0
LINE
  8
0
 10
-4.57307
 20
3.05563
 11
-5.08133
 21
2.10475
  0
LINE
  8
0
 10
-5.08133
 20
2.10475
 11
-5.39432
 21
1.07298
  0
LINE
  8
0
 10
-5.39432
 20
1.07298
 11
-5.5
 21
0
  0
LINE
  8
0
 10
-5.5
 20
0
 11
-5.39432
 21
-1.07298
  0
LINE
  8
0
 10
-5.39432
 20
-1.07298
 11
-5.08133
 21
-2.10475
  0
LINE
  8
0
 10
-5.08133
 20
-2.10475
 11
-4.57307
 21
-3.05563
  0
LINE
  8
0
 10
-4.57307
 20
-3.05563
 11
-3.88908
 21
-3.88908
  0
LINE
  8
0
 10
-3.88908
 20
-3.88908
 11
-3.05563
 21
-4.57307
  0
LINE
  8
0
 10
-3.05563
 20
-4.57307
 11
-2.10475
 21
-5.08133
  0
LINE
  8
0
 10
-2.10475
 20
-5.08133
 11
-1.07298
 21
-5.39432
  0
LINE
  8
0
 10
-1.07298
 20
-5.39432
 11
0
 21
-5.5
  0
LINE
  8
0
 10
0
 20
-5.5
 11
113.137
 21
-5.5
  0
LINE
  8
0
 10
113.137
 20
-5.5
 11
114.21
 21
-5.39432
  0
LINE
  8
0
 10
-0.292633
 20
-1.47118
 11
-0.57402
 21
-1.38582
  0
LINE
  8
0
 10
-0.57402
 20
-1.38582
 11
-0.833344
 21
-1.24719
  0
LINE
  8
0
 10
-0.833344
 20
-1.24719
 11
-1.06065
 21
-1.06065
  0
LINE
  8
0
 10
-1.06065
 20
-1.06065
 11
-1.24719
 21
-0.833344
  0
LINE
  8
0
 10
-1.24719
 20
-0.833344
 11
-1.38582
 21
-0.57402
  0
LINE
  8
0
 10
-1.38582
 20
-0.57402
 11
-1.47118
 21
-0.292633
  0
LINE
  8
0
 10
-1.47118
 20
-0.292633
 11
-1.5
 21
0
  0
LINE
  8
0
 10
-1.5
 20
0
 11
-1.47118
 21
0.292633
  0
LINE
  8
0
 10
-1.47118
 20
0.292633
 11
-1.38582
 21
0.57402
  0
LINE
  8
0
 10
-1.38582
 20
0.57402
 11
-1.24719
 21
0.833344
  0
LINE
  8
0
 10
-1.24719
 20
0.833344
 11
-1.06065
 21
1.06065
  0
LINE
  8
0
 10
-1.06065
 20
1.06065
 11
-0.833344
 21
1.24719
  0
LINE
  8
0
 10
-0.833344
 20
1.24719
 11
-0.57402
 21
1.38582
  0
LINE
  8
0
 10
-0.57402
 20
1.38582
 11
-0.292633
 21
1.47118
  0
LINE
  8
0
 10
-0.292633
 20
1.47118
 11
0
 21
1.5
  0
LINE
  8
0
 10
0
 20
1.5
 11
0.292633
 21
1.47118
  0
LINE
  8
0
 10
0.292633
 20
1.47118
 11
0.57402
 21
1.38582
  0
LINE
  8
0
 10
0.57402
 20
1.38582
 11
0.833344
 21
1.24719
  0
LINE
  8
0
 10
0.833344
 20
1.24719
 11
1.06065
 21
1.06065
  0
LINE
  8
0
 10
1.06065
 20
1.06065
 11
1.24719
 21
0.833344
  0
LINE
  8
0
 10
1.24719
 20
0.833344
 11
1.38582
 21
0.57402
  0
LINE
  8
0
 10
1.38582
 20
0.57402
 11
1.47118
 21
0.292633
  0
LINE
  8
0
 10
1.47118
 20
0.292633
 11
1.5
 21
0
  0
LINE
  8
0
 10
1.5
 20
0
 11
1.47118
 21
-0.292633
  0
LINE
  8
0
 10
1.47118
 20
-0.292633
 11
1.38582
 21
-0.57402
  0
LINE
  8
0
 10
1.38582
 20
-0.57402
 11
1.24719
 21
-0.833344
  0
LINE
  8
0
 10
1.24719
 20
-0.833344
 11
1.06065
 21
-1.06065
  0
LINE
  8
0
 10
1.06065
 20
-1.06065
 11
0.833344
 21
-1.24719
  0
LINE
  8
0
 10
0.833344
 20
-1.24719
 11
0.57402
 21
-1.38582
  0
LINE
  8
0
 10
0.57402
 20
-1.38582
 11
0.292633
 21
-1.47118
  0
LINE
  8
0
 10
0.292633
 20
-1.47118
 11
0
 21
-1.5
  0
LINE
  8
0
 10
0
 20
-1.5
 11
-0.292633
 21
-1.47118
  0
LINE
  8
0
 10
112.844
 20
-1.47118
 11
112.563
 21
-1.38582
  0
LINE
  8
0
 10
112.563
 20
-1.38582
 11
112.304
 21
-1.24719
  0
LINE
  8
0
 10
112.304
 20
-1.24719
 11
112.076
 21
-1.06065
  0
LINE
  8
0
 10
112.076
 20
-1.06065
 11
111.89
 21
-0.833344
  0
LINE
  8
0
 10
111.89
 20
-0.833344
 11
111.751
 21
-0.57402
  0
LINE
  8
0
 10
111.751
 20
-0.57402
 11
111.666
 21
-0.292633
  0
LINE
  8
0
 10
111.666
 20
-0.292633
 11
111.637
 21
0
  0
LINE
  8
0
 10
111.637
 20
0
 11
111.666
 21
0.292633
  0
LINE
  8
0
 10
111.666
 20
0.292633
 11
111.751
 21
0.57402
  0
LINE
  8
0
 10
111.751
 20
0.57402
 11
111.89
 21
0.833344
  0
LINE
  8
0
 10
111.89
 20
0.833344
 11
112.076
 21
1.06065
  0
LINE
  8
0
 10
112.076
 20
1.06065
 11
112.304
 21
1.24719
  0
LINE
  8
0
 10
112.304
 20
1.24719
 11
112.563
 21
1.38582
  0
LINE
  8
0
 10
112.563
 20
1.38582
 11
112.844
 21
1.47118
  0
LINE
  8
0
 10
112.844
 20
1.47118
 11
113.137
 21
1.5
  0
LINE
  8
0
 10
113.137
 20
1.5
 11
113.43
 21
1.47118
  0
LINE
  8
0
 10
113.43
 20
1.47118
 11
113.711
 21
1.38582
  0
LINE
  8
0
 10
113.711
 20
1.38582
 11
113.97
 21
1.24719
  0
LINE
  8
0
 10
113.97
 20
1.24719
 11
114.198
 21
1.06065
  0
LINE
  8
0
 10
114.198
 20
1.06065
 11
114.384
 21
0.833344
  0
LINE
  8
0
 10
114.384
 20
0.833344
 11
114.523
 21
0.57402
  0
LINE
  8
0
 10
114.523
 20
0.57402
 11
114.608
 21
0.292633
  0
LINE
  8
0
 10
114.608
 20
0.292633
 11
114.637
 21
0
  0
LINE
  8
0
 10
114.637
 20
0
 11
114.608
 21
-0.292633
  0
LINE
  8
0
 10
114.608
 20
-0.292633
 11
114.523
 21
-0.57402
  0
LINE
  8
0
 10
114.523
 20
-0.57402
 11
114.384
 21
-0.833344
  0
LINE
  8
0
 10
114.384
 20
-0.833344
 11
114.198
 21
-1.06065
  0
LINE
  8
0
 10
114.198
 20
-1.06065
 11
113.97
 21
-1.24719
  0
LINE
  8
0
 10
113.97
 20
-1.24719
 11
113.711
 21
-1.38582
  0
LINE
  8
0
 10
113.711
 20
-1.38582
 11
113.43
 21
-1.47118
  0
LINE
  8
0
 10
113.43
 20
-1.47118
 11
113.137
 21
-1.5
  0
LINE
  8
0
 10
113.137
 20
-1.5
 11
112.844
 21
-1.47118
  0
ENDSEC
  0
SECTION
  2
OBJECTS
  0
DICTIONARY
  0
ENDSEC
  0
EOF
