  0
SECTION
  2
HEADER
  9
$ACADVER
  1
AC1009
  9
$DWGCODEPAGE
  3
ANSI_1252
  9
$INSBASE
 10
0.0
 20
0.0
 30
0.0
  9
$EXTMIN
 10
1e+20
 20
1e+20
 30
1e+20
  9
$EXTMAX
 10
-1e+20
 20
-1e+20
 30
-1e+20
  9
$LIMMIN
 10
0.0
 20
0.0
  9
$LIMMAX
 10
420.0
 20
297.0
  9
$ORTHOMODE
 70
0
  9
$REGENMODE
 70
1
  9
$FILLMODE
 70
1
  9
$DRAGMODE
 70
2
  9
$QTEXTMODE
 70
0
  9
$MIRRTEXT
 70
1
  9
$OSMODE
 70
20583
  9
$LTSCALE
 40
1.0
  9
$ATTMODE
 70
1
  9
$TEXTSIZE
 40
2.5
  9
$TRACEWID
 40
1.0
  9
$TEXTSTYLE
  7
Standard
  9
$CLAYER
  8
0
  9
$CELTYPE
  6
ByLayer
  9
$CECOLOR
 62
256
  9
$DIMSCALE
 40
1.0
  9
$DIMASZ
 40
2.5
  9
$DIMEXO
 40
0.625
  9
$DIMDLI
 40
3.75
  9
$DIMRND
 40
0.0
  9
$DIMDLE
 40
0.0
  9
$DIMEXE
 40
1.25
  9
$DIMTP
 40
0.0
  9
$DIMTM
 40
0.0
  9
$DIMTXT
 40
2.5
  9
$DIMCEN
 40
2.5
  9
$DIMTSZ
 40
0.0
  9
$DIMTOL
 70
0
  9
$DIMLIM
 70
0
  9
$DIMTIH
 70
0
  9
$DIMTOH
 70
0
  9
$DIMSE1
 70
0
  9
$DIMSE2
 70
0
  9
$DIMTAD
 70
1
  9
$DIMZIN
 70
8
  9
$DIMBLK
  1

  9
$DIMASO
 70
1
  9
$DIMSHO
 70
1
  9
$DIMPOST
  1

  9
$DIMAPOST
  1

  9
$DIMALT
 70
0
  9
$DIMALTD
 70
3
  9
$DIMALTF
 40
0.03937007874
  9
$DIMLFAC
 40
1.0
  9
$DIMTOFL
 70
1
  9
$DIMTVP
 40
0.0
  9
$DIMTIX
 70
0
  9
$DIMSOXD
 70
0
  9
$DIMSAH
 70
0
  9
$DIMBLK1
  1

  9
$DIMBLK2
  1

  9
$DIMSTYLE
  2
ISO-25
  9
$DIMCLRD
 70
0
  9
$DIMCLRE
 70
0
  9
$DIMCLRT
 70
0
  9
$DIMTFAC
 40
1.0
  9
$DIMGAP
 40
0.625
  9
$COORDS
 70
1
  9
$ATTDIA
 70
0
  9
$ATTREQ
 70
1
  9
$HANDLING
 70
1
  9
$LUNITS
 70
2
  9
$LUPREC
 70
4
  9
$SKETCHINC
 40
1.0
  9
$FILLETRAD
 40
10.0
  9
$AUNITS
 70
0
  9
$AUPREC
 70
2
  9
$MENU
  1
.
  9
$ELEVATION
 40
0.0
  9
$PELEVATION
 40
0.0
  9
$THICKNESS
 40
0.0
  9
$LIMCHECK
 70
0
  9
$CHAMFERA
 40
0.0
  9
$CHAMFERB
 40
0.0
  9
$SKPOLY
 70
0
  9
$TDCREATE
 40
2459992.969849537
  9
$TDUPDATE
 40
2459992.969849537
  9
$TDINDWG
 40
0.0
  9
$TDUSRTIMER
 40
0.0
  9
$USRTIMER
 70
1
  9
$ANGBASE
 50
0.0
  9
$ANGDIR
 70
0
  9
$PDMODE
 70
0
  9
$PDSIZE
 40
0.0
  9
$PLINEWID
 40
0.0
  9
$SPLFRAME
 70
0
  9
$SPLINETYPE
 70
6
  9
$SPLINESEGS
 70
8
  9
$HANDSEED
  5
1DF
  9
$SURFTAB1
 70
6
  9
$SURFTAB2
 70
6
  9
$SURFTYPE
 70
6
  9
$SURFU
 70
6
  9
$SURFV
 70
6
  9
$UCSNAME
  2

  9
$UCSORG
 10
0.0
 20
0.0
 30
0.0
  9
$UCSXDIR
 10
1.0
 20
0.0
 30
0.0
  9
$UCSYDIR
 10
0.0
 20
1.0
 30
0.0
  9
$PUCSNAME
  2

  9
$PUCSORG
 10
0.0
 20
0.0
 30
0.0
  9
$PUCSXDIR
 10
1.0
 20
0.0
 30
0.0
  9
$PUCSYDIR
 10
0.0
 20
1.0
 30
0.0
  9
$USERI1
 70
0
  9
$USERI2
 70
0
  9
$USERI3
 70
0
  9
$USERI4
 70
0
  9
$USERI5
 70
0
  9
$USERR1
 40
0.0
  9
$USERR2
 40
0.0
  9
$USERR3
 40
0.0
  9
$USERR4
 40
0.0
  9
$USERR5
 40
0.0
  9
$WORLDVIEW
 70
1
  9
$SHADEDGE
 70
3
  9
$SHADEDIF
 70
70
  9
$TILEMODE
 70
1
  9
$MAXACTVP
 70
64
  9
$PLIMCHECK
 70
0
  9
$PEXTMIN
 10
1e+20
 20
1e+20
 30
1e+20
  9
$PEXTMAX
 10
-1e+20
 20
-1e+20
 30
-1e+20
  9
$PLIMMIN
 10
0.0
 20
0.0
  9
$PLIMMAX
 10
420.0
 20
297.0
  9
$UNITMODE
 70
0
  9
$VISRETAIN
 70
1
  9
$PLINEGEN
 70
0
  9
$PSLTSCALE
 70
1
  0
ENDSEC
  0
SECTION
  2
TABLES
  0
TABLE
  2
VPORT
 70
1
  0
VPORT
  5
1B1
  2
*Active
 70
0
 10
0.0
 20
0.0
 11
1.0
 21
1.0
 12
0.0
 22
0.0
 13
0.0
 23
0.0
 14
0.5
 24
0.5
 15
0.5
 25
0.5
 16
0.0
 26
0.0
 36
1.0
 17
0.0
 27
0.0
 37
0.0
 40
1000.0
 41
1.34
 42
50.0
 43
0.0
 44
0.0
 50
0.0
 51
0.0
 71
0
 72
1000
 73
1
 74
3
 75
0
 76
0
 77
0
 78
0
  0
ENDTAB
  0
TABLE
  2
LTYPE
 70
3
  0
LTYPE
  5
1B2
  2
ByBlock
 70
0
  3

 72
65
 73
0
 40
0.0
  0
LTYPE
  5
1B3
  2
ByLayer
 70
0
  3

 72
65
 73
0
 40
0.0
  0
LTYPE
  5
1B4
  2
Continuous
 70
0
  3

 72
65
 73
0
 40
0.0
  0
ENDTAB
  0
TABLE
  2
LAYER
 70
2
  0
LAYER
  5
1B5
  2
0
 70
0
 62
7
  6
Continuous
  0
LAYER
  5
1B6
  2
Defpoints
 70
0
 62
7
  6
Continuous
  0
ENDTAB
  0
TABLE
  2
STYLE
 70
1
  0
STYLE
  5
1B7
  2
Standard
 70
0
 40
0.0
 41
1.0
 50
0.0
 71
0
 42
2.5
  3
txt
  4

  0
ENDTAB
  0
TABLE
  2
VIEW
 70
0
  0
ENDTAB
  0
TABLE
  2
UCS
 70
0
  0
ENDTAB
  0
TABLE
  2
APPID
 70
3
  0
APPID
  5
1B8
  2
ACAD
 70
0
  0
APPID
  5
1BC
  2
HATCHBACKGROUNDCOLOR
 70
0
  0
APPID
  5
1BD
  2
EZDXF
 70
0
  0
ENDTAB
  0
TABLE
  2
DIMSTYLE
 70
1
  0
DIMSTYLE
105
1B9
  2
Standard
 70
0
  3

  4

  5

  6

  7

 40
1.0
 41
2.5
 42
0.625
 43
3.75
 44
1.25
 45
0.0
 46
0.0
 47
0.0
 48
0.0
140
2.5
141
2.5
142
0.0
143
0.03937007874
144
1.0
145
0.0
146
1.0
147
0.625
 71
0
 72
0
 73
0
 74
0
 75
0
 76
0
 77
1
 78
8
170
0
171
3
172
1
173
0
174
0
175
0
176
0
177
0
178
0
  0
ENDTAB
  0
ENDSEC
  0
SECTION
  2
BLOCKS
  0
BLOCK
  5
192
  8
0
  2
$Model_Space
 70
0
 10
0.0
 20
0.0
 30
0.0
  3
$Model_Space
  1

1001
EZDXF
1000
WRITTEN_BY_EZDXF
1000
1.0.1 @ 2023-02-16T13:16:35.731430+00:00
  0
ENDBLK
  5
193
  8
0
  0
BLOCK
  5
194
  8
0
  2
$Paper_Space
 70
0
 10
0.0
 20
0.0
 30
0.0
  3
$Paper_Space
  1

  0
ENDBLK
  5
195
  8
0
  0
ENDSEC
  0
SECTION
  2
ENTITIES
  0
LINE
  5
100
  8
0
 10
43.5969
 20
-79.3694
 30
0.0
 11
44.7225
 21
-79.028
 31
0.0
  0
LINE
  5
101
  8
0
 10
44.7225
 20
-79.028
 30
0.0
 11
45.7598
 21
-78.4735
 31
0.0
  0
LINE
  5
102
  8
0
 10
45.7598
 20
-78.4735
 30
0.0
 11
46.669
 21
-77.7273
 31
0.0
  0
LINE
  5
103
  8
0
 10
46.669
 20
-77.7273
 30
0.0
 11
47.4152
 21
-76.8181
 31
0.0
  0
LINE
  5
104
  8
0
 10
47.4152
 20
-76.8181
 30
0.0
 11
89.8416
 21
-3.33342
 31
0.0
  0
LINE
  5
105
  8
0
 10
89.8416
 20
-3.33342
 30
0.0
 11
90.3961
 21
-2.2961
 31
0.0
  0
LINE
  5
106
  8
0
 10
90.3961
 20
-2.2961
 30
0.0
 11
90.7375
 21
-1.17053
 31
0.0
  0
LINE
  5
107
  8
0
 10
90.7375
 20
-1.17053
 30
0.0
 11
90.8528
 21
0.0
 31
0.0
  0
LINE
  5
108
  8
0
 10
90.8528
 20
0.0
 30
0.0
 11
90.7375
 21
1.17053
 31
0.0
  0
LINE
  5
109
  8
0
 10
90.7375
 20
1.17053
 30
0.0
 11
90.3961
 21
2.2961
 31
0.0
  0
LINE
  5
10A
  8
0
 10
90.3961
 20
2.2961
 30
0.0
 11
89.8416
 21
3.33342
 31
0.0
  0
LINE
  5
10B
  8
0
 10
89.8416
 20
3.33342
 30
0.0
 11
89.0954
 21
4.24263
 31
0.0
  0
LINE
  5
10C
  8
0
 10
89.0954
 20
4.24263
 30
0.0
 11
88.1862
 21
4.98882
 31
0.0
  0
LINE
  5
10D
  8
0
 10
88.1862
 20
4.98882
 30
0.0
 11
87.1489
 21
5.54327
 31
0.0
  0
LINE
  5
10E
  8
0
 10
87.1489
 20
5.54327
 30
0.0
 11
86.0233
 21
5.8847
 31
0.0
  0
LINE
  5
10F
  8
0
 10
86.0233
 20
5.8847
 30
0.0
 11
84.8528
 21
6.0
 31
0.0
  0
LINE
  5
110
  8
0
 10
84.8528
 20
6.0
 30
0.0
 11
0.0
 21
6.0
 31
0.0
  0
LINE
  5
111
  8
0
 10
0.0
 20
6.0
 30
0.0
 11
-1.17053
 21
5.8847
 31
0.0
  0
LINE
  5
112
  8
0
 10
-1.17053
 20
5.8847
 30
0.0
 11
-2.2961
 21
5.54327
 31
0.0
  0
LINE
  5
113
  8
0
 10
-2.2961
 20
5.54327
 30
0.0
 11
-3.33342
 21
4.98882
 31
0.0
  0
LINE
  5
114
  8
0
 10
-3.33342
 20
4.98882
 30
0.0
 11
-4.24263
 21
4.24263
 31
0.0
  0
LINE
  5
115
  8
0
 10
-4.24263
 20
4.24263
 30
0.0
 11
-4.98882
 21
3.33342
 31
0.0
  0
LINE
  5
116
  8
0
 10
-4.98882
 20
3.33342
 30
0.0
 11
-5.54327
 21
2.2961
 31
0.0
  0
LINE
  5
117
  8
0
 10
-5.54327
 20
2.2961
 30
0.0
 11
-5.8847
 21
1.17053
 31
0.0
  0
LINE
  5
118
  8
0
 10
-5.8847
 20
1.17053
 30
0.0
 11
-6.0
 21
0.0
 31
0.0
  0
LINE
  5
119
  8
0
 10
-6.0
 20
0.0
 30
0.0
 11
-5.8847
 21
-1.17053
 31
0.0
  0
LINE
  5
11A
  8
0
 10
-5.8847
 20
-1.17053
 30
0.0
 11
-5.54327
 21
-2.2961
 31
0.0
  0
LINE
  5
11B
  8
0
 10
-5.54327
 20
-2.2961
 30
0.0
 11
-4.98882
 21
-3.33342
 31
0.0
  0
LINE
  5
11C
  8
0
 10
-4.98882
 20
-3.33342
 30
0.0
 11
37.4376
 21
-76.8181
 31
0.0
  0
LINE
  5
11D
  8
0
 10
37.4376
 20
-76.8181
 30
0.0
 11
38.1838
 21
-77.7273
 31
0.0
  0
LINE
  5
11E
  8
0
 10
38.1838
 20
-77.7273
 30
0.0
 11
39.093
 21
-78.4735
 31
0.0
  0
LINE
  5
11F
  8
0
 10
39.093
 20
-78.4735
 30
0.0
 11
40.1303
 21
-79.028
 31
0.0
  0
LINE
  5
120
  8
0
 10
40.1303
 20
-79.028
 30
0.0
 11
41.2559
 21
-79.3694
 31
0.0
  0
LINE
  5
121
  8
0
 10
41.2559
 20
-79.3694
 30
0.0
 11
42.4264
 21
-79.4847
 31
0.0
  0
LINE
  5
122
  8
0
 10
42.4264
 20
-79.4847
 30
0.0
 11
43.5969
 21
-79.3694
 31
0.0
  0
LINE
  5
123
  8
0
 10
84.4626
 20
-1.96156
 30
0.0
 11
84.0874
 21
-1.84775
 31
0.0
  0
LINE
  5
124
  8
0
 10
84.0874
 20
-1.84775
 30
0.0
 11
83.7417
 21
-1.66293
 31
0.0
  0
LINE
  5
125
  8
0
 10
83.7417
 20
-1.66293
 30
0.0
 11
83.4386
 21
-1.4142
 31
0.0
  0
LINE
  5
126
  8
0
 10
83.4386
 20
-1.4142
 30
0.0
 11
83.1899
 21
-1.11113
 31
0.0
  0
LINE
  5
127
  8
0
 10
83.1899
 20
-1.11113
 30
0.0
 11
83.0051
 21
-0.765366
 31
0.0
  0
LINE
  5
128
  8
0
 10
83.0051
 20
-0.765366
 30
0.0
 11
82.8912
 21
-0.390167
 31
0.0
  0
LINE
  5
129
  8
0
 10
82.8912
 20
-0.390167
 30
0.0
 11
82.8528
 21
0.0
 31
0.0
  0
LINE
  5
12A
  8
0
 10
82.8528
 20
0.0
 30
0.0
 11
82.8912
 21
0.390167
 31
0.0
  0
LINE
  5
12B
  8
0
 10
82.8912
 20
0.390167
 30
0.0
 11
83.0051
 21
0.765366
 31
0.0
  0
LINE
  5
12C
  8
0
 10
83.0051
 20
0.765366
 30
0.0
 11
83.1899
 21
1.11113
 31
0.0
  0
LINE
  5
12D
  8
0
 10
83.1899
 20
1.11113
 30
0.0
 11
83.4386
 21
1.4142
 31
0.0
  0
LINE
  5
12E
  8
0
 10
83.4386
 20
1.4142
 30
0.0
 11
83.7417
 21
1.66293
 31
0.0
  0
LINE
  5
12F
  8
0
 10
83.7417
 20
1.66293
 30
0.0
 11
84.0874
 21
1.84775
 31
0.0
  0
LINE
  5
130
  8
0
 10
84.0874
 20
1.84775
 30
0.0
 11
84.4626
 21
1.96156
 31
0.0
  0
LINE
  5
131
  8
0
 10
84.4626
 20
1.96156
 30
0.0
 11
84.8528
 21
2.0
 31
0.0
  0
LINE
  5
132
  8
0
 10
84.8528
 20
2.0
 30
0.0
 11
85.243
 21
1.96156
 31
0.0
  0
LINE
  5
133
  8
0
 10
85.243
 20
1.96156
 30
0.0
 11
85.6182
 21
1.84775
 31
0.0
  0
LINE
  5
134
  8
0
 10
85.6182
 20
1.84775
 30
0.0
 11
85.9639
 21
1.66293
 31
0.0
  0
LINE
  5
135
  8
0
 10
85.9639
 20
1.66293
 30
0.0
 11
86.267
 21
1.4142
 31
0.0
  0
LINE
  5
136
  8
0
 10
86.267
 20
1.4142
 30
0.0
 11
86.5157
 21
1.11113
 31
0.0
  0
LINE
  5
137
  8
0
 10
86.5157
 20
1.11113
 30
0.0
 11
86.7006
 21
0.765366
 31
0.0
  0
LINE
  5
138
  8
0
 10
86.7006
 20
0.765366
 30
0.0
 11
86.8144
 21
0.390167
 31
0.0
  0
LINE
  5
139
  8
0
 10
86.8144
 20
0.390167
 30
0.0
 11
86.8528
 21
0.0
 31
0.0
  0
LINE
  5
13A
  8
0
 10
86.8528
 20
0.0
 30
0.0
 11
86.8144
 21
-0.390167
 31
0.0
  0
LINE
  5
13B
  8
0
 10
86.8144
 20
-0.390167
 30
0.0
 11
86.7006
 21
-0.765366
 31
0.0
  0
LINE
  5
13C
  8
0
 10
86.7006
 20
-0.765366
 30
0.0
 11
86.5157
 21
-1.11113
 31
0.0
  0
LINE
  5
13D
  8
0
 10
86.5157
 20
-1.11113
 30
0.0
 11
86.267
 21
-1.4142
 31
0.0
  0
LINE
  5
13E
  8
0
 10
86.267
 20
-1.4142
 30
0.0
 11
85.9639
 21
-1.66293
 31
0.0
  0
LINE
  5
13F
  8
0
 10
85.9639
 20
-1.66293
 30
0.0
 11
85.6182
 21
-1.84775
 31
0.0
  0
LINE
  5
140
  8
0
 10
85.6182
 20
-1.84775
 30
0.0
 11
85.243
 21
-1.96156
 31
0.0
  0
LINE
  5
141
  8
0
 10
85.243
 20
-1.96156
 30
0.0
 11
84.8528
 21
-2.0
 31
0.0
  0
LINE
  5
142
  8
0
 10
84.8528
 20
-2.0
 30
0.0
 11
84.4626
 21
-1.96156
 31
0.0
  0
LINE
  5
143
  8
0
 10
-0.390167
 20
-1.96156
 30
0.0
 11
-0.765366
 21
-1.84775
 31
0.0
  0
LINE
  5
144
  8
0
 10
-0.765366
 20
-1.84775
 30
0.0
 11
-1.11113
 21
-1.66293
 31
0.0
  0
LINE
  5
145
  8
0
 10
-1.11113
 20
-1.66293
 30
0.0
 11
-1.4142
 21
-1.4142
 31
0.0
  0
LINE
  5
146
  8
0
 10
-1.4142
 20
-1.4142
 30
0.0
 11
-1.66293
 21
-1.11113
 31
0.0
  0
LINE
  5
147
  8
0
 10
-1.66293
 20
-1.11113
 30
0.0
 11
-1.84775
 21
-0.765366
 31
0.0
  0
LINE
  5
148
  8
0
 10
-1.84775
 20
-0.765366
 30
0.0
 11
-1.96156
 21
-0.390167
 31
0.0
  0
LINE
  5
149
  8
0
 10
-1.96156
 20
-0.390167
 30
0.0
 11
-2.0
 21
0.0
 31
0.0
  0
LINE
  5
14A
  8
0
 10
-2.0
 20
0.0
 30
0.0
 11
-1.96156
 21
0.390167
 31
0.0
  0
LINE
  5
14B
  8
0
 10
-1.96156
 20
0.390167
 30
0.0
 11
-1.84775
 21
0.765366
 31
0.0
  0
LINE
  5
14C
  8
0
 10
-1.84775
 20
0.765366
 30
0.0
 11
-1.66293
 21
1.11113
 31
0.0
  0
LINE
  5
14D
  8
0
 10
-1.66293
 20
1.11113
 30
0.0
 11
-1.4142
 21
1.4142
 31
0.0
  0
LINE
  5
14E
  8
0
 10
-1.4142
 20
1.4142
 30
0.0
 11
-1.11113
 21
1.66293
 31
0.0
  0
LINE
  5
14F
  8
0
 10
-1.11113
 20
1.66293
 30
0.0
 11
-0.765366
 21
1.84775
 31
0.0
  0
LINE
  5
150
  8
0
 10
-0.765366
 20
1.84775
 30
0.0
 11
-0.390167
 21
1.96156
 31
0.0
  0
LINE
  5
151
  8
0
 10
-0.390167
 20
1.96156
 30
0.0
 11
0.0
 21
2.0
 31
0.0
  0
LINE
  5
152
  8
0
 10
0.0
 20
2.0
 30
0.0
 11
0.390167
 21
1.96156
 31
0.0
  0
LINE
  5
153
  8
0
 10
0.390167
 20
1.96156
 30
0.0
 11
0.765366
 21
1.84775
 31
0.0
  0
LINE
  5
154
  8
0
 10
0.765366
 20
1.84775
 30
0.0
 11
1.11113
 21
1.66293
 31
0.0
  0
LINE
  5
155
  8
0
 10
1.11113
 20
1.66293
 30
0.0
 11
1.4142
 21
1.4142
 31
0.0
  0
LINE
  5
156
  8
0
 10
1.4142
 20
1.4142
 30
0.0
 11
1.66293
 21
1.11113
 31
0.0
  0
LINE
  5
157
  8
0
 10
1.66293
 20
1.11113
 30
0.0
 11
1.84775
 21
0.765366
 31
0.0
  0
LINE
  5
158
  8
0
 10
1.84775
 20
0.765366
 30
0.0
 11
1.96156
 21
0.390167
 31
0.0
  0
LINE
  5
159
  8
0
 10
1.96156
 20
0.390167
 30
0.0
 11
2.0
 21
0.0
 31
0.0
  0
LINE
  5
15A
  8
0
 10
2.0
 20
0.0
 30
0.0
 11
1.96156
 21
-0.390167
 31
0.0
  0
LINE
  5
15B
  8
0
 10
1.96156
 20
-0.390167
 30
0.0
 11
1.84775
 21
-0.765366
 31
0.0
  0
LINE
  5
15C
  8
0
 10
1.84775
 20
-0.765366
 30
0.0
 11
1.66293
 21
-1.11113
 31
0.0
  0
LINE
  5
15D
  8
0
 10
1.66293
 20
-1.11113
 30
0.0
 11
1.4142
 21
-1.4142
 31
0.0
  0
LINE
  5
15E
  8
0
 10
1.4142
 20
-1.4142
 30
0.0
 11
1.11113
 21
-1.66293
 31
0.0
  0
LINE
  5
15F
  8
0
 10
1.11113
 20
-1.66293
 30
0.0
 11
0.765366
 21
-1.84775
 31
0.0
  0
LINE
  5
160
  8
0
 10
0.765366
 20
-1.84775
 30
0.0
 11
0.390167
 21
-1.96156
 31
0.0
  0
LINE
  5
161
  8
0
 10
0.390167
 20
-1.96156
 30
0.0
 11
0.0
 21
-2.0
 31
0.0
  0
LINE
  5
162
  8
0
 10
0.0
 20
-2.0
 30
0.0
 11
-0.390167
 21
-1.96156
 31
0.0
  0
LINE
  5
163
  8
0
 10
10.3775
 20
-6.0
 30
0.0
 11
74.4753
 21
-6.0
 31
0.0
  0
LINE
  5
164
  8
0
 10
74.4753
 20
-6.0
 30
0.0
 11
42.4264
 21
-61.5104
 31
0.0
  0
LINE
  5
165
  8
0
 10
42.4264
 20
-61.5104
 30
0.0
 11
10.3775
 21
-6.0
 31
0.0
  0
LINE
  5
166
  8
0
 10
42.0362
 20
-75.4463
 30
0.0
 11
41.661
 21
-75.3324
 31
0.0
  0
LINE
  5
167
  8
0
 10
41.661
 20
-75.3324
 30
0.0
 11
41.3153
 21
-75.1476
 31
0.0
  0
LINE
  5
168
  8
0
 10
41.3153
 20
-75.1476
 30
0.0
 11
41.0122
 21
-74.8989
 31
0.0
  0
LINE
  5
169
  8
0
 10
41.0122
 20
-74.8989
 30
0.0
 11
40.7635
 21
-74.5958
 31
0.0
  0
LINE
  5
16A
  8
0
 10
40.7635
 20
-74.5958
 30
0.0
 11
40.5786
 21
-74.2501
 31
0.0
  0
LINE
  5
16B
  8
0
 10
40.5786
 20
-74.2501
 30
0.0
 11
40.4648
 21
-73.8749
 31
0.0
  0
LINE
  5
16C
  8
0
 10
40.4648
 20
-73.8749
 30
0.0
 11
40.4264
 21
-73.4847
 31
0.0
  0
LINE
  5
16D
  8
0
 10
40.4264
 20
-73.4847
 30
0.0
 11
40.4648
 21
-73.0945
 31
0.0
  0
LINE
  5
16E
  8
0
 10
40.4648
 20
-73.0945
 30
0.0
 11
40.5786
 21
-72.7193
 31
0.0
  0
LINE
  5
16F
  8
0
 10
40.5786
 20
-72.7193
 30
0.0
 11
40.7635
 21
-72.3736
 31
0.0
  0
LINE
  5
170
  8
0
 10
40.7635
 20
-72.3736
 30
0.0
 11
41.0122
 21
-72.0705
 31
0.0
  0
LINE
  5
171
  8
0
 10
41.0122
 20
-72.0705
 30
0.0
 11
41.3153
 21
-71.8217
 31
0.0
  0
LINE
  5
172
  8
0
 10
41.3153
 20
-71.8217
 30
0.0
 11
41.661
 21
-71.6369
 31
0.0
  0
LINE
  5
173
  8
0
 10
41.661
 20
-71.6369
 30
0.0
 11
42.0362
 21
-71.5231
 31
0.0
  0
LINE
  5
174
  8
0
 10
42.0362
 20
-71.5231
 30
0.0
 11
42.4264
 21
-71.4847
 31
0.0
  0
LINE
  5
175
  8
0
 10
42.4264
 20
-71.4847
 30
0.0
 11
42.8166
 21
-71.5231
 31
0.0
  0
LINE
  5
176
  8
0
 10
42.8166
 20
-71.5231
 30
0.0
 11
43.1918
 21
-71.6369
 31
0.0
  0
LINE
  5
177
  8
0
 10
43.1918
 20
-71.6369
 30
0.0
 11
43.5375
 21
-71.8217
 31
0.0
  0
LINE
  5
178
  8
0
 10
43.5375
 20
-71.8217
 30
0.0
 11
43.8406
 21
-72.0705
 31
0.0
  0
LINE
  5
179
  8
0
 10
43.8406
 20
-72.0705
 30
0.0
 11
44.0893
 21
-72.3736
 31
0.0
  0
LINE
  5
17A
  8
0
 10
44.0893
 20
-72.3736
 30
0.0
 11
44.2742
 21
-72.7193
 31
0.0
  0
LINE
  5
17B
  8
0
 10
44.2742
 20
-72.7193
 30
0.0
 11
44.388
 21
-73.0945
 31
0.0
  0
LINE
  5
17C
  8
0
 10
44.388
 20
-73.0945
 30
0.0
 11
44.4264
 21
-73.4847
 31
0.0
  0
LINE
  5
17D
  8
0
 10
44.4264
 20
-73.4847
 30
0.0
 11
44.388
 21
-73.8749
 31
0.0
  0
LINE
  5
17E
  8
0
 10
44.388
 20
-73.8749
 30
0.0
 11
44.2742
 21
-74.2501
 31
0.0
  0
LINE
  5
17F
  8
0
 10
44.2742
 20
-74.2501
 30
0.0
 11
44.0893
 21
-74.5958
 31
0.0
  0
LINE
  5
180
  8
0
 10
44.0893
 20
-74.5958
 30
0.0
 11
43.8406
 21
-74.8989
 31
0.0
  0
LINE
  5
181
  8
0
 10
43.8406
 20
-74.8989
 30
0.0
 11
43.5375
 21
-75.1476
 31
0.0
  0
LINE
  5
182
  8
0
 10
43.5375
 20
-75.1476
 30
0.0
 11
43.1918
 21
-75.3324
 31
0.0
  0
LINE
  5
183
  8
0
 10
43.1918
 20
-75.3324
 30
0.0
 11
42.8166
 21
-75.4463
 31
0.0
  0
LINE
  5
184
  8
0
 10
42.8166
 20
-75.4463
 30
0.0
 11
42.4264
 21
-75.4847
 31
0.0
  0
LINE
  5
185
  8
0
 10
42.4264
 20
-75.4847
 30
0.0
 11
42.0362
 21
-75.4463
 31
0.0
  0
TEXT
  5
1BB
  8
0
 62
5
 10
0.0
 20
0.0
 30
0.0
 40
3.0
  1
9
  7
OpenSans-Regular
  0
TEXT
  5
1DE
  8
0
 62
5
 10
0.0
 20
0.0
 30
0.0
 40
3.0
  1
frame
  7
OpenSans-Regular
  0
ENDSEC
  0
EOF
