  0
SECTION
  2
HEADER
  9
$ACADVER
  1
AC1009
  9
$DWGCODEPAGE
  3
ANSI_1252
  9
$INSBASE
 10
0.0
 20
0.0
 30
0.0
  9
$EXTMIN
 10
1e+20
 20
1e+20
 30
1e+20
  9
$EXTMAX
 10
-1e+20
 20
-1e+20
 30
-1e+20
  9
$LIMMIN
 10
0.0
 20
0.0
  9
$LIMMAX
 10
420.0
 20
297.0
  9
$ORTHOMODE
 70
0
  9
$REGENMODE
 70
1
  9
$FILLMODE
 70
1
  9
$DRAGMODE
 70
2
  9
$QTEXTMODE
 70
0
  9
$MIRRTEXT
 70
1
  9
$OSMODE
 70
20583
  9
$LTSCALE
 40
1.0
  9
$ATTMODE
 70
1
  9
$TEXTSIZE
 40
2.5
  9
$TRACEWID
 40
1.0
  9
$TEXTSTYLE
  7
Standard
  9
$CLAYER
  8
0
  9
$CELTYPE
  6
ByLayer
  9
$CECOLOR
 62
256
  9
$DIMSCALE
 40
1.0
  9
$DIMASZ
 40
2.5
  9
$DIMEXO
 40
0.625
  9
$DIMDLI
 40
3.75
  9
$DIMRND
 40
0.0
  9
$DIMDLE
 40
0.0
  9
$DIMEXE
 40
1.25
  9
$DIMTP
 40
0.0
  9
$DIMTM
 40
0.0
  9
$DIMTXT
 40
2.5
  9
$DIMCEN
 40
2.5
  9
$DIMTSZ
 40
0.0
  9
$DIMTOL
 70
0
  9
$DIMLIM
 70
0
  9
$DIMTIH
 70
0
  9
$DIMTOH
 70
0
  9
$DIMSE1
 70
0
  9
$DIMSE2
 70
0
  9
$DIMTAD
 70
1
  9
$DIMZIN
 70
8
  9
$DIMBLK
  1

  9
$DIMASO
 70
1
  9
$DIMSHO
 70
1
  9
$DIMPOST
  1

  9
$DIMAPOST
  1

  9
$DIMALT
 70
0
  9
$DIMALTD
 70
3
  9
$DIMALTF
 40
0.03937007874
  9
$DIMLFAC
 40
1.0
  9
$DIMTOFL
 70
1
  9
$DIMTVP
 40
0.0
  9
$DIMTIX
 70
0
  9
$DIMSOXD
 70
0
  9
$DIMSAH
 70
0
  9
$DIMBLK1
  1

  9
$DIMBLK2
  1

  9
$DIMSTYLE
  2
ISO-25
  9
$DIMCLRD
 70
0
  9
$DIMCLRE
 70
0
  9
$DIMCLRT
 70
0
  9
$DIMTFAC
 40
1.0
  9
$DIMGAP
 40
0.625
  9
$COORDS
 70
1
  9
$ATTDIA
 70
0
  9
$ATTREQ
 70
1
  9
$HANDLING
 70
1
  9
$LUNITS
 70
2
  9
$LUPREC
 70
4
  9
$SKETCHINC
 40
1.0
  9
$FILLETRAD
 40
10.0
  9
$AUNITS
 70
0
  9
$AUPREC
 70
2
  9
$MENU
  1
.
  9
$ELEVATION
 40
0.0
  9
$PELEVATION
 40
0.0
  9
$THICKNESS
 40
0.0
  9
$LIMCHECK
 70
0
  9
$CHAMFERA
 40
0.0
  9
$CHAMFERB
 40
0.0
  9
$SKPOLY
 70
0
  9
$TDCREATE
 40
2459991.7315625
  9
$TDUPDATE
 40
2459991.7315625
  9
$TDINDWG
 40
0.0
  9
$TDUSRTIMER
 40
0.0
  9
$USRTIMER
 70
1
  9
$ANGBASE
 50
0.0
  9
$ANGDIR
 70
0
  9
$PDMODE
 70
0
  9
$PDSIZE
 40
0.0
  9
$PLINEWID
 40
0.0
  9
$SPLFRAME
 70
0
  9
$SPLINETYPE
 70
6
  9
$SPLINESEGS
 70
8
  9
$HANDSEED
  5
781
  9
$SURFTAB1
 70
6
  9
$SURFTAB2
 70
6
  9
$SURFTYPE
 70
6
  9
$SURFU
 70
6
  9
$SURFV
 70
6
  9
$UCSNAME
  2

  9
$UCSORG
 10
0.0
 20
0.0
 30
0.0
  9
$UCSXDIR
 10
1.0
 20
0.0
 30
0.0
  9
$UCSYDIR
 10
0.0
 20
1.0
 30
0.0
  9
$PUCSNAME
  2

  9
$PUCSORG
 10
0.0
 20
0.0
 30
0.0
  9
$PUCSXDIR
 10
1.0
 20
0.0
 30
0.0
  9
$PUCSYDIR
 10
0.0
 20
1.0
 30
0.0
  9
$USERI1
 70
0
  9
$USERI2
 70
0
  9
$USERI3
 70
0
  9
$USERI4
 70
0
  9
$USERI5
 70
0
  9
$USERR1
 40
0.0
  9
$USERR2
 40
0.0
  9
$USERR3
 40
0.0
  9
$USERR4
 40
0.0
  9
$USERR5
 40
0.0
  9
$WORLDVIEW
 70
1
  9
$SHADEDGE
 70
3
  9
$SHADEDIF
 70
70
  9
$TILEMODE
 70
1
  9
$MAXACTVP
 70
64
  9
$PLIMCHECK
 70
0
  9
$PEXTMIN
 10
1e+20
 20
1e+20
 30
1e+20
  9
$PEXTMAX
 10
-1e+20
 20
-1e+20
 30
-1e+20
  9
$PLIMMIN
 10
0.0
 20
0.0
  9
$PLIMMAX
 10
420.0
 20
297.0
  9
$UNITMODE
 70
0
  9
$VISRETAIN
 70
1
  9
$PLINEGEN
 70
0
  9
$PSLTSCALE
 70
1
  0
ENDSEC
  0
SECTION
  2
TABLES
  0
TABLE
  2
VPORT
 70
1
  0
VPORT
  5
753
  2
*Active
 70
0
 10
0.0
 20
0.0
 11
1.0
 21
1.0
 12
0.0
 22
0.0
 13
0.0
 23
0.0
 14
0.5
 24
0.5
 15
0.5
 25
0.5
 16
0.0
 26
0.0
 36
1.0
 17
0.0
 27
0.0
 37
0.0
 40
1000.0
 41
1.34
 42
50.0
 43
0.0
 44
0.0
 50
0.0
 51
0.0
 71
0
 72
1000
 73
1
 74
3
 75
0
 76
0
 77
0
 78
0
  0
ENDTAB
  0
TABLE
  2
LTYPE
 70
3
  0
LTYPE
  5
754
  2
ByBlock
 70
0
  3

 72
65
 73
0
 40
0.0
  0
LTYPE
  5
755
  2
ByLayer
 70
0
  3

 72
65
 73
0
 40
0.0
  0
LTYPE
  5
756
  2
Continuous
 70
0
  3

 72
65
 73
0
 40
0.0
  0
ENDTAB
  0
TABLE
  2
LAYER
 70
2
  0
LAYER
  5
757
  2
0
 70
0
 62
7
  6
Continuous
  0
LAYER
  5
758
  2
Defpoints
 70
0
 62
7
  6
Continuous
  0
ENDTAB
  0
TABLE
  2
STYLE
 70
1
  0
STYLE
  5
759
  2
Standard
 70
0
 40
0.0
 41
1.0
 50
0.0
 71
0
 42
2.5
  3
txt
  4

  0
ENDTAB
  0
TABLE
  2
VIEW
 70
0
  0
ENDTAB
  0
TABLE
  2
UCS
 70
0
  0
ENDTAB
  0
TABLE
  2
APPID
 70
3
  0
APPID
  5
75A
  2
ACAD
 70
0
  0
APPID
  5
75E
  2
HATCHBACKGROUNDCOLOR
 70
0
  0
APPID
  5
75F
  2
EZDXF
 70
0
  0
ENDTAB
  0
TABLE
  2
DIMSTYLE
 70
1
  0
DIMSTYLE
105
75B
  2
Standard
 70
0
  3

  4

  5

  6

  7

 40
1.0
 41
2.5
 42
0.625
 43
3.75
 44
1.25
 45
0.0
 46
0.0
 47
0.0
 48
0.0
140
2.5
141
2.5
142
0.0
143
0.03937007874
144
1.0
145
0.0
146
1.0
147
0.625
 71
0
 72
0
 73
0
 74
0
 75
0
 76
0
 77
1
 78
8
170
0
171
3
172
1
173
0
174
0
175
0
176
0
177
0
178
0
  0
ENDTAB
  0
ENDSEC
  0
SECTION
  2
BLOCKS
  0
BLOCK
  5
734
  8
0
  2
$Model_Space
 70
0
 10
0.0
 20
0.0
 30
0.0
  3
$Model_Space
  1

1001
EZDXF
1000
WRITTEN_BY_EZDXF
1000
1.0.1 @ 2023-02-15T07:33:27.738422+00:00
  0
ENDBLK
  5
735
  8
0
  0
BLOCK
  5
736
  8
0
  2
$Paper_Space
 70
0
 10
0.0
 20
0.0
 30
0.0
  3
$Paper_Space
  1

  0
ENDBLK
  5
737
  8
0
  0
ENDSEC
  0
SECTION
  2
ENTITIES
  0
LINE
  5
100
  8
0
 10
0.776367
 20
-76.2812
 30
0.0
 11
1.14584
 21
-75.5862
 31
0.0
  0
LINE
  5
101
  8
0
 10
1.14584
 20
-75.5862
 30
0.0
 11
1.4863
 21
-74.911
 31
0.0
  0
LINE
  5
102
  8
0
 10
1.4863
 20
-74.911
 30
0.0
 11
1.79875
 21
-74.2566
 31
0.0
  0
LINE
  5
103
  8
0
 10
1.79875
 20
-74.2566
 30
0.0
 11
2.08427
 21
-73.6239
 31
0.0
  0
LINE
  5
104
  8
0
 10
2.08427
 20
-73.6239
 30
0.0
 11
2.08401
 21
-73.6147
 31
0.0
  0
LINE
  5
105
  8
0
 10
2.08401
 20
-73.6147
 30
0.0
 11
2.73508
 21
-73.5934
 31
0.0
  0
LINE
  5
106
  8
0
 10
2.73508
 20
-73.5934
 30
0.0
 11
2.73541
 21
-73.6026
 31
0.0
  0
LINE
  5
107
  8
0
 10
2.73541
 20
-73.6026
 30
0.0
 11
3.06171
 21
-74.2152
 31
0.0
  0
LINE
  5
108
  8
0
 10
3.06171
 20
-74.2152
 30
0.0
 11
3.41629
 21
-74.8478
 31
0.0
  0
LINE
  5
109
  8
0
 10
3.41629
 20
-74.8478
 30
0.0
 11
3.80017
 21
-75.4993
 31
0.0
  0
LINE
  5
10A
  8
0
 10
3.80017
 20
-75.4993
 30
0.0
 11
4.21431
 21
-76.1686
 31
0.0
  0
LINE
  5
10B
  8
0
 10
4.21431
 20
-76.1686
 30
0.0
 11
4.65968
 21
-76.8549
 31
0.0
  0
LINE
  5
10C
  8
0
 10
4.65968
 20
-76.8549
 30
0.0
 11
5.41176
 21
-76.8056
 31
0.0
  0
LINE
  5
10D
  8
0
 10
5.41176
 20
-76.8056
 30
0.0
 11
5.76373
 21
-76.0671
 31
0.0
  0
LINE
  5
10E
  8
0
 10
5.76373
 20
-76.0671
 30
0.0
 11
6.08696
 21
-75.3494
 31
0.0
  0
LINE
  5
10F
  8
0
 10
6.08696
 20
-75.3494
 30
0.0
 11
6.38252
 21
-74.6534
 31
0.0
  0
LINE
  5
110
  8
0
 10
6.38252
 20
-74.6534
 30
0.0
 11
6.6515
 21
-73.9799
 31
0.0
  0
LINE
  5
111
  8
0
 10
6.6515
 20
-73.9799
 30
0.0
 11
6.89503
 21
-73.3299
 31
0.0
  0
LINE
  5
112
  8
0
 10
6.89503
 20
-73.3299
 30
0.0
 11
6.89418
 21
-73.3208
 31
0.0
  0
LINE
  5
113
  8
0
 10
6.89418
 20
-73.3208
 30
0.0
 11
7.54247
 21
-73.257
 31
0.0
  0
LINE
  5
114
  8
0
 10
7.54247
 20
-73.257
 30
0.0
 11
7.5434
 21
-73.2661
 31
0.0
  0
LINE
  5
115
  8
0
 10
7.5434
 20
-73.2661
 30
0.0
 11
7.90906
 21
-73.8561
 31
0.0
  0
LINE
  5
116
  8
0
 10
7.90906
 20
-73.8561
 30
0.0
 11
8.30426
 21
-74.4641
 31
0.0
  0
LINE
  5
117
  8
0
 10
8.30426
 20
-74.4641
 30
0.0
 11
8.72992
 21
-75.0891
 31
0.0
  0
LINE
  5
118
  8
0
 10
8.72992
 20
-75.0891
 30
0.0
 11
9.18697
 21
-75.7299
 31
0.0
  0
LINE
  5
119
  8
0
 10
9.18697
 20
-75.7299
 30
0.0
 11
9.67625
 21
-76.3856
 31
0.0
  0
LINE
  5
11A
  8
0
 10
9.67625
 20
-76.3856
 30
0.0
 11
10.4235
 21
-76.2872
 31
0.0
  0
LINE
  5
11B
  8
0
 10
10.4235
 20
-76.2872
 30
0.0
 11
10.7264
 21
-75.5273
 31
0.0
  0
LINE
  5
11C
  8
0
 10
10.7264
 20
-75.5273
 30
0.0
 11
11.002
 21
-74.7899
 31
0.0
  0
LINE
  5
11D
  8
0
 10
11.002
 20
-74.7899
 30
0.0
 11
11.2514
 21
-74.0761
 31
0.0
  0
LINE
  5
11E
  8
0
 10
11.2514
 20
-74.0761
 30
0.0
 11
11.4758
 21
-73.3865
 31
0.0
  0
LINE
  5
11F
  8
0
 10
11.4758
 20
-73.3865
 30
0.0
 11
11.6763
 21
-72.722
 31
0.0
  0
LINE
  5
120
  8
0
 10
11.6763
 20
-72.722
 30
0.0
 11
11.6748
 21
-72.7129
 31
0.0
  0
LINE
  5
121
  8
0
 10
11.6748
 20
-72.7129
 30
0.0
 11
12.3176
 21
-72.6068
 31
0.0
  0
LINE
  5
122
  8
0
 10
12.3176
 20
-72.6068
 30
0.0
 11
12.3191
 21
-72.6158
 31
0.0
  0
LINE
  5
123
  8
0
 10
12.3191
 20
-72.6158
 30
0.0
 11
12.7225
 21
-73.1807
 31
0.0
  0
LINE
  5
124
  8
0
 10
12.7225
 20
-73.1807
 30
0.0
 11
13.1567
 21
-73.7615
 31
0.0
  0
LINE
  5
125
  8
0
 10
13.1567
 20
-73.7615
 30
0.0
 11
13.6223
 21
-74.3573
 31
0.0
  0
LINE
  5
126
  8
0
 10
13.6223
 20
-74.3573
 30
0.0
 11
14.1203
 21
-74.9669
 31
0.0
  0
LINE
  5
127
  8
0
 10
14.1203
 20
-74.9669
 30
0.0
 11
14.6514
 21
-75.5892
 31
0.0
  0
LINE
  5
128
  8
0
 10
14.6514
 20
-75.5892
 30
0.0
 11
15.3906
 21
-75.4422
 31
0.0
  0
LINE
  5
129
  8
0
 10
15.3906
 20
-75.4422
 30
0.0
 11
15.6432
 21
-74.664
 31
0.0
  0
LINE
  5
12A
  8
0
 10
15.6432
 20
-74.664
 30
0.0
 11
15.8699
 21
-73.9102
 31
0.0
  0
LINE
  5
12B
  8
0
 10
15.8699
 20
-73.9102
 30
0.0
 11
16.0721
 21
-73.1816
 31
0.0
  0
LINE
  5
12C
  8
0
 10
16.0721
 20
-73.1816
 30
0.0
 11
16.2509
 21
-72.4789
 31
0.0
  0
LINE
  5
12D
  8
0
 10
16.2509
 20
-72.4789
 30
0.0
 11
16.4075
 21
-71.8026
 31
0.0
  0
LINE
  5
12E
  8
0
 10
16.4075
 20
-71.8026
 30
0.0
 11
16.4055
 21
-71.7937
 31
0.0
  0
LINE
  5
12F
  8
0
 10
16.4055
 20
-71.7937
 30
0.0
 11
17.0399
 21
-71.6458
 31
0.0
  0
LINE
  5
130
  8
0
 10
17.0399
 20
-71.6458
 30
0.0
 11
17.042
 21
-71.6546
 31
0.0
  0
LINE
  5
131
  8
0
 10
17.042
 20
-71.6546
 30
0.0
 11
17.4816
 21
-72.1919
 31
0.0
  0
LINE
  5
132
  8
0
 10
17.4816
 20
-72.1919
 30
0.0
 11
17.9527
 21
-72.7431
 31
0.0
  0
LINE
  5
133
  8
0
 10
17.9527
 20
-72.7431
 30
0.0
 11
18.4563
 21
-73.3072
 31
0.0
  0
LINE
  5
134
  8
0
 10
18.4563
 20
-73.3072
 30
0.0
 11
18.9931
 21
-73.8829
 31
0.0
  0
LINE
  5
135
  8
0
 10
18.9931
 20
-73.8829
 30
0.0
 11
19.5638
 21
-74.4691
 31
0.0
  0
LINE
  5
136
  8
0
 10
19.5638
 20
-74.4691
 30
0.0
 11
20.2918
 21
-74.2741
 31
0.0
  0
LINE
  5
137
  8
0
 10
20.2918
 20
-74.2741
 30
0.0
 11
20.4929
 21
-73.481
 31
0.0
  0
LINE
  5
138
  8
0
 10
20.4929
 20
-73.481
 30
0.0
 11
20.6699
 21
-72.714
 31
0.0
  0
LINE
  5
139
  8
0
 10
20.6699
 20
-72.714
 30
0.0
 11
20.824
 21
-71.9738
 31
0.0
  0
LINE
  5
13A
  8
0
 10
20.824
 20
-71.9738
 30
0.0
 11
20.9565
 21
-71.2608
 31
0.0
  0
LINE
  5
13B
  8
0
 10
20.9565
 20
-71.2608
 30
0.0
 11
21.0685
 21
-70.5757
 31
0.0
  0
LINE
  5
13C
  8
0
 10
21.0685
 20
-70.5757
 30
0.0
 11
21.0659
 21
-70.567
 31
0.0
  0
LINE
  5
13D
  8
0
 10
21.0659
 20
-70.567
 30
0.0
 11
21.6893
 21
-70.3779
 31
0.0
  0
LINE
  5
13E
  8
0
 10
21.6893
 20
-70.3779
 30
0.0
 11
21.6919
 21
-70.3866
 31
0.0
  0
LINE
  5
13F
  8
0
 10
21.6919
 20
-70.3866
 30
0.0
 11
22.1657
 21
-70.894
 31
0.0
  0
LINE
  5
140
  8
0
 10
22.1657
 20
-70.894
 30
0.0
 11
22.6719
 21
-71.4132
 31
0.0
  0
LINE
  5
141
  8
0
 10
22.6719
 20
-71.4132
 30
0.0
 11
23.2113
 21
-71.9431
 31
0.0
  0
LINE
  5
142
  8
0
 10
23.2113
 20
-71.9431
 30
0.0
 11
23.7846
 21
-72.4825
 31
0.0
  0
LINE
  5
143
  8
0
 10
23.7846
 20
-72.4825
 30
0.0
 11
24.3924
 21
-73.0302
 31
0.0
  0
LINE
  5
144
  8
0
 10
24.3924
 20
-73.0302
 30
0.0
 11
25.1061
 21
-72.7879
 31
0.0
  0
LINE
  5
145
  8
0
 10
25.1061
 20
-72.7879
 30
0.0
 11
25.2549
 21
-71.9834
 31
0.0
  0
LINE
  5
146
  8
0
 10
25.2549
 20
-71.9834
 30
0.0
 11
25.3814
 21
-71.2065
 31
0.0
  0
LINE
  5
147
  8
0
 10
25.3814
 20
-71.2065
 30
0.0
 11
25.4868
 21
-70.4577
 31
0.0
  0
LINE
  5
148
  8
0
 10
25.4868
 20
-70.4577
 30
0.0
 11
25.5723
 21
-69.7376
 31
0.0
  0
LINE
  5
149
  8
0
 10
25.5723
 20
-69.7376
 30
0.0
 11
25.6393
 21
-69.0467
 31
0.0
  0
LINE
  5
14A
  8
0
 10
25.6393
 20
-69.0467
 30
0.0
 11
25.6361
 21
-69.0381
 31
0.0
  0
LINE
  5
14B
  8
0
 10
25.6361
 20
-69.0381
 30
0.0
 11
26.2458
 21
-68.8087
 31
0.0
  0
LINE
  5
14C
  8
0
 10
26.2458
 20
-68.8087
 30
0.0
 11
26.249
 21
-68.8172
 31
0.0
  0
LINE
  5
14D
  8
0
 10
26.249
 20
-68.8172
 30
0.0
 11
26.7549
 21
-69.2925
 31
0.0
  0
LINE
  5
14E
  8
0
 10
26.7549
 20
-69.2925
 30
0.0
 11
27.294
 21
-69.7775
 31
0.0
  0
LINE
  5
14F
  8
0
 10
27.294
 20
-69.7775
 30
0.0
 11
27.8669
 21
-70.271
 31
0.0
  0
LINE
  5
150
  8
0
 10
27.8669
 20
-70.271
 30
0.0
 11
28.4743
 21
-70.7717
 31
0.0
  0
LINE
  5
151
  8
0
 10
28.4743
 20
-70.7717
 30
0.0
 11
29.1166
 21
-71.2784
 31
0.0
  0
LINE
  5
152
  8
0
 10
29.1166
 20
-71.2784
 30
0.0
 11
29.8129
 21
-70.99
 31
0.0
  0
LINE
  5
153
  8
0
 10
29.8129
 20
-70.99
 30
0.0
 11
29.9088
 21
-70.1775
 31
0.0
  0
LINE
  5
154
  8
0
 10
29.9088
 20
-70.1775
 30
0.0
 11
29.9842
 21
-69.394
 31
0.0
  0
LINE
  5
155
  8
0
 10
29.9842
 20
-69.394
 30
0.0
 11
30.0403
 21
-68.6399
 31
0.0
  0
LINE
  5
156
  8
0
 10
30.0403
 20
-68.6399
 30
0.0
 11
30.0786
 21
-67.9158
 31
0.0
  0
LINE
  5
157
  8
0
 10
30.0786
 20
-67.9158
 30
0.0
 11
30.1003
 21
-67.222
 31
0.0
  0
LINE
  5
158
  8
0
 10
30.1003
 20
-67.222
 30
0.0
 11
30.0965
 21
-67.2136
 31
0.0
  0
LINE
  5
159
  8
0
 10
30.0965
 20
-67.2136
 30
0.0
 11
30.6899
 21
-66.9448
 31
0.0
  0
LINE
  5
15A
  8
0
 10
30.6899
 20
-66.9448
 30
0.0
 11
30.6937
 21
-66.9531
 31
0.0
  0
LINE
  5
15B
  8
0
 10
30.6937
 20
-66.9531
 30
0.0
 11
31.2296
 21
-67.3943
 31
0.0
  0
LINE
  5
15C
  8
0
 10
31.2296
 20
-67.3943
 30
0.0
 11
31.7993
 21
-67.843
 31
0.0
  0
LINE
  5
15D
  8
0
 10
31.7993
 20
-67.843
 30
0.0
 11
32.4032
 21
-68.2979
 31
0.0
  0
LINE
  5
15E
  8
0
 10
32.4032
 20
-68.2979
 30
0.0
 11
33.042
 21
-68.7579
 31
0.0
  0
LINE
  5
15F
  8
0
 10
33.042
 20
-68.7579
 30
0.0
 11
33.7161
 21
-69.2215
 31
0.0
  0
LINE
  5
160
  8
0
 10
33.7161
 20
-69.2215
 30
0.0
 11
34.3921
 21
-68.8882
 31
0.0
  0
LINE
  5
161
  8
0
 10
34.3921
 20
-68.8882
 30
0.0
 11
34.4346
 21
-68.0711
 31
0.0
  0
LINE
  5
162
  8
0
 10
34.4346
 20
-68.0711
 30
0.0
 11
34.4586
 21
-67.2844
 31
0.0
  0
LINE
  5
163
  8
0
 10
34.4586
 20
-67.2844
 30
0.0
 11
34.4653
 21
-66.5282
 31
0.0
  0
LINE
  5
164
  8
0
 10
34.4653
 20
-66.5282
 30
0.0
 11
34.4561
 21
-65.8031
 31
0.0
  0
LINE
  5
165
  8
0
 10
34.4561
 20
-65.8031
 30
0.0
 11
34.4323
 21
-65.1094
 31
0.0
  0
LINE
  5
166
  8
0
 10
34.4323
 20
-65.1094
 30
0.0
 11
34.4281
 21
-65.1013
 31
0.0
  0
LINE
  5
167
  8
0
 10
34.4281
 20
-65.1013
 30
0.0
 11
35.0025
 21
-64.7942
 31
0.0
  0
LINE
  5
168
  8
0
 10
35.0025
 20
-64.7942
 30
0.0
 11
35.0069
 21
-64.8023
 31
0.0
  0
LINE
  5
169
  8
0
 10
35.0069
 20
-64.8023
 30
0.0
 11
35.5705
 21
-65.2075
 31
0.0
  0
LINE
  5
16A
  8
0
 10
35.5705
 20
-65.2075
 30
0.0
 11
36.1683
 21
-65.618
 31
0.0
  0
LINE
  5
16B
  8
0
 10
36.1683
 20
-65.618
 30
0.0
 11
36.8007
 21
-66.0324
 31
0.0
  0
LINE
  5
16C
  8
0
 10
36.8007
 20
-66.0324
 30
0.0
 11
37.4682
 21
-66.4496
 31
0.0
  0
LINE
  5
16D
  8
0
 10
37.4682
 20
-66.4496
 30
0.0
 11
38.1712
 21
-66.8682
 31
0.0
  0
LINE
  5
16E
  8
0
 10
38.1712
 20
-66.8682
 30
0.0
 11
38.8239
 21
-66.4913
 31
0.0
  0
LINE
  5
16F
  8
0
 10
38.8239
 20
-66.4913
 30
0.0
 11
38.8129
 21
-65.6733
 31
0.0
  0
LINE
  5
170
  8
0
 10
38.8129
 20
-65.6733
 30
0.0
 11
38.7854
 21
-64.8866
 31
0.0
  0
LINE
  5
171
  8
0
 10
38.7854
 20
-64.8866
 30
0.0
 11
38.7427
 21
-64.1317
 31
0.0
  0
LINE
  5
172
  8
0
 10
38.7427
 20
-64.1317
 30
0.0
 11
38.6861
 21
-63.4087
 31
0.0
  0
LINE
  5
173
  8
0
 10
38.6861
 20
-63.4087
 30
0.0
 11
38.617
 21
-62.718
 31
0.0
  0
LINE
  5
174
  8
0
 10
38.617
 20
-62.718
 30
0.0
 11
38.6122
 21
-62.7102
 31
0.0
  0
LINE
  5
175
  8
0
 10
38.6122
 20
-62.7102
 30
0.0
 11
39.1654
 21
-62.3662
 31
0.0
  0
LINE
  5
176
  8
0
 10
39.1654
 20
-62.3662
 30
0.0
 11
39.1702
 21
-62.374
 31
0.0
  0
LINE
  5
177
  8
0
 10
39.1702
 20
-62.374
 30
0.0
 11
39.7591
 21
-62.7414
 31
0.0
  0
LINE
  5
178
  8
0
 10
39.7591
 20
-62.7414
 30
0.0
 11
40.3825
 21
-63.1119
 31
0.0
  0
LINE
  5
179
  8
0
 10
40.3825
 20
-63.1119
 30
0.0
 11
41.0407
 21
-63.4842
 31
0.0
  0
LINE
  5
17A
  8
0
 10
41.0407
 20
-63.4842
 30
0.0
 11
41.734
 21
-63.8568
 31
0.0
  0
LINE
  5
17B
  8
0
 10
41.734
 20
-63.8568
 30
0.0
 11
42.4629
 21
-64.2285
 31
0.0
  0
LINE
  5
17C
  8
0
 10
42.4629
 20
-64.2285
 30
0.0
 11
43.0895
 21
-63.8098
 31
0.0
  0
LINE
  5
17D
  8
0
 10
43.0895
 20
-63.8098
 30
0.0
 11
43.0251
 21
-62.9942
 31
0.0
  0
LINE
  5
17E
  8
0
 10
43.0251
 20
-62.9942
 30
0.0
 11
42.9461
 21
-62.211
 31
0.0
  0
LINE
  5
17F
  8
0
 10
42.9461
 20
-62.211
 30
0.0
 11
42.8541
 21
-61.4604
 31
0.0
  0
LINE
  5
180
  8
0
 10
42.8541
 20
-61.4604
 30
0.0
 11
42.7504
 21
-60.7428
 31
0.0
  0
LINE
  5
181
  8
0
 10
42.7504
 20
-60.7428
 30
0.0
 11
42.6362
 21
-60.058
 31
0.0
  0
LINE
  5
182
  8
0
 10
42.6362
 20
-60.058
 30
0.0
 11
42.631
 21
-60.0506
 31
0.0
  0
LINE
  5
183
  8
0
 10
42.631
 20
-60.0506
 30
0.0
 11
43.1604
 21
-59.6712
 31
0.0
  0
LINE
  5
184
  8
0
 10
43.1604
 20
-59.6712
 30
0.0
 11
43.1658
 21
-59.6786
 31
0.0
  0
LINE
  5
185
  8
0
 10
43.1658
 20
-59.6786
 30
0.0
 11
43.7775
 21
-60.0067
 31
0.0
  0
LINE
  5
186
  8
0
 10
43.7775
 20
-60.0067
 30
0.0
 11
44.4238
 21
-60.3357
 31
0.0
  0
LINE
  5
187
  8
0
 10
44.4238
 20
-60.3357
 30
0.0
 11
45.1049
 21
-60.6641
 31
0.0
  0
LINE
  5
188
  8
0
 10
45.1049
 20
-60.6641
 30
0.0
 11
45.8211
 21
-60.9906
 31
0.0
  0
LINE
  5
189
  8
0
 10
45.8211
 20
-60.9906
 30
0.0
 11
46.5727
 21
-61.3138
 31
0.0
  0
LINE
  5
18A
  8
0
 10
46.5727
 20
-61.3138
 30
0.0
 11
47.1706
 21
-60.8549
 31
0.0
  0
LINE
  5
18B
  8
0
 10
47.1706
 20
-60.8549
 30
0.0
 11
47.053
 21
-60.0453
 31
0.0
  0
LINE
  5
18C
  8
0
 10
47.053
 20
-60.0453
 30
0.0
 11
46.923
 21
-59.269
 31
0.0
  0
LINE
  5
18D
  8
0
 10
46.923
 20
-59.269
 30
0.0
 11
46.7821
 21
-58.5261
 31
0.0
  0
LINE
  5
18E
  8
0
 10
46.7821
 20
-58.5261
 30
0.0
 11
46.6316
 21
-57.8167
 31
0.0
  0
LINE
  5
18F
  8
0
 10
46.6316
 20
-57.8167
 30
0.0
 11
46.4729
 21
-57.1409
 31
0.0
  0
LINE
  5
190
  8
0
 10
46.4729
 20
-57.1409
 30
0.0
 11
46.4672
 21
-57.1338
 31
0.0
  0
LINE
  5
191
  8
0
 10
46.4672
 20
-57.1338
 30
0.0
 11
46.9707
 21
-56.7206
 31
0.0
  0
LINE
  5
192
  8
0
 10
46.9707
 20
-56.7206
 30
0.0
 11
46.9765
 21
-56.7276
 31
0.0
  0
LINE
  5
193
  8
0
 10
46.9765
 20
-56.7276
 30
0.0
 11
47.6084
 21
-57.0151
 31
0.0
  0
LINE
  5
194
  8
0
 10
47.6084
 20
-57.0151
 30
0.0
 11
48.2748
 21
-57.301
 31
0.0
  0
LINE
  5
195
  8
0
 10
48.2748
 20
-57.301
 30
0.0
 11
48.9759
 21
-57.5842
 31
0.0
  0
LINE
  5
196
  8
0
 10
48.9759
 20
-57.5842
 30
0.0
 11
49.712
 21
-57.8631
 31
0.0
  0
LINE
  5
197
  8
0
 10
49.712
 20
-57.8631
 30
0.0
 11
50.4831
 21
-58.1365
 31
0.0
  0
LINE
  5
198
  8
0
 10
50.4831
 20
-58.1365
 30
0.0
 11
51.0497
 21
-57.6395
 31
0.0
  0
LINE
  5
199
  8
0
 10
51.0497
 20
-57.6395
 30
0.0
 11
50.8794
 21
-56.8393
 31
0.0
  0
LINE
  5
19A
  8
0
 10
50.8794
 20
-56.8393
 30
0.0
 11
50.6989
 21
-56.0732
 31
0.0
  0
LINE
  5
19B
  8
0
 10
50.6989
 20
-56.0732
 30
0.0
 11
50.5097
 21
-55.3411
 31
0.0
  0
LINE
  5
19C
  8
0
 10
50.5097
 20
-55.3411
 30
0.0
 11
50.3131
 21
-54.6431
 31
0.0
  0
LINE
  5
19D
  8
0
 10
50.3131
 20
-54.6431
 30
0.0
 11
50.1106
 21
-53.9791
 31
0.0
  0
LINE
  5
19E
  8
0
 10
50.1106
 20
-53.9791
 30
0.0
 11
50.1044
 21
-53.9724
 31
0.0
  0
LINE
  5
19F
  8
0
 10
50.1044
 20
-53.9724
 30
0.0
 11
50.5798
 21
-53.5271
 31
0.0
  0
LINE
  5
1A0
  8
0
 10
50.5798
 20
-53.5271
 30
0.0
 11
50.5861
 21
-53.5337
 31
0.0
  0
LINE
  5
1A1
  8
0
 10
50.5861
 20
-53.5337
 30
0.0
 11
51.2354
 21
-53.7792
 31
0.0
  0
LINE
  5
1A2
  8
0
 10
51.2354
 20
-53.7792
 30
0.0
 11
51.9191
 21
-54.021
 31
0.0
  0
LINE
  5
1A3
  8
0
 10
51.9191
 20
-54.021
 30
0.0
 11
52.6372
 21
-54.2577
 31
0.0
  0
LINE
  5
1A4
  8
0
 10
52.6372
 20
-54.2577
 30
0.0
 11
53.39
 21
-54.4879
 31
0.0
  0
LINE
  5
1A5
  8
0
 10
53.39
 20
-54.4879
 30
0.0
 11
54.1773
 21
-54.7103
 31
0.0
  0
LINE
  5
1A6
  8
0
 10
54.1773
 20
-54.7103
 30
0.0
 11
54.7103
 21
-54.1773
 31
0.0
  0
LINE
  5
1A7
  8
0
 10
54.7103
 20
-54.1773
 30
0.0
 11
54.4879
 21
-53.39
 31
0.0
  0
LINE
  5
1A8
  8
0
 10
54.4879
 20
-53.39
 30
0.0
 11
54.2577
 21
-52.6372
 31
0.0
  0
LINE
  5
1A9
  8
0
 10
54.2577
 20
-52.6372
 30
0.0
 11
54.021
 21
-51.9191
 31
0.0
  0
LINE
  5
1AA
  8
0
 10
54.021
 20
-51.9191
 30
0.0
 11
53.7792
 21
-51.2354
 31
0.0
  0
LINE
  5
1AB
  8
0
 10
53.7792
 20
-51.2354
 30
0.0
 11
53.5337
 21
-50.5861
 31
0.0
  0
LINE
  5
1AC
  8
0
 10
53.5337
 20
-50.5861
 30
0.0
 11
53.5271
 21
-50.5798
 31
0.0
  0
LINE
  5
1AD
  8
0
 10
53.5271
 20
-50.5798
 30
0.0
 11
53.9724
 21
-50.1044
 31
0.0
  0
LINE
  5
1AE
  8
0
 10
53.9724
 20
-50.1044
 30
0.0
 11
53.9791
 21
-50.1106
 31
0.0
  0
LINE
  5
1AF
  8
0
 10
53.9791
 20
-50.1106
 30
0.0
 11
54.6431
 21
-50.3131
 31
0.0
  0
LINE
  5
1B0
  8
0
 10
54.6431
 20
-50.3131
 30
0.0
 11
55.3411
 21
-50.5097
 31
0.0
  0
LINE
  5
1B1
  8
0
 10
55.3411
 20
-50.5097
 30
0.0
 11
56.0732
 21
-50.6989
 31
0.0
  0
LINE
  5
1B2
  8
0
 10
56.0732
 20
-50.6989
 30
0.0
 11
56.8393
 21
-50.8794
 31
0.0
  0
LINE
  5
1B3
  8
0
 10
56.8393
 20
-50.8794
 30
0.0
 11
57.6395
 21
-51.0497
 31
0.0
  0
LINE
  5
1B4
  8
0
 10
57.6395
 20
-51.0497
 30
0.0
 11
58.1365
 21
-50.4831
 31
0.0
  0
LINE
  5
1B5
  8
0
 10
58.1365
 20
-50.4831
 30
0.0
 11
57.8631
 21
-49.712
 31
0.0
  0
LINE
  5
1B6
  8
0
 10
57.8631
 20
-49.712
 30
0.0
 11
57.5842
 21
-48.9759
 31
0.0
  0
LINE
  5
1B7
  8
0
 10
57.5842
 20
-48.9759
 30
0.0
 11
57.301
 21
-48.2748
 31
0.0
  0
LINE
  5
1B8
  8
0
 10
57.301
 20
-48.2748
 30
0.0
 11
57.0151
 21
-47.6084
 31
0.0
  0
LINE
  5
1B9
  8
0
 10
57.0151
 20
-47.6084
 30
0.0
 11
56.7276
 21
-46.9765
 31
0.0
  0
LINE
  5
1BA
  8
0
 10
56.7276
 20
-46.9765
 30
0.0
 11
56.7206
 21
-46.9707
 31
0.0
  0
LINE
  5
1BB
  8
0
 10
56.7206
 20
-46.9707
 30
0.0
 11
57.1338
 21
-46.4672
 31
0.0
  0
LINE
  5
1BC
  8
0
 10
57.1338
 20
-46.4672
 30
0.0
 11
57.1409
 21
-46.4729
 31
0.0
  0
LINE
  5
1BD
  8
0
 10
57.1409
 20
-46.4729
 30
0.0
 11
57.8167
 21
-46.6316
 31
0.0
  0
LINE
  5
1BE
  8
0
 10
57.8167
 20
-46.6316
 30
0.0
 11
58.5261
 21
-46.7821
 31
0.0
  0
LINE
  5
1BF
  8
0
 10
58.5261
 20
-46.7821
 30
0.0
 11
59.269
 21
-46.923
 31
0.0
  0
LINE
  5
1C0
  8
0
 10
59.269
 20
-46.923
 30
0.0
 11
60.0453
 21
-47.053
 31
0.0
  0
LINE
  5
1C1
  8
0
 10
60.0453
 20
-47.053
 30
0.0
 11
60.8549
 21
-47.1706
 31
0.0
  0
LINE
  5
1C2
  8
0
 10
60.8549
 20
-47.1706
 30
0.0
 11
61.3138
 21
-46.5727
 31
0.0
  0
LINE
  5
1C3
  8
0
 10
61.3138
 20
-46.5727
 30
0.0
 11
60.9906
 21
-45.8211
 31
0.0
  0
LINE
  5
1C4
  8
0
 10
60.9906
 20
-45.8211
 30
0.0
 11
60.6641
 21
-45.1049
 31
0.0
  0
LINE
  5
1C5
  8
0
 10
60.6641
 20
-45.1049
 30
0.0
 11
60.3357
 21
-44.4238
 31
0.0
  0
LINE
  5
1C6
  8
0
 10
60.3357
 20
-44.4238
 30
0.0
 11
60.0067
 21
-43.7775
 31
0.0
  0
LINE
  5
1C7
  8
0
 10
60.0067
 20
-43.7775
 30
0.0
 11
59.6786
 21
-43.1658
 31
0.0
  0
LINE
  5
1C8
  8
0
 10
59.6786
 20
-43.1658
 30
0.0
 11
59.6712
 21
-43.1604
 31
0.0
  0
LINE
  5
1C9
  8
0
 10
59.6712
 20
-43.1604
 30
0.0
 11
60.0506
 21
-42.631
 31
0.0
  0
LINE
  5
1CA
  8
0
 10
60.0506
 20
-42.631
 30
0.0
 11
60.058
 21
-42.6362
 31
0.0
  0
LINE
  5
1CB
  8
0
 10
60.058
 20
-42.6362
 30
0.0
 11
60.7428
 21
-42.7504
 31
0.0
  0
LINE
  5
1CC
  8
0
 10
60.7428
 20
-42.7504
 30
0.0
 11
61.4604
 21
-42.8541
 31
0.0
  0
LINE
  5
1CD
  8
0
 10
61.4604
 20
-42.8541
 30
0.0
 11
62.211
 21
-42.9461
 31
0.0
  0
LINE
  5
1CE
  8
0
 10
62.211
 20
-42.9461
 30
0.0
 11
62.9942
 21
-43.0251
 31
0.0
  0
LINE
  5
1CF
  8
0
 10
62.9942
 20
-43.0251
 30
0.0
 11
63.8098
 21
-43.0895
 31
0.0
  0
LINE
  5
1D0
  8
0
 10
63.8098
 20
-43.0895
 30
0.0
 11
64.2285
 21
-42.4629
 31
0.0
  0
LINE
  5
1D1
  8
0
 10
64.2285
 20
-42.4629
 30
0.0
 11
63.8568
 21
-41.734
 31
0.0
  0
LINE
  5
1D2
  8
0
 10
63.8568
 20
-41.734
 30
0.0
 11
63.4842
 21
-41.0407
 31
0.0
  0
LINE
  5
1D3
  8
0
 10
63.4842
 20
-41.0407
 30
0.0
 11
63.1119
 21
-40.3825
 31
0.0
  0
LINE
  5
1D4
  8
0
 10
63.1119
 20
-40.3825
 30
0.0
 11
62.7414
 21
-39.7591
 31
0.0
  0
LINE
  5
1D5
  8
0
 10
62.7414
 20
-39.7591
 30
0.0
 11
62.374
 21
-39.1702
 31
0.0
  0
LINE
  5
1D6
  8
0
 10
62.374
 20
-39.1702
 30
0.0
 11
62.3662
 21
-39.1654
 31
0.0
  0
LINE
  5
1D7
  8
0
 10
62.3662
 20
-39.1654
 30
0.0
 11
62.7102
 21
-38.6122
 31
0.0
  0
LINE
  5
1D8
  8
0
 10
62.7102
 20
-38.6122
 30
0.0
 11
62.718
 21
-38.617
 31
0.0
  0
LINE
  5
1D9
  8
0
 10
62.718
 20
-38.617
 30
0.0
 11
63.4087
 21
-38.6861
 31
0.0
  0
LINE
  5
1DA
  8
0
 10
63.4087
 20
-38.6861
 30
0.0
 11
64.1317
 21
-38.7427
 31
0.0
  0
LINE
  5
1DB
  8
0
 10
64.1317
 20
-38.7427
 30
0.0
 11
64.8866
 21
-38.7854
 31
0.0
  0
LINE
  5
1DC
  8
0
 10
64.8866
 20
-38.7854
 30
0.0
 11
65.6733
 21
-38.8129
 31
0.0
  0
LINE
  5
1DD
  8
0
 10
65.6733
 20
-38.8129
 30
0.0
 11
66.4913
 21
-38.8239
 31
0.0
  0
LINE
  5
1DE
  8
0
 10
66.4913
 20
-38.8239
 30
0.0
 11
66.8682
 21
-38.1712
 31
0.0
  0
LINE
  5
1DF
  8
0
 10
66.8682
 20
-38.1712
 30
0.0
 11
66.4496
 21
-37.4682
 31
0.0
  0
LINE
  5
1E0
  8
0
 10
66.4496
 20
-37.4682
 30
0.0
 11
66.0324
 21
-36.8007
 31
0.0
  0
LINE
  5
1E1
  8
0
 10
66.0324
 20
-36.8007
 30
0.0
 11
65.618
 21
-36.1683
 31
0.0
  0
LINE
  5
1E2
  8
0
 10
65.618
 20
-36.1683
 30
0.0
 11
65.2075
 21
-35.5705
 31
0.0
  0
LINE
  5
1E3
  8
0
 10
65.2075
 20
-35.5705
 30
0.0
 11
64.8023
 21
-35.0069
 31
0.0
  0
LINE
  5
1E4
  8
0
 10
64.8023
 20
-35.0069
 30
0.0
 11
64.7942
 21
-35.0025
 31
0.0
  0
LINE
  5
1E5
  8
0
 10
64.7942
 20
-35.0025
 30
0.0
 11
65.1013
 21
-34.4281
 31
0.0
  0
LINE
  5
1E6
  8
0
 10
65.1013
 20
-34.4281
 30
0.0
 11
65.1094
 21
-34.4323
 31
0.0
  0
LINE
  5
1E7
  8
0
 10
65.1094
 20
-34.4323
 30
0.0
 11
65.8031
 21
-34.4561
 31
0.0
  0
LINE
  5
1E8
  8
0
 10
65.8031
 20
-34.4561
 30
0.0
 11
66.5282
 21
-34.4653
 31
0.0
  0
LINE
  5
1E9
  8
0
 10
66.5282
 20
-34.4653
 30
0.0
 11
67.2844
 21
-34.4586
 31
0.0
  0
LINE
  5
1EA
  8
0
 10
67.2844
 20
-34.4586
 30
0.0
 11
68.0711
 21
-34.4346
 31
0.0
  0
LINE
  5
1EB
  8
0
 10
68.0711
 20
-34.4346
 30
0.0
 11
68.8882
 21
-34.3921
 31
0.0
  0
LINE
  5
1EC
  8
0
 10
68.8882
 20
-34.3921
 30
0.0
 11
69.2215
 21
-33.7161
 31
0.0
  0
LINE
  5
1ED
  8
0
 10
69.2215
 20
-33.7161
 30
0.0
 11
68.7579
 21
-33.042
 31
0.0
  0
LINE
  5
1EE
  8
0
 10
68.7579
 20
-33.042
 30
0.0
 11
68.2979
 21
-32.4032
 31
0.0
  0
LINE
  5
1EF
  8
0
 10
68.2979
 20
-32.4032
 30
0.0
 11
67.843
 21
-31.7993
 31
0.0
  0
LINE
  5
1F0
  8
0
 10
67.843
 20
-31.7993
 30
0.0
 11
67.3943
 21
-31.2296
 31
0.0
  0
LINE
  5
1F1
  8
0
 10
67.3943
 20
-31.2296
 30
0.0
 11
66.9531
 21
-30.6937
 31
0.0
  0
LINE
  5
1F2
  8
0
 10
66.9531
 20
-30.6937
 30
0.0
 11
66.9448
 21
-30.6899
 31
0.0
  0
LINE
  5
1F3
  8
0
 10
66.9448
 20
-30.6899
 30
0.0
 11
67.2136
 21
-30.0965
 31
0.0
  0
LINE
  5
1F4
  8
0
 10
67.2136
 20
-30.0965
 30
0.0
 11
67.222
 21
-30.1003
 31
0.0
  0
LINE
  5
1F5
  8
0
 10
67.222
 20
-30.1003
 30
0.0
 11
67.9158
 21
-30.0786
 31
0.0
  0
LINE
  5
1F6
  8
0
 10
67.9158
 20
-30.0786
 30
0.0
 11
68.6399
 21
-30.0403
 31
0.0
  0
LINE
  5
1F7
  8
0
 10
68.6399
 20
-30.0403
 30
0.0
 11
69.394
 21
-29.9842
 31
0.0
  0
LINE
  5
1F8
  8
0
 10
69.394
 20
-29.9842
 30
0.0
 11
70.1775
 21
-29.9088
 31
0.0
  0
LINE
  5
1F9
  8
0
 10
70.1775
 20
-29.9088
 30
0.0
 11
70.99
 21
-29.8129
 31
0.0
  0
LINE
  5
1FA
  8
0
 10
70.99
 20
-29.8129
 30
0.0
 11
71.2784
 21
-29.1166
 31
0.0
  0
LINE
  5
1FB
  8
0
 10
71.2784
 20
-29.1166
 30
0.0
 11
70.7717
 21
-28.4743
 31
0.0
  0
LINE
  5
1FC
  8
0
 10
70.7717
 20
-28.4743
 30
0.0
 11
70.271
 21
-27.8669
 31
0.0
  0
LINE
  5
1FD
  8
0
 10
70.271
 20
-27.8669
 30
0.0
 11
69.7775
 21
-27.294
 31
0.0
  0
LINE
  5
1FE
  8
0
 10
69.7775
 20
-27.294
 30
0.0
 11
69.2925
 21
-26.7549
 31
0.0
  0
LINE
  5
1FF
  8
0
 10
69.2925
 20
-26.7549
 30
0.0
 11
68.8172
 21
-26.249
 31
0.0
  0
LINE
  5
200
  8
0
 10
68.8172
 20
-26.249
 30
0.0
 11
68.8087
 21
-26.2458
 31
0.0
  0
LINE
  5
201
  8
0
 10
68.8087
 20
-26.2458
 30
0.0
 11
69.0381
 21
-25.6361
 31
0.0
  0
LINE
  5
202
  8
0
 10
69.0381
 20
-25.6361
 30
0.0
 11
69.0467
 21
-25.6393
 31
0.0
  0
LINE
  5
203
  8
0
 10
69.0467
 20
-25.6393
 30
0.0
 11
69.7376
 21
-25.5723
 31
0.0
  0
LINE
  5
204
  8
0
 10
69.7376
 20
-25.5723
 30
0.0
 11
70.4577
 21
-25.4868
 31
0.0
  0
LINE
  5
205
  8
0
 10
70.4577
 20
-25.4868
 30
0.0
 11
71.2065
 21
-25.3814
 31
0.0
  0
LINE
  5
206
  8
0
 10
71.2065
 20
-25.3814
 30
0.0
 11
71.9834
 21
-25.2549
 31
0.0
  0
LINE
  5
207
  8
0
 10
71.9834
 20
-25.2549
 30
0.0
 11
72.7879
 21
-25.1061
 31
0.0
  0
LINE
  5
208
  8
0
 10
72.7879
 20
-25.1061
 30
0.0
 11
73.0302
 21
-24.3924
 31
0.0
  0
LINE
  5
209
  8
0
 10
73.0302
 20
-24.3924
 30
0.0
 11
72.4825
 21
-23.7846
 31
0.0
  0
LINE
  5
20A
  8
0
 10
72.4825
 20
-23.7846
 30
0.0
 11
71.9431
 21
-23.2113
 31
0.0
  0
LINE
  5
20B
  8
0
 10
71.9431
 20
-23.2113
 30
0.0
 11
71.4132
 21
-22.6719
 31
0.0
  0
LINE
  5
20C
  8
0
 10
71.4132
 20
-22.6719
 30
0.0
 11
70.894
 21
-22.1657
 31
0.0
  0
LINE
  5
20D
  8
0
 10
70.894
 20
-22.1657
 30
0.0
 11
70.3866
 21
-21.6919
 31
0.0
  0
LINE
  5
20E
  8
0
 10
70.3866
 20
-21.6919
 30
0.0
 11
70.3779
 21
-21.6893
 31
0.0
  0
LINE
  5
20F
  8
0
 10
70.3779
 20
-21.6893
 30
0.0
 11
70.567
 21
-21.0659
 31
0.0
  0
LINE
  5
210
  8
0
 10
70.567
 20
-21.0659
 30
0.0
 11
70.5757
 21
-21.0685
 31
0.0
  0
LINE
  5
211
  8
0
 10
70.5757
 20
-21.0685
 30
0.0
 11
71.2608
 21
-20.9565
 31
0.0
  0
LINE
  5
212
  8
0
 10
71.2608
 20
-20.9565
 30
0.0
 11
71.9738
 21
-20.824
 31
0.0
  0
LINE
  5
213
  8
0
 10
71.9738
 20
-20.824
 30
0.0
 11
72.714
 21
-20.6699
 31
0.0
  0
LINE
  5
214
  8
0
 10
72.714
 20
-20.6699
 30
0.0
 11
73.481
 21
-20.4929
 31
0.0
  0
LINE
  5
215
  8
0
 10
73.481
 20
-20.4929
 30
0.0
 11
74.2741
 21
-20.2918
 31
0.0
  0
LINE
  5
216
  8
0
 10
74.2741
 20
-20.2918
 30
0.0
 11
74.4691
 21
-19.5638
 31
0.0
  0
LINE
  5
217
  8
0
 10
74.4691
 20
-19.5638
 30
0.0
 11
73.8829
 21
-18.9931
 31
0.0
  0
LINE
  5
218
  8
0
 10
73.8829
 20
-18.9931
 30
0.0
 11
73.3072
 21
-18.4563
 31
0.0
  0
LINE
  5
219
  8
0
 10
73.3072
 20
-18.4563
 30
0.0
 11
72.7431
 21
-17.9527
 31
0.0
  0
LINE
  5
21A
  8
0
 10
72.7431
 20
-17.9527
 30
0.0
 11
72.1919
 21
-17.4816
 31
0.0
  0
LINE
  5
21B
  8
0
 10
72.1919
 20
-17.4816
 30
0.0
 11
71.6546
 21
-17.042
 31
0.0
  0
LINE
  5
21C
  8
0
 10
71.6546
 20
-17.042
 30
0.0
 11
71.6458
 21
-17.0399
 31
0.0
  0
LINE
  5
21D
  8
0
 10
71.6458
 20
-17.0399
 30
0.0
 11
71.7937
 21
-16.4055
 31
0.0
  0
LINE
  5
21E
  8
0
 10
71.7937
 20
-16.4055
 30
0.0
 11
71.8026
 21
-16.4075
 31
0.0
  0
LINE
  5
21F
  8
0
 10
71.8026
 20
-16.4075
 30
0.0
 11
72.4789
 21
-16.2509
 31
0.0
  0
LINE
  5
220
  8
0
 10
72.4789
 20
-16.2509
 30
0.0
 11
73.1816
 21
-16.0721
 31
0.0
  0
LINE
  5
221
  8
0
 10
73.1816
 20
-16.0721
 30
0.0
 11
73.9102
 21
-15.8699
 31
0.0
  0
LINE
  5
222
  8
0
 10
73.9102
 20
-15.8699
 30
0.0
 11
74.664
 21
-15.6432
 31
0.0
  0
LINE
  5
223
  8
0
 10
74.664
 20
-15.6432
 30
0.0
 11
75.4422
 21
-15.3906
 31
0.0
  0
LINE
  5
224
  8
0
 10
75.4422
 20
-15.3906
 30
0.0
 11
75.5892
 21
-14.6514
 31
0.0
  0
LINE
  5
225
  8
0
 10
75.5892
 20
-14.6514
 30
0.0
 11
74.9669
 21
-14.1203
 31
0.0
  0
LINE
  5
226
  8
0
 10
74.9669
 20
-14.1203
 30
0.0
 11
74.3573
 21
-13.6223
 31
0.0
  0
LINE
  5
227
  8
0
 10
74.3573
 20
-13.6223
 30
0.0
 11
73.7615
 21
-13.1567
 31
0.0
  0
LINE
  5
228
  8
0
 10
73.7615
 20
-13.1567
 30
0.0
 11
73.1807
 21
-12.7225
 31
0.0
  0
LINE
  5
229
  8
0
 10
73.1807
 20
-12.7225
 30
0.0
 11
72.6158
 21
-12.3191
 31
0.0
  0
LINE
  5
22A
  8
0
 10
72.6158
 20
-12.3191
 30
0.0
 11
72.6068
 21
-12.3176
 31
0.0
  0
LINE
  5
22B
  8
0
 10
72.6068
 20
-12.3176
 30
0.0
 11
72.7129
 21
-11.6748
 31
0.0
  0
LINE
  5
22C
  8
0
 10
72.7129
 20
-11.6748
 30
0.0
 11
72.722
 21
-11.6763
 31
0.0
  0
LINE
  5
22D
  8
0
 10
72.722
 20
-11.6763
 30
0.0
 11
73.3865
 21
-11.4758
 31
0.0
  0
LINE
  5
22E
  8
0
 10
73.3865
 20
-11.4758
 30
0.0
 11
74.0761
 21
-11.2514
 31
0.0
  0
LINE
  5
22F
  8
0
 10
74.0761
 20
-11.2514
 30
0.0
 11
74.7899
 21
-11.002
 31
0.0
  0
LINE
  5
230
  8
0
 10
74.7899
 20
-11.002
 30
0.0
 11
75.5273
 21
-10.7264
 31
0.0
  0
LINE
  5
231
  8
0
 10
75.5273
 20
-10.7264
 30
0.0
 11
76.2872
 21
-10.4235
 31
0.0
  0
LINE
  5
232
  8
0
 10
76.2872
 20
-10.4235
 30
0.0
 11
76.3856
 21
-9.67625
 31
0.0
  0
LINE
  5
233
  8
0
 10
76.3856
 20
-9.67625
 30
0.0
 11
75.7299
 21
-9.18697
 31
0.0
  0
LINE
  5
234
  8
0
 10
75.7299
 20
-9.18697
 30
0.0
 11
75.0891
 21
-8.72992
 31
0.0
  0
LINE
  5
235
  8
0
 10
75.0891
 20
-8.72992
 30
0.0
 11
74.4641
 21
-8.30426
 31
0.0
  0
LINE
  5
236
  8
0
 10
74.4641
 20
-8.30426
 30
0.0
 11
73.8561
 21
-7.90906
 31
0.0
  0
LINE
  5
237
  8
0
 10
73.8561
 20
-7.90906
 30
0.0
 11
73.2661
 21
-7.5434
 31
0.0
  0
LINE
  5
238
  8
0
 10
73.2661
 20
-7.5434
 30
0.0
 11
73.257
 21
-7.54247
 31
0.0
  0
LINE
  5
239
  8
0
 10
73.257
 20
-7.54247
 30
0.0
 11
73.3208
 21
-6.89418
 31
0.0
  0
LINE
  5
23A
  8
0
 10
73.3208
 20
-6.89418
 30
0.0
 11
73.3299
 21
-6.89503
 31
0.0
  0
LINE
  5
23B
  8
0
 10
73.3299
 20
-6.89503
 30
0.0
 11
73.9799
 21
-6.6515
 31
0.0
  0
LINE
  5
23C
  8
0
 10
73.9799
 20
-6.6515
 30
0.0
 11
74.6534
 21
-6.38252
 31
0.0
  0
LINE
  5
23D
  8
0
 10
74.6534
 20
-6.38252
 30
0.0
 11
75.3494
 21
-6.08696
 31
0.0
  0
LINE
  5
23E
  8
0
 10
75.3494
 20
-6.08696
 30
0.0
 11
76.0671
 21
-5.76373
 31
0.0
  0
LINE
  5
23F
  8
0
 10
76.0671
 20
-5.76373
 30
0.0
 11
76.8056
 21
-5.41176
 31
0.0
  0
LINE
  5
240
  8
0
 10
76.8056
 20
-5.41176
 30
0.0
 11
76.8549
 21
-4.65968
 31
0.0
  0
LINE
  5
241
  8
0
 10
76.8549
 20
-4.65968
 30
0.0
 11
76.1686
 21
-4.21431
 31
0.0
  0
LINE
  5
242
  8
0
 10
76.1686
 20
-4.21431
 30
0.0
 11
75.4993
 21
-3.80017
 31
0.0
  0
LINE
  5
243
  8
0
 10
75.4993
 20
-3.80017
 30
0.0
 11
74.8478
 21
-3.41629
 31
0.0
  0
LINE
  5
244
  8
0
 10
74.8478
 20
-3.41629
 30
0.0
 11
74.2152
 21
-3.06171
 31
0.0
  0
LINE
  5
245
  8
0
 10
74.2152
 20
-3.06171
 30
0.0
 11
73.6026
 21
-2.73541
 31
0.0
  0
LINE
  5
246
  8
0
 10
73.6026
 20
-2.73541
 30
0.0
 11
73.5934
 21
-2.73508
 31
0.0
  0
LINE
  5
247
  8
0
 10
73.5934
 20
-2.73508
 30
0.0
 11
73.6147
 21
-2.08401
 31
0.0
  0
LINE
  5
248
  8
0
 10
73.6147
 20
-2.08401
 30
0.0
 11
73.6239
 21
-2.08427
 31
0.0
  0
LINE
  5
249
  8
0
 10
73.6239
 20
-2.08427
 30
0.0
 11
74.2566
 21
-1.79875
 31
0.0
  0
LINE
  5
24A
  8
0
 10
74.2566
 20
-1.79875
 30
0.0
 11
74.911
 21
-1.4863
 31
0.0
  0
LINE
  5
24B
  8
0
 10
74.911
 20
-1.4863
 30
0.0
 11
75.5862
 21
-1.14584
 31
0.0
  0
LINE
  5
24C
  8
0
 10
75.5862
 20
-1.14584
 30
0.0
 11
76.2812
 21
-0.776367
 31
0.0
  0
LINE
  5
24D
  8
0
 10
76.2812
 20
-0.776367
 30
0.0
 11
76.9951
 21
-0.376846
 31
0.0
  0
LINE
  5
24E
  8
0
 10
76.9951
 20
-0.376846
 30
0.0
 11
76.9951
 21
0.376846
 31
0.0
  0
LINE
  5
24F
  8
0
 10
76.9951
 20
0.376846
 30
0.0
 11
76.2812
 21
0.776367
 31
0.0
  0
LINE
  5
250
  8
0
 10
76.2812
 20
0.776367
 30
0.0
 11
75.5862
 21
1.14584
 31
0.0
  0
LINE
  5
251
  8
0
 10
75.5862
 20
1.14584
 30
0.0
 11
74.911
 21
1.4863
 31
0.0
  0
LINE
  5
252
  8
0
 10
74.911
 20
1.4863
 30
0.0
 11
74.2566
 21
1.79875
 31
0.0
  0
LINE
  5
253
  8
0
 10
74.2566
 20
1.79875
 30
0.0
 11
73.6239
 21
2.08427
 31
0.0
  0
LINE
  5
254
  8
0
 10
73.6239
 20
2.08427
 30
0.0
 11
73.6147
 21
2.08401
 31
0.0
  0
LINE
  5
255
  8
0
 10
73.6147
 20
2.08401
 30
0.0
 11
73.5934
 21
2.73508
 31
0.0
  0
LINE
  5
256
  8
0
 10
73.5934
 20
2.73508
 30
0.0
 11
73.6026
 21
2.73541
 31
0.0
  0
LINE
  5
257
  8
0
 10
73.6026
 20
2.73541
 30
0.0
 11
74.2152
 21
3.06171
 31
0.0
  0
LINE
  5
258
  8
0
 10
74.2152
 20
3.06171
 30
0.0
 11
74.8478
 21
3.41629
 31
0.0
  0
LINE
  5
259
  8
0
 10
74.8478
 20
3.41629
 30
0.0
 11
75.4993
 21
3.80017
 31
0.0
  0
LINE
  5
25A
  8
0
 10
75.4993
 20
3.80017
 30
0.0
 11
76.1686
 21
4.21431
 31
0.0
  0
LINE
  5
25B
  8
0
 10
76.1686
 20
4.21431
 30
0.0
 11
76.8549
 21
4.65968
 31
0.0
  0
LINE
  5
25C
  8
0
 10
76.8549
 20
4.65968
 30
0.0
 11
76.8056
 21
5.41176
 31
0.0
  0
LINE
  5
25D
  8
0
 10
76.8056
 20
5.41176
 30
0.0
 11
76.0671
 21
5.76373
 31
0.0
  0
LINE
  5
25E
  8
0
 10
76.0671
 20
5.76373
 30
0.0
 11
75.3494
 21
6.08696
 31
0.0
  0
LINE
  5
25F
  8
0
 10
75.3494
 20
6.08696
 30
0.0
 11
74.6534
 21
6.38252
 31
0.0
  0
LINE
  5
260
  8
0
 10
74.6534
 20
6.38252
 30
0.0
 11
73.9799
 21
6.6515
 31
0.0
  0
LINE
  5
261
  8
0
 10
73.9799
 20
6.6515
 30
0.0
 11
73.3299
 21
6.89503
 31
0.0
  0
LINE
  5
262
  8
0
 10
73.3299
 20
6.89503
 30
0.0
 11
73.3208
 21
6.89418
 31
0.0
  0
LINE
  5
263
  8
0
 10
73.3208
 20
6.89418
 30
0.0
 11
73.257
 21
7.54247
 31
0.0
  0
LINE
  5
264
  8
0
 10
73.257
 20
7.54247
 30
0.0
 11
73.2661
 21
7.5434
 31
0.0
  0
LINE
  5
265
  8
0
 10
73.2661
 20
7.5434
 30
0.0
 11
73.8561
 21
7.90906
 31
0.0
  0
LINE
  5
266
  8
0
 10
73.8561
 20
7.90906
 30
0.0
 11
74.4641
 21
8.30426
 31
0.0
  0
LINE
  5
267
  8
0
 10
74.4641
 20
8.30426
 30
0.0
 11
75.0891
 21
8.72992
 31
0.0
  0
LINE
  5
268
  8
0
 10
75.0891
 20
8.72992
 30
0.0
 11
75.7299
 21
9.18697
 31
0.0
  0
LINE
  5
269
  8
0
 10
75.7299
 20
9.18697
 30
0.0
 11
76.3856
 21
9.67625
 31
0.0
  0
LINE
  5
26A
  8
0
 10
76.3856
 20
9.67625
 30
0.0
 11
76.2872
 21
10.4235
 31
0.0
  0
LINE
  5
26B
  8
0
 10
76.2872
 20
10.4235
 30
0.0
 11
75.5273
 21
10.7264
 31
0.0
  0
LINE
  5
26C
  8
0
 10
75.5273
 20
10.7264
 30
0.0
 11
74.7899
 21
11.002
 31
0.0
  0
LINE
  5
26D
  8
0
 10
74.7899
 20
11.002
 30
0.0
 11
74.0761
 21
11.2514
 31
0.0
  0
LINE
  5
26E
  8
0
 10
74.0761
 20
11.2514
 30
0.0
 11
73.3865
 21
11.4758
 31
0.0
  0
LINE
  5
26F
  8
0
 10
73.3865
 20
11.4758
 30
0.0
 11
72.722
 21
11.6763
 31
0.0
  0
LINE
  5
270
  8
0
 10
72.722
 20
11.6763
 30
0.0
 11
72.7129
 21
11.6748
 31
0.0
  0
LINE
  5
271
  8
0
 10
72.7129
 20
11.6748
 30
0.0
 11
72.6068
 21
12.3176
 31
0.0
  0
LINE
  5
272
  8
0
 10
72.6068
 20
12.3176
 30
0.0
 11
72.6158
 21
12.3191
 31
0.0
  0
LINE
  5
273
  8
0
 10
72.6158
 20
12.3191
 30
0.0
 11
73.1807
 21
12.7225
 31
0.0
  0
LINE
  5
274
  8
0
 10
73.1807
 20
12.7225
 30
0.0
 11
73.7615
 21
13.1567
 31
0.0
  0
LINE
  5
275
  8
0
 10
73.7615
 20
13.1567
 30
0.0
 11
74.3573
 21
13.6223
 31
0.0
  0
LINE
  5
276
  8
0
 10
74.3573
 20
13.6223
 30
0.0
 11
74.9669
 21
14.1203
 31
0.0
  0
LINE
  5
277
  8
0
 10
74.9669
 20
14.1203
 30
0.0
 11
75.5892
 21
14.6514
 31
0.0
  0
LINE
  5
278
  8
0
 10
75.5892
 20
14.6514
 30
0.0
 11
75.4422
 21
15.3906
 31
0.0
  0
LINE
  5
279
  8
0
 10
75.4422
 20
15.3906
 30
0.0
 11
74.664
 21
15.6432
 31
0.0
  0
LINE
  5
27A
  8
0
 10
74.664
 20
15.6432
 30
0.0
 11
73.9102
 21
15.8699
 31
0.0
  0
LINE
  5
27B
  8
0
 10
73.9102
 20
15.8699
 30
0.0
 11
73.1816
 21
16.0721
 31
0.0
  0
LINE
  5
27C
  8
0
 10
73.1816
 20
16.0721
 30
0.0
 11
72.4789
 21
16.2509
 31
0.0
  0
LINE
  5
27D
  8
0
 10
72.4789
 20
16.2509
 30
0.0
 11
71.8026
 21
16.4075
 31
0.0
  0
LINE
  5
27E
  8
0
 10
71.8026
 20
16.4075
 30
0.0
 11
71.7937
 21
16.4055
 31
0.0
  0
LINE
  5
27F
  8
0
 10
71.7937
 20
16.4055
 30
0.0
 11
71.6458
 21
17.0399
 31
0.0
  0
LINE
  5
280
  8
0
 10
71.6458
 20
17.0399
 30
0.0
 11
71.6546
 21
17.042
 31
0.0
  0
LINE
  5
281
  8
0
 10
71.6546
 20
17.042
 30
0.0
 11
72.1919
 21
17.4816
 31
0.0
  0
LINE
  5
282
  8
0
 10
72.1919
 20
17.4816
 30
0.0
 11
72.7431
 21
17.9527
 31
0.0
  0
LINE
  5
283
  8
0
 10
72.7431
 20
17.9527
 30
0.0
 11
73.3072
 21
18.4563
 31
0.0
  0
LINE
  5
284
  8
0
 10
73.3072
 20
18.4563
 30
0.0
 11
73.8829
 21
18.9931
 31
0.0
  0
LINE
  5
285
  8
0
 10
73.8829
 20
18.9931
 30
0.0
 11
74.4691
 21
19.5638
 31
0.0
  0
LINE
  5
286
  8
0
 10
74.4691
 20
19.5638
 30
0.0
 11
74.2741
 21
20.2918
 31
0.0
  0
LINE
  5
287
  8
0
 10
74.2741
 20
20.2918
 30
0.0
 11
73.481
 21
20.4929
 31
0.0
  0
LINE
  5
288
  8
0
 10
73.481
 20
20.4929
 30
0.0
 11
72.714
 21
20.6699
 31
0.0
  0
LINE
  5
289
  8
0
 10
72.714
 20
20.6699
 30
0.0
 11
71.9738
 21
20.824
 31
0.0
  0
LINE
  5
28A
  8
0
 10
71.9738
 20
20.824
 30
0.0
 11
71.2608
 21
20.9565
 31
0.0
  0
LINE
  5
28B
  8
0
 10
71.2608
 20
20.9565
 30
0.0
 11
70.5757
 21
21.0685
 31
0.0
  0
LINE
  5
28C
  8
0
 10
70.5757
 20
21.0685
 30
0.0
 11
70.567
 21
21.0659
 31
0.0
  0
LINE
  5
28D
  8
0
 10
70.567
 20
21.0659
 30
0.0
 11
70.3779
 21
21.6893
 31
0.0
  0
LINE
  5
28E
  8
0
 10
70.3779
 20
21.6893
 30
0.0
 11
70.3866
 21
21.6919
 31
0.0
  0
LINE
  5
28F
  8
0
 10
70.3866
 20
21.6919
 30
0.0
 11
70.894
 21
22.1657
 31
0.0
  0
LINE
  5
290
  8
0
 10
70.894
 20
22.1657
 30
0.0
 11
71.4132
 21
22.6719
 31
0.0
  0
LINE
  5
291
  8
0
 10
71.4132
 20
22.6719
 30
0.0
 11
71.9431
 21
23.2113
 31
0.0
  0
LINE
  5
292
  8
0
 10
71.9431
 20
23.2113
 30
0.0
 11
72.4825
 21
23.7846
 31
0.0
  0
LINE
  5
293
  8
0
 10
72.4825
 20
23.7846
 30
0.0
 11
73.0302
 21
24.3924
 31
0.0
  0
LINE
  5
294
  8
0
 10
73.0302
 20
24.3924
 30
0.0
 11
72.7879
 21
25.1061
 31
0.0
  0
LINE
  5
295
  8
0
 10
72.7879
 20
25.1061
 30
0.0
 11
71.9834
 21
25.2549
 31
0.0
  0
LINE
  5
296
  8
0
 10
71.9834
 20
25.2549
 30
0.0
 11
71.2065
 21
25.3814
 31
0.0
  0
LINE
  5
297
  8
0
 10
71.2065
 20
25.3814
 30
0.0
 11
70.4577
 21
25.4868
 31
0.0
  0
LINE
  5
298
  8
0
 10
70.4577
 20
25.4868
 30
0.0
 11
69.7376
 21
25.5723
 31
0.0
  0
LINE
  5
299
  8
0
 10
69.7376
 20
25.5723
 30
0.0
 11
69.0467
 21
25.6393
 31
0.0
  0
LINE
  5
29A
  8
0
 10
69.0467
 20
25.6393
 30
0.0
 11
69.0381
 21
25.6361
 31
0.0
  0
LINE
  5
29B
  8
0
 10
69.0381
 20
25.6361
 30
0.0
 11
68.8087
 21
26.2458
 31
0.0
  0
LINE
  5
29C
  8
0
 10
68.8087
 20
26.2458
 30
0.0
 11
68.8172
 21
26.249
 31
0.0
  0
LINE
  5
29D
  8
0
 10
68.8172
 20
26.249
 30
0.0
 11
69.2925
 21
26.7549
 31
0.0
  0
LINE
  5
29E
  8
0
 10
69.2925
 20
26.7549
 30
0.0
 11
69.7775
 21
27.294
 31
0.0
  0
LINE
  5
29F
  8
0
 10
69.7775
 20
27.294
 30
0.0
 11
70.271
 21
27.8669
 31
0.0
  0
LINE
  5
2A0
  8
0
 10
70.271
 20
27.8669
 30
0.0
 11
70.7717
 21
28.4743
 31
0.0
  0
LINE
  5
2A1
  8
0
 10
70.7717
 20
28.4743
 30
0.0
 11
71.2784
 21
29.1166
 31
0.0
  0
LINE
  5
2A2
  8
0
 10
71.2784
 20
29.1166
 30
0.0
 11
70.99
 21
29.8129
 31
0.0
  0
LINE
  5
2A3
  8
0
 10
70.99
 20
29.8129
 30
0.0
 11
70.1775
 21
29.9088
 31
0.0
  0
LINE
  5
2A4
  8
0
 10
70.1775
 20
29.9088
 30
0.0
 11
69.394
 21
29.9842
 31
0.0
  0
LINE
  5
2A5
  8
0
 10
69.394
 20
29.9842
 30
0.0
 11
68.6399
 21
30.0403
 31
0.0
  0
LINE
  5
2A6
  8
0
 10
68.6399
 20
30.0403
 30
0.0
 11
67.9158
 21
30.0786
 31
0.0
  0
LINE
  5
2A7
  8
0
 10
67.9158
 20
30.0786
 30
0.0
 11
67.222
 21
30.1003
 31
0.0
  0
LINE
  5
2A8
  8
0
 10
67.222
 20
30.1003
 30
0.0
 11
67.2136
 21
30.0965
 31
0.0
  0
LINE
  5
2A9
  8
0
 10
67.2136
 20
30.0965
 30
0.0
 11
66.9448
 21
30.6899
 31
0.0
  0
LINE
  5
2AA
  8
0
 10
66.9448
 20
30.6899
 30
0.0
 11
66.9531
 21
30.6937
 31
0.0
  0
LINE
  5
2AB
  8
0
 10
66.9531
 20
30.6937
 30
0.0
 11
67.3943
 21
31.2296
 31
0.0
  0
LINE
  5
2AC
  8
0
 10
67.3943
 20
31.2296
 30
0.0
 11
67.843
 21
31.7993
 31
0.0
  0
LINE
  5
2AD
  8
0
 10
67.843
 20
31.7993
 30
0.0
 11
68.2979
 21
32.4032
 31
0.0
  0
LINE
  5
2AE
  8
0
 10
68.2979
 20
32.4032
 30
0.0
 11
68.7579
 21
33.042
 31
0.0
  0
LINE
  5
2AF
  8
0
 10
68.7579
 20
33.042
 30
0.0
 11
69.2215
 21
33.7161
 31
0.0
  0
LINE
  5
2B0
  8
0
 10
69.2215
 20
33.7161
 30
0.0
 11
68.8882
 21
34.3921
 31
0.0
  0
LINE
  5
2B1
  8
0
 10
68.8882
 20
34.3921
 30
0.0
 11
68.0711
 21
34.4346
 31
0.0
  0
LINE
  5
2B2
  8
0
 10
68.0711
 20
34.4346
 30
0.0
 11
67.2844
 21
34.4586
 31
0.0
  0
LINE
  5
2B3
  8
0
 10
67.2844
 20
34.4586
 30
0.0
 11
66.5282
 21
34.4653
 31
0.0
  0
LINE
  5
2B4
  8
0
 10
66.5282
 20
34.4653
 30
0.0
 11
65.8031
 21
34.4561
 31
0.0
  0
LINE
  5
2B5
  8
0
 10
65.8031
 20
34.4561
 30
0.0
 11
65.1094
 21
34.4323
 31
0.0
  0
LINE
  5
2B6
  8
0
 10
65.1094
 20
34.4323
 30
0.0
 11
65.1013
 21
34.4281
 31
0.0
  0
LINE
  5
2B7
  8
0
 10
65.1013
 20
34.4281
 30
0.0
 11
64.7942
 21
35.0025
 31
0.0
  0
LINE
  5
2B8
  8
0
 10
64.7942
 20
35.0025
 30
0.0
 11
64.8023
 21
35.0069
 31
0.0
  0
LINE
  5
2B9
  8
0
 10
64.8023
 20
35.0069
 30
0.0
 11
65.2075
 21
35.5705
 31
0.0
  0
LINE
  5
2BA
  8
0
 10
65.2075
 20
35.5705
 30
0.0
 11
65.618
 21
36.1683
 31
0.0
  0
LINE
  5
2BB
  8
0
 10
65.618
 20
36.1683
 30
0.0
 11
66.0324
 21
36.8007
 31
0.0
  0
LINE
  5
2BC
  8
0
 10
66.0324
 20
36.8007
 30
0.0
 11
66.4496
 21
37.4682
 31
0.0
  0
LINE
  5
2BD
  8
0
 10
66.4496
 20
37.4682
 30
0.0
 11
66.8682
 21
38.1712
 31
0.0
  0
LINE
  5
2BE
  8
0
 10
66.8682
 20
38.1712
 30
0.0
 11
66.4913
 21
38.8239
 31
0.0
  0
LINE
  5
2BF
  8
0
 10
66.4913
 20
38.8239
 30
0.0
 11
65.6733
 21
38.8129
 31
0.0
  0
LINE
  5
2C0
  8
0
 10
65.6733
 20
38.8129
 30
0.0
 11
64.8866
 21
38.7854
 31
0.0
  0
LINE
  5
2C1
  8
0
 10
64.8866
 20
38.7854
 30
0.0
 11
64.1317
 21
38.7427
 31
0.0
  0
LINE
  5
2C2
  8
0
 10
64.1317
 20
38.7427
 30
0.0
 11
63.4087
 21
38.6861
 31
0.0
  0
LINE
  5
2C3
  8
0
 10
63.4087
 20
38.6861
 30
0.0
 11
62.718
 21
38.617
 31
0.0
  0
LINE
  5
2C4
  8
0
 10
62.718
 20
38.617
 30
0.0
 11
62.7102
 21
38.6122
 31
0.0
  0
LINE
  5
2C5
  8
0
 10
62.7102
 20
38.6122
 30
0.0
 11
62.3662
 21
39.1654
 31
0.0
  0
LINE
  5
2C6
  8
0
 10
62.3662
 20
39.1654
 30
0.0
 11
62.374
 21
39.1702
 31
0.0
  0
LINE
  5
2C7
  8
0
 10
62.374
 20
39.1702
 30
0.0
 11
62.7414
 21
39.7591
 31
0.0
  0
LINE
  5
2C8
  8
0
 10
62.7414
 20
39.7591
 30
0.0
 11
63.1119
 21
40.3825
 31
0.0
  0
LINE
  5
2C9
  8
0
 10
63.1119
 20
40.3825
 30
0.0
 11
63.4842
 21
41.0407
 31
0.0
  0
LINE
  5
2CA
  8
0
 10
63.4842
 20
41.0407
 30
0.0
 11
63.8568
 21
41.734
 31
0.0
  0
LINE
  5
2CB
  8
0
 10
63.8568
 20
41.734
 30
0.0
 11
64.2285
 21
42.4629
 31
0.0
  0
LINE
  5
2CC
  8
0
 10
64.2285
 20
42.4629
 30
0.0
 11
63.8098
 21
43.0895
 31
0.0
  0
LINE
  5
2CD
  8
0
 10
63.8098
 20
43.0895
 30
0.0
 11
62.9942
 21
43.0251
 31
0.0
  0
LINE
  5
2CE
  8
0
 10
62.9942
 20
43.0251
 30
0.0
 11
62.211
 21
42.9461
 31
0.0
  0
LINE
  5
2CF
  8
0
 10
62.211
 20
42.9461
 30
0.0
 11
61.4604
 21
42.8541
 31
0.0
  0
LINE
  5
2D0
  8
0
 10
61.4604
 20
42.8541
 30
0.0
 11
60.7428
 21
42.7504
 31
0.0
  0
LINE
  5
2D1
  8
0
 10
60.7428
 20
42.7504
 30
0.0
 11
60.058
 21
42.6362
 31
0.0
  0
LINE
  5
2D2
  8
0
 10
60.058
 20
42.6362
 30
0.0
 11
60.0506
 21
42.631
 31
0.0
  0
LINE
  5
2D3
  8
0
 10
60.0506
 20
42.631
 30
0.0
 11
59.6712
 21
43.1604
 31
0.0
  0
LINE
  5
2D4
  8
0
 10
59.6712
 20
43.1604
 30
0.0
 11
59.6786
 21
43.1658
 31
0.0
  0
LINE
  5
2D5
  8
0
 10
59.6786
 20
43.1658
 30
0.0
 11
60.0067
 21
43.7775
 31
0.0
  0
LINE
  5
2D6
  8
0
 10
60.0067
 20
43.7775
 30
0.0
 11
60.3357
 21
44.4238
 31
0.0
  0
LINE
  5
2D7
  8
0
 10
60.3357
 20
44.4238
 30
0.0
 11
60.6641
 21
45.1049
 31
0.0
  0
LINE
  5
2D8
  8
0
 10
60.6641
 20
45.1049
 30
0.0
 11
60.9906
 21
45.8211
 31
0.0
  0
LINE
  5
2D9
  8
0
 10
60.9906
 20
45.8211
 30
0.0
 11
61.3138
 21
46.5727
 31
0.0
  0
LINE
  5
2DA
  8
0
 10
61.3138
 20
46.5727
 30
0.0
 11
60.8549
 21
47.1706
 31
0.0
  0
LINE
  5
2DB
  8
0
 10
60.8549
 20
47.1706
 30
0.0
 11
60.0453
 21
47.053
 31
0.0
  0
LINE
  5
2DC
  8
0
 10
60.0453
 20
47.053
 30
0.0
 11
59.269
 21
46.923
 31
0.0
  0
LINE
  5
2DD
  8
0
 10
59.269
 20
46.923
 30
0.0
 11
58.5261
 21
46.7821
 31
0.0
  0
LINE
  5
2DE
  8
0
 10
58.5261
 20
46.7821
 30
0.0
 11
57.8167
 21
46.6316
 31
0.0
  0
LINE
  5
2DF
  8
0
 10
57.8167
 20
46.6316
 30
0.0
 11
57.1409
 21
46.4729
 31
0.0
  0
LINE
  5
2E0
  8
0
 10
57.1409
 20
46.4729
 30
0.0
 11
57.1338
 21
46.4672
 31
0.0
  0
LINE
  5
2E1
  8
0
 10
57.1338
 20
46.4672
 30
0.0
 11
56.7206
 21
46.9707
 31
0.0
  0
LINE
  5
2E2
  8
0
 10
56.7206
 20
46.9707
 30
0.0
 11
56.7276
 21
46.9765
 31
0.0
  0
LINE
  5
2E3
  8
0
 10
56.7276
 20
46.9765
 30
0.0
 11
57.0151
 21
47.6084
 31
0.0
  0
LINE
  5
2E4
  8
0
 10
57.0151
 20
47.6084
 30
0.0
 11
57.301
 21
48.2748
 31
0.0
  0
LINE
  5
2E5
  8
0
 10
57.301
 20
48.2748
 30
0.0
 11
57.5842
 21
48.9759
 31
0.0
  0
LINE
  5
2E6
  8
0
 10
57.5842
 20
48.9759
 30
0.0
 11
57.8631
 21
49.712
 31
0.0
  0
LINE
  5
2E7
  8
0
 10
57.8631
 20
49.712
 30
0.0
 11
58.1365
 21
50.4831
 31
0.0
  0
LINE
  5
2E8
  8
0
 10
58.1365
 20
50.4831
 30
0.0
 11
57.6395
 21
51.0497
 31
0.0
  0
LINE
  5
2E9
  8
0
 10
57.6395
 20
51.0497
 30
0.0
 11
56.8393
 21
50.8794
 31
0.0
  0
LINE
  5
2EA
  8
0
 10
56.8393
 20
50.8794
 30
0.0
 11
56.0732
 21
50.6989
 31
0.0
  0
LINE
  5
2EB
  8
0
 10
56.0732
 20
50.6989
 30
0.0
 11
55.3411
 21
50.5097
 31
0.0
  0
LINE
  5
2EC
  8
0
 10
55.3411
 20
50.5097
 30
0.0
 11
54.6431
 21
50.3131
 31
0.0
  0
LINE
  5
2ED
  8
0
 10
54.6431
 20
50.3131
 30
0.0
 11
53.9791
 21
50.1106
 31
0.0
  0
LINE
  5
2EE
  8
0
 10
53.9791
 20
50.1106
 30
0.0
 11
53.9724
 21
50.1044
 31
0.0
  0
LINE
  5
2EF
  8
0
 10
53.9724
 20
50.1044
 30
0.0
 11
53.5271
 21
50.5798
 31
0.0
  0
LINE
  5
2F0
  8
0
 10
53.5271
 20
50.5798
 30
0.0
 11
53.5337
 21
50.5861
 31
0.0
  0
LINE
  5
2F1
  8
0
 10
53.5337
 20
50.5861
 30
0.0
 11
53.7792
 21
51.2354
 31
0.0
  0
LINE
  5
2F2
  8
0
 10
53.7792
 20
51.2354
 30
0.0
 11
54.021
 21
51.9191
 31
0.0
  0
LINE
  5
2F3
  8
0
 10
54.021
 20
51.9191
 30
0.0
 11
54.2577
 21
52.6372
 31
0.0
  0
LINE
  5
2F4
  8
0
 10
54.2577
 20
52.6372
 30
0.0
 11
54.4879
 21
53.39
 31
0.0
  0
LINE
  5
2F5
  8
0
 10
54.4879
 20
53.39
 30
0.0
 11
54.7103
 21
54.1773
 31
0.0
  0
LINE
  5
2F6
  8
0
 10
54.7103
 20
54.1773
 30
0.0
 11
54.1773
 21
54.7103
 31
0.0
  0
LINE
  5
2F7
  8
0
 10
54.1773
 20
54.7103
 30
0.0
 11
53.39
 21
54.4879
 31
0.0
  0
LINE
  5
2F8
  8
0
 10
53.39
 20
54.4879
 30
0.0
 11
52.6372
 21
54.2577
 31
0.0
  0
LINE
  5
2F9
  8
0
 10
52.6372
 20
54.2577
 30
0.0
 11
51.9191
 21
54.021
 31
0.0
  0
LINE
  5
2FA
  8
0
 10
51.9191
 20
54.021
 30
0.0
 11
51.2354
 21
53.7792
 31
0.0
  0
LINE
  5
2FB
  8
0
 10
51.2354
 20
53.7792
 30
0.0
 11
50.5861
 21
53.5337
 31
0.0
  0
LINE
  5
2FC
  8
0
 10
50.5861
 20
53.5337
 30
0.0
 11
50.5798
 21
53.5271
 31
0.0
  0
LINE
  5
2FD
  8
0
 10
50.5798
 20
53.5271
 30
0.0
 11
50.1044
 21
53.9724
 31
0.0
  0
LINE
  5
2FE
  8
0
 10
50.1044
 20
53.9724
 30
0.0
 11
50.1106
 21
53.9791
 31
0.0
  0
LINE
  5
2FF
  8
0
 10
50.1106
 20
53.9791
 30
0.0
 11
50.3131
 21
54.6431
 31
0.0
  0
LINE
  5
300
  8
0
 10
50.3131
 20
54.6431
 30
0.0
 11
50.5097
 21
55.3411
 31
0.0
  0
LINE
  5
301
  8
0
 10
50.5097
 20
55.3411
 30
0.0
 11
50.6989
 21
56.0732
 31
0.0
  0
LINE
  5
302
  8
0
 10
50.6989
 20
56.0732
 30
0.0
 11
50.8794
 21
56.8393
 31
0.0
  0
LINE
  5
303
  8
0
 10
50.8794
 20
56.8393
 30
0.0
 11
51.0497
 21
57.6395
 31
0.0
  0
LINE
  5
304
  8
0
 10
51.0497
 20
57.6395
 30
0.0
 11
50.4831
 21
58.1365
 31
0.0
  0
LINE
  5
305
  8
0
 10
50.4831
 20
58.1365
 30
0.0
 11
49.712
 21
57.8631
 31
0.0
  0
LINE
  5
306
  8
0
 10
49.712
 20
57.8631
 30
0.0
 11
48.9759
 21
57.5842
 31
0.0
  0
LINE
  5
307
  8
0
 10
48.9759
 20
57.5842
 30
0.0
 11
48.2748
 21
57.301
 31
0.0
  0
LINE
  5
308
  8
0
 10
48.2748
 20
57.301
 30
0.0
 11
47.6084
 21
57.0151
 31
0.0
  0
LINE
  5
309
  8
0
 10
47.6084
 20
57.0151
 30
0.0
 11
46.9765
 21
56.7276
 31
0.0
  0
LINE
  5
30A
  8
0
 10
46.9765
 20
56.7276
 30
0.0
 11
46.9707
 21
56.7206
 31
0.0
  0
LINE
  5
30B
  8
0
 10
46.9707
 20
56.7206
 30
0.0
 11
46.4672
 21
57.1338
 31
0.0
  0
LINE
  5
30C
  8
0
 10
46.4672
 20
57.1338
 30
0.0
 11
46.4729
 21
57.1409
 31
0.0
  0
LINE
  5
30D
  8
0
 10
46.4729
 20
57.1409
 30
0.0
 11
46.6316
 21
57.8167
 31
0.0
  0
LINE
  5
30E
  8
0
 10
46.6316
 20
57.8167
 30
0.0
 11
46.7821
 21
58.5261
 31
0.0
  0
LINE
  5
30F
  8
0
 10
46.7821
 20
58.5261
 30
0.0
 11
46.923
 21
59.269
 31
0.0
  0
LINE
  5
310
  8
0
 10
46.923
 20
59.269
 30
0.0
 11
47.053
 21
60.0453
 31
0.0
  0
LINE
  5
311
  8
0
 10
47.053
 20
60.0453
 30
0.0
 11
47.1706
 21
60.8549
 31
0.0
  0
LINE
  5
312
  8
0
 10
47.1706
 20
60.8549
 30
0.0
 11
46.5727
 21
61.3138
 31
0.0
  0
LINE
  5
313
  8
0
 10
46.5727
 20
61.3138
 30
0.0
 11
45.8211
 21
60.9906
 31
0.0
  0
LINE
  5
314
  8
0
 10
45.8211
 20
60.9906
 30
0.0
 11
45.1049
 21
60.6641
 31
0.0
  0
LINE
  5
315
  8
0
 10
45.1049
 20
60.6641
 30
0.0
 11
44.4238
 21
60.3357
 31
0.0
  0
LINE
  5
316
  8
0
 10
44.4238
 20
60.3357
 30
0.0
 11
43.7775
 21
60.0067
 31
0.0
  0
LINE
  5
317
  8
0
 10
43.7775
 20
60.0067
 30
0.0
 11
43.1658
 21
59.6786
 31
0.0
  0
LINE
  5
318
  8
0
 10
43.1658
 20
59.6786
 30
0.0
 11
43.1604
 21
59.6712
 31
0.0
  0
LINE
  5
319
  8
0
 10
43.1604
 20
59.6712
 30
0.0
 11
42.631
 21
60.0506
 31
0.0
  0
LINE
  5
31A
  8
0
 10
42.631
 20
60.0506
 30
0.0
 11
42.6362
 21
60.058
 31
0.0
  0
LINE
  5
31B
  8
0
 10
42.6362
 20
60.058
 30
0.0
 11
42.7504
 21
60.7428
 31
0.0
  0
LINE
  5
31C
  8
0
 10
42.7504
 20
60.7428
 30
0.0
 11
42.8541
 21
61.4604
 31
0.0
  0
LINE
  5
31D
  8
0
 10
42.8541
 20
61.4604
 30
0.0
 11
42.9461
 21
62.211
 31
0.0
  0
LINE
  5
31E
  8
0
 10
42.9461
 20
62.211
 30
0.0
 11
43.0251
 21
62.9942
 31
0.0
  0
LINE
  5
31F
  8
0
 10
43.0251
 20
62.9942
 30
0.0
 11
43.0895
 21
63.8098
 31
0.0
  0
LINE
  5
320
  8
0
 10
43.0895
 20
63.8098
 30
0.0
 11
42.4629
 21
64.2285
 31
0.0
  0
LINE
  5
321
  8
0
 10
42.4629
 20
64.2285
 30
0.0
 11
41.734
 21
63.8568
 31
0.0
  0
LINE
  5
322
  8
0
 10
41.734
 20
63.8568
 30
0.0
 11
41.0407
 21
63.4842
 31
0.0
  0
LINE
  5
323
  8
0
 10
41.0407
 20
63.4842
 30
0.0
 11
40.3825
 21
63.1119
 31
0.0
  0
LINE
  5
324
  8
0
 10
40.3825
 20
63.1119
 30
0.0
 11
39.7591
 21
62.7414
 31
0.0
  0
LINE
  5
325
  8
0
 10
39.7591
 20
62.7414
 30
0.0
 11
39.1702
 21
62.374
 31
0.0
  0
LINE
  5
326
  8
0
 10
39.1702
 20
62.374
 30
0.0
 11
39.1654
 21
62.3662
 31
0.0
  0
LINE
  5
327
  8
0
 10
39.1654
 20
62.3662
 30
0.0
 11
38.6122
 21
62.7102
 31
0.0
  0
LINE
  5
328
  8
0
 10
38.6122
 20
62.7102
 30
0.0
 11
38.617
 21
62.718
 31
0.0
  0
LINE
  5
329
  8
0
 10
38.617
 20
62.718
 30
0.0
 11
38.6861
 21
63.4087
 31
0.0
  0
LINE
  5
32A
  8
0
 10
38.6861
 20
63.4087
 30
0.0
 11
38.7427
 21
64.1317
 31
0.0
  0
LINE
  5
32B
  8
0
 10
38.7427
 20
64.1317
 30
0.0
 11
38.7854
 21
64.8866
 31
0.0
  0
LINE
  5
32C
  8
0
 10
38.7854
 20
64.8866
 30
0.0
 11
38.8129
 21
65.6733
 31
0.0
  0
LINE
  5
32D
  8
0
 10
38.8129
 20
65.6733
 30
0.0
 11
38.8239
 21
66.4913
 31
0.0
  0
LINE
  5
32E
  8
0
 10
38.8239
 20
66.4913
 30
0.0
 11
38.1712
 21
66.8682
 31
0.0
  0
LINE
  5
32F
  8
0
 10
38.1712
 20
66.8682
 30
0.0
 11
37.4682
 21
66.4496
 31
0.0
  0
LINE
  5
330
  8
0
 10
37.4682
 20
66.4496
 30
0.0
 11
36.8007
 21
66.0324
 31
0.0
  0
LINE
  5
331
  8
0
 10
36.8007
 20
66.0324
 30
0.0
 11
36.1683
 21
65.618
 31
0.0
  0
LINE
  5
332
  8
0
 10
36.1683
 20
65.618
 30
0.0
 11
35.5705
 21
65.2075
 31
0.0
  0
LINE
  5
333
  8
0
 10
35.5705
 20
65.2075
 30
0.0
 11
35.0069
 21
64.8023
 31
0.0
  0
LINE
  5
334
  8
0
 10
35.0069
 20
64.8023
 30
0.0
 11
35.0025
 21
64.7942
 31
0.0
  0
LINE
  5
335
  8
0
 10
35.0025
 20
64.7942
 30
0.0
 11
34.4281
 21
65.1013
 31
0.0
  0
LINE
  5
336
  8
0
 10
34.4281
 20
65.1013
 30
0.0
 11
34.4323
 21
65.1094
 31
0.0
  0
LINE
  5
337
  8
0
 10
34.4323
 20
65.1094
 30
0.0
 11
34.4561
 21
65.8031
 31
0.0
  0
LINE
  5
338
  8
0
 10
34.4561
 20
65.8031
 30
0.0
 11
34.4653
 21
66.5282
 31
0.0
  0
LINE
  5
339
  8
0
 10
34.4653
 20
66.5282
 30
0.0
 11
34.4586
 21
67.2844
 31
0.0
  0
LINE
  5
33A
  8
0
 10
34.4586
 20
67.2844
 30
0.0
 11
34.4346
 21
68.0711
 31
0.0
  0
LINE
  5
33B
  8
0
 10
34.4346
 20
68.0711
 30
0.0
 11
34.3921
 21
68.8882
 31
0.0
  0
LINE
  5
33C
  8
0
 10
34.3921
 20
68.8882
 30
0.0
 11
33.7161
 21
69.2215
 31
0.0
  0
LINE
  5
33D
  8
0
 10
33.7161
 20
69.2215
 30
0.0
 11
33.042
 21
68.7579
 31
0.0
  0
LINE
  5
33E
  8
0
 10
33.042
 20
68.7579
 30
0.0
 11
32.4032
 21
68.2979
 31
0.0
  0
LINE
  5
33F
  8
0
 10
32.4032
 20
68.2979
 30
0.0
 11
31.7993
 21
67.843
 31
0.0
  0
LINE
  5
340
  8
0
 10
31.7993
 20
67.843
 30
0.0
 11
31.2296
 21
67.3943
 31
0.0
  0
LINE
  5
341
  8
0
 10
31.2296
 20
67.3943
 30
0.0
 11
30.6937
 21
66.9531
 31
0.0
  0
LINE
  5
342
  8
0
 10
30.6937
 20
66.9531
 30
0.0
 11
30.6899
 21
66.9448
 31
0.0
  0
LINE
  5
343
  8
0
 10
30.6899
 20
66.9448
 30
0.0
 11
30.0965
 21
67.2136
 31
0.0
  0
LINE
  5
344
  8
0
 10
30.0965
 20
67.2136
 30
0.0
 11
30.1003
 21
67.222
 31
0.0
  0
LINE
  5
345
  8
0
 10
30.1003
 20
67.222
 30
0.0
 11
30.0786
 21
67.9158
 31
0.0
  0
LINE
  5
346
  8
0
 10
30.0786
 20
67.9158
 30
0.0
 11
30.0403
 21
68.6399
 31
0.0
  0
LINE
  5
347
  8
0
 10
30.0403
 20
68.6399
 30
0.0
 11
29.9842
 21
69.394
 31
0.0
  0
LINE
  5
348
  8
0
 10
29.9842
 20
69.394
 30
0.0
 11
29.9088
 21
70.1775
 31
0.0
  0
LINE
  5
349
  8
0
 10
29.9088
 20
70.1775
 30
0.0
 11
29.8129
 21
70.99
 31
0.0
  0
LINE
  5
34A
  8
0
 10
29.8129
 20
70.99
 30
0.0
 11
29.1166
 21
71.2784
 31
0.0
  0
LINE
  5
34B
  8
0
 10
29.1166
 20
71.2784
 30
0.0
 11
28.4743
 21
70.7717
 31
0.0
  0
LINE
  5
34C
  8
0
 10
28.4743
 20
70.7717
 30
0.0
 11
27.8669
 21
70.271
 31
0.0
  0
LINE
  5
34D
  8
0
 10
27.8669
 20
70.271
 30
0.0
 11
27.294
 21
69.7775
 31
0.0
  0
LINE
  5
34E
  8
0
 10
27.294
 20
69.7775
 30
0.0
 11
26.7549
 21
69.2925
 31
0.0
  0
LINE
  5
34F
  8
0
 10
26.7549
 20
69.2925
 30
0.0
 11
26.249
 21
68.8172
 31
0.0
  0
LINE
  5
350
  8
0
 10
26.249
 20
68.8172
 30
0.0
 11
26.2458
 21
68.8087
 31
0.0
  0
LINE
  5
351
  8
0
 10
26.2458
 20
68.8087
 30
0.0
 11
25.6361
 21
69.0381
 31
0.0
  0
LINE
  5
352
  8
0
 10
25.6361
 20
69.0381
 30
0.0
 11
25.6393
 21
69.0467
 31
0.0
  0
LINE
  5
353
  8
0
 10
25.6393
 20
69.0467
 30
0.0
 11
25.5723
 21
69.7376
 31
0.0
  0
LINE
  5
354
  8
0
 10
25.5723
 20
69.7376
 30
0.0
 11
25.4868
 21
70.4577
 31
0.0
  0
LINE
  5
355
  8
0
 10
25.4868
 20
70.4577
 30
0.0
 11
25.3814
 21
71.2065
 31
0.0
  0
LINE
  5
356
  8
0
 10
25.3814
 20
71.2065
 30
0.0
 11
25.2549
 21
71.9834
 31
0.0
  0
LINE
  5
357
  8
0
 10
25.2549
 20
71.9834
 30
0.0
 11
25.1061
 21
72.7879
 31
0.0
  0
LINE
  5
358
  8
0
 10
25.1061
 20
72.7879
 30
0.0
 11
24.3924
 21
73.0302
 31
0.0
  0
LINE
  5
359
  8
0
 10
24.3924
 20
73.0302
 30
0.0
 11
23.7846
 21
72.4825
 31
0.0
  0
LINE
  5
35A
  8
0
 10
23.7846
 20
72.4825
 30
0.0
 11
23.2113
 21
71.9431
 31
0.0
  0
LINE
  5
35B
  8
0
 10
23.2113
 20
71.9431
 30
0.0
 11
22.6719
 21
71.4132
 31
0.0
  0
LINE
  5
35C
  8
0
 10
22.6719
 20
71.4132
 30
0.0
 11
22.1657
 21
70.894
 31
0.0
  0
LINE
  5
35D
  8
0
 10
22.1657
 20
70.894
 30
0.0
 11
21.6919
 21
70.3866
 31
0.0
  0
LINE
  5
35E
  8
0
 10
21.6919
 20
70.3866
 30
0.0
 11
21.6893
 21
70.3779
 31
0.0
  0
LINE
  5
35F
  8
0
 10
21.6893
 20
70.3779
 30
0.0
 11
21.0659
 21
70.567
 31
0.0
  0
LINE
  5
360
  8
0
 10
21.0659
 20
70.567
 30
0.0
 11
21.0685
 21
70.5757
 31
0.0
  0
LINE
  5
361
  8
0
 10
21.0685
 20
70.5757
 30
0.0
 11
20.9565
 21
71.2608
 31
0.0
  0
LINE
  5
362
  8
0
 10
20.9565
 20
71.2608
 30
0.0
 11
20.824
 21
71.9738
 31
0.0
  0
LINE
  5
363
  8
0
 10
20.824
 20
71.9738
 30
0.0
 11
20.6699
 21
72.714
 31
0.0
  0
LINE
  5
364
  8
0
 10
20.6699
 20
72.714
 30
0.0
 11
20.4929
 21
73.481
 31
0.0
  0
LINE
  5
365
  8
0
 10
20.4929
 20
73.481
 30
0.0
 11
20.2918
 21
74.2741
 31
0.0
  0
LINE
  5
366
  8
0
 10
20.2918
 20
74.2741
 30
0.0
 11
19.5638
 21
74.4691
 31
0.0
  0
LINE
  5
367
  8
0
 10
19.5638
 20
74.4691
 30
0.0
 11
18.9931
 21
73.8829
 31
0.0
  0
LINE
  5
368
  8
0
 10
18.9931
 20
73.8829
 30
0.0
 11
18.4563
 21
73.3072
 31
0.0
  0
LINE
  5
369
  8
0
 10
18.4563
 20
73.3072
 30
0.0
 11
17.9527
 21
72.7431
 31
0.0
  0
LINE
  5
36A
  8
0
 10
17.9527
 20
72.7431
 30
0.0
 11
17.4816
 21
72.1919
 31
0.0
  0
LINE
  5
36B
  8
0
 10
17.4816
 20
72.1919
 30
0.0
 11
17.042
 21
71.6546
 31
0.0
  0
LINE
  5
36C
  8
0
 10
17.042
 20
71.6546
 30
0.0
 11
17.0399
 21
71.6458
 31
0.0
  0
LINE
  5
36D
  8
0
 10
17.0399
 20
71.6458
 30
0.0
 11
16.4055
 21
71.7937
 31
0.0
  0
LINE
  5
36E
  8
0
 10
16.4055
 20
71.7937
 30
0.0
 11
16.4075
 21
71.8026
 31
0.0
  0
LINE
  5
36F
  8
0
 10
16.4075
 20
71.8026
 30
0.0
 11
16.2509
 21
72.4789
 31
0.0
  0
LINE
  5
370
  8
0
 10
16.2509
 20
72.4789
 30
0.0
 11
16.0721
 21
73.1816
 31
0.0
  0
LINE
  5
371
  8
0
 10
16.0721
 20
73.1816
 30
0.0
 11
15.8699
 21
73.9102
 31
0.0
  0
LINE
  5
372
  8
0
 10
15.8699
 20
73.9102
 30
0.0
 11
15.6432
 21
74.664
 31
0.0
  0
LINE
  5
373
  8
0
 10
15.6432
 20
74.664
 30
0.0
 11
15.3906
 21
75.4422
 31
0.0
  0
LINE
  5
374
  8
0
 10
15.3906
 20
75.4422
 30
0.0
 11
14.6514
 21
75.5892
 31
0.0
  0
LINE
  5
375
  8
0
 10
14.6514
 20
75.5892
 30
0.0
 11
14.1203
 21
74.9669
 31
0.0
  0
LINE
  5
376
  8
0
 10
14.1203
 20
74.9669
 30
0.0
 11
13.6223
 21
74.3573
 31
0.0
  0
LINE
  5
377
  8
0
 10
13.6223
 20
74.3573
 30
0.0
 11
13.1567
 21
73.7615
 31
0.0
  0
LINE
  5
378
  8
0
 10
13.1567
 20
73.7615
 30
0.0
 11
12.7225
 21
73.1807
 31
0.0
  0
LINE
  5
379
  8
0
 10
12.7225
 20
73.1807
 30
0.0
 11
12.3191
 21
72.6158
 31
0.0
  0
LINE
  5
37A
  8
0
 10
12.3191
 20
72.6158
 30
0.0
 11
12.3176
 21
72.6068
 31
0.0
  0
LINE
  5
37B
  8
0
 10
12.3176
 20
72.6068
 30
0.0
 11
11.6748
 21
72.7129
 31
0.0
  0
LINE
  5
37C
  8
0
 10
11.6748
 20
72.7129
 30
0.0
 11
11.6763
 21
72.722
 31
0.0
  0
LINE
  5
37D
  8
0
 10
11.6763
 20
72.722
 30
0.0
 11
11.4758
 21
73.3865
 31
0.0
  0
LINE
  5
37E
  8
0
 10
11.4758
 20
73.3865
 30
0.0
 11
11.2514
 21
74.0761
 31
0.0
  0
LINE
  5
37F
  8
0
 10
11.2514
 20
74.0761
 30
0.0
 11
11.002
 21
74.7899
 31
0.0
  0
LINE
  5
380
  8
0
 10
11.002
 20
74.7899
 30
0.0
 11
10.7264
 21
75.5273
 31
0.0
  0
LINE
  5
381
  8
0
 10
10.7264
 20
75.5273
 30
0.0
 11
10.4235
 21
76.2872
 31
0.0
  0
LINE
  5
382
  8
0
 10
10.4235
 20
76.2872
 30
0.0
 11
9.67625
 21
76.3856
 31
0.0
  0
LINE
  5
383
  8
0
 10
9.67625
 20
76.3856
 30
0.0
 11
9.18697
 21
75.7299
 31
0.0
  0
LINE
  5
384
  8
0
 10
9.18697
 20
75.7299
 30
0.0
 11
8.72992
 21
75.0891
 31
0.0
  0
LINE
  5
385
  8
0
 10
8.72992
 20
75.0891
 30
0.0
 11
8.30426
 21
74.4641
 31
0.0
  0
LINE
  5
386
  8
0
 10
8.30426
 20
74.4641
 30
0.0
 11
7.90906
 21
73.8561
 31
0.0
  0
LINE
  5
387
  8
0
 10
7.90906
 20
73.8561
 30
0.0
 11
7.5434
 21
73.2661
 31
0.0
  0
LINE
  5
388
  8
0
 10
7.5434
 20
73.2661
 30
0.0
 11
7.54247
 21
73.257
 31
0.0
  0
LINE
  5
389
  8
0
 10
7.54247
 20
73.257
 30
0.0
 11
6.89418
 21
73.3208
 31
0.0
  0
LINE
  5
38A
  8
0
 10
6.89418
 20
73.3208
 30
0.0
 11
6.89503
 21
73.3299
 31
0.0
  0
LINE
  5
38B
  8
0
 10
6.89503
 20
73.3299
 30
0.0
 11
6.6515
 21
73.9799
 31
0.0
  0
LINE
  5
38C
  8
0
 10
6.6515
 20
73.9799
 30
0.0
 11
6.38252
 21
74.6534
 31
0.0
  0
LINE
  5
38D
  8
0
 10
6.38252
 20
74.6534
 30
0.0
 11
6.08696
 21
75.3494
 31
0.0
  0
LINE
  5
38E
  8
0
 10
6.08696
 20
75.3494
 30
0.0
 11
5.76373
 21
76.0671
 31
0.0
  0
LINE
  5
38F
  8
0
 10
5.76373
 20
76.0671
 30
0.0
 11
5.41176
 21
76.8056
 31
0.0
  0
LINE
  5
390
  8
0
 10
5.41176
 20
76.8056
 30
0.0
 11
4.65968
 21
76.8549
 31
0.0
  0
LINE
  5
391
  8
0
 10
4.65968
 20
76.8549
 30
0.0
 11
4.21431
 21
76.1686
 31
0.0
  0
LINE
  5
392
  8
0
 10
4.21431
 20
76.1686
 30
0.0
 11
3.80017
 21
75.4993
 31
0.0
  0
LINE
  5
393
  8
0
 10
3.80017
 20
75.4993
 30
0.0
 11
3.41629
 21
74.8478
 31
0.0
  0
LINE
  5
394
  8
0
 10
3.41629
 20
74.8478
 30
0.0
 11
3.06171
 21
74.2152
 31
0.0
  0
LINE
  5
395
  8
0
 10
3.06171
 20
74.2152
 30
0.0
 11
2.73541
 21
73.6026
 31
0.0
  0
LINE
  5
396
  8
0
 10
2.73541
 20
73.6026
 30
0.0
 11
2.73508
 21
73.5934
 31
0.0
  0
LINE
  5
397
  8
0
 10
2.73508
 20
73.5934
 30
0.0
 11
2.08401
 21
73.6147
 31
0.0
  0
LINE
  5
398
  8
0
 10
2.08401
 20
73.6147
 30
0.0
 11
2.08427
 21
73.6239
 31
0.0
  0
LINE
  5
399
  8
0
 10
2.08427
 20
73.6239
 30
0.0
 11
1.79875
 21
74.2566
 31
0.0
  0
LINE
  5
39A
  8
0
 10
1.79875
 20
74.2566
 30
0.0
 11
1.4863
 21
74.911
 31
0.0
  0
LINE
  5
39B
  8
0
 10
1.4863
 20
74.911
 30
0.0
 11
1.14584
 21
75.5862
 31
0.0
  0
LINE
  5
39C
  8
0
 10
1.14584
 20
75.5862
 30
0.0
 11
0.776367
 21
76.2812
 31
0.0
  0
LINE
  5
39D
  8
0
 10
0.776367
 20
76.2812
 30
0.0
 11
0.376846
 21
76.9951
 31
0.0
  0
LINE
  5
39E
  8
0
 10
0.376846
 20
76.9951
 30
0.0
 11
-0.376846
 21
76.9951
 31
0.0
  0
LINE
  5
39F
  8
0
 10
-0.376846
 20
76.9951
 30
0.0
 11
-0.776367
 21
76.2812
 31
0.0
  0
LINE
  5
3A0
  8
0
 10
-0.776367
 20
76.2812
 30
0.0
 11
-1.14584
 21
75.5862
 31
0.0
  0
LINE
  5
3A1
  8
0
 10
-1.14584
 20
75.5862
 30
0.0
 11
-1.4863
 21
74.911
 31
0.0
  0
LINE
  5
3A2
  8
0
 10
-1.4863
 20
74.911
 30
0.0
 11
-1.79875
 21
74.2566
 31
0.0
  0
LINE
  5
3A3
  8
0
 10
-1.79875
 20
74.2566
 30
0.0
 11
-2.08427
 21
73.6239
 31
0.0
  0
LINE
  5
3A4
  8
0
 10
-2.08427
 20
73.6239
 30
0.0
 11
-2.08401
 21
73.6147
 31
0.0
  0
LINE
  5
3A5
  8
0
 10
-2.08401
 20
73.6147
 30
0.0
 11
-2.73508
 21
73.5934
 31
0.0
  0
LINE
  5
3A6
  8
0
 10
-2.73508
 20
73.5934
 30
0.0
 11
-2.73541
 21
73.6026
 31
0.0
  0
LINE
  5
3A7
  8
0
 10
-2.73541
 20
73.6026
 30
0.0
 11
-3.06171
 21
74.2152
 31
0.0
  0
LINE
  5
3A8
  8
0
 10
-3.06171
 20
74.2152
 30
0.0
 11
-3.41629
 21
74.8478
 31
0.0
  0
LINE
  5
3A9
  8
0
 10
-3.41629
 20
74.8478
 30
0.0
 11
-3.80017
 21
75.4993
 31
0.0
  0
LINE
  5
3AA
  8
0
 10
-3.80017
 20
75.4993
 30
0.0
 11
-4.21431
 21
76.1686
 31
0.0
  0
LINE
  5
3AB
  8
0
 10
-4.21431
 20
76.1686
 30
0.0
 11
-4.65968
 21
76.8549
 31
0.0
  0
LINE
  5
3AC
  8
0
 10
-4.65968
 20
76.8549
 30
0.0
 11
-5.41176
 21
76.8056
 31
0.0
  0
LINE
  5
3AD
  8
0
 10
-5.41176
 20
76.8056
 30
0.0
 11
-5.76373
 21
76.0671
 31
0.0
  0
LINE
  5
3AE
  8
0
 10
-5.76373
 20
76.0671
 30
0.0
 11
-6.08696
 21
75.3494
 31
0.0
  0
LINE
  5
3AF
  8
0
 10
-6.08696
 20
75.3494
 30
0.0
 11
-6.38252
 21
74.6534
 31
0.0
  0
LINE
  5
3B0
  8
0
 10
-6.38252
 20
74.6534
 30
0.0
 11
-6.6515
 21
73.9799
 31
0.0
  0
LINE
  5
3B1
  8
0
 10
-6.6515
 20
73.9799
 30
0.0
 11
-6.89503
 21
73.3299
 31
0.0
  0
LINE
  5
3B2
  8
0
 10
-6.89503
 20
73.3299
 30
0.0
 11
-6.89418
 21
73.3208
 31
0.0
  0
LINE
  5
3B3
  8
0
 10
-6.89418
 20
73.3208
 30
0.0
 11
-7.54247
 21
73.257
 31
0.0
  0
LINE
  5
3B4
  8
0
 10
-7.54247
 20
73.257
 30
0.0
 11
-7.5434
 21
73.2661
 31
0.0
  0
LINE
  5
3B5
  8
0
 10
-7.5434
 20
73.2661
 30
0.0
 11
-7.90906
 21
73.8561
 31
0.0
  0
LINE
  5
3B6
  8
0
 10
-7.90906
 20
73.8561
 30
0.0
 11
-8.30426
 21
74.4641
 31
0.0
  0
LINE
  5
3B7
  8
0
 10
-8.30426
 20
74.4641
 30
0.0
 11
-8.72992
 21
75.0891
 31
0.0
  0
LINE
  5
3B8
  8
0
 10
-8.72992
 20
75.0891
 30
0.0
 11
-9.18697
 21
75.7299
 31
0.0
  0
LINE
  5
3B9
  8
0
 10
-9.18697
 20
75.7299
 30
0.0
 11
-9.67625
 21
76.3856
 31
0.0
  0
LINE
  5
3BA
  8
0
 10
-9.67625
 20
76.3856
 30
0.0
 11
-10.4235
 21
76.2872
 31
0.0
  0
LINE
  5
3BB
  8
0
 10
-10.4235
 20
76.2872
 30
0.0
 11
-10.7264
 21
75.5273
 31
0.0
  0
LINE
  5
3BC
  8
0
 10
-10.7264
 20
75.5273
 30
0.0
 11
-11.002
 21
74.7899
 31
0.0
  0
LINE
  5
3BD
  8
0
 10
-11.002
 20
74.7899
 30
0.0
 11
-11.2514
 21
74.0761
 31
0.0
  0
LINE
  5
3BE
  8
0
 10
-11.2514
 20
74.0761
 30
0.0
 11
-11.4758
 21
73.3865
 31
0.0
  0
LINE
  5
3BF
  8
0
 10
-11.4758
 20
73.3865
 30
0.0
 11
-11.6763
 21
72.722
 31
0.0
  0
LINE
  5
3C0
  8
0
 10
-11.6763
 20
72.722
 30
0.0
 11
-11.6748
 21
72.7129
 31
0.0
  0
LINE
  5
3C1
  8
0
 10
-11.6748
 20
72.7129
 30
0.0
 11
-12.3176
 21
72.6068
 31
0.0
  0
LINE
  5
3C2
  8
0
 10
-12.3176
 20
72.6068
 30
0.0
 11
-12.3191
 21
72.6158
 31
0.0
  0
LINE
  5
3C3
  8
0
 10
-12.3191
 20
72.6158
 30
0.0
 11
-12.7225
 21
73.1807
 31
0.0
  0
LINE
  5
3C4
  8
0
 10
-12.7225
 20
73.1807
 30
0.0
 11
-13.1567
 21
73.7615
 31
0.0
  0
LINE
  5
3C5
  8
0
 10
-13.1567
 20
73.7615
 30
0.0
 11
-13.6223
 21
74.3573
 31
0.0
  0
LINE
  5
3C6
  8
0
 10
-13.6223
 20
74.3573
 30
0.0
 11
-14.1203
 21
74.9669
 31
0.0
  0
LINE
  5
3C7
  8
0
 10
-14.1203
 20
74.9669
 30
0.0
 11
-14.6514
 21
75.5892
 31
0.0
  0
LINE
  5
3C8
  8
0
 10
-14.6514
 20
75.5892
 30
0.0
 11
-15.3906
 21
75.4422
 31
0.0
  0
LINE
  5
3C9
  8
0
 10
-15.3906
 20
75.4422
 30
0.0
 11
-15.6432
 21
74.664
 31
0.0
  0
LINE
  5
3CA
  8
0
 10
-15.6432
 20
74.664
 30
0.0
 11
-15.8699
 21
73.9102
 31
0.0
  0
LINE
  5
3CB
  8
0
 10
-15.8699
 20
73.9102
 30
0.0
 11
-16.0721
 21
73.1816
 31
0.0
  0
LINE
  5
3CC
  8
0
 10
-16.0721
 20
73.1816
 30
0.0
 11
-16.2509
 21
72.4789
 31
0.0
  0
LINE
  5
3CD
  8
0
 10
-16.2509
 20
72.4789
 30
0.0
 11
-16.4075
 21
71.8026
 31
0.0
  0
LINE
  5
3CE
  8
0
 10
-16.4075
 20
71.8026
 30
0.0
 11
-16.4055
 21
71.7937
 31
0.0
  0
LINE
  5
3CF
  8
0
 10
-16.4055
 20
71.7937
 30
0.0
 11
-17.0399
 21
71.6458
 31
0.0
  0
LINE
  5
3D0
  8
0
 10
-17.0399
 20
71.6458
 30
0.0
 11
-17.042
 21
71.6546
 31
0.0
  0
LINE
  5
3D1
  8
0
 10
-17.042
 20
71.6546
 30
0.0
 11
-17.4816
 21
72.1919
 31
0.0
  0
LINE
  5
3D2
  8
0
 10
-17.4816
 20
72.1919
 30
0.0
 11
-17.9527
 21
72.7431
 31
0.0
  0
LINE
  5
3D3
  8
0
 10
-17.9527
 20
72.7431
 30
0.0
 11
-18.4563
 21
73.3072
 31
0.0
  0
LINE
  5
3D4
  8
0
 10
-18.4563
 20
73.3072
 30
0.0
 11
-18.9931
 21
73.8829
 31
0.0
  0
LINE
  5
3D5
  8
0
 10
-18.9931
 20
73.8829
 30
0.0
 11
-19.5638
 21
74.4691
 31
0.0
  0
LINE
  5
3D6
  8
0
 10
-19.5638
 20
74.4691
 30
0.0
 11
-20.2918
 21
74.2741
 31
0.0
  0
LINE
  5
3D7
  8
0
 10
-20.2918
 20
74.2741
 30
0.0
 11
-20.4929
 21
73.481
 31
0.0
  0
LINE
  5
3D8
  8
0
 10
-20.4929
 20
73.481
 30
0.0
 11
-20.6699
 21
72.714
 31
0.0
  0
LINE
  5
3D9
  8
0
 10
-20.6699
 20
72.714
 30
0.0
 11
-20.824
 21
71.9738
 31
0.0
  0
LINE
  5
3DA
  8
0
 10
-20.824
 20
71.9738
 30
0.0
 11
-20.9565
 21
71.2608
 31
0.0
  0
LINE
  5
3DB
  8
0
 10
-20.9565
 20
71.2608
 30
0.0
 11
-21.0685
 21
70.5757
 31
0.0
  0
LINE
  5
3DC
  8
0
 10
-21.0685
 20
70.5757
 30
0.0
 11
-21.0659
 21
70.567
 31
0.0
  0
LINE
  5
3DD
  8
0
 10
-21.0659
 20
70.567
 30
0.0
 11
-21.6893
 21
70.3779
 31
0.0
  0
LINE
  5
3DE
  8
0
 10
-21.6893
 20
70.3779
 30
0.0
 11
-21.6919
 21
70.3866
 31
0.0
  0
LINE
  5
3DF
  8
0
 10
-21.6919
 20
70.3866
 30
0.0
 11
-22.1657
 21
70.894
 31
0.0
  0
LINE
  5
3E0
  8
0
 10
-22.1657
 20
70.894
 30
0.0
 11
-22.6719
 21
71.4132
 31
0.0
  0
LINE
  5
3E1
  8
0
 10
-22.6719
 20
71.4132
 30
0.0
 11
-23.2113
 21
71.9431
 31
0.0
  0
LINE
  5
3E2
  8
0
 10
-23.2113
 20
71.9431
 30
0.0
 11
-23.7846
 21
72.4825
 31
0.0
  0
LINE
  5
3E3
  8
0
 10
-23.7846
 20
72.4825
 30
0.0
 11
-24.3924
 21
73.0302
 31
0.0
  0
LINE
  5
3E4
  8
0
 10
-24.3924
 20
73.0302
 30
0.0
 11
-25.1061
 21
72.7879
 31
0.0
  0
LINE
  5
3E5
  8
0
 10
-25.1061
 20
72.7879
 30
0.0
 11
-25.2549
 21
71.9834
 31
0.0
  0
LINE
  5
3E6
  8
0
 10
-25.2549
 20
71.9834
 30
0.0
 11
-25.3814
 21
71.2065
 31
0.0
  0
LINE
  5
3E7
  8
0
 10
-25.3814
 20
71.2065
 30
0.0
 11
-25.4868
 21
70.4577
 31
0.0
  0
LINE
  5
3E8
  8
0
 10
-25.4868
 20
70.4577
 30
0.0
 11
-25.5723
 21
69.7376
 31
0.0
  0
LINE
  5
3E9
  8
0
 10
-25.5723
 20
69.7376
 30
0.0
 11
-25.6393
 21
69.0467
 31
0.0
  0
LINE
  5
3EA
  8
0
 10
-25.6393
 20
69.0467
 30
0.0
 11
-25.6361
 21
69.0381
 31
0.0
  0
LINE
  5
3EB
  8
0
 10
-25.6361
 20
69.0381
 30
0.0
 11
-26.2458
 21
68.8087
 31
0.0
  0
LINE
  5
3EC
  8
0
 10
-26.2458
 20
68.8087
 30
0.0
 11
-26.249
 21
68.8172
 31
0.0
  0
LINE
  5
3ED
  8
0
 10
-26.249
 20
68.8172
 30
0.0
 11
-26.7549
 21
69.2925
 31
0.0
  0
LINE
  5
3EE
  8
0
 10
-26.7549
 20
69.2925
 30
0.0
 11
-27.294
 21
69.7775
 31
0.0
  0
LINE
  5
3EF
  8
0
 10
-27.294
 20
69.7775
 30
0.0
 11
-27.8669
 21
70.271
 31
0.0
  0
LINE
  5
3F0
  8
0
 10
-27.8669
 20
70.271
 30
0.0
 11
-28.4743
 21
70.7717
 31
0.0
  0
LINE
  5
3F1
  8
0
 10
-28.4743
 20
70.7717
 30
0.0
 11
-29.1166
 21
71.2784
 31
0.0
  0
LINE
  5
3F2
  8
0
 10
-29.1166
 20
71.2784
 30
0.0
 11
-29.8129
 21
70.99
 31
0.0
  0
LINE
  5
3F3
  8
0
 10
-29.8129
 20
70.99
 30
0.0
 11
-29.9088
 21
70.1775
 31
0.0
  0
LINE
  5
3F4
  8
0
 10
-29.9088
 20
70.1775
 30
0.0
 11
-29.9842
 21
69.394
 31
0.0
  0
LINE
  5
3F5
  8
0
 10
-29.9842
 20
69.394
 30
0.0
 11
-30.0403
 21
68.6399
 31
0.0
  0
LINE
  5
3F6
  8
0
 10
-30.0403
 20
68.6399
 30
0.0
 11
-30.0786
 21
67.9158
 31
0.0
  0
LINE
  5
3F7
  8
0
 10
-30.0786
 20
67.9158
 30
0.0
 11
-30.1003
 21
67.222
 31
0.0
  0
LINE
  5
3F8
  8
0
 10
-30.1003
 20
67.222
 30
0.0
 11
-30.0965
 21
67.2136
 31
0.0
  0
LINE
  5
3F9
  8
0
 10
-30.0965
 20
67.2136
 30
0.0
 11
-30.6899
 21
66.9448
 31
0.0
  0
LINE
  5
3FA
  8
0
 10
-30.6899
 20
66.9448
 30
0.0
 11
-30.6937
 21
66.9531
 31
0.0
  0
LINE
  5
3FB
  8
0
 10
-30.6937
 20
66.9531
 30
0.0
 11
-31.2296
 21
67.3943
 31
0.0
  0
LINE
  5
3FC
  8
0
 10
-31.2296
 20
67.3943
 30
0.0
 11
-31.7993
 21
67.843
 31
0.0
  0
LINE
  5
3FD
  8
0
 10
-31.7993
 20
67.843
 30
0.0
 11
-32.4032
 21
68.2979
 31
0.0
  0
LINE
  5
3FE
  8
0
 10
-32.4032
 20
68.2979
 30
0.0
 11
-33.042
 21
68.7579
 31
0.0
  0
LINE
  5
3FF
  8
0
 10
-33.042
 20
68.7579
 30
0.0
 11
-33.7161
 21
69.2215
 31
0.0
  0
LINE
  5
400
  8
0
 10
-33.7161
 20
69.2215
 30
0.0
 11
-34.3921
 21
68.8882
 31
0.0
  0
LINE
  5
401
  8
0
 10
-34.3921
 20
68.8882
 30
0.0
 11
-34.4346
 21
68.0711
 31
0.0
  0
LINE
  5
402
  8
0
 10
-34.4346
 20
68.0711
 30
0.0
 11
-34.4586
 21
67.2844
 31
0.0
  0
LINE
  5
403
  8
0
 10
-34.4586
 20
67.2844
 30
0.0
 11
-34.4653
 21
66.5282
 31
0.0
  0
LINE
  5
404
  8
0
 10
-34.4653
 20
66.5282
 30
0.0
 11
-34.4561
 21
65.8031
 31
0.0
  0
LINE
  5
405
  8
0
 10
-34.4561
 20
65.8031
 30
0.0
 11
-34.4323
 21
65.1094
 31
0.0
  0
LINE
  5
406
  8
0
 10
-34.4323
 20
65.1094
 30
0.0
 11
-34.4281
 21
65.1013
 31
0.0
  0
LINE
  5
407
  8
0
 10
-34.4281
 20
65.1013
 30
0.0
 11
-35.0025
 21
64.7942
 31
0.0
  0
LINE
  5
408
  8
0
 10
-35.0025
 20
64.7942
 30
0.0
 11
-35.0069
 21
64.8023
 31
0.0
  0
LINE
  5
409
  8
0
 10
-35.0069
 20
64.8023
 30
0.0
 11
-35.5705
 21
65.2075
 31
0.0
  0
LINE
  5
40A
  8
0
 10
-35.5705
 20
65.2075
 30
0.0
 11
-36.1683
 21
65.618
 31
0.0
  0
LINE
  5
40B
  8
0
 10
-36.1683
 20
65.618
 30
0.0
 11
-36.8007
 21
66.0324
 31
0.0
  0
LINE
  5
40C
  8
0
 10
-36.8007
 20
66.0324
 30
0.0
 11
-37.4682
 21
66.4496
 31
0.0
  0
LINE
  5
40D
  8
0
 10
-37.4682
 20
66.4496
 30
0.0
 11
-38.1712
 21
66.8682
 31
0.0
  0
LINE
  5
40E
  8
0
 10
-38.1712
 20
66.8682
 30
0.0
 11
-38.8239
 21
66.4913
 31
0.0
  0
LINE
  5
40F
  8
0
 10
-38.8239
 20
66.4913
 30
0.0
 11
-38.8129
 21
65.6733
 31
0.0
  0
LINE
  5
410
  8
0
 10
-38.8129
 20
65.6733
 30
0.0
 11
-38.7854
 21
64.8866
 31
0.0
  0
LINE
  5
411
  8
0
 10
-38.7854
 20
64.8866
 30
0.0
 11
-38.7427
 21
64.1317
 31
0.0
  0
LINE
  5
412
  8
0
 10
-38.7427
 20
64.1317
 30
0.0
 11
-38.6861
 21
63.4087
 31
0.0
  0
LINE
  5
413
  8
0
 10
-38.6861
 20
63.4087
 30
0.0
 11
-38.617
 21
62.718
 31
0.0
  0
LINE
  5
414
  8
0
 10
-38.617
 20
62.718
 30
0.0
 11
-38.6122
 21
62.7102
 31
0.0
  0
LINE
  5
415
  8
0
 10
-38.6122
 20
62.7102
 30
0.0
 11
-39.1654
 21
62.3662
 31
0.0
  0
LINE
  5
416
  8
0
 10
-39.1654
 20
62.3662
 30
0.0
 11
-39.1702
 21
62.374
 31
0.0
  0
LINE
  5
417
  8
0
 10
-39.1702
 20
62.374
 30
0.0
 11
-39.7591
 21
62.7414
 31
0.0
  0
LINE
  5
418
  8
0
 10
-39.7591
 20
62.7414
 30
0.0
 11
-40.3825
 21
63.1119
 31
0.0
  0
LINE
  5
419
  8
0
 10
-40.3825
 20
63.1119
 30
0.0
 11
-41.0407
 21
63.4842
 31
0.0
  0
LINE
  5
41A
  8
0
 10
-41.0407
 20
63.4842
 30
0.0
 11
-41.734
 21
63.8568
 31
0.0
  0
LINE
  5
41B
  8
0
 10
-41.734
 20
63.8568
 30
0.0
 11
-42.4629
 21
64.2285
 31
0.0
  0
LINE
  5
41C
  8
0
 10
-42.4629
 20
64.2285
 30
0.0
 11
-43.0895
 21
63.8098
 31
0.0
  0
LINE
  5
41D
  8
0
 10
-43.0895
 20
63.8098
 30
0.0
 11
-43.0251
 21
62.9942
 31
0.0
  0
LINE
  5
41E
  8
0
 10
-43.0251
 20
62.9942
 30
0.0
 11
-42.9461
 21
62.211
 31
0.0
  0
LINE
  5
41F
  8
0
 10
-42.9461
 20
62.211
 30
0.0
 11
-42.8541
 21
61.4604
 31
0.0
  0
LINE
  5
420
  8
0
 10
-42.8541
 20
61.4604
 30
0.0
 11
-42.7504
 21
60.7428
 31
0.0
  0
LINE
  5
421
  8
0
 10
-42.7504
 20
60.7428
 30
0.0
 11
-42.6362
 21
60.058
 31
0.0
  0
LINE
  5
422
  8
0
 10
-42.6362
 20
60.058
 30
0.0
 11
-42.631
 21
60.0506
 31
0.0
  0
LINE
  5
423
  8
0
 10
-42.631
 20
60.0506
 30
0.0
 11
-43.1604
 21
59.6712
 31
0.0
  0
LINE
  5
424
  8
0
 10
-43.1604
 20
59.6712
 30
0.0
 11
-43.1658
 21
59.6786
 31
0.0
  0
LINE
  5
425
  8
0
 10
-43.1658
 20
59.6786
 30
0.0
 11
-43.7775
 21
60.0067
 31
0.0
  0
LINE
  5
426
  8
0
 10
-43.7775
 20
60.0067
 30
0.0
 11
-44.4238
 21
60.3357
 31
0.0
  0
LINE
  5
427
  8
0
 10
-44.4238
 20
60.3357
 30
0.0
 11
-45.1049
 21
60.6641
 31
0.0
  0
LINE
  5
428
  8
0
 10
-45.1049
 20
60.6641
 30
0.0
 11
-45.8211
 21
60.9906
 31
0.0
  0
LINE
  5
429
  8
0
 10
-45.8211
 20
60.9906
 30
0.0
 11
-46.5727
 21
61.3138
 31
0.0
  0
LINE
  5
42A
  8
0
 10
-46.5727
 20
61.3138
 30
0.0
 11
-47.1706
 21
60.8549
 31
0.0
  0
LINE
  5
42B
  8
0
 10
-47.1706
 20
60.8549
 30
0.0
 11
-47.053
 21
60.0453
 31
0.0
  0
LINE
  5
42C
  8
0
 10
-47.053
 20
60.0453
 30
0.0
 11
-46.923
 21
59.269
 31
0.0
  0
LINE
  5
42D
  8
0
 10
-46.923
 20
59.269
 30
0.0
 11
-46.7821
 21
58.5261
 31
0.0
  0
LINE
  5
42E
  8
0
 10
-46.7821
 20
58.5261
 30
0.0
 11
-46.6316
 21
57.8167
 31
0.0
  0
LINE
  5
42F
  8
0
 10
-46.6316
 20
57.8167
 30
0.0
 11
-46.4729
 21
57.1409
 31
0.0
  0
LINE
  5
430
  8
0
 10
-46.4729
 20
57.1409
 30
0.0
 11
-46.4672
 21
57.1338
 31
0.0
  0
LINE
  5
431
  8
0
 10
-46.4672
 20
57.1338
 30
0.0
 11
-46.9707
 21
56.7206
 31
0.0
  0
LINE
  5
432
  8
0
 10
-46.9707
 20
56.7206
 30
0.0
 11
-46.9765
 21
56.7276
 31
0.0
  0
LINE
  5
433
  8
0
 10
-46.9765
 20
56.7276
 30
0.0
 11
-47.6084
 21
57.0151
 31
0.0
  0
LINE
  5
434
  8
0
 10
-47.6084
 20
57.0151
 30
0.0
 11
-48.2748
 21
57.301
 31
0.0
  0
LINE
  5
435
  8
0
 10
-48.2748
 20
57.301
 30
0.0
 11
-48.9759
 21
57.5842
 31
0.0
  0
LINE
  5
436
  8
0
 10
-48.9759
 20
57.5842
 30
0.0
 11
-49.712
 21
57.8631
 31
0.0
  0
LINE
  5
437
  8
0
 10
-49.712
 20
57.8631
 30
0.0
 11
-50.4831
 21
58.1365
 31
0.0
  0
LINE
  5
438
  8
0
 10
-50.4831
 20
58.1365
 30
0.0
 11
-51.0497
 21
57.6395
 31
0.0
  0
LINE
  5
439
  8
0
 10
-51.0497
 20
57.6395
 30
0.0
 11
-50.8794
 21
56.8393
 31
0.0
  0
LINE
  5
43A
  8
0
 10
-50.8794
 20
56.8393
 30
0.0
 11
-50.6989
 21
56.0732
 31
0.0
  0
LINE
  5
43B
  8
0
 10
-50.6989
 20
56.0732
 30
0.0
 11
-50.5097
 21
55.3411
 31
0.0
  0
LINE
  5
43C
  8
0
 10
-50.5097
 20
55.3411
 30
0.0
 11
-50.3131
 21
54.6431
 31
0.0
  0
LINE
  5
43D
  8
0
 10
-50.3131
 20
54.6431
 30
0.0
 11
-50.1106
 21
53.9791
 31
0.0
  0
LINE
  5
43E
  8
0
 10
-50.1106
 20
53.9791
 30
0.0
 11
-50.1044
 21
53.9724
 31
0.0
  0
LINE
  5
43F
  8
0
 10
-50.1044
 20
53.9724
 30
0.0
 11
-50.5798
 21
53.5271
 31
0.0
  0
LINE
  5
440
  8
0
 10
-50.5798
 20
53.5271
 30
0.0
 11
-50.5861
 21
53.5337
 31
0.0
  0
LINE
  5
441
  8
0
 10
-50.5861
 20
53.5337
 30
0.0
 11
-51.2354
 21
53.7792
 31
0.0
  0
LINE
  5
442
  8
0
 10
-51.2354
 20
53.7792
 30
0.0
 11
-51.9191
 21
54.021
 31
0.0
  0
LINE
  5
443
  8
0
 10
-51.9191
 20
54.021
 30
0.0
 11
-52.6372
 21
54.2577
 31
0.0
  0
LINE
  5
444
  8
0
 10
-52.6372
 20
54.2577
 30
0.0
 11
-53.39
 21
54.4879
 31
0.0
  0
LINE
  5
445
  8
0
 10
-53.39
 20
54.4879
 30
0.0
 11
-54.1773
 21
54.7103
 31
0.0
  0
LINE
  5
446
  8
0
 10
-54.1773
 20
54.7103
 30
0.0
 11
-54.7103
 21
54.1773
 31
0.0
  0
LINE
  5
447
  8
0
 10
-54.7103
 20
54.1773
 30
0.0
 11
-54.4879
 21
53.39
 31
0.0
  0
LINE
  5
448
  8
0
 10
-54.4879
 20
53.39
 30
0.0
 11
-54.2577
 21
52.6372
 31
0.0
  0
LINE
  5
449
  8
0
 10
-54.2577
 20
52.6372
 30
0.0
 11
-54.021
 21
51.9191
 31
0.0
  0
LINE
  5
44A
  8
0
 10
-54.021
 20
51.9191
 30
0.0
 11
-53.7792
 21
51.2354
 31
0.0
  0
LINE
  5
44B
  8
0
 10
-53.7792
 20
51.2354
 30
0.0
 11
-53.5337
 21
50.5861
 31
0.0
  0
LINE
  5
44C
  8
0
 10
-53.5337
 20
50.5861
 30
0.0
 11
-53.5271
 21
50.5798
 31
0.0
  0
LINE
  5
44D
  8
0
 10
-53.5271
 20
50.5798
 30
0.0
 11
-53.9724
 21
50.1044
 31
0.0
  0
LINE
  5
44E
  8
0
 10
-53.9724
 20
50.1044
 30
0.0
 11
-53.9791
 21
50.1106
 31
0.0
  0
LINE
  5
44F
  8
0
 10
-53.9791
 20
50.1106
 30
0.0
 11
-54.6431
 21
50.3131
 31
0.0
  0
LINE
  5
450
  8
0
 10
-54.6431
 20
50.3131
 30
0.0
 11
-55.3411
 21
50.5097
 31
0.0
  0
LINE
  5
451
  8
0
 10
-55.3411
 20
50.5097
 30
0.0
 11
-56.0732
 21
50.6989
 31
0.0
  0
LINE
  5
452
  8
0
 10
-56.0732
 20
50.6989
 30
0.0
 11
-56.8393
 21
50.8794
 31
0.0
  0
LINE
  5
453
  8
0
 10
-56.8393
 20
50.8794
 30
0.0
 11
-57.6395
 21
51.0497
 31
0.0
  0
LINE
  5
454
  8
0
 10
-57.6395
 20
51.0497
 30
0.0
 11
-58.1365
 21
50.4831
 31
0.0
  0
LINE
  5
455
  8
0
 10
-58.1365
 20
50.4831
 30
0.0
 11
-57.8631
 21
49.712
 31
0.0
  0
LINE
  5
456
  8
0
 10
-57.8631
 20
49.712
 30
0.0
 11
-57.5842
 21
48.9759
 31
0.0
  0
LINE
  5
457
  8
0
 10
-57.5842
 20
48.9759
 30
0.0
 11
-57.301
 21
48.2748
 31
0.0
  0
LINE
  5
458
  8
0
 10
-57.301
 20
48.2748
 30
0.0
 11
-57.0151
 21
47.6084
 31
0.0
  0
LINE
  5
459
  8
0
 10
-57.0151
 20
47.6084
 30
0.0
 11
-56.7276
 21
46.9765
 31
0.0
  0
LINE
  5
45A
  8
0
 10
-56.7276
 20
46.9765
 30
0.0
 11
-56.7206
 21
46.9707
 31
0.0
  0
LINE
  5
45B
  8
0
 10
-56.7206
 20
46.9707
 30
0.0
 11
-57.1338
 21
46.4672
 31
0.0
  0
LINE
  5
45C
  8
0
 10
-57.1338
 20
46.4672
 30
0.0
 11
-57.1409
 21
46.4729
 31
0.0
  0
LINE
  5
45D
  8
0
 10
-57.1409
 20
46.4729
 30
0.0
 11
-57.8167
 21
46.6316
 31
0.0
  0
LINE
  5
45E
  8
0
 10
-57.8167
 20
46.6316
 30
0.0
 11
-58.5261
 21
46.7821
 31
0.0
  0
LINE
  5
45F
  8
0
 10
-58.5261
 20
46.7821
 30
0.0
 11
-59.269
 21
46.923
 31
0.0
  0
LINE
  5
460
  8
0
 10
-59.269
 20
46.923
 30
0.0
 11
-60.0453
 21
47.053
 31
0.0
  0
LINE
  5
461
  8
0
 10
-60.0453
 20
47.053
 30
0.0
 11
-60.8549
 21
47.1706
 31
0.0
  0
LINE
  5
462
  8
0
 10
-60.8549
 20
47.1706
 30
0.0
 11
-61.3138
 21
46.5727
 31
0.0
  0
LINE
  5
463
  8
0
 10
-61.3138
 20
46.5727
 30
0.0
 11
-60.9906
 21
45.8211
 31
0.0
  0
LINE
  5
464
  8
0
 10
-60.9906
 20
45.8211
 30
0.0
 11
-60.6641
 21
45.1049
 31
0.0
  0
LINE
  5
465
  8
0
 10
-60.6641
 20
45.1049
 30
0.0
 11
-60.3357
 21
44.4238
 31
0.0
  0
LINE
  5
466
  8
0
 10
-60.3357
 20
44.4238
 30
0.0
 11
-60.0067
 21
43.7775
 31
0.0
  0
LINE
  5
467
  8
0
 10
-60.0067
 20
43.7775
 30
0.0
 11
-59.6786
 21
43.1658
 31
0.0
  0
LINE
  5
468
  8
0
 10
-59.6786
 20
43.1658
 30
0.0
 11
-59.6712
 21
43.1604
 31
0.0
  0
LINE
  5
469
  8
0
 10
-59.6712
 20
43.1604
 30
0.0
 11
-60.0506
 21
42.631
 31
0.0
  0
LINE
  5
46A
  8
0
 10
-60.0506
 20
42.631
 30
0.0
 11
-60.058
 21
42.6362
 31
0.0
  0
LINE
  5
46B
  8
0
 10
-60.058
 20
42.6362
 30
0.0
 11
-60.7428
 21
42.7504
 31
0.0
  0
LINE
  5
46C
  8
0
 10
-60.7428
 20
42.7504
 30
0.0
 11
-61.4604
 21
42.8541
 31
0.0
  0
LINE
  5
46D
  8
0
 10
-61.4604
 20
42.8541
 30
0.0
 11
-62.211
 21
42.9461
 31
0.0
  0
LINE
  5
46E
  8
0
 10
-62.211
 20
42.9461
 30
0.0
 11
-62.9942
 21
43.0251
 31
0.0
  0
LINE
  5
46F
  8
0
 10
-62.9942
 20
43.0251
 30
0.0
 11
-63.8098
 21
43.0895
 31
0.0
  0
LINE
  5
470
  8
0
 10
-63.8098
 20
43.0895
 30
0.0
 11
-64.2285
 21
42.4629
 31
0.0
  0
LINE
  5
471
  8
0
 10
-64.2285
 20
42.4629
 30
0.0
 11
-63.8568
 21
41.734
 31
0.0
  0
LINE
  5
472
  8
0
 10
-63.8568
 20
41.734
 30
0.0
 11
-63.4842
 21
41.0407
 31
0.0
  0
LINE
  5
473
  8
0
 10
-63.4842
 20
41.0407
 30
0.0
 11
-63.1119
 21
40.3825
 31
0.0
  0
LINE
  5
474
  8
0
 10
-63.1119
 20
40.3825
 30
0.0
 11
-62.7414
 21
39.7591
 31
0.0
  0
LINE
  5
475
  8
0
 10
-62.7414
 20
39.7591
 30
0.0
 11
-62.374
 21
39.1702
 31
0.0
  0
LINE
  5
476
  8
0
 10
-62.374
 20
39.1702
 30
0.0
 11
-62.3662
 21
39.1654
 31
0.0
  0
LINE
  5
477
  8
0
 10
-62.3662
 20
39.1654
 30
0.0
 11
-62.7102
 21
38.6122
 31
0.0
  0
LINE
  5
478
  8
0
 10
-62.7102
 20
38.6122
 30
0.0
 11
-62.718
 21
38.617
 31
0.0
  0
LINE
  5
479
  8
0
 10
-62.718
 20
38.617
 30
0.0
 11
-63.4087
 21
38.6861
 31
0.0
  0
LINE
  5
47A
  8
0
 10
-63.4087
 20
38.6861
 30
0.0
 11
-64.1317
 21
38.7427
 31
0.0
  0
LINE
  5
47B
  8
0
 10
-64.1317
 20
38.7427
 30
0.0
 11
-64.8866
 21
38.7854
 31
0.0
  0
LINE
  5
47C
  8
0
 10
-64.8866
 20
38.7854
 30
0.0
 11
-65.6733
 21
38.8129
 31
0.0
  0
LINE
  5
47D
  8
0
 10
-65.6733
 20
38.8129
 30
0.0
 11
-66.4913
 21
38.8239
 31
0.0
  0
LINE
  5
47E
  8
0
 10
-66.4913
 20
38.8239
 30
0.0
 11
-66.8682
 21
38.1712
 31
0.0
  0
LINE
  5
47F
  8
0
 10
-66.8682
 20
38.1712
 30
0.0
 11
-66.4496
 21
37.4682
 31
0.0
  0
LINE
  5
480
  8
0
 10
-66.4496
 20
37.4682
 30
0.0
 11
-66.0324
 21
36.8007
 31
0.0
  0
LINE
  5
481
  8
0
 10
-66.0324
 20
36.8007
 30
0.0
 11
-65.618
 21
36.1683
 31
0.0
  0
LINE
  5
482
  8
0
 10
-65.618
 20
36.1683
 30
0.0
 11
-65.2075
 21
35.5705
 31
0.0
  0
LINE
  5
483
  8
0
 10
-65.2075
 20
35.5705
 30
0.0
 11
-64.8023
 21
35.0069
 31
0.0
  0
LINE
  5
484
  8
0
 10
-64.8023
 20
35.0069
 30
0.0
 11
-64.7942
 21
35.0025
 31
0.0
  0
LINE
  5
485
  8
0
 10
-64.7942
 20
35.0025
 30
0.0
 11
-65.1013
 21
34.4281
 31
0.0
  0
LINE
  5
486
  8
0
 10
-65.1013
 20
34.4281
 30
0.0
 11
-65.1094
 21
34.4323
 31
0.0
  0
LINE
  5
487
  8
0
 10
-65.1094
 20
34.4323
 30
0.0
 11
-65.8031
 21
34.4561
 31
0.0
  0
LINE
  5
488
  8
0
 10
-65.8031
 20
34.4561
 30
0.0
 11
-66.5282
 21
34.4653
 31
0.0
  0
LINE
  5
489
  8
0
 10
-66.5282
 20
34.4653
 30
0.0
 11
-67.2844
 21
34.4586
 31
0.0
  0
LINE
  5
48A
  8
0
 10
-67.2844
 20
34.4586
 30
0.0
 11
-68.0711
 21
34.4346
 31
0.0
  0
LINE
  5
48B
  8
0
 10
-68.0711
 20
34.4346
 30
0.0
 11
-68.8882
 21
34.3921
 31
0.0
  0
LINE
  5
48C
  8
0
 10
-68.8882
 20
34.3921
 30
0.0
 11
-69.2215
 21
33.7161
 31
0.0
  0
LINE
  5
48D
  8
0
 10
-69.2215
 20
33.7161
 30
0.0
 11
-68.7579
 21
33.042
 31
0.0
  0
LINE
  5
48E
  8
0
 10
-68.7579
 20
33.042
 30
0.0
 11
-68.2979
 21
32.4032
 31
0.0
  0
LINE
  5
48F
  8
0
 10
-68.2979
 20
32.4032
 30
0.0
 11
-67.843
 21
31.7993
 31
0.0
  0
LINE
  5
490
  8
0
 10
-67.843
 20
31.7993
 30
0.0
 11
-67.3943
 21
31.2296
 31
0.0
  0
LINE
  5
491
  8
0
 10
-67.3943
 20
31.2296
 30
0.0
 11
-66.9531
 21
30.6937
 31
0.0
  0
LINE
  5
492
  8
0
 10
-66.9531
 20
30.6937
 30
0.0
 11
-66.9448
 21
30.6899
 31
0.0
  0
LINE
  5
493
  8
0
 10
-66.9448
 20
30.6899
 30
0.0
 11
-67.2136
 21
30.0965
 31
0.0
  0
LINE
  5
494
  8
0
 10
-67.2136
 20
30.0965
 30
0.0
 11
-67.222
 21
30.1003
 31
0.0
  0
LINE
  5
495
  8
0
 10
-67.222
 20
30.1003
 30
0.0
 11
-67.9158
 21
30.0786
 31
0.0
  0
LINE
  5
496
  8
0
 10
-67.9158
 20
30.0786
 30
0.0
 11
-68.6399
 21
30.0403
 31
0.0
  0
LINE
  5
497
  8
0
 10
-68.6399
 20
30.0403
 30
0.0
 11
-69.394
 21
29.9842
 31
0.0
  0
LINE
  5
498
  8
0
 10
-69.394
 20
29.9842
 30
0.0
 11
-70.1775
 21
29.9088
 31
0.0
  0
LINE
  5
499
  8
0
 10
-70.1775
 20
29.9088
 30
0.0
 11
-70.99
 21
29.8129
 31
0.0
  0
LINE
  5
49A
  8
0
 10
-70.99
 20
29.8129
 30
0.0
 11
-71.2784
 21
29.1166
 31
0.0
  0
LINE
  5
49B
  8
0
 10
-71.2784
 20
29.1166
 30
0.0
 11
-70.7717
 21
28.4743
 31
0.0
  0
LINE
  5
49C
  8
0
 10
-70.7717
 20
28.4743
 30
0.0
 11
-70.271
 21
27.8669
 31
0.0
  0
LINE
  5
49D
  8
0
 10
-70.271
 20
27.8669
 30
0.0
 11
-69.7775
 21
27.294
 31
0.0
  0
LINE
  5
49E
  8
0
 10
-69.7775
 20
27.294
 30
0.0
 11
-69.2925
 21
26.7549
 31
0.0
  0
LINE
  5
49F
  8
0
 10
-69.2925
 20
26.7549
 30
0.0
 11
-68.8172
 21
26.249
 31
0.0
  0
LINE
  5
4A0
  8
0
 10
-68.8172
 20
26.249
 30
0.0
 11
-68.8087
 21
26.2458
 31
0.0
  0
LINE
  5
4A1
  8
0
 10
-68.8087
 20
26.2458
 30
0.0
 11
-69.0381
 21
25.6361
 31
0.0
  0
LINE
  5
4A2
  8
0
 10
-69.0381
 20
25.6361
 30
0.0
 11
-69.0467
 21
25.6393
 31
0.0
  0
LINE
  5
4A3
  8
0
 10
-69.0467
 20
25.6393
 30
0.0
 11
-69.7376
 21
25.5723
 31
0.0
  0
LINE
  5
4A4
  8
0
 10
-69.7376
 20
25.5723
 30
0.0
 11
-70.4577
 21
25.4868
 31
0.0
  0
LINE
  5
4A5
  8
0
 10
-70.4577
 20
25.4868
 30
0.0
 11
-71.2065
 21
25.3814
 31
0.0
  0
LINE
  5
4A6
  8
0
 10
-71.2065
 20
25.3814
 30
0.0
 11
-71.9834
 21
25.2549
 31
0.0
  0
LINE
  5
4A7
  8
0
 10
-71.9834
 20
25.2549
 30
0.0
 11
-72.7879
 21
25.1061
 31
0.0
  0
LINE
  5
4A8
  8
0
 10
-72.7879
 20
25.1061
 30
0.0
 11
-73.0302
 21
24.3924
 31
0.0
  0
LINE
  5
4A9
  8
0
 10
-73.0302
 20
24.3924
 30
0.0
 11
-72.4825
 21
23.7846
 31
0.0
  0
LINE
  5
4AA
  8
0
 10
-72.4825
 20
23.7846
 30
0.0
 11
-71.9431
 21
23.2113
 31
0.0
  0
LINE
  5
4AB
  8
0
 10
-71.9431
 20
23.2113
 30
0.0
 11
-71.4132
 21
22.6719
 31
0.0
  0
LINE
  5
4AC
  8
0
 10
-71.4132
 20
22.6719
 30
0.0
 11
-70.894
 21
22.1657
 31
0.0
  0
LINE
  5
4AD
  8
0
 10
-70.894
 20
22.1657
 30
0.0
 11
-70.3866
 21
21.6919
 31
0.0
  0
LINE
  5
4AE
  8
0
 10
-70.3866
 20
21.6919
 30
0.0
 11
-70.3779
 21
21.6893
 31
0.0
  0
LINE
  5
4AF
  8
0
 10
-70.3779
 20
21.6893
 30
0.0
 11
-70.567
 21
21.0659
 31
0.0
  0
LINE
  5
4B0
  8
0
 10
-70.567
 20
21.0659
 30
0.0
 11
-70.5757
 21
21.0685
 31
0.0
  0
LINE
  5
4B1
  8
0
 10
-70.5757
 20
21.0685
 30
0.0
 11
-71.2608
 21
20.9565
 31
0.0
  0
LINE
  5
4B2
  8
0
 10
-71.2608
 20
20.9565
 30
0.0
 11
-71.9738
 21
20.824
 31
0.0
  0
LINE
  5
4B3
  8
0
 10
-71.9738
 20
20.824
 30
0.0
 11
-72.714
 21
20.6699
 31
0.0
  0
LINE
  5
4B4
  8
0
 10
-72.714
 20
20.6699
 30
0.0
 11
-73.481
 21
20.4929
 31
0.0
  0
LINE
  5
4B5
  8
0
 10
-73.481
 20
20.4929
 30
0.0
 11
-74.2741
 21
20.2918
 31
0.0
  0
LINE
  5
4B6
  8
0
 10
-74.2741
 20
20.2918
 30
0.0
 11
-74.4691
 21
19.5638
 31
0.0
  0
LINE
  5
4B7
  8
0
 10
-74.4691
 20
19.5638
 30
0.0
 11
-73.8829
 21
18.9931
 31
0.0
  0
LINE
  5
4B8
  8
0
 10
-73.8829
 20
18.9931
 30
0.0
 11
-73.3072
 21
18.4563
 31
0.0
  0
LINE
  5
4B9
  8
0
 10
-73.3072
 20
18.4563
 30
0.0
 11
-72.7431
 21
17.9527
 31
0.0
  0
LINE
  5
4BA
  8
0
 10
-72.7431
 20
17.9527
 30
0.0
 11
-72.1919
 21
17.4816
 31
0.0
  0
LINE
  5
4BB
  8
0
 10
-72.1919
 20
17.4816
 30
0.0
 11
-71.6546
 21
17.042
 31
0.0
  0
LINE
  5
4BC
  8
0
 10
-71.6546
 20
17.042
 30
0.0
 11
-71.6458
 21
17.0399
 31
0.0
  0
LINE
  5
4BD
  8
0
 10
-71.6458
 20
17.0399
 30
0.0
 11
-71.7937
 21
16.4055
 31
0.0
  0
LINE
  5
4BE
  8
0
 10
-71.7937
 20
16.4055
 30
0.0
 11
-71.8026
 21
16.4075
 31
0.0
  0
LINE
  5
4BF
  8
0
 10
-71.8026
 20
16.4075
 30
0.0
 11
-72.4789
 21
16.2509
 31
0.0
  0
LINE
  5
4C0
  8
0
 10
-72.4789
 20
16.2509
 30
0.0
 11
-73.1816
 21
16.0721
 31
0.0
  0
LINE
  5
4C1
  8
0
 10
-73.1816
 20
16.0721
 30
0.0
 11
-73.9102
 21
15.8699
 31
0.0
  0
LINE
  5
4C2
  8
0
 10
-73.9102
 20
15.8699
 30
0.0
 11
-74.664
 21
15.6432
 31
0.0
  0
LINE
  5
4C3
  8
0
 10
-74.664
 20
15.6432
 30
0.0
 11
-75.4422
 21
15.3906
 31
0.0
  0
LINE
  5
4C4
  8
0
 10
-75.4422
 20
15.3906
 30
0.0
 11
-75.5892
 21
14.6514
 31
0.0
  0
LINE
  5
4C5
  8
0
 10
-75.5892
 20
14.6514
 30
0.0
 11
-74.9669
 21
14.1203
 31
0.0
  0
LINE
  5
4C6
  8
0
 10
-74.9669
 20
14.1203
 30
0.0
 11
-74.3573
 21
13.6223
 31
0.0
  0
LINE
  5
4C7
  8
0
 10
-74.3573
 20
13.6223
 30
0.0
 11
-73.7615
 21
13.1567
 31
0.0
  0
LINE
  5
4C8
  8
0
 10
-73.7615
 20
13.1567
 30
0.0
 11
-73.1807
 21
12.7225
 31
0.0
  0
LINE
  5
4C9
  8
0
 10
-73.1807
 20
12.7225
 30
0.0
 11
-72.6158
 21
12.3191
 31
0.0
  0
LINE
  5
4CA
  8
0
 10
-72.6158
 20
12.3191
 30
0.0
 11
-72.6068
 21
12.3176
 31
0.0
  0
LINE
  5
4CB
  8
0
 10
-72.6068
 20
12.3176
 30
0.0
 11
-72.7129
 21
11.6748
 31
0.0
  0
LINE
  5
4CC
  8
0
 10
-72.7129
 20
11.6748
 30
0.0
 11
-72.722
 21
11.6763
 31
0.0
  0
LINE
  5
4CD
  8
0
 10
-72.722
 20
11.6763
 30
0.0
 11
-73.3865
 21
11.4758
 31
0.0
  0
LINE
  5
4CE
  8
0
 10
-73.3865
 20
11.4758
 30
0.0
 11
-74.0761
 21
11.2514
 31
0.0
  0
LINE
  5
4CF
  8
0
 10
-74.0761
 20
11.2514
 30
0.0
 11
-74.7899
 21
11.002
 31
0.0
  0
LINE
  5
4D0
  8
0
 10
-74.7899
 20
11.002
 30
0.0
 11
-75.5273
 21
10.7264
 31
0.0
  0
LINE
  5
4D1
  8
0
 10
-75.5273
 20
10.7264
 30
0.0
 11
-76.2872
 21
10.4235
 31
0.0
  0
LINE
  5
4D2
  8
0
 10
-76.2872
 20
10.4235
 30
0.0
 11
-76.3856
 21
9.67625
 31
0.0
  0
LINE
  5
4D3
  8
0
 10
-76.3856
 20
9.67625
 30
0.0
 11
-75.7299
 21
9.18697
 31
0.0
  0
LINE
  5
4D4
  8
0
 10
-75.7299
 20
9.18697
 30
0.0
 11
-75.0891
 21
8.72992
 31
0.0
  0
LINE
  5
4D5
  8
0
 10
-75.0891
 20
8.72992
 30
0.0
 11
-74.4641
 21
8.30426
 31
0.0
  0
LINE
  5
4D6
  8
0
 10
-74.4641
 20
8.30426
 30
0.0
 11
-73.8561
 21
7.90906
 31
0.0
  0
LINE
  5
4D7
  8
0
 10
-73.8561
 20
7.90906
 30
0.0
 11
-73.2661
 21
7.5434
 31
0.0
  0
LINE
  5
4D8
  8
0
 10
-73.2661
 20
7.5434
 30
0.0
 11
-73.257
 21
7.54247
 31
0.0
  0
LINE
  5
4D9
  8
0
 10
-73.257
 20
7.54247
 30
0.0
 11
-73.3208
 21
6.89418
 31
0.0
  0
LINE
  5
4DA
  8
0
 10
-73.3208
 20
6.89418
 30
0.0
 11
-73.3299
 21
6.89503
 31
0.0
  0
LINE
  5
4DB
  8
0
 10
-73.3299
 20
6.89503
 30
0.0
 11
-73.9799
 21
6.6515
 31
0.0
  0
LINE
  5
4DC
  8
0
 10
-73.9799
 20
6.6515
 30
0.0
 11
-74.6534
 21
6.38252
 31
0.0
  0
LINE
  5
4DD
  8
0
 10
-74.6534
 20
6.38252
 30
0.0
 11
-75.3494
 21
6.08696
 31
0.0
  0
LINE
  5
4DE
  8
0
 10
-75.3494
 20
6.08696
 30
0.0
 11
-76.0671
 21
5.76373
 31
0.0
  0
LINE
  5
4DF
  8
0
 10
-76.0671
 20
5.76373
 30
0.0
 11
-76.8056
 21
5.41176
 31
0.0
  0
LINE
  5
4E0
  8
0
 10
-76.8056
 20
5.41176
 30
0.0
 11
-76.8549
 21
4.65968
 31
0.0
  0
LINE
  5
4E1
  8
0
 10
-76.8549
 20
4.65968
 30
0.0
 11
-76.1686
 21
4.21431
 31
0.0
  0
LINE
  5
4E2
  8
0
 10
-76.1686
 20
4.21431
 30
0.0
 11
-75.4993
 21
3.80017
 31
0.0
  0
LINE
  5
4E3
  8
0
 10
-75.4993
 20
3.80017
 30
0.0
 11
-74.8478
 21
3.41629
 31
0.0
  0
LINE
  5
4E4
  8
0
 10
-74.8478
 20
3.41629
 30
0.0
 11
-74.2152
 21
3.06171
 31
0.0
  0
LINE
  5
4E5
  8
0
 10
-74.2152
 20
3.06171
 30
0.0
 11
-73.6026
 21
2.73541
 31
0.0
  0
LINE
  5
4E6
  8
0
 10
-73.6026
 20
2.73541
 30
0.0
 11
-73.5934
 21
2.73508
 31
0.0
  0
LINE
  5
4E7
  8
0
 10
-73.5934
 20
2.73508
 30
0.0
 11
-73.6147
 21
2.08401
 31
0.0
  0
LINE
  5
4E8
  8
0
 10
-73.6147
 20
2.08401
 30
0.0
 11
-73.6239
 21
2.08427
 31
0.0
  0
LINE
  5
4E9
  8
0
 10
-73.6239
 20
2.08427
 30
0.0
 11
-74.2566
 21
1.79875
 31
0.0
  0
LINE
  5
4EA
  8
0
 10
-74.2566
 20
1.79875
 30
0.0
 11
-74.911
 21
1.4863
 31
0.0
  0
LINE
  5
4EB
  8
0
 10
-74.911
 20
1.4863
 30
0.0
 11
-75.5862
 21
1.14584
 31
0.0
  0
LINE
  5
4EC
  8
0
 10
-75.5862
 20
1.14584
 30
0.0
 11
-76.2812
 21
0.776367
 31
0.0
  0
LINE
  5
4ED
  8
0
 10
-76.2812
 20
0.776367
 30
0.0
 11
-76.9951
 21
0.376846
 31
0.0
  0
LINE
  5
4EE
  8
0
 10
-76.9951
 20
0.376846
 30
0.0
 11
-76.9951
 21
-0.376846
 31
0.0
  0
LINE
  5
4EF
  8
0
 10
-76.9951
 20
-0.376846
 30
0.0
 11
-76.2812
 21
-0.776367
 31
0.0
  0
LINE
  5
4F0
  8
0
 10
-76.2812
 20
-0.776367
 30
0.0
 11
-75.5862
 21
-1.14584
 31
0.0
  0
LINE
  5
4F1
  8
0
 10
-75.5862
 20
-1.14584
 30
0.0
 11
-74.911
 21
-1.4863
 31
0.0
  0
LINE
  5
4F2
  8
0
 10
-74.911
 20
-1.4863
 30
0.0
 11
-74.2566
 21
-1.79875
 31
0.0
  0
LINE
  5
4F3
  8
0
 10
-74.2566
 20
-1.79875
 30
0.0
 11
-73.6239
 21
-2.08427
 31
0.0
  0
LINE
  5
4F4
  8
0
 10
-73.6239
 20
-2.08427
 30
0.0
 11
-73.6147
 21
-2.08401
 31
0.0
  0
LINE
  5
4F5
  8
0
 10
-73.6147
 20
-2.08401
 30
0.0
 11
-73.5934
 21
-2.73508
 31
0.0
  0
LINE
  5
4F6
  8
0
 10
-73.5934
 20
-2.73508
 30
0.0
 11
-73.6026
 21
-2.73541
 31
0.0
  0
LINE
  5
4F7
  8
0
 10
-73.6026
 20
-2.73541
 30
0.0
 11
-74.2152
 21
-3.06171
 31
0.0
  0
LINE
  5
4F8
  8
0
 10
-74.2152
 20
-3.06171
 30
0.0
 11
-74.8478
 21
-3.41629
 31
0.0
  0
LINE
  5
4F9
  8
0
 10
-74.8478
 20
-3.41629
 30
0.0
 11
-75.4993
 21
-3.80017
 31
0.0
  0
LINE
  5
4FA
  8
0
 10
-75.4993
 20
-3.80017
 30
0.0
 11
-76.1686
 21
-4.21431
 31
0.0
  0
LINE
  5
4FB
  8
0
 10
-76.1686
 20
-4.21431
 30
0.0
 11
-76.8549
 21
-4.65968
 31
0.0
  0
LINE
  5
4FC
  8
0
 10
-76.8549
 20
-4.65968
 30
0.0
 11
-76.8056
 21
-5.41176
 31
0.0
  0
LINE
  5
4FD
  8
0
 10
-76.8056
 20
-5.41176
 30
0.0
 11
-76.0671
 21
-5.76373
 31
0.0
  0
LINE
  5
4FE
  8
0
 10
-76.0671
 20
-5.76373
 30
0.0
 11
-75.3494
 21
-6.08696
 31
0.0
  0
LINE
  5
4FF
  8
0
 10
-75.3494
 20
-6.08696
 30
0.0
 11
-74.6534
 21
-6.38252
 31
0.0
  0
LINE
  5
500
  8
0
 10
-74.6534
 20
-6.38252
 30
0.0
 11
-73.9799
 21
-6.6515
 31
0.0
  0
LINE
  5
501
  8
0
 10
-73.9799
 20
-6.6515
 30
0.0
 11
-73.3299
 21
-6.89503
 31
0.0
  0
LINE
  5
502
  8
0
 10
-73.3299
 20
-6.89503
 30
0.0
 11
-73.3208
 21
-6.89418
 31
0.0
  0
LINE
  5
503
  8
0
 10
-73.3208
 20
-6.89418
 30
0.0
 11
-73.257
 21
-7.54247
 31
0.0
  0
LINE
  5
504
  8
0
 10
-73.257
 20
-7.54247
 30
0.0
 11
-73.2661
 21
-7.5434
 31
0.0
  0
LINE
  5
505
  8
0
 10
-73.2661
 20
-7.5434
 30
0.0
 11
-73.8561
 21
-7.90906
 31
0.0
  0
LINE
  5
506
  8
0
 10
-73.8561
 20
-7.90906
 30
0.0
 11
-74.4641
 21
-8.30426
 31
0.0
  0
LINE
  5
507
  8
0
 10
-74.4641
 20
-8.30426
 30
0.0
 11
-75.0891
 21
-8.72992
 31
0.0
  0
LINE
  5
508
  8
0
 10
-75.0891
 20
-8.72992
 30
0.0
 11
-75.7299
 21
-9.18697
 31
0.0
  0
LINE
  5
509
  8
0
 10
-75.7299
 20
-9.18697
 30
0.0
 11
-76.3856
 21
-9.67625
 31
0.0
  0
LINE
  5
50A
  8
0
 10
-76.3856
 20
-9.67625
 30
0.0
 11
-76.2872
 21
-10.4235
 31
0.0
  0
LINE
  5
50B
  8
0
 10
-76.2872
 20
-10.4235
 30
0.0
 11
-75.5273
 21
-10.7264
 31
0.0
  0
LINE
  5
50C
  8
0
 10
-75.5273
 20
-10.7264
 30
0.0
 11
-74.7899
 21
-11.002
 31
0.0
  0
LINE
  5
50D
  8
0
 10
-74.7899
 20
-11.002
 30
0.0
 11
-74.0761
 21
-11.2514
 31
0.0
  0
LINE
  5
50E
  8
0
 10
-74.0761
 20
-11.2514
 30
0.0
 11
-73.3865
 21
-11.4758
 31
0.0
  0
LINE
  5
50F
  8
0
 10
-73.3865
 20
-11.4758
 30
0.0
 11
-72.722
 21
-11.6763
 31
0.0
  0
LINE
  5
510
  8
0
 10
-72.722
 20
-11.6763
 30
0.0
 11
-72.7129
 21
-11.6748
 31
0.0
  0
LINE
  5
511
  8
0
 10
-72.7129
 20
-11.6748
 30
0.0
 11
-72.6068
 21
-12.3176
 31
0.0
  0
LINE
  5
512
  8
0
 10
-72.6068
 20
-12.3176
 30
0.0
 11
-72.6158
 21
-12.3191
 31
0.0
  0
LINE
  5
513
  8
0
 10
-72.6158
 20
-12.3191
 30
0.0
 11
-73.1807
 21
-12.7225
 31
0.0
  0
LINE
  5
514
  8
0
 10
-73.1807
 20
-12.7225
 30
0.0
 11
-73.7615
 21
-13.1567
 31
0.0
  0
LINE
  5
515
  8
0
 10
-73.7615
 20
-13.1567
 30
0.0
 11
-74.3573
 21
-13.6223
 31
0.0
  0
LINE
  5
516
  8
0
 10
-74.3573
 20
-13.6223
 30
0.0
 11
-74.9669
 21
-14.1203
 31
0.0
  0
LINE
  5
517
  8
0
 10
-74.9669
 20
-14.1203
 30
0.0
 11
-75.5892
 21
-14.6514
 31
0.0
  0
LINE
  5
518
  8
0
 10
-75.5892
 20
-14.6514
 30
0.0
 11
-75.4422
 21
-15.3906
 31
0.0
  0
LINE
  5
519
  8
0
 10
-75.4422
 20
-15.3906
 30
0.0
 11
-74.664
 21
-15.6432
 31
0.0
  0
LINE
  5
51A
  8
0
 10
-74.664
 20
-15.6432
 30
0.0
 11
-73.9102
 21
-15.8699
 31
0.0
  0
LINE
  5
51B
  8
0
 10
-73.9102
 20
-15.8699
 30
0.0
 11
-73.1816
 21
-16.0721
 31
0.0
  0
LINE
  5
51C
  8
0
 10
-73.1816
 20
-16.0721
 30
0.0
 11
-72.4789
 21
-16.2509
 31
0.0
  0
LINE
  5
51D
  8
0
 10
-72.4789
 20
-16.2509
 30
0.0
 11
-71.8026
 21
-16.4075
 31
0.0
  0
LINE
  5
51E
  8
0
 10
-71.8026
 20
-16.4075
 30
0.0
 11
-71.7937
 21
-16.4055
 31
0.0
  0
LINE
  5
51F
  8
0
 10
-71.7937
 20
-16.4055
 30
0.0
 11
-71.6458
 21
-17.0399
 31
0.0
  0
LINE
  5
520
  8
0
 10
-71.6458
 20
-17.0399
 30
0.0
 11
-71.6546
 21
-17.042
 31
0.0
  0
LINE
  5
521
  8
0
 10
-71.6546
 20
-17.042
 30
0.0
 11
-72.1919
 21
-17.4816
 31
0.0
  0
LINE
  5
522
  8
0
 10
-72.1919
 20
-17.4816
 30
0.0
 11
-72.7431
 21
-17.9527
 31
0.0
  0
LINE
  5
523
  8
0
 10
-72.7431
 20
-17.9527
 30
0.0
 11
-73.3072
 21
-18.4563
 31
0.0
  0
LINE
  5
524
  8
0
 10
-73.3072
 20
-18.4563
 30
0.0
 11
-73.8829
 21
-18.9931
 31
0.0
  0
LINE
  5
525
  8
0
 10
-73.8829
 20
-18.9931
 30
0.0
 11
-74.4691
 21
-19.5638
 31
0.0
  0
LINE
  5
526
  8
0
 10
-74.4691
 20
-19.5638
 30
0.0
 11
-74.2741
 21
-20.2918
 31
0.0
  0
LINE
  5
527
  8
0
 10
-74.2741
 20
-20.2918
 30
0.0
 11
-73.481
 21
-20.4929
 31
0.0
  0
LINE
  5
528
  8
0
 10
-73.481
 20
-20.4929
 30
0.0
 11
-72.714
 21
-20.6699
 31
0.0
  0
LINE
  5
529
  8
0
 10
-72.714
 20
-20.6699
 30
0.0
 11
-71.9738
 21
-20.824
 31
0.0
  0
LINE
  5
52A
  8
0
 10
-71.9738
 20
-20.824
 30
0.0
 11
-71.2608
 21
-20.9565
 31
0.0
  0
LINE
  5
52B
  8
0
 10
-71.2608
 20
-20.9565
 30
0.0
 11
-70.5757
 21
-21.0685
 31
0.0
  0
LINE
  5
52C
  8
0
 10
-70.5757
 20
-21.0685
 30
0.0
 11
-70.567
 21
-21.0659
 31
0.0
  0
LINE
  5
52D
  8
0
 10
-70.567
 20
-21.0659
 30
0.0
 11
-70.3779
 21
-21.6893
 31
0.0
  0
LINE
  5
52E
  8
0
 10
-70.3779
 20
-21.6893
 30
0.0
 11
-70.3866
 21
-21.6919
 31
0.0
  0
LINE
  5
52F
  8
0
 10
-70.3866
 20
-21.6919
 30
0.0
 11
-70.894
 21
-22.1657
 31
0.0
  0
LINE
  5
530
  8
0
 10
-70.894
 20
-22.1657
 30
0.0
 11
-71.4132
 21
-22.6719
 31
0.0
  0
LINE
  5
531
  8
0
 10
-71.4132
 20
-22.6719
 30
0.0
 11
-71.9431
 21
-23.2113
 31
0.0
  0
LINE
  5
532
  8
0
 10
-71.9431
 20
-23.2113
 30
0.0
 11
-72.4825
 21
-23.7846
 31
0.0
  0
LINE
  5
533
  8
0
 10
-72.4825
 20
-23.7846
 30
0.0
 11
-73.0302
 21
-24.3924
 31
0.0
  0
LINE
  5
534
  8
0
 10
-73.0302
 20
-24.3924
 30
0.0
 11
-72.7879
 21
-25.1061
 31
0.0
  0
LINE
  5
535
  8
0
 10
-72.7879
 20
-25.1061
 30
0.0
 11
-71.9834
 21
-25.2549
 31
0.0
  0
LINE
  5
536
  8
0
 10
-71.9834
 20
-25.2549
 30
0.0
 11
-71.2065
 21
-25.3814
 31
0.0
  0
LINE
  5
537
  8
0
 10
-71.2065
 20
-25.3814
 30
0.0
 11
-70.4577
 21
-25.4868
 31
0.0
  0
LINE
  5
538
  8
0
 10
-70.4577
 20
-25.4868
 30
0.0
 11
-69.7376
 21
-25.5723
 31
0.0
  0
LINE
  5
539
  8
0
 10
-69.7376
 20
-25.5723
 30
0.0
 11
-69.0467
 21
-25.6393
 31
0.0
  0
LINE
  5
53A
  8
0
 10
-69.0467
 20
-25.6393
 30
0.0
 11
-69.0381
 21
-25.6361
 31
0.0
  0
LINE
  5
53B
  8
0
 10
-69.0381
 20
-25.6361
 30
0.0
 11
-68.8087
 21
-26.2458
 31
0.0
  0
LINE
  5
53C
  8
0
 10
-68.8087
 20
-26.2458
 30
0.0
 11
-68.8172
 21
-26.249
 31
0.0
  0
LINE
  5
53D
  8
0
 10
-68.8172
 20
-26.249
 30
0.0
 11
-69.2925
 21
-26.7549
 31
0.0
  0
LINE
  5
53E
  8
0
 10
-69.2925
 20
-26.7549
 30
0.0
 11
-69.7775
 21
-27.294
 31
0.0
  0
LINE
  5
53F
  8
0
 10
-69.7775
 20
-27.294
 30
0.0
 11
-70.271
 21
-27.8669
 31
0.0
  0
LINE
  5
540
  8
0
 10
-70.271
 20
-27.8669
 30
0.0
 11
-70.7717
 21
-28.4743
 31
0.0
  0
LINE
  5
541
  8
0
 10
-70.7717
 20
-28.4743
 30
0.0
 11
-71.2784
 21
-29.1166
 31
0.0
  0
LINE
  5
542
  8
0
 10
-71.2784
 20
-29.1166
 30
0.0
 11
-70.99
 21
-29.8129
 31
0.0
  0
LINE
  5
543
  8
0
 10
-70.99
 20
-29.8129
 30
0.0
 11
-70.1775
 21
-29.9088
 31
0.0
  0
LINE
  5
544
  8
0
 10
-70.1775
 20
-29.9088
 30
0.0
 11
-69.394
 21
-29.9842
 31
0.0
  0
LINE
  5
545
  8
0
 10
-69.394
 20
-29.9842
 30
0.0
 11
-68.6399
 21
-30.0403
 31
0.0
  0
LINE
  5
546
  8
0
 10
-68.6399
 20
-30.0403
 30
0.0
 11
-67.9158
 21
-30.0786
 31
0.0
  0
LINE
  5
547
  8
0
 10
-67.9158
 20
-30.0786
 30
0.0
 11
-67.222
 21
-30.1003
 31
0.0
  0
LINE
  5
548
  8
0
 10
-67.222
 20
-30.1003
 30
0.0
 11
-67.2136
 21
-30.0965
 31
0.0
  0
LINE
  5
549
  8
0
 10
-67.2136
 20
-30.0965
 30
0.0
 11
-66.9448
 21
-30.6899
 31
0.0
  0
LINE
  5
54A
  8
0
 10
-66.9448
 20
-30.6899
 30
0.0
 11
-66.9531
 21
-30.6937
 31
0.0
  0
LINE
  5
54B
  8
0
 10
-66.9531
 20
-30.6937
 30
0.0
 11
-67.3943
 21
-31.2296
 31
0.0
  0
LINE
  5
54C
  8
0
 10
-67.3943
 20
-31.2296
 30
0.0
 11
-67.843
 21
-31.7993
 31
0.0
  0
LINE
  5
54D
  8
0
 10
-67.843
 20
-31.7993
 30
0.0
 11
-68.2979
 21
-32.4032
 31
0.0
  0
LINE
  5
54E
  8
0
 10
-68.2979
 20
-32.4032
 30
0.0
 11
-68.7579
 21
-33.042
 31
0.0
  0
LINE
  5
54F
  8
0
 10
-68.7579
 20
-33.042
 30
0.0
 11
-69.2215
 21
-33.7161
 31
0.0
  0
LINE
  5
550
  8
0
 10
-69.2215
 20
-33.7161
 30
0.0
 11
-68.8882
 21
-34.3921
 31
0.0
  0
LINE
  5
551
  8
0
 10
-68.8882
 20
-34.3921
 30
0.0
 11
-68.0711
 21
-34.4346
 31
0.0
  0
LINE
  5
552
  8
0
 10
-68.0711
 20
-34.4346
 30
0.0
 11
-67.2844
 21
-34.4586
 31
0.0
  0
LINE
  5
553
  8
0
 10
-67.2844
 20
-34.4586
 30
0.0
 11
-66.5282
 21
-34.4653
 31
0.0
  0
LINE
  5
554
  8
0
 10
-66.5282
 20
-34.4653
 30
0.0
 11
-65.8031
 21
-34.4561
 31
0.0
  0
LINE
  5
555
  8
0
 10
-65.8031
 20
-34.4561
 30
0.0
 11
-65.1094
 21
-34.4323
 31
0.0
  0
LINE
  5
556
  8
0
 10
-65.1094
 20
-34.4323
 30
0.0
 11
-65.1013
 21
-34.4281
 31
0.0
  0
LINE
  5
557
  8
0
 10
-65.1013
 20
-34.4281
 30
0.0
 11
-64.7942
 21
-35.0025
 31
0.0
  0
LINE
  5
558
  8
0
 10
-64.7942
 20
-35.0025
 30
0.0
 11
-64.8023
 21
-35.0069
 31
0.0
  0
LINE
  5
559
  8
0
 10
-64.8023
 20
-35.0069
 30
0.0
 11
-65.2075
 21
-35.5705
 31
0.0
  0
LINE
  5
55A
  8
0
 10
-65.2075
 20
-35.5705
 30
0.0
 11
-65.618
 21
-36.1683
 31
0.0
  0
LINE
  5
55B
  8
0
 10
-65.618
 20
-36.1683
 30
0.0
 11
-66.0324
 21
-36.8007
 31
0.0
  0
LINE
  5
55C
  8
0
 10
-66.0324
 20
-36.8007
 30
0.0
 11
-66.4496
 21
-37.4682
 31
0.0
  0
LINE
  5
55D
  8
0
 10
-66.4496
 20
-37.4682
 30
0.0
 11
-66.8682
 21
-38.1712
 31
0.0
  0
LINE
  5
55E
  8
0
 10
-66.8682
 20
-38.1712
 30
0.0
 11
-66.4913
 21
-38.8239
 31
0.0
  0
LINE
  5
55F
  8
0
 10
-66.4913
 20
-38.8239
 30
0.0
 11
-65.6733
 21
-38.8129
 31
0.0
  0
LINE
  5
560
  8
0
 10
-65.6733
 20
-38.8129
 30
0.0
 11
-64.8866
 21
-38.7854
 31
0.0
  0
LINE
  5
561
  8
0
 10
-64.8866
 20
-38.7854
 30
0.0
 11
-64.1317
 21
-38.7427
 31
0.0
  0
LINE
  5
562
  8
0
 10
-64.1317
 20
-38.7427
 30
0.0
 11
-63.4087
 21
-38.6861
 31
0.0
  0
LINE
  5
563
  8
0
 10
-63.4087
 20
-38.6861
 30
0.0
 11
-62.718
 21
-38.617
 31
0.0
  0
LINE
  5
564
  8
0
 10
-62.718
 20
-38.617
 30
0.0
 11
-62.7102
 21
-38.6122
 31
0.0
  0
LINE
  5
565
  8
0
 10
-62.7102
 20
-38.6122
 30
0.0
 11
-62.3662
 21
-39.1654
 31
0.0
  0
LINE
  5
566
  8
0
 10
-62.3662
 20
-39.1654
 30
0.0
 11
-62.374
 21
-39.1702
 31
0.0
  0
LINE
  5
567
  8
0
 10
-62.374
 20
-39.1702
 30
0.0
 11
-62.7414
 21
-39.7591
 31
0.0
  0
LINE
  5
568
  8
0
 10
-62.7414
 20
-39.7591
 30
0.0
 11
-63.1119
 21
-40.3825
 31
0.0
  0
LINE
  5
569
  8
0
 10
-63.1119
 20
-40.3825
 30
0.0
 11
-63.4842
 21
-41.0407
 31
0.0
  0
LINE
  5
56A
  8
0
 10
-63.4842
 20
-41.0407
 30
0.0
 11
-63.8568
 21
-41.734
 31
0.0
  0
LINE
  5
56B
  8
0
 10
-63.8568
 20
-41.734
 30
0.0
 11
-64.2285
 21
-42.4629
 31
0.0
  0
LINE
  5
56C
  8
0
 10
-64.2285
 20
-42.4629
 30
0.0
 11
-63.8098
 21
-43.0895
 31
0.0
  0
LINE
  5
56D
  8
0
 10
-63.8098
 20
-43.0895
 30
0.0
 11
-62.9942
 21
-43.0251
 31
0.0
  0
LINE
  5
56E
  8
0
 10
-62.9942
 20
-43.0251
 30
0.0
 11
-62.211
 21
-42.9461
 31
0.0
  0
LINE
  5
56F
  8
0
 10
-62.211
 20
-42.9461
 30
0.0
 11
-61.4604
 21
-42.8541
 31
0.0
  0
LINE
  5
570
  8
0
 10
-61.4604
 20
-42.8541
 30
0.0
 11
-60.7428
 21
-42.7504
 31
0.0
  0
LINE
  5
571
  8
0
 10
-60.7428
 20
-42.7504
 30
0.0
 11
-60.058
 21
-42.6362
 31
0.0
  0
LINE
  5
572
  8
0
 10
-60.058
 20
-42.6362
 30
0.0
 11
-60.0506
 21
-42.631
 31
0.0
  0
LINE
  5
573
  8
0
 10
-60.0506
 20
-42.631
 30
0.0
 11
-59.6712
 21
-43.1604
 31
0.0
  0
LINE
  5
574
  8
0
 10
-59.6712
 20
-43.1604
 30
0.0
 11
-59.6786
 21
-43.1658
 31
0.0
  0
LINE
  5
575
  8
0
 10
-59.6786
 20
-43.1658
 30
0.0
 11
-60.0067
 21
-43.7775
 31
0.0
  0
LINE
  5
576
  8
0
 10
-60.0067
 20
-43.7775
 30
0.0
 11
-60.3357
 21
-44.4238
 31
0.0
  0
LINE
  5
577
  8
0
 10
-60.3357
 20
-44.4238
 30
0.0
 11
-60.6641
 21
-45.1049
 31
0.0
  0
LINE
  5
578
  8
0
 10
-60.6641
 20
-45.1049
 30
0.0
 11
-60.9906
 21
-45.8211
 31
0.0
  0
LINE
  5
579
  8
0
 10
-60.9906
 20
-45.8211
 30
0.0
 11
-61.3138
 21
-46.5727
 31
0.0
  0
LINE
  5
57A
  8
0
 10
-61.3138
 20
-46.5727
 30
0.0
 11
-60.8549
 21
-47.1706
 31
0.0
  0
LINE
  5
57B
  8
0
 10
-60.8549
 20
-47.1706
 30
0.0
 11
-60.0453
 21
-47.053
 31
0.0
  0
LINE
  5
57C
  8
0
 10
-60.0453
 20
-47.053
 30
0.0
 11
-59.269
 21
-46.923
 31
0.0
  0
LINE
  5
57D
  8
0
 10
-59.269
 20
-46.923
 30
0.0
 11
-58.5261
 21
-46.7821
 31
0.0
  0
LINE
  5
57E
  8
0
 10
-58.5261
 20
-46.7821
 30
0.0
 11
-57.8167
 21
-46.6316
 31
0.0
  0
LINE
  5
57F
  8
0
 10
-57.8167
 20
-46.6316
 30
0.0
 11
-57.1409
 21
-46.4729
 31
0.0
  0
LINE
  5
580
  8
0
 10
-57.1409
 20
-46.4729
 30
0.0
 11
-57.1338
 21
-46.4672
 31
0.0
  0
LINE
  5
581
  8
0
 10
-57.1338
 20
-46.4672
 30
0.0
 11
-56.7206
 21
-46.9707
 31
0.0
  0
LINE
  5
582
  8
0
 10
-56.7206
 20
-46.9707
 30
0.0
 11
-56.7276
 21
-46.9765
 31
0.0
  0
LINE
  5
583
  8
0
 10
-56.7276
 20
-46.9765
 30
0.0
 11
-57.0151
 21
-47.6084
 31
0.0
  0
LINE
  5
584
  8
0
 10
-57.0151
 20
-47.6084
 30
0.0
 11
-57.301
 21
-48.2748
 31
0.0
  0
LINE
  5
585
  8
0
 10
-57.301
 20
-48.2748
 30
0.0
 11
-57.5842
 21
-48.9759
 31
0.0
  0
LINE
  5
586
  8
0
 10
-57.5842
 20
-48.9759
 30
0.0
 11
-57.8631
 21
-49.712
 31
0.0
  0
LINE
  5
587
  8
0
 10
-57.8631
 20
-49.712
 30
0.0
 11
-58.1365
 21
-50.4831
 31
0.0
  0
LINE
  5
588
  8
0
 10
-58.1365
 20
-50.4831
 30
0.0
 11
-57.6395
 21
-51.0497
 31
0.0
  0
LINE
  5
589
  8
0
 10
-57.6395
 20
-51.0497
 30
0.0
 11
-56.8393
 21
-50.8794
 31
0.0
  0
LINE
  5
58A
  8
0
 10
-56.8393
 20
-50.8794
 30
0.0
 11
-56.0732
 21
-50.6989
 31
0.0
  0
LINE
  5
58B
  8
0
 10
-56.0732
 20
-50.6989
 30
0.0
 11
-55.3411
 21
-50.5097
 31
0.0
  0
LINE
  5
58C
  8
0
 10
-55.3411
 20
-50.5097
 30
0.0
 11
-54.6431
 21
-50.3131
 31
0.0
  0
LINE
  5
58D
  8
0
 10
-54.6431
 20
-50.3131
 30
0.0
 11
-53.9791
 21
-50.1106
 31
0.0
  0
LINE
  5
58E
  8
0
 10
-53.9791
 20
-50.1106
 30
0.0
 11
-53.9724
 21
-50.1044
 31
0.0
  0
LINE
  5
58F
  8
0
 10
-53.9724
 20
-50.1044
 30
0.0
 11
-53.5271
 21
-50.5798
 31
0.0
  0
LINE
  5
590
  8
0
 10
-53.5271
 20
-50.5798
 30
0.0
 11
-53.5337
 21
-50.5861
 31
0.0
  0
LINE
  5
591
  8
0
 10
-53.5337
 20
-50.5861
 30
0.0
 11
-53.7792
 21
-51.2354
 31
0.0
  0
LINE
  5
592
  8
0
 10
-53.7792
 20
-51.2354
 30
0.0
 11
-54.021
 21
-51.9191
 31
0.0
  0
LINE
  5
593
  8
0
 10
-54.021
 20
-51.9191
 30
0.0
 11
-54.2577
 21
-52.6372
 31
0.0
  0
LINE
  5
594
  8
0
 10
-54.2577
 20
-52.6372
 30
0.0
 11
-54.4879
 21
-53.39
 31
0.0
  0
LINE
  5
595
  8
0
 10
-54.4879
 20
-53.39
 30
0.0
 11
-54.7103
 21
-54.1773
 31
0.0
  0
LINE
  5
596
  8
0
 10
-54.7103
 20
-54.1773
 30
0.0
 11
-54.1773
 21
-54.7103
 31
0.0
  0
LINE
  5
597
  8
0
 10
-54.1773
 20
-54.7103
 30
0.0
 11
-53.39
 21
-54.4879
 31
0.0
  0
LINE
  5
598
  8
0
 10
-53.39
 20
-54.4879
 30
0.0
 11
-52.6372
 21
-54.2577
 31
0.0
  0
LINE
  5
599
  8
0
 10
-52.6372
 20
-54.2577
 30
0.0
 11
-51.9191
 21
-54.021
 31
0.0
  0
LINE
  5
59A
  8
0
 10
-51.9191
 20
-54.021
 30
0.0
 11
-51.2354
 21
-53.7792
 31
0.0
  0
LINE
  5
59B
  8
0
 10
-51.2354
 20
-53.7792
 30
0.0
 11
-50.5861
 21
-53.5337
 31
0.0
  0
LINE
  5
59C
  8
0
 10
-50.5861
 20
-53.5337
 30
0.0
 11
-50.5798
 21
-53.5271
 31
0.0
  0
LINE
  5
59D
  8
0
 10
-50.5798
 20
-53.5271
 30
0.0
 11
-50.1044
 21
-53.9724
 31
0.0
  0
LINE
  5
59E
  8
0
 10
-50.1044
 20
-53.9724
 30
0.0
 11
-50.1106
 21
-53.9791
 31
0.0
  0
LINE
  5
59F
  8
0
 10
-50.1106
 20
-53.9791
 30
0.0
 11
-50.3131
 21
-54.6431
 31
0.0
  0
LINE
  5
5A0
  8
0
 10
-50.3131
 20
-54.6431
 30
0.0
 11
-50.5097
 21
-55.3411
 31
0.0
  0
LINE
  5
5A1
  8
0
 10
-50.5097
 20
-55.3411
 30
0.0
 11
-50.6989
 21
-56.0732
 31
0.0
  0
LINE
  5
5A2
  8
0
 10
-50.6989
 20
-56.0732
 30
0.0
 11
-50.8794
 21
-56.8393
 31
0.0
  0
LINE
  5
5A3
  8
0
 10
-50.8794
 20
-56.8393
 30
0.0
 11
-51.0497
 21
-57.6395
 31
0.0
  0
LINE
  5
5A4
  8
0
 10
-51.0497
 20
-57.6395
 30
0.0
 11
-50.4831
 21
-58.1365
 31
0.0
  0
LINE
  5
5A5
  8
0
 10
-50.4831
 20
-58.1365
 30
0.0
 11
-49.712
 21
-57.8631
 31
0.0
  0
LINE
  5
5A6
  8
0
 10
-49.712
 20
-57.8631
 30
0.0
 11
-48.9759
 21
-57.5842
 31
0.0
  0
LINE
  5
5A7
  8
0
 10
-48.9759
 20
-57.5842
 30
0.0
 11
-48.2748
 21
-57.301
 31
0.0
  0
LINE
  5
5A8
  8
0
 10
-48.2748
 20
-57.301
 30
0.0
 11
-47.6084
 21
-57.0151
 31
0.0
  0
LINE
  5
5A9
  8
0
 10
-47.6084
 20
-57.0151
 30
0.0
 11
-46.9765
 21
-56.7276
 31
0.0
  0
LINE
  5
5AA
  8
0
 10
-46.9765
 20
-56.7276
 30
0.0
 11
-46.9707
 21
-56.7206
 31
0.0
  0
LINE
  5
5AB
  8
0
 10
-46.9707
 20
-56.7206
 30
0.0
 11
-46.4672
 21
-57.1338
 31
0.0
  0
LINE
  5
5AC
  8
0
 10
-46.4672
 20
-57.1338
 30
0.0
 11
-46.4729
 21
-57.1409
 31
0.0
  0
LINE
  5
5AD
  8
0
 10
-46.4729
 20
-57.1409
 30
0.0
 11
-46.6316
 21
-57.8167
 31
0.0
  0
LINE
  5
5AE
  8
0
 10
-46.6316
 20
-57.8167
 30
0.0
 11
-46.7821
 21
-58.5261
 31
0.0
  0
LINE
  5
5AF
  8
0
 10
-46.7821
 20
-58.5261
 30
0.0
 11
-46.923
 21
-59.269
 31
0.0
  0
LINE
  5
5B0
  8
0
 10
-46.923
 20
-59.269
 30
0.0
 11
-47.053
 21
-60.0453
 31
0.0
  0
LINE
  5
5B1
  8
0
 10
-47.053
 20
-60.0453
 30
0.0
 11
-47.1706
 21
-60.8549
 31
0.0
  0
LINE
  5
5B2
  8
0
 10
-47.1706
 20
-60.8549
 30
0.0
 11
-46.5727
 21
-61.3138
 31
0.0
  0
LINE
  5
5B3
  8
0
 10
-46.5727
 20
-61.3138
 30
0.0
 11
-45.8211
 21
-60.9906
 31
0.0
  0
LINE
  5
5B4
  8
0
 10
-45.8211
 20
-60.9906
 30
0.0
 11
-45.1049
 21
-60.6641
 31
0.0
  0
LINE
  5
5B5
  8
0
 10
-45.1049
 20
-60.6641
 30
0.0
 11
-44.4238
 21
-60.3357
 31
0.0
  0
LINE
  5
5B6
  8
0
 10
-44.4238
 20
-60.3357
 30
0.0
 11
-43.7775
 21
-60.0067
 31
0.0
  0
LINE
  5
5B7
  8
0
 10
-43.7775
 20
-60.0067
 30
0.0
 11
-43.1658
 21
-59.6786
 31
0.0
  0
LINE
  5
5B8
  8
0
 10
-43.1658
 20
-59.6786
 30
0.0
 11
-43.1604
 21
-59.6712
 31
0.0
  0
LINE
  5
5B9
  8
0
 10
-43.1604
 20
-59.6712
 30
0.0
 11
-42.631
 21
-60.0506
 31
0.0
  0
LINE
  5
5BA
  8
0
 10
-42.631
 20
-60.0506
 30
0.0
 11
-42.6362
 21
-60.058
 31
0.0
  0
LINE
  5
5BB
  8
0
 10
-42.6362
 20
-60.058
 30
0.0
 11
-42.7504
 21
-60.7428
 31
0.0
  0
LINE
  5
5BC
  8
0
 10
-42.7504
 20
-60.7428
 30
0.0
 11
-42.8541
 21
-61.4604
 31
0.0
  0
LINE
  5
5BD
  8
0
 10
-42.8541
 20
-61.4604
 30
0.0
 11
-42.9461
 21
-62.211
 31
0.0
  0
LINE
  5
5BE
  8
0
 10
-42.9461
 20
-62.211
 30
0.0
 11
-43.0251
 21
-62.9942
 31
0.0
  0
LINE
  5
5BF
  8
0
 10
-43.0251
 20
-62.9942
 30
0.0
 11
-43.0895
 21
-63.8098
 31
0.0
  0
LINE
  5
5C0
  8
0
 10
-43.0895
 20
-63.8098
 30
0.0
 11
-42.4629
 21
-64.2285
 31
0.0
  0
LINE
  5
5C1
  8
0
 10
-42.4629
 20
-64.2285
 30
0.0
 11
-41.734
 21
-63.8568
 31
0.0
  0
LINE
  5
5C2
  8
0
 10
-41.734
 20
-63.8568
 30
0.0
 11
-41.0407
 21
-63.4842
 31
0.0
  0
LINE
  5
5C3
  8
0
 10
-41.0407
 20
-63.4842
 30
0.0
 11
-40.3825
 21
-63.1119
 31
0.0
  0
LINE
  5
5C4
  8
0
 10
-40.3825
 20
-63.1119
 30
0.0
 11
-39.7591
 21
-62.7414
 31
0.0
  0
LINE
  5
5C5
  8
0
 10
-39.7591
 20
-62.7414
 30
0.0
 11
-39.1702
 21
-62.374
 31
0.0
  0
LINE
  5
5C6
  8
0
 10
-39.1702
 20
-62.374
 30
0.0
 11
-39.1654
 21
-62.3662
 31
0.0
  0
LINE
  5
5C7
  8
0
 10
-39.1654
 20
-62.3662
 30
0.0
 11
-38.6122
 21
-62.7102
 31
0.0
  0
LINE
  5
5C8
  8
0
 10
-38.6122
 20
-62.7102
 30
0.0
 11
-38.617
 21
-62.718
 31
0.0
  0
LINE
  5
5C9
  8
0
 10
-38.617
 20
-62.718
 30
0.0
 11
-38.6861
 21
-63.4087
 31
0.0
  0
LINE
  5
5CA
  8
0
 10
-38.6861
 20
-63.4087
 30
0.0
 11
-38.7427
 21
-64.1317
 31
0.0
  0
LINE
  5
5CB
  8
0
 10
-38.7427
 20
-64.1317
 30
0.0
 11
-38.7854
 21
-64.8866
 31
0.0
  0
LINE
  5
5CC
  8
0
 10
-38.7854
 20
-64.8866
 30
0.0
 11
-38.8129
 21
-65.6733
 31
0.0
  0
LINE
  5
5CD
  8
0
 10
-38.8129
 20
-65.6733
 30
0.0
 11
-38.8239
 21
-66.4913
 31
0.0
  0
LINE
  5
5CE
  8
0
 10
-38.8239
 20
-66.4913
 30
0.0
 11
-38.1712
 21
-66.8682
 31
0.0
  0
LINE
  5
5CF
  8
0
 10
-38.1712
 20
-66.8682
 30
0.0
 11
-37.4682
 21
-66.4496
 31
0.0
  0
LINE
  5
5D0
  8
0
 10
-37.4682
 20
-66.4496
 30
0.0
 11
-36.8007
 21
-66.0324
 31
0.0
  0
LINE
  5
5D1
  8
0
 10
-36.8007
 20
-66.0324
 30
0.0
 11
-36.1683
 21
-65.618
 31
0.0
  0
LINE
  5
5D2
  8
0
 10
-36.1683
 20
-65.618
 30
0.0
 11
-35.5705
 21
-65.2075
 31
0.0
  0
LINE
  5
5D3
  8
0
 10
-35.5705
 20
-65.2075
 30
0.0
 11
-35.0069
 21
-64.8023
 31
0.0
  0
LINE
  5
5D4
  8
0
 10
-35.0069
 20
-64.8023
 30
0.0
 11
-35.0025
 21
-64.7942
 31
0.0
  0
LINE
  5
5D5
  8
0
 10
-35.0025
 20
-64.7942
 30
0.0
 11
-34.4281
 21
-65.1013
 31
0.0
  0
LINE
  5
5D6
  8
0
 10
-34.4281
 20
-65.1013
 30
0.0
 11
-34.4323
 21
-65.1094
 31
0.0
  0
LINE
  5
5D7
  8
0
 10
-34.4323
 20
-65.1094
 30
0.0
 11
-34.4561
 21
-65.8031
 31
0.0
  0
LINE
  5
5D8
  8
0
 10
-34.4561
 20
-65.8031
 30
0.0
 11
-34.4653
 21
-66.5282
 31
0.0
  0
LINE
  5
5D9
  8
0
 10
-34.4653
 20
-66.5282
 30
0.0
 11
-34.4586
 21
-67.2844
 31
0.0
  0
LINE
  5
5DA
  8
0
 10
-34.4586
 20
-67.2844
 30
0.0
 11
-34.4346
 21
-68.0711
 31
0.0
  0
LINE
  5
5DB
  8
0
 10
-34.4346
 20
-68.0711
 30
0.0
 11
-34.3921
 21
-68.8882
 31
0.0
  0
LINE
  5
5DC
  8
0
 10
-34.3921
 20
-68.8882
 30
0.0
 11
-33.7161
 21
-69.2215
 31
0.0
  0
LINE
  5
5DD
  8
0
 10
-33.7161
 20
-69.2215
 30
0.0
 11
-33.042
 21
-68.7579
 31
0.0
  0
LINE
  5
5DE
  8
0
 10
-33.042
 20
-68.7579
 30
0.0
 11
-32.4032
 21
-68.2979
 31
0.0
  0
LINE
  5
5DF
  8
0
 10
-32.4032
 20
-68.2979
 30
0.0
 11
-31.7993
 21
-67.843
 31
0.0
  0
LINE
  5
5E0
  8
0
 10
-31.7993
 20
-67.843
 30
0.0
 11
-31.2296
 21
-67.3943
 31
0.0
  0
LINE
  5
5E1
  8
0
 10
-31.2296
 20
-67.3943
 30
0.0
 11
-30.6937
 21
-66.9531
 31
0.0
  0
LINE
  5
5E2
  8
0
 10
-30.6937
 20
-66.9531
 30
0.0
 11
-30.6899
 21
-66.9448
 31
0.0
  0
LINE
  5
5E3
  8
0
 10
-30.6899
 20
-66.9448
 30
0.0
 11
-30.0965
 21
-67.2136
 31
0.0
  0
LINE
  5
5E4
  8
0
 10
-30.0965
 20
-67.2136
 30
0.0
 11
-30.1003
 21
-67.222
 31
0.0
  0
LINE
  5
5E5
  8
0
 10
-30.1003
 20
-67.222
 30
0.0
 11
-30.0786
 21
-67.9158
 31
0.0
  0
LINE
  5
5E6
  8
0
 10
-30.0786
 20
-67.9158
 30
0.0
 11
-30.0403
 21
-68.6399
 31
0.0
  0
LINE
  5
5E7
  8
0
 10
-30.0403
 20
-68.6399
 30
0.0
 11
-29.9842
 21
-69.394
 31
0.0
  0
LINE
  5
5E8
  8
0
 10
-29.9842
 20
-69.394
 30
0.0
 11
-29.9088
 21
-70.1775
 31
0.0
  0
LINE
  5
5E9
  8
0
 10
-29.9088
 20
-70.1775
 30
0.0
 11
-29.8129
 21
-70.99
 31
0.0
  0
LINE
  5
5EA
  8
0
 10
-29.8129
 20
-70.99
 30
0.0
 11
-29.1166
 21
-71.2784
 31
0.0
  0
LINE
  5
5EB
  8
0
 10
-29.1166
 20
-71.2784
 30
0.0
 11
-28.4743
 21
-70.7717
 31
0.0
  0
LINE
  5
5EC
  8
0
 10
-28.4743
 20
-70.7717
 30
0.0
 11
-27.8669
 21
-70.271
 31
0.0
  0
LINE
  5
5ED
  8
0
 10
-27.8669
 20
-70.271
 30
0.0
 11
-27.294
 21
-69.7775
 31
0.0
  0
LINE
  5
5EE
  8
0
 10
-27.294
 20
-69.7775
 30
0.0
 11
-26.7549
 21
-69.2925
 31
0.0
  0
LINE
  5
5EF
  8
0
 10
-26.7549
 20
-69.2925
 30
0.0
 11
-26.249
 21
-68.8172
 31
0.0
  0
LINE
  5
5F0
  8
0
 10
-26.249
 20
-68.8172
 30
0.0
 11
-26.2458
 21
-68.8087
 31
0.0
  0
LINE
  5
5F1
  8
0
 10
-26.2458
 20
-68.8087
 30
0.0
 11
-25.6361
 21
-69.0381
 31
0.0
  0
LINE
  5
5F2
  8
0
 10
-25.6361
 20
-69.0381
 30
0.0
 11
-25.6393
 21
-69.0467
 31
0.0
  0
LINE
  5
5F3
  8
0
 10
-25.6393
 20
-69.0467
 30
0.0
 11
-25.5723
 21
-69.7376
 31
0.0
  0
LINE
  5
5F4
  8
0
 10
-25.5723
 20
-69.7376
 30
0.0
 11
-25.4868
 21
-70.4577
 31
0.0
  0
LINE
  5
5F5
  8
0
 10
-25.4868
 20
-70.4577
 30
0.0
 11
-25.3814
 21
-71.2065
 31
0.0
  0
LINE
  5
5F6
  8
0
 10
-25.3814
 20
-71.2065
 30
0.0
 11
-25.2549
 21
-71.9834
 31
0.0
  0
LINE
  5
5F7
  8
0
 10
-25.2549
 20
-71.9834
 30
0.0
 11
-25.1061
 21
-72.7879
 31
0.0
  0
LINE
  5
5F8
  8
0
 10
-25.1061
 20
-72.7879
 30
0.0
 11
-24.3924
 21
-73.0302
 31
0.0
  0
LINE
  5
5F9
  8
0
 10
-24.3924
 20
-73.0302
 30
0.0
 11
-23.7846
 21
-72.4825
 31
0.0
  0
LINE
  5
5FA
  8
0
 10
-23.7846
 20
-72.4825
 30
0.0
 11
-23.2113
 21
-71.9431
 31
0.0
  0
LINE
  5
5FB
  8
0
 10
-23.2113
 20
-71.9431
 30
0.0
 11
-22.6719
 21
-71.4132
 31
0.0
  0
LINE
  5
5FC
  8
0
 10
-22.6719
 20
-71.4132
 30
0.0
 11
-22.1657
 21
-70.894
 31
0.0
  0
LINE
  5
5FD
  8
0
 10
-22.1657
 20
-70.894
 30
0.0
 11
-21.6919
 21
-70.3866
 31
0.0
  0
LINE
  5
5FE
  8
0
 10
-21.6919
 20
-70.3866
 30
0.0
 11
-21.6893
 21
-70.3779
 31
0.0
  0
LINE
  5
5FF
  8
0
 10
-21.6893
 20
-70.3779
 30
0.0
 11
-21.0659
 21
-70.567
 31
0.0
  0
LINE
  5
600
  8
0
 10
-21.0659
 20
-70.567
 30
0.0
 11
-21.0685
 21
-70.5757
 31
0.0
  0
LINE
  5
601
  8
0
 10
-21.0685
 20
-70.5757
 30
0.0
 11
-20.9565
 21
-71.2608
 31
0.0
  0
LINE
  5
602
  8
0
 10
-20.9565
 20
-71.2608
 30
0.0
 11
-20.824
 21
-71.9738
 31
0.0
  0
LINE
  5
603
  8
0
 10
-20.824
 20
-71.9738
 30
0.0
 11
-20.6699
 21
-72.714
 31
0.0
  0
LINE
  5
604
  8
0
 10
-20.6699
 20
-72.714
 30
0.0
 11
-20.4929
 21
-73.481
 31
0.0
  0
LINE
  5
605
  8
0
 10
-20.4929
 20
-73.481
 30
0.0
 11
-20.2918
 21
-74.2741
 31
0.0
  0
LINE
  5
606
  8
0
 10
-20.2918
 20
-74.2741
 30
0.0
 11
-19.5638
 21
-74.4691
 31
0.0
  0
LINE
  5
607
  8
0
 10
-19.5638
 20
-74.4691
 30
0.0
 11
-18.9931
 21
-73.8829
 31
0.0
  0
LINE
  5
608
  8
0
 10
-18.9931
 20
-73.8829
 30
0.0
 11
-18.4563
 21
-73.3072
 31
0.0
  0
LINE
  5
609
  8
0
 10
-18.4563
 20
-73.3072
 30
0.0
 11
-17.9527
 21
-72.7431
 31
0.0
  0
LINE
  5
60A
  8
0
 10
-17.9527
 20
-72.7431
 30
0.0
 11
-17.4816
 21
-72.1919
 31
0.0
  0
LINE
  5
60B
  8
0
 10
-17.4816
 20
-72.1919
 30
0.0
 11
-17.042
 21
-71.6546
 31
0.0
  0
LINE
  5
60C
  8
0
 10
-17.042
 20
-71.6546
 30
0.0
 11
-17.0399
 21
-71.6458
 31
0.0
  0
LINE
  5
60D
  8
0
 10
-17.0399
 20
-71.6458
 30
0.0
 11
-16.4055
 21
-71.7937
 31
0.0
  0
LINE
  5
60E
  8
0
 10
-16.4055
 20
-71.7937
 30
0.0
 11
-16.4075
 21
-71.8026
 31
0.0
  0
LINE
  5
60F
  8
0
 10
-16.4075
 20
-71.8026
 30
0.0
 11
-16.2509
 21
-72.4789
 31
0.0
  0
LINE
  5
610
  8
0
 10
-16.2509
 20
-72.4789
 30
0.0
 11
-16.0721
 21
-73.1816
 31
0.0
  0
LINE
  5
611
  8
0
 10
-16.0721
 20
-73.1816
 30
0.0
 11
-15.8699
 21
-73.9102
 31
0.0
  0
LINE
  5
612
  8
0
 10
-15.8699
 20
-73.9102
 30
0.0
 11
-15.6432
 21
-74.664
 31
0.0
  0
LINE
  5
613
  8
0
 10
-15.6432
 20
-74.664
 30
0.0
 11
-15.3906
 21
-75.4422
 31
0.0
  0
LINE
  5
614
  8
0
 10
-15.3906
 20
-75.4422
 30
0.0
 11
-14.6514
 21
-75.5892
 31
0.0
  0
LINE
  5
615
  8
0
 10
-14.6514
 20
-75.5892
 30
0.0
 11
-14.1203
 21
-74.9669
 31
0.0
  0
LINE
  5
616
  8
0
 10
-14.1203
 20
-74.9669
 30
0.0
 11
-13.6223
 21
-74.3573
 31
0.0
  0
LINE
  5
617
  8
0
 10
-13.6223
 20
-74.3573
 30
0.0
 11
-13.1567
 21
-73.7615
 31
0.0
  0
LINE
  5
618
  8
0
 10
-13.1567
 20
-73.7615
 30
0.0
 11
-12.7225
 21
-73.1807
 31
0.0
  0
LINE
  5
619
  8
0
 10
-12.7225
 20
-73.1807
 30
0.0
 11
-12.3191
 21
-72.6158
 31
0.0
  0
LINE
  5
61A
  8
0
 10
-12.3191
 20
-72.6158
 30
0.0
 11
-12.3176
 21
-72.6068
 31
0.0
  0
LINE
  5
61B
  8
0
 10
-12.3176
 20
-72.6068
 30
0.0
 11
-11.6748
 21
-72.7129
 31
0.0
  0
LINE
  5
61C
  8
0
 10
-11.6748
 20
-72.7129
 30
0.0
 11
-11.6763
 21
-72.722
 31
0.0
  0
LINE
  5
61D
  8
0
 10
-11.6763
 20
-72.722
 30
0.0
 11
-11.4758
 21
-73.3865
 31
0.0
  0
LINE
  5
61E
  8
0
 10
-11.4758
 20
-73.3865
 30
0.0
 11
-11.2514
 21
-74.0761
 31
0.0
  0
LINE
  5
61F
  8
0
 10
-11.2514
 20
-74.0761
 30
0.0
 11
-11.002
 21
-74.7899
 31
0.0
  0
LINE
  5
620
  8
0
 10
-11.002
 20
-74.7899
 30
0.0
 11
-10.7264
 21
-75.5273
 31
0.0
  0
LINE
  5
621
  8
0
 10
-10.7264
 20
-75.5273
 30
0.0
 11
-10.4235
 21
-76.2872
 31
0.0
  0
LINE
  5
622
  8
0
 10
-10.4235
 20
-76.2872
 30
0.0
 11
-9.67625
 21
-76.3856
 31
0.0
  0
LINE
  5
623
  8
0
 10
-9.67625
 20
-76.3856
 30
0.0
 11
-9.18697
 21
-75.7299
 31
0.0
  0
LINE
  5
624
  8
0
 10
-9.18697
 20
-75.7299
 30
0.0
 11
-8.72992
 21
-75.0891
 31
0.0
  0
LINE
  5
625
  8
0
 10
-8.72992
 20
-75.0891
 30
0.0
 11
-8.30426
 21
-74.4641
 31
0.0
  0
LINE
  5
626
  8
0
 10
-8.30426
 20
-74.4641
 30
0.0
 11
-7.90906
 21
-73.8561
 31
0.0
  0
LINE
  5
627
  8
0
 10
-7.90906
 20
-73.8561
 30
0.0
 11
-7.5434
 21
-73.2661
 31
0.0
  0
LINE
  5
628
  8
0
 10
-7.5434
 20
-73.2661
 30
0.0
 11
-7.54247
 21
-73.257
 31
0.0
  0
LINE
  5
629
  8
0
 10
-7.54247
 20
-73.257
 30
0.0
 11
-6.89418
 21
-73.3208
 31
0.0
  0
LINE
  5
62A
  8
0
 10
-6.89418
 20
-73.3208
 30
0.0
 11
-6.89503
 21
-73.3299
 31
0.0
  0
LINE
  5
62B
  8
0
 10
-6.89503
 20
-73.3299
 30
0.0
 11
-6.6515
 21
-73.9799
 31
0.0
  0
LINE
  5
62C
  8
0
 10
-6.6515
 20
-73.9799
 30
0.0
 11
-6.38252
 21
-74.6534
 31
0.0
  0
LINE
  5
62D
  8
0
 10
-6.38252
 20
-74.6534
 30
0.0
 11
-6.08696
 21
-75.3494
 31
0.0
  0
LINE
  5
62E
  8
0
 10
-6.08696
 20
-75.3494
 30
0.0
 11
-5.76373
 21
-76.0671
 31
0.0
  0
LINE
  5
62F
  8
0
 10
-5.76373
 20
-76.0671
 30
0.0
 11
-5.41176
 21
-76.8056
 31
0.0
  0
LINE
  5
630
  8
0
 10
-5.41176
 20
-76.8056
 30
0.0
 11
-4.65968
 21
-76.8549
 31
0.0
  0
LINE
  5
631
  8
0
 10
-4.65968
 20
-76.8549
 30
0.0
 11
-4.21431
 21
-76.1686
 31
0.0
  0
LINE
  5
632
  8
0
 10
-4.21431
 20
-76.1686
 30
0.0
 11
-3.80017
 21
-75.4993
 31
0.0
  0
LINE
  5
633
  8
0
 10
-3.80017
 20
-75.4993
 30
0.0
 11
-3.41629
 21
-74.8478
 31
0.0
  0
LINE
  5
634
  8
0
 10
-3.41629
 20
-74.8478
 30
0.0
 11
-3.06171
 21
-74.2152
 31
0.0
  0
LINE
  5
635
  8
0
 10
-3.06171
 20
-74.2152
 30
0.0
 11
-2.73541
 21
-73.6026
 31
0.0
  0
LINE
  5
636
  8
0
 10
-2.73541
 20
-73.6026
 30
0.0
 11
-2.73508
 21
-73.5934
 31
0.0
  0
LINE
  5
637
  8
0
 10
-2.73508
 20
-73.5934
 30
0.0
 11
-2.08401
 21
-73.6147
 31
0.0
  0
LINE
  5
638
  8
0
 10
-2.08401
 20
-73.6147
 30
0.0
 11
-2.08427
 21
-73.6239
 31
0.0
  0
LINE
  5
639
  8
0
 10
-2.08427
 20
-73.6239
 30
0.0
 11
-1.79875
 21
-74.2566
 31
0.0
  0
LINE
  5
63A
  8
0
 10
-1.79875
 20
-74.2566
 30
0.0
 11
-1.4863
 21
-74.911
 31
0.0
  0
LINE
  5
63B
  8
0
 10
-1.4863
 20
-74.911
 30
0.0
 11
-1.14584
 21
-75.5862
 31
0.0
  0
LINE
  5
63C
  8
0
 10
-1.14584
 20
-75.5862
 30
0.0
 11
-0.776367
 21
-76.2812
 31
0.0
  0
LINE
  5
63D
  8
0
 10
-0.776367
 20
-76.2812
 30
0.0
 11
-0.376846
 21
-76.9951
 31
0.0
  0
LINE
  5
63E
  8
0
 10
-0.376846
 20
-76.9951
 30
0.0
 11
0.376846
 21
-76.9951
 31
0.0
  0
LINE
  5
63F
  8
0
 10
0.376846
 20
-76.9951
 30
0.0
 11
0.776367
 21
-76.2812
 31
0.0
  0
LINE
  5
640
  8
0
 10
-0.146317
 20
-0.73558
 30
0.0
 11
-0.287003
 21
-0.692902
 31
0.0
  0
LINE
  5
641
  8
0
 10
-0.287003
 20
-0.692902
 30
0.0
 11
-0.416672
 21
-0.623596
 31
0.0
  0
LINE
  5
642
  8
0
 10
-0.416672
 20
-0.623596
 30
0.0
 11
-0.530319
 21
-0.530319
 31
0.0
  0
LINE
  5
643
  8
0
 10
-0.530319
 20
-0.530319
 30
0.0
 11
-0.623596
 21
-0.416672
 31
0.0
  0
LINE
  5
644
  8
0
 10
-0.623596
 20
-0.416672
 30
0.0
 11
-0.692902
 21
-0.287003
 31
0.0
  0
LINE
  5
645
  8
0
 10
-0.692902
 20
-0.287003
 30
0.0
 11
-0.73558
 21
-0.146317
 31
0.0
  0
LINE
  5
646
  8
0
 10
-0.73558
 20
-0.146317
 30
0.0
 11
-0.75
 21
0.0
 31
0.0
  0
LINE
  5
647
  8
0
 10
-0.75
 20
0.0
 30
0.0
 11
-0.73558
 21
0.146317
 31
0.0
  0
LINE
  5
648
  8
0
 10
-0.73558
 20
0.146317
 30
0.0
 11
-0.692902
 21
0.287003
 31
0.0
  0
LINE
  5
649
  8
0
 10
-0.692902
 20
0.287003
 30
0.0
 11
-0.623596
 21
0.416672
 31
0.0
  0
LINE
  5
64A
  8
0
 10
-0.623596
 20
0.416672
 30
0.0
 11
-0.530319
 21
0.530319
 31
0.0
  0
LINE
  5
64B
  8
0
 10
-0.530319
 20
0.530319
 30
0.0
 11
-0.416672
 21
0.623596
 31
0.0
  0
LINE
  5
64C
  8
0
 10
-0.416672
 20
0.623596
 30
0.0
 11
-0.287003
 21
0.692902
 31
0.0
  0
LINE
  5
64D
  8
0
 10
-0.287003
 20
0.692902
 30
0.0
 11
-0.146317
 21
0.73558
 31
0.0
  0
LINE
  5
64E
  8
0
 10
-0.146317
 20
0.73558
 30
0.0
 11
0.0
 21
0.75
 31
0.0
  0
LINE
  5
64F
  8
0
 10
0.0
 20
0.75
 30
0.0
 11
0.146317
 21
0.73558
 31
0.0
  0
LINE
  5
650
  8
0
 10
0.146317
 20
0.73558
 30
0.0
 11
0.287003
 21
0.692902
 31
0.0
  0
LINE
  5
651
  8
0
 10
0.287003
 20
0.692902
 30
0.0
 11
0.416672
 21
0.623596
 31
0.0
  0
LINE
  5
652
  8
0
 10
0.416672
 20
0.623596
 30
0.0
 11
0.530319
 21
0.530319
 31
0.0
  0
LINE
  5
653
  8
0
 10
0.530319
 20
0.530319
 30
0.0
 11
0.623596
 21
0.416672
 31
0.0
  0
LINE
  5
654
  8
0
 10
0.623596
 20
0.416672
 30
0.0
 11
0.692902
 21
0.287003
 31
0.0
  0
LINE
  5
655
  8
0
 10
0.692902
 20
0.287003
 30
0.0
 11
0.73558
 21
0.146317
 31
0.0
  0
LINE
  5
656
  8
0
 10
0.73558
 20
0.146317
 30
0.0
 11
0.75
 21
0.0
 31
0.0
  0
LINE
  5
657
  8
0
 10
0.75
 20
0.0
 30
0.0
 11
0.73558
 21
-0.146317
 31
0.0
  0
LINE
  5
658
  8
0
 10
0.73558
 20
-0.146317
 30
0.0
 11
0.692902
 21
-0.287003
 31
0.0
  0
LINE
  5
659
  8
0
 10
0.692902
 20
-0.287003
 30
0.0
 11
0.623596
 21
-0.416672
 31
0.0
  0
LINE
  5
65A
  8
0
 10
0.623596
 20
-0.416672
 30
0.0
 11
0.530319
 21
-0.530319
 31
0.0
  0
LINE
  5
65B
  8
0
 10
0.530319
 20
-0.530319
 30
0.0
 11
0.416672
 21
-0.623596
 31
0.0
  0
LINE
  5
65C
  8
0
 10
0.416672
 20
-0.623596
 30
0.0
 11
0.287003
 21
-0.692902
 31
0.0
  0
LINE
  5
65D
  8
0
 10
0.287003
 20
-0.692902
 30
0.0
 11
0.146317
 21
-0.73558
 31
0.0
  0
LINE
  5
65E
  8
0
 10
0.146317
 20
-0.73558
 30
0.0
 11
0.0
 21
-0.75
 31
0.0
  0
LINE
  5
65F
  8
0
 10
0.0
 20
-0.75
 30
0.0
 11
-0.146317
 21
-0.73558
 31
0.0
  0
LINE
  5
660
  8
0
 10
83.0991
 20
-9.9651
 30
0.0
 11
83.6562
 21
-9.29913
 31
0.0
  0
LINE
  5
661
  8
0
 10
83.6562
 20
-9.29913
 30
0.0
 11
83.9673
 21
-8.7626
 31
0.0
  0
LINE
  5
662
  8
0
 10
83.9673
 20
-8.7626
 30
0.0
 11
84.0972
 21
-8.41391
 31
0.0
  0
LINE
  5
663
  8
0
 10
84.0972
 20
-8.41391
 30
0.0
 11
84.1222
 21
-8.29237
 31
0.0
  0
LINE
  5
664
  8
0
 10
84.1222
 20
-8.29237
 30
0.0
 11
84.1839
 21
-7.59122
 31
0.0
  0
LINE
  5
665
  8
0
 10
84.1839
 20
-7.59122
 30
0.0
 11
85.5217
 21
-7.59122
 31
0.0
  0
LINE
  5
666
  8
0
 10
85.5217
 20
-7.59122
 30
0.0
 11
85.5835
 21
-8.29236
 31
0.0
  0
LINE
  5
667
  8
0
 10
85.5835
 20
-8.29236
 30
0.0
 11
85.6085
 21
-8.41389
 31
0.0
  0
LINE
  5
668
  8
0
 10
85.6085
 20
-8.41389
 30
0.0
 11
85.7384
 21
-8.7626
 31
0.0
  0
LINE
  5
669
  8
0
 10
85.7384
 20
-8.7626
 30
0.0
 11
86.0495
 21
-9.29912
 31
0.0
  0
LINE
  5
66A
  8
0
 10
86.0495
 20
-9.29912
 30
0.0
 11
86.6065
 21
-9.9651
 31
0.0
  0
LINE
  5
66B
  8
0
 10
86.6065
 20
-9.9651
 30
0.0
 11
87.4586
 21
-10.6863
 31
0.0
  0
LINE
  5
66C
  8
0
 10
87.4586
 20
-10.6863
 30
0.0
 11
87.9393
 21
-10.5575
 31
0.0
  0
LINE
  5
66D
  8
0
 10
87.9393
 20
-10.5575
 30
0.0
 11
88.3166
 21
-9.50688
 31
0.0
  0
LINE
  5
66E
  8
0
 10
88.3166
 20
-9.50688
 30
0.0
 11
88.466
 21
-8.6516
 31
0.0
  0
LINE
  5
66F
  8
0
 10
88.466
 20
-8.6516
 30
0.0
 11
88.4672
 21
-8.03142
 31
0.0
  0
LINE
  5
670
  8
0
 10
88.4672
 20
-8.03142
 30
0.0
 11
88.4053
 21
-7.66447
 31
0.0
  0
LINE
  5
671
  8
0
 10
88.4053
 20
-7.66447
 30
0.0
 11
88.3662
 21
-7.54672
 31
0.0
  0
LINE
  5
672
  8
0
 10
88.3662
 20
-7.54672
 30
0.0
 11
88.0692
 21
-6.90863
 31
0.0
  0
LINE
  5
673
  8
0
 10
88.0692
 20
-6.90863
 30
0.0
 11
89.2277
 21
-6.23975
 31
0.0
  0
LINE
  5
674
  8
0
 10
89.2277
 20
-6.23975
 30
0.0
 11
89.6318
 21
-6.81607
 31
0.0
  0
LINE
  5
675
  8
0
 10
89.6318
 20
-6.81607
 30
0.0
 11
89.7142
 21
-6.90881
 31
0.0
  0
LINE
  5
676
  8
0
 10
89.7142
 20
-6.90881
 30
0.0
 11
90.001
 21
-7.14586
 31
0.0
  0
LINE
  5
677
  8
0
 10
90.001
 20
-7.14586
 30
0.0
 11
90.5387
 21
-7.45494
 31
0.0
  0
LINE
  5
678
  8
0
 10
90.5387
 20
-7.45494
 30
0.0
 11
91.3541
 21
-7.75317
 31
0.0
  0
LINE
  5
679
  8
0
 10
91.3541
 20
-7.75317
 30
0.0
 11
92.4526
 21
-7.95172
 31
0.0
  0
LINE
  5
67A
  8
0
 10
92.4526
 20
-7.95172
 30
0.0
 11
92.8045
 21
-7.59979
 31
0.0
  0
LINE
  5
67B
  8
0
 10
92.8045
 20
-7.59979
 30
0.0
 11
92.606
 21
-6.5013
 31
0.0
  0
LINE
  5
67C
  8
0
 10
92.606
 20
-6.5013
 30
0.0
 11
92.3078
 21
-5.68588
 31
0.0
  0
LINE
  5
67D
  8
0
 10
92.3078
 20
-5.68588
 30
0.0
 11
91.9987
 21
-5.14821
 31
0.0
  0
LINE
  5
67E
  8
0
 10
91.9987
 20
-5.14821
 30
0.0
 11
91.7616
 21
-4.86137
 31
0.0
  0
LINE
  5
67F
  8
0
 10
91.7616
 20
-4.86137
 30
0.0
 11
91.6689
 21
-4.77893
 31
0.0
  0
LINE
  5
680
  8
0
 10
91.6689
 20
-4.77893
 30
0.0
 11
91.0926
 21
-4.37485
 31
0.0
  0
LINE
  5
681
  8
0
 10
91.0926
 20
-4.37485
 30
0.0
 11
91.7614
 21
-3.21635
 31
0.0
  0
LINE
  5
682
  8
0
 10
91.7614
 20
-3.21635
 30
0.0
 11
92.3996
 21
-3.51343
 31
0.0
  0
LINE
  5
683
  8
0
 10
92.3996
 20
-3.51343
 30
0.0
 11
92.5173
 21
-3.55254
 31
0.0
  0
LINE
  5
684
  8
0
 10
92.5173
 20
-3.55254
 30
0.0
 11
92.8842
 21
-3.6144
 31
0.0
  0
LINE
  5
685
  8
0
 10
92.8842
 20
-3.6144
 30
0.0
 11
93.5044
 21
-3.61324
 31
0.0
  0
LINE
  5
686
  8
0
 10
93.5044
 20
-3.61324
 30
0.0
 11
94.3597
 21
-3.46379
 31
0.0
  0
LINE
  5
687
  8
0
 10
94.3597
 20
-3.46379
 30
0.0
 11
95.4103
 21
-3.08649
 31
0.0
  0
LINE
  5
688
  8
0
 10
95.4103
 20
-3.08649
 30
0.0
 11
95.5391
 21
-2.60576
 31
0.0
  0
LINE
  5
689
  8
0
 10
95.5391
 20
-2.60576
 30
0.0
 11
94.8179
 21
-1.75371
 31
0.0
  0
LINE
  5
68A
  8
0
 10
94.8179
 20
-1.75371
 30
0.0
 11
94.1519
 21
-1.19664
 31
0.0
  0
LINE
  5
68B
  8
0
 10
94.1519
 20
-1.19664
 30
0.0
 11
93.6154
 21
-0.885544
 31
0.0
  0
LINE
  5
68C
  8
0
 10
93.6154
 20
-0.885544
 30
0.0
 11
93.2667
 21
-0.755661
 31
0.0
  0
LINE
  5
68D
  8
0
 10
93.2667
 20
-0.755661
 30
0.0
 11
93.1452
 21
-0.730637
 31
0.0
  0
LINE
  5
68E
  8
0
 10
93.1452
 20
-0.730637
 30
0.0
 11
92.444
 21
-0.668854
 31
0.0
  0
LINE
  5
68F
  8
0
 10
92.444
 20
-0.668854
 30
0.0
 11
92.444
 21
0.668854
 31
0.0
  0
LINE
  5
690
  8
0
 10
92.444
 20
0.668854
 30
0.0
 11
93.1452
 21
0.730637
 31
0.0
  0
LINE
  5
691
  8
0
 10
93.1452
 20
0.730637
 30
0.0
 11
93.2667
 21
0.755661
 31
0.0
  0
LINE
  5
692
  8
0
 10
93.2667
 20
0.755661
 30
0.0
 11
93.6154
 21
0.885544
 31
0.0
  0
LINE
  5
693
  8
0
 10
93.6154
 20
0.885544
 30
0.0
 11
94.1519
 21
1.19664
 31
0.0
  0
LINE
  5
694
  8
0
 10
94.1519
 20
1.19664
 30
0.0
 11
94.8179
 21
1.75369
 31
0.0
  0
LINE
  5
695
  8
0
 10
94.8179
 20
1.75369
 30
0.0
 11
95.5391
 21
2.60576
 31
0.0
  0
LINE
  5
696
  8
0
 10
95.5391
 20
2.60576
 30
0.0
 11
95.4103
 21
3.08649
 31
0.0
  0
LINE
  5
697
  8
0
 10
95.4103
 20
3.08649
 30
0.0
 11
94.3597
 21
3.46379
 31
0.0
  0
LINE
  5
698
  8
0
 10
94.3597
 20
3.46379
 30
0.0
 11
93.5044
 21
3.61322
 31
0.0
  0
LINE
  5
699
  8
0
 10
93.5044
 20
3.61322
 30
0.0
 11
92.8842
 21
3.61438
 31
0.0
  0
LINE
  5
69A
  8
0
 10
92.8842
 20
3.61438
 30
0.0
 11
92.5173
 21
3.55252
 31
0.0
  0
LINE
  5
69B
  8
0
 10
92.5173
 20
3.55252
 30
0.0
 11
92.3995
 21
3.51341
 31
0.0
  0
LINE
  5
69C
  8
0
 10
92.3995
 20
3.51341
 30
0.0
 11
91.7614
 21
3.21634
 31
0.0
  0
LINE
  5
69D
  8
0
 10
91.7614
 20
3.21634
 30
0.0
 11
91.0926
 21
4.37488
 31
0.0
  0
LINE
  5
69E
  8
0
 10
91.0926
 20
4.37488
 30
0.0
 11
91.6689
 21
4.77893
 31
0.0
  0
LINE
  5
69F
  8
0
 10
91.6689
 20
4.77893
 30
0.0
 11
91.7616
 21
4.86136
 31
0.0
  0
LINE
  5
6A0
  8
0
 10
91.7616
 20
4.86136
 30
0.0
 11
91.9987
 21
5.14821
 31
0.0
  0
LINE
  5
6A1
  8
0
 10
91.9987
 20
5.14821
 30
0.0
 11
92.3078
 21
5.68588
 31
0.0
  0
LINE
  5
6A2
  8
0
 10
92.3078
 20
5.68588
 30
0.0
 11
92.606
 21
6.5013
 31
0.0
  0
LINE
  5
6A3
  8
0
 10
92.606
 20
6.5013
 30
0.0
 11
92.8045
 21
7.59981
 31
0.0
  0
LINE
  5
6A4
  8
0
 10
92.8045
 20
7.59981
 30
0.0
 11
92.4526
 21
7.95172
 31
0.0
  0
LINE
  5
6A5
  8
0
 10
92.4526
 20
7.95172
 30
0.0
 11
91.3541
 21
7.75317
 31
0.0
  0
LINE
  5
6A6
  8
0
 10
91.3541
 20
7.75317
 30
0.0
 11
90.5387
 21
7.45494
 31
0.0
  0
LINE
  5
6A7
  8
0
 10
90.5387
 20
7.45494
 30
0.0
 11
90.001
 21
7.14586
 31
0.0
  0
LINE
  5
6A8
  8
0
 10
90.001
 20
7.14586
 30
0.0
 11
89.7142
 21
6.90881
 31
0.0
  0
LINE
  5
6A9
  8
0
 10
89.7142
 20
6.90881
 30
0.0
 11
89.6318
 21
6.81607
 31
0.0
  0
LINE
  5
6AA
  8
0
 10
89.6318
 20
6.81607
 30
0.0
 11
89.2277
 21
6.23975
 31
0.0
  0
LINE
  5
6AB
  8
0
 10
89.2277
 20
6.23975
 30
0.0
 11
88.0692
 21
6.90862
 31
0.0
  0
LINE
  5
6AC
  8
0
 10
88.0692
 20
6.90862
 30
0.0
 11
88.3662
 21
7.54672
 31
0.0
  0
LINE
  5
6AD
  8
0
 10
88.3662
 20
7.54672
 30
0.0
 11
88.4053
 21
7.66449
 31
0.0
  0
LINE
  5
6AE
  8
0
 10
88.4053
 20
7.66449
 30
0.0
 11
88.4672
 21
8.03142
 31
0.0
  0
LINE
  5
6AF
  8
0
 10
88.4672
 20
8.03142
 30
0.0
 11
88.466
 21
8.65161
 31
0.0
  0
LINE
  5
6B0
  8
0
 10
88.466
 20
8.65161
 30
0.0
 11
88.3166
 21
9.50688
 31
0.0
  0
LINE
  5
6B1
  8
0
 10
88.3166
 20
9.50688
 30
0.0
 11
87.9393
 21
10.5575
 31
0.0
  0
LINE
  5
6B2
  8
0
 10
87.9393
 20
10.5575
 30
0.0
 11
87.4586
 21
10.6863
 31
0.0
  0
LINE
  5
6B3
  8
0
 10
87.4586
 20
10.6863
 30
0.0
 11
86.6065
 21
9.9651
 31
0.0
  0
LINE
  5
6B4
  8
0
 10
86.6065
 20
9.9651
 30
0.0
 11
86.0495
 21
9.29913
 31
0.0
  0
LINE
  5
6B5
  8
0
 10
86.0495
 20
9.29913
 30
0.0
 11
85.7384
 21
8.7626
 31
0.0
  0
LINE
  5
6B6
  8
0
 10
85.7384
 20
8.7626
 30
0.0
 11
85.6085
 21
8.41391
 31
0.0
  0
LINE
  5
6B7
  8
0
 10
85.6085
 20
8.41391
 30
0.0
 11
85.5835
 21
8.29237
 31
0.0
  0
LINE
  5
6B8
  8
0
 10
85.5835
 20
8.29237
 30
0.0
 11
85.5217
 21
7.59122
 31
0.0
  0
LINE
  5
6B9
  8
0
 10
85.5217
 20
7.59122
 30
0.0
 11
84.1839
 21
7.59122
 31
0.0
  0
LINE
  5
6BA
  8
0
 10
84.1839
 20
7.59122
 30
0.0
 11
84.1222
 21
8.29236
 31
0.0
  0
LINE
  5
6BB
  8
0
 10
84.1222
 20
8.29236
 30
0.0
 11
84.0972
 21
8.41389
 31
0.0
  0
LINE
  5
6BC
  8
0
 10
84.0972
 20
8.41389
 30
0.0
 11
83.9673
 21
8.7626
 31
0.0
  0
LINE
  5
6BD
  8
0
 10
83.9673
 20
8.7626
 30
0.0
 11
83.6562
 21
9.29912
 31
0.0
  0
LINE
  5
6BE
  8
0
 10
83.6562
 20
9.29912
 30
0.0
 11
83.0991
 21
9.9651
 31
0.0
  0
LINE
  5
6BF
  8
0
 10
83.0991
 20
9.9651
 30
0.0
 11
82.247
 21
10.6863
 31
0.0
  0
LINE
  5
6C0
  8
0
 10
82.247
 20
10.6863
 30
0.0
 11
81.7663
 21
10.5575
 31
0.0
  0
LINE
  5
6C1
  8
0
 10
81.7663
 20
10.5575
 30
0.0
 11
81.389
 21
9.50688
 31
0.0
  0
LINE
  5
6C2
  8
0
 10
81.389
 20
9.50688
 30
0.0
 11
81.2396
 21
8.6516
 31
0.0
  0
LINE
  5
6C3
  8
0
 10
81.2396
 20
8.6516
 30
0.0
 11
81.2384
 21
8.03142
 31
0.0
  0
LINE
  5
6C4
  8
0
 10
81.2384
 20
8.03142
 30
0.0
 11
81.3003
 21
7.66447
 31
0.0
  0
LINE
  5
6C5
  8
0
 10
81.3003
 20
7.66447
 30
0.0
 11
81.3394
 21
7.54672
 31
0.0
  0
LINE
  5
6C6
  8
0
 10
81.3394
 20
7.54672
 30
0.0
 11
81.6365
 21
6.90863
 31
0.0
  0
LINE
  5
6C7
  8
0
 10
81.6365
 20
6.90863
 30
0.0
 11
80.4779
 21
6.23975
 31
0.0
  0
LINE
  5
6C8
  8
0
 10
80.4779
 20
6.23975
 30
0.0
 11
80.0739
 21
6.81607
 31
0.0
  0
LINE
  5
6C9
  8
0
 10
80.0739
 20
6.81607
 30
0.0
 11
79.9914
 21
6.90881
 31
0.0
  0
LINE
  5
6CA
  8
0
 10
79.9914
 20
6.90881
 30
0.0
 11
79.7046
 21
7.14586
 31
0.0
  0
LINE
  5
6CB
  8
0
 10
79.7046
 20
7.14586
 30
0.0
 11
79.1669
 21
7.45494
 31
0.0
  0
LINE
  5
6CC
  8
0
 10
79.1669
 20
7.45494
 30
0.0
 11
78.3515
 21
7.75317
 31
0.0
  0
LINE
  5
6CD
  8
0
 10
78.3515
 20
7.75317
 30
0.0
 11
77.253
 21
7.95172
 31
0.0
  0
LINE
  5
6CE
  8
0
 10
77.253
 20
7.95172
 30
0.0
 11
76.9011
 21
7.59979
 31
0.0
  0
LINE
  5
6CF
  8
0
 10
76.9011
 20
7.59979
 30
0.0
 11
77.0996
 21
6.5013
 31
0.0
  0
LINE
  5
6D0
  8
0
 10
77.0996
 20
6.5013
 30
0.0
 11
77.3979
 21
5.68588
 31
0.0
  0
LINE
  5
6D1
  8
0
 10
77.3979
 20
5.68588
 30
0.0
 11
77.7069
 21
5.14821
 31
0.0
  0
LINE
  5
6D2
  8
0
 10
77.7069
 20
5.14821
 30
0.0
 11
77.944
 21
4.86137
 31
0.0
  0
LINE
  5
6D3
  8
0
 10
77.944
 20
4.86137
 30
0.0
 11
78.0367
 21
4.77893
 31
0.0
  0
LINE
  5
6D4
  8
0
 10
78.0367
 20
4.77893
 30
0.0
 11
78.6131
 21
4.37485
 31
0.0
  0
LINE
  5
6D5
  8
0
 10
78.6131
 20
4.37485
 30
0.0
 11
77.9442
 21
3.21635
 31
0.0
  0
LINE
  5
6D6
  8
0
 10
77.9442
 20
3.21635
 30
0.0
 11
77.3061
 21
3.51343
 31
0.0
  0
LINE
  5
6D7
  8
0
 10
77.3061
 20
3.51343
 30
0.0
 11
77.1883
 21
3.55254
 31
0.0
  0
LINE
  5
6D8
  8
0
 10
77.1883
 20
3.55254
 30
0.0
 11
76.8214
 21
3.6144
 31
0.0
  0
LINE
  5
6D9
  8
0
 10
76.8214
 20
3.6144
 30
0.0
 11
76.2012
 21
3.61324
 31
0.0
  0
LINE
  5
6DA
  8
0
 10
76.2012
 20
3.61324
 30
0.0
 11
75.3459
 21
3.46379
 31
0.0
  0
LINE
  5
6DB
  8
0
 10
75.3459
 20
3.46379
 30
0.0
 11
74.2953
 21
3.08649
 31
0.0
  0
LINE
  5
6DC
  8
0
 10
74.2953
 20
3.08649
 30
0.0
 11
74.1665
 21
2.60576
 31
0.0
  0
LINE
  5
6DD
  8
0
 10
74.1665
 20
2.60576
 30
0.0
 11
74.8877
 21
1.75371
 31
0.0
  0
LINE
  5
6DE
  8
0
 10
74.8877
 20
1.75371
 30
0.0
 11
75.5537
 21
1.19664
 31
0.0
  0
LINE
  5
6DF
  8
0
 10
75.5537
 20
1.19664
 30
0.0
 11
76.0902
 21
0.885544
 31
0.0
  0
LINE
  5
6E0
  8
0
 10
76.0902
 20
0.885544
 30
0.0
 11
76.4389
 21
0.755661
 31
0.0
  0
LINE
  5
6E1
  8
0
 10
76.4389
 20
0.755661
 30
0.0
 11
76.5604
 21
0.730637
 31
0.0
  0
LINE
  5
6E2
  8
0
 10
76.5604
 20
0.730637
 30
0.0
 11
77.2616
 21
0.668854
 31
0.0
  0
LINE
  5
6E3
  8
0
 10
77.2616
 20
0.668854
 30
0.0
 11
77.2616
 21
-0.668854
 31
0.0
  0
LINE
  5
6E4
  8
0
 10
77.2616
 20
-0.668854
 30
0.0
 11
76.5604
 21
-0.730637
 31
0.0
  0
LINE
  5
6E5
  8
0
 10
76.5604
 20
-0.730637
 30
0.0
 11
76.4389
 21
-0.755661
 31
0.0
  0
LINE
  5
6E6
  8
0
 10
76.4389
 20
-0.755661
 30
0.0
 11
76.0902
 21
-0.885544
 31
0.0
  0
LINE
  5
6E7
  8
0
 10
76.0902
 20
-0.885544
 30
0.0
 11
75.5537
 21
-1.19664
 31
0.0
  0
LINE
  5
6E8
  8
0
 10
75.5537
 20
-1.19664
 30
0.0
 11
74.8877
 21
-1.75369
 31
0.0
  0
LINE
  5
6E9
  8
0
 10
74.8877
 20
-1.75369
 30
0.0
 11
74.1665
 21
-2.60576
 31
0.0
  0
LINE
  5
6EA
  8
0
 10
74.1665
 20
-2.60576
 30
0.0
 11
74.2953
 21
-3.08649
 31
0.0
  0
LINE
  5
6EB
  8
0
 10
74.2953
 20
-3.08649
 30
0.0
 11
75.3459
 21
-3.46379
 31
0.0
  0
LINE
  5
6EC
  8
0
 10
75.3459
 20
-3.46379
 30
0.0
 11
76.2012
 21
-3.61322
 31
0.0
  0
LINE
  5
6ED
  8
0
 10
76.2012
 20
-3.61322
 30
0.0
 11
76.8214
 21
-3.61438
 31
0.0
  0
LINE
  5
6EE
  8
0
 10
76.8214
 20
-3.61438
 30
0.0
 11
77.1883
 21
-3.55252
 31
0.0
  0
LINE
  5
6EF
  8
0
 10
77.1883
 20
-3.55252
 30
0.0
 11
77.3061
 21
-3.51341
 31
0.0
  0
LINE
  5
6F0
  8
0
 10
77.3061
 20
-3.51341
 30
0.0
 11
77.9442
 21
-3.21634
 31
0.0
  0
LINE
  5
6F1
  8
0
 10
77.9442
 20
-3.21634
 30
0.0
 11
78.6131
 21
-4.37488
 31
0.0
  0
LINE
  5
6F2
  8
0
 10
78.6131
 20
-4.37488
 30
0.0
 11
78.0367
 21
-4.77893
 31
0.0
  0
LINE
  5
6F3
  8
0
 10
78.0367
 20
-4.77893
 30
0.0
 11
77.944
 21
-4.86136
 31
0.0
  0
LINE
  5
6F4
  8
0
 10
77.944
 20
-4.86136
 30
0.0
 11
77.707
 21
-5.14821
 31
0.0
  0
LINE
  5
6F5
  8
0
 10
77.707
 20
-5.14821
 30
0.0
 11
77.3979
 21
-5.68588
 31
0.0
  0
LINE
  5
6F6
  8
0
 10
77.3979
 20
-5.68588
 30
0.0
 11
77.0996
 21
-6.5013
 31
0.0
  0
LINE
  5
6F7
  8
0
 10
77.0996
 20
-6.5013
 30
0.0
 11
76.9011
 21
-7.59981
 31
0.0
  0
LINE
  5
6F8
  8
0
 10
76.9011
 20
-7.59981
 30
0.0
 11
77.253
 21
-7.95172
 31
0.0
  0
LINE
  5
6F9
  8
0
 10
77.253
 20
-7.95172
 30
0.0
 11
78.3515
 21
-7.75317
 31
0.0
  0
LINE
  5
6FA
  8
0
 10
78.3515
 20
-7.75317
 30
0.0
 11
79.1669
 21
-7.45494
 31
0.0
  0
LINE
  5
6FB
  8
0
 10
79.1669
 20
-7.45494
 30
0.0
 11
79.7046
 21
-7.14586
 31
0.0
  0
LINE
  5
6FC
  8
0
 10
79.7046
 20
-7.14586
 30
0.0
 11
79.9914
 21
-6.90881
 31
0.0
  0
LINE
  5
6FD
  8
0
 10
79.9914
 20
-6.90881
 30
0.0
 11
80.0739
 21
-6.81607
 31
0.0
  0
LINE
  5
6FE
  8
0
 10
80.0739
 20
-6.81607
 30
0.0
 11
80.478
 21
-6.23975
 31
0.0
  0
LINE
  5
6FF
  8
0
 10
80.478
 20
-6.23975
 30
0.0
 11
81.6364
 21
-6.90862
 31
0.0
  0
LINE
  5
700
  8
0
 10
81.6364
 20
-6.90862
 30
0.0
 11
81.3394
 21
-7.54672
 31
0.0
  0
LINE
  5
701
  8
0
 10
81.3394
 20
-7.54672
 30
0.0
 11
81.3003
 21
-7.66449
 31
0.0
  0
LINE
  5
702
  8
0
 10
81.3003
 20
-7.66449
 30
0.0
 11
81.2384
 21
-8.03142
 31
0.0
  0
LINE
  5
703
  8
0
 10
81.2384
 20
-8.03142
 30
0.0
 11
81.2396
 21
-8.65161
 31
0.0
  0
LINE
  5
704
  8
0
 10
81.2396
 20
-8.65161
 30
0.0
 11
81.389
 21
-9.50688
 31
0.0
  0
LINE
  5
705
  8
0
 10
81.389
 20
-9.50688
 30
0.0
 11
81.7663
 21
-10.5575
 31
0.0
  0
LINE
  5
706
  8
0
 10
81.7663
 20
-10.5575
 30
0.0
 11
82.247
 21
-10.6863
 31
0.0
  0
LINE
  5
707
  8
0
 10
82.247
 20
-10.6863
 30
0.0
 11
83.0991
 21
-9.9651
 31
0.0
  0
LINE
  5
708
  8
0
 10
83.1705
 20
-6.2785
 30
0.0
 11
81.9779
 21
-5.82967
 31
0.0
  0
LINE
  5
709
  8
0
 10
81.9779
 20
-5.82967
 30
0.0
 11
80.8959
 21
-5.15678
 31
0.0
  0
LINE
  5
70A
  8
0
 10
80.8959
 20
-5.15678
 30
0.0
 11
79.9659
 21
-4.28574
 31
0.0
  0
LINE
  5
70B
  8
0
 10
79.9659
 20
-4.28574
 30
0.0
 11
79.2236
 21
-3.24998
 31
0.0
  0
LINE
  5
70C
  8
0
 10
79.2236
 20
-3.24998
 30
0.0
 11
78.6978
 21
-2.08936
 31
0.0
  0
LINE
  5
70D
  8
0
 10
78.6978
 20
-2.08936
 30
0.0
 11
78.4084
 21
-0.848419
 31
0.0
  0
LINE
  5
70E
  8
0
 10
78.4084
 20
-0.848419
 30
0.0
 11
78.3667
 21
0.42511
 31
0.0
  0
LINE
  5
70F
  8
0
 10
78.3667
 20
0.42511
 30
0.0
 11
78.5743
 21
1.68231
 31
0.0
  0
LINE
  5
710
  8
0
 10
78.5743
 20
1.68231
 30
0.0
 11
79.0231
 21
2.87486
 31
0.0
  0
LINE
  5
711
  8
0
 10
79.0231
 20
2.87486
 30
0.0
 11
79.696
 21
3.95694
 31
0.0
  0
LINE
  5
712
  8
0
 10
79.696
 20
3.95694
 30
0.0
 11
80.5671
 21
4.88695
 31
0.0
  0
LINE
  5
713
  8
0
 10
80.5671
 20
4.88695
 30
0.0
 11
81.6028
 21
5.62915
 31
0.0
  0
LINE
  5
714
  8
0
 10
81.6028
 20
5.62915
 30
0.0
 11
82.7635
 21
6.15504
 31
0.0
  0
LINE
  5
715
  8
0
 10
82.7635
 20
6.15504
 30
0.0
 11
84.0044
 21
6.44438
 31
0.0
  0
LINE
  5
716
  8
0
 10
84.0044
 20
6.44438
 30
0.0
 11
85.2779
 21
6.48607
 31
0.0
  0
LINE
  5
717
  8
0
 10
85.2779
 20
6.48607
 30
0.0
 11
86.5351
 21
6.2785
 31
0.0
  0
LINE
  5
718
  8
0
 10
86.5351
 20
6.2785
 30
0.0
 11
87.7277
 21
5.82967
 31
0.0
  0
LINE
  5
719
  8
0
 10
87.7277
 20
5.82967
 30
0.0
 11
88.8098
 21
5.15678
 31
0.0
  0
LINE
  5
71A
  8
0
 10
88.8098
 20
5.15678
 30
0.0
 11
89.7398
 21
4.28574
 31
0.0
  0
LINE
  5
71B
  8
0
 10
89.7398
 20
4.28574
 30
0.0
 11
90.482
 21
3.24998
 31
0.0
  0
LINE
  5
71C
  8
0
 10
90.482
 20
3.24998
 30
0.0
 11
91.0079
 21
2.08936
 31
0.0
  0
LINE
  5
71D
  8
0
 10
91.0079
 20
2.08936
 30
0.0
 11
91.2972
 21
0.848419
 31
0.0
  0
LINE
  5
71E
  8
0
 10
91.2972
 20
0.848419
 30
0.0
 11
91.3389
 21
-0.42511
 31
0.0
  0
LINE
  5
71F
  8
0
 10
91.3389
 20
-0.42511
 30
0.0
 11
91.1313
 21
-1.68231
 31
0.0
  0
LINE
  5
720
  8
0
 10
91.1313
 20
-1.68231
 30
0.0
 11
90.6825
 21
-2.87486
 31
0.0
  0
LINE
  5
721
  8
0
 10
90.6825
 20
-2.87486
 30
0.0
 11
90.0096
 21
-3.95694
 31
0.0
  0
LINE
  5
722
  8
0
 10
90.0096
 20
-3.95694
 30
0.0
 11
89.1386
 21
-4.88695
 31
0.0
  0
LINE
  5
723
  8
0
 10
89.1386
 20
-4.88695
 30
0.0
 11
88.1028
 21
-5.62915
 31
0.0
  0
LINE
  5
724
  8
0
 10
88.1028
 20
-5.62915
 30
0.0
 11
86.9422
 21
-6.15504
 31
0.0
  0
LINE
  5
725
  8
0
 10
86.9422
 20
-6.15504
 30
0.0
 11
85.7012
 21
-6.44438
 31
0.0
  0
LINE
  5
726
  8
0
 10
85.7012
 20
-6.44438
 30
0.0
 11
84.4277
 21
-6.48607
 31
0.0
  0
LINE
  5
727
  8
0
 10
84.4277
 20
-6.48607
 30
0.0
 11
83.1705
 21
-6.2785
 31
0.0
  0
TEXT
  5
75D
  8
0
 62
5
 10
0.0
 20
0.0
 30
0.0
 40
3.0
  1
7
  7
OpenSans-Regular
  0
TEXT
  5
780
  8
0
 62
5
 10
0.0
 20
0.0
 30
0.0
 40
3.0
  1
minute_gears
  7
OpenSans-Regular
  0
ENDSEC
  0
EOF
