  0
SECTION
  2
HEADER
  9
$ACADVER
  1
AC1009
  9
$DWGCODEPAGE
  3
ANSI_1252
  9
$INSBASE
 10
0.0
 20
0.0
 30
0.0
  9
$EXTMIN
 10
1e+20
 20
1e+20
 30
1e+20
  9
$EXTMAX
 10
-1e+20
 20
-1e+20
 30
-1e+20
  9
$LIMMIN
 10
0.0
 20
0.0
  9
$LIMMAX
 10
420.0
 20
297.0
  9
$ORTHOMODE
 70
0
  9
$REGENMODE
 70
1
  9
$FILLMODE
 70
1
  9
$DRAGMODE
 70
2
  9
$QTEXTMODE
 70
0
  9
$MIRRTEXT
 70
1
  9
$OSMODE
 70
20583
  9
$LTSCALE
 40
1.0
  9
$ATTMODE
 70
1
  9
$TEXTSIZE
 40
2.5
  9
$TRACEWID
 40
1.0
  9
$TEXTSTYLE
  7
Standard
  9
$CLAYER
  8
0
  9
$CELTYPE
  6
ByLayer
  9
$CECOLOR
 62
256
  9
$DIMSCALE
 40
1.0
  9
$DIMASZ
 40
2.5
  9
$DIMEXO
 40
0.625
  9
$DIMDLI
 40
3.75
  9
$DIMRND
 40
0.0
  9
$DIMDLE
 40
0.0
  9
$DIMEXE
 40
1.25
  9
$DIMTP
 40
0.0
  9
$DIMTM
 40
0.0
  9
$DIMTXT
 40
2.5
  9
$DIMCEN
 40
2.5
  9
$DIMTSZ
 40
0.0
  9
$DIMTOL
 70
0
  9
$DIMLIM
 70
0
  9
$DIMTIH
 70
0
  9
$DIMTOH
 70
0
  9
$DIMSE1
 70
0
  9
$DIMSE2
 70
0
  9
$DIMTAD
 70
1
  9
$DIMZIN
 70
8
  9
$DIMBLK
  1

  9
$DIMASO
 70
1
  9
$DIMSHO
 70
1
  9
$DIMPOST
  1

  9
$DIMAPOST
  1

  9
$DIMALT
 70
0
  9
$DIMALTD
 70
3
  9
$DIMALTF
 40
0.03937007874
  9
$DIMLFAC
 40
1.0
  9
$DIMTOFL
 70
1
  9
$DIMTVP
 40
0.0
  9
$DIMTIX
 70
0
  9
$DIMSOXD
 70
0
  9
$DIMSAH
 70
0
  9
$DIMBLK1
  1

  9
$DIMBLK2
  1

  9
$DIMSTYLE
  2
ISO-25
  9
$DIMCLRD
 70
0
  9
$DIMCLRE
 70
0
  9
$DIMCLRT
 70
0
  9
$DIMTFAC
 40
1.0
  9
$DIMGAP
 40
0.625
  9
$COORDS
 70
1
  9
$ATTDIA
 70
0
  9
$ATTREQ
 70
1
  9
$HANDLING
 70
1
  9
$LUNITS
 70
2
  9
$LUPREC
 70
4
  9
$SKETCHINC
 40
1.0
  9
$FILLETRAD
 40
10.0
  9
$AUNITS
 70
0
  9
$AUPREC
 70
2
  9
$MENU
  1
.
  9
$ELEVATION
 40
0.0
  9
$PELEVATION
 40
0.0
  9
$THICKNESS
 40
0.0
  9
$LIMCHECK
 70
0
  9
$CHAMFERA
 40
0.0
  9
$CHAMFERB
 40
0.0
  9
$SKPOLY
 70
0
  9
$TDCREATE
 40
2459973.583587963
  9
$TDUPDATE
 40
2459973.583587963
  9
$TDINDWG
 40
0.0
  9
$TDUSRTIMER
 40
0.0
  9
$USRTIMER
 70
1
  9
$ANGBASE
 50
0.0
  9
$ANGDIR
 70
0
  9
$PDMODE
 70
0
  9
$PDSIZE
 40
0.0
  9
$PLINEWID
 40
0.0
  9
$SPLFRAME
 70
0
  9
$SPLINETYPE
 70
6
  9
$SPLINESEGS
 70
8
  9
$HANDSEED
  5
228
  9
$SURFTAB1
 70
6
  9
$SURFTAB2
 70
6
  9
$SURFTYPE
 70
6
  9
$SURFU
 70
6
  9
$SURFV
 70
6
  9
$UCSNAME
  2

  9
$UCSORG
 10
0.0
 20
0.0
 30
0.0
  9
$UCSXDIR
 10
1.0
 20
0.0
 30
0.0
  9
$UCSYDIR
 10
0.0
 20
1.0
 30
0.0
  9
$PUCSNAME
  2

  9
$PUCSORG
 10
0.0
 20
0.0
 30
0.0
  9
$PUCSXDIR
 10
1.0
 20
0.0
 30
0.0
  9
$PUCSYDIR
 10
0.0
 20
1.0
 30
0.0
  9
$USERI1
 70
0
  9
$USERI2
 70
0
  9
$USERI3
 70
0
  9
$USERI4
 70
0
  9
$USERI5
 70
0
  9
$USERR1
 40
0.0
  9
$USERR2
 40
0.0
  9
$USERR3
 40
0.0
  9
$USERR4
 40
0.0
  9
$USERR5
 40
0.0
  9
$WORLDVIEW
 70
1
  9
$SHADEDGE
 70
3
  9
$SHADEDIF
 70
70
  9
$TILEMODE
 70
1
  9
$MAXACTVP
 70
64
  9
$PLIMCHECK
 70
0
  9
$PEXTMIN
 10
1e+20
 20
1e+20
 30
1e+20
  9
$PEXTMAX
 10
-1e+20
 20
-1e+20
 30
-1e+20
  9
$PLIMMIN
 10
0.0
 20
0.0
  9
$PLIMMAX
 10
420.0
 20
297.0
  9
$UNITMODE
 70
0
  9
$VISRETAIN
 70
1
  9
$PLINEGEN
 70
0
  9
$PSLTSCALE
 70
1
  0
ENDSEC
  0
SECTION
  2
TABLES
  0
TABLE
  2
VPORT
 70
1
  0
VPORT
  5
21B
  2
*Active
 70
0
 10
0.0
 20
0.0
 11
1.0
 21
1.0
 12
0.0
 22
0.0
 13
0.0
 23
0.0
 14
0.5
 24
0.5
 15
0.5
 25
0.5
 16
0.0
 26
0.0
 36
1.0
 17
0.0
 27
0.0
 37
0.0
 40
1000.0
 41
1.34
 42
50.0
 43
0.0
 44
0.0
 50
0.0
 51
0.0
 71
0
 72
1000
 73
1
 74
3
 75
0
 76
0
 77
0
 78
0
  0
ENDTAB
  0
TABLE
  2
LTYPE
 70
3
  0
LTYPE
  5
21C
  2
ByBlock
 70
0
  3

 72
65
 73
0
 40
0.0
  0
LTYPE
  5
21D
  2
ByLayer
 70
0
  3

 72
65
 73
0
 40
0.0
  0
LTYPE
  5
21E
  2
Continuous
 70
0
  3

 72
65
 73
0
 40
0.0
  0
ENDTAB
  0
TABLE
  2
LAYER
 70
2
  0
LAYER
  5
21F
  2
0
 70
0
 62
7
  6
Continuous
  0
LAYER
  5
220
  2
Defpoints
 70
0
 62
7
  6
Continuous
  0
ENDTAB
  0
TABLE
  2
STYLE
 70
1
  0
STYLE
  5
221
  2
Standard
 70
0
 40
0.0
 41
1.0
 50
0.0
 71
0
 42
2.5
  3
txt
  4

  0
ENDTAB
  0
TABLE
  2
VIEW
 70
0
  0
ENDTAB
  0
TABLE
  2
UCS
 70
0
  0
ENDTAB
  0
TABLE
  2
APPID
 70
3
  0
APPID
  5
222
  2
ACAD
 70
0
  0
APPID
  5
226
  2
HATCHBACKGROUNDCOLOR
 70
0
  0
APPID
  5
227
  2
EZDXF
 70
0
  0
ENDTAB
  0
TABLE
  2
DIMSTYLE
 70
1
  0
DIMSTYLE
105
223
  2
Standard
 70
0
  3

  4

  5

  6

  7

 40
1.0
 41
2.5
 42
0.625
 43
3.75
 44
1.25
 45
0.0
 46
0.0
 47
0.0
 48
0.0
140
2.5
141
2.5
142
0.0
143
0.03937007874
144
1.0
145
0.0
146
1.0
147
0.625
 71
0
 72
0
 73
0
 74
0
 75
0
 76
0
 77
1
 78
8
170
0
171
3
172
1
173
0
174
0
175
0
176
0
177
0
178
0
  0
ENDTAB
  0
ENDSEC
  0
SECTION
  2
BLOCKS
  0
BLOCK
  5
1FC
  8
0
  2
$Model_Space
 70
0
 10
0.0
 20
0.0
 30
0.0
  3
$Model_Space
  1

1001
EZDXF
1000
WRITTEN_BY_EZDXF
1000
1.0.1 @ 2023-01-28T04:00:22.778758+00:00
  0
ENDBLK
  5
1FD
  8
0
  0
BLOCK
  5
1FE
  8
0
  2
$Paper_Space
 70
0
 10
0.0
 20
0.0
 30
0.0
  3
$Paper_Space
  1

  0
ENDBLK
  5
1FF
  8
0
  0
ENDSEC
  0
SECTION
  2
ENTITIES
  0
LINE
  5
100
  8
0
 10
14.1238
 20
8.87859
 30
0.0
 11
16.3408
 21
9.5511
 31
0.0
  0
LINE
  5
101
  8
0
 10
16.3408
 20
9.5511
 30
0.0
 11
18.384
 21
10.6432
 31
0.0
  0
LINE
  5
102
  8
0
 10
18.384
 20
10.6432
 30
0.0
 11
20.1749
 21
12.113
 31
0.0
  0
LINE
  5
103
  8
0
 10
20.1749
 20
12.113
 30
0.0
 11
21.6446
 21
13.9039
 31
0.0
  0
LINE
  5
104
  8
0
 10
21.6446
 20
13.9039
 30
0.0
 11
22.7368
 21
15.9471
 31
0.0
  0
LINE
  5
105
  8
0
 10
22.7368
 20
15.9471
 30
0.0
 11
23.4093
 21
18.1641
 31
0.0
  0
LINE
  5
106
  8
0
 10
23.4093
 20
18.1641
 30
0.0
 11
23.6364
 21
20.4697
 31
0.0
  0
LINE
  5
107
  8
0
 10
23.6364
 20
20.4697
 30
0.0
 11
23.4093
 21
22.7753
 31
0.0
  0
LINE
  5
108
  8
0
 10
23.4093
 20
22.7753
 30
0.0
 11
22.7368
 21
24.9923
 31
0.0
  0
LINE
  5
109
  8
0
 10
22.7368
 20
24.9923
 30
0.0
 11
21.6446
 21
27.0355
 31
0.0
  0
LINE
  5
10A
  8
0
 10
21.6446
 20
27.0355
 30
0.0
 11
20.1749
 21
28.8264
 31
0.0
  0
LINE
  5
10B
  8
0
 10
20.1749
 20
28.8264
 30
0.0
 11
18.384
 21
30.2961
 31
0.0
  0
LINE
  5
10C
  8
0
 10
18.384
 20
30.2961
 30
0.0
 11
16.3408
 21
31.3883
 31
0.0
  0
LINE
  5
10D
  8
0
 10
16.3408
 20
31.3883
 30
0.0
 11
14.1238
 21
32.0608
 31
0.0
  0
LINE
  5
10E
  8
0
 10
14.1238
 20
32.0608
 30
0.0
 11
11.8182
 21
32.2879
 31
0.0
  0
LINE
  5
10F
  8
0
 10
11.8182
 20
32.2879
 30
0.0
 11
9.51256
 21
32.0608
 31
0.0
  0
LINE
  5
110
  8
0
 10
9.51256
 20
32.0608
 30
0.0
 11
8.54262
 21
31.7666
 31
0.0
  0
LINE
  5
111
  8
0
 10
8.54262
 20
31.7666
 30
0.0
 11
8.3567
 21
31.9931
 31
0.0
  0
LINE
  5
112
  8
0
 10
8.3567
 20
31.9931
 30
0.0
 11
6.56583
 21
33.4628
 31
0.0
  0
LINE
  5
113
  8
0
 10
6.56583
 20
33.4628
 30
0.0
 11
4.52261
 21
34.5549
 31
0.0
  0
LINE
  5
114
  8
0
 10
4.52261
 20
34.5549
 30
0.0
 11
2.3056
 21
35.2275
 31
0.0
  0
LINE
  5
115
  8
0
 10
2.3056
 20
35.2275
 30
0.0
 11
0.0
 21
35.4545
 31
0.0
  0
LINE
  5
116
  8
0
 10
0.0
 20
35.4545
 30
0.0
 11
-2.3056
 21
35.2275
 31
0.0
  0
LINE
  5
117
  8
0
 10
-2.3056
 20
35.2275
 30
0.0
 11
-4.52261
 21
34.5549
 31
0.0
  0
LINE
  5
118
  8
0
 10
-4.52261
 20
34.5549
 30
0.0
 11
-6.56583
 21
33.4628
 31
0.0
  0
LINE
  5
119
  8
0
 10
-6.56583
 20
33.4628
 30
0.0
 11
-8.3567
 21
31.9931
 31
0.0
  0
LINE
  5
11A
  8
0
 10
-8.3567
 20
31.9931
 30
0.0
 11
-9.82645
 21
30.2022
 31
0.0
  0
LINE
  5
11B
  8
0
 10
-9.82645
 20
30.2022
 30
0.0
 11
-10.9186
 21
28.159
 31
0.0
  0
LINE
  5
11C
  8
0
 10
-10.9186
 20
28.159
 30
0.0
 11
-11.5911
 21
25.942
 31
0.0
  0
LINE
  5
11D
  8
0
 10
-11.5911
 20
25.942
 30
0.0
 11
-11.8182
 21
23.6364
 31
0.0
  0
LINE
  5
11E
  8
0
 10
-11.8182
 20
23.6364
 30
0.0
 11
-11.5911
 21
21.3307
 31
0.0
  0
LINE
  5
11F
  8
0
 10
-11.5911
 20
21.3307
 30
0.0
 11
-10.9186
 21
19.1137
 31
0.0
  0
LINE
  5
120
  8
0
 10
-10.9186
 20
19.1137
 30
0.0
 11
-9.82645
 21
17.0705
 31
0.0
  0
LINE
  5
121
  8
0
 10
-9.82645
 20
17.0705
 30
0.0
 11
-8.3567
 21
15.2796
 31
0.0
  0
LINE
  5
122
  8
0
 10
-8.3567
 20
15.2796
 30
0.0
 11
-6.56583
 21
13.8099
 31
0.0
  0
LINE
  5
123
  8
0
 10
-6.56583
 20
13.8099
 30
0.0
 11
-4.52261
 21
12.7178
 31
0.0
  0
LINE
  5
124
  8
0
 10
-4.52261
 20
12.7178
 30
0.0
 11
-2.3056
 21
12.0453
 31
0.0
  0
LINE
  5
125
  8
0
 10
-2.3056
 20
12.0453
 30
0.0
 11
0.0
 21
11.8182
 31
0.0
  0
LINE
  5
126
  8
0
 10
0.0
 20
11.8182
 30
0.0
 11
2.3056
 21
12.0453
 31
0.0
  0
LINE
  5
127
  8
0
 10
2.3056
 20
12.0453
 30
0.0
 11
3.27556
 21
12.3395
 31
0.0
  0
LINE
  5
128
  8
0
 10
3.27556
 20
12.3395
 30
0.0
 11
3.46146
 21
12.113
 31
0.0
  0
LINE
  5
129
  8
0
 10
3.46146
 20
12.113
 30
0.0
 11
5.25235
 21
10.6432
 31
0.0
  0
LINE
  5
12A
  8
0
 10
5.25235
 20
10.6432
 30
0.0
 11
7.29555
 21
9.5511
 31
0.0
  0
LINE
  5
12B
  8
0
 10
7.29555
 20
9.5511
 30
0.0
 11
9.51256
 21
8.87859
 31
0.0
  0
LINE
  5
12C
  8
0
 10
9.51256
 20
8.87859
 30
0.0
 11
11.8182
 21
8.6515
 31
0.0
  0
LINE
  5
12D
  8
0
 10
11.8182
 20
8.6515
 30
0.0
 11
14.1238
 21
8.87859
 31
0.0
  0
LINE
  5
12E
  8
0
 10
5.81296
 20
22.9571
 30
0.0
 11
6.41362
 21
24.0809
 31
0.0
  0
LINE
  5
12F
  8
0
 10
6.41362
 20
24.0809
 30
0.0
 11
6.45164
 21
24.1272
 31
0.0
  0
LINE
  5
130
  8
0
 10
6.45164
 20
24.1272
 30
0.0
 11
6.5
 21
23.6364
 31
0.0
  0
LINE
  5
131
  8
0
 10
6.5
 20
23.6364
 30
0.0
 11
6.37509
 21
22.3683
 31
0.0
  0
LINE
  5
132
  8
0
 10
6.37509
 20
22.3683
 30
0.0
 11
6.0052
 21
21.1489
 31
0.0
  0
LINE
  5
133
  8
0
 10
6.0052
 20
21.1489
 30
0.0
 11
5.40454
 21
20.0251
 31
0.0
  0
LINE
  5
134
  8
0
 10
5.40454
 20
20.0251
 30
0.0
 11
5.36652
 21
19.9788
 31
0.0
  0
LINE
  5
135
  8
0
 10
5.36652
 20
19.9788
 30
0.0
 11
5.31818
 21
20.4697
 31
0.0
  0
LINE
  5
136
  8
0
 10
5.31818
 20
20.4697
 30
0.0
 11
5.44307
 21
21.7378
 31
0.0
  0
LINE
  5
137
  8
0
 10
5.44307
 20
21.7378
 30
0.0
 11
5.81296
 21
22.9571
 31
0.0
  0
LINE
  5
138
  8
0
 10
10.5501
 20
14.0946
 30
0.0
 11
9.33073
 21
14.4645
 31
0.0
  0
LINE
  5
139
  8
0
 10
9.33073
 20
14.4645
 30
0.0
 11
8.20697
 21
15.0651
 31
0.0
  0
LINE
  5
13A
  8
0
 10
8.20697
 20
15.0651
 30
0.0
 11
8.15115
 21
15.1109
 31
0.0
  0
LINE
  5
13B
  8
0
 10
8.15115
 20
15.1109
 30
0.0
 11
8.3567
 21
15.2796
 31
0.0
  0
LINE
  5
13C
  8
0
 10
8.3567
 20
15.2796
 30
0.0
 11
9.82645
 21
17.0705
 31
0.0
  0
LINE
  5
13D
  8
0
 10
9.82645
 20
17.0705
 30
0.0
 11
10.9186
 21
19.1137
 31
0.0
  0
LINE
  5
13E
  8
0
 10
10.9186
 20
19.1137
 30
0.0
 11
11.5911
 21
21.3307
 31
0.0
  0
LINE
  5
13F
  8
0
 10
11.5911
 20
21.3307
 30
0.0
 11
11.8182
 21
23.6364
 31
0.0
  0
LINE
  5
140
  8
0
 10
11.8182
 20
23.6364
 30
0.0
 11
11.5911
 21
25.942
 31
0.0
  0
LINE
  5
141
  8
0
 10
11.5911
 20
25.942
 30
0.0
 11
11.295
 21
26.9182
 31
0.0
  0
LINE
  5
142
  8
0
 10
11.295
 20
26.9182
 30
0.0
 11
11.8182
 21
26.9697
 31
0.0
  0
LINE
  5
143
  8
0
 10
11.8182
 20
26.9697
 30
0.0
 11
13.0863
 21
26.8448
 31
0.0
  0
LINE
  5
144
  8
0
 10
13.0863
 20
26.8448
 30
0.0
 11
14.3056
 21
26.4749
 31
0.0
  0
LINE
  5
145
  8
0
 10
14.3056
 20
26.4749
 30
0.0
 11
15.4294
 21
25.8742
 31
0.0
  0
LINE
  5
146
  8
0
 10
15.4294
 20
25.8742
 30
0.0
 11
16.4144
 21
25.0659
 31
0.0
  0
LINE
  5
147
  8
0
 10
16.4144
 20
25.0659
 30
0.0
 11
17.2227
 21
24.0809
 31
0.0
  0
LINE
  5
148
  8
0
 10
17.2227
 20
24.0809
 30
0.0
 11
17.8234
 21
22.9571
 31
0.0
  0
LINE
  5
149
  8
0
 10
17.8234
 20
22.9571
 30
0.0
 11
18.1933
 21
21.7378
 31
0.0
  0
LINE
  5
14A
  8
0
 10
18.1933
 20
21.7378
 30
0.0
 11
18.3182
 21
20.4697
 31
0.0
  0
LINE
  5
14B
  8
0
 10
18.3182
 20
20.4697
 30
0.0
 11
18.1933
 21
19.2016
 31
0.0
  0
LINE
  5
14C
  8
0
 10
18.1933
 20
19.2016
 30
0.0
 11
17.8234
 21
17.9822
 31
0.0
  0
LINE
  5
14D
  8
0
 10
17.8234
 20
17.9822
 30
0.0
 11
17.2227
 21
16.8585
 31
0.0
  0
LINE
  5
14E
  8
0
 10
17.2227
 20
16.8585
 30
0.0
 11
16.4144
 21
15.8735
 31
0.0
  0
LINE
  5
14F
  8
0
 10
16.4144
 20
15.8735
 30
0.0
 11
15.4294
 21
15.0651
 31
0.0
  0
LINE
  5
150
  8
0
 10
15.4294
 20
15.0651
 30
0.0
 11
14.3056
 21
14.4645
 31
0.0
  0
LINE
  5
151
  8
0
 10
14.3056
 20
14.4645
 30
0.0
 11
13.0863
 21
14.0946
 31
0.0
  0
LINE
  5
152
  8
0
 10
13.0863
 20
14.0946
 30
0.0
 11
11.8182
 21
13.9697
 31
0.0
  0
LINE
  5
153
  8
0
 10
11.8182
 20
13.9697
 30
0.0
 11
10.5501
 21
14.0946
 31
0.0
  0
LINE
  5
154
  8
0
 10
0.523193
 20
17.1879
 30
0.0
 11
0.0
 21
17.1364
 31
0.0
  0
LINE
  5
155
  8
0
 10
0.0
 20
17.1364
 30
0.0
 11
-1.26808
 21
17.2612
 31
0.0
  0
LINE
  5
156
  8
0
 10
-1.26808
 20
17.2612
 30
0.0
 11
-2.48744
 21
17.6311
 31
0.0
  0
LINE
  5
157
  8
0
 10
-2.48744
 20
17.6311
 30
0.0
 11
-3.61121
 21
18.2318
 31
0.0
  0
LINE
  5
158
  8
0
 10
-3.61121
 20
18.2318
 30
0.0
 11
-4.59619
 21
19.0402
 31
0.0
  0
LINE
  5
159
  8
0
 10
-4.59619
 20
19.0402
 30
0.0
 11
-5.40454
 21
20.0251
 31
0.0
  0
LINE
  5
15A
  8
0
 10
-5.40454
 20
20.0251
 30
0.0
 11
-6.0052
 21
21.1489
 31
0.0
  0
LINE
  5
15B
  8
0
 10
-6.0052
 20
21.1489
 30
0.0
 11
-6.37509
 21
22.3683
 31
0.0
  0
LINE
  5
15C
  8
0
 10
-6.37509
 20
22.3683
 30
0.0
 11
-6.5
 21
23.6364
 31
0.0
  0
LINE
  5
15D
  8
0
 10
-6.5
 20
23.6364
 30
0.0
 11
-6.37509
 21
24.9044
 31
0.0
  0
LINE
  5
15E
  8
0
 10
-6.37509
 20
24.9044
 30
0.0
 11
-6.0052
 21
26.1238
 31
0.0
  0
LINE
  5
15F
  8
0
 10
-6.0052
 20
26.1238
 30
0.0
 11
-5.40454
 21
27.2476
 31
0.0
  0
LINE
  5
160
  8
0
 10
-5.40454
 20
27.2476
 30
0.0
 11
-4.59619
 21
28.2325
 31
0.0
  0
LINE
  5
161
  8
0
 10
-4.59619
 20
28.2325
 30
0.0
 11
-3.61121
 21
29.0409
 31
0.0
  0
LINE
  5
162
  8
0
 10
-3.61121
 20
29.0409
 30
0.0
 11
-2.48744
 21
29.6416
 31
0.0
  0
LINE
  5
163
  8
0
 10
-2.48744
 20
29.6416
 30
0.0
 11
-1.26808
 21
30.0115
 31
0.0
  0
LINE
  5
164
  8
0
 10
-1.26808
 20
30.0115
 30
0.0
 11
0.0
 21
30.1364
 31
0.0
  0
LINE
  5
165
  8
0
 10
0.0
 20
30.1364
 30
0.0
 11
1.26808
 21
30.0115
 31
0.0
  0
LINE
  5
166
  8
0
 10
1.26808
 20
30.0115
 30
0.0
 11
2.48744
 21
29.6416
 31
0.0
  0
LINE
  5
167
  8
0
 10
2.48744
 20
29.6416
 30
0.0
 11
3.61121
 21
29.0409
 31
0.0
  0
LINE
  5
168
  8
0
 10
3.61121
 20
29.0409
 30
0.0
 11
3.66702
 21
28.9951
 31
0.0
  0
LINE
  5
169
  8
0
 10
3.66702
 20
28.9951
 30
0.0
 11
3.46146
 21
28.8264
 31
0.0
  0
LINE
  5
16A
  8
0
 10
3.46146
 20
28.8264
 30
0.0
 11
1.99171
 21
27.0355
 31
0.0
  0
LINE
  5
16B
  8
0
 10
1.99171
 20
27.0355
 30
0.0
 11
0.899597
 21
24.9923
 31
0.0
  0
LINE
  5
16C
  8
0
 10
0.899597
 20
24.9923
 30
0.0
 11
0.227081
 21
22.7753
 31
0.0
  0
LINE
  5
16D
  8
0
 10
0.227081
 20
22.7753
 30
0.0
 11
0.0
 21
20.4697
 31
0.0
  0
LINE
  5
16E
  8
0
 10
0.0
 20
20.4697
 30
0.0
 11
0.227081
 21
18.1641
 31
0.0
  0
LINE
  5
16F
  8
0
 10
0.227081
 20
18.1641
 30
0.0
 11
0.523193
 21
17.1879
 31
0.0
  0
LINE
  5
170
  8
0
 10
25.942
 20
-11.5911
 30
0.0
 11
28.159
 21
-10.9186
 31
0.0
  0
LINE
  5
171
  8
0
 10
28.159
 20
-10.9186
 30
0.0
 11
30.2022
 21
-9.82645
 31
0.0
  0
LINE
  5
172
  8
0
 10
30.2022
 20
-9.82645
 30
0.0
 11
31.9931
 21
-8.3567
 31
0.0
  0
LINE
  5
173
  8
0
 10
31.9931
 20
-8.3567
 30
0.0
 11
33.4628
 21
-6.56583
 31
0.0
  0
LINE
  5
174
  8
0
 10
33.4628
 20
-6.56583
 30
0.0
 11
34.5549
 21
-4.52261
 31
0.0
  0
LINE
  5
175
  8
0
 10
34.5549
 20
-4.52261
 30
0.0
 11
35.2275
 21
-2.3056
 31
0.0
  0
LINE
  5
176
  8
0
 10
35.2275
 20
-2.3056
 30
0.0
 11
35.4545
 21
0.0
 31
0.0
  0
LINE
  5
177
  8
0
 10
35.4545
 20
0.0
 30
0.0
 11
35.2275
 21
2.3056
 31
0.0
  0
LINE
  5
178
  8
0
 10
35.2275
 20
2.3056
 30
0.0
 11
34.5549
 21
4.52261
 31
0.0
  0
LINE
  5
179
  8
0
 10
34.5549
 20
4.52261
 30
0.0
 11
33.4628
 21
6.56583
 31
0.0
  0
LINE
  5
17A
  8
0
 10
33.4628
 20
6.56583
 30
0.0
 11
31.9931
 21
8.3567
 31
0.0
  0
LINE
  5
17B
  8
0
 10
31.9931
 20
8.3567
 30
0.0
 11
30.2022
 21
9.82645
 31
0.0
  0
LINE
  5
17C
  8
0
 10
30.2022
 20
9.82645
 30
0.0
 11
28.159
 21
10.9186
 31
0.0
  0
LINE
  5
17D
  8
0
 10
28.159
 20
10.9186
 30
0.0
 11
25.942
 21
11.5911
 31
0.0
  0
LINE
  5
17E
  8
0
 10
25.942
 20
11.5911
 30
0.0
 11
23.6364
 21
11.8182
 31
0.0
  0
LINE
  5
17F
  8
0
 10
23.6364
 20
11.8182
 30
0.0
 11
21.3307
 21
11.5911
 31
0.0
  0
LINE
  5
180
  8
0
 10
21.3307
 20
11.5911
 30
0.0
 11
19.1137
 21
10.9186
 31
0.0
  0
LINE
  5
181
  8
0
 10
19.1137
 20
10.9186
 30
0.0
 11
17.0705
 21
9.82645
 31
0.0
  0
LINE
  5
182
  8
0
 10
17.0705
 20
9.82645
 30
0.0
 11
15.2796
 21
8.3567
 31
0.0
  0
LINE
  5
183
  8
0
 10
15.2796
 20
8.3567
 30
0.0
 11
13.8099
 21
6.56583
 31
0.0
  0
LINE
  5
184
  8
0
 10
13.8099
 20
6.56583
 30
0.0
 11
12.7178
 21
4.52261
 31
0.0
  0
LINE
  5
185
  8
0
 10
12.7178
 20
4.52261
 30
0.0
 11
12.0453
 21
2.3056
 31
0.0
  0
LINE
  5
186
  8
0
 10
12.0453
 20
2.3056
 30
0.0
 11
11.8182
 21
0.0
 31
0.0
  0
LINE
  5
187
  8
0
 10
11.8182
 20
0.0
 30
0.0
 11
12.0453
 21
-2.3056
 31
0.0
  0
LINE
  5
188
  8
0
 10
12.0453
 20
-2.3056
 30
0.0
 11
12.7178
 21
-4.52261
 31
0.0
  0
LINE
  5
189
  8
0
 10
12.7178
 20
-4.52261
 30
0.0
 11
13.8099
 21
-6.56583
 31
0.0
  0
LINE
  5
18A
  8
0
 10
13.8099
 20
-6.56583
 30
0.0
 11
15.2796
 21
-8.3567
 31
0.0
  0
LINE
  5
18B
  8
0
 10
15.2796
 20
-8.3567
 30
0.0
 11
17.0705
 21
-9.82645
 31
0.0
  0
LINE
  5
18C
  8
0
 10
17.0705
 20
-9.82645
 30
0.0
 11
19.1137
 21
-10.9186
 31
0.0
  0
LINE
  5
18D
  8
0
 10
19.1137
 20
-10.9186
 30
0.0
 11
21.3307
 21
-11.5911
 31
0.0
  0
LINE
  5
18E
  8
0
 10
21.3307
 20
-11.5911
 30
0.0
 11
23.6364
 21
-11.8182
 31
0.0
  0
LINE
  5
18F
  8
0
 10
23.6364
 20
-11.8182
 30
0.0
 11
25.942
 21
-11.5911
 31
0.0
  0
LINE
  5
190
  8
0
 10
22.3683
 20
-6.37509
 30
0.0
 11
21.1489
 21
-6.0052
 31
0.0
  0
LINE
  5
191
  8
0
 10
21.1489
 20
-6.0052
 30
0.0
 11
20.0251
 21
-5.40454
 31
0.0
  0
LINE
  5
192
  8
0
 10
20.0251
 20
-5.40454
 30
0.0
 11
19.0402
 21
-4.59619
 31
0.0
  0
LINE
  5
193
  8
0
 10
19.0402
 20
-4.59619
 30
0.0
 11
18.2318
 21
-3.61121
 31
0.0
  0
LINE
  5
194
  8
0
 10
18.2318
 20
-3.61121
 30
0.0
 11
17.6311
 21
-2.48744
 31
0.0
  0
LINE
  5
195
  8
0
 10
17.6311
 20
-2.48744
 30
0.0
 11
17.2612
 21
-1.26808
 31
0.0
  0
LINE
  5
196
  8
0
 10
17.2612
 20
-1.26808
 30
0.0
 11
17.1364
 21
0.0
 31
0.0
  0
LINE
  5
197
  8
0
 10
17.1364
 20
0.0
 30
0.0
 11
17.2612
 21
1.26808
 31
0.0
  0
LINE
  5
198
  8
0
 10
17.2612
 20
1.26808
 30
0.0
 11
17.6311
 21
2.48744
 31
0.0
  0
LINE
  5
199
  8
0
 10
17.6311
 20
2.48744
 30
0.0
 11
18.2318
 21
3.61121
 31
0.0
  0
LINE
  5
19A
  8
0
 10
18.2318
 20
3.61121
 30
0.0
 11
19.0402
 21
4.59619
 31
0.0
  0
LINE
  5
19B
  8
0
 10
19.0402
 20
4.59619
 30
0.0
 11
20.0251
 21
5.40454
 31
0.0
  0
LINE
  5
19C
  8
0
 10
20.0251
 20
5.40454
 30
0.0
 11
21.1489
 21
6.0052
 31
0.0
  0
LINE
  5
19D
  8
0
 10
21.1489
 20
6.0052
 30
0.0
 11
22.3683
 21
6.37509
 31
0.0
  0
LINE
  5
19E
  8
0
 10
22.3683
 20
6.37509
 30
0.0
 11
23.6364
 21
6.5
 31
0.0
  0
LINE
  5
19F
  8
0
 10
23.6364
 20
6.5
 30
0.0
 11
24.9044
 21
6.37509
 31
0.0
  0
LINE
  5
1A0
  8
0
 10
24.9044
 20
6.37509
 30
0.0
 11
26.1238
 21
6.0052
 31
0.0
  0
LINE
  5
1A1
  8
0
 10
26.1238
 20
6.0052
 30
0.0
 11
27.2476
 21
5.40454
 31
0.0
  0
LINE
  5
1A2
  8
0
 10
27.2476
 20
5.40454
 30
0.0
 11
28.2325
 21
4.59619
 31
0.0
  0
LINE
  5
1A3
  8
0
 10
28.2325
 20
4.59619
 30
0.0
 11
29.0409
 21
3.61121
 31
0.0
  0
LINE
  5
1A4
  8
0
 10
29.0409
 20
3.61121
 30
0.0
 11
29.6416
 21
2.48744
 31
0.0
  0
LINE
  5
1A5
  8
0
 10
29.6416
 20
2.48744
 30
0.0
 11
30.0115
 21
1.26808
 31
0.0
  0
LINE
  5
1A6
  8
0
 10
30.0115
 20
1.26808
 30
0.0
 11
30.1364
 21
0.0
 31
0.0
  0
LINE
  5
1A7
  8
0
 10
30.1364
 20
0.0
 30
0.0
 11
30.0115
 21
-1.26808
 31
0.0
  0
LINE
  5
1A8
  8
0
 10
30.0115
 20
-1.26808
 30
0.0
 11
29.6416
 21
-2.48744
 31
0.0
  0
LINE
  5
1A9
  8
0
 10
29.6416
 20
-2.48744
 30
0.0
 11
29.0409
 21
-3.61121
 31
0.0
  0
LINE
  5
1AA
  8
0
 10
29.0409
 20
-3.61121
 30
0.0
 11
28.2325
 21
-4.59619
 31
0.0
  0
LINE
  5
1AB
  8
0
 10
28.2325
 20
-4.59619
 30
0.0
 11
27.2476
 21
-5.40454
 31
0.0
  0
LINE
  5
1AC
  8
0
 10
27.2476
 20
-5.40454
 30
0.0
 11
26.1238
 21
-6.0052
 31
0.0
  0
LINE
  5
1AD
  8
0
 10
26.1238
 20
-6.0052
 30
0.0
 11
24.9044
 21
-6.37509
 31
0.0
  0
LINE
  5
1AE
  8
0
 10
24.9044
 20
-6.37509
 30
0.0
 11
23.6364
 21
-6.5
 31
0.0
  0
LINE
  5
1AF
  8
0
 10
23.6364
 20
-6.5
 30
0.0
 11
22.3683
 21
-6.37509
 31
0.0
  0
LINE
  5
1B0
  8
0
 10
2.3056
 20
-11.5911
 30
0.0
 11
4.52261
 21
-10.9186
 31
0.0
  0
LINE
  5
1B1
  8
0
 10
4.52261
 20
-10.9186
 30
0.0
 11
6.56583
 21
-9.82645
 31
0.0
  0
LINE
  5
1B2
  8
0
 10
6.56583
 20
-9.82645
 30
0.0
 11
8.3567
 21
-8.3567
 31
0.0
  0
LINE
  5
1B3
  8
0
 10
8.3567
 20
-8.3567
 30
0.0
 11
9.82645
 21
-6.56583
 31
0.0
  0
LINE
  5
1B4
  8
0
 10
9.82645
 20
-6.56583
 30
0.0
 11
10.9186
 21
-4.52261
 31
0.0
  0
LINE
  5
1B5
  8
0
 10
10.9186
 20
-4.52261
 30
0.0
 11
11.5911
 21
-2.3056
 31
0.0
  0
LINE
  5
1B6
  8
0
 10
11.5911
 20
-2.3056
 30
0.0
 11
11.8182
 21
0.0
 31
0.0
  0
LINE
  5
1B7
  8
0
 10
11.8182
 20
0.0
 30
0.0
 11
11.5911
 21
2.3056
 31
0.0
  0
LINE
  5
1B8
  8
0
 10
11.5911
 20
2.3056
 30
0.0
 11
10.9186
 21
4.52261
 31
0.0
  0
LINE
  5
1B9
  8
0
 10
10.9186
 20
4.52261
 30
0.0
 11
9.82645
 21
6.56583
 31
0.0
  0
LINE
  5
1BA
  8
0
 10
9.82645
 20
6.56583
 30
0.0
 11
8.3567
 21
8.3567
 31
0.0
  0
LINE
  5
1BB
  8
0
 10
8.3567
 20
8.3567
 30
0.0
 11
6.56583
 21
9.82645
 31
0.0
  0
LINE
  5
1BC
  8
0
 10
6.56583
 20
9.82645
 30
0.0
 11
4.52261
 21
10.9186
 31
0.0
  0
LINE
  5
1BD
  8
0
 10
4.52261
 20
10.9186
 30
0.0
 11
2.3056
 21
11.5911
 31
0.0
  0
LINE
  5
1BE
  8
0
 10
2.3056
 20
11.5911
 30
0.0
 11
0.0
 21
11.8182
 31
0.0
  0
LINE
  5
1BF
  8
0
 10
0.0
 20
11.8182
 30
0.0
 11
-2.3056
 21
11.5911
 31
0.0
  0
LINE
  5
1C0
  8
0
 10
-2.3056
 20
11.5911
 30
0.0
 11
-4.52261
 21
10.9186
 31
0.0
  0
LINE
  5
1C1
  8
0
 10
-4.52261
 20
10.9186
 30
0.0
 11
-6.56583
 21
9.82645
 31
0.0
  0
LINE
  5
1C2
  8
0
 10
-6.56583
 20
9.82645
 30
0.0
 11
-8.3567
 21
8.3567
 31
0.0
  0
LINE
  5
1C3
  8
0
 10
-8.3567
 20
8.3567
 30
0.0
 11
-9.82645
 21
6.56583
 31
0.0
  0
LINE
  5
1C4
  8
0
 10
-9.82645
 20
6.56583
 30
0.0
 11
-10.9186
 21
4.52261
 31
0.0
  0
LINE
  5
1C5
  8
0
 10
-10.9186
 20
4.52261
 30
0.0
 11
-11.5911
 21
2.3056
 31
0.0
  0
LINE
  5
1C6
  8
0
 10
-11.5911
 20
2.3056
 30
0.0
 11
-11.8182
 21
0.0
 31
0.0
  0
LINE
  5
1C7
  8
0
 10
-11.8182
 20
0.0
 30
0.0
 11
-11.5911
 21
-2.3056
 31
0.0
  0
LINE
  5
1C8
  8
0
 10
-11.5911
 20
-2.3056
 30
0.0
 11
-10.9186
 21
-4.52261
 31
0.0
  0
LINE
  5
1C9
  8
0
 10
-10.9186
 20
-4.52261
 30
0.0
 11
-9.82645
 21
-6.56583
 31
0.0
  0
LINE
  5
1CA
  8
0
 10
-9.82645
 20
-6.56583
 30
0.0
 11
-8.3567
 21
-8.3567
 31
0.0
  0
LINE
  5
1CB
  8
0
 10
-8.3567
 20
-8.3567
 30
0.0
 11
-6.56583
 21
-9.82645
 31
0.0
  0
LINE
  5
1CC
  8
0
 10
-6.56583
 20
-9.82645
 30
0.0
 11
-4.52261
 21
-10.9186
 31
0.0
  0
LINE
  5
1CD
  8
0
 10
-4.52261
 20
-10.9186
 30
0.0
 11
-2.3056
 21
-11.5911
 31
0.0
  0
LINE
  5
1CE
  8
0
 10
-2.3056
 20
-11.5911
 30
0.0
 11
0.0
 21
-11.8182
 31
0.0
  0
LINE
  5
1CF
  8
0
 10
0.0
 20
-11.8182
 30
0.0
 11
2.3056
 21
-11.5911
 31
0.0
  0
LINE
  5
1D0
  8
0
 10
-1.26808
 20
-6.37509
 30
0.0
 11
-2.48744
 21
-6.0052
 31
0.0
  0
LINE
  5
1D1
  8
0
 10
-2.48744
 20
-6.0052
 30
0.0
 11
-3.61121
 21
-5.40454
 31
0.0
  0
LINE
  5
1D2
  8
0
 10
-3.61121
 20
-5.40454
 30
0.0
 11
-4.59619
 21
-4.59619
 31
0.0
  0
LINE
  5
1D3
  8
0
 10
-4.59619
 20
-4.59619
 30
0.0
 11
-5.40454
 21
-3.61121
 31
0.0
  0
LINE
  5
1D4
  8
0
 10
-5.40454
 20
-3.61121
 30
0.0
 11
-6.0052
 21
-2.48744
 31
0.0
  0
LINE
  5
1D5
  8
0
 10
-6.0052
 20
-2.48744
 30
0.0
 11
-6.37509
 21
-1.26808
 31
0.0
  0
LINE
  5
1D6
  8
0
 10
-6.37509
 20
-1.26808
 30
0.0
 11
-6.5
 21
0.0
 31
0.0
  0
LINE
  5
1D7
  8
0
 10
-6.5
 20
0.0
 30
0.0
 11
-6.37509
 21
1.26808
 31
0.0
  0
LINE
  5
1D8
  8
0
 10
-6.37509
 20
1.26808
 30
0.0
 11
-6.0052
 21
2.48744
 31
0.0
  0
LINE
  5
1D9
  8
0
 10
-6.0052
 20
2.48744
 30
0.0
 11
-5.40454
 21
3.61121
 31
0.0
  0
LINE
  5
1DA
  8
0
 10
-5.40454
 20
3.61121
 30
0.0
 11
-4.59619
 21
4.59619
 31
0.0
  0
LINE
  5
1DB
  8
0
 10
-4.59619
 20
4.59619
 30
0.0
 11
-3.61121
 21
5.40454
 31
0.0
  0
LINE
  5
1DC
  8
0
 10
-3.61121
 20
5.40454
 30
0.0
 11
-2.48744
 21
6.0052
 31
0.0
  0
LINE
  5
1DD
  8
0
 10
-2.48744
 20
6.0052
 30
0.0
 11
-1.26808
 21
6.37509
 31
0.0
  0
LINE
  5
1DE
  8
0
 10
-1.26808
 20
6.37509
 30
0.0
 11
0.0
 21
6.5
 31
0.0
  0
LINE
  5
1DF
  8
0
 10
0.0
 20
6.5
 30
0.0
 11
1.26808
 21
6.37509
 31
0.0
  0
LINE
  5
1E0
  8
0
 10
1.26808
 20
6.37509
 30
0.0
 11
2.48744
 21
6.0052
 31
0.0
  0
LINE
  5
1E1
  8
0
 10
2.48744
 20
6.0052
 30
0.0
 11
3.61121
 21
5.40454
 31
0.0
  0
LINE
  5
1E2
  8
0
 10
3.61121
 20
5.40454
 30
0.0
 11
4.59619
 21
4.59619
 31
0.0
  0
LINE
  5
1E3
  8
0
 10
4.59619
 20
4.59619
 30
0.0
 11
5.40454
 21
3.61121
 31
0.0
  0
LINE
  5
1E4
  8
0
 10
5.40454
 20
3.61121
 30
0.0
 11
6.0052
 21
2.48744
 31
0.0
  0
LINE
  5
1E5
  8
0
 10
6.0052
 20
2.48744
 30
0.0
 11
6.37509
 21
1.26808
 31
0.0
  0
LINE
  5
1E6
  8
0
 10
6.37509
 20
1.26808
 30
0.0
 11
6.5
 21
0.0
 31
0.0
  0
LINE
  5
1E7
  8
0
 10
6.5
 20
0.0
 30
0.0
 11
6.37509
 21
-1.26808
 31
0.0
  0
LINE
  5
1E8
  8
0
 10
6.37509
 20
-1.26808
 30
0.0
 11
6.0052
 21
-2.48744
 31
0.0
  0
LINE
  5
1E9
  8
0
 10
6.0052
 20
-2.48744
 30
0.0
 11
5.40454
 21
-3.61121
 31
0.0
  0
LINE
  5
1EA
  8
0
 10
5.40454
 20
-3.61121
 30
0.0
 11
4.59619
 21
-4.59619
 31
0.0
  0
LINE
  5
1EB
  8
0
 10
4.59619
 20
-4.59619
 30
0.0
 11
3.61121
 21
-5.40454
 31
0.0
  0
LINE
  5
1EC
  8
0
 10
3.61121
 20
-5.40454
 30
0.0
 11
2.48744
 21
-6.0052
 31
0.0
  0
LINE
  5
1ED
  8
0
 10
2.48744
 20
-6.0052
 30
0.0
 11
1.26808
 21
-6.37509
 31
0.0
  0
LINE
  5
1EE
  8
0
 10
1.26808
 20
-6.37509
 30
0.0
 11
0.0
 21
-6.5
 31
0.0
  0
LINE
  5
1EF
  8
0
 10
0.0
 20
-6.5
 30
0.0
 11
-1.26808
 21
-6.37509
 31
0.0
  0
TEXT
  5
225
  8
0
 62
5
 10
0.0
 20
0.0
 30
0.0
 40
3.0
  1
3
  7
OpenSans-Regular
  0
ENDSEC
  0
EOF
