  0
SECTION
  2
HEADER
  9
$ACADVER
  1
AC1009
  9
$DWGCODEPAGE
  3
ANSI_1252
  9
$INSBASE
 10
0.0
 20
0.0
 30
0.0
  9
$EXTMIN
 10
1e+20
 20
1e+20
 30
1e+20
  9
$EXTMAX
 10
-1e+20
 20
-1e+20
 30
-1e+20
  9
$LIMMIN
 10
0.0
 20
0.0
  9
$LIMMAX
 10
420.0
 20
297.0
  9
$ORTHOMODE
 70
0
  9
$REGENMODE
 70
1
  9
$FILLMODE
 70
1
  9
$DRAGMODE
 70
2
  9
$QTEXTMODE
 70
0
  9
$MIRRTEXT
 70
1
  9
$OSMODE
 70
20583
  9
$LTSCALE
 40
1.0
  9
$ATTMODE
 70
1
  9
$TEXTSIZE
 40
2.5
  9
$TRACEWID
 40
1.0
  9
$TEXTSTYLE
  7
Standard
  9
$CLAYER
  8
0
  9
$CELTYPE
  6
ByLayer
  9
$CECOLOR
 62
256
  9
$DIMSCALE
 40
1.0
  9
$DIMASZ
 40
2.5
  9
$DIMEXO
 40
0.625
  9
$DIMDLI
 40
3.75
  9
$DIMRND
 40
0.0
  9
$DIMDLE
 40
0.0
  9
$DIMEXE
 40
1.25
  9
$DIMTP
 40
0.0
  9
$DIMTM
 40
0.0
  9
$DIMTXT
 40
2.5
  9
$DIMCEN
 40
2.5
  9
$DIMTSZ
 40
0.0
  9
$DIMTOL
 70
0
  9
$DIMLIM
 70
0
  9
$DIMTIH
 70
0
  9
$DIMTOH
 70
0
  9
$DIMSE1
 70
0
  9
$DIMSE2
 70
0
  9
$DIMTAD
 70
1
  9
$DIMZIN
 70
8
  9
$DIMBLK
  1

  9
$DIMASO
 70
1
  9
$DIMSHO
 70
1
  9
$DIMPOST
  1

  9
$DIMAPOST
  1

  9
$DIMALT
 70
0
  9
$DIMALTD
 70
3
  9
$DIMALTF
 40
0.03937007874
  9
$DIMLFAC
 40
1.0
  9
$DIMTOFL
 70
1
  9
$DIMTVP
 40
0.0
  9
$DIMTIX
 70
0
  9
$DIMSOXD
 70
0
  9
$DIMSAH
 70
0
  9
$DIMBLK1
  1

  9
$DIMBLK2
  1

  9
$DIMSTYLE
  2
ISO-25
  9
$DIMCLRD
 70
0
  9
$DIMCLRE
 70
0
  9
$DIMCLRT
 70
0
  9
$DIMTFAC
 40
1.0
  9
$DIMGAP
 40
0.625
  9
$COORDS
 70
1
  9
$ATTDIA
 70
0
  9
$ATTREQ
 70
1
  9
$HANDLING
 70
1
  9
$LUNITS
 70
2
  9
$LUPREC
 70
4
  9
$SKETCHINC
 40
1.0
  9
$FILLETRAD
 40
10.0
  9
$AUNITS
 70
0
  9
$AUPREC
 70
2
  9
$MENU
  1
.
  9
$ELEVATION
 40
0.0
  9
$PELEVATION
 40
0.0
  9
$THICKNESS
 40
0.0
  9
$LIMCHECK
 70
0
  9
$CHAMFERA
 40
0.0
  9
$CHAMFERB
 40
0.0
  9
$SKPOLY
 70
0
  9
$TDCREATE
 40
2459972.4977893517
  9
$TDUPDATE
 40
2459972.4977893517
  9
$TDINDWG
 40
0.0
  9
$TDUSRTIMER
 40
0.0
  9
$USRTIMER
 70
1
  9
$ANGBASE
 50
0.0
  9
$ANGDIR
 70
0
  9
$PDMODE
 70
0
  9
$PDSIZE
 40
0.0
  9
$PLINEWID
 40
0.0
  9
$SPLFRAME
 70
0
  9
$SPLINETYPE
 70
6
  9
$SPLINESEGS
 70
8
  9
$HANDSEED
  5
238
  9
$SURFTAB1
 70
6
  9
$SURFTAB2
 70
6
  9
$SURFTYPE
 70
6
  9
$SURFU
 70
6
  9
$SURFV
 70
6
  9
$UCSNAME
  2

  9
$UCSORG
 10
0.0
 20
0.0
 30
0.0
  9
$UCSXDIR
 10
1.0
 20
0.0
 30
0.0
  9
$UCSYDIR
 10
0.0
 20
1.0
 30
0.0
  9
$PUCSNAME
  2

  9
$PUCSORG
 10
0.0
 20
0.0
 30
0.0
  9
$PUCSXDIR
 10
1.0
 20
0.0
 30
0.0
  9
$PUCSYDIR
 10
0.0
 20
1.0
 30
0.0
  9
$USERI1
 70
0
  9
$USERI2
 70
0
  9
$USERI3
 70
0
  9
$USERI4
 70
0
  9
$USERI5
 70
0
  9
$USERR1
 40
0.0
  9
$USERR2
 40
0.0
  9
$USERR3
 40
0.0
  9
$USERR4
 40
0.0
  9
$USERR5
 40
0.0
  9
$WORLDVIEW
 70
1
  9
$SHADEDGE
 70
3
  9
$SHADEDIF
 70
70
  9
$TILEMODE
 70
1
  9
$MAXACTVP
 70
64
  9
$PLIMCHECK
 70
0
  9
$PEXTMIN
 10
1e+20
 20
1e+20
 30
1e+20
  9
$PEXTMAX
 10
-1e+20
 20
-1e+20
 30
-1e+20
  9
$PLIMMIN
 10
0.0
 20
0.0
  9
$PLIMMAX
 10
420.0
 20
297.0
  9
$UNITMODE
 70
0
  9
$VISRETAIN
 70
1
  9
$PLINEGEN
 70
0
  9
$PSLTSCALE
 70
1
  0
ENDSEC
  0
SECTION
  2
TABLES
  0
TABLE
  2
VPORT
 70
1
  0
VPORT
  5
22B
  2
*Active
 70
0
 10
0.0
 20
0.0
 11
1.0
 21
1.0
 12
0.0
 22
0.0
 13
0.0
 23
0.0
 14
0.5
 24
0.5
 15
0.5
 25
0.5
 16
0.0
 26
0.0
 36
1.0
 17
0.0
 27
0.0
 37
0.0
 40
1000.0
 41
1.34
 42
50.0
 43
0.0
 44
0.0
 50
0.0
 51
0.0
 71
0
 72
1000
 73
1
 74
3
 75
0
 76
0
 77
0
 78
0
  0
ENDTAB
  0
TABLE
  2
LTYPE
 70
3
  0
LTYPE
  5
22C
  2
ByBlock
 70
0
  3

 72
65
 73
0
 40
0.0
  0
LTYPE
  5
22D
  2
ByLayer
 70
0
  3

 72
65
 73
0
 40
0.0
  0
LTYPE
  5
22E
  2
Continuous
 70
0
  3

 72
65
 73
0
 40
0.0
  0
ENDTAB
  0
TABLE
  2
LAYER
 70
2
  0
LAYER
  5
22F
  2
0
 70
0
 62
7
  6
Continuous
  0
LAYER
  5
230
  2
Defpoints
 70
0
 62
7
  6
Continuous
  0
ENDTAB
  0
TABLE
  2
STYLE
 70
1
  0
STYLE
  5
231
  2
Standard
 70
0
 40
0.0
 41
1.0
 50
0.0
 71
0
 42
2.5
  3
txt
  4

  0
ENDTAB
  0
TABLE
  2
VIEW
 70
0
  0
ENDTAB
  0
TABLE
  2
UCS
 70
0
  0
ENDTAB
  0
TABLE
  2
APPID
 70
3
  0
APPID
  5
232
  2
ACAD
 70
0
  0
APPID
  5
236
  2
HATCHBACKGROUNDCOLOR
 70
0
  0
APPID
  5
237
  2
EZDXF
 70
0
  0
ENDTAB
  0
TABLE
  2
DIMSTYLE
 70
1
  0
DIMSTYLE
105
233
  2
Standard
 70
0
  3

  4

  5

  6

  7

 40
1.0
 41
2.5
 42
0.625
 43
3.75
 44
1.25
 45
0.0
 46
0.0
 47
0.0
 48
0.0
140
2.5
141
2.5
142
0.0
143
0.03937007874
144
1.0
145
0.0
146
1.0
147
0.625
 71
0
 72
0
 73
0
 74
0
 75
0
 76
0
 77
1
 78
8
170
0
171
3
172
1
173
0
174
0
175
0
176
0
177
0
178
0
  0
ENDTAB
  0
ENDSEC
  0
SECTION
  2
BLOCKS
  0
BLOCK
  5
20C
  8
0
  2
$Model_Space
 70
0
 10
0.0
 20
0.0
 30
0.0
  3
$Model_Space
  1

1001
EZDXF
1000
WRITTEN_BY_EZDXF
1000
1.0.1 @ 2023-01-27T01:56:49.593801+00:00
  0
ENDBLK
  5
20D
  8
0
  0
BLOCK
  5
20E
  8
0
  2
$Paper_Space
 70
0
 10
0.0
 20
0.0
 30
0.0
  3
$Paper_Space
  1

  0
ENDBLK
  5
20F
  8
0
  0
ENDSEC
  0
SECTION
  2
ENTITIES
  0
LINE
  5
100
  8
0
 10
70.2429
 20
32.6149
 30
0.0
 11
76.2459
 21
34.4359
 31
0.0
  0
LINE
  5
101
  8
0
 10
76.2459
 20
34.4359
 30
0.0
 11
81.7782
 21
37.393
 31
0.0
  0
LINE
  5
102
  8
0
 10
81.7782
 20
37.393
 30
0.0
 11
86.6274
 21
41.3726
 31
0.0
  0
LINE
  5
103
  8
0
 10
86.6274
 20
41.3726
 30
0.0
 11
90.607
 21
46.2217
 31
0.0
  0
LINE
  5
104
  8
0
 10
90.607
 20
46.2217
 30
0.0
 11
93.5641
 21
51.7541
 31
0.0
  0
LINE
  5
105
  8
0
 10
93.5641
 20
51.7541
 30
0.0
 11
95.3851
 21
57.7571
 31
0.0
  0
LINE
  5
106
  8
0
 10
95.3851
 20
57.7571
 30
0.0
 11
96.0
 21
64.0
 31
0.0
  0
LINE
  5
107
  8
0
 10
96.0
 20
64.0
 30
0.0
 11
95.3851
 21
70.2429
 31
0.0
  0
LINE
  5
108
  8
0
 10
95.3851
 20
70.2429
 30
0.0
 11
93.5641
 21
76.2459
 31
0.0
  0
LINE
  5
109
  8
0
 10
93.5641
 20
76.2459
 30
0.0
 11
90.607
 21
81.7782
 31
0.0
  0
LINE
  5
10A
  8
0
 10
90.607
 20
81.7782
 30
0.0
 11
86.6274
 21
86.6274
 31
0.0
  0
LINE
  5
10B
  8
0
 10
86.6274
 20
86.6274
 30
0.0
 11
81.7782
 21
90.607
 31
0.0
  0
LINE
  5
10C
  8
0
 10
81.7782
 20
90.607
 30
0.0
 11
76.2459
 21
93.5641
 31
0.0
  0
LINE
  5
10D
  8
0
 10
76.2459
 20
93.5641
 30
0.0
 11
70.2429
 21
95.3851
 31
0.0
  0
LINE
  5
10E
  8
0
 10
70.2429
 20
95.3851
 30
0.0
 11
64.0
 21
96.0
 31
0.0
  0
LINE
  5
10F
  8
0
 10
64.0
 20
96.0
 30
0.0
 11
57.7571
 21
95.3851
 31
0.0
  0
LINE
  5
110
  8
0
 10
57.7571
 20
95.3851
 30
0.0
 11
51.7541
 21
93.5641
 31
0.0
  0
LINE
  5
111
  8
0
 10
51.7541
 20
93.5641
 30
0.0
 11
46.2217
 21
90.607
 31
0.0
  0
LINE
  5
112
  8
0
 10
46.2217
 20
90.607
 30
0.0
 11
41.3726
 21
86.6274
 31
0.0
  0
LINE
  5
113
  8
0
 10
41.3726
 20
86.6274
 30
0.0
 11
37.393
 21
81.7782
 31
0.0
  0
LINE
  5
114
  8
0
 10
37.393
 20
81.7782
 30
0.0
 11
34.4359
 21
76.2459
 31
0.0
  0
LINE
  5
115
  8
0
 10
34.4359
 20
76.2459
 30
0.0
 11
32.6149
 21
70.2429
 31
0.0
  0
LINE
  5
116
  8
0
 10
32.6149
 20
70.2429
 30
0.0
 11
32.0
 21
64.0
 31
0.0
  0
LINE
  5
117
  8
0
 10
32.0
 20
64.0
 30
0.0
 11
32.6149
 21
57.7571
 31
0.0
  0
LINE
  5
118
  8
0
 10
32.6149
 20
57.7571
 30
0.0
 11
34.4359
 21
51.7541
 31
0.0
  0
LINE
  5
119
  8
0
 10
34.4359
 20
51.7541
 30
0.0
 11
37.393
 21
46.2217
 31
0.0
  0
LINE
  5
11A
  8
0
 10
37.393
 20
46.2217
 30
0.0
 11
41.3726
 21
41.3726
 31
0.0
  0
LINE
  5
11B
  8
0
 10
41.3726
 20
41.3726
 30
0.0
 11
46.2217
 21
37.393
 31
0.0
  0
LINE
  5
11C
  8
0
 10
46.2217
 20
37.393
 30
0.0
 11
51.7541
 21
34.4359
 31
0.0
  0
LINE
  5
11D
  8
0
 10
51.7541
 20
34.4359
 30
0.0
 11
57.7571
 21
32.6149
 31
0.0
  0
LINE
  5
11E
  8
0
 10
57.7571
 20
32.6149
 30
0.0
 11
64.0
 21
32.0
 31
0.0
  0
LINE
  5
11F
  8
0
 10
64.0
 20
32.0
 30
0.0
 11
70.2429
 21
32.6149
 31
0.0
  0
LINE
  5
120
  8
0
 10
62.7319
 20
57.6249
 30
0.0
 11
61.5126
 21
57.9948
 31
0.0
  0
LINE
  5
121
  8
0
 10
61.5126
 20
57.9948
 30
0.0
 11
60.3888
 21
58.5954
 31
0.0
  0
LINE
  5
122
  8
0
 10
60.3888
 20
58.5954
 30
0.0
 11
59.4038
 21
59.4038
 31
0.0
  0
LINE
  5
123
  8
0
 10
59.4038
 20
59.4038
 30
0.0
 11
58.5954
 21
60.3888
 31
0.0
  0
LINE
  5
124
  8
0
 10
58.5954
 20
60.3888
 30
0.0
 11
57.9948
 21
61.5126
 31
0.0
  0
LINE
  5
125
  8
0
 10
57.9948
 20
61.5126
 30
0.0
 11
57.6249
 21
62.7319
 31
0.0
  0
LINE
  5
126
  8
0
 10
57.6249
 20
62.7319
 30
0.0
 11
57.5
 21
64.0
 31
0.0
  0
LINE
  5
127
  8
0
 10
57.5
 20
64.0
 30
0.0
 11
57.6249
 21
65.2681
 31
0.0
  0
LINE
  5
128
  8
0
 10
57.6249
 20
65.2681
 30
0.0
 11
57.9948
 21
66.4874
 31
0.0
  0
LINE
  5
129
  8
0
 10
57.9948
 20
66.4874
 30
0.0
 11
58.5954
 21
67.6112
 31
0.0
  0
LINE
  5
12A
  8
0
 10
58.5954
 20
67.6112
 30
0.0
 11
59.4038
 21
68.5962
 31
0.0
  0
LINE
  5
12B
  8
0
 10
59.4038
 20
68.5962
 30
0.0
 11
60.3888
 21
69.4046
 31
0.0
  0
LINE
  5
12C
  8
0
 10
60.3888
 20
69.4046
 30
0.0
 11
61.5126
 21
70.0052
 31
0.0
  0
LINE
  5
12D
  8
0
 10
61.5126
 20
70.0052
 30
0.0
 11
62.7319
 21
70.3751
 31
0.0
  0
LINE
  5
12E
  8
0
 10
62.7319
 20
70.3751
 30
0.0
 11
64.0
 21
70.5
 31
0.0
  0
LINE
  5
12F
  8
0
 10
64.0
 20
70.5
 30
0.0
 11
65.2681
 21
70.3751
 31
0.0
  0
LINE
  5
130
  8
0
 10
65.2681
 20
70.3751
 30
0.0
 11
66.4874
 21
70.0052
 31
0.0
  0
LINE
  5
131
  8
0
 10
66.4874
 20
70.0052
 30
0.0
 11
67.6112
 21
69.4046
 31
0.0
  0
LINE
  5
132
  8
0
 10
67.6112
 20
69.4046
 30
0.0
 11
68.5962
 21
68.5962
 31
0.0
  0
LINE
  5
133
  8
0
 10
68.5962
 20
68.5962
 30
0.0
 11
69.4046
 21
67.6112
 31
0.0
  0
LINE
  5
134
  8
0
 10
69.4046
 20
67.6112
 30
0.0
 11
70.0052
 21
66.4874
 31
0.0
  0
LINE
  5
135
  8
0
 10
70.0052
 20
66.4874
 30
0.0
 11
70.3751
 21
65.2681
 31
0.0
  0
LINE
  5
136
  8
0
 10
70.3751
 20
65.2681
 30
0.0
 11
70.5
 21
64.0
 31
0.0
  0
LINE
  5
137
  8
0
 10
70.5
 20
64.0
 30
0.0
 11
70.3751
 21
62.7319
 31
0.0
  0
LINE
  5
138
  8
0
 10
70.3751
 20
62.7319
 30
0.0
 11
70.0052
 21
61.5126
 31
0.0
  0
LINE
  5
139
  8
0
 10
70.0052
 20
61.5126
 30
0.0
 11
69.4046
 21
60.3888
 31
0.0
  0
LINE
  5
13A
  8
0
 10
69.4046
 20
60.3888
 30
0.0
 11
68.5962
 21
59.4038
 31
0.0
  0
LINE
  5
13B
  8
0
 10
68.5962
 20
59.4038
 30
0.0
 11
67.6112
 21
58.5954
 31
0.0
  0
LINE
  5
13C
  8
0
 10
67.6112
 20
58.5954
 30
0.0
 11
66.4874
 21
57.9948
 31
0.0
  0
LINE
  5
13D
  8
0
 10
66.4874
 20
57.9948
 30
0.0
 11
65.2681
 21
57.6249
 31
0.0
  0
LINE
  5
13E
  8
0
 10
65.2681
 20
57.6249
 30
0.0
 11
64.0
 21
57.5
 31
0.0
  0
LINE
  5
13F
  8
0
 10
64.0
 20
57.5
 30
0.0
 11
62.7319
 21
57.6249
 31
0.0
  0
LINE
  5
140
  8
0
 10
5.85271
 20
34.5764
 30
0.0
 11
11.4805
 21
36.2836
 31
0.0
  0
LINE
  5
141
  8
0
 10
11.4805
 20
36.2836
 30
0.0
 11
16.6671
 21
39.0559
 31
0.0
  0
LINE
  5
142
  8
0
 10
16.6671
 20
39.0559
 30
0.0
 11
21.2132
 21
42.7868
 31
0.0
  0
LINE
  5
143
  8
0
 10
21.2132
 20
42.7868
 30
0.0
 11
24.9441
 21
47.3329
 31
0.0
  0
LINE
  5
144
  8
0
 10
24.9441
 20
47.3329
 30
0.0
 11
27.7164
 21
52.5195
 31
0.0
  0
LINE
  5
145
  8
0
 10
27.7164
 20
52.5195
 30
0.0
 11
29.4236
 21
58.1473
 31
0.0
  0
LINE
  5
146
  8
0
 10
29.4236
 20
58.1473
 30
0.0
 11
30.0
 21
64.0
 31
0.0
  0
LINE
  5
147
  8
0
 10
30.0
 20
64.0
 30
0.0
 11
29.4236
 21
69.8527
 31
0.0
  0
LINE
  5
148
  8
0
 10
29.4236
 20
69.8527
 30
0.0
 11
27.7164
 21
75.4805
 31
0.0
  0
LINE
  5
149
  8
0
 10
27.7164
 20
75.4805
 30
0.0
 11
24.9441
 21
80.6671
 31
0.0
  0
LINE
  5
14A
  8
0
 10
24.9441
 20
80.6671
 30
0.0
 11
21.2132
 21
85.2132
 31
0.0
  0
LINE
  5
14B
  8
0
 10
21.2132
 20
85.2132
 30
0.0
 11
16.6671
 21
88.9441
 31
0.0
  0
LINE
  5
14C
  8
0
 10
16.6671
 20
88.9441
 30
0.0
 11
11.4805
 21
91.7164
 31
0.0
  0
LINE
  5
14D
  8
0
 10
11.4805
 20
91.7164
 30
0.0
 11
5.85271
 21
93.4236
 31
0.0
  0
LINE
  5
14E
  8
0
 10
5.85271
 20
93.4236
 30
0.0
 11
0.0
 21
94.0
 31
0.0
  0
LINE
  5
14F
  8
0
 10
0.0
 20
94.0
 30
0.0
 11
-5.85271
 21
93.4236
 31
0.0
  0
LINE
  5
150
  8
0
 10
-5.85271
 20
93.4236
 30
0.0
 11
-11.4805
 21
91.7164
 31
0.0
  0
LINE
  5
151
  8
0
 10
-11.4805
 20
91.7164
 30
0.0
 11
-16.6671
 21
88.9441
 31
0.0
  0
LINE
  5
152
  8
0
 10
-16.6671
 20
88.9441
 30
0.0
 11
-21.2132
 21
85.2132
 31
0.0
  0
LINE
  5
153
  8
0
 10
-21.2132
 20
85.2132
 30
0.0
 11
-24.9441
 21
80.6671
 31
0.0
  0
LINE
  5
154
  8
0
 10
-24.9441
 20
80.6671
 30
0.0
 11
-27.7164
 21
75.4805
 31
0.0
  0
LINE
  5
155
  8
0
 10
-27.7164
 20
75.4805
 30
0.0
 11
-29.4236
 21
69.8527
 31
0.0
  0
LINE
  5
156
  8
0
 10
-29.4236
 20
69.8527
 30
0.0
 11
-30.0
 21
64.0
 31
0.0
  0
LINE
  5
157
  8
0
 10
-30.0
 20
64.0
 30
0.0
 11
-29.4236
 21
58.1473
 31
0.0
  0
LINE
  5
158
  8
0
 10
-29.4236
 20
58.1473
 30
0.0
 11
-27.7164
 21
52.5195
 31
0.0
  0
LINE
  5
159
  8
0
 10
-27.7164
 20
52.5195
 30
0.0
 11
-24.9441
 21
47.3329
 31
0.0
  0
LINE
  5
15A
  8
0
 10
-24.9441
 20
47.3329
 30
0.0
 11
-21.2132
 21
42.7868
 31
0.0
  0
LINE
  5
15B
  8
0
 10
-21.2132
 20
42.7868
 30
0.0
 11
-16.6671
 21
39.0559
 31
0.0
  0
LINE
  5
15C
  8
0
 10
-16.6671
 20
39.0559
 30
0.0
 11
-11.4805
 21
36.2836
 31
0.0
  0
LINE
  5
15D
  8
0
 10
-11.4805
 20
36.2836
 30
0.0
 11
-5.85271
 21
34.5764
 31
0.0
  0
LINE
  5
15E
  8
0
 10
-5.85271
 20
34.5764
 30
0.0
 11
0.0
 21
34.0
 31
0.0
  0
LINE
  5
15F
  8
0
 10
0.0
 20
34.0
 30
0.0
 11
5.85271
 21
34.5764
 31
0.0
  0
LINE
  5
160
  8
0
 10
-1.26808
 20
57.6249
 30
0.0
 11
-2.48744
 21
57.9948
 31
0.0
  0
LINE
  5
161
  8
0
 10
-2.48744
 20
57.9948
 30
0.0
 11
-3.61121
 21
58.5954
 31
0.0
  0
LINE
  5
162
  8
0
 10
-3.61121
 20
58.5954
 30
0.0
 11
-4.59619
 21
59.4038
 31
0.0
  0
LINE
  5
163
  8
0
 10
-4.59619
 20
59.4038
 30
0.0
 11
-5.40454
 21
60.3888
 31
0.0
  0
LINE
  5
164
  8
0
 10
-5.40454
 20
60.3888
 30
0.0
 11
-6.0052
 21
61.5126
 31
0.0
  0
LINE
  5
165
  8
0
 10
-6.0052
 20
61.5126
 30
0.0
 11
-6.37509
 21
62.7319
 31
0.0
  0
LINE
  5
166
  8
0
 10
-6.37509
 20
62.7319
 30
0.0
 11
-6.5
 21
64.0
 31
0.0
  0
LINE
  5
167
  8
0
 10
-6.5
 20
64.0
 30
0.0
 11
-6.37509
 21
65.2681
 31
0.0
  0
LINE
  5
168
  8
0
 10
-6.37509
 20
65.2681
 30
0.0
 11
-6.0052
 21
66.4874
 31
0.0
  0
LINE
  5
169
  8
0
 10
-6.0052
 20
66.4874
 30
0.0
 11
-5.40454
 21
67.6112
 31
0.0
  0
LINE
  5
16A
  8
0
 10
-5.40454
 20
67.6112
 30
0.0
 11
-4.59619
 21
68.5962
 31
0.0
  0
LINE
  5
16B
  8
0
 10
-4.59619
 20
68.5962
 30
0.0
 11
-3.61121
 21
69.4046
 31
0.0
  0
LINE
  5
16C
  8
0
 10
-3.61121
 20
69.4046
 30
0.0
 11
-2.48744
 21
70.0052
 31
0.0
  0
LINE
  5
16D
  8
0
 10
-2.48744
 20
70.0052
 30
0.0
 11
-1.26808
 21
70.3751
 31
0.0
  0
LINE
  5
16E
  8
0
 10
-1.26808
 20
70.3751
 30
0.0
 11
0.0
 21
70.5
 31
0.0
  0
LINE
  5
16F
  8
0
 10
0.0
 20
70.5
 30
0.0
 11
1.26808
 21
70.3751
 31
0.0
  0
LINE
  5
170
  8
0
 10
1.26808
 20
70.3751
 30
0.0
 11
2.48744
 21
70.0052
 31
0.0
  0
LINE
  5
171
  8
0
 10
2.48744
 20
70.0052
 30
0.0
 11
3.61121
 21
69.4046
 31
0.0
  0
LINE
  5
172
  8
0
 10
3.61121
 20
69.4046
 30
0.0
 11
4.59619
 21
68.5962
 31
0.0
  0
LINE
  5
173
  8
0
 10
4.59619
 20
68.5962
 30
0.0
 11
5.40454
 21
67.6112
 31
0.0
  0
LINE
  5
174
  8
0
 10
5.40454
 20
67.6112
 30
0.0
 11
6.0052
 21
66.4874
 31
0.0
  0
LINE
  5
175
  8
0
 10
6.0052
 20
66.4874
 30
0.0
 11
6.37509
 21
65.2681
 31
0.0
  0
LINE
  5
176
  8
0
 10
6.37509
 20
65.2681
 30
0.0
 11
6.5
 21
64.0
 31
0.0
  0
LINE
  5
177
  8
0
 10
6.5
 20
64.0
 30
0.0
 11
6.37509
 21
62.7319
 31
0.0
  0
LINE
  5
178
  8
0
 10
6.37509
 20
62.7319
 30
0.0
 11
6.0052
 21
61.5126
 31
0.0
  0
LINE
  5
179
  8
0
 10
6.0052
 20
61.5126
 30
0.0
 11
5.40454
 21
60.3888
 31
0.0
  0
LINE
  5
17A
  8
0
 10
5.40454
 20
60.3888
 30
0.0
 11
4.59619
 21
59.4038
 31
0.0
  0
LINE
  5
17B
  8
0
 10
4.59619
 20
59.4038
 30
0.0
 11
3.61121
 21
58.5954
 31
0.0
  0
LINE
  5
17C
  8
0
 10
3.61121
 20
58.5954
 30
0.0
 11
2.48744
 21
57.9948
 31
0.0
  0
LINE
  5
17D
  8
0
 10
2.48744
 20
57.9948
 30
0.0
 11
1.26808
 21
57.6249
 31
0.0
  0
LINE
  5
17E
  8
0
 10
1.26808
 20
57.6249
 30
0.0
 11
0.0
 21
57.5
 31
0.0
  0
LINE
  5
17F
  8
0
 10
0.0
 20
57.5
 30
0.0
 11
-1.26808
 21
57.6249
 31
0.0
  0
LINE
  5
180
  8
0
 10
6.24289
 20
-31.3851
 30
0.0
 11
12.2459
 21
-29.5641
 31
0.0
  0
LINE
  5
181
  8
0
 10
12.2459
 20
-29.5641
 30
0.0
 11
17.7782
 21
-26.607
 31
0.0
  0
LINE
  5
182
  8
0
 10
17.7782
 20
-26.607
 30
0.0
 11
22.6274
 21
-22.6274
 31
0.0
  0
LINE
  5
183
  8
0
 10
22.6274
 20
-22.6274
 30
0.0
 11
26.607
 21
-17.7782
 31
0.0
  0
LINE
  5
184
  8
0
 10
26.607
 20
-17.7782
 30
0.0
 11
29.5641
 21
-12.2459
 31
0.0
  0
LINE
  5
185
  8
0
 10
29.5641
 20
-12.2459
 30
0.0
 11
31.3851
 21
-6.24289
 31
0.0
  0
LINE
  5
186
  8
0
 10
31.3851
 20
-6.24289
 30
0.0
 11
32.0
 21
0.0
 31
0.0
  0
LINE
  5
187
  8
0
 10
32.0
 20
0.0
 30
0.0
 11
31.3851
 21
6.24289
 31
0.0
  0
LINE
  5
188
  8
0
 10
31.3851
 20
6.24289
 30
0.0
 11
29.5641
 21
12.2459
 31
0.0
  0
LINE
  5
189
  8
0
 10
29.5641
 20
12.2459
 30
0.0
 11
26.607
 21
17.7782
 31
0.0
  0
LINE
  5
18A
  8
0
 10
26.607
 20
17.7782
 30
0.0
 11
22.6274
 21
22.6274
 31
0.0
  0
LINE
  5
18B
  8
0
 10
22.6274
 20
22.6274
 30
0.0
 11
17.7782
 21
26.607
 31
0.0
  0
LINE
  5
18C
  8
0
 10
17.7782
 20
26.607
 30
0.0
 11
12.2459
 21
29.5641
 31
0.0
  0
LINE
  5
18D
  8
0
 10
12.2459
 20
29.5641
 30
0.0
 11
6.24289
 21
31.3851
 31
0.0
  0
LINE
  5
18E
  8
0
 10
6.24289
 20
31.3851
 30
0.0
 11
0.0
 21
32.0
 31
0.0
  0
LINE
  5
18F
  8
0
 10
0.0
 20
32.0
 30
0.0
 11
-6.24289
 21
31.3851
 31
0.0
  0
LINE
  5
190
  8
0
 10
-6.24289
 20
31.3851
 30
0.0
 11
-12.2459
 21
29.5641
 31
0.0
  0
LINE
  5
191
  8
0
 10
-12.2459
 20
29.5641
 30
0.0
 11
-17.7782
 21
26.607
 31
0.0
  0
LINE
  5
192
  8
0
 10
-17.7782
 20
26.607
 30
0.0
 11
-22.6274
 21
22.6274
 31
0.0
  0
LINE
  5
193
  8
0
 10
-22.6274
 20
22.6274
 30
0.0
 11
-26.607
 21
17.7782
 31
0.0
  0
LINE
  5
194
  8
0
 10
-26.607
 20
17.7782
 30
0.0
 11
-29.5641
 21
12.2459
 31
0.0
  0
LINE
  5
195
  8
0
 10
-29.5641
 20
12.2459
 30
0.0
 11
-31.3851
 21
6.24289
 31
0.0
  0
LINE
  5
196
  8
0
 10
-31.3851
 20
6.24289
 30
0.0
 11
-32.0
 21
0.0
 31
0.0
  0
LINE
  5
197
  8
0
 10
-32.0
 20
0.0
 30
0.0
 11
-31.3851
 21
-6.24289
 31
0.0
  0
LINE
  5
198
  8
0
 10
-31.3851
 20
-6.24289
 30
0.0
 11
-29.5641
 21
-12.2459
 31
0.0
  0
LINE
  5
199
  8
0
 10
-29.5641
 20
-12.2459
 30
0.0
 11
-26.607
 21
-17.7782
 31
0.0
  0
LINE
  5
19A
  8
0
 10
-26.607
 20
-17.7782
 30
0.0
 11
-22.6274
 21
-22.6274
 31
0.0
  0
LINE
  5
19B
  8
0
 10
-22.6274
 20
-22.6274
 30
0.0
 11
-17.7782
 21
-26.607
 31
0.0
  0
LINE
  5
19C
  8
0
 10
-17.7782
 20
-26.607
 30
0.0
 11
-12.2459
 21
-29.5641
 31
0.0
  0
LINE
  5
19D
  8
0
 10
-12.2459
 20
-29.5641
 30
0.0
 11
-6.24289
 21
-31.3851
 31
0.0
  0
LINE
  5
19E
  8
0
 10
-6.24289
 20
-31.3851
 30
0.0
 11
0.0
 21
-32.0
 31
0.0
  0
LINE
  5
19F
  8
0
 10
0.0
 20
-32.0
 30
0.0
 11
6.24289
 21
-31.3851
 31
0.0
  0
LINE
  5
1A0
  8
0
 10
-1.26808
 20
-6.37509
 30
0.0
 11
-2.48744
 21
-6.0052
 31
0.0
  0
LINE
  5
1A1
  8
0
 10
-2.48744
 20
-6.0052
 30
0.0
 11
-3.61121
 21
-5.40454
 31
0.0
  0
LINE
  5
1A2
  8
0
 10
-3.61121
 20
-5.40454
 30
0.0
 11
-4.59619
 21
-4.59619
 31
0.0
  0
LINE
  5
1A3
  8
0
 10
-4.59619
 20
-4.59619
 30
0.0
 11
-5.40454
 21
-3.61121
 31
0.0
  0
LINE
  5
1A4
  8
0
 10
-5.40454
 20
-3.61121
 30
0.0
 11
-6.0052
 21
-2.48744
 31
0.0
  0
LINE
  5
1A5
  8
0
 10
-6.0052
 20
-2.48744
 30
0.0
 11
-6.37509
 21
-1.26808
 31
0.0
  0
LINE
  5
1A6
  8
0
 10
-6.37509
 20
-1.26808
 30
0.0
 11
-6.5
 21
0.0
 31
0.0
  0
LINE
  5
1A7
  8
0
 10
-6.5
 20
0.0
 30
0.0
 11
-6.37509
 21
1.26808
 31
0.0
  0
LINE
  5
1A8
  8
0
 10
-6.37509
 20
1.26808
 30
0.0
 11
-6.0052
 21
2.48744
 31
0.0
  0
LINE
  5
1A9
  8
0
 10
-6.0052
 20
2.48744
 30
0.0
 11
-5.40454
 21
3.61121
 31
0.0
  0
LINE
  5
1AA
  8
0
 10
-5.40454
 20
3.61121
 30
0.0
 11
-4.59619
 21
4.59619
 31
0.0
  0
LINE
  5
1AB
  8
0
 10
-4.59619
 20
4.59619
 30
0.0
 11
-3.61121
 21
5.40454
 31
0.0
  0
LINE
  5
1AC
  8
0
 10
-3.61121
 20
5.40454
 30
0.0
 11
-2.48744
 21
6.0052
 31
0.0
  0
LINE
  5
1AD
  8
0
 10
-2.48744
 20
6.0052
 30
0.0
 11
-1.26808
 21
6.37509
 31
0.0
  0
LINE
  5
1AE
  8
0
 10
-1.26808
 20
6.37509
 30
0.0
 11
0.0
 21
6.5
 31
0.0
  0
LINE
  5
1AF
  8
0
 10
0.0
 20
6.5
 30
0.0
 11
1.26808
 21
6.37509
 31
0.0
  0
LINE
  5
1B0
  8
0
 10
1.26808
 20
6.37509
 30
0.0
 11
2.48744
 21
6.0052
 31
0.0
  0
LINE
  5
1B1
  8
0
 10
2.48744
 20
6.0052
 30
0.0
 11
3.61121
 21
5.40454
 31
0.0
  0
LINE
  5
1B2
  8
0
 10
3.61121
 20
5.40454
 30
0.0
 11
4.59619
 21
4.59619
 31
0.0
  0
LINE
  5
1B3
  8
0
 10
4.59619
 20
4.59619
 30
0.0
 11
5.40454
 21
3.61121
 31
0.0
  0
LINE
  5
1B4
  8
0
 10
5.40454
 20
3.61121
 30
0.0
 11
6.0052
 21
2.48744
 31
0.0
  0
LINE
  5
1B5
  8
0
 10
6.0052
 20
2.48744
 30
0.0
 11
6.37509
 21
1.26808
 31
0.0
  0
LINE
  5
1B6
  8
0
 10
6.37509
 20
1.26808
 30
0.0
 11
6.5
 21
0.0
 31
0.0
  0
LINE
  5
1B7
  8
0
 10
6.5
 20
0.0
 30
0.0
 11
6.37509
 21
-1.26808
 31
0.0
  0
LINE
  5
1B8
  8
0
 10
6.37509
 20
-1.26808
 30
0.0
 11
6.0052
 21
-2.48744
 31
0.0
  0
LINE
  5
1B9
  8
0
 10
6.0052
 20
-2.48744
 30
0.0
 11
5.40454
 21
-3.61121
 31
0.0
  0
LINE
  5
1BA
  8
0
 10
5.40454
 20
-3.61121
 30
0.0
 11
4.59619
 21
-4.59619
 31
0.0
  0
LINE
  5
1BB
  8
0
 10
4.59619
 20
-4.59619
 30
0.0
 11
3.61121
 21
-5.40454
 31
0.0
  0
LINE
  5
1BC
  8
0
 10
3.61121
 20
-5.40454
 30
0.0
 11
2.48744
 21
-6.0052
 31
0.0
  0
LINE
  5
1BD
  8
0
 10
2.48744
 20
-6.0052
 30
0.0
 11
1.26808
 21
-6.37509
 31
0.0
  0
LINE
  5
1BE
  8
0
 10
1.26808
 20
-6.37509
 30
0.0
 11
0.0
 21
-6.5
 31
0.0
  0
LINE
  5
1BF
  8
0
 10
0.0
 20
-6.5
 30
0.0
 11
-1.26808
 21
-6.37509
 31
0.0
  0
LINE
  5
1C0
  8
0
 10
69.8527
 20
-29.4236
 30
0.0
 11
75.4805
 21
-27.7164
 31
0.0
  0
LINE
  5
1C1
  8
0
 10
75.4805
 20
-27.7164
 30
0.0
 11
80.6671
 21
-24.9441
 31
0.0
  0
LINE
  5
1C2
  8
0
 10
80.6671
 20
-24.9441
 30
0.0
 11
85.2132
 21
-21.2132
 31
0.0
  0
LINE
  5
1C3
  8
0
 10
85.2132
 20
-21.2132
 30
0.0
 11
88.9441
 21
-16.6671
 31
0.0
  0
LINE
  5
1C4
  8
0
 10
88.9441
 20
-16.6671
 30
0.0
 11
91.7164
 21
-11.4805
 31
0.0
  0
LINE
  5
1C5
  8
0
 10
91.7164
 20
-11.4805
 30
0.0
 11
93.4236
 21
-5.85271
 31
0.0
  0
LINE
  5
1C6
  8
0
 10
93.4236
 20
-5.85271
 30
0.0
 11
94.0
 21
0.0
 31
0.0
  0
LINE
  5
1C7
  8
0
 10
94.0
 20
0.0
 30
0.0
 11
93.4236
 21
5.85271
 31
0.0
  0
LINE
  5
1C8
  8
0
 10
93.4236
 20
5.85271
 30
0.0
 11
91.7164
 21
11.4805
 31
0.0
  0
LINE
  5
1C9
  8
0
 10
91.7164
 20
11.4805
 30
0.0
 11
88.9441
 21
16.6671
 31
0.0
  0
LINE
  5
1CA
  8
0
 10
88.9441
 20
16.6671
 30
0.0
 11
85.2132
 21
21.2132
 31
0.0
  0
LINE
  5
1CB
  8
0
 10
85.2132
 20
21.2132
 30
0.0
 11
80.6671
 21
24.9441
 31
0.0
  0
LINE
  5
1CC
  8
0
 10
80.6671
 20
24.9441
 30
0.0
 11
75.4805
 21
27.7164
 31
0.0
  0
LINE
  5
1CD
  8
0
 10
75.4805
 20
27.7164
 30
0.0
 11
69.8527
 21
29.4236
 31
0.0
  0
LINE
  5
1CE
  8
0
 10
69.8527
 20
29.4236
 30
0.0
 11
64.0
 21
30.0
 31
0.0
  0
LINE
  5
1CF
  8
0
 10
64.0
 20
30.0
 30
0.0
 11
58.1473
 21
29.4236
 31
0.0
  0
LINE
  5
1D0
  8
0
 10
58.1473
 20
29.4236
 30
0.0
 11
52.5195
 21
27.7164
 31
0.0
  0
LINE
  5
1D1
  8
0
 10
52.5195
 20
27.7164
 30
0.0
 11
47.3329
 21
24.9441
 31
0.0
  0
LINE
  5
1D2
  8
0
 10
47.3329
 20
24.9441
 30
0.0
 11
42.7868
 21
21.2132
 31
0.0
  0
LINE
  5
1D3
  8
0
 10
42.7868
 20
21.2132
 30
0.0
 11
39.0559
 21
16.6671
 31
0.0
  0
LINE
  5
1D4
  8
0
 10
39.0559
 20
16.6671
 30
0.0
 11
36.2836
 21
11.4805
 31
0.0
  0
LINE
  5
1D5
  8
0
 10
36.2836
 20
11.4805
 30
0.0
 11
34.5764
 21
5.85271
 31
0.0
  0
LINE
  5
1D6
  8
0
 10
34.5764
 20
5.85271
 30
0.0
 11
34.0
 21
0.0
 31
0.0
  0
LINE
  5
1D7
  8
0
 10
34.0
 20
0.0
 30
0.0
 11
34.5764
 21
-5.85271
 31
0.0
  0
LINE
  5
1D8
  8
0
 10
34.5764
 20
-5.85271
 30
0.0
 11
36.2836
 21
-11.4805
 31
0.0
  0
LINE
  5
1D9
  8
0
 10
36.2836
 20
-11.4805
 30
0.0
 11
39.0559
 21
-16.6671
 31
0.0
  0
LINE
  5
1DA
  8
0
 10
39.0559
 20
-16.6671
 30
0.0
 11
42.7868
 21
-21.2132
 31
0.0
  0
LINE
  5
1DB
  8
0
 10
42.7868
 20
-21.2132
 30
0.0
 11
47.3329
 21
-24.9441
 31
0.0
  0
LINE
  5
1DC
  8
0
 10
47.3329
 20
-24.9441
 30
0.0
 11
52.5195
 21
-27.7164
 31
0.0
  0
LINE
  5
1DD
  8
0
 10
52.5195
 20
-27.7164
 30
0.0
 11
58.1473
 21
-29.4236
 31
0.0
  0
LINE
  5
1DE
  8
0
 10
58.1473
 20
-29.4236
 30
0.0
 11
64.0
 21
-30.0
 31
0.0
  0
LINE
  5
1DF
  8
0
 10
64.0
 20
-30.0
 30
0.0
 11
69.8527
 21
-29.4236
 31
0.0
  0
LINE
  5
1E0
  8
0
 10
62.7319
 20
-6.37509
 30
0.0
 11
61.5126
 21
-6.0052
 31
0.0
  0
LINE
  5
1E1
  8
0
 10
61.5126
 20
-6.0052
 30
0.0
 11
60.3888
 21
-5.40454
 31
0.0
  0
LINE
  5
1E2
  8
0
 10
60.3888
 20
-5.40454
 30
0.0
 11
59.4038
 21
-4.59619
 31
0.0
  0
LINE
  5
1E3
  8
0
 10
59.4038
 20
-4.59619
 30
0.0
 11
58.5954
 21
-3.61121
 31
0.0
  0
LINE
  5
1E4
  8
0
 10
58.5954
 20
-3.61121
 30
0.0
 11
57.9948
 21
-2.48744
 31
0.0
  0
LINE
  5
1E5
  8
0
 10
57.9948
 20
-2.48744
 30
0.0
 11
57.6249
 21
-1.26808
 31
0.0
  0
LINE
  5
1E6
  8
0
 10
57.6249
 20
-1.26808
 30
0.0
 11
57.5
 21
0.0
 31
0.0
  0
LINE
  5
1E7
  8
0
 10
57.5
 20
0.0
 30
0.0
 11
57.6249
 21
1.26808
 31
0.0
  0
LINE
  5
1E8
  8
0
 10
57.6249
 20
1.26808
 30
0.0
 11
57.9948
 21
2.48744
 31
0.0
  0
LINE
  5
1E9
  8
0
 10
57.9948
 20
2.48744
 30
0.0
 11
58.5954
 21
3.61121
 31
0.0
  0
LINE
  5
1EA
  8
0
 10
58.5954
 20
3.61121
 30
0.0
 11
59.4038
 21
4.59619
 31
0.0
  0
LINE
  5
1EB
  8
0
 10
59.4038
 20
4.59619
 30
0.0
 11
60.3888
 21
5.40454
 31
0.0
  0
LINE
  5
1EC
  8
0
 10
60.3888
 20
5.40454
 30
0.0
 11
61.5126
 21
6.0052
 31
0.0
  0
LINE
  5
1ED
  8
0
 10
61.5126
 20
6.0052
 30
0.0
 11
62.7319
 21
6.37509
 31
0.0
  0
LINE
  5
1EE
  8
0
 10
62.7319
 20
6.37509
 30
0.0
 11
64.0
 21
6.5
 31
0.0
  0
LINE
  5
1EF
  8
0
 10
64.0
 20
6.5
 30
0.0
 11
65.2681
 21
6.37509
 31
0.0
  0
LINE
  5
1F0
  8
0
 10
65.2681
 20
6.37509
 30
0.0
 11
66.4874
 21
6.0052
 31
0.0
  0
LINE
  5
1F1
  8
0
 10
66.4874
 20
6.0052
 30
0.0
 11
67.6112
 21
5.40454
 31
0.0
  0
LINE
  5
1F2
  8
0
 10
67.6112
 20
5.40454
 30
0.0
 11
68.5962
 21
4.59619
 31
0.0
  0
LINE
  5
1F3
  8
0
 10
68.5962
 20
4.59619
 30
0.0
 11
69.4046
 21
3.61121
 31
0.0
  0
LINE
  5
1F4
  8
0
 10
69.4046
 20
3.61121
 30
0.0
 11
70.0052
 21
2.48744
 31
0.0
  0
LINE
  5
1F5
  8
0
 10
70.0052
 20
2.48744
 30
0.0
 11
70.3751
 21
1.26808
 31
0.0
  0
LINE
  5
1F6
  8
0
 10
70.3751
 20
1.26808
 30
0.0
 11
70.5
 21
0.0
 31
0.0
  0
LINE
  5
1F7
  8
0
 10
70.5
 20
0.0
 30
0.0
 11
70.3751
 21
-1.26808
 31
0.0
  0
LINE
  5
1F8
  8
0
 10
70.3751
 20
-1.26808
 30
0.0
 11
70.0052
 21
-2.48744
 31
0.0
  0
LINE
  5
1F9
  8
0
 10
70.0052
 20
-2.48744
 30
0.0
 11
69.4046
 21
-3.61121
 31
0.0
  0
LINE
  5
1FA
  8
0
 10
69.4046
 20
-3.61121
 30
0.0
 11
68.5962
 21
-4.59619
 31
0.0
  0
LINE
  5
1FB
  8
0
 10
68.5962
 20
-4.59619
 30
0.0
 11
67.6112
 21
-5.40454
 31
0.0
  0
LINE
  5
1FC
  8
0
 10
67.6112
 20
-5.40454
 30
0.0
 11
66.4874
 21
-6.0052
 31
0.0
  0
LINE
  5
1FD
  8
0
 10
66.4874
 20
-6.0052
 30
0.0
 11
65.2681
 21
-6.37509
 31
0.0
  0
LINE
  5
1FE
  8
0
 10
65.2681
 20
-6.37509
 30
0.0
 11
64.0
 21
-6.5
 31
0.0
  0
LINE
  5
1FF
  8
0
 10
64.0
 20
-6.5
 30
0.0
 11
62.7319
 21
-6.37509
 31
0.0
  0
TEXT
  5
235
  8
0
 62
5
 10
0.0
 20
0.0
 30
0.0
 40
3.0
  1
2
  7
OpenSans-Regular
  0
ENDSEC
  0
EOF
