  0
SECTION
  2
HEADER
  9
$ACADVER
  1
AC1009
  9
$DWGCODEPAGE
  3
ANSI_1252
  9
$INSBASE
 10
0.0
 20
0.0
 30
0.0
  9
$EXTMIN
 10
1e+20
 20
1e+20
 30
1e+20
  9
$EXTMAX
 10
-1e+20
 20
-1e+20
 30
-1e+20
  9
$LIMMIN
 10
0.0
 20
0.0
  9
$LIMMAX
 10
420.0
 20
297.0
  9
$ORTHOMODE
 70
0
  9
$REGENMODE
 70
1
  9
$FILLMODE
 70
1
  9
$DRAGMODE
 70
2
  9
$QTEXTMODE
 70
0
  9
$MIRRTEXT
 70
1
  9
$OSMODE
 70
20583
  9
$LTSCALE
 40
1.0
  9
$ATTMODE
 70
1
  9
$TEXTSIZE
 40
2.5
  9
$TRACEWID
 40
1.0
  9
$TEXTSTYLE
  7
Standard
  9
$CLAYER
  8
0
  9
$CELTYPE
  6
ByLayer
  9
$CECOLOR
 62
256
  9
$DIMSCALE
 40
1.0
  9
$DIMASZ
 40
2.5
  9
$DIMEXO
 40
0.625
  9
$DIMDLI
 40
3.75
  9
$DIMRND
 40
0.0
  9
$DIMDLE
 40
0.0
  9
$DIMEXE
 40
1.25
  9
$DIMTP
 40
0.0
  9
$DIMTM
 40
0.0
  9
$DIMTXT
 40
2.5
  9
$DIMCEN
 40
2.5
  9
$DIMTSZ
 40
0.0
  9
$DIMTOL
 70
0
  9
$DIMLIM
 70
0
  9
$DIMTIH
 70
0
  9
$DIMTOH
 70
0
  9
$DIMSE1
 70
0
  9
$DIMSE2
 70
0
  9
$DIMTAD
 70
1
  9
$DIMZIN
 70
8
  9
$DIMBLK
  1

  9
$DIMASO
 70
1
  9
$DIMSHO
 70
1
  9
$DIMPOST
  1

  9
$DIMAPOST
  1

  9
$DIMALT
 70
0
  9
$DIMALTD
 70
3
  9
$DIMALTF
 40
0.03937007874
  9
$DIMLFAC
 40
1.0
  9
$DIMTOFL
 70
1
  9
$DIMTVP
 40
0.0
  9
$DIMTIX
 70
0
  9
$DIMSOXD
 70
0
  9
$DIMSAH
 70
0
  9
$DIMBLK1
  1

  9
$DIMBLK2
  1

  9
$DIMSTYLE
  2
ISO-25
  9
$DIMCLRD
 70
0
  9
$DIMCLRE
 70
0
  9
$DIMCLRT
 70
0
  9
$DIMTFAC
 40
1.0
  9
$DIMGAP
 40
0.625
  9
$COORDS
 70
1
  9
$ATTDIA
 70
0
  9
$ATTREQ
 70
1
  9
$HANDLING
 70
1
  9
$LUNITS
 70
2
  9
$LUPREC
 70
4
  9
$SKETCHINC
 40
1.0
  9
$FILLETRAD
 40
10.0
  9
$AUNITS
 70
0
  9
$AUPREC
 70
2
  9
$MENU
  1
.
  9
$ELEVATION
 40
0.0
  9
$PELEVATION
 40
0.0
  9
$THICKNESS
 40
0.0
  9
$LIMCHECK
 70
0
  9
$CHAMFERA
 40
0.0
  9
$CHAMFERB
 40
0.0
  9
$SKPOLY
 70
0
  9
$TDCREATE
 40
2459992.876724537
  9
$TDUPDATE
 40
2459992.876724537
  9
$TDINDWG
 40
0.0
  9
$TDUSRTIMER
 40
0.0
  9
$USRTIMER
 70
1
  9
$ANGBASE
 50
0.0
  9
$ANGDIR
 70
0
  9
$PDMODE
 70
0
  9
$PDSIZE
 40
0.0
  9
$PLINEWID
 40
0.0
  9
$SPLFRAME
 70
0
  9
$SPLINETYPE
 70
6
  9
$SPLINESEGS
 70
8
  9
$HANDSEED
  5
72D
  9
$SURFTAB1
 70
6
  9
$SURFTAB2
 70
6
  9
$SURFTYPE
 70
6
  9
$SURFU
 70
6
  9
$SURFV
 70
6
  9
$UCSNAME
  2

  9
$UCSORG
 10
0.0
 20
0.0
 30
0.0
  9
$UCSXDIR
 10
1.0
 20
0.0
 30
0.0
  9
$UCSYDIR
 10
0.0
 20
1.0
 30
0.0
  9
$PUCSNAME
  2

  9
$PUCSORG
 10
0.0
 20
0.0
 30
0.0
  9
$PUCSXDIR
 10
1.0
 20
0.0
 30
0.0
  9
$PUCSYDIR
 10
0.0
 20
1.0
 30
0.0
  9
$USERI1
 70
0
  9
$USERI2
 70
0
  9
$USERI3
 70
0
  9
$USERI4
 70
0
  9
$USERI5
 70
0
  9
$USERR1
 40
0.0
  9
$USERR2
 40
0.0
  9
$USERR3
 40
0.0
  9
$USERR4
 40
0.0
  9
$USERR5
 40
0.0
  9
$WORLDVIEW
 70
1
  9
$SHADEDGE
 70
3
  9
$SHADEDIF
 70
70
  9
$TILEMODE
 70
1
  9
$MAXACTVP
 70
64
  9
$PLIMCHECK
 70
0
  9
$PEXTMIN
 10
1e+20
 20
1e+20
 30
1e+20
  9
$PEXTMAX
 10
-1e+20
 20
-1e+20
 30
-1e+20
  9
$PLIMMIN
 10
0.0
 20
0.0
  9
$PLIMMAX
 10
420.0
 20
297.0
  9
$UNITMODE
 70
0
  9
$VISRETAIN
 70
1
  9
$PLINEGEN
 70
0
  9
$PSLTSCALE
 70
1
  0
ENDSEC
  0
SECTION
  2
TABLES
  0
TABLE
  2
VPORT
 70
1
  0
VPORT
  5
6FF
  2
*Active
 70
0
 10
0.0
 20
0.0
 11
1.0
 21
1.0
 12
0.0
 22
0.0
 13
0.0
 23
0.0
 14
0.5
 24
0.5
 15
0.5
 25
0.5
 16
0.0
 26
0.0
 36
1.0
 17
0.0
 27
0.0
 37
0.0
 40
1000.0
 41
1.34
 42
50.0
 43
0.0
 44
0.0
 50
0.0
 51
0.0
 71
0
 72
1000
 73
1
 74
3
 75
0
 76
0
 77
0
 78
0
  0
ENDTAB
  0
TABLE
  2
LTYPE
 70
3
  0
LTYPE
  5
700
  2
ByBlock
 70
0
  3

 72
65
 73
0
 40
0.0
  0
LTYPE
  5
701
  2
ByLayer
 70
0
  3

 72
65
 73
0
 40
0.0
  0
LTYPE
  5
702
  2
Continuous
 70
0
  3

 72
65
 73
0
 40
0.0
  0
ENDTAB
  0
TABLE
  2
LAYER
 70
2
  0
LAYER
  5
703
  2
0
 70
0
 62
7
  6
Continuous
  0
LAYER
  5
704
  2
Defpoints
 70
0
 62
7
  6
Continuous
  0
ENDTAB
  0
TABLE
  2
STYLE
 70
1
  0
STYLE
  5
705
  2
Standard
 70
0
 40
0.0
 41
1.0
 50
0.0
 71
0
 42
2.5
  3
txt
  4

  0
ENDTAB
  0
TABLE
  2
VIEW
 70
0
  0
ENDTAB
  0
TABLE
  2
UCS
 70
0
  0
ENDTAB
  0
TABLE
  2
APPID
 70
3
  0
APPID
  5
706
  2
ACAD
 70
0
  0
APPID
  5
70A
  2
HATCHBACKGROUNDCOLOR
 70
0
  0
APPID
  5
70B
  2
EZDXF
 70
0
  0
ENDTAB
  0
TABLE
  2
DIMSTYLE
 70
1
  0
DIMSTYLE
105
707
  2
Standard
 70
0
  3

  4

  5

  6

  7

 40
1.0
 41
2.5
 42
0.625
 43
3.75
 44
1.25
 45
0.0
 46
0.0
 47
0.0
 48
0.0
140
2.5
141
2.5
142
0.0
143
0.03937007874
144
1.0
145
0.0
146
1.0
147
0.625
 71
0
 72
0
 73
0
 74
0
 75
0
 76
0
 77
1
 78
8
170
0
171
3
172
1
173
0
174
0
175
0
176
0
177
0
178
0
  0
ENDTAB
  0
ENDSEC
  0
SECTION
  2
BLOCKS
  0
BLOCK
  5
6E0
  8
0
  2
$Model_Space
 70
0
 10
0.0
 20
0.0
 30
0.0
  3
$Model_Space
  1

1001
EZDXF
1000
WRITTEN_BY_EZDXF
1000
1.0.1 @ 2023-02-16T11:02:29.797200+00:00
  0
ENDBLK
  5
6E1
  8
0
  0
BLOCK
  5
6E2
  8
0
  2
$Paper_Space
 70
0
 10
0.0
 20
0.0
 30
0.0
  3
$Paper_Space
  1

  0
ENDBLK
  5
6E3
  8
0
  0
ENDSEC
  0
SECTION
  2
ENTITIES
  0
LINE
  5
100
  8
0
 10
85.675
 20
-75.7763
 30
0.0
 11
86.0659
 21
-75.041
 31
0.0
  0
LINE
  5
101
  8
0
 10
86.0659
 20
-75.041
 30
0.0
 11
86.4242
 21
-74.328
 31
0.0
  0
LINE
  5
102
  8
0
 10
86.4242
 20
-74.328
 30
0.0
 11
86.7511
 21
-73.6384
 31
0.0
  0
LINE
  5
103
  8
0
 10
86.7511
 20
-73.6384
 30
0.0
 11
87.0479
 21
-72.9733
 31
0.0
  0
LINE
  5
104
  8
0
 10
87.0479
 20
-72.9733
 30
0.0
 11
87.0476
 21
-72.9631
 31
0.0
  0
LINE
  5
105
  8
0
 10
87.0476
 20
-72.9631
 30
0.0
 11
87.753
 21
-72.9384
 31
0.0
  0
LINE
  5
106
  8
0
 10
87.753
 20
-72.9384
 30
0.0
 11
87.7534
 21
-72.9487
 31
0.0
  0
LINE
  5
107
  8
0
 10
87.7534
 20
-72.9487
 30
0.0
 11
88.0959
 21
-73.5915
 31
0.0
  0
LINE
  5
108
  8
0
 10
88.0959
 20
-73.5915
 30
0.0
 11
88.4701
 21
-74.2566
 31
0.0
  0
LINE
  5
109
  8
0
 10
88.4701
 20
-74.2566
 30
0.0
 11
88.8772
 21
-74.9428
 31
0.0
  0
LINE
  5
10A
  8
0
 10
88.8772
 20
-74.9428
 30
0.0
 11
89.3185
 21
-75.6491
 31
0.0
  0
LINE
  5
10B
  8
0
 10
89.3185
 20
-75.6491
 30
0.0
 11
89.7949
 21
-76.3741
 31
0.0
  0
LINE
  5
10C
  8
0
 10
89.7949
 20
-76.3741
 30
0.0
 11
90.588
 21
-76.3187
 31
0.0
  0
LINE
  5
10D
  8
0
 10
90.588
 20
-76.3187
 30
0.0
 11
90.9589
 21
-75.5344
 31
0.0
  0
LINE
  5
10E
  8
0
 10
90.9589
 20
-75.5344
 30
0.0
 11
91.2975
 21
-74.7736
 31
0.0
  0
LINE
  5
10F
  8
0
 10
91.2975
 20
-74.7736
 30
0.0
 11
91.6052
 21
-74.0373
 31
0.0
  0
LINE
  5
110
  8
0
 10
91.6052
 20
-74.0373
 30
0.0
 11
91.8832
 21
-73.3266
 31
0.0
  0
LINE
  5
111
  8
0
 10
91.8832
 20
-73.3266
 30
0.0
 11
92.1329
 21
-72.6424
 31
0.0
  0
LINE
  5
112
  8
0
 10
92.1329
 20
-72.6424
 30
0.0
 11
92.1319
 21
-72.6322
 31
0.0
  0
LINE
  5
113
  8
0
 10
92.1319
 20
-72.6322
 30
0.0
 11
92.8338
 21
-72.5584
 31
0.0
  0
LINE
  5
114
  8
0
 10
92.8338
 20
-72.5584
 30
0.0
 11
92.835
 21
-72.5686
 31
0.0
  0
LINE
  5
115
  8
0
 10
92.835
 20
-72.5686
 30
0.0
 11
93.2215
 21
-73.186
 31
0.0
  0
LINE
  5
116
  8
0
 10
93.2215
 20
-73.186
 30
0.0
 11
93.6412
 21
-73.8233
 31
0.0
  0
LINE
  5
117
  8
0
 10
93.6412
 20
-73.8233
 30
0.0
 11
94.0952
 21
-74.4795
 31
0.0
  0
LINE
  5
118
  8
0
 10
94.0952
 20
-74.4795
 30
0.0
 11
94.5846
 21
-75.1533
 31
0.0
  0
LINE
  5
119
  8
0
 10
94.5846
 20
-75.1533
 30
0.0
 11
95.1105
 21
-75.8434
 31
0.0
  0
LINE
  5
11A
  8
0
 10
95.1105
 20
-75.8434
 30
0.0
 11
95.8978
 21
-75.7327
 31
0.0
  0
LINE
  5
11B
  8
0
 10
95.8978
 20
-75.7327
 30
0.0
 11
96.213
 21
-74.9245
 31
0.0
  0
LINE
  5
11C
  8
0
 10
96.213
 20
-74.9245
 30
0.0
 11
96.4978
 21
-74.1419
 31
0.0
  0
LINE
  5
11D
  8
0
 10
96.4978
 20
-74.1419
 30
0.0
 11
96.7533
 21
-73.386
 31
0.0
  0
LINE
  5
11E
  8
0
 10
96.7533
 20
-73.386
 30
0.0
 11
96.9811
 21
-72.6576
 31
0.0
  0
LINE
  5
11F
  8
0
 10
96.9811
 20
-72.6576
 30
0.0
 11
97.1825
 21
-71.9576
 31
0.0
  0
LINE
  5
120
  8
0
 10
97.1825
 20
-71.9576
 30
0.0
 11
97.1808
 21
-71.9475
 31
0.0
  0
LINE
  5
121
  8
0
 10
97.1808
 20
-71.9475
 30
0.0
 11
97.8758
 21
-71.825
 31
0.0
  0
LINE
  5
122
  8
0
 10
97.8758
 20
-71.825
 30
0.0
 11
97.8776
 21
-71.8351
 31
0.0
  0
LINE
  5
123
  8
0
 10
97.8776
 20
-71.8351
 30
0.0
 11
98.3063
 21
-72.4239
 31
0.0
  0
LINE
  5
124
  8
0
 10
98.3063
 20
-72.4239
 30
0.0
 11
98.7694
 21
-73.0305
 31
0.0
  0
LINE
  5
125
  8
0
 10
98.7694
 20
-73.0305
 30
0.0
 11
99.2681
 21
-73.6534
 31
0.0
  0
LINE
  5
126
  8
0
 10
99.2681
 20
-73.6534
 30
0.0
 11
99.8033
 21
-74.2914
 31
0.0
  0
LINE
  5
127
  8
0
 10
99.8033
 20
-74.2914
 30
0.0
 11
100.376
 21
-74.9431
 31
0.0
  0
LINE
  5
128
  8
0
 10
100.376
 20
-74.9431
 30
0.0
 11
101.154
 21
-74.7778
 31
0.0
  0
LINE
  5
129
  8
0
 10
101.154
 20
-74.7778
 30
0.0
 11
101.412
 21
-73.9495
 31
0.0
  0
LINE
  5
12A
  8
0
 10
101.412
 20
-73.9495
 30
0.0
 11
101.641
 21
-73.149
 31
0.0
  0
LINE
  5
12B
  8
0
 10
101.641
 20
-73.149
 30
0.0
 11
101.844
 21
-72.3771
 31
0.0
  0
LINE
  5
12C
  8
0
 10
101.844
 20
-72.3771
 30
0.0
 11
102.02
 21
-71.6346
 31
0.0
  0
LINE
  5
12D
  8
0
 10
102.02
 20
-71.6346
 30
0.0
 11
102.172
 21
-70.9223
 31
0.0
  0
LINE
  5
12E
  8
0
 10
102.172
 20
-70.9223
 30
0.0
 11
102.17
 21
-70.9123
 31
0.0
  0
LINE
  5
12F
  8
0
 10
102.17
 20
-70.9123
 30
0.0
 11
102.854
 21
-70.7416
 31
0.0
  0
LINE
  5
130
  8
0
 10
102.854
 20
-70.7416
 30
0.0
 11
102.857
 21
-70.7515
 31
0.0
  0
LINE
  5
131
  8
0
 10
102.857
 20
-70.7515
 30
0.0
 11
103.326
 21
-71.3091
 31
0.0
  0
LINE
  5
132
  8
0
 10
103.326
 20
-71.3091
 30
0.0
 11
103.83
 21
-71.8818
 31
0.0
  0
LINE
  5
133
  8
0
 10
103.83
 20
-71.8818
 30
0.0
 11
104.371
 21
-72.4684
 31
0.0
  0
LINE
  5
134
  8
0
 10
104.371
 20
-72.4684
 30
0.0
 11
104.949
 21
-73.0675
 31
0.0
  0
LINE
  5
135
  8
0
 10
104.949
 20
-73.0675
 30
0.0
 11
105.566
 21
-73.6777
 31
0.0
  0
LINE
  5
136
  8
0
 10
105.566
 20
-73.6777
 30
0.0
 11
106.33
 21
-73.4585
 31
0.0
  0
LINE
  5
137
  8
0
 10
106.33
 20
-73.4585
 30
0.0
 11
106.53
 21
-72.6143
 31
0.0
  0
LINE
  5
138
  8
0
 10
106.53
 20
-72.6143
 30
0.0
 11
106.703
 21
-71.7997
 31
0.0
  0
LINE
  5
139
  8
0
 10
106.703
 20
-71.7997
 30
0.0
 11
106.851
 21
-71.0155
 31
0.0
  0
LINE
  5
13A
  8
0
 10
106.851
 20
-71.0155
 30
0.0
 11
106.975
 21
-70.2626
 31
0.0
  0
LINE
  5
13B
  8
0
 10
106.975
 20
-70.2626
 30
0.0
 11
107.077
 21
-69.5414
 31
0.0
  0
LINE
  5
13C
  8
0
 10
107.077
 20
-69.5414
 30
0.0
 11
107.074
 21
-69.5316
 31
0.0
  0
LINE
  5
13D
  8
0
 10
107.074
 20
-69.5316
 30
0.0
 11
107.745
 21
-69.3135
 31
0.0
  0
LINE
  5
13E
  8
0
 10
107.745
 20
-69.3135
 30
0.0
 11
107.748
 21
-69.3233
 31
0.0
  0
LINE
  5
13F
  8
0
 10
107.748
 20
-69.3233
 30
0.0
 11
108.255
 21
-69.8468
 31
0.0
  0
LINE
  5
140
  8
0
 10
108.255
 20
-69.8468
 30
0.0
 11
108.798
 21
-70.3829
 31
0.0
  0
LINE
  5
141
  8
0
 10
108.798
 20
-70.3829
 30
0.0
 11
109.378
 21
-70.9304
 31
0.0
  0
LINE
  5
142
  8
0
 10
109.378
 20
-70.9304
 30
0.0
 11
109.997
 21
-71.4877
 31
0.0
  0
LINE
  5
143
  8
0
 10
109.997
 20
-71.4877
 30
0.0
 11
110.655
 21
-72.0533
 31
0.0
  0
LINE
  5
144
  8
0
 10
110.655
 20
-72.0533
 30
0.0
 11
111.402
 21
-71.7814
 31
0.0
  0
LINE
  5
145
  8
0
 10
111.402
 20
-71.7814
 30
0.0
 11
111.542
 21
-70.9252
 31
0.0
  0
LINE
  5
146
  8
0
 10
111.542
 20
-70.9252
 30
0.0
 11
111.658
 21
-70.1006
 31
0.0
  0
LINE
  5
147
  8
0
 10
111.658
 20
-70.1006
 30
0.0
 11
111.751
 21
-69.308
 31
0.0
  0
LINE
  5
148
  8
0
 10
111.751
 20
-69.308
 30
0.0
 11
111.822
 21
-68.5482
 31
0.0
  0
LINE
  5
149
  8
0
 10
111.822
 20
-68.5482
 30
0.0
 11
111.874
 21
-67.8217
 31
0.0
  0
LINE
  5
14A
  8
0
 10
111.874
 20
-67.8217
 30
0.0
 11
111.87
 21
-67.8122
 31
0.0
  0
LINE
  5
14B
  8
0
 10
111.87
 20
-67.8122
 30
0.0
 11
112.524
 21
-67.5478
 31
0.0
  0
LINE
  5
14C
  8
0
 10
112.524
 20
-67.5478
 30
0.0
 11
112.528
 21
-67.5573
 31
0.0
  0
LINE
  5
14D
  8
0
 10
112.528
 20
-67.5573
 30
0.0
 11
113.07
 21
-68.0442
 31
0.0
  0
LINE
  5
14E
  8
0
 10
113.07
 20
-68.0442
 30
0.0
 11
113.649
 21
-68.5411
 31
0.0
  0
LINE
  5
14F
  8
0
 10
113.649
 20
-68.5411
 30
0.0
 11
114.267
 21
-69.0468
 31
0.0
  0
LINE
  5
150
  8
0
 10
114.267
 20
-69.0468
 30
0.0
 11
114.923
 21
-69.5596
 31
0.0
  0
LINE
  5
151
  8
0
 10
114.923
 20
-69.5596
 30
0.0
 11
115.618
 21
-70.0779
 31
0.0
  0
LINE
  5
152
  8
0
 10
115.618
 20
-70.0779
 30
0.0
 11
116.345
 21
-69.7546
 31
0.0
  0
LINE
  5
153
  8
0
 10
116.345
 20
-69.7546
 30
0.0
 11
116.425
 21
-68.8907
 31
0.0
  0
LINE
  5
154
  8
0
 10
116.425
 20
-68.8907
 30
0.0
 11
116.483
 21
-68.06
 31
0.0
  0
LINE
  5
155
  8
0
 10
116.483
 20
-68.06
 30
0.0
 11
116.52
 21
-67.2629
 31
0.0
  0
LINE
  5
156
  8
0
 10
116.52
 20
-67.2629
 30
0.0
 11
116.538
 21
-66.4999
 31
0.0
  0
LINE
  5
157
  8
0
 10
116.538
 20
-66.4999
 30
0.0
 11
116.539
 21
-65.7716
 31
0.0
  0
LINE
  5
158
  8
0
 10
116.539
 20
-65.7716
 30
0.0
 11
116.535
 21
-65.7624
 31
0.0
  0
LINE
  5
159
  8
0
 10
116.535
 20
-65.7624
 30
0.0
 11
117.169
 21
-65.453
 31
0.0
  0
LINE
  5
15A
  8
0
 10
117.169
 20
-65.453
 30
0.0
 11
117.174
 21
-65.4622
 31
0.0
  0
LINE
  5
15B
  8
0
 10
117.174
 20
-65.4622
 30
0.0
 11
117.748
 21
-65.9101
 31
0.0
  0
LINE
  5
15C
  8
0
 10
117.748
 20
-65.9101
 30
0.0
 11
118.36
 21
-66.3655
 31
0.0
  0
LINE
  5
15D
  8
0
 10
118.36
 20
-66.3655
 30
0.0
 11
119.011
 21
-66.8268
 31
0.0
  0
LINE
  5
15E
  8
0
 10
119.011
 20
-66.8268
 30
0.0
 11
119.702
 21
-67.2926
 31
0.0
  0
LINE
  5
15F
  8
0
 10
119.702
 20
-67.2926
 30
0.0
 11
120.432
 21
-67.7611
 31
0.0
  0
LINE
  5
160
  8
0
 10
120.432
 20
-67.7611
 30
0.0
 11
121.134
 21
-67.3879
 31
0.0
  0
LINE
  5
161
  8
0
 10
121.134
 20
-67.3879
 30
0.0
 11
121.154
 21
-66.5205
 31
0.0
  0
LINE
  5
162
  8
0
 10
121.154
 20
-66.5205
 30
0.0
 11
121.154
 21
-65.6877
 31
0.0
  0
LINE
  5
163
  8
0
 10
121.154
 20
-65.6877
 30
0.0
 11
121.135
 21
-64.89
 31
0.0
  0
LINE
  5
164
  8
0
 10
121.135
 20
-64.89
 30
0.0
 11
121.1
 21
-64.1277
 31
0.0
  0
LINE
  5
165
  8
0
 10
121.1
 20
-64.1277
 30
0.0
 11
121.05
 21
-63.4011
 31
0.0
  0
LINE
  5
166
  8
0
 10
121.05
 20
-63.4011
 30
0.0
 11
121.045
 21
-63.3922
 31
0.0
  0
LINE
  5
167
  8
0
 10
121.045
 20
-63.3922
 30
0.0
 11
121.656
 21
-63.0393
 31
0.0
  0
LINE
  5
168
  8
0
 10
121.656
 20
-63.0393
 30
0.0
 11
121.661
 21
-63.0481
 31
0.0
  0
LINE
  5
169
  8
0
 10
121.661
 20
-63.0481
 30
0.0
 11
122.265
 21
-63.4549
 31
0.0
  0
LINE
  5
16A
  8
0
 10
122.265
 20
-63.4549
 30
0.0
 11
122.908
 21
-63.8664
 31
0.0
  0
LINE
  5
16B
  8
0
 10
122.908
 20
-63.8664
 30
0.0
 11
123.59
 21
-64.2812
 31
0.0
  0
LINE
  5
16C
  8
0
 10
123.59
 20
-64.2812
 30
0.0
 11
124.311
 21
-64.6977
 31
0.0
  0
LINE
  5
16D
  8
0
 10
124.311
 20
-64.6977
 30
0.0
 11
125.072
 21
-65.1142
 31
0.0
  0
LINE
  5
16E
  8
0
 10
125.072
 20
-65.1142
 30
0.0
 11
125.746
 21
-64.6929
 31
0.0
  0
LINE
  5
16F
  8
0
 10
125.746
 20
-64.6929
 30
0.0
 11
125.705
 21
-63.8263
 31
0.0
  0
LINE
  5
170
  8
0
 10
125.705
 20
-63.8263
 30
0.0
 11
125.647
 21
-62.9955
 31
0.0
  0
LINE
  5
171
  8
0
 10
125.647
 20
-62.9955
 30
0.0
 11
125.573
 21
-62.201
 31
0.0
  0
LINE
  5
172
  8
0
 10
125.573
 20
-62.201
 30
0.0
 11
125.485
 21
-61.443
 31
0.0
  0
LINE
  5
173
  8
0
 10
125.485
 20
-61.443
 30
0.0
 11
125.384
 21
-60.7216
 31
0.0
  0
LINE
  5
174
  8
0
 10
125.384
 20
-60.7216
 30
0.0
 11
125.379
 21
-60.7131
 31
0.0
  0
LINE
  5
175
  8
0
 10
125.379
 20
-60.7131
 30
0.0
 11
125.964
 21
-60.3185
 31
0.0
  0
LINE
  5
176
  8
0
 10
125.964
 20
-60.3185
 30
0.0
 11
125.97
 21
-60.3269
 31
0.0
  0
LINE
  5
177
  8
0
 10
125.97
 20
-60.3269
 30
0.0
 11
126.601
 21
-60.6905
 31
0.0
  0
LINE
  5
178
  8
0
 10
126.601
 20
-60.6905
 30
0.0
 11
127.27
 21
-61.0563
 31
0.0
  0
LINE
  5
179
  8
0
 10
127.27
 20
-61.0563
 30
0.0
 11
127.979
 21
-61.4225
 31
0.0
  0
LINE
  5
17A
  8
0
 10
127.979
 20
-61.4225
 30
0.0
 11
128.728
 21
-61.7876
 31
0.0
  0
LINE
  5
17B
  8
0
 10
128.728
 20
-61.7876
 30
0.0
 11
129.516
 21
-62.15
 31
0.0
  0
LINE
  5
17C
  8
0
 10
129.516
 20
-62.15
 30
0.0
 11
130.159
 21
-61.6827
 31
0.0
  0
LINE
  5
17D
  8
0
 10
130.159
 20
-61.6827
 30
0.0
 11
130.058
 21
-60.821
 31
0.0
  0
LINE
  5
17E
  8
0
 10
130.058
 20
-60.821
 30
0.0
 11
129.942
 21
-59.9964
 31
0.0
  0
LINE
  5
17F
  8
0
 10
129.942
 20
-59.9964
 30
0.0
 11
129.813
 21
-59.209
 31
0.0
  0
LINE
  5
180
  8
0
 10
129.813
 20
-59.209
 30
0.0
 11
129.672
 21
-58.4589
 31
0.0
  0
LINE
  5
181
  8
0
 10
129.672
 20
-58.4589
 30
0.0
 11
129.521
 21
-57.7464
 31
0.0
  0
LINE
  5
182
  8
0
 10
129.521
 20
-57.7464
 30
0.0
 11
129.515
 21
-57.7383
 31
0.0
  0
LINE
  5
183
  8
0
 10
129.515
 20
-57.7383
 30
0.0
 11
130.071
 21
-57.3038
 31
0.0
  0
LINE
  5
184
  8
0
 10
130.071
 20
-57.3038
 30
0.0
 11
130.078
 21
-57.3118
 31
0.0
  0
LINE
  5
185
  8
0
 10
130.078
 20
-57.3118
 30
0.0
 11
130.733
 21
-57.6305
 31
0.0
  0
LINE
  5
186
  8
0
 10
130.733
 20
-57.6305
 30
0.0
 11
131.426
 21
-57.9486
 31
0.0
  0
LINE
  5
187
  8
0
 10
131.426
 20
-57.9486
 30
0.0
 11
132.159
 21
-58.2645
 31
0.0
  0
LINE
  5
188
  8
0
 10
132.159
 20
-58.2645
 30
0.0
 11
132.931
 21
-58.5766
 31
0.0
  0
LINE
  5
189
  8
0
 10
132.931
 20
-58.5766
 30
0.0
 11
133.743
 21
-58.8831
 31
0.0
  0
LINE
  5
18A
  8
0
 10
133.743
 20
-58.8831
 30
0.0
 11
134.352
 21
-58.3721
 31
0.0
  0
LINE
  5
18B
  8
0
 10
134.352
 20
-58.3721
 30
0.0
 11
134.191
 21
-57.5195
 31
0.0
  0
LINE
  5
18C
  8
0
 10
134.191
 20
-57.5195
 30
0.0
 11
134.018
 21
-56.705
 31
0.0
  0
LINE
  5
18D
  8
0
 10
134.018
 20
-56.705
 30
0.0
 11
133.834
 21
-55.9285
 31
0.0
  0
LINE
  5
18E
  8
0
 10
133.834
 20
-55.9285
 30
0.0
 11
133.641
 21
-55.1901
 31
0.0
  0
LINE
  5
18F
  8
0
 10
133.641
 20
-55.1901
 30
0.0
 11
133.441
 21
-54.4898
 31
0.0
  0
LINE
  5
190
  8
0
 10
133.441
 20
-54.4898
 30
0.0
 11
133.434
 21
-54.4821
 31
0.0
  0
LINE
  5
191
  8
0
 10
133.434
 20
-54.4821
 30
0.0
 11
133.958
 21
-54.0099
 31
0.0
  0
LINE
  5
192
  8
0
 10
133.958
 20
-54.0099
 30
0.0
 11
133.965
 21
-54.0175
 31
0.0
  0
LINE
  5
193
  8
0
 10
133.965
 20
-54.0175
 30
0.0
 11
134.641
 21
-54.2897
 31
0.0
  0
LINE
  5
194
  8
0
 10
134.641
 20
-54.2897
 30
0.0
 11
135.355
 21
-54.5587
 31
0.0
  0
LINE
  5
195
  8
0
 10
135.355
 20
-54.5587
 30
0.0
 11
136.108
 21
-54.8227
 31
0.0
  0
LINE
  5
196
  8
0
 10
136.108
 20
-54.8227
 30
0.0
 11
136.9
 21
-55.0801
 31
0.0
  0
LINE
  5
197
  8
0
 10
136.9
 20
-55.0801
 30
0.0
 11
137.731
 21
-55.3293
 31
0.0
  0
LINE
  5
198
  8
0
 10
137.731
 20
-55.3293
 30
0.0
 11
138.303
 21
-54.777
 31
0.0
  0
LINE
  5
199
  8
0
 10
138.303
 20
-54.777
 30
0.0
 11
138.083
 21
-53.9378
 31
0.0
  0
LINE
  5
19A
  8
0
 10
138.083
 20
-53.9378
 30
0.0
 11
137.853
 21
-53.1373
 31
0.0
  0
LINE
  5
19B
  8
0
 10
137.853
 20
-53.1373
 30
0.0
 11
137.616
 21
-52.3755
 31
0.0
  0
LINE
  5
19C
  8
0
 10
137.616
 20
-52.3755
 30
0.0
 11
137.372
 21
-51.6524
 31
0.0
  0
LINE
  5
19D
  8
0
 10
137.372
 20
-51.6524
 30
0.0
 11
137.123
 21
-50.9677
 31
0.0
  0
LINE
  5
19E
  8
0
 10
137.123
 20
-50.9677
 30
0.0
 11
137.116
 21
-50.9606
 31
0.0
  0
LINE
  5
19F
  8
0
 10
137.116
 20
-50.9606
 30
0.0
 11
137.606
 21
-50.4529
 31
0.0
  0
LINE
  5
1A0
  8
0
 10
137.606
 20
-50.4529
 30
0.0
 11
137.614
 21
-50.46
 31
0.0
  0
LINE
  5
1A1
  8
0
 10
137.614
 20
-50.46
 30
0.0
 11
138.307
 21
-50.6844
 31
0.0
  0
LINE
  5
1A2
  8
0
 10
138.307
 20
-50.6844
 30
0.0
 11
139.038
 21
-50.9029
 31
0.0
  0
LINE
  5
1A3
  8
0
 10
139.038
 20
-50.9029
 30
0.0
 11
139.807
 21
-51.1137
 31
0.0
  0
LINE
  5
1A4
  8
0
 10
139.807
 20
-51.1137
 30
0.0
 11
140.615
 21
-51.3153
 31
0.0
  0
LINE
  5
1A5
  8
0
 10
140.615
 20
-51.3153
 30
0.0
 11
141.462
 21
-51.5059
 31
0.0
  0
LINE
  5
1A6
  8
0
 10
141.462
 20
-51.5059
 30
0.0
 11
141.994
 21
-50.9151
 31
0.0
  0
LINE
  5
1A7
  8
0
 10
141.994
 20
-50.9151
 30
0.0
 11
141.716
 21
-50.0932
 31
0.0
  0
LINE
  5
1A8
  8
0
 10
141.716
 20
-50.0932
 30
0.0
 11
141.431
 21
-49.3107
 31
0.0
  0
LINE
  5
1A9
  8
0
 10
141.431
 20
-49.3107
 30
0.0
 11
141.141
 21
-48.5674
 31
0.0
  0
LINE
  5
1AA
  8
0
 10
141.141
 20
-48.5674
 30
0.0
 11
140.847
 21
-47.863
 31
0.0
  0
LINE
  5
1AB
  8
0
 10
140.847
 20
-47.863
 30
0.0
 11
140.551
 21
-47.1974
 31
0.0
  0
LINE
  5
1AC
  8
0
 10
140.551
 20
-47.1974
 30
0.0
 11
140.544
 21
-47.1908
 31
0.0
  0
LINE
  5
1AD
  8
0
 10
140.544
 20
-47.1908
 30
0.0
 11
140.997
 21
-46.6501
 31
0.0
  0
LINE
  5
1AE
  8
0
 10
140.997
 20
-46.6501
 30
0.0
 11
141.005
 21
-46.6566
 31
0.0
  0
LINE
  5
1AF
  8
0
 10
141.005
 20
-46.6566
 30
0.0
 11
141.712
 21
-46.8322
 31
0.0
  0
LINE
  5
1B0
  8
0
 10
141.712
 20
-46.8322
 30
0.0
 11
142.457
 21
-46.9991
 31
0.0
  0
LINE
  5
1B1
  8
0
 10
142.457
 20
-46.9991
 30
0.0
 11
143.239
 21
-47.1558
 31
0.0
  0
LINE
  5
1B2
  8
0
 10
143.239
 20
-47.1558
 30
0.0
 11
144.059
 21
-47.3005
 31
0.0
  0
LINE
  5
1B3
  8
0
 10
144.059
 20
-47.3005
 30
0.0
 11
144.917
 21
-47.4316
 31
0.0
  0
LINE
  5
1B4
  8
0
 10
144.917
 20
-47.4316
 30
0.0
 11
145.406
 21
-46.8051
 31
0.0
  0
LINE
  5
1B5
  8
0
 10
145.406
 20
-46.8051
 30
0.0
 11
145.072
 21
-46.0047
 31
0.0
  0
LINE
  5
1B6
  8
0
 10
145.072
 20
-46.0047
 30
0.0
 11
144.733
 21
-45.2439
 31
0.0
  0
LINE
  5
1B7
  8
0
 10
144.733
 20
-45.2439
 30
0.0
 11
144.392
 21
-44.5226
 31
0.0
  0
LINE
  5
1B8
  8
0
 10
144.392
 20
-44.5226
 30
0.0
 11
144.049
 21
-43.8405
 31
0.0
  0
LINE
  5
1B9
  8
0
 10
144.049
 20
-43.8405
 30
0.0
 11
143.708
 21
-43.1971
 31
0.0
  0
LINE
  5
1BA
  8
0
 10
143.708
 20
-43.1971
 30
0.0
 11
143.7
 21
-43.191
 31
0.0
  0
LINE
  5
1BB
  8
0
 10
143.7
 20
-43.191
 30
0.0
 11
144.115
 21
-42.62
 31
0.0
  0
LINE
  5
1BC
  8
0
 10
144.115
 20
-42.62
 30
0.0
 11
144.123
 21
-42.626
 31
0.0
  0
LINE
  5
1BD
  8
0
 10
144.123
 20
-42.626
 30
0.0
 11
144.84
 21
-42.7518
 31
0.0
  0
LINE
  5
1BE
  8
0
 10
144.84
 20
-42.7518
 30
0.0
 11
145.595
 21
-42.8664
 31
0.0
  0
LINE
  5
1BF
  8
0
 10
145.595
 20
-42.8664
 30
0.0
 11
146.386
 21
-42.9681
 31
0.0
  0
LINE
  5
1C0
  8
0
 10
146.386
 20
-42.9681
 30
0.0
 11
147.214
 21
-43.0552
 31
0.0
  0
LINE
  5
1C1
  8
0
 10
147.214
 20
-43.0552
 30
0.0
 11
148.079
 21
-43.1262
 31
0.0
  0
LINE
  5
1C2
  8
0
 10
148.079
 20
-43.1262
 30
0.0
 11
148.524
 21
-42.4671
 31
0.0
  0
LINE
  5
1C3
  8
0
 10
148.524
 20
-42.4671
 30
0.0
 11
148.134
 21
-41.6919
 31
0.0
  0
LINE
  5
1C4
  8
0
 10
148.134
 20
-41.6919
 30
0.0
 11
147.743
 21
-40.9567
 31
0.0
  0
LINE
  5
1C5
  8
0
 10
147.743
 20
-40.9567
 30
0.0
 11
147.352
 21
-40.261
 31
0.0
  0
LINE
  5
1C6
  8
0
 10
147.352
 20
-40.261
 30
0.0
 11
146.963
 21
-39.6043
 31
0.0
  0
LINE
  5
1C7
  8
0
 10
146.963
 20
-39.6043
 30
0.0
 11
146.578
 21
-38.9863
 31
0.0
  0
LINE
  5
1C8
  8
0
 10
146.578
 20
-38.9863
 30
0.0
 11
146.569
 21
-38.9808
 31
0.0
  0
LINE
  5
1C9
  8
0
 10
146.569
 20
-38.9808
 30
0.0
 11
146.943
 21
-38.3823
 31
0.0
  0
LINE
  5
1CA
  8
0
 10
146.943
 20
-38.3823
 30
0.0
 11
146.952
 21
-38.3877
 31
0.0
  0
LINE
  5
1CB
  8
0
 10
146.952
 20
-38.3877
 30
0.0
 11
147.676
 21
-38.4632
 31
0.0
  0
LINE
  5
1CC
  8
0
 10
147.676
 20
-38.4632
 30
0.0
 11
148.437
 21
-38.5249
 31
0.0
  0
LINE
  5
1CD
  8
0
 10
148.437
 20
-38.5249
 30
0.0
 11
149.234
 21
-38.5711
 31
0.0
  0
LINE
  5
1CE
  8
0
 10
149.234
 20
-38.5711
 30
0.0
 11
150.066
 21
-38.6002
 31
0.0
  0
LINE
  5
1CF
  8
0
 10
150.066
 20
-38.6002
 30
0.0
 11
150.933
 21
-38.6107
 31
0.0
  0
LINE
  5
1D0
  8
0
 10
150.933
 20
-38.6107
 30
0.0
 11
151.331
 21
-37.9222
 31
0.0
  0
LINE
  5
1D1
  8
0
 10
151.331
 20
-37.9222
 30
0.0
 11
150.888
 21
-37.1761
 31
0.0
  0
LINE
  5
1D2
  8
0
 10
150.888
 20
-37.1761
 30
0.0
 11
150.447
 21
-36.4699
 31
0.0
  0
LINE
  5
1D3
  8
0
 10
150.447
 20
-36.4699
 30
0.0
 11
150.008
 21
-35.8031
 31
0.0
  0
LINE
  5
1D4
  8
0
 10
150.008
 20
-35.8031
 30
0.0
 11
149.575
 21
-35.1752
 31
0.0
  0
LINE
  5
1D5
  8
0
 10
149.575
 20
-35.1752
 30
0.0
 11
149.147
 21
-34.5856
 31
0.0
  0
LINE
  5
1D6
  8
0
 10
149.147
 20
-34.5856
 30
0.0
 11
149.138
 21
-34.5807
 31
0.0
  0
LINE
  5
1D7
  8
0
 10
149.138
 20
-34.5807
 30
0.0
 11
149.469
 21
-33.9576
 31
0.0
  0
LINE
  5
1D8
  8
0
 10
149.469
 20
-33.9576
 30
0.0
 11
149.479
 21
-33.9624
 31
0.0
  0
LINE
  5
1D9
  8
0
 10
149.479
 20
-33.9624
 30
0.0
 11
150.206
 21
-33.9871
 31
0.0
  0
LINE
  5
1DA
  8
0
 10
150.206
 20
-33.9871
 30
0.0
 11
150.97
 21
-33.9956
 31
0.0
  0
LINE
  5
1DB
  8
0
 10
150.97
 20
-33.9956
 30
0.0
 11
151.767
 21
-33.9861
 31
0.0
  0
LINE
  5
1DC
  8
0
 10
151.767
 20
-33.9861
 30
0.0
 11
152.6
 21
-33.9572
 31
0.0
  0
LINE
  5
1DD
  8
0
 10
152.6
 20
-33.9572
 30
0.0
 11
153.466
 21
-33.9071
 31
0.0
  0
LINE
  5
1DE
  8
0
 10
153.466
 20
-33.9071
 30
0.0
 11
153.814
 21
-33.1925
 31
0.0
  0
LINE
  5
1DF
  8
0
 10
153.814
 20
-33.1925
 30
0.0
 11
153.321
 21
-32.4791
 31
0.0
  0
LINE
  5
1E0
  8
0
 10
153.321
 20
-32.4791
 30
0.0
 11
152.831
 21
-31.8055
 31
0.0
  0
LINE
  5
1E1
  8
0
 10
152.831
 20
-31.8055
 30
0.0
 11
152.347
 21
-31.1709
 31
0.0
  0
LINE
  5
1E2
  8
0
 10
152.347
 20
-31.1709
 30
0.0
 11
151.871
 21
-30.5748
 31
0.0
  0
LINE
  5
1E3
  8
0
 10
151.871
 20
-30.5748
 30
0.0
 11
151.403
 21
-30.0164
 31
0.0
  0
LINE
  5
1E4
  8
0
 10
151.403
 20
-30.0164
 30
0.0
 11
151.394
 21
-30.0122
 31
0.0
  0
LINE
  5
1E5
  8
0
 10
151.394
 20
-30.0122
 30
0.0
 11
151.681
 21
-29.3674
 31
0.0
  0
LINE
  5
1E6
  8
0
 10
151.681
 20
-29.3674
 30
0.0
 11
151.69
 21
-29.3716
 31
0.0
  0
LINE
  5
1E7
  8
0
 10
151.69
 20
-29.3716
 30
0.0
 11
152.418
 21
-29.3455
 31
0.0
  0
LINE
  5
1E8
  8
0
 10
152.418
 20
-29.3455
 30
0.0
 11
153.18
 21
-29.3007
 31
0.0
  0
LINE
  5
1E9
  8
0
 10
153.18
 20
-29.3007
 30
0.0
 11
153.975
 21
-29.2356
 31
0.0
  0
LINE
  5
1EA
  8
0
 10
153.975
 20
-29.2356
 30
0.0
 11
154.803
 21
-29.1487
 31
0.0
  0
LINE
  5
1EB
  8
0
 10
154.803
 20
-29.1487
 30
0.0
 11
155.664
 21
-29.0383
 31
0.0
  0
LINE
  5
1EC
  8
0
 10
155.664
 20
-29.0383
 30
0.0
 11
155.962
 21
-28.3011
 31
0.0
  0
LINE
  5
1ED
  8
0
 10
155.962
 20
-28.3011
 30
0.0
 11
155.419
 21
-27.6239
 31
0.0
  0
LINE
  5
1EE
  8
0
 10
155.419
 20
-27.6239
 30
0.0
 11
154.884
 21
-26.9861
 31
0.0
  0
LINE
  5
1EF
  8
0
 10
154.884
 20
-26.9861
 30
0.0
 11
154.357
 21
-26.3868
 31
0.0
  0
LINE
  5
1F0
  8
0
 10
154.357
 20
-26.3868
 30
0.0
 11
153.84
 21
-25.8254
 31
0.0
  0
LINE
  5
1F1
  8
0
 10
153.84
 20
-25.8254
 30
0.0
 11
153.335
 21
-25.301
 31
0.0
  0
LINE
  5
1F2
  8
0
 10
153.335
 20
-25.301
 30
0.0
 11
153.325
 21
-25.2974
 31
0.0
  0
LINE
  5
1F3
  8
0
 10
153.325
 20
-25.2974
 30
0.0
 11
153.567
 21
-24.6342
 31
0.0
  0
LINE
  5
1F4
  8
0
 10
153.567
 20
-24.6342
 30
0.0
 11
153.576
 21
-24.6377
 31
0.0
  0
LINE
  5
1F5
  8
0
 10
153.576
 20
-24.6377
 30
0.0
 11
154.301
 21
-24.5609
 31
0.0
  0
LINE
  5
1F6
  8
0
 10
154.301
 20
-24.5609
 30
0.0
 11
155.057
 21
-24.4631
 31
0.0
  0
LINE
  5
1F7
  8
0
 10
155.057
 20
-24.4631
 30
0.0
 11
155.846
 21
-24.3427
 31
0.0
  0
LINE
  5
1F8
  8
0
 10
155.846
 20
-24.3427
 30
0.0
 11
156.666
 21
-24.1982
 31
0.0
  0
LINE
  5
1F9
  8
0
 10
156.666
 20
-24.1982
 30
0.0
 11
157.517
 21
-24.028
 31
0.0
  0
LINE
  5
1FA
  8
0
 10
157.517
 20
-24.028
 30
0.0
 11
157.763
 21
-23.2719
 31
0.0
  0
LINE
  5
1FB
  8
0
 10
157.763
 20
-23.2719
 30
0.0
 11
157.174
 21
-22.6342
 31
0.0
  0
LINE
  5
1FC
  8
0
 10
157.174
 20
-22.6342
 30
0.0
 11
156.596
 21
-22.0352
 31
0.0
  0
LINE
  5
1FD
  8
0
 10
156.596
 20
-22.0352
 30
0.0
 11
156.029
 21
-21.4741
 31
0.0
  0
LINE
  5
1FE
  8
0
 10
156.029
 20
-21.4741
 30
0.0
 11
155.474
 21
-20.9501
 31
0.0
  0
LINE
  5
1FF
  8
0
 10
155.474
 20
-20.9501
 30
0.0
 11
154.933
 21
-20.4623
 31
0.0
  0
LINE
  5
200
  8
0
 10
154.933
 20
-20.4623
 30
0.0
 11
154.923
 21
-20.4594
 31
0.0
  0
LINE
  5
201
  8
0
 10
154.923
 20
-20.4594
 30
0.0
 11
155.118
 21
-19.781
 31
0.0
  0
LINE
  5
202
  8
0
 10
155.118
 20
-19.781
 30
0.0
 11
155.127
 21
-19.7838
 31
0.0
  0
LINE
  5
203
  8
0
 10
155.127
 20
-19.7838
 30
0.0
 11
155.845
 21
-19.6566
 31
0.0
  0
LINE
  5
204
  8
0
 10
155.845
 20
-19.6566
 30
0.0
 11
156.593
 21
-19.5063
 31
0.0
  0
LINE
  5
205
  8
0
 10
156.593
 20
-19.5063
 30
0.0
 11
157.371
 21
-19.3311
 31
0.0
  0
LINE
  5
206
  8
0
 10
157.371
 20
-19.3311
 30
0.0
 11
158.179
 21
-19.1297
 31
0.0
  0
LINE
  5
207
  8
0
 10
158.179
 20
-19.1297
 30
0.0
 11
159.016
 21
-18.9007
 31
0.0
  0
LINE
  5
208
  8
0
 10
159.016
 20
-18.9007
 30
0.0
 11
159.208
 21
-18.1293
 31
0.0
  0
LINE
  5
209
  8
0
 10
159.208
 20
-18.1293
 30
0.0
 11
158.577
 21
-17.5341
 31
0.0
  0
LINE
  5
20A
  8
0
 10
158.577
 20
-17.5341
 30
0.0
 11
157.958
 21
-16.977
 31
0.0
  0
LINE
  5
20B
  8
0
 10
157.958
 20
-16.977
 30
0.0
 11
157.353
 21
-16.4568
 31
0.0
  0
LINE
  5
20C
  8
0
 10
157.353
 20
-16.4568
 30
0.0
 11
156.763
 21
-15.9728
 31
0.0
  0
LINE
  5
20D
  8
0
 10
156.763
 20
-15.9728
 30
0.0
 11
156.19
 21
-15.5239
 31
0.0
  0
LINE
  5
20E
  8
0
 10
156.19
 20
-15.5239
 30
0.0
 11
156.18
 21
-15.5217
 31
0.0
  0
LINE
  5
20F
  8
0
 10
156.18
 20
-15.5217
 30
0.0
 11
156.326
 21
-14.8314
 31
0.0
  0
LINE
  5
210
  8
0
 10
156.326
 20
-14.8314
 30
0.0
 11
156.336
 21
-14.8335
 31
0.0
  0
LINE
  5
211
  8
0
 10
156.336
 20
-14.8335
 30
0.0
 11
157.043
 21
-14.6566
 31
0.0
  0
LINE
  5
212
  8
0
 10
157.043
 20
-14.6566
 30
0.0
 11
157.779
 21
-14.4544
 31
0.0
  0
LINE
  5
213
  8
0
 10
157.779
 20
-14.4544
 30
0.0
 11
158.543
 21
-14.2254
 31
0.0
  0
LINE
  5
214
  8
0
 10
158.543
 20
-14.2254
 30
0.0
 11
159.335
 21
-13.9681
 31
0.0
  0
LINE
  5
215
  8
0
 10
159.335
 20
-13.9681
 30
0.0
 11
160.154
 21
-13.6813
 31
0.0
  0
LINE
  5
216
  8
0
 10
160.154
 20
-13.6813
 30
0.0
 11
160.292
 21
-12.8983
 31
0.0
  0
LINE
  5
217
  8
0
 10
160.292
 20
-12.8983
 30
0.0
 11
159.621
 21
-12.3487
 31
0.0
  0
LINE
  5
218
  8
0
 10
159.621
 20
-12.3487
 30
0.0
 11
158.964
 21
-11.836
 31
0.0
  0
LINE
  5
219
  8
0
 10
158.964
 20
-11.836
 30
0.0
 11
158.324
 21
-11.3594
 31
0.0
  0
LINE
  5
21A
  8
0
 10
158.324
 20
-11.3594
 30
0.0
 11
157.702
 21
-10.9177
 31
0.0
  0
LINE
  5
21B
  8
0
 10
157.702
 20
-10.9177
 30
0.0
 11
157.099
 21
-10.5099
 31
0.0
  0
LINE
  5
21C
  8
0
 10
157.099
 20
-10.5099
 30
0.0
 11
157.089
 21
-10.5084
 31
0.0
  0
LINE
  5
21D
  8
0
 10
157.089
 20
-10.5084
 30
0.0
 11
157.187
 21
-9.80949
 31
0.0
  0
LINE
  5
21E
  8
0
 10
157.187
 20
-9.80949
 30
0.0
 11
157.197
 21
-9.81088
 31
0.0
  0
LINE
  5
21F
  8
0
 10
157.197
 20
-9.81088
 30
0.0
 11
157.889
 21
-9.58521
 31
0.0
  0
LINE
  5
220
  8
0
 10
157.889
 20
-9.58521
 30
0.0
 11
158.609
 21
-9.33215
 31
0.0
  0
LINE
  5
221
  8
0
 10
158.609
 20
-9.33215
 30
0.0
 11
159.356
 21
-9.05035
 31
0.0
  0
LINE
  5
222
  8
0
 10
159.356
 20
-9.05035
 30
0.0
 11
160.128
 21
-8.73848
 31
0.0
  0
LINE
  5
223
  8
0
 10
160.128
 20
-8.73848
 30
0.0
 11
160.925
 21
-8.3952
 31
0.0
  0
LINE
  5
224
  8
0
 10
160.925
 20
-8.3952
 30
0.0
 11
161.008
 21
-7.60451
 31
0.0
  0
LINE
  5
225
  8
0
 10
161.008
 20
-7.60451
 30
0.0
 11
160.3
 21
-7.10306
 31
0.0
  0
LINE
  5
226
  8
0
 10
160.3
 20
-7.10306
 30
0.0
 11
159.61
 21
-6.63745
 31
0.0
  0
LINE
  5
227
  8
0
 10
159.61
 20
-6.63745
 30
0.0
 11
158.938
 21
-6.2066
 31
0.0
  0
LINE
  5
228
  8
0
 10
158.938
 20
-6.2066
 30
0.0
 11
158.286
 21
-5.8094
 31
0.0
  0
LINE
  5
229
  8
0
 10
158.286
 20
-5.8094
 30
0.0
 11
157.656
 21
-5.44467
 31
0.0
  0
LINE
  5
22A
  8
0
 10
157.656
 20
-5.44467
 30
0.0
 11
157.646
 21
-5.44391
 31
0.0
  0
LINE
  5
22B
  8
0
 10
157.646
 20
-5.44391
 30
0.0
 11
157.695
 21
-4.73985
 31
0.0
  0
LINE
  5
22C
  8
0
 10
157.695
 20
-4.73985
 30
0.0
 11
157.705
 21
-4.74052
 31
0.0
  0
LINE
  5
22D
  8
0
 10
157.705
 20
-4.74052
 30
0.0
 11
158.38
 21
-4.46709
 31
0.0
  0
LINE
  5
22E
  8
0
 10
158.38
 20
-4.46709
 30
0.0
 11
159.081
 21
-4.16443
 31
0.0
  0
LINE
  5
22F
  8
0
 10
159.081
 20
-4.16443
 30
0.0
 11
159.806
 21
-3.83125
 31
0.0
  0
LINE
  5
230
  8
0
 10
159.806
 20
-3.83125
 30
0.0
 11
160.554
 21
-3.46626
 31
0.0
  0
LINE
  5
231
  8
0
 10
160.554
 20
-3.46626
 30
0.0
 11
161.325
 21
-3.06824
 31
0.0
  0
LINE
  5
232
  8
0
 10
161.325
 20
-3.06824
 30
0.0
 11
161.353
 21
-2.27367
 31
0.0
  0
LINE
  5
233
  8
0
 10
161.353
 20
-2.27367
 30
0.0
 11
160.612
 21
-1.82283
 31
0.0
  0
LINE
  5
234
  8
0
 10
160.612
 20
-1.82283
 30
0.0
 11
159.89
 21
-1.40652
 31
0.0
  0
LINE
  5
235
  8
0
 10
159.89
 20
-1.40652
 30
0.0
 11
159.19
 21
-1.02357
 31
0.0
  0
LINE
  5
236
  8
0
 10
159.19
 20
-1.02357
 30
0.0
 11
158.513
 21
-0.672791
 31
0.0
  0
LINE
  5
237
  8
0
 10
158.513
 20
-0.672791
 30
0.0
 11
157.858
 21
-0.352936
 31
0.0
  0
LINE
  5
238
  8
0
 10
157.858
 20
-0.352936
 30
0.0
 11
157.848
 21
-0.352875
 31
0.0
  0
LINE
  5
239
  8
0
 10
157.848
 20
-0.352875
 30
0.0
 11
157.848
 21
0.352875
 31
0.0
  0
LINE
  5
23A
  8
0
 10
157.848
 20
0.352875
 30
0.0
 11
157.858
 21
0.352921
 31
0.0
  0
LINE
  5
23B
  8
0
 10
157.858
 20
0.352921
 30
0.0
 11
158.513
 21
0.672791
 31
0.0
  0
LINE
  5
23C
  8
0
 10
158.513
 20
0.672791
 30
0.0
 11
159.19
 21
1.02356
 31
0.0
  0
LINE
  5
23D
  8
0
 10
159.19
 20
1.02356
 30
0.0
 11
159.89
 21
1.40652
 31
0.0
  0
LINE
  5
23E
  8
0
 10
159.89
 20
1.40652
 30
0.0
 11
160.612
 21
1.82283
 31
0.0
  0
LINE
  5
23F
  8
0
 10
160.612
 20
1.82283
 30
0.0
 11
161.353
 21
2.27367
 31
0.0
  0
LINE
  5
240
  8
0
 10
161.353
 20
2.27367
 30
0.0
 11
161.325
 21
3.06822
 31
0.0
  0
LINE
  5
241
  8
0
 10
161.325
 20
3.06822
 30
0.0
 11
160.554
 21
3.46625
 31
0.0
  0
LINE
  5
242
  8
0
 10
160.554
 20
3.46625
 30
0.0
 11
159.806
 21
3.83124
 31
0.0
  0
LINE
  5
243
  8
0
 10
159.806
 20
3.83124
 30
0.0
 11
159.081
 21
4.16443
 31
0.0
  0
LINE
  5
244
  8
0
 10
159.081
 20
4.16443
 30
0.0
 11
158.38
 21
4.46707
 31
0.0
  0
LINE
  5
245
  8
0
 10
158.38
 20
4.46707
 30
0.0
 11
157.705
 21
4.74051
 31
0.0
  0
LINE
  5
246
  8
0
 10
157.705
 20
4.74051
 30
0.0
 11
157.695
 21
4.73984
 31
0.0
  0
LINE
  5
247
  8
0
 10
157.695
 20
4.73984
 30
0.0
 11
157.646
 21
5.44391
 31
0.0
  0
LINE
  5
248
  8
0
 10
157.646
 20
5.44391
 30
0.0
 11
157.656
 21
5.44467
 31
0.0
  0
LINE
  5
249
  8
0
 10
157.656
 20
5.44467
 30
0.0
 11
158.286
 21
5.80939
 31
0.0
  0
LINE
  5
24A
  8
0
 10
158.286
 20
5.80939
 30
0.0
 11
158.938
 21
6.2066
 31
0.0
  0
LINE
  5
24B
  8
0
 10
158.938
 20
6.2066
 30
0.0
 11
159.61
 21
6.63745
 31
0.0
  0
LINE
  5
24C
  8
0
 10
159.61
 20
6.63745
 30
0.0
 11
160.3
 21
7.10306
 31
0.0
  0
LINE
  5
24D
  8
0
 10
160.3
 20
7.10306
 30
0.0
 11
161.008
 21
7.60451
 31
0.0
  0
LINE
  5
24E
  8
0
 10
161.008
 20
7.60451
 30
0.0
 11
160.925
 21
8.3952
 31
0.0
  0
LINE
  5
24F
  8
0
 10
160.925
 20
8.3952
 30
0.0
 11
160.128
 21
8.73849
 31
0.0
  0
LINE
  5
250
  8
0
 10
160.128
 20
8.73849
 30
0.0
 11
159.356
 21
9.05037
 31
0.0
  0
LINE
  5
251
  8
0
 10
159.356
 20
9.05037
 30
0.0
 11
158.609
 21
9.33215
 31
0.0
  0
LINE
  5
252
  8
0
 10
158.609
 20
9.33215
 30
0.0
 11
157.889
 21
9.58521
 31
0.0
  0
LINE
  5
253
  8
0
 10
157.889
 20
9.58521
 30
0.0
 11
157.197
 21
9.81088
 31
0.0
  0
LINE
  5
254
  8
0
 10
157.197
 20
9.81088
 30
0.0
 11
157.187
 21
9.80951
 31
0.0
  0
LINE
  5
255
  8
0
 10
157.187
 20
9.80951
 30
0.0
 11
157.089
 21
10.5084
 31
0.0
  0
LINE
  5
256
  8
0
 10
157.089
 20
10.5084
 30
0.0
 11
157.099
 21
10.5099
 31
0.0
  0
LINE
  5
257
  8
0
 10
157.099
 20
10.5099
 30
0.0
 11
157.702
 21
10.9177
 31
0.0
  0
LINE
  5
258
  8
0
 10
157.702
 20
10.9177
 30
0.0
 11
158.324
 21
11.3594
 31
0.0
  0
LINE
  5
259
  8
0
 10
158.324
 20
11.3594
 30
0.0
 11
158.964
 21
11.836
 31
0.0
  0
LINE
  5
25A
  8
0
 10
158.964
 20
11.836
 30
0.0
 11
159.621
 21
12.3487
 31
0.0
  0
LINE
  5
25B
  8
0
 10
159.621
 20
12.3487
 30
0.0
 11
160.292
 21
12.8983
 31
0.0
  0
LINE
  5
25C
  8
0
 10
160.292
 20
12.8983
 30
0.0
 11
160.154
 21
13.6813
 31
0.0
  0
LINE
  5
25D
  8
0
 10
160.154
 20
13.6813
 30
0.0
 11
159.335
 21
13.9681
 31
0.0
  0
LINE
  5
25E
  8
0
 10
159.335
 20
13.9681
 30
0.0
 11
158.543
 21
14.2254
 31
0.0
  0
LINE
  5
25F
  8
0
 10
158.543
 20
14.2254
 30
0.0
 11
157.779
 21
14.4544
 31
0.0
  0
LINE
  5
260
  8
0
 10
157.779
 20
14.4544
 30
0.0
 11
157.043
 21
14.6566
 31
0.0
  0
LINE
  5
261
  8
0
 10
157.043
 20
14.6566
 30
0.0
 11
156.336
 21
14.8335
 31
0.0
  0
LINE
  5
262
  8
0
 10
156.336
 20
14.8335
 30
0.0
 11
156.326
 21
14.8314
 31
0.0
  0
LINE
  5
263
  8
0
 10
156.326
 20
14.8314
 30
0.0
 11
156.18
 21
15.5217
 31
0.0
  0
LINE
  5
264
  8
0
 10
156.18
 20
15.5217
 30
0.0
 11
156.19
 21
15.5239
 31
0.0
  0
LINE
  5
265
  8
0
 10
156.19
 20
15.5239
 30
0.0
 11
156.763
 21
15.9728
 31
0.0
  0
LINE
  5
266
  8
0
 10
156.763
 20
15.9728
 30
0.0
 11
157.353
 21
16.4569
 31
0.0
  0
LINE
  5
267
  8
0
 10
157.353
 20
16.4569
 30
0.0
 11
157.958
 21
16.977
 31
0.0
  0
LINE
  5
268
  8
0
 10
157.958
 20
16.977
 30
0.0
 11
158.577
 21
17.5341
 31
0.0
  0
LINE
  5
269
  8
0
 10
158.577
 20
17.5341
 30
0.0
 11
159.208
 21
18.1292
 31
0.0
  0
LINE
  5
26A
  8
0
 10
159.208
 20
18.1292
 30
0.0
 11
159.016
 21
18.9007
 31
0.0
  0
LINE
  5
26B
  8
0
 10
159.016
 20
18.9007
 30
0.0
 11
158.179
 21
19.1297
 31
0.0
  0
LINE
  5
26C
  8
0
 10
158.179
 20
19.1297
 30
0.0
 11
157.371
 21
19.3311
 31
0.0
  0
LINE
  5
26D
  8
0
 10
157.371
 20
19.3311
 30
0.0
 11
156.593
 21
19.5063
 31
0.0
  0
LINE
  5
26E
  8
0
 10
156.593
 20
19.5063
 30
0.0
 11
155.845
 21
19.6567
 31
0.0
  0
LINE
  5
26F
  8
0
 10
155.845
 20
19.6567
 30
0.0
 11
155.127
 21
19.7838
 31
0.0
  0
LINE
  5
270
  8
0
 10
155.127
 20
19.7838
 30
0.0
 11
155.118
 21
19.781
 31
0.0
  0
LINE
  5
271
  8
0
 10
155.118
 20
19.781
 30
0.0
 11
154.923
 21
20.4594
 31
0.0
  0
LINE
  5
272
  8
0
 10
154.923
 20
20.4594
 30
0.0
 11
154.933
 21
20.4623
 31
0.0
  0
LINE
  5
273
  8
0
 10
154.933
 20
20.4623
 30
0.0
 11
155.474
 21
20.9501
 31
0.0
  0
LINE
  5
274
  8
0
 10
155.474
 20
20.9501
 30
0.0
 11
156.029
 21
21.4741
 31
0.0
  0
LINE
  5
275
  8
0
 10
156.029
 20
21.4741
 30
0.0
 11
156.596
 21
22.0352
 31
0.0
  0
LINE
  5
276
  8
0
 10
156.596
 20
22.0352
 30
0.0
 11
157.174
 21
22.6342
 31
0.0
  0
LINE
  5
277
  8
0
 10
157.174
 20
22.6342
 30
0.0
 11
157.763
 21
23.2719
 31
0.0
  0
LINE
  5
278
  8
0
 10
157.763
 20
23.2719
 30
0.0
 11
157.517
 21
24.028
 31
0.0
  0
LINE
  5
279
  8
0
 10
157.517
 20
24.028
 30
0.0
 11
156.666
 21
24.1982
 31
0.0
  0
LINE
  5
27A
  8
0
 10
156.666
 20
24.1982
 30
0.0
 11
155.846
 21
24.3427
 31
0.0
  0
LINE
  5
27B
  8
0
 10
155.846
 20
24.3427
 30
0.0
 11
155.057
 21
24.4631
 31
0.0
  0
LINE
  5
27C
  8
0
 10
155.057
 20
24.4631
 30
0.0
 11
154.301
 21
24.5609
 31
0.0
  0
LINE
  5
27D
  8
0
 10
154.301
 20
24.5609
 30
0.0
 11
153.576
 21
24.6377
 31
0.0
  0
LINE
  5
27E
  8
0
 10
153.576
 20
24.6377
 30
0.0
 11
153.567
 21
24.6342
 31
0.0
  0
LINE
  5
27F
  8
0
 10
153.567
 20
24.6342
 30
0.0
 11
153.325
 21
25.2974
 31
0.0
  0
LINE
  5
280
  8
0
 10
153.325
 20
25.2974
 30
0.0
 11
153.335
 21
25.301
 31
0.0
  0
LINE
  5
281
  8
0
 10
153.335
 20
25.301
 30
0.0
 11
153.84
 21
25.8253
 31
0.0
  0
LINE
  5
282
  8
0
 10
153.84
 20
25.8253
 30
0.0
 11
154.357
 21
26.3868
 31
0.0
  0
LINE
  5
283
  8
0
 10
154.357
 20
26.3868
 30
0.0
 11
154.884
 21
26.9861
 31
0.0
  0
LINE
  5
284
  8
0
 10
154.884
 20
26.9861
 30
0.0
 11
155.419
 21
27.6239
 31
0.0
  0
LINE
  5
285
  8
0
 10
155.419
 20
27.6239
 30
0.0
 11
155.962
 21
28.3011
 31
0.0
  0
LINE
  5
286
  8
0
 10
155.962
 20
28.3011
 30
0.0
 11
155.664
 21
29.0383
 31
0.0
  0
LINE
  5
287
  8
0
 10
155.664
 20
29.0383
 30
0.0
 11
154.803
 21
29.1487
 31
0.0
  0
LINE
  5
288
  8
0
 10
154.803
 20
29.1487
 30
0.0
 11
153.975
 21
29.2356
 31
0.0
  0
LINE
  5
289
  8
0
 10
153.975
 20
29.2356
 30
0.0
 11
153.18
 21
29.3007
 31
0.0
  0
LINE
  5
28A
  8
0
 10
153.18
 20
29.3007
 30
0.0
 11
152.418
 21
29.3455
 31
0.0
  0
LINE
  5
28B
  8
0
 10
152.418
 20
29.3455
 30
0.0
 11
151.69
 21
29.3716
 31
0.0
  0
LINE
  5
28C
  8
0
 10
151.69
 20
29.3716
 30
0.0
 11
151.681
 21
29.3674
 31
0.0
  0
LINE
  5
28D
  8
0
 10
151.681
 20
29.3674
 30
0.0
 11
151.394
 21
30.0122
 31
0.0
  0
LINE
  5
28E
  8
0
 10
151.394
 20
30.0122
 30
0.0
 11
151.403
 21
30.0164
 31
0.0
  0
LINE
  5
28F
  8
0
 10
151.403
 20
30.0164
 30
0.0
 11
151.871
 21
30.5748
 31
0.0
  0
LINE
  5
290
  8
0
 10
151.871
 20
30.5748
 30
0.0
 11
152.347
 21
31.1709
 31
0.0
  0
LINE
  5
291
  8
0
 10
152.347
 20
31.1709
 30
0.0
 11
152.831
 21
31.8055
 31
0.0
  0
LINE
  5
292
  8
0
 10
152.831
 20
31.8055
 30
0.0
 11
153.321
 21
32.4792
 31
0.0
  0
LINE
  5
293
  8
0
 10
153.321
 20
32.4792
 30
0.0
 11
153.814
 21
33.1925
 31
0.0
  0
LINE
  5
294
  8
0
 10
153.814
 20
33.1925
 30
0.0
 11
153.466
 21
33.9071
 31
0.0
  0
LINE
  5
295
  8
0
 10
153.466
 20
33.9071
 30
0.0
 11
152.6
 21
33.9572
 31
0.0
  0
LINE
  5
296
  8
0
 10
152.6
 20
33.9572
 30
0.0
 11
151.767
 21
33.9861
 31
0.0
  0
LINE
  5
297
  8
0
 10
151.767
 20
33.9861
 30
0.0
 11
150.97
 21
33.9956
 31
0.0
  0
LINE
  5
298
  8
0
 10
150.97
 20
33.9956
 30
0.0
 11
150.206
 21
33.9871
 31
0.0
  0
LINE
  5
299
  8
0
 10
150.206
 20
33.9871
 30
0.0
 11
149.479
 21
33.9624
 31
0.0
  0
LINE
  5
29A
  8
0
 10
149.479
 20
33.9624
 30
0.0
 11
149.469
 21
33.9576
 31
0.0
  0
LINE
  5
29B
  8
0
 10
149.469
 20
33.9576
 30
0.0
 11
149.138
 21
34.5808
 31
0.0
  0
LINE
  5
29C
  8
0
 10
149.138
 20
34.5808
 30
0.0
 11
149.147
 21
34.5856
 31
0.0
  0
LINE
  5
29D
  8
0
 10
149.147
 20
34.5856
 30
0.0
 11
149.575
 21
35.1752
 31
0.0
  0
LINE
  5
29E
  8
0
 10
149.575
 20
35.1752
 30
0.0
 11
150.008
 21
35.8031
 31
0.0
  0
LINE
  5
29F
  8
0
 10
150.008
 20
35.8031
 30
0.0
 11
150.447
 21
36.4699
 31
0.0
  0
LINE
  5
2A0
  8
0
 10
150.447
 20
36.4699
 30
0.0
 11
150.888
 21
37.1761
 31
0.0
  0
LINE
  5
2A1
  8
0
 10
150.888
 20
37.1761
 30
0.0
 11
151.331
 21
37.9222
 31
0.0
  0
LINE
  5
2A2
  8
0
 10
151.331
 20
37.9222
 30
0.0
 11
150.933
 21
38.6107
 31
0.0
  0
LINE
  5
2A3
  8
0
 10
150.933
 20
38.6107
 30
0.0
 11
150.066
 21
38.6002
 31
0.0
  0
LINE
  5
2A4
  8
0
 10
150.066
 20
38.6002
 30
0.0
 11
149.234
 21
38.5711
 31
0.0
  0
LINE
  5
2A5
  8
0
 10
149.234
 20
38.5711
 30
0.0
 11
148.437
 21
38.5248
 31
0.0
  0
LINE
  5
2A6
  8
0
 10
148.437
 20
38.5248
 30
0.0
 11
147.676
 21
38.4632
 31
0.0
  0
LINE
  5
2A7
  8
0
 10
147.676
 20
38.4632
 30
0.0
 11
146.952
 21
38.3877
 31
0.0
  0
LINE
  5
2A8
  8
0
 10
146.952
 20
38.3877
 30
0.0
 11
146.943
 21
38.3823
 31
0.0
  0
LINE
  5
2A9
  8
0
 10
146.943
 20
38.3823
 30
0.0
 11
146.569
 21
38.9809
 31
0.0
  0
LINE
  5
2AA
  8
0
 10
146.569
 20
38.9809
 30
0.0
 11
146.578
 21
38.9863
 31
0.0
  0
LINE
  5
2AB
  8
0
 10
146.578
 20
38.9863
 30
0.0
 11
146.963
 21
39.6043
 31
0.0
  0
LINE
  5
2AC
  8
0
 10
146.963
 20
39.6043
 30
0.0
 11
147.352
 21
40.261
 31
0.0
  0
LINE
  5
2AD
  8
0
 10
147.352
 20
40.261
 30
0.0
 11
147.743
 21
40.9567
 31
0.0
  0
LINE
  5
2AE
  8
0
 10
147.743
 20
40.9567
 30
0.0
 11
148.134
 21
41.6919
 31
0.0
  0
LINE
  5
2AF
  8
0
 10
148.134
 20
41.6919
 30
0.0
 11
148.524
 21
42.4671
 31
0.0
  0
LINE
  5
2B0
  8
0
 10
148.524
 20
42.4671
 30
0.0
 11
148.079
 21
43.1262
 31
0.0
  0
LINE
  5
2B1
  8
0
 10
148.079
 20
43.1262
 30
0.0
 11
147.214
 21
43.0552
 31
0.0
  0
LINE
  5
2B2
  8
0
 10
147.214
 20
43.0552
 30
0.0
 11
146.386
 21
42.9681
 31
0.0
  0
LINE
  5
2B3
  8
0
 10
146.386
 20
42.9681
 30
0.0
 11
145.595
 21
42.8664
 31
0.0
  0
LINE
  5
2B4
  8
0
 10
145.595
 20
42.8664
 30
0.0
 11
144.84
 21
42.7518
 31
0.0
  0
LINE
  5
2B5
  8
0
 10
144.84
 20
42.7518
 30
0.0
 11
144.123
 21
42.626
 31
0.0
  0
LINE
  5
2B6
  8
0
 10
144.123
 20
42.626
 30
0.0
 11
144.115
 21
42.62
 31
0.0
  0
LINE
  5
2B7
  8
0
 10
144.115
 20
42.62
 30
0.0
 11
143.7
 21
43.191
 31
0.0
  0
LINE
  5
2B8
  8
0
 10
143.7
 20
43.191
 30
0.0
 11
143.708
 21
43.1971
 31
0.0
  0
LINE
  5
2B9
  8
0
 10
143.708
 20
43.1971
 30
0.0
 11
144.049
 21
43.8405
 31
0.0
  0
LINE
  5
2BA
  8
0
 10
144.049
 20
43.8405
 30
0.0
 11
144.392
 21
44.5226
 31
0.0
  0
LINE
  5
2BB
  8
0
 10
144.392
 20
44.5226
 30
0.0
 11
144.733
 21
45.2439
 31
0.0
  0
LINE
  5
2BC
  8
0
 10
144.733
 20
45.2439
 30
0.0
 11
145.072
 21
46.0046
 31
0.0
  0
LINE
  5
2BD
  8
0
 10
145.072
 20
46.0046
 30
0.0
 11
145.406
 21
46.8051
 31
0.0
  0
LINE
  5
2BE
  8
0
 10
145.406
 20
46.8051
 30
0.0
 11
144.917
 21
47.4316
 31
0.0
  0
LINE
  5
2BF
  8
0
 10
144.917
 20
47.4316
 30
0.0
 11
144.059
 21
47.3005
 31
0.0
  0
LINE
  5
2C0
  8
0
 10
144.059
 20
47.3005
 30
0.0
 11
143.239
 21
47.1558
 31
0.0
  0
LINE
  5
2C1
  8
0
 10
143.239
 20
47.1558
 30
0.0
 11
142.457
 21
46.9991
 31
0.0
  0
LINE
  5
2C2
  8
0
 10
142.457
 20
46.9991
 30
0.0
 11
141.712
 21
46.8322
 31
0.0
  0
LINE
  5
2C3
  8
0
 10
141.712
 20
46.8322
 30
0.0
 11
141.005
 21
46.6566
 31
0.0
  0
LINE
  5
2C4
  8
0
 10
141.005
 20
46.6566
 30
0.0
 11
140.997
 21
46.6501
 31
0.0
  0
LINE
  5
2C5
  8
0
 10
140.997
 20
46.6501
 30
0.0
 11
140.544
 21
47.1908
 31
0.0
  0
LINE
  5
2C6
  8
0
 10
140.544
 20
47.1908
 30
0.0
 11
140.551
 21
47.1974
 31
0.0
  0
LINE
  5
2C7
  8
0
 10
140.551
 20
47.1974
 30
0.0
 11
140.847
 21
47.863
 31
0.0
  0
LINE
  5
2C8
  8
0
 10
140.847
 20
47.863
 30
0.0
 11
141.141
 21
48.5674
 31
0.0
  0
LINE
  5
2C9
  8
0
 10
141.141
 20
48.5674
 30
0.0
 11
141.431
 21
49.3107
 31
0.0
  0
LINE
  5
2CA
  8
0
 10
141.431
 20
49.3107
 30
0.0
 11
141.716
 21
50.0932
 31
0.0
  0
LINE
  5
2CB
  8
0
 10
141.716
 20
50.0932
 30
0.0
 11
141.994
 21
50.9151
 31
0.0
  0
LINE
  5
2CC
  8
0
 10
141.994
 20
50.9151
 30
0.0
 11
141.462
 21
51.5059
 31
0.0
  0
LINE
  5
2CD
  8
0
 10
141.462
 20
51.5059
 30
0.0
 11
140.615
 21
51.3153
 31
0.0
  0
LINE
  5
2CE
  8
0
 10
140.615
 20
51.3153
 30
0.0
 11
139.807
 21
51.1138
 31
0.0
  0
LINE
  5
2CF
  8
0
 10
139.807
 20
51.1138
 30
0.0
 11
139.038
 21
50.9029
 31
0.0
  0
LINE
  5
2D0
  8
0
 10
139.038
 20
50.9029
 30
0.0
 11
138.307
 21
50.6844
 31
0.0
  0
LINE
  5
2D1
  8
0
 10
138.307
 20
50.6844
 30
0.0
 11
137.614
 21
50.46
 31
0.0
  0
LINE
  5
2D2
  8
0
 10
137.614
 20
50.46
 30
0.0
 11
137.606
 21
50.4529
 31
0.0
  0
LINE
  5
2D3
  8
0
 10
137.606
 20
50.4529
 30
0.0
 11
137.116
 21
50.9606
 31
0.0
  0
LINE
  5
2D4
  8
0
 10
137.116
 20
50.9606
 30
0.0
 11
137.123
 21
50.9677
 31
0.0
  0
LINE
  5
2D5
  8
0
 10
137.123
 20
50.9677
 30
0.0
 11
137.372
 21
51.6524
 31
0.0
  0
LINE
  5
2D6
  8
0
 10
137.372
 20
51.6524
 30
0.0
 11
137.616
 21
52.3755
 31
0.0
  0
LINE
  5
2D7
  8
0
 10
137.616
 20
52.3755
 30
0.0
 11
137.853
 21
53.1373
 31
0.0
  0
LINE
  5
2D8
  8
0
 10
137.853
 20
53.1373
 30
0.0
 11
138.083
 21
53.9378
 31
0.0
  0
LINE
  5
2D9
  8
0
 10
138.083
 20
53.9378
 30
0.0
 11
138.303
 21
54.777
 31
0.0
  0
LINE
  5
2DA
  8
0
 10
138.303
 20
54.777
 30
0.0
 11
137.731
 21
55.3293
 31
0.0
  0
LINE
  5
2DB
  8
0
 10
137.731
 20
55.3293
 30
0.0
 11
136.9
 21
55.0801
 31
0.0
  0
LINE
  5
2DC
  8
0
 10
136.9
 20
55.0801
 30
0.0
 11
136.108
 21
54.8227
 31
0.0
  0
LINE
  5
2DD
  8
0
 10
136.108
 20
54.8227
 30
0.0
 11
135.355
 21
54.5587
 31
0.0
  0
LINE
  5
2DE
  8
0
 10
135.355
 20
54.5587
 30
0.0
 11
134.641
 21
54.2897
 31
0.0
  0
LINE
  5
2DF
  8
0
 10
134.641
 20
54.2897
 30
0.0
 11
133.965
 21
54.0175
 31
0.0
  0
LINE
  5
2E0
  8
0
 10
133.965
 20
54.0175
 30
0.0
 11
133.958
 21
54.0099
 31
0.0
  0
LINE
  5
2E1
  8
0
 10
133.958
 20
54.0099
 30
0.0
 11
133.434
 21
54.4821
 31
0.0
  0
LINE
  5
2E2
  8
0
 10
133.434
 20
54.4821
 30
0.0
 11
133.441
 21
54.4898
 31
0.0
  0
LINE
  5
2E3
  8
0
 10
133.441
 20
54.4898
 30
0.0
 11
133.641
 21
55.1901
 31
0.0
  0
LINE
  5
2E4
  8
0
 10
133.641
 20
55.1901
 30
0.0
 11
133.834
 21
55.9285
 31
0.0
  0
LINE
  5
2E5
  8
0
 10
133.834
 20
55.9285
 30
0.0
 11
134.018
 21
56.705
 31
0.0
  0
LINE
  5
2E6
  8
0
 10
134.018
 20
56.705
 30
0.0
 11
134.191
 21
57.5195
 31
0.0
  0
LINE
  5
2E7
  8
0
 10
134.191
 20
57.5195
 30
0.0
 11
134.352
 21
58.372
 31
0.0
  0
LINE
  5
2E8
  8
0
 10
134.352
 20
58.372
 30
0.0
 11
133.743
 21
58.8831
 31
0.0
  0
LINE
  5
2E9
  8
0
 10
133.743
 20
58.8831
 30
0.0
 11
132.931
 21
58.5766
 31
0.0
  0
LINE
  5
2EA
  8
0
 10
132.931
 20
58.5766
 30
0.0
 11
132.159
 21
58.2645
 31
0.0
  0
LINE
  5
2EB
  8
0
 10
132.159
 20
58.2645
 30
0.0
 11
131.426
 21
57.9486
 31
0.0
  0
LINE
  5
2EC
  8
0
 10
131.426
 20
57.9486
 30
0.0
 11
130.733
 21
57.6305
 31
0.0
  0
LINE
  5
2ED
  8
0
 10
130.733
 20
57.6305
 30
0.0
 11
130.078
 21
57.3118
 31
0.0
  0
LINE
  5
2EE
  8
0
 10
130.078
 20
57.3118
 30
0.0
 11
130.071
 21
57.3038
 31
0.0
  0
LINE
  5
2EF
  8
0
 10
130.071
 20
57.3038
 30
0.0
 11
129.515
 21
57.7383
 31
0.0
  0
LINE
  5
2F0
  8
0
 10
129.515
 20
57.7383
 30
0.0
 11
129.521
 21
57.7464
 31
0.0
  0
LINE
  5
2F1
  8
0
 10
129.521
 20
57.7464
 30
0.0
 11
129.672
 21
58.459
 31
0.0
  0
LINE
  5
2F2
  8
0
 10
129.672
 20
58.459
 30
0.0
 11
129.813
 21
59.209
 31
0.0
  0
LINE
  5
2F3
  8
0
 10
129.813
 20
59.209
 30
0.0
 11
129.942
 21
59.9964
 31
0.0
  0
LINE
  5
2F4
  8
0
 10
129.942
 20
59.9964
 30
0.0
 11
130.058
 21
60.821
 31
0.0
  0
LINE
  5
2F5
  8
0
 10
130.058
 20
60.821
 30
0.0
 11
130.159
 21
61.6827
 31
0.0
  0
LINE
  5
2F6
  8
0
 10
130.159
 20
61.6827
 30
0.0
 11
129.516
 21
62.15
 31
0.0
  0
LINE
  5
2F7
  8
0
 10
129.516
 20
62.15
 30
0.0
 11
128.728
 21
61.7876
 31
0.0
  0
LINE
  5
2F8
  8
0
 10
128.728
 20
61.7876
 30
0.0
 11
127.979
 21
61.4225
 31
0.0
  0
LINE
  5
2F9
  8
0
 10
127.979
 20
61.4225
 30
0.0
 11
127.27
 21
61.0563
 31
0.0
  0
LINE
  5
2FA
  8
0
 10
127.27
 20
61.0563
 30
0.0
 11
126.601
 21
60.6905
 31
0.0
  0
LINE
  5
2FB
  8
0
 10
126.601
 20
60.6905
 30
0.0
 11
125.97
 21
60.3269
 31
0.0
  0
LINE
  5
2FC
  8
0
 10
125.97
 20
60.3269
 30
0.0
 11
125.964
 21
60.3185
 31
0.0
  0
LINE
  5
2FD
  8
0
 10
125.964
 20
60.3185
 30
0.0
 11
125.379
 21
60.7131
 31
0.0
  0
LINE
  5
2FE
  8
0
 10
125.379
 20
60.7131
 30
0.0
 11
125.384
 21
60.7216
 31
0.0
  0
LINE
  5
2FF
  8
0
 10
125.384
 20
60.7216
 30
0.0
 11
125.485
 21
61.443
 31
0.0
  0
LINE
  5
300
  8
0
 10
125.485
 20
61.443
 30
0.0
 11
125.573
 21
62.201
 31
0.0
  0
LINE
  5
301
  8
0
 10
125.573
 20
62.201
 30
0.0
 11
125.647
 21
62.9955
 31
0.0
  0
LINE
  5
302
  8
0
 10
125.647
 20
62.9955
 30
0.0
 11
125.705
 21
63.8263
 31
0.0
  0
LINE
  5
303
  8
0
 10
125.705
 20
63.8263
 30
0.0
 11
125.746
 21
64.6929
 31
0.0
  0
LINE
  5
304
  8
0
 10
125.746
 20
64.6929
 30
0.0
 11
125.072
 21
65.1142
 31
0.0
  0
LINE
  5
305
  8
0
 10
125.072
 20
65.1142
 30
0.0
 11
124.311
 21
64.6977
 31
0.0
  0
LINE
  5
306
  8
0
 10
124.311
 20
64.6977
 30
0.0
 11
123.59
 21
64.2812
 31
0.0
  0
LINE
  5
307
  8
0
 10
123.59
 20
64.2812
 30
0.0
 11
122.908
 21
63.8664
 31
0.0
  0
LINE
  5
308
  8
0
 10
122.908
 20
63.8664
 30
0.0
 11
122.265
 21
63.4549
 31
0.0
  0
LINE
  5
309
  8
0
 10
122.265
 20
63.4549
 30
0.0
 11
121.661
 21
63.0481
 31
0.0
  0
LINE
  5
30A
  8
0
 10
121.661
 20
63.0481
 30
0.0
 11
121.656
 21
63.0393
 31
0.0
  0
LINE
  5
30B
  8
0
 10
121.656
 20
63.0393
 30
0.0
 11
121.045
 21
63.3922
 31
0.0
  0
LINE
  5
30C
  8
0
 10
121.045
 20
63.3922
 30
0.0
 11
121.05
 21
63.4011
 31
0.0
  0
LINE
  5
30D
  8
0
 10
121.05
 20
63.4011
 30
0.0
 11
121.1
 21
64.1277
 31
0.0
  0
LINE
  5
30E
  8
0
 10
121.1
 20
64.1277
 30
0.0
 11
121.135
 21
64.89
 31
0.0
  0
LINE
  5
30F
  8
0
 10
121.135
 20
64.89
 30
0.0
 11
121.154
 21
65.6878
 31
0.0
  0
LINE
  5
310
  8
0
 10
121.154
 20
65.6878
 30
0.0
 11
121.154
 21
66.5205
 31
0.0
  0
LINE
  5
311
  8
0
 10
121.154
 20
66.5205
 30
0.0
 11
121.134
 21
67.3879
 31
0.0
  0
LINE
  5
312
  8
0
 10
121.134
 20
67.3879
 30
0.0
 11
120.432
 21
67.7611
 31
0.0
  0
LINE
  5
313
  8
0
 10
120.432
 20
67.7611
 30
0.0
 11
119.702
 21
67.2925
 31
0.0
  0
LINE
  5
314
  8
0
 10
119.702
 20
67.2925
 30
0.0
 11
119.011
 21
66.8268
 31
0.0
  0
LINE
  5
315
  8
0
 10
119.011
 20
66.8268
 30
0.0
 11
118.36
 21
66.3654
 31
0.0
  0
LINE
  5
316
  8
0
 10
118.36
 20
66.3654
 30
0.0
 11
117.748
 21
65.9101
 31
0.0
  0
LINE
  5
317
  8
0
 10
117.748
 20
65.9101
 30
0.0
 11
117.174
 21
65.4622
 31
0.0
  0
LINE
  5
318
  8
0
 10
117.174
 20
65.4622
 30
0.0
 11
117.169
 21
65.453
 31
0.0
  0
LINE
  5
319
  8
0
 10
117.169
 20
65.453
 30
0.0
 11
116.535
 21
65.7624
 31
0.0
  0
LINE
  5
31A
  8
0
 10
116.535
 20
65.7624
 30
0.0
 11
116.539
 21
65.7716
 31
0.0
  0
LINE
  5
31B
  8
0
 10
116.539
 20
65.7716
 30
0.0
 11
116.538
 21
66.4999
 31
0.0
  0
LINE
  5
31C
  8
0
 10
116.538
 20
66.4999
 30
0.0
 11
116.52
 21
67.2629
 31
0.0
  0
LINE
  5
31D
  8
0
 10
116.52
 20
67.2629
 30
0.0
 11
116.483
 21
68.06
 31
0.0
  0
LINE
  5
31E
  8
0
 10
116.483
 20
68.06
 30
0.0
 11
116.425
 21
68.8907
 31
0.0
  0
LINE
  5
31F
  8
0
 10
116.425
 20
68.8907
 30
0.0
 11
116.345
 21
69.7545
 31
0.0
  0
LINE
  5
320
  8
0
 10
116.345
 20
69.7545
 30
0.0
 11
115.618
 21
70.0779
 31
0.0
  0
LINE
  5
321
  8
0
 10
115.618
 20
70.0779
 30
0.0
 11
114.923
 21
69.5596
 31
0.0
  0
LINE
  5
322
  8
0
 10
114.923
 20
69.5596
 30
0.0
 11
114.267
 21
69.0468
 31
0.0
  0
LINE
  5
323
  8
0
 10
114.267
 20
69.0468
 30
0.0
 11
113.649
 21
68.5412
 31
0.0
  0
LINE
  5
324
  8
0
 10
113.649
 20
68.5412
 30
0.0
 11
113.07
 21
68.0442
 31
0.0
  0
LINE
  5
325
  8
0
 10
113.07
 20
68.0442
 30
0.0
 11
112.528
 21
67.5573
 31
0.0
  0
LINE
  5
326
  8
0
 10
112.528
 20
67.5573
 30
0.0
 11
112.524
 21
67.5478
 31
0.0
  0
LINE
  5
327
  8
0
 10
112.524
 20
67.5478
 30
0.0
 11
111.87
 21
67.8122
 31
0.0
  0
LINE
  5
328
  8
0
 10
111.87
 20
67.8122
 30
0.0
 11
111.874
 21
67.8217
 31
0.0
  0
LINE
  5
329
  8
0
 10
111.874
 20
67.8217
 30
0.0
 11
111.822
 21
68.5482
 31
0.0
  0
LINE
  5
32A
  8
0
 10
111.822
 20
68.5482
 30
0.0
 11
111.751
 21
69.308
 31
0.0
  0
LINE
  5
32B
  8
0
 10
111.751
 20
69.308
 30
0.0
 11
111.658
 21
70.1006
 31
0.0
  0
LINE
  5
32C
  8
0
 10
111.658
 20
70.1006
 30
0.0
 11
111.542
 21
70.9252
 31
0.0
  0
LINE
  5
32D
  8
0
 10
111.542
 20
70.9252
 30
0.0
 11
111.402
 21
71.7814
 31
0.0
  0
LINE
  5
32E
  8
0
 10
111.402
 20
71.7814
 30
0.0
 11
110.655
 21
72.0533
 31
0.0
  0
LINE
  5
32F
  8
0
 10
110.655
 20
72.0533
 30
0.0
 11
109.997
 21
71.4877
 31
0.0
  0
LINE
  5
330
  8
0
 10
109.997
 20
71.4877
 30
0.0
 11
109.378
 21
70.9304
 31
0.0
  0
LINE
  5
331
  8
0
 10
109.378
 20
70.9304
 30
0.0
 11
108.798
 21
70.3829
 31
0.0
  0
LINE
  5
332
  8
0
 10
108.798
 20
70.3829
 30
0.0
 11
108.255
 21
69.8468
 31
0.0
  0
LINE
  5
333
  8
0
 10
108.255
 20
69.8468
 30
0.0
 11
107.748
 21
69.3233
 31
0.0
  0
LINE
  5
334
  8
0
 10
107.748
 20
69.3233
 30
0.0
 11
107.745
 21
69.3135
 31
0.0
  0
LINE
  5
335
  8
0
 10
107.745
 20
69.3135
 30
0.0
 11
107.074
 21
69.5316
 31
0.0
  0
LINE
  5
336
  8
0
 10
107.074
 20
69.5316
 30
0.0
 11
107.077
 21
69.5414
 31
0.0
  0
LINE
  5
337
  8
0
 10
107.077
 20
69.5414
 30
0.0
 11
106.975
 21
70.2626
 31
0.0
  0
LINE
  5
338
  8
0
 10
106.975
 20
70.2626
 30
0.0
 11
106.851
 21
71.0155
 31
0.0
  0
LINE
  5
339
  8
0
 10
106.851
 20
71.0155
 30
0.0
 11
106.703
 21
71.7997
 31
0.0
  0
LINE
  5
33A
  8
0
 10
106.703
 20
71.7997
 30
0.0
 11
106.53
 21
72.6143
 31
0.0
  0
LINE
  5
33B
  8
0
 10
106.53
 20
72.6143
 30
0.0
 11
106.33
 21
73.4585
 31
0.0
  0
LINE
  5
33C
  8
0
 10
106.33
 20
73.4585
 30
0.0
 11
105.566
 21
73.6777
 31
0.0
  0
LINE
  5
33D
  8
0
 10
105.566
 20
73.6777
 30
0.0
 11
104.949
 21
73.0675
 31
0.0
  0
LINE
  5
33E
  8
0
 10
104.949
 20
73.0675
 30
0.0
 11
104.371
 21
72.4684
 31
0.0
  0
LINE
  5
33F
  8
0
 10
104.371
 20
72.4684
 30
0.0
 11
103.83
 21
71.8818
 31
0.0
  0
LINE
  5
340
  8
0
 10
103.83
 20
71.8818
 30
0.0
 11
103.326
 21
71.309
 31
0.0
  0
LINE
  5
341
  8
0
 10
103.326
 20
71.309
 30
0.0
 11
102.857
 21
70.7515
 31
0.0
  0
LINE
  5
342
  8
0
 10
102.857
 20
70.7515
 30
0.0
 11
102.854
 21
70.7416
 31
0.0
  0
LINE
  5
343
  8
0
 10
102.854
 20
70.7416
 30
0.0
 11
102.17
 21
70.9123
 31
0.0
  0
LINE
  5
344
  8
0
 10
102.17
 20
70.9123
 30
0.0
 11
102.172
 21
70.9223
 31
0.0
  0
LINE
  5
345
  8
0
 10
102.172
 20
70.9223
 30
0.0
 11
102.02
 21
71.6346
 31
0.0
  0
LINE
  5
346
  8
0
 10
102.02
 20
71.6346
 30
0.0
 11
101.844
 21
72.3771
 31
0.0
  0
LINE
  5
347
  8
0
 10
101.844
 20
72.3771
 30
0.0
 11
101.641
 21
73.149
 31
0.0
  0
LINE
  5
348
  8
0
 10
101.641
 20
73.149
 30
0.0
 11
101.412
 21
73.9495
 31
0.0
  0
LINE
  5
349
  8
0
 10
101.412
 20
73.9495
 30
0.0
 11
101.154
 21
74.7778
 31
0.0
  0
LINE
  5
34A
  8
0
 10
101.154
 20
74.7778
 30
0.0
 11
100.376
 21
74.9431
 31
0.0
  0
LINE
  5
34B
  8
0
 10
100.376
 20
74.9431
 30
0.0
 11
99.8033
 21
74.2914
 31
0.0
  0
LINE
  5
34C
  8
0
 10
99.8033
 20
74.2914
 30
0.0
 11
99.2681
 21
73.6534
 31
0.0
  0
LINE
  5
34D
  8
0
 10
99.2681
 20
73.6534
 30
0.0
 11
98.7694
 21
73.0305
 31
0.0
  0
LINE
  5
34E
  8
0
 10
98.7694
 20
73.0305
 30
0.0
 11
98.3063
 21
72.4239
 31
0.0
  0
LINE
  5
34F
  8
0
 10
98.3063
 20
72.4239
 30
0.0
 11
97.8777
 21
71.8351
 31
0.0
  0
LINE
  5
350
  8
0
 10
97.8777
 20
71.8351
 30
0.0
 11
97.8758
 21
71.825
 31
0.0
  0
LINE
  5
351
  8
0
 10
97.8758
 20
71.825
 30
0.0
 11
97.1808
 21
71.9475
 31
0.0
  0
LINE
  5
352
  8
0
 10
97.1808
 20
71.9475
 30
0.0
 11
97.1825
 21
71.9576
 31
0.0
  0
LINE
  5
353
  8
0
 10
97.1825
 20
71.9576
 30
0.0
 11
96.9811
 21
72.6576
 31
0.0
  0
LINE
  5
354
  8
0
 10
96.9811
 20
72.6576
 30
0.0
 11
96.7533
 21
73.386
 31
0.0
  0
LINE
  5
355
  8
0
 10
96.7533
 20
73.386
 30
0.0
 11
96.4978
 21
74.1419
 31
0.0
  0
LINE
  5
356
  8
0
 10
96.4978
 20
74.1419
 30
0.0
 11
96.2131
 21
74.9245
 31
0.0
  0
LINE
  5
357
  8
0
 10
96.2131
 20
74.9245
 30
0.0
 11
95.8978
 21
75.7327
 31
0.0
  0
LINE
  5
358
  8
0
 10
95.8978
 20
75.7327
 30
0.0
 11
95.1105
 21
75.8434
 31
0.0
  0
LINE
  5
359
  8
0
 10
95.1105
 20
75.8434
 30
0.0
 11
94.5846
 21
75.1533
 31
0.0
  0
LINE
  5
35A
  8
0
 10
94.5846
 20
75.1533
 30
0.0
 11
94.0952
 21
74.4795
 31
0.0
  0
LINE
  5
35B
  8
0
 10
94.0952
 20
74.4795
 30
0.0
 11
93.6412
 21
73.8233
 31
0.0
  0
LINE
  5
35C
  8
0
 10
93.6412
 20
73.8233
 30
0.0
 11
93.2215
 21
73.186
 31
0.0
  0
LINE
  5
35D
  8
0
 10
93.2215
 20
73.186
 30
0.0
 11
92.835
 21
72.5686
 31
0.0
  0
LINE
  5
35E
  8
0
 10
92.835
 20
72.5686
 30
0.0
 11
92.8338
 21
72.5585
 31
0.0
  0
LINE
  5
35F
  8
0
 10
92.8338
 20
72.5585
 30
0.0
 11
92.1319
 21
72.6322
 31
0.0
  0
LINE
  5
360
  8
0
 10
92.1319
 20
72.6322
 30
0.0
 11
92.1329
 21
72.6424
 31
0.0
  0
LINE
  5
361
  8
0
 10
92.1329
 20
72.6424
 30
0.0
 11
91.8832
 21
73.3266
 31
0.0
  0
LINE
  5
362
  8
0
 10
91.8832
 20
73.3266
 30
0.0
 11
91.6052
 21
74.0373
 31
0.0
  0
LINE
  5
363
  8
0
 10
91.6052
 20
74.0373
 30
0.0
 11
91.2975
 21
74.7736
 31
0.0
  0
LINE
  5
364
  8
0
 10
91.2975
 20
74.7736
 30
0.0
 11
90.9589
 21
75.5344
 31
0.0
  0
LINE
  5
365
  8
0
 10
90.9589
 20
75.5344
 30
0.0
 11
90.588
 21
76.3187
 31
0.0
  0
LINE
  5
366
  8
0
 10
90.588
 20
76.3187
 30
0.0
 11
89.7949
 21
76.3741
 31
0.0
  0
LINE
  5
367
  8
0
 10
89.7949
 20
76.3741
 30
0.0
 11
89.3185
 21
75.6491
 31
0.0
  0
LINE
  5
368
  8
0
 10
89.3185
 20
75.6491
 30
0.0
 11
88.8773
 21
74.9428
 31
0.0
  0
LINE
  5
369
  8
0
 10
88.8773
 20
74.9428
 30
0.0
 11
88.4701
 21
74.2566
 31
0.0
  0
LINE
  5
36A
  8
0
 10
88.4701
 20
74.2566
 30
0.0
 11
88.0959
 21
73.5915
 31
0.0
  0
LINE
  5
36B
  8
0
 10
88.0959
 20
73.5915
 30
0.0
 11
87.7534
 21
72.9487
 31
0.0
  0
LINE
  5
36C
  8
0
 10
87.7534
 20
72.9487
 30
0.0
 11
87.753
 21
72.9384
 31
0.0
  0
LINE
  5
36D
  8
0
 10
87.753
 20
72.9384
 30
0.0
 11
87.0476
 21
72.9631
 31
0.0
  0
LINE
  5
36E
  8
0
 10
87.0476
 20
72.9631
 30
0.0
 11
87.0479
 21
72.9733
 31
0.0
  0
LINE
  5
36F
  8
0
 10
87.0479
 20
72.9733
 30
0.0
 11
86.7511
 21
73.6384
 31
0.0
  0
LINE
  5
370
  8
0
 10
86.7511
 20
73.6384
 30
0.0
 11
86.4242
 21
74.328
 31
0.0
  0
LINE
  5
371
  8
0
 10
86.4242
 20
74.328
 30
0.0
 11
86.0659
 21
75.041
 31
0.0
  0
LINE
  5
372
  8
0
 10
86.0659
 20
75.041
 30
0.0
 11
85.675
 21
75.7763
 31
0.0
  0
LINE
  5
373
  8
0
 10
85.675
 20
75.7763
 30
0.0
 11
85.2504
 21
76.5329
 31
0.0
  0
LINE
  5
374
  8
0
 10
85.2504
 20
76.5329
 30
0.0
 11
84.4553
 21
76.5329
 31
0.0
  0
LINE
  5
375
  8
0
 10
84.4553
 20
76.5329
 30
0.0
 11
84.0306
 21
75.7763
 31
0.0
  0
LINE
  5
376
  8
0
 10
84.0306
 20
75.7763
 30
0.0
 11
83.6397
 21
75.041
 31
0.0
  0
LINE
  5
377
  8
0
 10
83.6397
 20
75.041
 30
0.0
 11
83.2814
 21
74.328
 31
0.0
  0
LINE
  5
378
  8
0
 10
83.2814
 20
74.328
 30
0.0
 11
82.9545
 21
73.6384
 31
0.0
  0
LINE
  5
379
  8
0
 10
82.9545
 20
73.6384
 30
0.0
 11
82.6577
 21
72.9733
 31
0.0
  0
LINE
  5
37A
  8
0
 10
82.6577
 20
72.9733
 30
0.0
 11
82.658
 21
72.9631
 31
0.0
  0
LINE
  5
37B
  8
0
 10
82.658
 20
72.9631
 30
0.0
 11
81.9527
 21
72.9384
 31
0.0
  0
LINE
  5
37C
  8
0
 10
81.9527
 20
72.9384
 30
0.0
 11
81.9522
 21
72.9487
 31
0.0
  0
LINE
  5
37D
  8
0
 10
81.9522
 20
72.9487
 30
0.0
 11
81.6097
 21
73.5915
 31
0.0
  0
LINE
  5
37E
  8
0
 10
81.6097
 20
73.5915
 30
0.0
 11
81.2355
 21
74.2566
 31
0.0
  0
LINE
  5
37F
  8
0
 10
81.2355
 20
74.2566
 30
0.0
 11
80.8284
 21
74.9428
 31
0.0
  0
LINE
  5
380
  8
0
 10
80.8284
 20
74.9428
 30
0.0
 11
80.3871
 21
75.6491
 31
0.0
  0
LINE
  5
381
  8
0
 10
80.3871
 20
75.6491
 30
0.0
 11
79.9107
 21
76.3741
 31
0.0
  0
LINE
  5
382
  8
0
 10
79.9107
 20
76.3741
 30
0.0
 11
79.1176
 21
76.3187
 31
0.0
  0
LINE
  5
383
  8
0
 10
79.1176
 20
76.3187
 30
0.0
 11
78.7467
 21
75.5344
 31
0.0
  0
LINE
  5
384
  8
0
 10
78.7467
 20
75.5344
 30
0.0
 11
78.4081
 21
74.7736
 31
0.0
  0
LINE
  5
385
  8
0
 10
78.4081
 20
74.7736
 30
0.0
 11
78.1004
 21
74.0373
 31
0.0
  0
LINE
  5
386
  8
0
 10
78.1004
 20
74.0373
 30
0.0
 11
77.8224
 21
73.3266
 31
0.0
  0
LINE
  5
387
  8
0
 10
77.8224
 20
73.3266
 30
0.0
 11
77.5727
 21
72.6424
 31
0.0
  0
LINE
  5
388
  8
0
 10
77.5727
 20
72.6424
 30
0.0
 11
77.5737
 21
72.6322
 31
0.0
  0
LINE
  5
389
  8
0
 10
77.5737
 20
72.6322
 30
0.0
 11
76.8718
 21
72.5584
 31
0.0
  0
LINE
  5
38A
  8
0
 10
76.8718
 20
72.5584
 30
0.0
 11
76.8707
 21
72.5686
 31
0.0
  0
LINE
  5
38B
  8
0
 10
76.8707
 20
72.5686
 30
0.0
 11
76.4842
 21
73.186
 31
0.0
  0
LINE
  5
38C
  8
0
 10
76.4842
 20
73.186
 30
0.0
 11
76.0645
 21
73.8233
 31
0.0
  0
LINE
  5
38D
  8
0
 10
76.0645
 20
73.8233
 30
0.0
 11
75.6104
 21
74.4795
 31
0.0
  0
LINE
  5
38E
  8
0
 10
75.6104
 20
74.4795
 30
0.0
 11
75.121
 21
75.1533
 31
0.0
  0
LINE
  5
38F
  8
0
 10
75.121
 20
75.1533
 30
0.0
 11
74.5952
 21
75.8434
 31
0.0
  0
LINE
  5
390
  8
0
 10
74.5952
 20
75.8434
 30
0.0
 11
73.8078
 21
75.7327
 31
0.0
  0
LINE
  5
391
  8
0
 10
73.8078
 20
75.7327
 30
0.0
 11
73.4926
 21
74.9245
 31
0.0
  0
LINE
  5
392
  8
0
 10
73.4926
 20
74.9245
 30
0.0
 11
73.2078
 21
74.1419
 31
0.0
  0
LINE
  5
393
  8
0
 10
73.2078
 20
74.1419
 30
0.0
 11
72.9523
 21
73.386
 31
0.0
  0
LINE
  5
394
  8
0
 10
72.9523
 20
73.386
 30
0.0
 11
72.7245
 21
72.6576
 31
0.0
  0
LINE
  5
395
  8
0
 10
72.7245
 20
72.6576
 30
0.0
 11
72.5231
 21
71.9576
 31
0.0
  0
LINE
  5
396
  8
0
 10
72.5231
 20
71.9576
 30
0.0
 11
72.5248
 21
71.9475
 31
0.0
  0
LINE
  5
397
  8
0
 10
72.5248
 20
71.9475
 30
0.0
 11
71.8298
 21
71.825
 31
0.0
  0
LINE
  5
398
  8
0
 10
71.8298
 20
71.825
 30
0.0
 11
71.828
 21
71.8351
 31
0.0
  0
LINE
  5
399
  8
0
 10
71.828
 20
71.8351
 30
0.0
 11
71.3994
 21
72.4239
 31
0.0
  0
LINE
  5
39A
  8
0
 10
71.3994
 20
72.4239
 30
0.0
 11
70.9362
 21
73.0305
 31
0.0
  0
LINE
  5
39B
  8
0
 10
70.9362
 20
73.0305
 30
0.0
 11
70.4375
 21
73.6534
 31
0.0
  0
LINE
  5
39C
  8
0
 10
70.4375
 20
73.6534
 30
0.0
 11
69.9023
 21
74.2914
 31
0.0
  0
LINE
  5
39D
  8
0
 10
69.9023
 20
74.2914
 30
0.0
 11
69.3296
 21
74.9431
 31
0.0
  0
LINE
  5
39E
  8
0
 10
69.3296
 20
74.9431
 30
0.0
 11
68.5519
 21
74.7778
 31
0.0
  0
LINE
  5
39F
  8
0
 10
68.5519
 20
74.7778
 30
0.0
 11
68.2938
 21
73.9495
 31
0.0
  0
LINE
  5
3A0
  8
0
 10
68.2938
 20
73.9495
 30
0.0
 11
68.0643
 21
73.149
 31
0.0
  0
LINE
  5
3A1
  8
0
 10
68.0643
 20
73.149
 30
0.0
 11
67.8621
 21
72.3771
 31
0.0
  0
LINE
  5
3A2
  8
0
 10
67.8621
 20
72.3771
 30
0.0
 11
67.6857
 21
71.6346
 31
0.0
  0
LINE
  5
3A3
  8
0
 10
67.6857
 20
71.6346
 30
0.0
 11
67.5336
 21
70.9223
 31
0.0
  0
LINE
  5
3A4
  8
0
 10
67.5336
 20
70.9223
 30
0.0
 11
67.5361
 21
70.9123
 31
0.0
  0
LINE
  5
3A5
  8
0
 10
67.5361
 20
70.9123
 30
0.0
 11
66.8513
 21
70.7416
 31
0.0
  0
LINE
  5
3A6
  8
0
 10
66.8513
 20
70.7416
 30
0.0
 11
66.8487
 21
70.7515
 31
0.0
  0
LINE
  5
3A7
  8
0
 10
66.8487
 20
70.7515
 30
0.0
 11
66.3801
 21
71.3091
 31
0.0
  0
LINE
  5
3A8
  8
0
 10
66.3801
 20
71.3091
 30
0.0
 11
65.8757
 21
71.8818
 31
0.0
  0
LINE
  5
3A9
  8
0
 10
65.8757
 20
71.8818
 30
0.0
 11
65.3348
 21
72.4684
 31
0.0
  0
LINE
  5
3AA
  8
0
 10
65.3348
 20
72.4684
 30
0.0
 11
64.7564
 21
73.0675
 31
0.0
  0
LINE
  5
3AB
  8
0
 10
64.7564
 20
73.0675
 30
0.0
 11
64.1396
 21
73.6777
 31
0.0
  0
LINE
  5
3AC
  8
0
 10
64.1396
 20
73.6777
 30
0.0
 11
63.3754
 21
73.4585
 31
0.0
  0
LINE
  5
3AD
  8
0
 10
63.3754
 20
73.4585
 30
0.0
 11
63.1757
 21
72.6143
 31
0.0
  0
LINE
  5
3AE
  8
0
 10
63.1757
 20
72.6143
 30
0.0
 11
63.0026
 21
71.7997
 31
0.0
  0
LINE
  5
3AF
  8
0
 10
63.0026
 20
71.7997
 30
0.0
 11
62.8547
 21
71.0155
 31
0.0
  0
LINE
  5
3B0
  8
0
 10
62.8547
 20
71.0155
 30
0.0
 11
62.7305
 21
70.2626
 31
0.0
  0
LINE
  5
3B1
  8
0
 10
62.7305
 20
70.2626
 30
0.0
 11
62.6286
 21
69.5414
 31
0.0
  0
LINE
  5
3B2
  8
0
 10
62.6286
 20
69.5414
 30
0.0
 11
62.6317
 21
69.5316
 31
0.0
  0
LINE
  5
3B3
  8
0
 10
62.6317
 20
69.5316
 30
0.0
 11
61.9604
 21
69.3135
 31
0.0
  0
LINE
  5
3B4
  8
0
 10
61.9604
 20
69.3135
 30
0.0
 11
61.9572
 21
69.3233
 31
0.0
  0
LINE
  5
3B5
  8
0
 10
61.9572
 20
69.3233
 30
0.0
 11
61.4508
 21
69.8468
 31
0.0
  0
LINE
  5
3B6
  8
0
 10
61.4508
 20
69.8468
 30
0.0
 11
60.9078
 21
70.3829
 31
0.0
  0
LINE
  5
3B7
  8
0
 10
60.9078
 20
70.3829
 30
0.0
 11
60.3272
 21
70.9304
 31
0.0
  0
LINE
  5
3B8
  8
0
 10
60.3272
 20
70.9304
 30
0.0
 11
59.7084
 21
71.4877
 31
0.0
  0
LINE
  5
3B9
  8
0
 10
59.7084
 20
71.4877
 30
0.0
 11
59.0506
 21
72.0533
 31
0.0
  0
LINE
  5
3BA
  8
0
 10
59.0506
 20
72.0533
 30
0.0
 11
58.3035
 21
71.7814
 31
0.0
  0
LINE
  5
3BB
  8
0
 10
58.3035
 20
71.7814
 30
0.0
 11
58.1631
 21
70.9252
 31
0.0
  0
LINE
  5
3BC
  8
0
 10
58.1631
 20
70.9252
 30
0.0
 11
58.0473
 21
70.1006
 31
0.0
  0
LINE
  5
3BD
  8
0
 10
58.0473
 20
70.1006
 30
0.0
 11
57.9545
 21
69.308
 31
0.0
  0
LINE
  5
3BE
  8
0
 10
57.9545
 20
69.308
 30
0.0
 11
57.8832
 21
68.5482
 31
0.0
  0
LINE
  5
3BF
  8
0
 10
57.8832
 20
68.5482
 30
0.0
 11
57.8317
 21
67.8217
 31
0.0
  0
LINE
  5
3C0
  8
0
 10
57.8317
 20
67.8217
 30
0.0
 11
57.8355
 21
67.8122
 31
0.0
  0
LINE
  5
3C1
  8
0
 10
57.8355
 20
67.8122
 30
0.0
 11
57.1811
 21
67.5478
 31
0.0
  0
LINE
  5
3C2
  8
0
 10
57.1811
 20
67.5478
 30
0.0
 11
57.1772
 21
67.5573
 31
0.0
  0
LINE
  5
3C3
  8
0
 10
57.1772
 20
67.5573
 30
0.0
 11
56.6355
 21
68.0442
 31
0.0
  0
LINE
  5
3C4
  8
0
 10
56.6355
 20
68.0442
 30
0.0
 11
56.0564
 21
68.5411
 31
0.0
  0
LINE
  5
3C5
  8
0
 10
56.0564
 20
68.5411
 30
0.0
 11
55.4391
 21
69.0468
 31
0.0
  0
LINE
  5
3C6
  8
0
 10
55.4391
 20
69.0468
 30
0.0
 11
54.7829
 21
69.5596
 31
0.0
  0
LINE
  5
3C7
  8
0
 10
54.7829
 20
69.5596
 30
0.0
 11
54.0872
 21
70.0779
 31
0.0
  0
LINE
  5
3C8
  8
0
 10
54.0872
 20
70.0779
 30
0.0
 11
53.3609
 21
69.7546
 31
0.0
  0
LINE
  5
3C9
  8
0
 10
53.3609
 20
69.7546
 30
0.0
 11
53.2807
 21
68.8907
 31
0.0
  0
LINE
  5
3CA
  8
0
 10
53.2807
 20
68.8907
 30
0.0
 11
53.2227
 21
68.06
 31
0.0
  0
LINE
  5
3CB
  8
0
 10
53.2227
 20
68.06
 30
0.0
 11
53.1853
 21
67.2629
 31
0.0
  0
LINE
  5
3CC
  8
0
 10
53.1853
 20
67.2629
 30
0.0
 11
53.1672
 21
66.4999
 31
0.0
  0
LINE
  5
3CD
  8
0
 10
53.1672
 20
66.4999
 30
0.0
 11
53.1665
 21
65.7716
 31
0.0
  0
LINE
  5
3CE
  8
0
 10
53.1665
 20
65.7716
 30
0.0
 11
53.171
 21
65.7624
 31
0.0
  0
LINE
  5
3CF
  8
0
 10
53.171
 20
65.7624
 30
0.0
 11
52.5366
 21
65.453
 31
0.0
  0
LINE
  5
3D0
  8
0
 10
52.5366
 20
65.453
 30
0.0
 11
52.5321
 21
65.4622
 31
0.0
  0
LINE
  5
3D1
  8
0
 10
52.5321
 20
65.4622
 30
0.0
 11
51.9578
 21
65.9101
 31
0.0
  0
LINE
  5
3D2
  8
0
 10
51.9578
 20
65.9101
 30
0.0
 11
51.3454
 21
66.3655
 31
0.0
  0
LINE
  5
3D3
  8
0
 10
51.3454
 20
66.3655
 30
0.0
 11
50.6943
 21
66.8268
 31
0.0
  0
LINE
  5
3D4
  8
0
 10
50.6943
 20
66.8268
 30
0.0
 11
50.004
 21
67.2926
 31
0.0
  0
LINE
  5
3D5
  8
0
 10
50.004
 20
67.2926
 30
0.0
 11
49.2738
 21
67.7611
 31
0.0
  0
LINE
  5
3D6
  8
0
 10
49.2738
 20
67.7611
 30
0.0
 11
48.5718
 21
67.3879
 31
0.0
  0
LINE
  5
3D7
  8
0
 10
48.5718
 20
67.3879
 30
0.0
 11
48.552
 21
66.5205
 31
0.0
  0
LINE
  5
3D8
  8
0
 10
48.552
 20
66.5205
 30
0.0
 11
48.5521
 21
65.6877
 31
0.0
  0
LINE
  5
3D9
  8
0
 10
48.5521
 20
65.6877
 30
0.0
 11
48.5705
 21
64.89
 31
0.0
  0
LINE
  5
3DA
  8
0
 10
48.5705
 20
64.89
 30
0.0
 11
48.6056
 21
64.1277
 31
0.0
  0
LINE
  5
3DB
  8
0
 10
48.6056
 20
64.1277
 30
0.0
 11
48.6557
 21
63.4011
 31
0.0
  0
LINE
  5
3DC
  8
0
 10
48.6557
 20
63.4011
 30
0.0
 11
48.6608
 21
63.3922
 31
0.0
  0
LINE
  5
3DD
  8
0
 10
48.6608
 20
63.3922
 30
0.0
 11
48.0496
 21
63.0393
 31
0.0
  0
LINE
  5
3DE
  8
0
 10
48.0496
 20
63.0393
 30
0.0
 11
48.0444
 21
63.0481
 31
0.0
  0
LINE
  5
3DF
  8
0
 10
48.0444
 20
63.0481
 30
0.0
 11
47.4402
 21
63.4549
 31
0.0
  0
LINE
  5
3E0
  8
0
 10
47.4402
 20
63.4549
 30
0.0
 11
46.7976
 21
63.8664
 31
0.0
  0
LINE
  5
3E1
  8
0
 10
46.7976
 20
63.8664
 30
0.0
 11
46.1159
 21
64.2812
 31
0.0
  0
LINE
  5
3E2
  8
0
 10
46.1159
 20
64.2812
 30
0.0
 11
45.3947
 21
64.6977
 31
0.0
  0
LINE
  5
3E3
  8
0
 10
45.3947
 20
64.6977
 30
0.0
 11
44.6337
 21
65.1142
 31
0.0
  0
LINE
  5
3E4
  8
0
 10
44.6337
 20
65.1142
 30
0.0
 11
43.9595
 21
64.6929
 31
0.0
  0
LINE
  5
3E5
  8
0
 10
43.9595
 20
64.6929
 30
0.0
 11
44.0002
 21
63.8263
 31
0.0
  0
LINE
  5
3E6
  8
0
 10
44.0002
 20
63.8263
 30
0.0
 11
44.0584
 21
62.9955
 31
0.0
  0
LINE
  5
3E7
  8
0
 10
44.0584
 20
62.9955
 30
0.0
 11
44.1324
 21
62.201
 31
0.0
  0
LINE
  5
3E8
  8
0
 10
44.1324
 20
62.201
 30
0.0
 11
44.2205
 21
61.443
 31
0.0
  0
LINE
  5
3E9
  8
0
 10
44.2205
 20
61.443
 30
0.0
 11
44.3213
 21
60.7216
 31
0.0
  0
LINE
  5
3EA
  8
0
 10
44.3213
 20
60.7216
 30
0.0
 11
44.327
 21
60.7131
 31
0.0
  0
LINE
  5
3EB
  8
0
 10
44.327
 20
60.7131
 30
0.0
 11
43.7418
 21
60.3185
 31
0.0
  0
LINE
  5
3EC
  8
0
 10
43.7418
 20
60.3185
 30
0.0
 11
43.7361
 21
60.3269
 31
0.0
  0
LINE
  5
3ED
  8
0
 10
43.7361
 20
60.3269
 30
0.0
 11
43.105
 21
60.6905
 31
0.0
  0
LINE
  5
3EE
  8
0
 10
43.105
 20
60.6905
 30
0.0
 11
42.4352
 21
61.0563
 31
0.0
  0
LINE
  5
3EF
  8
0
 10
42.4352
 20
61.0563
 30
0.0
 11
41.7262
 21
61.4225
 31
0.0
  0
LINE
  5
3F0
  8
0
 10
41.7262
 20
61.4225
 30
0.0
 11
40.9778
 21
61.7876
 31
0.0
  0
LINE
  5
3F1
  8
0
 10
40.9778
 20
61.7876
 30
0.0
 11
40.1895
 21
62.15
 31
0.0
  0
LINE
  5
3F2
  8
0
 10
40.1895
 20
62.15
 30
0.0
 11
39.5463
 21
61.6827
 31
0.0
  0
LINE
  5
3F3
  8
0
 10
39.5463
 20
61.6827
 30
0.0
 11
39.6474
 21
60.821
 31
0.0
  0
LINE
  5
3F4
  8
0
 10
39.6474
 20
60.821
 30
0.0
 11
39.7634
 21
59.9964
 31
0.0
  0
LINE
  5
3F5
  8
0
 10
39.7634
 20
59.9964
 30
0.0
 11
39.8926
 21
59.209
 31
0.0
  0
LINE
  5
3F6
  8
0
 10
39.8926
 20
59.209
 30
0.0
 11
40.0335
 21
58.4589
 31
0.0
  0
LINE
  5
3F7
  8
0
 10
40.0335
 20
58.4589
 30
0.0
 11
40.1843
 21
57.7464
 31
0.0
  0
LINE
  5
3F8
  8
0
 10
40.1843
 20
57.7464
 30
0.0
 11
40.1905
 21
57.7383
 31
0.0
  0
LINE
  5
3F9
  8
0
 10
40.1905
 20
57.7383
 30
0.0
 11
39.6344
 21
57.3038
 31
0.0
  0
LINE
  5
3FA
  8
0
 10
39.6344
 20
57.3038
 30
0.0
 11
39.628
 21
57.3118
 31
0.0
  0
LINE
  5
3FB
  8
0
 10
39.628
 20
57.3118
 30
0.0
 11
38.9731
 21
57.6305
 31
0.0
  0
LINE
  5
3FC
  8
0
 10
38.9731
 20
57.6305
 30
0.0
 11
38.2794
 21
57.9486
 31
0.0
  0
LINE
  5
3FD
  8
0
 10
38.2794
 20
57.9486
 30
0.0
 11
37.5467
 21
58.2645
 31
0.0
  0
LINE
  5
3FE
  8
0
 10
37.5467
 20
58.2645
 30
0.0
 11
36.7746
 21
58.5766
 31
0.0
  0
LINE
  5
3FF
  8
0
 10
36.7746
 20
58.5766
 30
0.0
 11
35.963
 21
58.8831
 31
0.0
  0
LINE
  5
400
  8
0
 10
35.963
 20
58.8831
 30
0.0
 11
35.3539
 21
58.3721
 31
0.0
  0
LINE
  5
401
  8
0
 10
35.3539
 20
58.3721
 30
0.0
 11
35.5149
 21
57.5195
 31
0.0
  0
LINE
  5
402
  8
0
 10
35.5149
 20
57.5195
 30
0.0
 11
35.6881
 21
56.705
 31
0.0
  0
LINE
  5
403
  8
0
 10
35.6881
 20
56.705
 30
0.0
 11
35.8719
 21
55.9285
 31
0.0
  0
LINE
  5
404
  8
0
 10
35.8719
 20
55.9285
 30
0.0
 11
36.0648
 21
55.1901
 31
0.0
  0
LINE
  5
405
  8
0
 10
36.0648
 20
55.1901
 30
0.0
 11
36.2649
 21
54.4898
 31
0.0
  0
LINE
  5
406
  8
0
 10
36.2649
 20
54.4898
 30
0.0
 11
36.2717
 21
54.4821
 31
0.0
  0
LINE
  5
407
  8
0
 10
36.2717
 20
54.4821
 30
0.0
 11
35.7472
 21
54.0099
 31
0.0
  0
LINE
  5
408
  8
0
 10
35.7472
 20
54.0099
 30
0.0
 11
35.7403
 21
54.0175
 31
0.0
  0
LINE
  5
409
  8
0
 10
35.7403
 20
54.0175
 30
0.0
 11
35.0648
 21
54.2897
 31
0.0
  0
LINE
  5
40A
  8
0
 10
35.0648
 20
54.2897
 30
0.0
 11
34.3506
 21
54.5587
 31
0.0
  0
LINE
  5
40B
  8
0
 10
34.3506
 20
54.5587
 30
0.0
 11
33.5976
 21
54.8227
 31
0.0
  0
LINE
  5
40C
  8
0
 10
33.5976
 20
54.8227
 30
0.0
 11
32.8056
 21
55.0801
 31
0.0
  0
LINE
  5
40D
  8
0
 10
32.8056
 20
55.0801
 30
0.0
 11
31.9746
 21
55.3293
 31
0.0
  0
LINE
  5
40E
  8
0
 10
31.9746
 20
55.3293
 30
0.0
 11
31.4027
 21
54.777
 31
0.0
  0
LINE
  5
40F
  8
0
 10
31.4027
 20
54.777
 30
0.0
 11
31.6227
 21
53.9378
 31
0.0
  0
LINE
  5
410
  8
0
 10
31.6227
 20
53.9378
 30
0.0
 11
31.8523
 21
53.1373
 31
0.0
  0
LINE
  5
411
  8
0
 10
31.8523
 20
53.1373
 30
0.0
 11
32.0899
 21
52.3755
 31
0.0
  0
LINE
  5
412
  8
0
 10
32.0899
 20
52.3755
 30
0.0
 11
32.3337
 21
51.6524
 31
0.0
  0
LINE
  5
413
  8
0
 10
32.3337
 20
51.6524
 30
0.0
 11
32.5822
 21
50.9677
 31
0.0
  0
LINE
  5
414
  8
0
 10
32.5822
 20
50.9677
 30
0.0
 11
32.5896
 21
50.9606
 31
0.0
  0
LINE
  5
415
  8
0
 10
32.5896
 20
50.9606
 30
0.0
 11
32.0993
 21
50.4529
 31
0.0
  0
LINE
  5
416
  8
0
 10
32.0993
 20
50.4529
 30
0.0
 11
32.0919
 21
50.46
 31
0.0
  0
LINE
  5
417
  8
0
 10
32.0919
 20
50.46
 30
0.0
 11
31.399
 21
50.6844
 31
0.0
  0
LINE
  5
418
  8
0
 10
31.399
 20
50.6844
 30
0.0
 11
30.6678
 21
50.9029
 31
0.0
  0
LINE
  5
419
  8
0
 10
30.6678
 20
50.9029
 30
0.0
 11
29.8982
 21
51.1137
 31
0.0
  0
LINE
  5
41A
  8
0
 10
29.8982
 20
51.1137
 30
0.0
 11
29.0902
 21
51.3153
 31
0.0
  0
LINE
  5
41B
  8
0
 10
29.0902
 20
51.3153
 30
0.0
 11
28.2438
 21
51.5059
 31
0.0
  0
LINE
  5
41C
  8
0
 10
28.2438
 20
51.5059
 30
0.0
 11
27.7118
 21
50.9151
 31
0.0
  0
LINE
  5
41D
  8
0
 10
27.7118
 20
50.9151
 30
0.0
 11
27.9898
 21
50.0932
 31
0.0
  0
LINE
  5
41E
  8
0
 10
27.9898
 20
50.0932
 30
0.0
 11
28.2747
 21
49.3107
 31
0.0
  0
LINE
  5
41F
  8
0
 10
28.2747
 20
49.3107
 30
0.0
 11
28.5649
 21
48.5674
 31
0.0
  0
LINE
  5
420
  8
0
 10
28.5649
 20
48.5674
 30
0.0
 11
28.8586
 21
47.863
 31
0.0
  0
LINE
  5
421
  8
0
 10
28.8586
 20
47.863
 30
0.0
 11
29.1542
 21
47.1974
 31
0.0
  0
LINE
  5
422
  8
0
 10
29.1542
 20
47.1974
 30
0.0
 11
29.1621
 21
47.1908
 31
0.0
  0
LINE
  5
423
  8
0
 10
29.1621
 20
47.1908
 30
0.0
 11
28.7084
 21
46.6501
 31
0.0
  0
LINE
  5
424
  8
0
 10
28.7084
 20
46.6501
 30
0.0
 11
28.7005
 21
46.6566
 31
0.0
  0
LINE
  5
425
  8
0
 10
28.7005
 20
46.6566
 30
0.0
 11
27.9936
 21
46.8322
 31
0.0
  0
LINE
  5
426
  8
0
 10
27.9936
 20
46.8322
 30
0.0
 11
27.249
 21
46.9991
 31
0.0
  0
LINE
  5
427
  8
0
 10
27.249
 20
46.9991
 30
0.0
 11
26.4666
 21
47.1558
 31
0.0
  0
LINE
  5
428
  8
0
 10
26.4666
 20
47.1558
 30
0.0
 11
25.6464
 21
47.3005
 31
0.0
  0
LINE
  5
429
  8
0
 10
25.6464
 20
47.3005
 30
0.0
 11
24.7888
 21
47.4316
 31
0.0
  0
LINE
  5
42A
  8
0
 10
24.7888
 20
47.4316
 30
0.0
 11
24.2993
 21
46.8051
 31
0.0
  0
LINE
  5
42B
  8
0
 10
24.2993
 20
46.8051
 30
0.0
 11
24.634
 21
46.0047
 31
0.0
  0
LINE
  5
42C
  8
0
 10
24.634
 20
46.0047
 30
0.0
 11
24.9728
 21
45.2439
 31
0.0
  0
LINE
  5
42D
  8
0
 10
24.9728
 20
45.2439
 30
0.0
 11
25.3141
 21
44.5226
 31
0.0
  0
LINE
  5
42E
  8
0
 10
25.3141
 20
44.5226
 30
0.0
 11
25.6562
 21
43.8405
 31
0.0
  0
LINE
  5
42F
  8
0
 10
25.6562
 20
43.8405
 30
0.0
 11
25.9976
 21
43.1971
 31
0.0
  0
LINE
  5
430
  8
0
 10
25.9976
 20
43.1971
 30
0.0
 11
26.0059
 21
43.191
 31
0.0
  0
LINE
  5
431
  8
0
 10
26.0059
 20
43.191
 30
0.0
 11
25.591
 21
42.62
 31
0.0
  0
LINE
  5
432
  8
0
 10
25.591
 20
42.62
 30
0.0
 11
25.5827
 21
42.626
 31
0.0
  0
LINE
  5
433
  8
0
 10
25.5827
 20
42.626
 30
0.0
 11
24.8653
 21
42.7518
 31
0.0
  0
LINE
  5
434
  8
0
 10
24.8653
 20
42.7518
 30
0.0
 11
24.1108
 21
42.8664
 31
0.0
  0
LINE
  5
435
  8
0
 10
24.1108
 20
42.8664
 30
0.0
 11
23.3194
 21
42.9681
 31
0.0
  0
LINE
  5
436
  8
0
 10
23.3194
 20
42.9681
 30
0.0
 11
22.4911
 21
43.0552
 31
0.0
  0
LINE
  5
437
  8
0
 10
22.4911
 20
43.0552
 30
0.0
 11
21.6265
 21
43.1262
 31
0.0
  0
LINE
  5
438
  8
0
 10
21.6265
 20
43.1262
 30
0.0
 11
21.1819
 21
42.4671
 31
0.0
  0
LINE
  5
439
  8
0
 10
21.1819
 20
42.4671
 30
0.0
 11
21.5716
 21
41.6919
 31
0.0
  0
LINE
  5
43A
  8
0
 10
21.5716
 20
41.6919
 30
0.0
 11
21.9626
 21
40.9567
 31
0.0
  0
LINE
  5
43B
  8
0
 10
21.9626
 20
40.9567
 30
0.0
 11
22.3534
 21
40.261
 31
0.0
  0
LINE
  5
43C
  8
0
 10
22.3534
 20
40.261
 30
0.0
 11
22.7423
 21
39.6043
 31
0.0
  0
LINE
  5
43D
  8
0
 10
22.7423
 20
39.6043
 30
0.0
 11
23.1277
 21
38.9863
 31
0.0
  0
LINE
  5
43E
  8
0
 10
23.1277
 20
38.9863
 30
0.0
 11
23.1364
 21
38.9808
 31
0.0
  0
LINE
  5
43F
  8
0
 10
23.1364
 20
38.9808
 30
0.0
 11
22.7623
 21
38.3823
 31
0.0
  0
LINE
  5
440
  8
0
 10
22.7623
 20
38.3823
 30
0.0
 11
22.7536
 21
38.3877
 31
0.0
  0
LINE
  5
441
  8
0
 10
22.7536
 20
38.3877
 30
0.0
 11
22.0292
 21
38.4632
 31
0.0
  0
LINE
  5
442
  8
0
 10
22.0292
 20
38.4632
 30
0.0
 11
21.2686
 21
38.5249
 31
0.0
  0
LINE
  5
443
  8
0
 10
21.2686
 20
38.5249
 30
0.0
 11
20.4719
 21
38.5711
 31
0.0
  0
LINE
  5
444
  8
0
 10
20.4719
 20
38.5711
 30
0.0
 11
19.6397
 21
38.6002
 31
0.0
  0
LINE
  5
445
  8
0
 10
19.6397
 20
38.6002
 30
0.0
 11
18.7722
 21
38.6107
 31
0.0
  0
LINE
  5
446
  8
0
 10
18.7722
 20
38.6107
 30
0.0
 11
18.3746
 21
37.9222
 31
0.0
  0
LINE
  5
447
  8
0
 10
18.3746
 20
37.9222
 30
0.0
 11
18.8175
 21
37.1761
 31
0.0
  0
LINE
  5
448
  8
0
 10
18.8175
 20
37.1761
 30
0.0
 11
19.2588
 21
36.4699
 31
0.0
  0
LINE
  5
449
  8
0
 10
19.2588
 20
36.4699
 30
0.0
 11
19.6972
 21
35.8031
 31
0.0
  0
LINE
  5
44A
  8
0
 10
19.6972
 20
35.8031
 30
0.0
 11
20.1309
 21
35.1752
 31
0.0
  0
LINE
  5
44B
  8
0
 10
20.1309
 20
35.1752
 30
0.0
 11
20.5585
 21
34.5856
 31
0.0
  0
LINE
  5
44C
  8
0
 10
20.5585
 20
34.5856
 30
0.0
 11
20.5675
 21
34.5807
 31
0.0
  0
LINE
  5
44D
  8
0
 10
20.5675
 20
34.5807
 30
0.0
 11
20.2362
 21
33.9576
 31
0.0
  0
LINE
  5
44E
  8
0
 10
20.2362
 20
33.9576
 30
0.0
 11
20.2271
 21
33.9624
 31
0.0
  0
LINE
  5
44F
  8
0
 10
20.2271
 20
33.9624
 30
0.0
 11
19.4992
 21
33.9871
 31
0.0
  0
LINE
  5
450
  8
0
 10
19.4992
 20
33.9871
 30
0.0
 11
18.7361
 21
33.9956
 31
0.0
  0
LINE
  5
451
  8
0
 10
18.7361
 20
33.9956
 30
0.0
 11
17.9382
 21
33.9861
 31
0.0
  0
LINE
  5
452
  8
0
 10
17.9382
 20
33.9861
 30
0.0
 11
17.1059
 21
33.9572
 31
0.0
  0
LINE
  5
453
  8
0
 10
17.1059
 20
33.9572
 30
0.0
 11
16.2398
 21
33.9071
 31
0.0
  0
LINE
  5
454
  8
0
 10
16.2398
 20
33.9071
 30
0.0
 11
15.8913
 21
33.1925
 31
0.0
  0
LINE
  5
455
  8
0
 10
15.8913
 20
33.1925
 30
0.0
 11
16.3851
 21
32.4791
 31
0.0
  0
LINE
  5
456
  8
0
 10
16.3851
 20
32.4791
 30
0.0
 11
16.8746
 21
31.8055
 31
0.0
  0
LINE
  5
457
  8
0
 10
16.8746
 20
31.8055
 30
0.0
 11
17.3584
 21
31.1709
 31
0.0
  0
LINE
  5
458
  8
0
 10
17.3584
 20
31.1709
 30
0.0
 11
17.8349
 21
30.5748
 31
0.0
  0
LINE
  5
459
  8
0
 10
17.8349
 20
30.5748
 30
0.0
 11
18.3025
 21
30.0164
 31
0.0
  0
LINE
  5
45A
  8
0
 10
18.3025
 20
30.0164
 30
0.0
 11
18.3119
 21
30.0122
 31
0.0
  0
LINE
  5
45B
  8
0
 10
18.3119
 20
30.0122
 30
0.0
 11
18.0248
 21
29.3674
 31
0.0
  0
LINE
  5
45C
  8
0
 10
18.0248
 20
29.3674
 30
0.0
 11
18.0154
 21
29.3716
 31
0.0
  0
LINE
  5
45D
  8
0
 10
18.0154
 20
29.3716
 30
0.0
 11
17.2876
 21
29.3455
 31
0.0
  0
LINE
  5
45E
  8
0
 10
17.2876
 20
29.3455
 30
0.0
 11
16.5257
 21
29.3007
 31
0.0
  0
LINE
  5
45F
  8
0
 10
16.5257
 20
29.3007
 30
0.0
 11
15.7304
 21
29.2356
 31
0.0
  0
LINE
  5
460
  8
0
 10
15.7304
 20
29.2356
 30
0.0
 11
14.9022
 21
29.1487
 31
0.0
  0
LINE
  5
461
  8
0
 10
14.9022
 20
29.1487
 30
0.0
 11
14.0417
 21
29.0383
 31
0.0
  0
LINE
  5
462
  8
0
 10
14.0417
 20
29.0383
 30
0.0
 11
13.7439
 21
28.3011
 31
0.0
  0
LINE
  5
463
  8
0
 10
13.7439
 20
28.3011
 30
0.0
 11
14.2862
 21
27.6239
 31
0.0
  0
LINE
  5
464
  8
0
 10
14.2862
 20
27.6239
 30
0.0
 11
14.8216
 21
26.9861
 31
0.0
  0
LINE
  5
465
  8
0
 10
14.8216
 20
26.9861
 30
0.0
 11
15.3484
 21
26.3868
 31
0.0
  0
LINE
  5
466
  8
0
 10
15.3484
 20
26.3868
 30
0.0
 11
15.8653
 21
25.8254
 31
0.0
  0
LINE
  5
467
  8
0
 10
15.8653
 20
25.8254
 30
0.0
 11
16.3708
 21
25.301
 31
0.0
  0
LINE
  5
468
  8
0
 10
16.3708
 20
25.301
 30
0.0
 11
16.3804
 21
25.2974
 31
0.0
  0
LINE
  5
469
  8
0
 10
16.3804
 20
25.2974
 30
0.0
 11
16.139
 21
24.6342
 31
0.0
  0
LINE
  5
46A
  8
0
 10
16.139
 20
24.6342
 30
0.0
 11
16.1294
 21
24.6377
 31
0.0
  0
LINE
  5
46B
  8
0
 10
16.1294
 20
24.6377
 30
0.0
 11
15.4051
 21
24.5609
 31
0.0
  0
LINE
  5
46C
  8
0
 10
15.4051
 20
24.5609
 30
0.0
 11
14.6483
 21
24.4631
 31
0.0
  0
LINE
  5
46D
  8
0
 10
14.6483
 20
24.4631
 30
0.0
 11
13.8594
 21
24.3427
 31
0.0
  0
LINE
  5
46E
  8
0
 10
13.8594
 20
24.3427
 30
0.0
 11
13.0393
 21
24.1982
 31
0.0
  0
LINE
  5
46F
  8
0
 10
13.0393
 20
24.1982
 30
0.0
 11
12.1886
 21
24.028
 31
0.0
  0
LINE
  5
470
  8
0
 10
12.1886
 20
24.028
 30
0.0
 11
11.9429
 21
23.2719
 31
0.0
  0
LINE
  5
471
  8
0
 10
11.9429
 20
23.2719
 30
0.0
 11
12.5311
 21
22.6342
 31
0.0
  0
LINE
  5
472
  8
0
 10
12.5311
 20
22.6342
 30
0.0
 11
13.1097
 21
22.0352
 31
0.0
  0
LINE
  5
473
  8
0
 10
13.1097
 20
22.0352
 30
0.0
 11
13.6771
 21
21.4741
 31
0.0
  0
LINE
  5
474
  8
0
 10
13.6771
 20
21.4741
 30
0.0
 11
14.2319
 21
20.9501
 31
0.0
  0
LINE
  5
475
  8
0
 10
14.2319
 20
20.9501
 30
0.0
 11
14.7727
 21
20.4623
 31
0.0
  0
LINE
  5
476
  8
0
 10
14.7727
 20
20.4623
 30
0.0
 11
14.7826
 21
20.4594
 31
0.0
  0
LINE
  5
477
  8
0
 10
14.7826
 20
20.4594
 30
0.0
 11
14.588
 21
19.781
 31
0.0
  0
LINE
  5
478
  8
0
 10
14.588
 20
19.781
 30
0.0
 11
14.5782
 21
19.7838
 31
0.0
  0
LINE
  5
479
  8
0
 10
14.5782
 20
19.7838
 30
0.0
 11
13.861
 21
19.6566
 31
0.0
  0
LINE
  5
47A
  8
0
 10
13.861
 20
19.6566
 30
0.0
 11
13.1128
 21
19.5063
 31
0.0
  0
LINE
  5
47B
  8
0
 10
13.1128
 20
19.5063
 30
0.0
 11
12.3343
 21
19.3311
 31
0.0
  0
LINE
  5
47C
  8
0
 10
12.3343
 20
19.3311
 30
0.0
 11
11.5263
 21
19.1297
 31
0.0
  0
LINE
  5
47D
  8
0
 10
11.5263
 20
19.1297
 30
0.0
 11
10.6895
 21
18.9007
 31
0.0
  0
LINE
  5
47E
  8
0
 10
10.6895
 20
18.9007
 30
0.0
 11
10.4971
 21
18.1293
 31
0.0
  0
LINE
  5
47F
  8
0
 10
10.4971
 20
18.1293
 30
0.0
 11
11.1284
 21
17.5341
 31
0.0
  0
LINE
  5
480
  8
0
 10
11.1284
 20
17.5341
 30
0.0
 11
11.7474
 21
16.977
 31
0.0
  0
LINE
  5
481
  8
0
 10
11.7474
 20
16.977
 30
0.0
 11
12.3525
 21
16.4568
 31
0.0
  0
LINE
  5
482
  8
0
 10
12.3525
 20
16.4568
 30
0.0
 11
12.9425
 21
15.9728
 31
0.0
  0
LINE
  5
483
  8
0
 10
12.9425
 20
15.9728
 30
0.0
 11
13.5161
 21
15.5239
 31
0.0
  0
LINE
  5
484
  8
0
 10
13.5161
 20
15.5239
 30
0.0
 11
13.5261
 21
15.5217
 31
0.0
  0
LINE
  5
485
  8
0
 10
13.5261
 20
15.5217
 30
0.0
 11
13.3793
 21
14.8314
 31
0.0
  0
LINE
  5
486
  8
0
 10
13.3793
 20
14.8314
 30
0.0
 11
13.3693
 21
14.8335
 31
0.0
  0
LINE
  5
487
  8
0
 10
13.3693
 20
14.8335
 30
0.0
 11
12.6628
 21
14.6566
 31
0.0
  0
LINE
  5
488
  8
0
 10
12.6628
 20
14.6566
 30
0.0
 11
11.9269
 21
14.4544
 31
0.0
  0
LINE
  5
489
  8
0
 10
11.9269
 20
14.4544
 30
0.0
 11
11.1625
 21
14.2254
 31
0.0
  0
LINE
  5
48A
  8
0
 10
11.1625
 20
14.2254
 30
0.0
 11
10.3705
 21
13.9681
 31
0.0
  0
LINE
  5
48B
  8
0
 10
10.3705
 20
13.9681
 30
0.0
 11
9.55168
 21
13.6813
 31
0.0
  0
LINE
  5
48C
  8
0
 10
9.55168
 20
13.6813
 30
0.0
 11
9.41362
 21
12.8983
 31
0.0
  0
LINE
  5
48D
  8
0
 10
9.41362
 20
12.8983
 30
0.0
 11
10.0849
 21
12.3487
 31
0.0
  0
LINE
  5
48E
  8
0
 10
10.0849
 20
12.3487
 30
0.0
 11
10.7412
 21
11.836
 31
0.0
  0
LINE
  5
48F
  8
0
 10
10.7412
 20
11.836
 30
0.0
 11
11.3811
 21
11.3594
 31
0.0
  0
LINE
  5
490
  8
0
 10
11.3811
 20
11.3594
 30
0.0
 11
12.0035
 21
10.9177
 31
0.0
  0
LINE
  5
491
  8
0
 10
12.0035
 20
10.9177
 30
0.0
 11
12.6069
 21
10.5099
 31
0.0
  0
LINE
  5
492
  8
0
 10
12.6069
 20
10.5099
 30
0.0
 11
12.6171
 21
10.5084
 31
0.0
  0
LINE
  5
493
  8
0
 10
12.6171
 20
10.5084
 30
0.0
 11
12.5189
 21
9.80949
 31
0.0
  0
LINE
  5
494
  8
0
 10
12.5189
 20
9.80949
 30
0.0
 11
12.5087
 21
9.81088
 31
0.0
  0
LINE
  5
495
  8
0
 10
12.5087
 20
9.81088
 30
0.0
 11
11.8162
 21
9.58521
 31
0.0
  0
LINE
  5
496
  8
0
 10
11.8162
 20
9.58521
 30
0.0
 11
11.0962
 21
9.33215
 31
0.0
  0
LINE
  5
497
  8
0
 10
11.0962
 20
9.33215
 30
0.0
 11
10.3497
 21
9.05035
 31
0.0
  0
LINE
  5
498
  8
0
 10
10.3497
 20
9.05035
 30
0.0
 11
9.57751
 21
8.73848
 31
0.0
  0
LINE
  5
499
  8
0
 10
9.57751
 20
8.73848
 30
0.0
 11
8.78076
 21
8.3952
 31
0.0
  0
LINE
  5
49A
  8
0
 10
8.78076
 20
8.3952
 30
0.0
 11
8.69765
 21
7.60451
 31
0.0
  0
LINE
  5
49B
  8
0
 10
8.69765
 20
7.60451
 30
0.0
 11
9.40562
 21
7.10306
 31
0.0
  0
LINE
  5
49C
  8
0
 10
9.40562
 20
7.10306
 30
0.0
 11
10.0961
 21
6.63745
 31
0.0
  0
LINE
  5
49D
  8
0
 10
10.0961
 20
6.63745
 30
0.0
 11
10.7677
 21
6.2066
 31
0.0
  0
LINE
  5
49E
  8
0
 10
10.7677
 20
6.2066
 30
0.0
 11
11.4193
 21
5.8094
 31
0.0
  0
LINE
  5
49F
  8
0
 10
11.4193
 20
5.8094
 30
0.0
 11
12.0498
 21
5.44467
 31
0.0
  0
LINE
  5
4A0
  8
0
 10
12.0498
 20
5.44467
 30
0.0
 11
12.06
 21
5.44391
 31
0.0
  0
LINE
  5
4A1
  8
0
 10
12.06
 20
5.44391
 30
0.0
 11
12.0108
 21
4.73985
 31
0.0
  0
LINE
  5
4A2
  8
0
 10
12.0108
 20
4.73985
 30
0.0
 11
12.0005
 21
4.74052
 31
0.0
  0
LINE
  5
4A3
  8
0
 10
12.0005
 20
4.74052
 30
0.0
 11
11.3255
 21
4.46709
 31
0.0
  0
LINE
  5
4A4
  8
0
 10
11.3255
 20
4.46709
 30
0.0
 11
10.6249
 21
4.16443
 31
0.0
  0
LINE
  5
4A5
  8
0
 10
10.6249
 20
4.16443
 30
0.0
 11
9.89984
 21
3.83125
 31
0.0
  0
LINE
  5
4A6
  8
0
 10
9.89984
 20
3.83125
 30
0.0
 11
9.15131
 21
3.46626
 31
0.0
  0
LINE
  5
4A7
  8
0
 10
9.15131
 20
3.46626
 30
0.0
 11
8.38043
 21
3.06824
 31
0.0
  0
LINE
  5
4A8
  8
0
 10
8.38043
 20
3.06824
 30
0.0
 11
8.35269
 21
2.27367
 31
0.0
  0
LINE
  5
4A9
  8
0
 10
8.35269
 20
2.27367
 30
0.0
 11
9.09392
 21
1.82283
 31
0.0
  0
LINE
  5
4AA
  8
0
 10
9.09392
 20
1.82283
 30
0.0
 11
9.81517
 21
1.40652
 31
0.0
  0
LINE
  5
4AB
  8
0
 10
9.81517
 20
1.40652
 30
0.0
 11
10.5152
 21
1.02357
 31
0.0
  0
LINE
  5
4AC
  8
0
 10
10.5152
 20
1.02357
 30
0.0
 11
11.193
 21
0.672791
 31
0.0
  0
LINE
  5
4AD
  8
0
 10
11.193
 20
0.672791
 30
0.0
 11
11.8473
 21
0.352936
 31
0.0
  0
LINE
  5
4AE
  8
0
 10
11.8473
 20
0.352936
 30
0.0
 11
11.8576
 21
0.352875
 31
0.0
  0
LINE
  5
4AF
  8
0
 10
11.8576
 20
0.352875
 30
0.0
 11
11.8576
 21
-0.352875
 31
0.0
  0
LINE
  5
4B0
  8
0
 10
11.8576
 20
-0.352875
 30
0.0
 11
11.8473
 21
-0.352921
 31
0.0
  0
LINE
  5
4B1
  8
0
 10
11.8473
 20
-0.352921
 30
0.0
 11
11.193
 21
-0.672791
 31
0.0
  0
LINE
  5
4B2
  8
0
 10
11.193
 20
-0.672791
 30
0.0
 11
10.5152
 21
-1.02356
 31
0.0
  0
LINE
  5
4B3
  8
0
 10
10.5152
 20
-1.02356
 30
0.0
 11
9.81517
 21
-1.40652
 31
0.0
  0
LINE
  5
4B4
  8
0
 10
9.81517
 20
-1.40652
 30
0.0
 11
9.09393
 21
-1.82283
 31
0.0
  0
LINE
  5
4B5
  8
0
 10
9.09393
 20
-1.82283
 30
0.0
 11
8.35269
 21
-2.27367
 31
0.0
  0
LINE
  5
4B6
  8
0
 10
8.35269
 20
-2.27367
 30
0.0
 11
8.38045
 21
-3.06822
 31
0.0
  0
LINE
  5
4B7
  8
0
 10
8.38045
 20
-3.06822
 30
0.0
 11
9.15131
 21
-3.46625
 31
0.0
  0
LINE
  5
4B8
  8
0
 10
9.15131
 20
-3.46625
 30
0.0
 11
9.89984
 21
-3.83124
 31
0.0
  0
LINE
  5
4B9
  8
0
 10
9.89984
 20
-3.83124
 30
0.0
 11
10.6249
 21
-4.16443
 31
0.0
  0
LINE
  5
4BA
  8
0
 10
10.6249
 20
-4.16443
 30
0.0
 11
11.3255
 21
-4.46707
 31
0.0
  0
LINE
  5
4BB
  8
0
 10
11.3255
 20
-4.46707
 30
0.0
 11
12.0005
 21
-4.74051
 31
0.0
  0
LINE
  5
4BC
  8
0
 10
12.0005
 20
-4.74051
 30
0.0
 11
12.0108
 21
-4.73984
 31
0.0
  0
LINE
  5
4BD
  8
0
 10
12.0108
 20
-4.73984
 30
0.0
 11
12.06
 21
-5.44391
 31
0.0
  0
LINE
  5
4BE
  8
0
 10
12.06
 20
-5.44391
 30
0.0
 11
12.0498
 21
-5.44467
 31
0.0
  0
LINE
  5
4BF
  8
0
 10
12.0498
 20
-5.44467
 30
0.0
 11
11.4193
 21
-5.80939
 31
0.0
  0
LINE
  5
4C0
  8
0
 10
11.4193
 20
-5.80939
 30
0.0
 11
10.7677
 21
-6.2066
 31
0.0
  0
LINE
  5
4C1
  8
0
 10
10.7677
 20
-6.2066
 30
0.0
 11
10.0961
 21
-6.63745
 31
0.0
  0
LINE
  5
4C2
  8
0
 10
10.0961
 20
-6.63745
 30
0.0
 11
9.40564
 21
-7.10306
 31
0.0
  0
LINE
  5
4C3
  8
0
 10
9.40564
 20
-7.10306
 30
0.0
 11
8.69765
 21
-7.60451
 31
0.0
  0
LINE
  5
4C4
  8
0
 10
8.69765
 20
-7.60451
 30
0.0
 11
8.78075
 21
-8.3952
 31
0.0
  0
LINE
  5
4C5
  8
0
 10
8.78075
 20
-8.3952
 30
0.0
 11
9.57751
 21
-8.73849
 31
0.0
  0
LINE
  5
4C6
  8
0
 10
9.57751
 20
-8.73849
 30
0.0
 11
10.3497
 21
-9.05037
 31
0.0
  0
LINE
  5
4C7
  8
0
 10
10.3497
 20
-9.05037
 30
0.0
 11
11.0962
 21
-9.33215
 31
0.0
  0
LINE
  5
4C8
  8
0
 10
11.0962
 20
-9.33215
 30
0.0
 11
11.8162
 21
-9.58521
 31
0.0
  0
LINE
  5
4C9
  8
0
 10
11.8162
 20
-9.58521
 30
0.0
 11
12.5087
 21
-9.81088
 31
0.0
  0
LINE
  5
4CA
  8
0
 10
12.5087
 20
-9.81088
 30
0.0
 11
12.5189
 21
-9.80951
 31
0.0
  0
LINE
  5
4CB
  8
0
 10
12.5189
 20
-9.80951
 30
0.0
 11
12.6171
 21
-10.5084
 31
0.0
  0
LINE
  5
4CC
  8
0
 10
12.6171
 20
-10.5084
 30
0.0
 11
12.6069
 21
-10.5099
 31
0.0
  0
LINE
  5
4CD
  8
0
 10
12.6069
 20
-10.5099
 30
0.0
 11
12.0035
 21
-10.9177
 31
0.0
  0
LINE
  5
4CE
  8
0
 10
12.0035
 20
-10.9177
 30
0.0
 11
11.3811
 21
-11.3594
 31
0.0
  0
LINE
  5
4CF
  8
0
 10
11.3811
 20
-11.3594
 30
0.0
 11
10.7412
 21
-11.836
 31
0.0
  0
LINE
  5
4D0
  8
0
 10
10.7412
 20
-11.836
 30
0.0
 11
10.0849
 21
-12.3487
 31
0.0
  0
LINE
  5
4D1
  8
0
 10
10.0849
 20
-12.3487
 30
0.0
 11
9.41362
 21
-12.8983
 31
0.0
  0
LINE
  5
4D2
  8
0
 10
9.41362
 20
-12.8983
 30
0.0
 11
9.55168
 21
-13.6813
 31
0.0
  0
LINE
  5
4D3
  8
0
 10
9.55168
 20
-13.6813
 30
0.0
 11
10.3705
 21
-13.9681
 31
0.0
  0
LINE
  5
4D4
  8
0
 10
10.3705
 20
-13.9681
 30
0.0
 11
11.1625
 21
-14.2254
 31
0.0
  0
LINE
  5
4D5
  8
0
 10
11.1625
 20
-14.2254
 30
0.0
 11
11.9269
 21
-14.4544
 31
0.0
  0
LINE
  5
4D6
  8
0
 10
11.9269
 20
-14.4544
 30
0.0
 11
12.6627
 21
-14.6566
 31
0.0
  0
LINE
  5
4D7
  8
0
 10
12.6627
 20
-14.6566
 30
0.0
 11
13.3693
 21
-14.8335
 31
0.0
  0
LINE
  5
4D8
  8
0
 10
13.3693
 20
-14.8335
 30
0.0
 11
13.3793
 21
-14.8314
 31
0.0
  0
LINE
  5
4D9
  8
0
 10
13.3793
 20
-14.8314
 30
0.0
 11
13.5261
 21
-15.5217
 31
0.0
  0
LINE
  5
4DA
  8
0
 10
13.5261
 20
-15.5217
 30
0.0
 11
13.5161
 21
-15.5239
 31
0.0
  0
LINE
  5
4DB
  8
0
 10
13.5161
 20
-15.5239
 30
0.0
 11
12.9425
 21
-15.9728
 31
0.0
  0
LINE
  5
4DC
  8
0
 10
12.9425
 20
-15.9728
 30
0.0
 11
12.3525
 21
-16.4569
 31
0.0
  0
LINE
  5
4DD
  8
0
 10
12.3525
 20
-16.4569
 30
0.0
 11
11.7474
 21
-16.977
 31
0.0
  0
LINE
  5
4DE
  8
0
 10
11.7474
 20
-16.977
 30
0.0
 11
11.1284
 21
-17.5341
 31
0.0
  0
LINE
  5
4DF
  8
0
 10
11.1284
 20
-17.5341
 30
0.0
 11
10.4971
 21
-18.1292
 31
0.0
  0
LINE
  5
4E0
  8
0
 10
10.4971
 20
-18.1292
 30
0.0
 11
10.6895
 21
-18.9007
 31
0.0
  0
LINE
  5
4E1
  8
0
 10
10.6895
 20
-18.9007
 30
0.0
 11
11.5263
 21
-19.1297
 31
0.0
  0
LINE
  5
4E2
  8
0
 10
11.5263
 20
-19.1297
 30
0.0
 11
12.3343
 21
-19.3311
 31
0.0
  0
LINE
  5
4E3
  8
0
 10
12.3343
 20
-19.3311
 30
0.0
 11
13.1128
 21
-19.5063
 31
0.0
  0
LINE
  5
4E4
  8
0
 10
13.1128
 20
-19.5063
 30
0.0
 11
13.861
 21
-19.6567
 31
0.0
  0
LINE
  5
4E5
  8
0
 10
13.861
 20
-19.6567
 30
0.0
 11
14.5782
 21
-19.7838
 31
0.0
  0
LINE
  5
4E6
  8
0
 10
14.5782
 20
-19.7838
 30
0.0
 11
14.588
 21
-19.781
 31
0.0
  0
LINE
  5
4E7
  8
0
 10
14.588
 20
-19.781
 30
0.0
 11
14.7826
 21
-20.4594
 31
0.0
  0
LINE
  5
4E8
  8
0
 10
14.7826
 20
-20.4594
 30
0.0
 11
14.7727
 21
-20.4623
 31
0.0
  0
LINE
  5
4E9
  8
0
 10
14.7727
 20
-20.4623
 30
0.0
 11
14.2319
 21
-20.9501
 31
0.0
  0
LINE
  5
4EA
  8
0
 10
14.2319
 20
-20.9501
 30
0.0
 11
13.6771
 21
-21.4741
 31
0.0
  0
LINE
  5
4EB
  8
0
 10
13.6771
 20
-21.4741
 30
0.0
 11
13.1097
 21
-22.0352
 31
0.0
  0
LINE
  5
4EC
  8
0
 10
13.1097
 20
-22.0352
 30
0.0
 11
12.5311
 21
-22.6342
 31
0.0
  0
LINE
  5
4ED
  8
0
 10
12.5311
 20
-22.6342
 30
0.0
 11
11.9429
 21
-23.2719
 31
0.0
  0
LINE
  5
4EE
  8
0
 10
11.9429
 20
-23.2719
 30
0.0
 11
12.1886
 21
-24.028
 31
0.0
  0
LINE
  5
4EF
  8
0
 10
12.1886
 20
-24.028
 30
0.0
 11
13.0393
 21
-24.1982
 31
0.0
  0
LINE
  5
4F0
  8
0
 10
13.0393
 20
-24.1982
 30
0.0
 11
13.8594
 21
-24.3427
 31
0.0
  0
LINE
  5
4F1
  8
0
 10
13.8594
 20
-24.3427
 30
0.0
 11
14.6482
 21
-24.4631
 31
0.0
  0
LINE
  5
4F2
  8
0
 10
14.6482
 20
-24.4631
 30
0.0
 11
15.4051
 21
-24.5609
 31
0.0
  0
LINE
  5
4F3
  8
0
 10
15.4051
 20
-24.5609
 30
0.0
 11
16.1294
 21
-24.6377
 31
0.0
  0
LINE
  5
4F4
  8
0
 10
16.1294
 20
-24.6377
 30
0.0
 11
16.139
 21
-24.6342
 31
0.0
  0
LINE
  5
4F5
  8
0
 10
16.139
 20
-24.6342
 30
0.0
 11
16.3804
 21
-25.2974
 31
0.0
  0
LINE
  5
4F6
  8
0
 10
16.3804
 20
-25.2974
 30
0.0
 11
16.3708
 21
-25.301
 31
0.0
  0
LINE
  5
4F7
  8
0
 10
16.3708
 20
-25.301
 30
0.0
 11
15.8653
 21
-25.8253
 31
0.0
  0
LINE
  5
4F8
  8
0
 10
15.8653
 20
-25.8253
 30
0.0
 11
15.3484
 21
-26.3868
 31
0.0
  0
LINE
  5
4F9
  8
0
 10
15.3484
 20
-26.3868
 30
0.0
 11
14.8216
 21
-26.9861
 31
0.0
  0
LINE
  5
4FA
  8
0
 10
14.8216
 20
-26.9861
 30
0.0
 11
14.2862
 21
-27.6239
 31
0.0
  0
LINE
  5
4FB
  8
0
 10
14.2862
 20
-27.6239
 30
0.0
 11
13.7439
 21
-28.3011
 31
0.0
  0
LINE
  5
4FC
  8
0
 10
13.7439
 20
-28.3011
 30
0.0
 11
14.0417
 21
-29.0383
 31
0.0
  0
LINE
  5
4FD
  8
0
 10
14.0417
 20
-29.0383
 30
0.0
 11
14.9022
 21
-29.1487
 31
0.0
  0
LINE
  5
4FE
  8
0
 10
14.9022
 20
-29.1487
 30
0.0
 11
15.7304
 21
-29.2356
 31
0.0
  0
LINE
  5
4FF
  8
0
 10
15.7304
 20
-29.2356
 30
0.0
 11
16.5257
 21
-29.3007
 31
0.0
  0
LINE
  5
500
  8
0
 10
16.5257
 20
-29.3007
 30
0.0
 11
17.2876
 21
-29.3455
 31
0.0
  0
LINE
  5
501
  8
0
 10
17.2876
 20
-29.3455
 30
0.0
 11
18.0154
 21
-29.3716
 31
0.0
  0
LINE
  5
502
  8
0
 10
18.0154
 20
-29.3716
 30
0.0
 11
18.0248
 21
-29.3674
 31
0.0
  0
LINE
  5
503
  8
0
 10
18.0248
 20
-29.3674
 30
0.0
 11
18.3119
 21
-30.0122
 31
0.0
  0
LINE
  5
504
  8
0
 10
18.3119
 20
-30.0122
 30
0.0
 11
18.3025
 21
-30.0164
 31
0.0
  0
LINE
  5
505
  8
0
 10
18.3025
 20
-30.0164
 30
0.0
 11
17.8349
 21
-30.5748
 31
0.0
  0
LINE
  5
506
  8
0
 10
17.8349
 20
-30.5748
 30
0.0
 11
17.3584
 21
-31.1709
 31
0.0
  0
LINE
  5
507
  8
0
 10
17.3584
 20
-31.1709
 30
0.0
 11
16.8746
 21
-31.8055
 31
0.0
  0
LINE
  5
508
  8
0
 10
16.8746
 20
-31.8055
 30
0.0
 11
16.3851
 21
-32.4792
 31
0.0
  0
LINE
  5
509
  8
0
 10
16.3851
 20
-32.4792
 30
0.0
 11
15.8913
 21
-33.1925
 31
0.0
  0
LINE
  5
50A
  8
0
 10
15.8913
 20
-33.1925
 30
0.0
 11
16.2398
 21
-33.9071
 31
0.0
  0
LINE
  5
50B
  8
0
 10
16.2398
 20
-33.9071
 30
0.0
 11
17.1059
 21
-33.9572
 31
0.0
  0
LINE
  5
50C
  8
0
 10
17.1059
 20
-33.9572
 30
0.0
 11
17.9382
 21
-33.9861
 31
0.0
  0
LINE
  5
50D
  8
0
 10
17.9382
 20
-33.9861
 30
0.0
 11
18.7361
 21
-33.9956
 31
0.0
  0
LINE
  5
50E
  8
0
 10
18.7361
 20
-33.9956
 30
0.0
 11
19.4992
 21
-33.9871
 31
0.0
  0
LINE
  5
50F
  8
0
 10
19.4992
 20
-33.9871
 30
0.0
 11
20.2271
 21
-33.9624
 31
0.0
  0
LINE
  5
510
  8
0
 10
20.2271
 20
-33.9624
 30
0.0
 11
20.2362
 21
-33.9576
 31
0.0
  0
LINE
  5
511
  8
0
 10
20.2362
 20
-33.9576
 30
0.0
 11
20.5675
 21
-34.5808
 31
0.0
  0
LINE
  5
512
  8
0
 10
20.5675
 20
-34.5808
 30
0.0
 11
20.5585
 21
-34.5856
 31
0.0
  0
LINE
  5
513
  8
0
 10
20.5585
 20
-34.5856
 30
0.0
 11
20.1309
 21
-35.1752
 31
0.0
  0
LINE
  5
514
  8
0
 10
20.1309
 20
-35.1752
 30
0.0
 11
19.6972
 21
-35.8031
 31
0.0
  0
LINE
  5
515
  8
0
 10
19.6972
 20
-35.8031
 30
0.0
 11
19.2588
 21
-36.4699
 31
0.0
  0
LINE
  5
516
  8
0
 10
19.2588
 20
-36.4699
 30
0.0
 11
18.8175
 21
-37.1761
 31
0.0
  0
LINE
  5
517
  8
0
 10
18.8175
 20
-37.1761
 30
0.0
 11
18.3746
 21
-37.9222
 31
0.0
  0
LINE
  5
518
  8
0
 10
18.3746
 20
-37.9222
 30
0.0
 11
18.7722
 21
-38.6107
 31
0.0
  0
LINE
  5
519
  8
0
 10
18.7722
 20
-38.6107
 30
0.0
 11
19.6397
 21
-38.6002
 31
0.0
  0
LINE
  5
51A
  8
0
 10
19.6397
 20
-38.6002
 30
0.0
 11
20.472
 21
-38.5711
 31
0.0
  0
LINE
  5
51B
  8
0
 10
20.472
 20
-38.5711
 30
0.0
 11
21.2686
 21
-38.5248
 31
0.0
  0
LINE
  5
51C
  8
0
 10
21.2686
 20
-38.5248
 30
0.0
 11
22.0292
 21
-38.4632
 31
0.0
  0
LINE
  5
51D
  8
0
 10
22.0292
 20
-38.4632
 30
0.0
 11
22.7536
 21
-38.3877
 31
0.0
  0
LINE
  5
51E
  8
0
 10
22.7536
 20
-38.3877
 30
0.0
 11
22.7623
 21
-38.3823
 31
0.0
  0
LINE
  5
51F
  8
0
 10
22.7623
 20
-38.3823
 30
0.0
 11
23.1364
 21
-38.9809
 31
0.0
  0
LINE
  5
520
  8
0
 10
23.1364
 20
-38.9809
 30
0.0
 11
23.1277
 21
-38.9863
 31
0.0
  0
LINE
  5
521
  8
0
 10
23.1277
 20
-38.9863
 30
0.0
 11
22.7423
 21
-39.6043
 31
0.0
  0
LINE
  5
522
  8
0
 10
22.7423
 20
-39.6043
 30
0.0
 11
22.3534
 21
-40.261
 31
0.0
  0
LINE
  5
523
  8
0
 10
22.3534
 20
-40.261
 30
0.0
 11
21.9626
 21
-40.9567
 31
0.0
  0
LINE
  5
524
  8
0
 10
21.9626
 20
-40.9567
 30
0.0
 11
21.5716
 21
-41.6919
 31
0.0
  0
LINE
  5
525
  8
0
 10
21.5716
 20
-41.6919
 30
0.0
 11
21.1819
 21
-42.4671
 31
0.0
  0
LINE
  5
526
  8
0
 10
21.1819
 20
-42.4671
 30
0.0
 11
21.6265
 21
-43.1262
 31
0.0
  0
LINE
  5
527
  8
0
 10
21.6265
 20
-43.1262
 30
0.0
 11
22.4911
 21
-43.0552
 31
0.0
  0
LINE
  5
528
  8
0
 10
22.4911
 20
-43.0552
 30
0.0
 11
23.3194
 21
-42.9681
 31
0.0
  0
LINE
  5
529
  8
0
 10
23.3194
 20
-42.9681
 30
0.0
 11
24.1108
 21
-42.8664
 31
0.0
  0
LINE
  5
52A
  8
0
 10
24.1108
 20
-42.8664
 30
0.0
 11
24.8653
 21
-42.7518
 31
0.0
  0
LINE
  5
52B
  8
0
 10
24.8653
 20
-42.7518
 30
0.0
 11
25.5827
 21
-42.626
 31
0.0
  0
LINE
  5
52C
  8
0
 10
25.5827
 20
-42.626
 30
0.0
 11
25.591
 21
-42.62
 31
0.0
  0
LINE
  5
52D
  8
0
 10
25.591
 20
-42.62
 30
0.0
 11
26.0059
 21
-43.191
 31
0.0
  0
LINE
  5
52E
  8
0
 10
26.0059
 20
-43.191
 30
0.0
 11
25.9976
 21
-43.1971
 31
0.0
  0
LINE
  5
52F
  8
0
 10
25.9976
 20
-43.1971
 30
0.0
 11
25.6562
 21
-43.8405
 31
0.0
  0
LINE
  5
530
  8
0
 10
25.6562
 20
-43.8405
 30
0.0
 11
25.3141
 21
-44.5226
 31
0.0
  0
LINE
  5
531
  8
0
 10
25.3141
 20
-44.5226
 30
0.0
 11
24.9728
 21
-45.2439
 31
0.0
  0
LINE
  5
532
  8
0
 10
24.9728
 20
-45.2439
 30
0.0
 11
24.634
 21
-46.0046
 31
0.0
  0
LINE
  5
533
  8
0
 10
24.634
 20
-46.0046
 30
0.0
 11
24.2994
 21
-46.8051
 31
0.0
  0
LINE
  5
534
  8
0
 10
24.2994
 20
-46.8051
 30
0.0
 11
24.7888
 21
-47.4316
 31
0.0
  0
LINE
  5
535
  8
0
 10
24.7888
 20
-47.4316
 30
0.0
 11
25.6464
 21
-47.3005
 31
0.0
  0
LINE
  5
536
  8
0
 10
25.6464
 20
-47.3005
 30
0.0
 11
26.4666
 21
-47.1558
 31
0.0
  0
LINE
  5
537
  8
0
 10
26.4666
 20
-47.1558
 30
0.0
 11
27.249
 21
-46.9991
 31
0.0
  0
LINE
  5
538
  8
0
 10
27.249
 20
-46.9991
 30
0.0
 11
27.9936
 21
-46.8322
 31
0.0
  0
LINE
  5
539
  8
0
 10
27.9936
 20
-46.8322
 30
0.0
 11
28.7005
 21
-46.6566
 31
0.0
  0
LINE
  5
53A
  8
0
 10
28.7005
 20
-46.6566
 30
0.0
 11
28.7084
 21
-46.6501
 31
0.0
  0
LINE
  5
53B
  8
0
 10
28.7084
 20
-46.6501
 30
0.0
 11
29.1621
 21
-47.1908
 31
0.0
  0
LINE
  5
53C
  8
0
 10
29.1621
 20
-47.1908
 30
0.0
 11
29.1542
 21
-47.1974
 31
0.0
  0
LINE
  5
53D
  8
0
 10
29.1542
 20
-47.1974
 30
0.0
 11
28.8586
 21
-47.863
 31
0.0
  0
LINE
  5
53E
  8
0
 10
28.8586
 20
-47.863
 30
0.0
 11
28.5649
 21
-48.5674
 31
0.0
  0
LINE
  5
53F
  8
0
 10
28.5649
 20
-48.5674
 30
0.0
 11
28.2747
 21
-49.3107
 31
0.0
  0
LINE
  5
540
  8
0
 10
28.2747
 20
-49.3107
 30
0.0
 11
27.9899
 21
-50.0932
 31
0.0
  0
LINE
  5
541
  8
0
 10
27.9899
 20
-50.0932
 30
0.0
 11
27.7118
 21
-50.9151
 31
0.0
  0
LINE
  5
542
  8
0
 10
27.7118
 20
-50.9151
 30
0.0
 11
28.2438
 21
-51.5059
 31
0.0
  0
LINE
  5
543
  8
0
 10
28.2438
 20
-51.5059
 30
0.0
 11
29.0902
 21
-51.3153
 31
0.0
  0
LINE
  5
544
  8
0
 10
29.0902
 20
-51.3153
 30
0.0
 11
29.8982
 21
-51.1138
 31
0.0
  0
LINE
  5
545
  8
0
 10
29.8982
 20
-51.1138
 30
0.0
 11
30.6678
 21
-50.9029
 31
0.0
  0
LINE
  5
546
  8
0
 10
30.6678
 20
-50.9029
 30
0.0
 11
31.399
 21
-50.6844
 31
0.0
  0
LINE
  5
547
  8
0
 10
31.399
 20
-50.6844
 30
0.0
 11
32.0919
 21
-50.46
 31
0.0
  0
LINE
  5
548
  8
0
 10
32.0919
 20
-50.46
 30
0.0
 11
32.0993
 21
-50.4529
 31
0.0
  0
LINE
  5
549
  8
0
 10
32.0993
 20
-50.4529
 30
0.0
 11
32.5896
 21
-50.9606
 31
0.0
  0
LINE
  5
54A
  8
0
 10
32.5896
 20
-50.9606
 30
0.0
 11
32.5822
 21
-50.9677
 31
0.0
  0
LINE
  5
54B
  8
0
 10
32.5822
 20
-50.9677
 30
0.0
 11
32.3337
 21
-51.6524
 31
0.0
  0
LINE
  5
54C
  8
0
 10
32.3337
 20
-51.6524
 30
0.0
 11
32.0899
 21
-52.3755
 31
0.0
  0
LINE
  5
54D
  8
0
 10
32.0899
 20
-52.3755
 30
0.0
 11
31.8523
 21
-53.1373
 31
0.0
  0
LINE
  5
54E
  8
0
 10
31.8523
 20
-53.1373
 30
0.0
 11
31.6227
 21
-53.9378
 31
0.0
  0
LINE
  5
54F
  8
0
 10
31.6227
 20
-53.9378
 30
0.0
 11
31.4027
 21
-54.777
 31
0.0
  0
LINE
  5
550
  8
0
 10
31.4027
 20
-54.777
 30
0.0
 11
31.9746
 21
-55.3293
 31
0.0
  0
LINE
  5
551
  8
0
 10
31.9746
 20
-55.3293
 30
0.0
 11
32.8056
 21
-55.0801
 31
0.0
  0
LINE
  5
552
  8
0
 10
32.8056
 20
-55.0801
 30
0.0
 11
33.5976
 21
-54.8227
 31
0.0
  0
LINE
  5
553
  8
0
 10
33.5976
 20
-54.8227
 30
0.0
 11
34.3506
 21
-54.5587
 31
0.0
  0
LINE
  5
554
  8
0
 10
34.3506
 20
-54.5587
 30
0.0
 11
35.0648
 21
-54.2897
 31
0.0
  0
LINE
  5
555
  8
0
 10
35.0648
 20
-54.2897
 30
0.0
 11
35.7403
 21
-54.0175
 31
0.0
  0
LINE
  5
556
  8
0
 10
35.7403
 20
-54.0175
 30
0.0
 11
35.7472
 21
-54.0099
 31
0.0
  0
LINE
  5
557
  8
0
 10
35.7472
 20
-54.0099
 30
0.0
 11
36.2717
 21
-54.4821
 31
0.0
  0
LINE
  5
558
  8
0
 10
36.2717
 20
-54.4821
 30
0.0
 11
36.2649
 21
-54.4898
 31
0.0
  0
LINE
  5
559
  8
0
 10
36.2649
 20
-54.4898
 30
0.0
 11
36.0648
 21
-55.1901
 31
0.0
  0
LINE
  5
55A
  8
0
 10
36.0648
 20
-55.1901
 30
0.0
 11
35.8719
 21
-55.9285
 31
0.0
  0
LINE
  5
55B
  8
0
 10
35.8719
 20
-55.9285
 30
0.0
 11
35.6881
 21
-56.705
 31
0.0
  0
LINE
  5
55C
  8
0
 10
35.6881
 20
-56.705
 30
0.0
 11
35.5149
 21
-57.5195
 31
0.0
  0
LINE
  5
55D
  8
0
 10
35.5149
 20
-57.5195
 30
0.0
 11
35.3539
 21
-58.372
 31
0.0
  0
LINE
  5
55E
  8
0
 10
35.3539
 20
-58.372
 30
0.0
 11
35.963
 21
-58.8831
 31
0.0
  0
LINE
  5
55F
  8
0
 10
35.963
 20
-58.8831
 30
0.0
 11
36.7746
 21
-58.5766
 31
0.0
  0
LINE
  5
560
  8
0
 10
36.7746
 20
-58.5766
 30
0.0
 11
37.5467
 21
-58.2645
 31
0.0
  0
LINE
  5
561
  8
0
 10
37.5467
 20
-58.2645
 30
0.0
 11
38.2794
 21
-57.9486
 31
0.0
  0
LINE
  5
562
  8
0
 10
38.2794
 20
-57.9486
 30
0.0
 11
38.9731
 21
-57.6305
 31
0.0
  0
LINE
  5
563
  8
0
 10
38.9731
 20
-57.6305
 30
0.0
 11
39.628
 21
-57.3118
 31
0.0
  0
LINE
  5
564
  8
0
 10
39.628
 20
-57.3118
 30
0.0
 11
39.6344
 21
-57.3038
 31
0.0
  0
LINE
  5
565
  8
0
 10
39.6344
 20
-57.3038
 30
0.0
 11
40.1906
 21
-57.7383
 31
0.0
  0
LINE
  5
566
  8
0
 10
40.1906
 20
-57.7383
 30
0.0
 11
40.1843
 21
-57.7464
 31
0.0
  0
LINE
  5
567
  8
0
 10
40.1843
 20
-57.7464
 30
0.0
 11
40.0335
 21
-58.459
 31
0.0
  0
LINE
  5
568
  8
0
 10
40.0335
 20
-58.459
 30
0.0
 11
39.8926
 21
-59.209
 31
0.0
  0
LINE
  5
569
  8
0
 10
39.8926
 20
-59.209
 30
0.0
 11
39.7634
 21
-59.9964
 31
0.0
  0
LINE
  5
56A
  8
0
 10
39.7634
 20
-59.9964
 30
0.0
 11
39.6474
 21
-60.821
 31
0.0
  0
LINE
  5
56B
  8
0
 10
39.6474
 20
-60.821
 30
0.0
 11
39.5463
 21
-61.6827
 31
0.0
  0
LINE
  5
56C
  8
0
 10
39.5463
 20
-61.6827
 30
0.0
 11
40.1895
 21
-62.15
 31
0.0
  0
LINE
  5
56D
  8
0
 10
40.1895
 20
-62.15
 30
0.0
 11
40.9778
 21
-61.7876
 31
0.0
  0
LINE
  5
56E
  8
0
 10
40.9778
 20
-61.7876
 30
0.0
 11
41.7262
 21
-61.4225
 31
0.0
  0
LINE
  5
56F
  8
0
 10
41.7262
 20
-61.4225
 30
0.0
 11
42.4352
 21
-61.0563
 31
0.0
  0
LINE
  5
570
  8
0
 10
42.4352
 20
-61.0563
 30
0.0
 11
43.105
 21
-60.6905
 31
0.0
  0
LINE
  5
571
  8
0
 10
43.105
 20
-60.6905
 30
0.0
 11
43.7361
 21
-60.3269
 31
0.0
  0
LINE
  5
572
  8
0
 10
43.7361
 20
-60.3269
 30
0.0
 11
43.7419
 21
-60.3185
 31
0.0
  0
LINE
  5
573
  8
0
 10
43.7419
 20
-60.3185
 30
0.0
 11
44.327
 21
-60.7131
 31
0.0
  0
LINE
  5
574
  8
0
 10
44.327
 20
-60.7131
 30
0.0
 11
44.3213
 21
-60.7216
 31
0.0
  0
LINE
  5
575
  8
0
 10
44.3213
 20
-60.7216
 30
0.0
 11
44.2205
 21
-61.443
 31
0.0
  0
LINE
  5
576
  8
0
 10
44.2205
 20
-61.443
 30
0.0
 11
44.1324
 21
-62.201
 31
0.0
  0
LINE
  5
577
  8
0
 10
44.1324
 20
-62.201
 30
0.0
 11
44.0584
 21
-62.9955
 31
0.0
  0
LINE
  5
578
  8
0
 10
44.0584
 20
-62.9955
 30
0.0
 11
44.0002
 21
-63.8263
 31
0.0
  0
LINE
  5
579
  8
0
 10
44.0002
 20
-63.8263
 30
0.0
 11
43.9595
 21
-64.6929
 31
0.0
  0
LINE
  5
57A
  8
0
 10
43.9595
 20
-64.6929
 30
0.0
 11
44.6337
 21
-65.1142
 31
0.0
  0
LINE
  5
57B
  8
0
 10
44.6337
 20
-65.1142
 30
0.0
 11
45.3947
 21
-64.6977
 31
0.0
  0
LINE
  5
57C
  8
0
 10
45.3947
 20
-64.6977
 30
0.0
 11
46.1159
 21
-64.2812
 31
0.0
  0
LINE
  5
57D
  8
0
 10
46.1159
 20
-64.2812
 30
0.0
 11
46.7976
 21
-63.8664
 31
0.0
  0
LINE
  5
57E
  8
0
 10
46.7976
 20
-63.8664
 30
0.0
 11
47.4402
 21
-63.4549
 31
0.0
  0
LINE
  5
57F
  8
0
 10
47.4402
 20
-63.4549
 30
0.0
 11
48.0444
 21
-63.0481
 31
0.0
  0
LINE
  5
580
  8
0
 10
48.0444
 20
-63.0481
 30
0.0
 11
48.0496
 21
-63.0393
 31
0.0
  0
LINE
  5
581
  8
0
 10
48.0496
 20
-63.0393
 30
0.0
 11
48.6608
 21
-63.3922
 31
0.0
  0
LINE
  5
582
  8
0
 10
48.6608
 20
-63.3922
 30
0.0
 11
48.6557
 21
-63.4011
 31
0.0
  0
LINE
  5
583
  8
0
 10
48.6557
 20
-63.4011
 30
0.0
 11
48.6056
 21
-64.1277
 31
0.0
  0
LINE
  5
584
  8
0
 10
48.6056
 20
-64.1277
 30
0.0
 11
48.5705
 21
-64.89
 31
0.0
  0
LINE
  5
585
  8
0
 10
48.5705
 20
-64.89
 30
0.0
 11
48.5521
 21
-65.6878
 31
0.0
  0
LINE
  5
586
  8
0
 10
48.5521
 20
-65.6878
 30
0.0
 11
48.552
 21
-66.5205
 31
0.0
  0
LINE
  5
587
  8
0
 10
48.552
 20
-66.5205
 30
0.0
 11
48.5718
 21
-67.3879
 31
0.0
  0
LINE
  5
588
  8
0
 10
48.5718
 20
-67.3879
 30
0.0
 11
49.2738
 21
-67.7611
 31
0.0
  0
LINE
  5
589
  8
0
 10
49.2738
 20
-67.7611
 30
0.0
 11
50.004
 21
-67.2925
 31
0.0
  0
LINE
  5
58A
  8
0
 10
50.004
 20
-67.2925
 30
0.0
 11
50.6943
 21
-66.8268
 31
0.0
  0
LINE
  5
58B
  8
0
 10
50.6943
 20
-66.8268
 30
0.0
 11
51.3454
 21
-66.3654
 31
0.0
  0
LINE
  5
58C
  8
0
 10
51.3454
 20
-66.3654
 30
0.0
 11
51.9578
 21
-65.9101
 31
0.0
  0
LINE
  5
58D
  8
0
 10
51.9578
 20
-65.9101
 30
0.0
 11
52.5321
 21
-65.4622
 31
0.0
  0
LINE
  5
58E
  8
0
 10
52.5321
 20
-65.4622
 30
0.0
 11
52.5366
 21
-65.453
 31
0.0
  0
LINE
  5
58F
  8
0
 10
52.5366
 20
-65.453
 30
0.0
 11
53.171
 21
-65.7624
 31
0.0
  0
LINE
  5
590
  8
0
 10
53.171
 20
-65.7624
 30
0.0
 11
53.1665
 21
-65.7716
 31
0.0
  0
LINE
  5
591
  8
0
 10
53.1665
 20
-65.7716
 30
0.0
 11
53.1672
 21
-66.4999
 31
0.0
  0
LINE
  5
592
  8
0
 10
53.1672
 20
-66.4999
 30
0.0
 11
53.1853
 21
-67.2629
 31
0.0
  0
LINE
  5
593
  8
0
 10
53.1853
 20
-67.2629
 30
0.0
 11
53.2227
 21
-68.06
 31
0.0
  0
LINE
  5
594
  8
0
 10
53.2227
 20
-68.06
 30
0.0
 11
53.2807
 21
-68.8907
 31
0.0
  0
LINE
  5
595
  8
0
 10
53.2807
 20
-68.8907
 30
0.0
 11
53.3609
 21
-69.7545
 31
0.0
  0
LINE
  5
596
  8
0
 10
53.3609
 20
-69.7545
 30
0.0
 11
54.0872
 21
-70.0779
 31
0.0
  0
LINE
  5
597
  8
0
 10
54.0872
 20
-70.0779
 30
0.0
 11
54.7829
 21
-69.5596
 31
0.0
  0
LINE
  5
598
  8
0
 10
54.7829
 20
-69.5596
 30
0.0
 11
55.4391
 21
-69.0468
 31
0.0
  0
LINE
  5
599
  8
0
 10
55.4391
 20
-69.0468
 30
0.0
 11
56.0564
 21
-68.5412
 31
0.0
  0
LINE
  5
59A
  8
0
 10
56.0564
 20
-68.5412
 30
0.0
 11
56.6355
 21
-68.0442
 31
0.0
  0
LINE
  5
59B
  8
0
 10
56.6355
 20
-68.0442
 30
0.0
 11
57.1772
 21
-67.5573
 31
0.0
  0
LINE
  5
59C
  8
0
 10
57.1772
 20
-67.5573
 30
0.0
 11
57.1811
 21
-67.5478
 31
0.0
  0
LINE
  5
59D
  8
0
 10
57.1811
 20
-67.5478
 30
0.0
 11
57.8355
 21
-67.8122
 31
0.0
  0
LINE
  5
59E
  8
0
 10
57.8355
 20
-67.8122
 30
0.0
 11
57.8317
 21
-67.8217
 31
0.0
  0
LINE
  5
59F
  8
0
 10
57.8317
 20
-67.8217
 30
0.0
 11
57.8832
 21
-68.5482
 31
0.0
  0
LINE
  5
5A0
  8
0
 10
57.8832
 20
-68.5482
 30
0.0
 11
57.9545
 21
-69.308
 31
0.0
  0
LINE
  5
5A1
  8
0
 10
57.9545
 20
-69.308
 30
0.0
 11
58.0473
 21
-70.1006
 31
0.0
  0
LINE
  5
5A2
  8
0
 10
58.0473
 20
-70.1006
 30
0.0
 11
58.1631
 21
-70.9252
 31
0.0
  0
LINE
  5
5A3
  8
0
 10
58.1631
 20
-70.9252
 30
0.0
 11
58.3035
 21
-71.7814
 31
0.0
  0
LINE
  5
5A4
  8
0
 10
58.3035
 20
-71.7814
 30
0.0
 11
59.0506
 21
-72.0533
 31
0.0
  0
LINE
  5
5A5
  8
0
 10
59.0506
 20
-72.0533
 30
0.0
 11
59.7084
 21
-71.4877
 31
0.0
  0
LINE
  5
5A6
  8
0
 10
59.7084
 20
-71.4877
 30
0.0
 11
60.3272
 21
-70.9304
 31
0.0
  0
LINE
  5
5A7
  8
0
 10
60.3272
 20
-70.9304
 30
0.0
 11
60.9078
 21
-70.3829
 31
0.0
  0
LINE
  5
5A8
  8
0
 10
60.9078
 20
-70.3829
 30
0.0
 11
61.4508
 21
-69.8468
 31
0.0
  0
LINE
  5
5A9
  8
0
 10
61.4508
 20
-69.8468
 30
0.0
 11
61.9572
 21
-69.3233
 31
0.0
  0
LINE
  5
5AA
  8
0
 10
61.9572
 20
-69.3233
 30
0.0
 11
61.9604
 21
-69.3135
 31
0.0
  0
LINE
  5
5AB
  8
0
 10
61.9604
 20
-69.3135
 30
0.0
 11
62.6317
 21
-69.5316
 31
0.0
  0
LINE
  5
5AC
  8
0
 10
62.6317
 20
-69.5316
 30
0.0
 11
62.6285
 21
-69.5414
 31
0.0
  0
LINE
  5
5AD
  8
0
 10
62.6285
 20
-69.5414
 30
0.0
 11
62.7305
 21
-70.2626
 31
0.0
  0
LINE
  5
5AE
  8
0
 10
62.7305
 20
-70.2626
 30
0.0
 11
62.8547
 21
-71.0155
 31
0.0
  0
LINE
  5
5AF
  8
0
 10
62.8547
 20
-71.0155
 30
0.0
 11
63.0026
 21
-71.7997
 31
0.0
  0
LINE
  5
5B0
  8
0
 10
63.0026
 20
-71.7997
 30
0.0
 11
63.1757
 21
-72.6143
 31
0.0
  0
LINE
  5
5B1
  8
0
 10
63.1757
 20
-72.6143
 30
0.0
 11
63.3754
 21
-73.4585
 31
0.0
  0
LINE
  5
5B2
  8
0
 10
63.3754
 20
-73.4585
 30
0.0
 11
64.1396
 21
-73.6777
 31
0.0
  0
LINE
  5
5B3
  8
0
 10
64.1396
 20
-73.6777
 30
0.0
 11
64.7564
 21
-73.0675
 31
0.0
  0
LINE
  5
5B4
  8
0
 10
64.7564
 20
-73.0675
 30
0.0
 11
65.3348
 21
-72.4684
 31
0.0
  0
LINE
  5
5B5
  8
0
 10
65.3348
 20
-72.4684
 30
0.0
 11
65.8757
 21
-71.8818
 31
0.0
  0
LINE
  5
5B6
  8
0
 10
65.8757
 20
-71.8818
 30
0.0
 11
66.3801
 21
-71.309
 31
0.0
  0
LINE
  5
5B7
  8
0
 10
66.3801
 20
-71.309
 30
0.0
 11
66.8487
 21
-70.7515
 31
0.0
  0
LINE
  5
5B8
  8
0
 10
66.8487
 20
-70.7515
 30
0.0
 11
66.8513
 21
-70.7416
 31
0.0
  0
LINE
  5
5B9
  8
0
 10
66.8513
 20
-70.7416
 30
0.0
 11
67.5361
 21
-70.9123
 31
0.0
  0
LINE
  5
5BA
  8
0
 10
67.5361
 20
-70.9123
 30
0.0
 11
67.5336
 21
-70.9223
 31
0.0
  0
LINE
  5
5BB
  8
0
 10
67.5336
 20
-70.9223
 30
0.0
 11
67.6857
 21
-71.6346
 31
0.0
  0
LINE
  5
5BC
  8
0
 10
67.6857
 20
-71.6346
 30
0.0
 11
67.8621
 21
-72.3771
 31
0.0
  0
LINE
  5
5BD
  8
0
 10
67.8621
 20
-72.3771
 30
0.0
 11
68.0643
 21
-73.149
 31
0.0
  0
LINE
  5
5BE
  8
0
 10
68.0643
 20
-73.149
 30
0.0
 11
68.2938
 21
-73.9495
 31
0.0
  0
LINE
  5
5BF
  8
0
 10
68.2938
 20
-73.9495
 30
0.0
 11
68.5519
 21
-74.7778
 31
0.0
  0
LINE
  5
5C0
  8
0
 10
68.5519
 20
-74.7778
 30
0.0
 11
69.3296
 21
-74.9431
 31
0.0
  0
LINE
  5
5C1
  8
0
 10
69.3296
 20
-74.9431
 30
0.0
 11
69.9023
 21
-74.2914
 31
0.0
  0
LINE
  5
5C2
  8
0
 10
69.9023
 20
-74.2914
 30
0.0
 11
70.4375
 21
-73.6534
 31
0.0
  0
LINE
  5
5C3
  8
0
 10
70.4375
 20
-73.6534
 30
0.0
 11
70.9362
 21
-73.0305
 31
0.0
  0
LINE
  5
5C4
  8
0
 10
70.9362
 20
-73.0305
 30
0.0
 11
71.3994
 21
-72.4239
 31
0.0
  0
LINE
  5
5C5
  8
0
 10
71.3994
 20
-72.4239
 30
0.0
 11
71.828
 21
-71.8351
 31
0.0
  0
LINE
  5
5C6
  8
0
 10
71.828
 20
-71.8351
 30
0.0
 11
71.8298
 21
-71.825
 31
0.0
  0
LINE
  5
5C7
  8
0
 10
71.8298
 20
-71.825
 30
0.0
 11
72.5249
 21
-71.9475
 31
0.0
  0
LINE
  5
5C8
  8
0
 10
72.5249
 20
-71.9475
 30
0.0
 11
72.5231
 21
-71.9576
 31
0.0
  0
LINE
  5
5C9
  8
0
 10
72.5231
 20
-71.9576
 30
0.0
 11
72.7245
 21
-72.6576
 31
0.0
  0
LINE
  5
5CA
  8
0
 10
72.7245
 20
-72.6576
 30
0.0
 11
72.9523
 21
-73.386
 31
0.0
  0
LINE
  5
5CB
  8
0
 10
72.9523
 20
-73.386
 30
0.0
 11
73.2078
 21
-74.1419
 31
0.0
  0
LINE
  5
5CC
  8
0
 10
73.2078
 20
-74.1419
 30
0.0
 11
73.4926
 21
-74.9245
 31
0.0
  0
LINE
  5
5CD
  8
0
 10
73.4926
 20
-74.9245
 30
0.0
 11
73.8078
 21
-75.7327
 31
0.0
  0
LINE
  5
5CE
  8
0
 10
73.8078
 20
-75.7327
 30
0.0
 11
74.5952
 21
-75.8434
 31
0.0
  0
LINE
  5
5CF
  8
0
 10
74.5952
 20
-75.8434
 30
0.0
 11
75.121
 21
-75.1533
 31
0.0
  0
LINE
  5
5D0
  8
0
 10
75.121
 20
-75.1533
 30
0.0
 11
75.6104
 21
-74.4795
 31
0.0
  0
LINE
  5
5D1
  8
0
 10
75.6104
 20
-74.4795
 30
0.0
 11
76.0644
 21
-73.8233
 31
0.0
  0
LINE
  5
5D2
  8
0
 10
76.0644
 20
-73.8233
 30
0.0
 11
76.4842
 21
-73.186
 31
0.0
  0
LINE
  5
5D3
  8
0
 10
76.4842
 20
-73.186
 30
0.0
 11
76.8707
 21
-72.5686
 31
0.0
  0
LINE
  5
5D4
  8
0
 10
76.8707
 20
-72.5686
 30
0.0
 11
76.8718
 21
-72.5585
 31
0.0
  0
LINE
  5
5D5
  8
0
 10
76.8718
 20
-72.5585
 30
0.0
 11
77.5737
 21
-72.6322
 31
0.0
  0
LINE
  5
5D6
  8
0
 10
77.5737
 20
-72.6322
 30
0.0
 11
77.5727
 21
-72.6424
 31
0.0
  0
LINE
  5
5D7
  8
0
 10
77.5727
 20
-72.6424
 30
0.0
 11
77.8224
 21
-73.3266
 31
0.0
  0
LINE
  5
5D8
  8
0
 10
77.8224
 20
-73.3266
 30
0.0
 11
78.1004
 21
-74.0373
 31
0.0
  0
LINE
  5
5D9
  8
0
 10
78.1004
 20
-74.0373
 30
0.0
 11
78.4081
 21
-74.7736
 31
0.0
  0
LINE
  5
5DA
  8
0
 10
78.4081
 20
-74.7736
 30
0.0
 11
78.7467
 21
-75.5344
 31
0.0
  0
LINE
  5
5DB
  8
0
 10
78.7467
 20
-75.5344
 30
0.0
 11
79.1176
 21
-76.3187
 31
0.0
  0
LINE
  5
5DC
  8
0
 10
79.1176
 20
-76.3187
 30
0.0
 11
79.9107
 21
-76.3741
 31
0.0
  0
LINE
  5
5DD
  8
0
 10
79.9107
 20
-76.3741
 30
0.0
 11
80.3871
 21
-75.6491
 31
0.0
  0
LINE
  5
5DE
  8
0
 10
80.3871
 20
-75.6491
 30
0.0
 11
80.8284
 21
-74.9428
 31
0.0
  0
LINE
  5
5DF
  8
0
 10
80.8284
 20
-74.9428
 30
0.0
 11
81.2355
 21
-74.2566
 31
0.0
  0
LINE
  5
5E0
  8
0
 10
81.2355
 20
-74.2566
 30
0.0
 11
81.6097
 21
-73.5915
 31
0.0
  0
LINE
  5
5E1
  8
0
 10
81.6097
 20
-73.5915
 30
0.0
 11
81.9522
 21
-72.9487
 31
0.0
  0
LINE
  5
5E2
  8
0
 10
81.9522
 20
-72.9487
 30
0.0
 11
81.9526
 21
-72.9384
 31
0.0
  0
LINE
  5
5E3
  8
0
 10
81.9526
 20
-72.9384
 30
0.0
 11
82.658
 21
-72.9631
 31
0.0
  0
LINE
  5
5E4
  8
0
 10
82.658
 20
-72.9631
 30
0.0
 11
82.6577
 21
-72.9733
 31
0.0
  0
LINE
  5
5E5
  8
0
 10
82.6577
 20
-72.9733
 30
0.0
 11
82.9545
 21
-73.6384
 31
0.0
  0
LINE
  5
5E6
  8
0
 10
82.9545
 20
-73.6384
 30
0.0
 11
83.2814
 21
-74.328
 31
0.0
  0
LINE
  5
5E7
  8
0
 10
83.2814
 20
-74.328
 30
0.0
 11
83.6397
 21
-75.041
 31
0.0
  0
LINE
  5
5E8
  8
0
 10
83.6397
 20
-75.041
 30
0.0
 11
84.0306
 21
-75.7763
 31
0.0
  0
LINE
  5
5E9
  8
0
 10
84.0306
 20
-75.7763
 30
0.0
 11
84.4553
 21
-76.5329
 31
0.0
  0
LINE
  5
5EA
  8
0
 10
84.4553
 20
-76.5329
 30
0.0
 11
85.2503
 21
-76.5329
 31
0.0
  0
LINE
  5
5EB
  8
0
 10
85.2503
 20
-76.5329
 30
0.0
 11
85.675
 21
-75.7763
 31
0.0
  0
LINE
  5
5EC
  8
0
 10
83.3974
 20
-6.18095
 30
0.0
 11
82.2195
 21
-5.77824
 31
0.0
  0
LINE
  5
5ED
  8
0
 10
82.2195
 20
-5.77824
 30
0.0
 11
81.1428
 21
-5.15349
 31
0.0
  0
LINE
  5
5EE
  8
0
 10
81.1428
 20
-5.15349
 30
0.0
 11
80.2087
 21
-4.33069
 31
0.0
  0
LINE
  5
5EF
  8
0
 10
80.2087
 20
-4.33069
 30
0.0
 11
79.4531
 21
-3.34145
 31
0.0
  0
LINE
  5
5F0
  8
0
 10
79.4531
 20
-3.34145
 30
0.0
 11
78.9049
 21
-2.22382
 31
0.0
  0
LINE
  5
5F1
  8
0
 10
78.9049
 20
-2.22382
 30
0.0
 11
78.5854
 21
-1.02071
 31
0.0
  0
LINE
  5
5F2
  8
0
 10
78.5854
 20
-1.02071
 30
0.0
 11
78.5067
 21
0.221603
 31
0.0
  0
LINE
  5
5F3
  8
0
 10
78.5067
 20
0.221603
 30
0.0
 11
78.6718
 21
1.45541
 31
0.0
  0
LINE
  5
5F4
  8
0
 10
78.6718
 20
1.45541
 30
0.0
 11
79.0746
 21
2.6333
 31
0.0
  0
LINE
  5
5F5
  8
0
 10
79.0746
 20
2.6333
 30
0.0
 11
79.6993
 21
3.70998
 31
0.0
  0
LINE
  5
5F6
  8
0
 10
79.6993
 20
3.70998
 30
0.0
 11
80.5221
 21
4.64409
 31
0.0
  0
LINE
  5
5F7
  8
0
 10
80.5221
 20
4.64409
 30
0.0
 11
81.5114
 21
5.39973
 31
0.0
  0
LINE
  5
5F8
  8
0
 10
81.5114
 20
5.39973
 30
0.0
 11
82.629
 21
5.94786
 31
0.0
  0
LINE
  5
5F9
  8
0
 10
82.629
 20
5.94786
 30
0.0
 11
83.8321
 21
6.26743
 31
0.0
  0
LINE
  5
5FA
  8
0
 10
83.8321
 20
6.26743
 30
0.0
 11
85.0744
 21
6.34613
 31
0.0
  0
LINE
  5
5FB
  8
0
 10
85.0744
 20
6.34613
 30
0.0
 11
86.3082
 21
6.18095
 31
0.0
  0
LINE
  5
5FC
  8
0
 10
86.3082
 20
6.18095
 30
0.0
 11
87.4861
 21
5.77824
 31
0.0
  0
LINE
  5
5FD
  8
0
 10
87.4861
 20
5.77824
 30
0.0
 11
88.5628
 21
5.15349
 31
0.0
  0
LINE
  5
5FE
  8
0
 10
88.5628
 20
5.15349
 30
0.0
 11
89.4969
 21
4.33069
 31
0.0
  0
LINE
  5
5FF
  8
0
 10
89.4969
 20
4.33069
 30
0.0
 11
90.2525
 21
3.34145
 31
0.0
  0
LINE
  5
600
  8
0
 10
90.2525
 20
3.34145
 30
0.0
 11
90.8007
 21
2.22382
 31
0.0
  0
LINE
  5
601
  8
0
 10
90.8007
 20
2.22382
 30
0.0
 11
91.1202
 21
1.02071
 31
0.0
  0
LINE
  5
602
  8
0
 10
91.1202
 20
1.02071
 30
0.0
 11
91.1989
 21
-0.221603
 31
0.0
  0
LINE
  5
603
  8
0
 10
91.1989
 20
-0.221603
 30
0.0
 11
91.0338
 21
-1.45541
 31
0.0
  0
LINE
  5
604
  8
0
 10
91.0338
 20
-1.45541
 30
0.0
 11
90.6311
 21
-2.6333
 31
0.0
  0
LINE
  5
605
  8
0
 10
90.6311
 20
-2.6333
 30
0.0
 11
90.0063
 21
-3.70998
 31
0.0
  0
LINE
  5
606
  8
0
 10
90.0063
 20
-3.70998
 30
0.0
 11
89.1835
 21
-4.64409
 31
0.0
  0
LINE
  5
607
  8
0
 10
89.1835
 20
-4.64409
 30
0.0
 11
88.1943
 21
-5.39973
 31
0.0
  0
LINE
  5
608
  8
0
 10
88.1943
 20
-5.39973
 30
0.0
 11
87.0766
 21
-5.94786
 31
0.0
  0
LINE
  5
609
  8
0
 10
87.0766
 20
-5.94786
 30
0.0
 11
85.8735
 21
-6.26743
 31
0.0
  0
LINE
  5
60A
  8
0
 10
85.8735
 20
-6.26743
 30
0.0
 11
84.6312
 21
-6.34613
 31
0.0
  0
LINE
  5
60B
  8
0
 10
84.6312
 20
-6.34613
 30
0.0
 11
83.3974
 21
-6.18095
 31
0.0
  0
LINE
  5
60C
  8
0
 10
0.937286
 20
-10.6724
 30
0.0
 11
1.32449
 21
-9.83858
 31
0.0
  0
LINE
  5
60D
  8
0
 10
1.32449
 20
-9.83858
 30
0.0
 11
1.49564
 21
-9.20461
 31
0.0
  0
LINE
  5
60E
  8
0
 10
1.49564
 20
-9.20461
 30
0.0
 11
1.53293
 21
-8.81238
 31
0.0
  0
LINE
  5
60F
  8
0
 10
1.53293
 20
-8.81238
 30
0.0
 11
1.52521
 21
-8.68121
 31
0.0
  0
LINE
  5
610
  8
0
 10
1.52521
 20
-8.68121
 30
0.0
 11
1.39827
 21
-7.95872
 31
0.0
  0
LINE
  5
611
  8
0
 10
1.39827
 20
-7.95872
 30
0.0
 11
2.76842
 21
-7.5916
 31
0.0
  0
LINE
  5
612
  8
0
 10
2.76842
 20
-7.5916
 30
0.0
 11
3.01973
 21
-8.28075
 31
0.0
  0
LINE
  5
613
  8
0
 10
3.01973
 20
-8.28075
 30
0.0
 11
3.07863
 21
-8.39819
 31
0.0
  0
LINE
  5
614
  8
0
 10
3.07863
 20
-8.39819
 30
0.0
 11
3.30704
 21
-8.71924
 31
0.0
  0
LINE
  5
615
  8
0
 10
3.30704
 20
-8.71924
 30
0.0
 11
3.77223
 21
-9.18269
 31
0.0
  0
LINE
  5
616
  8
0
 10
3.77223
 20
-9.18269
 30
0.0
 11
4.52446
 21
-9.71117
 31
0.0
  0
LINE
  5
617
  8
0
 10
4.52446
 20
-9.71117
 30
0.0
 11
5.59354
 21
-10.2153
 31
0.0
  0
LINE
  5
618
  8
0
 10
5.59354
 20
-10.2153
 30
0.0
 11
6.04993
 21
-9.9518
 31
0.0
  0
LINE
  5
619
  8
0
 10
6.04993
 20
-9.9518
 30
0.0
 11
6.14789
 21
-8.77388
 31
0.0
  0
LINE
  5
61A
  8
0
 10
6.14789
 20
-8.77388
 30
0.0
 11
6.06633
 21
-7.8582
 31
0.0
  0
LINE
  5
61B
  8
0
 10
6.06633
 20
-7.8582
 30
0.0
 11
5.89755
 21
-7.2236
 31
0.0
  0
LINE
  5
61C
  8
0
 10
5.89755
 20
-7.2236
 30
0.0
 11
5.73373
 21
-6.86526
 31
0.0
  0
LINE
  5
61D
  8
0
 10
5.73373
 20
-6.86526
 30
0.0
 11
5.66147
 21
-6.75554
 31
0.0
  0
LINE
  5
61E
  8
0
 10
5.66147
 20
-6.75554
 30
0.0
 11
5.19031
 21
-6.19331
 31
0.0
  0
LINE
  5
61F
  8
0
 10
5.19031
 20
-6.19331
 30
0.0
 11
6.19331
 21
-5.19031
 31
0.0
  0
LINE
  5
620
  8
0
 10
6.19331
 20
-5.19031
 30
0.0
 11
6.75554
 21
-5.66147
 31
0.0
  0
LINE
  5
621
  8
0
 10
6.75554
 20
-5.66147
 30
0.0
 11
6.86526
 21
-5.73373
 31
0.0
  0
LINE
  5
622
  8
0
 10
6.86526
 20
-5.73373
 30
0.0
 11
7.2236
 21
-5.89755
 31
0.0
  0
LINE
  5
623
  8
0
 10
7.2236
 20
-5.89755
 30
0.0
 11
7.8582
 21
-6.06633
 31
0.0
  0
LINE
  5
624
  8
0
 10
7.8582
 20
-6.06633
 30
0.0
 11
8.77388
 21
-6.14789
 31
0.0
  0
LINE
  5
625
  8
0
 10
8.77388
 20
-6.14789
 30
0.0
 11
9.9518
 21
-6.04993
 31
0.0
  0
LINE
  5
626
  8
0
 10
9.9518
 20
-6.04993
 30
0.0
 11
10.2153
 21
-5.59354
 31
0.0
  0
LINE
  5
627
  8
0
 10
10.2153
 20
-5.59354
 30
0.0
 11
9.71117
 21
-4.52446
 31
0.0
  0
LINE
  5
628
  8
0
 10
9.71117
 20
-4.52446
 30
0.0
 11
9.18269
 21
-3.77223
 31
0.0
  0
LINE
  5
629
  8
0
 10
9.18269
 20
-3.77223
 30
0.0
 11
8.71924
 21
-3.30704
 31
0.0
  0
LINE
  5
62A
  8
0
 10
8.71924
 20
-3.30704
 30
0.0
 11
8.39819
 21
-3.07863
 31
0.0
  0
LINE
  5
62B
  8
0
 10
8.39819
 20
-3.07863
 30
0.0
 11
8.28075
 21
-3.01973
 31
0.0
  0
LINE
  5
62C
  8
0
 10
8.28075
 20
-3.01973
 30
0.0
 11
7.5916
 21
-2.76842
 31
0.0
  0
LINE
  5
62D
  8
0
 10
7.5916
 20
-2.76842
 30
0.0
 11
7.95872
 21
-1.39827
 31
0.0
  0
LINE
  5
62E
  8
0
 10
7.95872
 20
-1.39827
 30
0.0
 11
8.68121
 21
-1.52521
 31
0.0
  0
LINE
  5
62F
  8
0
 10
8.68121
 20
-1.52521
 30
0.0
 11
8.81238
 21
-1.53293
 31
0.0
  0
LINE
  5
630
  8
0
 10
8.81238
 20
-1.53293
 30
0.0
 11
9.20461
 21
-1.49564
 31
0.0
  0
LINE
  5
631
  8
0
 10
9.20461
 20
-1.49564
 30
0.0
 11
9.83858
 21
-1.32449
 31
0.0
  0
LINE
  5
632
  8
0
 10
9.83858
 20
-1.32449
 30
0.0
 11
10.6724
 21
-0.937286
 31
0.0
  0
LINE
  5
633
  8
0
 10
10.6724
 20
-0.937286
 30
0.0
 11
11.6435
 21
-0.263489
 31
0.0
  0
LINE
  5
634
  8
0
 10
11.6435
 20
-0.263489
 30
0.0
 11
11.6435
 21
0.263489
 31
0.0
  0
LINE
  5
635
  8
0
 10
11.6435
 20
0.263489
 30
0.0
 11
10.6724
 21
0.937286
 31
0.0
  0
LINE
  5
636
  8
0
 10
10.6724
 20
0.937286
 30
0.0
 11
9.83858
 21
1.32449
 31
0.0
  0
LINE
  5
637
  8
0
 10
9.83858
 20
1.32449
 30
0.0
 11
9.20461
 21
1.49564
 31
0.0
  0
LINE
  5
638
  8
0
 10
9.20461
 20
1.49564
 30
0.0
 11
8.81238
 21
1.53293
 31
0.0
  0
LINE
  5
639
  8
0
 10
8.81238
 20
1.53293
 30
0.0
 11
8.68121
 21
1.52521
 31
0.0
  0
LINE
  5
63A
  8
0
 10
8.68121
 20
1.52521
 30
0.0
 11
7.95872
 21
1.39827
 31
0.0
  0
LINE
  5
63B
  8
0
 10
7.95872
 20
1.39827
 30
0.0
 11
7.5916
 21
2.76842
 31
0.0
  0
LINE
  5
63C
  8
0
 10
7.5916
 20
2.76842
 30
0.0
 11
8.28075
 21
3.01973
 31
0.0
  0
LINE
  5
63D
  8
0
 10
8.28075
 20
3.01973
 30
0.0
 11
8.39819
 21
3.07863
 31
0.0
  0
LINE
  5
63E
  8
0
 10
8.39819
 20
3.07863
 30
0.0
 11
8.71924
 21
3.30704
 31
0.0
  0
LINE
  5
63F
  8
0
 10
8.71924
 20
3.30704
 30
0.0
 11
9.18269
 21
3.77223
 31
0.0
  0
LINE
  5
640
  8
0
 10
9.18269
 20
3.77223
 30
0.0
 11
9.71117
 21
4.52446
 31
0.0
  0
LINE
  5
641
  8
0
 10
9.71117
 20
4.52446
 30
0.0
 11
10.2153
 21
5.59354
 31
0.0
  0
LINE
  5
642
  8
0
 10
10.2153
 20
5.59354
 30
0.0
 11
9.9518
 21
6.04993
 31
0.0
  0
LINE
  5
643
  8
0
 10
9.9518
 20
6.04993
 30
0.0
 11
8.77388
 21
6.14789
 31
0.0
  0
LINE
  5
644
  8
0
 10
8.77388
 20
6.14789
 30
0.0
 11
7.8582
 21
6.06633
 31
0.0
  0
LINE
  5
645
  8
0
 10
7.8582
 20
6.06633
 30
0.0
 11
7.2236
 21
5.89755
 31
0.0
  0
LINE
  5
646
  8
0
 10
7.2236
 20
5.89755
 30
0.0
 11
6.86526
 21
5.73373
 31
0.0
  0
LINE
  5
647
  8
0
 10
6.86526
 20
5.73373
 30
0.0
 11
6.75554
 21
5.66147
 31
0.0
  0
LINE
  5
648
  8
0
 10
6.75554
 20
5.66147
 30
0.0
 11
6.19331
 21
5.19031
 31
0.0
  0
LINE
  5
649
  8
0
 10
6.19331
 20
5.19031
 30
0.0
 11
5.19031
 21
6.19331
 31
0.0
  0
LINE
  5
64A
  8
0
 10
5.19031
 20
6.19331
 30
0.0
 11
5.66147
 21
6.75554
 31
0.0
  0
LINE
  5
64B
  8
0
 10
5.66147
 20
6.75554
 30
0.0
 11
5.73373
 21
6.86526
 31
0.0
  0
LINE
  5
64C
  8
0
 10
5.73373
 20
6.86526
 30
0.0
 11
5.89755
 21
7.2236
 31
0.0
  0
LINE
  5
64D
  8
0
 10
5.89755
 20
7.2236
 30
0.0
 11
6.06633
 21
7.8582
 31
0.0
  0
LINE
  5
64E
  8
0
 10
6.06633
 20
7.8582
 30
0.0
 11
6.14789
 21
8.77388
 31
0.0
  0
LINE
  5
64F
  8
0
 10
6.14789
 20
8.77388
 30
0.0
 11
6.04993
 21
9.9518
 31
0.0
  0
LINE
  5
650
  8
0
 10
6.04993
 20
9.9518
 30
0.0
 11
5.59354
 21
10.2153
 31
0.0
  0
LINE
  5
651
  8
0
 10
5.59354
 20
10.2153
 30
0.0
 11
4.52446
 21
9.71117
 31
0.0
  0
LINE
  5
652
  8
0
 10
4.52446
 20
9.71117
 30
0.0
 11
3.77223
 21
9.18269
 31
0.0
  0
LINE
  5
653
  8
0
 10
3.77223
 20
9.18269
 30
0.0
 11
3.30704
 21
8.71924
 31
0.0
  0
LINE
  5
654
  8
0
 10
3.30704
 20
8.71924
 30
0.0
 11
3.07863
 21
8.39819
 31
0.0
  0
LINE
  5
655
  8
0
 10
3.07863
 20
8.39819
 30
0.0
 11
3.01973
 21
8.28075
 31
0.0
  0
LINE
  5
656
  8
0
 10
3.01973
 20
8.28075
 30
0.0
 11
2.76842
 21
7.5916
 31
0.0
  0
LINE
  5
657
  8
0
 10
2.76842
 20
7.5916
 30
0.0
 11
1.39827
 21
7.95872
 31
0.0
  0
LINE
  5
658
  8
0
 10
1.39827
 20
7.95872
 30
0.0
 11
1.52521
 21
8.68121
 31
0.0
  0
LINE
  5
659
  8
0
 10
1.52521
 20
8.68121
 30
0.0
 11
1.53293
 21
8.81238
 31
0.0
  0
LINE
  5
65A
  8
0
 10
1.53293
 20
8.81238
 30
0.0
 11
1.49564
 21
9.20461
 31
0.0
  0
LINE
  5
65B
  8
0
 10
1.49564
 20
9.20461
 30
0.0
 11
1.32449
 21
9.83858
 31
0.0
  0
LINE
  5
65C
  8
0
 10
1.32449
 20
9.83858
 30
0.0
 11
0.937286
 21
10.6724
 31
0.0
  0
LINE
  5
65D
  8
0
 10
0.937286
 20
10.6724
 30
0.0
 11
0.263489
 21
11.6435
 31
0.0
  0
LINE
  5
65E
  8
0
 10
0.263489
 20
11.6435
 30
0.0
 11
-0.263489
 21
11.6435
 31
0.0
  0
LINE
  5
65F
  8
0
 10
-0.263489
 20
11.6435
 30
0.0
 11
-0.937286
 21
10.6724
 31
0.0
  0
LINE
  5
660
  8
0
 10
-0.937286
 20
10.6724
 30
0.0
 11
-1.32449
 21
9.83858
 31
0.0
  0
LINE
  5
661
  8
0
 10
-1.32449
 20
9.83858
 30
0.0
 11
-1.49564
 21
9.20461
 31
0.0
  0
LINE
  5
662
  8
0
 10
-1.49564
 20
9.20461
 30
0.0
 11
-1.53293
 21
8.81238
 31
0.0
  0
LINE
  5
663
  8
0
 10
-1.53293
 20
8.81238
 30
0.0
 11
-1.52521
 21
8.68121
 31
0.0
  0
LINE
  5
664
  8
0
 10
-1.52521
 20
8.68121
 30
0.0
 11
-1.39827
 21
7.95872
 31
0.0
  0
LINE
  5
665
  8
0
 10
-1.39827
 20
7.95872
 30
0.0
 11
-2.76842
 21
7.5916
 31
0.0
  0
LINE
  5
666
  8
0
 10
-2.76842
 20
7.5916
 30
0.0
 11
-3.01973
 21
8.28075
 31
0.0
  0
LINE
  5
667
  8
0
 10
-3.01973
 20
8.28075
 30
0.0
 11
-3.07863
 21
8.39819
 31
0.0
  0
LINE
  5
668
  8
0
 10
-3.07863
 20
8.39819
 30
0.0
 11
-3.30704
 21
8.71924
 31
0.0
  0
LINE
  5
669
  8
0
 10
-3.30704
 20
8.71924
 30
0.0
 11
-3.77223
 21
9.18269
 31
0.0
  0
LINE
  5
66A
  8
0
 10
-3.77223
 20
9.18269
 30
0.0
 11
-4.52446
 21
9.71117
 31
0.0
  0
LINE
  5
66B
  8
0
 10
-4.52446
 20
9.71117
 30
0.0
 11
-5.59354
 21
10.2153
 31
0.0
  0
LINE
  5
66C
  8
0
 10
-5.59354
 20
10.2153
 30
0.0
 11
-6.04993
 21
9.9518
 31
0.0
  0
LINE
  5
66D
  8
0
 10
-6.04993
 20
9.9518
 30
0.0
 11
-6.14789
 21
8.77388
 31
0.0
  0
LINE
  5
66E
  8
0
 10
-6.14789
 20
8.77388
 30
0.0
 11
-6.06633
 21
7.8582
 31
0.0
  0
LINE
  5
66F
  8
0
 10
-6.06633
 20
7.8582
 30
0.0
 11
-5.89755
 21
7.2236
 31
0.0
  0
LINE
  5
670
  8
0
 10
-5.89755
 20
7.2236
 30
0.0
 11
-5.73373
 21
6.86526
 31
0.0
  0
LINE
  5
671
  8
0
 10
-5.73373
 20
6.86526
 30
0.0
 11
-5.66147
 21
6.75554
 31
0.0
  0
LINE
  5
672
  8
0
 10
-5.66147
 20
6.75554
 30
0.0
 11
-5.19031
 21
6.19331
 31
0.0
  0
LINE
  5
673
  8
0
 10
-5.19031
 20
6.19331
 30
0.0
 11
-6.19331
 21
5.19031
 31
0.0
  0
LINE
  5
674
  8
0
 10
-6.19331
 20
5.19031
 30
0.0
 11
-6.75554
 21
5.66147
 31
0.0
  0
LINE
  5
675
  8
0
 10
-6.75554
 20
5.66147
 30
0.0
 11
-6.86526
 21
5.73373
 31
0.0
  0
LINE
  5
676
  8
0
 10
-6.86526
 20
5.73373
 30
0.0
 11
-7.2236
 21
5.89755
 31
0.0
  0
LINE
  5
677
  8
0
 10
-7.2236
 20
5.89755
 30
0.0
 11
-7.8582
 21
6.06633
 31
0.0
  0
LINE
  5
678
  8
0
 10
-7.8582
 20
6.06633
 30
0.0
 11
-8.77388
 21
6.14789
 31
0.0
  0
LINE
  5
679
  8
0
 10
-8.77388
 20
6.14789
 30
0.0
 11
-9.9518
 21
6.04993
 31
0.0
  0
LINE
  5
67A
  8
0
 10
-9.9518
 20
6.04993
 30
0.0
 11
-10.2153
 21
5.59354
 31
0.0
  0
LINE
  5
67B
  8
0
 10
-10.2153
 20
5.59354
 30
0.0
 11
-9.71117
 21
4.52446
 31
0.0
  0
LINE
  5
67C
  8
0
 10
-9.71117
 20
4.52446
 30
0.0
 11
-9.18269
 21
3.77223
 31
0.0
  0
LINE
  5
67D
  8
0
 10
-9.18269
 20
3.77223
 30
0.0
 11
-8.71924
 21
3.30704
 31
0.0
  0
LINE
  5
67E
  8
0
 10
-8.71924
 20
3.30704
 30
0.0
 11
-8.39819
 21
3.07863
 31
0.0
  0
LINE
  5
67F
  8
0
 10
-8.39819
 20
3.07863
 30
0.0
 11
-8.28075
 21
3.01973
 31
0.0
  0
LINE
  5
680
  8
0
 10
-8.28075
 20
3.01973
 30
0.0
 11
-7.5916
 21
2.76842
 31
0.0
  0
LINE
  5
681
  8
0
 10
-7.5916
 20
2.76842
 30
0.0
 11
-7.95872
 21
1.39827
 31
0.0
  0
LINE
  5
682
  8
0
 10
-7.95872
 20
1.39827
 30
0.0
 11
-8.68121
 21
1.52521
 31
0.0
  0
LINE
  5
683
  8
0
 10
-8.68121
 20
1.52521
 30
0.0
 11
-8.81238
 21
1.53293
 31
0.0
  0
LINE
  5
684
  8
0
 10
-8.81238
 20
1.53293
 30
0.0
 11
-9.20461
 21
1.49564
 31
0.0
  0
LINE
  5
685
  8
0
 10
-9.20461
 20
1.49564
 30
0.0
 11
-9.83858
 21
1.32449
 31
0.0
  0
LINE
  5
686
  8
0
 10
-9.83858
 20
1.32449
 30
0.0
 11
-10.6724
 21
0.937286
 31
0.0
  0
LINE
  5
687
  8
0
 10
-10.6724
 20
0.937286
 30
0.0
 11
-11.6435
 21
0.263489
 31
0.0
  0
LINE
  5
688
  8
0
 10
-11.6435
 20
0.263489
 30
0.0
 11
-11.6435
 21
-0.263489
 31
0.0
  0
LINE
  5
689
  8
0
 10
-11.6435
 20
-0.263489
 30
0.0
 11
-10.6724
 21
-0.937286
 31
0.0
  0
LINE
  5
68A
  8
0
 10
-10.6724
 20
-0.937286
 30
0.0
 11
-9.83858
 21
-1.32449
 31
0.0
  0
LINE
  5
68B
  8
0
 10
-9.83858
 20
-1.32449
 30
0.0
 11
-9.20461
 21
-1.49564
 31
0.0
  0
LINE
  5
68C
  8
0
 10
-9.20461
 20
-1.49564
 30
0.0
 11
-8.81238
 21
-1.53293
 31
0.0
  0
LINE
  5
68D
  8
0
 10
-8.81238
 20
-1.53293
 30
0.0
 11
-8.68121
 21
-1.52521
 31
0.0
  0
LINE
  5
68E
  8
0
 10
-8.68121
 20
-1.52521
 30
0.0
 11
-7.95872
 21
-1.39827
 31
0.0
  0
LINE
  5
68F
  8
0
 10
-7.95872
 20
-1.39827
 30
0.0
 11
-7.5916
 21
-2.76842
 31
0.0
  0
LINE
  5
690
  8
0
 10
-7.5916
 20
-2.76842
 30
0.0
 11
-8.28075
 21
-3.01973
 31
0.0
  0
LINE
  5
691
  8
0
 10
-8.28075
 20
-3.01973
 30
0.0
 11
-8.39819
 21
-3.07863
 31
0.0
  0
LINE
  5
692
  8
0
 10
-8.39819
 20
-3.07863
 30
0.0
 11
-8.71924
 21
-3.30704
 31
0.0
  0
LINE
  5
693
  8
0
 10
-8.71924
 20
-3.30704
 30
0.0
 11
-9.18269
 21
-3.77223
 31
0.0
  0
LINE
  5
694
  8
0
 10
-9.18269
 20
-3.77223
 30
0.0
 11
-9.71117
 21
-4.52446
 31
0.0
  0
LINE
  5
695
  8
0
 10
-9.71117
 20
-4.52446
 30
0.0
 11
-10.2153
 21
-5.59354
 31
0.0
  0
LINE
  5
696
  8
0
 10
-10.2153
 20
-5.59354
 30
0.0
 11
-9.9518
 21
-6.04993
 31
0.0
  0
LINE
  5
697
  8
0
 10
-9.9518
 20
-6.04993
 30
0.0
 11
-8.77388
 21
-6.14789
 31
0.0
  0
LINE
  5
698
  8
0
 10
-8.77388
 20
-6.14789
 30
0.0
 11
-7.8582
 21
-6.06633
 31
0.0
  0
LINE
  5
699
  8
0
 10
-7.8582
 20
-6.06633
 30
0.0
 11
-7.2236
 21
-5.89755
 31
0.0
  0
LINE
  5
69A
  8
0
 10
-7.2236
 20
-5.89755
 30
0.0
 11
-6.86526
 21
-5.73373
 31
0.0
  0
LINE
  5
69B
  8
0
 10
-6.86526
 20
-5.73373
 30
0.0
 11
-6.75554
 21
-5.66147
 31
0.0
  0
LINE
  5
69C
  8
0
 10
-6.75554
 20
-5.66147
 30
0.0
 11
-6.19331
 21
-5.19031
 31
0.0
  0
LINE
  5
69D
  8
0
 10
-6.19331
 20
-5.19031
 30
0.0
 11
-5.19031
 21
-6.19331
 31
0.0
  0
LINE
  5
69E
  8
0
 10
-5.19031
 20
-6.19331
 30
0.0
 11
-5.66147
 21
-6.75554
 31
0.0
  0
LINE
  5
69F
  8
0
 10
-5.66147
 20
-6.75554
 30
0.0
 11
-5.73373
 21
-6.86526
 31
0.0
  0
LINE
  5
6A0
  8
0
 10
-5.73373
 20
-6.86526
 30
0.0
 11
-5.89755
 21
-7.2236
 31
0.0
  0
LINE
  5
6A1
  8
0
 10
-5.89755
 20
-7.2236
 30
0.0
 11
-6.06633
 21
-7.8582
 31
0.0
  0
LINE
  5
6A2
  8
0
 10
-6.06633
 20
-7.8582
 30
0.0
 11
-6.14789
 21
-8.77388
 31
0.0
  0
LINE
  5
6A3
  8
0
 10
-6.14789
 20
-8.77388
 30
0.0
 11
-6.04993
 21
-9.9518
 31
0.0
  0
LINE
  5
6A4
  8
0
 10
-6.04993
 20
-9.9518
 30
0.0
 11
-5.59354
 21
-10.2153
 31
0.0
  0
LINE
  5
6A5
  8
0
 10
-5.59354
 20
-10.2153
 30
0.0
 11
-4.52446
 21
-9.71117
 31
0.0
  0
LINE
  5
6A6
  8
0
 10
-4.52446
 20
-9.71117
 30
0.0
 11
-3.77223
 21
-9.18269
 31
0.0
  0
LINE
  5
6A7
  8
0
 10
-3.77223
 20
-9.18269
 30
0.0
 11
-3.30704
 21
-8.71924
 31
0.0
  0
LINE
  5
6A8
  8
0
 10
-3.30704
 20
-8.71924
 30
0.0
 11
-3.07863
 21
-8.39819
 31
0.0
  0
LINE
  5
6A9
  8
0
 10
-3.07863
 20
-8.39819
 30
0.0
 11
-3.01973
 21
-8.28075
 31
0.0
  0
LINE
  5
6AA
  8
0
 10
-3.01973
 20
-8.28075
 30
0.0
 11
-2.76842
 21
-7.5916
 31
0.0
  0
LINE
  5
6AB
  8
0
 10
-2.76842
 20
-7.5916
 30
0.0
 11
-1.39827
 21
-7.95872
 31
0.0
  0
LINE
  5
6AC
  8
0
 10
-1.39827
 20
-7.95872
 30
0.0
 11
-1.52521
 21
-8.68121
 31
0.0
  0
LINE
  5
6AD
  8
0
 10
-1.52521
 20
-8.68121
 30
0.0
 11
-1.53293
 21
-8.81238
 31
0.0
  0
LINE
  5
6AE
  8
0
 10
-1.53293
 20
-8.81238
 30
0.0
 11
-1.49564
 21
-9.20461
 31
0.0
  0
LINE
  5
6AF
  8
0
 10
-1.49564
 20
-9.20461
 30
0.0
 11
-1.32449
 21
-9.83858
 31
0.0
  0
LINE
  5
6B0
  8
0
 10
-1.32449
 20
-9.83858
 30
0.0
 11
-0.937286
 21
-10.6724
 31
0.0
  0
LINE
  5
6B1
  8
0
 10
-0.937286
 20
-10.6724
 30
0.0
 11
-0.263489
 21
-11.6435
 31
0.0
  0
LINE
  5
6B2
  8
0
 10
-0.263489
 20
-11.6435
 30
0.0
 11
0.263489
 21
-11.6435
 31
0.0
  0
LINE
  5
6B3
  8
0
 10
0.263489
 20
-11.6435
 30
0.0
 11
0.937286
 21
-10.6724
 31
0.0
  0
LINE
  5
6B4
  8
0
 10
-1.26808
 20
-6.37509
 30
0.0
 11
-2.48744
 21
-6.0052
 31
0.0
  0
LINE
  5
6B5
  8
0
 10
-2.48744
 20
-6.0052
 30
0.0
 11
-3.61121
 21
-5.40454
 31
0.0
  0
LINE
  5
6B6
  8
0
 10
-3.61121
 20
-5.40454
 30
0.0
 11
-4.59619
 21
-4.59619
 31
0.0
  0
LINE
  5
6B7
  8
0
 10
-4.59619
 20
-4.59619
 30
0.0
 11
-5.40454
 21
-3.61121
 31
0.0
  0
LINE
  5
6B8
  8
0
 10
-5.40454
 20
-3.61121
 30
0.0
 11
-6.0052
 21
-2.48744
 31
0.0
  0
LINE
  5
6B9
  8
0
 10
-6.0052
 20
-2.48744
 30
0.0
 11
-6.37509
 21
-1.26808
 31
0.0
  0
LINE
  5
6BA
  8
0
 10
-6.37509
 20
-1.26808
 30
0.0
 11
-6.5
 21
0.0
 31
0.0
  0
LINE
  5
6BB
  8
0
 10
-6.5
 20
0.0
 30
0.0
 11
-6.37509
 21
1.26808
 31
0.0
  0
LINE
  5
6BC
  8
0
 10
-6.37509
 20
1.26808
 30
0.0
 11
-6.0052
 21
2.48744
 31
0.0
  0
LINE
  5
6BD
  8
0
 10
-6.0052
 20
2.48744
 30
0.0
 11
-5.40454
 21
3.61121
 31
0.0
  0
LINE
  5
6BE
  8
0
 10
-5.40454
 20
3.61121
 30
0.0
 11
-4.59619
 21
4.59619
 31
0.0
  0
LINE
  5
6BF
  8
0
 10
-4.59619
 20
4.59619
 30
0.0
 11
-3.61121
 21
5.40454
 31
0.0
  0
LINE
  5
6C0
  8
0
 10
-3.61121
 20
5.40454
 30
0.0
 11
-2.48744
 21
6.0052
 31
0.0
  0
LINE
  5
6C1
  8
0
 10
-2.48744
 20
6.0052
 30
0.0
 11
-1.26808
 21
6.37509
 31
0.0
  0
LINE
  5
6C2
  8
0
 10
-1.26808
 20
6.37509
 30
0.0
 11
0.0
 21
6.5
 31
0.0
  0
LINE
  5
6C3
  8
0
 10
0.0
 20
6.5
 30
0.0
 11
1.26808
 21
6.37509
 31
0.0
  0
LINE
  5
6C4
  8
0
 10
1.26808
 20
6.37509
 30
0.0
 11
2.48744
 21
6.0052
 31
0.0
  0
LINE
  5
6C5
  8
0
 10
2.48744
 20
6.0052
 30
0.0
 11
3.61121
 21
5.40454
 31
0.0
  0
LINE
  5
6C6
  8
0
 10
3.61121
 20
5.40454
 30
0.0
 11
4.59619
 21
4.59619
 31
0.0
  0
LINE
  5
6C7
  8
0
 10
4.59619
 20
4.59619
 30
0.0
 11
5.40454
 21
3.61121
 31
0.0
  0
LINE
  5
6C8
  8
0
 10
5.40454
 20
3.61121
 30
0.0
 11
6.0052
 21
2.48744
 31
0.0
  0
LINE
  5
6C9
  8
0
 10
6.0052
 20
2.48744
 30
0.0
 11
6.37509
 21
1.26808
 31
0.0
  0
LINE
  5
6CA
  8
0
 10
6.37509
 20
1.26808
 30
0.0
 11
6.5
 21
0.0
 31
0.0
  0
LINE
  5
6CB
  8
0
 10
6.5
 20
0.0
 30
0.0
 11
6.37509
 21
-1.26808
 31
0.0
  0
LINE
  5
6CC
  8
0
 10
6.37509
 20
-1.26808
 30
0.0
 11
6.0052
 21
-2.48744
 31
0.0
  0
LINE
  5
6CD
  8
0
 10
6.0052
 20
-2.48744
 30
0.0
 11
5.40454
 21
-3.61121
 31
0.0
  0
LINE
  5
6CE
  8
0
 10
5.40454
 20
-3.61121
 30
0.0
 11
4.59619
 21
-4.59619
 31
0.0
  0
LINE
  5
6CF
  8
0
 10
4.59619
 20
-4.59619
 30
0.0
 11
3.61121
 21
-5.40454
 31
0.0
  0
LINE
  5
6D0
  8
0
 10
3.61121
 20
-5.40454
 30
0.0
 11
2.48744
 21
-6.0052
 31
0.0
  0
LINE
  5
6D1
  8
0
 10
2.48744
 20
-6.0052
 30
0.0
 11
1.26808
 21
-6.37509
 31
0.0
  0
LINE
  5
6D2
  8
0
 10
1.26808
 20
-6.37509
 30
0.0
 11
0.0
 21
-6.5
 31
0.0
  0
LINE
  5
6D3
  8
0
 10
0.0
 20
-6.5
 30
0.0
 11
-1.26808
 21
-6.37509
 31
0.0
  0
TEXT
  5
709
  8
0
 62
5
 10
0.0
 20
0.0
 30
0.0
 40
3.0
  1
8
  7
OpenSans-Regular
  0
TEXT
  5
72C
  8
0
 62
5
 10
0.0
 20
0.0
 30
0.0
 40
3.0
  1
winch_gears
  7
OpenSans-Regular
  0
ENDSEC
  0
EOF
