  0
SECTION
  2
HEADER
  9
$ACADVER
  1
AC1009
  9
$DWGCODEPAGE
  3
ANSI_1252
  9
$INSBASE
 10
0.0
 20
0.0
 30
0.0
  9
$EXTMIN
 10
1e+20
 20
1e+20
 30
1e+20
  9
$EXTMAX
 10
-1e+20
 20
-1e+20
 30
-1e+20
  9
$LIMMIN
 10
0.0
 20
0.0
  9
$LIMMAX
 10
420.0
 20
297.0
  9
$ORTHOMODE
 70
0
  9
$REGENMODE
 70
1
  9
$FILLMODE
 70
1
  9
$DRAGMODE
 70
2
  9
$QTEXTMODE
 70
0
  9
$MIRRTEXT
 70
1
  9
$OSMODE
 70
20583
  9
$LTSCALE
 40
1.0
  9
$ATTMODE
 70
1
  9
$TEXTSIZE
 40
2.5
  9
$TRACEWID
 40
1.0
  9
$TEXTSTYLE
  7
Standard
  9
$CLAYER
  8
0
  9
$CELTYPE
  6
ByLayer
  9
$CECOLOR
 62
256
  9
$DIMSCALE
 40
1.0
  9
$DIMASZ
 40
2.5
  9
$DIMEXO
 40
0.625
  9
$DIMDLI
 40
3.75
  9
$DIMRND
 40
0.0
  9
$DIMDLE
 40
0.0
  9
$DIMEXE
 40
1.25
  9
$DIMTP
 40
0.0
  9
$DIMTM
 40
0.0
  9
$DIMTXT
 40
2.5
  9
$DIMCEN
 40
2.5
  9
$DIMTSZ
 40
0.0
  9
$DIMTOL
 70
0
  9
$DIMLIM
 70
0
  9
$DIMTIH
 70
0
  9
$DIMTOH
 70
0
  9
$DIMSE1
 70
0
  9
$DIMSE2
 70
0
  9
$DIMTAD
 70
1
  9
$DIMZIN
 70
8
  9
$DIMBLK
  1

  9
$DIMASO
 70
1
  9
$DIMSHO
 70
1
  9
$DIMPOST
  1

  9
$DIMAPOST
  1

  9
$DIMALT
 70
0
  9
$DIMALTD
 70
3
  9
$DIMALTF
 40
0.03937007874
  9
$DIMLFAC
 40
1.0
  9
$DIMTOFL
 70
1
  9
$DIMTVP
 40
0.0
  9
$DIMTIX
 70
0
  9
$DIMSOXD
 70
0
  9
$DIMSAH
 70
0
  9
$DIMBLK1
  1

  9
$DIMBLK2
  1

  9
$DIMSTYLE
  2
ISO-25
  9
$DIMCLRD
 70
0
  9
$DIMCLRE
 70
0
  9
$DIMCLRT
 70
0
  9
$DIMTFAC
 40
1.0
  9
$DIMGAP
 40
0.625
  9
$COORDS
 70
1
  9
$ATTDIA
 70
0
  9
$ATTREQ
 70
1
  9
$HANDLING
 70
1
  9
$LUNITS
 70
2
  9
$LUPREC
 70
4
  9
$SKETCHINC
 40
1.0
  9
$FILLETRAD
 40
10.0
  9
$AUNITS
 70
0
  9
$AUPREC
 70
2
  9
$MENU
  1
.
  9
$ELEVATION
 40
0.0
  9
$PELEVATION
 40
0.0
  9
$THICKNESS
 40
0.0
  9
$LIMCHECK
 70
0
  9
$CHAMFERA
 40
0.0
  9
$CHAMFERB
 40
0.0
  9
$SKPOLY
 70
0
  9
$TDCREATE
 40
2459984.7314699073
  9
$TDUPDATE
 40
2459984.7314699073
  9
$TDINDWG
 40
0.0
  9
$TDUSRTIMER
 40
0.0
  9
$USRTIMER
 70
1
  9
$ANGBASE
 50
0.0
  9
$ANGDIR
 70
0
  9
$PDMODE
 70
0
  9
$PDSIZE
 40
0.0
  9
$PLINEWID
 40
0.0
  9
$SPLFRAME
 70
0
  9
$SPLINETYPE
 70
6
  9
$SPLINESEGS
 70
8
  9
$HANDSEED
  5
370
  9
$SURFTAB1
 70
6
  9
$SURFTAB2
 70
6
  9
$SURFTYPE
 70
6
  9
$SURFU
 70
6
  9
$SURFV
 70
6
  9
$UCSNAME
  2

  9
$UCSORG
 10
0.0
 20
0.0
 30
0.0
  9
$UCSXDIR
 10
1.0
 20
0.0
 30
0.0
  9
$UCSYDIR
 10
0.0
 20
1.0
 30
0.0
  9
$PUCSNAME
  2

  9
$PUCSORG
 10
0.0
 20
0.0
 30
0.0
  9
$PUCSXDIR
 10
1.0
 20
0.0
 30
0.0
  9
$PUCSYDIR
 10
0.0
 20
1.0
 30
0.0
  9
$USERI1
 70
0
  9
$USERI2
 70
0
  9
$USERI3
 70
0
  9
$USERI4
 70
0
  9
$USERI5
 70
0
  9
$USERR1
 40
0.0
  9
$USERR2
 40
0.0
  9
$USERR3
 40
0.0
  9
$USERR4
 40
0.0
  9
$USERR5
 40
0.0
  9
$WORLDVIEW
 70
1
  9
$SHADEDGE
 70
3
  9
$SHADEDIF
 70
70
  9
$TILEMODE
 70
1
  9
$MAXACTVP
 70
64
  9
$PLIMCHECK
 70
0
  9
$PEXTMIN
 10
1e+20
 20
1e+20
 30
1e+20
  9
$PEXTMAX
 10
-1e+20
 20
-1e+20
 30
-1e+20
  9
$PLIMMIN
 10
0.0
 20
0.0
  9
$PLIMMAX
 10
420.0
 20
297.0
  9
$UNITMODE
 70
0
  9
$VISRETAIN
 70
1
  9
$PLINEGEN
 70
0
  9
$PSLTSCALE
 70
1
  0
ENDSEC
  0
SECTION
  2
TABLES
  0
TABLE
  2
VPORT
 70
1
  0
VPORT
  5
363
  2
*Active
 70
0
 10
0.0
 20
0.0
 11
1.0
 21
1.0
 12
0.0
 22
0.0
 13
0.0
 23
0.0
 14
0.5
 24
0.5
 15
0.5
 25
0.5
 16
0.0
 26
0.0
 36
1.0
 17
0.0
 27
0.0
 37
0.0
 40
1000.0
 41
1.34
 42
50.0
 43
0.0
 44
0.0
 50
0.0
 51
0.0
 71
0
 72
1000
 73
1
 74
3
 75
0
 76
0
 77
0
 78
0
  0
ENDTAB
  0
TABLE
  2
LTYPE
 70
3
  0
LTYPE
  5
364
  2
ByBlock
 70
0
  3

 72
65
 73
0
 40
0.0
  0
LTYPE
  5
365
  2
ByLayer
 70
0
  3

 72
65
 73
0
 40
0.0
  0
LTYPE
  5
366
  2
Continuous
 70
0
  3

 72
65
 73
0
 40
0.0
  0
ENDTAB
  0
TABLE
  2
LAYER
 70
2
  0
LAYER
  5
367
  2
0
 70
0
 62
7
  6
Continuous
  0
LAYER
  5
368
  2
Defpoints
 70
0
 62
7
  6
Continuous
  0
ENDTAB
  0
TABLE
  2
STYLE
 70
1
  0
STYLE
  5
369
  2
Standard
 70
0
 40
0.0
 41
1.0
 50
0.0
 71
0
 42
2.5
  3
txt
  4

  0
ENDTAB
  0
TABLE
  2
VIEW
 70
0
  0
ENDTAB
  0
TABLE
  2
UCS
 70
0
  0
ENDTAB
  0
TABLE
  2
APPID
 70
3
  0
APPID
  5
36A
  2
ACAD
 70
0
  0
APPID
  5
36E
  2
HATCHBACKGROUNDCOLOR
 70
0
  0
APPID
  5
36F
  2
EZDXF
 70
0
  0
ENDTAB
  0
TABLE
  2
DIMSTYLE
 70
1
  0
DIMSTYLE
105
36B
  2
Standard
 70
0
  3

  4

  5

  6

  7

 40
1.0
 41
2.5
 42
0.625
 43
3.75
 44
1.25
 45
0.0
 46
0.0
 47
0.0
 48
0.0
140
2.5
141
2.5
142
0.0
143
0.03937007874
144
1.0
145
0.0
146
1.0
147
0.625
 71
0
 72
0
 73
0
 74
0
 75
0
 76
0
 77
1
 78
8
170
0
171
3
172
1
173
0
174
0
175
0
176
0
177
0
178
0
  0
ENDTAB
  0
ENDSEC
  0
SECTION
  2
BLOCKS
  0
BLOCK
  5
344
  8
0
  2
$Model_Space
 70
0
 10
0.0
 20
0.0
 30
0.0
  3
$Model_Space
  1

1001
EZDXF
1000
WRITTEN_BY_EZDXF
1000
1.0.1 @ 2023-02-08T07:33:19.435503+00:00
  0
ENDBLK
  5
345
  8
0
  0
BLOCK
  5
346
  8
0
  2
$Paper_Space
 70
0
 10
0.0
 20
0.0
 30
0.0
  3
$Paper_Space
  1

  0
ENDBLK
  5
347
  8
0
  0
ENDSEC
  0
SECTION
  2
ENTITIES
  0
LINE
  5
100
  8
0
 10
83.4957
 20
-65.9489
 30
0.0
 11
84.7764
 21
-63.7824
 31
0.0
  0
LINE
  5
101
  8
0
 10
84.7764
 20
-63.7824
 30
0.0
 11
85.7354
 21
-61.8281
 31
0.0
  0
LINE
  5
102
  8
0
 10
85.7354
 20
-61.8281
 30
0.0
 11
86.4145
 21
-60.1211
 31
0.0
  0
LINE
  5
103
  8
0
 10
86.4145
 20
-60.1211
 30
0.0
 11
86.8585
 21
-58.6913
 31
0.0
  0
LINE
  5
104
  8
0
 10
86.8585
 20
-58.6913
 30
0.0
 11
86.8557
 21
-58.6089
 31
0.0
  0
LINE
  5
105
  8
0
 10
86.8557
 20
-58.6089
 30
0.0
 11
89.6676
 21
-58.4451
 31
0.0
  0
LINE
  5
106
  8
0
 10
89.6676
 20
-58.4451
 30
0.0
 11
89.6743
 21
-58.5273
 31
0.0
  0
LINE
  5
107
  8
0
 10
89.6743
 20
-58.5273
 30
0.0
 11
90.2814
 21
-59.8959
 31
0.0
  0
LINE
  5
108
  8
0
 10
90.2814
 20
-59.8959
 30
0.0
 11
91.154
 21
-61.5125
 31
0.0
  0
LINE
  5
109
  8
0
 10
91.154
 20
-61.5125
 30
0.0
 11
92.3334
 21
-63.3422
 31
0.0
  0
LINE
  5
10A
  8
0
 10
92.3334
 20
-63.3422
 30
0.0
 11
93.8569
 21
-65.3455
 31
0.0
  0
LINE
  5
10B
  8
0
 10
93.8569
 20
-65.3455
 30
0.0
 11
95.7574
 21
-67.4782
 31
0.0
  0
LINE
  5
10C
  8
0
 10
95.7574
 20
-67.4782
 30
0.0
 11
97.6847
 21
-67.1384
 31
0.0
  0
LINE
  5
10D
  8
0
 10
97.6847
 20
-67.1384
 30
0.0
 11
98.7412
 21
-64.4842
 31
0.0
  0
LINE
  5
10E
  8
0
 10
98.7412
 20
-64.4842
 30
0.0
 11
99.4877
 21
-62.0807
 31
0.0
  0
LINE
  5
10F
  8
0
 10
99.4877
 20
-62.0807
 30
0.0
 11
99.9702
 21
-59.9579
 31
0.0
  0
LINE
  5
110
  8
0
 10
99.9702
 20
-59.9579
 30
0.0
 11
100.237
 21
-58.1404
 31
0.0
  0
LINE
  5
111
  8
0
 10
100.237
 20
-58.1404
 30
0.0
 11
100.34
 21
-56.6467
 31
0.0
  0
LINE
  5
112
  8
0
 10
100.34
 20
-56.6467
 30
0.0
 11
100.318
 21
-56.5672
 31
0.0
  0
LINE
  5
113
  8
0
 10
100.318
 20
-56.5672
 30
0.0
 11
103.016
 21
-55.7594
 31
0.0
  0
LINE
  5
114
  8
0
 10
103.016
 20
-55.7594
 30
0.0
 11
103.042
 21
-55.8378
 31
0.0
  0
LINE
  5
115
  8
0
 10
103.042
 20
-55.8378
 30
0.0
 11
103.948
 21
-57.0295
 31
0.0
  0
LINE
  5
116
  8
0
 10
103.948
 20
-57.0295
 30
0.0
 11
105.17
 21
-58.4013
 31
0.0
  0
LINE
  5
117
  8
0
 10
105.17
 20
-58.4013
 30
0.0
 11
106.739
 21
-59.9097
 31
0.0
  0
LINE
  5
118
  8
0
 10
106.739
 20
-59.9097
 30
0.0
 11
108.684
 21
-61.5076
 31
0.0
  0
LINE
  5
119
  8
0
 10
108.684
 20
-61.5076
 30
0.0
 11
111.025
 21
-63.1446
 31
0.0
  0
LINE
  5
11A
  8
0
 10
111.025
 20
-63.1446
 30
0.0
 11
112.822
 21
-62.3694
 31
0.0
  0
LINE
  5
11B
  8
0
 10
112.822
 20
-62.3694
 30
0.0
 11
113.238
 21
-59.5432
 31
0.0
  0
LINE
  5
11C
  8
0
 10
113.238
 20
-59.5432
 30
0.0
 11
113.41
 21
-57.0323
 31
0.0
  0
LINE
  5
11D
  8
0
 10
113.41
 20
-57.0323
 30
0.0
 11
113.39
 21
-54.8555
 31
0.0
  0
LINE
  5
11E
  8
0
 10
113.39
 20
-54.8555
 30
0.0
 11
113.231
 21
-53.0253
 31
0.0
  0
LINE
  5
11F
  8
0
 10
113.231
 20
-53.0253
 30
0.0
 11
112.986
 21
-51.5483
 31
0.0
  0
LINE
  5
120
  8
0
 10
112.986
 20
-51.5483
 30
0.0
 11
112.946
 21
-51.4759
 31
0.0
  0
LINE
  5
121
  8
0
 10
112.946
 20
-51.4759
 30
0.0
 11
115.386
 21
-50.0676
 31
0.0
  0
LINE
  5
122
  8
0
 10
115.386
 20
-50.0676
 30
0.0
 11
115.428
 21
-50.138
 31
0.0
  0
LINE
  5
123
  8
0
 10
115.428
 20
-50.138
 30
0.0
 11
116.585
 21
-51.0886
 31
0.0
  0
LINE
  5
124
  8
0
 10
116.585
 20
-51.0886
 30
0.0
 11
118.09
 21
-52.1416
 31
0.0
  0
LINE
  5
125
  8
0
 10
118.09
 20
-52.1416
 30
0.0
 11
119.966
 21
-53.2474
 31
0.0
  0
LINE
  5
126
  8
0
 10
119.966
 20
-53.2474
 30
0.0
 11
122.226
 21
-54.3538
 31
0.0
  0
LINE
  5
127
  8
0
 10
122.226
 20
-54.3538
 30
0.0
 11
124.882
 21
-55.4068
 31
0.0
  0
LINE
  5
128
  8
0
 10
124.882
 20
-55.4068
 30
0.0
 11
126.451
 21
-54.2381
 31
0.0
  0
LINE
  5
129
  8
0
 10
126.451
 20
-54.2381
 30
0.0
 11
126.204
 21
-51.3922
 31
0.0
  0
LINE
  5
12A
  8
0
 10
126.204
 20
-51.3922
 30
0.0
 11
125.793
 21
-48.9092
 31
0.0
  0
LINE
  5
12B
  8
0
 10
125.793
 20
-48.9092
 30
0.0
 11
125.271
 21
-46.7957
 31
0.0
  0
LINE
  5
12C
  8
0
 10
125.271
 20
-46.7957
 30
0.0
 11
124.694
 21
-45.0516
 31
0.0
  0
LINE
  5
12D
  8
0
 10
124.694
 20
-45.0516
 30
0.0
 11
124.115
 21
-43.6709
 31
0.0
  0
LINE
  5
12E
  8
0
 10
124.115
 20
-43.6709
 30
0.0
 11
124.06
 21
-43.6096
 31
0.0
  0
LINE
  5
12F
  8
0
 10
124.06
 20
-43.6096
 30
0.0
 11
126.109
 21
-41.6767
 31
0.0
  0
LINE
  5
130
  8
0
 10
126.109
 20
-41.6767
 30
0.0
 11
126.167
 21
-41.7353
 31
0.0
  0
LINE
  5
131
  8
0
 10
126.167
 20
-41.7353
 30
0.0
 11
127.512
 21
-42.3935
 31
0.0
  0
LINE
  5
132
  8
0
 10
127.512
 20
-42.3935
 30
0.0
 11
129.219
 21
-43.071
 31
0.0
  0
LINE
  5
133
  8
0
 10
129.219
 20
-43.071
 30
0.0
 11
131.299
 21
-43.7145
 31
0.0
  0
LINE
  5
134
  8
0
 10
131.299
 20
-43.7145
 30
0.0
 11
133.754
 21
-44.2698
 31
0.0
  0
LINE
  5
135
  8
0
 10
133.754
 20
-44.2698
 30
0.0
 11
136.58
 21
-44.682
 31
0.0
  0
LINE
  5
136
  8
0
 10
136.58
 20
-44.682
 30
0.0
 11
137.838
 21
-43.1828
 31
0.0
  0
LINE
  5
137
  8
0
 10
137.838
 20
-43.1828
 30
0.0
 11
136.942
 21
-40.4705
 31
0.0
  0
LINE
  5
138
  8
0
 10
136.942
 20
-40.4705
 30
0.0
 11
135.968
 21
-38.1495
 31
0.0
  0
LINE
  5
139
  8
0
 10
135.968
 20
-38.1495
 30
0.0
 11
134.974
 21
-36.2132
 31
0.0
  0
LINE
  5
13A
  8
0
 10
134.974
 20
-36.2132
 30
0.0
 11
134.01
 21
-34.6492
 31
0.0
  0
LINE
  5
13B
  8
0
 10
134.01
 20
-34.6492
 30
0.0
 11
133.128
 21
-33.4392
 31
0.0
  0
LINE
  5
13C
  8
0
 10
133.128
 20
-33.4392
 30
0.0
 11
133.06
 21
-33.3923
 31
0.0
  0
LINE
  5
13D
  8
0
 10
133.06
 20
-33.3923
 30
0.0
 11
134.608
 21
-31.039
 31
0.0
  0
LINE
  5
13E
  8
0
 10
134.608
 20
-31.039
 30
0.0
 11
134.678
 21
-31.0826
 31
0.0
  0
LINE
  5
13F
  8
0
 10
134.678
 20
-31.0826
 30
0.0
 11
136.138
 21
-31.413
 31
0.0
  0
LINE
  5
140
  8
0
 10
136.138
 20
-31.413
 30
0.0
 11
137.956
 21
-31.6784
 31
0.0
  0
LINE
  5
141
  8
0
 10
137.956
 20
-31.6784
 30
0.0
 11
140.128
 21
-31.825
 31
0.0
  0
LINE
  5
142
  8
0
 10
140.128
 20
-31.825
 30
0.0
 11
142.645
 21
-31.7992
 31
0.0
  0
LINE
  5
143
  8
0
 10
142.645
 20
-31.7992
 30
0.0
 11
145.49
 21
-31.5483
 31
0.0
  0
LINE
  5
144
  8
0
 10
145.49
 20
-31.5483
 30
0.0
 11
146.369
 21
-29.7995
 31
0.0
  0
LINE
  5
145
  8
0
 10
146.369
 20
-29.7995
 30
0.0
 11
144.871
 21
-27.3671
 31
0.0
  0
LINE
  5
146
  8
0
 10
144.871
 20
-27.3671
 30
0.0
 11
143.389
 21
-25.3331
 31
0.0
  0
LINE
  5
147
  8
0
 10
143.389
 20
-25.3331
 30
0.0
 11
141.974
 21
-23.6784
 31
0.0
  0
LINE
  5
148
  8
0
 10
141.974
 20
-23.6784
 30
0.0
 11
140.676
 21
-22.3788
 31
0.0
  0
LINE
  5
149
  8
0
 10
140.676
 20
-22.3788
 30
0.0
 11
139.539
 21
-21.4048
 31
0.0
  0
LINE
  5
14A
  8
0
 10
139.539
 20
-21.4048
 30
0.0
 11
139.462
 21
-21.3747
 31
0.0
  0
LINE
  5
14B
  8
0
 10
139.462
 20
-21.3747
 30
0.0
 11
140.425
 21
-18.7279
 31
0.0
  0
LINE
  5
14C
  8
0
 10
140.425
 20
-18.7279
 30
0.0
 11
140.503
 21
-18.7543
 31
0.0
  0
LINE
  5
14D
  8
0
 10
140.503
 20
-18.7543
 30
0.0
 11
142.0
 21
-18.739
 31
0.0
  0
LINE
  5
14E
  8
0
 10
142.0
 20
-18.739
 30
0.0
 11
143.83
 21
-18.578
 31
0.0
  0
LINE
  5
14F
  8
0
 10
143.83
 20
-18.578
 30
0.0
 11
145.978
 21
-18.2198
 31
0.0
  0
LINE
  5
150
  8
0
 10
145.978
 20
-18.2198
 30
0.0
 11
148.42
 21
-17.6143
 31
0.0
  0
LINE
  5
151
  8
0
 10
148.42
 20
-17.6143
 30
0.0
 11
151.132
 21
-16.7139
 31
0.0
  0
LINE
  5
152
  8
0
 10
151.132
 20
-16.7139
 30
0.0
 11
151.583
 21
-14.8097
 31
0.0
  0
LINE
  5
153
  8
0
 10
151.583
 20
-14.8097
 30
0.0
 11
149.564
 21
-12.7884
 31
0.0
  0
LINE
  5
154
  8
0
 10
149.564
 20
-12.7884
 30
0.0
 11
147.653
 21
-11.1509
 31
0.0
  0
LINE
  5
155
  8
0
 10
147.653
 20
-11.1509
 30
0.0
 11
145.895
 21
-9.86713
 31
0.0
  0
LINE
  5
156
  8
0
 10
145.895
 20
-9.86713
 30
0.0
 11
144.332
 21
-8.90198
 31
0.0
  0
LINE
  5
157
  8
0
 10
144.332
 20
-8.90198
 30
0.0
 11
143.001
 21
-8.21642
 31
0.0
  0
LINE
  5
158
  8
0
 10
143.001
 20
-8.21642
 30
0.0
 11
142.919
 21
-8.2049
 31
0.0
  0
LINE
  5
159
  8
0
 10
142.919
 20
-8.2049
 30
0.0
 11
143.246
 21
-5.40727
 31
0.0
  0
LINE
  5
15A
  8
0
 10
143.246
 20
-5.40727
 30
0.0
 11
143.328
 21
-5.41487
 31
0.0
  0
LINE
  5
15B
  8
0
 10
143.328
 20
-5.41487
 30
0.0
 11
144.781
 21
-5.05473
 31
0.0
  0
LINE
  5
15C
  8
0
 10
144.781
 20
-5.05473
 30
0.0
 11
146.525
 21
-4.47609
 31
0.0
  0
LINE
  5
15D
  8
0
 10
146.525
 20
-4.47609
 30
0.0
 11
148.532
 21
-3.63231
 31
0.0
  0
LINE
  5
15E
  8
0
 10
148.532
 20
-3.63231
 30
0.0
 11
150.769
 21
-2.47978
 31
0.0
  0
LINE
  5
15F
  8
0
 10
150.769
 20
-2.47978
 30
0.0
 11
153.199
 21
-0.9785
 31
0.0
  0
LINE
  5
160
  8
0
 10
153.199
 20
-0.9785
 30
0.0
 11
153.199
 21
0.978516
 31
0.0
  0
LINE
  5
161
  8
0
 10
153.199
 20
0.978516
 30
0.0
 11
150.769
 21
2.4798
 31
0.0
  0
LINE
  5
162
  8
0
 10
150.769
 20
2.4798
 30
0.0
 11
148.532
 21
3.63232
 31
0.0
  0
LINE
  5
163
  8
0
 10
148.532
 20
3.63232
 30
0.0
 11
146.525
 21
4.4761
 31
0.0
  0
LINE
  5
164
  8
0
 10
146.525
 20
4.4761
 30
0.0
 11
144.781
 21
5.05473
 31
0.0
  0
LINE
  5
165
  8
0
 10
144.781
 20
5.05473
 30
0.0
 11
143.328
 21
5.41489
 31
0.0
  0
LINE
  5
166
  8
0
 10
143.328
 20
5.41489
 30
0.0
 11
143.246
 21
5.40729
 31
0.0
  0
LINE
  5
167
  8
0
 10
143.246
 20
5.40729
 30
0.0
 11
142.919
 21
8.20488
 31
0.0
  0
LINE
  5
168
  8
0
 10
142.919
 20
8.20488
 30
0.0
 11
143.001
 21
8.21642
 31
0.0
  0
LINE
  5
169
  8
0
 10
143.001
 20
8.21642
 30
0.0
 11
144.332
 21
8.90199
 31
0.0
  0
LINE
  5
16A
  8
0
 10
144.332
 20
8.90199
 30
0.0
 11
145.895
 21
9.86713
 31
0.0
  0
LINE
  5
16B
  8
0
 10
145.895
 20
9.86713
 30
0.0
 11
147.653
 21
11.1509
 31
0.0
  0
LINE
  5
16C
  8
0
 10
147.653
 20
11.1509
 30
0.0
 11
149.564
 21
12.7884
 31
0.0
  0
LINE
  5
16D
  8
0
 10
149.564
 20
12.7884
 30
0.0
 11
151.583
 21
14.8097
 31
0.0
  0
LINE
  5
16E
  8
0
 10
151.583
 20
14.8097
 30
0.0
 11
151.132
 21
16.714
 31
0.0
  0
LINE
  5
16F
  8
0
 10
151.132
 20
16.714
 30
0.0
 11
148.42
 21
17.6143
 31
0.0
  0
LINE
  5
170
  8
0
 10
148.42
 20
17.6143
 30
0.0
 11
145.978
 21
18.2198
 31
0.0
  0
LINE
  5
171
  8
0
 10
145.978
 20
18.2198
 30
0.0
 11
143.83
 21
18.578
 31
0.0
  0
LINE
  5
172
  8
0
 10
143.83
 20
18.578
 30
0.0
 11
142.0
 21
18.739
 31
0.0
  0
LINE
  5
173
  8
0
 10
142.0
 20
18.739
 30
0.0
 11
140.503
 21
18.7543
 31
0.0
  0
LINE
  5
174
  8
0
 10
140.503
 20
18.7543
 30
0.0
 11
140.425
 21
18.728
 31
0.0
  0
LINE
  5
175
  8
0
 10
140.425
 20
18.728
 30
0.0
 11
139.462
 21
21.3747
 31
0.0
  0
LINE
  5
176
  8
0
 10
139.462
 20
21.3747
 30
0.0
 11
139.539
 21
21.4048
 31
0.0
  0
LINE
  5
177
  8
0
 10
139.539
 20
21.4048
 30
0.0
 11
140.676
 21
22.3788
 31
0.0
  0
LINE
  5
178
  8
0
 10
140.676
 20
22.3788
 30
0.0
 11
141.974
 21
23.6784
 31
0.0
  0
LINE
  5
179
  8
0
 10
141.974
 20
23.6784
 30
0.0
 11
143.389
 21
25.3331
 31
0.0
  0
LINE
  5
17A
  8
0
 10
143.389
 20
25.3331
 30
0.0
 11
144.871
 21
27.3671
 31
0.0
  0
LINE
  5
17B
  8
0
 10
144.871
 20
27.3671
 30
0.0
 11
146.369
 21
29.7995
 31
0.0
  0
LINE
  5
17C
  8
0
 10
146.369
 20
29.7995
 30
0.0
 11
145.49
 21
31.5483
 31
0.0
  0
LINE
  5
17D
  8
0
 10
145.49
 20
31.5483
 30
0.0
 11
142.645
 21
31.7992
 31
0.0
  0
LINE
  5
17E
  8
0
 10
142.645
 20
31.7992
 30
0.0
 11
140.128
 21
31.825
 31
0.0
  0
LINE
  5
17F
  8
0
 10
140.128
 20
31.825
 30
0.0
 11
137.956
 21
31.6784
 31
0.0
  0
LINE
  5
180
  8
0
 10
137.956
 20
31.6784
 30
0.0
 11
136.138
 21
31.413
 31
0.0
  0
LINE
  5
181
  8
0
 10
136.138
 20
31.413
 30
0.0
 11
134.678
 21
31.0826
 31
0.0
  0
LINE
  5
182
  8
0
 10
134.678
 20
31.0826
 30
0.0
 11
134.608
 21
31.039
 31
0.0
  0
LINE
  5
183
  8
0
 10
134.608
 20
31.039
 30
0.0
 11
133.06
 21
33.3923
 31
0.0
  0
LINE
  5
184
  8
0
 10
133.06
 20
33.3923
 30
0.0
 11
133.128
 21
33.4392
 31
0.0
  0
LINE
  5
185
  8
0
 10
133.128
 20
33.4392
 30
0.0
 11
134.01
 21
34.6492
 31
0.0
  0
LINE
  5
186
  8
0
 10
134.01
 20
34.6492
 30
0.0
 11
134.974
 21
36.2132
 31
0.0
  0
LINE
  5
187
  8
0
 10
134.974
 20
36.2132
 30
0.0
 11
135.968
 21
38.1495
 31
0.0
  0
LINE
  5
188
  8
0
 10
135.968
 20
38.1495
 30
0.0
 11
136.942
 21
40.4705
 31
0.0
  0
LINE
  5
189
  8
0
 10
136.942
 20
40.4705
 30
0.0
 11
137.838
 21
43.1828
 31
0.0
  0
LINE
  5
18A
  8
0
 10
137.838
 20
43.1828
 30
0.0
 11
136.58
 21
44.6819
 31
0.0
  0
LINE
  5
18B
  8
0
 10
136.58
 20
44.6819
 30
0.0
 11
133.754
 21
44.2698
 31
0.0
  0
LINE
  5
18C
  8
0
 10
133.754
 20
44.2698
 30
0.0
 11
131.299
 21
43.7145
 31
0.0
  0
LINE
  5
18D
  8
0
 10
131.299
 20
43.7145
 30
0.0
 11
129.219
 21
43.071
 31
0.0
  0
LINE
  5
18E
  8
0
 10
129.219
 20
43.071
 30
0.0
 11
127.512
 21
42.3935
 31
0.0
  0
LINE
  5
18F
  8
0
 10
127.512
 20
42.3935
 30
0.0
 11
126.167
 21
41.7353
 31
0.0
  0
LINE
  5
190
  8
0
 10
126.167
 20
41.7353
 30
0.0
 11
126.109
 21
41.6767
 31
0.0
  0
LINE
  5
191
  8
0
 10
126.109
 20
41.6767
 30
0.0
 11
124.06
 21
43.6096
 31
0.0
  0
LINE
  5
192
  8
0
 10
124.06
 20
43.6096
 30
0.0
 11
124.115
 21
43.6709
 31
0.0
  0
LINE
  5
193
  8
0
 10
124.115
 20
43.6709
 30
0.0
 11
124.694
 21
45.0516
 31
0.0
  0
LINE
  5
194
  8
0
 10
124.694
 20
45.0516
 30
0.0
 11
125.271
 21
46.7957
 31
0.0
  0
LINE
  5
195
  8
0
 10
125.271
 20
46.7957
 30
0.0
 11
125.793
 21
48.9092
 31
0.0
  0
LINE
  5
196
  8
0
 10
125.793
 20
48.9092
 30
0.0
 11
126.204
 21
51.3921
 31
0.0
  0
LINE
  5
197
  8
0
 10
126.204
 20
51.3921
 30
0.0
 11
126.451
 21
54.2381
 31
0.0
  0
LINE
  5
198
  8
0
 10
126.451
 20
54.2381
 30
0.0
 11
124.882
 21
55.4068
 31
0.0
  0
LINE
  5
199
  8
0
 10
124.882
 20
55.4068
 30
0.0
 11
122.226
 21
54.3538
 31
0.0
  0
LINE
  5
19A
  8
0
 10
122.226
 20
54.3538
 30
0.0
 11
119.966
 21
53.2474
 31
0.0
  0
LINE
  5
19B
  8
0
 10
119.966
 20
53.2474
 30
0.0
 11
118.09
 21
52.1416
 31
0.0
  0
LINE
  5
19C
  8
0
 10
118.09
 20
52.1416
 30
0.0
 11
116.585
 21
51.0886
 31
0.0
  0
LINE
  5
19D
  8
0
 10
116.585
 20
51.0886
 30
0.0
 11
115.428
 21
50.138
 31
0.0
  0
LINE
  5
19E
  8
0
 10
115.428
 20
50.138
 30
0.0
 11
115.386
 21
50.0676
 31
0.0
  0
LINE
  5
19F
  8
0
 10
115.386
 20
50.0676
 30
0.0
 11
112.946
 21
51.4759
 31
0.0
  0
LINE
  5
1A0
  8
0
 10
112.946
 20
51.4759
 30
0.0
 11
112.986
 21
51.5483
 31
0.0
  0
LINE
  5
1A1
  8
0
 10
112.986
 20
51.5483
 30
0.0
 11
113.231
 21
53.0253
 31
0.0
  0
LINE
  5
1A2
  8
0
 10
113.231
 20
53.0253
 30
0.0
 11
113.39
 21
54.8555
 31
0.0
  0
LINE
  5
1A3
  8
0
 10
113.39
 20
54.8555
 30
0.0
 11
113.41
 21
57.0323
 31
0.0
  0
LINE
  5
1A4
  8
0
 10
113.41
 20
57.0323
 30
0.0
 11
113.238
 21
59.5432
 31
0.0
  0
LINE
  5
1A5
  8
0
 10
113.238
 20
59.5432
 30
0.0
 11
112.822
 21
62.3694
 31
0.0
  0
LINE
  5
1A6
  8
0
 10
112.822
 20
62.3694
 30
0.0
 11
111.025
 21
63.1445
 31
0.0
  0
LINE
  5
1A7
  8
0
 10
111.025
 20
63.1445
 30
0.0
 11
108.684
 21
61.5076
 31
0.0
  0
LINE
  5
1A8
  8
0
 10
108.684
 20
61.5076
 30
0.0
 11
106.739
 21
59.9097
 31
0.0
  0
LINE
  5
1A9
  8
0
 10
106.739
 20
59.9097
 30
0.0
 11
105.17
 21
58.4013
 31
0.0
  0
LINE
  5
1AA
  8
0
 10
105.17
 20
58.4013
 30
0.0
 11
103.948
 21
57.0295
 31
0.0
  0
LINE
  5
1AB
  8
0
 10
103.948
 20
57.0295
 30
0.0
 11
103.042
 21
55.8378
 31
0.0
  0
LINE
  5
1AC
  8
0
 10
103.042
 20
55.8378
 30
0.0
 11
103.016
 21
55.7594
 31
0.0
  0
LINE
  5
1AD
  8
0
 10
103.016
 20
55.7594
 30
0.0
 11
100.318
 21
56.5672
 31
0.0
  0
LINE
  5
1AE
  8
0
 10
100.318
 20
56.5672
 30
0.0
 11
100.34
 21
56.6467
 31
0.0
  0
LINE
  5
1AF
  8
0
 10
100.34
 20
56.6467
 30
0.0
 11
100.237
 21
58.1404
 31
0.0
  0
LINE
  5
1B0
  8
0
 10
100.237
 20
58.1404
 30
0.0
 11
99.9702
 21
59.9579
 31
0.0
  0
LINE
  5
1B1
  8
0
 10
99.9702
 20
59.9579
 30
0.0
 11
99.4877
 21
62.0807
 31
0.0
  0
LINE
  5
1B2
  8
0
 10
99.4877
 20
62.0807
 30
0.0
 11
98.7412
 21
64.4843
 31
0.0
  0
LINE
  5
1B3
  8
0
 10
98.7412
 20
64.4843
 30
0.0
 11
97.6847
 21
67.1384
 31
0.0
  0
LINE
  5
1B4
  8
0
 10
97.6847
 20
67.1384
 30
0.0
 11
95.7574
 21
67.4782
 31
0.0
  0
LINE
  5
1B5
  8
0
 10
95.7574
 20
67.4782
 30
0.0
 11
93.8569
 21
65.3455
 31
0.0
  0
LINE
  5
1B6
  8
0
 10
93.8569
 20
65.3455
 30
0.0
 11
92.3334
 21
63.3422
 31
0.0
  0
LINE
  5
1B7
  8
0
 10
92.3334
 20
63.3422
 30
0.0
 11
91.154
 21
61.5125
 31
0.0
  0
LINE
  5
1B8
  8
0
 10
91.154
 20
61.5125
 30
0.0
 11
90.2813
 21
59.8959
 31
0.0
  0
LINE
  5
1B9
  8
0
 10
90.2813
 20
59.8959
 30
0.0
 11
89.6743
 21
58.5273
 31
0.0
  0
LINE
  5
1BA
  8
0
 10
89.6743
 20
58.5273
 30
0.0
 11
89.6676
 21
58.4451
 31
0.0
  0
LINE
  5
1BB
  8
0
 10
89.6676
 20
58.4451
 30
0.0
 11
86.8557
 21
58.6089
 31
0.0
  0
LINE
  5
1BC
  8
0
 10
86.8557
 20
58.6089
 30
0.0
 11
86.8585
 21
58.6913
 31
0.0
  0
LINE
  5
1BD
  8
0
 10
86.8585
 20
58.6913
 30
0.0
 11
86.4145
 21
60.1211
 31
0.0
  0
LINE
  5
1BE
  8
0
 10
86.4145
 20
60.1211
 30
0.0
 11
85.7354
 21
61.8281
 31
0.0
  0
LINE
  5
1BF
  8
0
 10
85.7354
 20
61.8281
 30
0.0
 11
84.7764
 21
63.7824
 31
0.0
  0
LINE
  5
1C0
  8
0
 10
84.7764
 20
63.7824
 30
0.0
 11
83.4957
 21
65.9489
 31
0.0
  0
LINE
  5
1C1
  8
0
 10
83.4957
 20
65.9489
 30
0.0
 11
81.8557
 21
68.2879
 31
0.0
  0
LINE
  5
1C2
  8
0
 10
81.8557
 20
68.2879
 30
0.0
 11
79.9019
 21
68.1741
 31
0.0
  0
LINE
  5
1C3
  8
0
 10
79.9019
 20
68.1741
 30
0.0
 11
78.5445
 21
65.6606
 31
0.0
  0
LINE
  5
1C4
  8
0
 10
78.5445
 20
65.6606
 30
0.0
 11
77.524
 21
63.36
 31
0.0
  0
LINE
  5
1C5
  8
0
 10
77.524
 20
63.36
 30
0.0
 11
76.7984
 21
61.3075
 31
0.0
  0
LINE
  5
1C6
  8
0
 10
76.7984
 20
61.3075
 30
0.0
 11
76.3221
 21
59.5333
 31
0.0
  0
LINE
  5
1C7
  8
0
 10
76.3221
 20
59.5333
 30
0.0
 11
76.047
 21
58.0616
 31
0.0
  0
LINE
  5
1C8
  8
0
 10
76.047
 20
58.0616
 30
0.0
 11
76.0594
 21
57.9801
 31
0.0
  0
LINE
  5
1C9
  8
0
 10
76.0594
 20
57.9801
 30
0.0
 11
73.2855
 21
57.491
 31
0.0
  0
LINE
  5
1CA
  8
0
 10
73.2855
 20
57.491
 30
0.0
 11
73.2693
 21
57.5718
 31
0.0
  0
LINE
  5
1CB
  8
0
 10
73.2693
 20
57.5718
 30
0.0
 11
72.5075
 21
58.8607
 31
0.0
  0
LINE
  5
1CC
  8
0
 10
72.5075
 20
58.8607
 30
0.0
 11
71.4531
 21
60.365
 31
0.0
  0
LINE
  5
1CD
  8
0
 10
71.4531
 20
60.365
 30
0.0
 11
70.0692
 21
62.0455
 31
0.0
  0
LINE
  5
1CE
  8
0
 10
70.0692
 20
62.0455
 30
0.0
 11
68.3234
 21
63.8583
 31
0.0
  0
LINE
  5
1CF
  8
0
 10
68.3234
 20
63.8583
 30
0.0
 11
66.1882
 21
65.756
 31
0.0
  0
LINE
  5
1D0
  8
0
 10
66.1882
 20
65.756
 30
0.0
 11
64.3134
 21
65.1947
 31
0.0
  0
LINE
  5
1D1
  8
0
 10
64.3134
 20
65.1947
 30
0.0
 11
63.5722
 21
62.4359
 31
0.0
  0
LINE
  5
1D2
  8
0
 10
63.5722
 20
62.4359
 30
0.0
 11
63.1098
 21
59.962
 31
0.0
  0
LINE
  5
1D3
  8
0
 10
63.1098
 20
59.962
 30
0.0
 11
62.877
 21
57.7975
 31
0.0
  0
LINE
  5
1D4
  8
0
 10
62.877
 20
57.7975
 30
0.0
 11
62.8227
 21
55.9613
 31
0.0
  0
LINE
  5
1D5
  8
0
 10
62.8227
 20
55.9613
 30
0.0
 11
62.8945
 21
54.4658
 31
0.0
  0
LINE
  5
1D6
  8
0
 10
62.8945
 20
54.4658
 30
0.0
 11
62.9253
 21
54.3893
 31
0.0
  0
LINE
  5
1D7
  8
0
 10
62.9253
 20
54.3893
 30
0.0
 11
60.339
 21
53.2737
 31
0.0
  0
LINE
  5
1D8
  8
0
 10
60.339
 20
53.2737
 30
0.0
 11
60.3046
 21
53.3486
 31
0.0
  0
LINE
  5
1D9
  8
0
 10
60.3046
 20
53.3486
 30
0.0
 11
59.266
 21
54.4271
 31
0.0
  0
LINE
  5
1DA
  8
0
 10
59.266
 20
54.4271
 30
0.0
 11
57.8932
 21
55.6477
 31
0.0
  0
LINE
  5
1DB
  8
0
 10
57.8932
 20
55.6477
 30
0.0
 11
56.159
 21
56.9637
 31
0.0
  0
LINE
  5
1DC
  8
0
 10
56.159
 20
56.9637
 30
0.0
 11
54.0422
 21
58.3251
 31
0.0
  0
LINE
  5
1DD
  8
0
 10
54.0422
 20
58.3251
 30
0.0
 11
51.5269
 21
59.6792
 31
0.0
  0
LINE
  5
1DE
  8
0
 10
51.5269
 20
59.6792
 30
0.0
 11
49.8321
 21
58.7007
 31
0.0
  0
LINE
  5
1DF
  8
0
 10
49.8321
 20
58.7007
 30
0.0
 11
49.7471
 21
55.8453
 31
0.0
  0
LINE
  5
1E0
  8
0
 10
49.7471
 20
55.8453
 30
0.0
 11
49.8677
 21
53.3314
 31
0.0
  0
LINE
  5
1E1
  8
0
 10
49.8677
 20
53.3314
 30
0.0
 11
50.1403
 21
51.1716
 31
0.0
  0
LINE
  5
1E2
  8
0
 10
50.1403
 20
51.1716
 30
0.0
 11
50.511
 21
49.3723
 31
0.0
  0
LINE
  5
1E3
  8
0
 10
50.511
 20
49.3723
 30
0.0
 11
50.9257
 21
47.9337
 31
0.0
  0
LINE
  5
1E4
  8
0
 10
50.9257
 20
47.9337
 30
0.0
 11
50.9733
 21
47.8664
 31
0.0
  0
LINE
  5
1E5
  8
0
 10
50.9733
 20
47.8664
 30
0.0
 11
48.714
 21
46.1844
 31
0.0
  0
LINE
  5
1E6
  8
0
 10
48.714
 20
46.1844
 30
0.0
 11
48.6632
 21
46.2494
 31
0.0
  0
LINE
  5
1E7
  8
0
 10
48.6632
 20
46.2494
 30
0.0
 11
47.404
 21
47.0593
 31
0.0
  0
LINE
  5
1E8
  8
0
 10
47.404
 20
47.0593
 30
0.0
 11
45.7866
 21
47.9304
 31
0.0
  0
LINE
  5
1E9
  8
0
 10
45.7866
 20
47.9304
 30
0.0
 11
43.7958
 21
48.811
 31
0.0
  0
LINE
  5
1EA
  8
0
 10
43.7958
 20
48.811
 30
0.0
 11
41.422
 21
49.6475
 31
0.0
  0
LINE
  5
1EB
  8
0
 10
41.422
 20
49.6475
 30
0.0
 11
38.6622
 21
50.385
 31
0.0
  0
LINE
  5
1EC
  8
0
 10
38.6622
 20
50.385
 30
0.0
 11
37.2388
 21
49.042
 31
0.0
  0
LINE
  5
1ED
  8
0
 10
37.2388
 20
49.042
 30
0.0
 11
37.8146
 21
46.244
 31
0.0
  0
LINE
  5
1EE
  8
0
 10
37.8146
 20
46.244
 30
0.0
 11
38.5116
 21
43.8257
 31
0.0
  0
LINE
  5
1EF
  8
0
 10
38.5116
 20
43.8257
 30
0.0
 11
39.275
 21
41.787
 31
0.0
  0
LINE
  5
1F0
  8
0
 10
39.275
 20
41.787
 30
0.0
 11
40.0506
 21
40.1217
 31
0.0
  0
LINE
  5
1F1
  8
0
 10
40.0506
 20
40.1217
 30
0.0
 11
40.7859
 21
38.8175
 31
0.0
  0
LINE
  5
1F2
  8
0
 10
40.7859
 20
38.8175
 30
0.0
 11
40.8478
 21
38.763
 31
0.0
  0
LINE
  5
1F3
  8
0
 10
40.8478
 20
38.763
 30
0.0
 11
39.0373
 21
36.6054
 31
0.0
  0
LINE
  5
1F4
  8
0
 10
39.0373
 20
36.6054
 30
0.0
 11
38.9729
 21
36.6568
 31
0.0
  0
LINE
  5
1F5
  8
0
 10
38.9729
 20
36.6568
 30
0.0
 11
37.5608
 21
37.1545
 31
0.0
  0
LINE
  5
1F6
  8
0
 10
37.5608
 20
37.1545
 30
0.0
 11
35.7861
 21
37.6291
 31
0.0
  0
LINE
  5
1F7
  8
0
 10
35.7861
 20
37.6291
 30
0.0
 11
33.6459
 21
38.0269
 31
0.0
  0
LINE
  5
1F8
  8
0
 10
33.6459
 20
38.0269
 30
0.0
 11
31.1432
 21
38.2934
 31
0.0
  0
LINE
  5
1F9
  8
0
 10
31.1432
 20
38.2934
 30
0.0
 11
28.2877
 21
38.3746
 31
0.0
  0
LINE
  5
1FA
  8
0
 10
28.2877
 20
38.3746
 30
0.0
 11
27.2123
 21
36.7395
 31
0.0
  0
LINE
  5
1FB
  8
0
 10
27.2123
 20
36.7395
 30
0.0
 11
28.4179
 21
34.1497
 31
0.0
  0
LINE
  5
1FC
  8
0
 10
28.4179
 20
34.1497
 30
0.0
 11
29.6539
 21
31.9574
 31
0.0
  0
LINE
  5
1FD
  8
0
 10
29.6539
 20
31.9574
 30
0.0
 11
30.8668
 21
30.1497
 31
0.0
  0
LINE
  5
1FE
  8
0
 10
30.8668
 20
30.1497
 30
0.0
 11
32.0056
 21
28.7081
 31
0.0
  0
LINE
  5
1FF
  8
0
 10
32.0056
 20
28.7081
 30
0.0
 11
33.0218
 21
27.6087
 31
0.0
  0
LINE
  5
200
  8
0
 10
33.0218
 20
27.6087
 30
0.0
 11
33.0946
 21
27.5699
 31
0.0
  0
LINE
  5
201
  8
0
 10
33.0946
 20
27.5699
 30
0.0
 11
31.8305
 21
25.0528
 31
0.0
  0
LINE
  5
202
  8
0
 10
31.8305
 20
25.0528
 30
0.0
 11
31.7559
 21
25.0881
 31
0.0
  0
LINE
  5
203
  8
0
 10
31.7559
 20
25.0881
 30
0.0
 11
30.2672
 21
25.2467
 31
0.0
  0
LINE
  5
204
  8
0
 10
30.2672
 20
25.2467
 30
0.0
 11
28.4308
 21
25.2993
 31
0.0
  0
LINE
  5
205
  8
0
 10
28.4308
 20
25.2993
 30
0.0
 11
26.2565
 21
25.1927
 31
0.0
  0
LINE
  5
206
  8
0
 10
26.2565
 20
25.1927
 30
0.0
 11
23.7599
 21
24.8749
 31
0.0
  0
LINE
  5
207
  8
0
 10
23.7599
 20
24.8749
 30
0.0
 11
20.9626
 21
24.2954
 31
0.0
  0
LINE
  5
208
  8
0
 10
20.9626
 20
24.2954
 30
0.0
 11
20.2933
 21
22.4564
 31
0.0
  0
LINE
  5
209
  8
0
 10
20.2933
 20
22.4564
 30
0.0
 11
22.0636
 21
20.2144
 31
0.0
  0
LINE
  5
20A
  8
0
 10
22.0636
 20
20.2144
 30
0.0
 11
23.7719
 21
18.3662
 31
0.0
  0
LINE
  5
20B
  8
0
 10
23.7719
 20
18.3662
 30
0.0
 11
25.369
 21
16.8869
 31
0.0
  0
LINE
  5
20C
  8
0
 10
25.369
 20
16.8869
 30
0.0
 11
26.8095
 21
15.7469
 31
0.0
  0
LINE
  5
20D
  8
0
 10
26.8095
 20
15.7469
 30
0.0
 11
28.0519
 21
14.9114
 31
0.0
  0
LINE
  5
20E
  8
0
 10
28.0519
 20
14.9114
 30
0.0
 11
28.1317
 21
14.8905
 31
0.0
  0
LINE
  5
20F
  8
0
 10
28.1317
 20
14.8905
 30
0.0
 11
27.4821
 21
12.1498
 31
0.0
  0
LINE
  5
210
  8
0
 10
27.4821
 20
12.1498
 30
0.0
 11
27.4014
 21
12.1668
 31
0.0
  0
LINE
  5
211
  8
0
 10
27.4014
 20
12.1668
 30
0.0
 11
25.9162
 21
11.9779
 31
0.0
  0
LINE
  5
212
  8
0
 10
25.9162
 20
11.9779
 30
0.0
 11
24.1173
 21
11.6055
 31
0.0
  0
LINE
  5
213
  8
0
 10
24.1173
 20
11.6055
 30
0.0
 11
22.0262
 21
11.0004
 31
0.0
  0
LINE
  5
214
  8
0
 10
22.0262
 20
11.0004
 30
0.0
 11
19.6701
 21
10.1154
 31
0.0
  0
LINE
  5
215
  8
0
 10
19.6701
 20
10.1154
 30
0.0
 11
17.0819
 21
8.90645
 31
0.0
  0
LINE
  5
216
  8
0
 10
17.0819
 20
8.90645
 30
0.0
 11
16.8547
 21
6.96265
 31
0.0
  0
LINE
  5
217
  8
0
 10
16.8547
 20
6.96265
 30
0.0
 11
19.0943
 21
5.18938
 31
0.0
  0
LINE
  5
218
  8
0
 10
19.0943
 20
5.18938
 30
0.0
 11
21.1828
 21
3.7849
 31
0.0
  0
LINE
  5
219
  8
0
 10
21.1828
 20
3.7849
 30
0.0
 11
23.078
 21
2.71384
 31
0.0
  0
LINE
  5
21A
  8
0
 10
23.078
 20
2.71384
 30
0.0
 11
24.7426
 21
1.93669
 31
0.0
  0
LINE
  5
21B
  8
0
 10
24.7426
 20
1.93669
 30
0.0
 11
26.1442
 21
1.41029
 31
0.0
  0
LINE
  5
21C
  8
0
 10
26.1442
 20
1.41029
 30
0.0
 11
26.2266
 21
1.40831
 31
0.0
  0
LINE
  5
21D
  8
0
 10
26.2266
 20
1.40831
 30
0.0
 11
26.2266
 21
-1.40833
 31
0.0
  0
LINE
  5
21E
  8
0
 10
26.2266
 20
-1.40833
 30
0.0
 11
26.1442
 21
-1.41031
 31
0.0
  0
LINE
  5
21F
  8
0
 10
26.1442
 20
-1.41031
 30
0.0
 11
24.7426
 21
-1.93672
 31
0.0
  0
LINE
  5
220
  8
0
 10
24.7426
 20
-1.93672
 30
0.0
 11
23.078
 21
-2.71387
 31
0.0
  0
LINE
  5
221
  8
0
 10
23.078
 20
-2.71387
 30
0.0
 11
21.1828
 21
-3.78491
 31
0.0
  0
LINE
  5
222
  8
0
 10
21.1828
 20
-3.78491
 30
0.0
 11
19.0943
 21
-5.18939
 31
0.0
  0
LINE
  5
223
  8
0
 10
19.0943
 20
-5.18939
 30
0.0
 11
16.8547
 21
-6.96266
 31
0.0
  0
LINE
  5
224
  8
0
 10
16.8547
 20
-6.96266
 30
0.0
 11
17.0819
 21
-8.90645
 31
0.0
  0
LINE
  5
225
  8
0
 10
17.0819
 20
-8.90645
 30
0.0
 11
19.6701
 21
-10.1154
 31
0.0
  0
LINE
  5
226
  8
0
 10
19.6701
 20
-10.1154
 30
0.0
 11
22.0262
 21
-11.0004
 31
0.0
  0
LINE
  5
227
  8
0
 10
22.0262
 20
-11.0004
 30
0.0
 11
24.1173
 21
-11.6055
 31
0.0
  0
LINE
  5
228
  8
0
 10
24.1173
 20
-11.6055
 30
0.0
 11
25.9162
 21
-11.9779
 31
0.0
  0
LINE
  5
229
  8
0
 10
25.9162
 20
-11.9779
 30
0.0
 11
27.4015
 21
-12.1669
 31
0.0
  0
LINE
  5
22A
  8
0
 10
27.4015
 20
-12.1669
 30
0.0
 11
27.4821
 21
-12.1498
 31
0.0
  0
LINE
  5
22B
  8
0
 10
27.4821
 20
-12.1498
 30
0.0
 11
28.1317
 21
-14.8905
 31
0.0
  0
LINE
  5
22C
  8
0
 10
28.1317
 20
-14.8905
 30
0.0
 11
28.0519
 21
-14.9114
 31
0.0
  0
LINE
  5
22D
  8
0
 10
28.0519
 20
-14.9114
 30
0.0
 11
26.8095
 21
-15.7469
 31
0.0
  0
LINE
  5
22E
  8
0
 10
26.8095
 20
-15.7469
 30
0.0
 11
25.369
 21
-16.8869
 31
0.0
  0
LINE
  5
22F
  8
0
 10
25.369
 20
-16.8869
 30
0.0
 11
23.7719
 21
-18.3662
 31
0.0
  0
LINE
  5
230
  8
0
 10
23.7719
 20
-18.3662
 30
0.0
 11
22.0636
 21
-20.2144
 31
0.0
  0
LINE
  5
231
  8
0
 10
22.0636
 20
-20.2144
 30
0.0
 11
20.2933
 21
-22.4564
 31
0.0
  0
LINE
  5
232
  8
0
 10
20.2933
 20
-22.4564
 30
0.0
 11
20.9626
 21
-24.2954
 31
0.0
  0
LINE
  5
233
  8
0
 10
20.9626
 20
-24.2954
 30
0.0
 11
23.7599
 21
-24.8749
 31
0.0
  0
LINE
  5
234
  8
0
 10
23.7599
 20
-24.8749
 30
0.0
 11
26.2565
 21
-25.1927
 31
0.0
  0
LINE
  5
235
  8
0
 10
26.2565
 20
-25.1927
 30
0.0
 11
28.4309
 21
-25.2993
 31
0.0
  0
LINE
  5
236
  8
0
 10
28.4309
 20
-25.2993
 30
0.0
 11
30.2672
 21
-25.2467
 31
0.0
  0
LINE
  5
237
  8
0
 10
30.2672
 20
-25.2467
 30
0.0
 11
31.7559
 21
-25.0881
 31
0.0
  0
LINE
  5
238
  8
0
 10
31.7559
 20
-25.0881
 30
0.0
 11
31.8305
 21
-25.0529
 31
0.0
  0
LINE
  5
239
  8
0
 10
31.8305
 20
-25.0529
 30
0.0
 11
33.0946
 21
-27.5699
 31
0.0
  0
LINE
  5
23A
  8
0
 10
33.0946
 20
-27.5699
 30
0.0
 11
33.0218
 21
-27.6087
 31
0.0
  0
LINE
  5
23B
  8
0
 10
33.0218
 20
-27.6087
 30
0.0
 11
32.0056
 21
-28.7081
 31
0.0
  0
LINE
  5
23C
  8
0
 10
32.0056
 20
-28.7081
 30
0.0
 11
30.8668
 21
-30.1497
 31
0.0
  0
LINE
  5
23D
  8
0
 10
30.8668
 20
-30.1497
 30
0.0
 11
29.6539
 21
-31.9574
 31
0.0
  0
LINE
  5
23E
  8
0
 10
29.6539
 20
-31.9574
 30
0.0
 11
28.4179
 21
-34.1497
 31
0.0
  0
LINE
  5
23F
  8
0
 10
28.4179
 20
-34.1497
 30
0.0
 11
27.2123
 21
-36.7395
 31
0.0
  0
LINE
  5
240
  8
0
 10
27.2123
 20
-36.7395
 30
0.0
 11
28.2877
 21
-38.3746
 31
0.0
  0
LINE
  5
241
  8
0
 10
28.2877
 20
-38.3746
 30
0.0
 11
31.1432
 21
-38.2934
 31
0.0
  0
LINE
  5
242
  8
0
 10
31.1432
 20
-38.2934
 30
0.0
 11
33.6459
 21
-38.0269
 31
0.0
  0
LINE
  5
243
  8
0
 10
33.6459
 20
-38.0269
 30
0.0
 11
35.7861
 21
-37.6291
 31
0.0
  0
LINE
  5
244
  8
0
 10
35.7861
 20
-37.6291
 30
0.0
 11
37.5608
 21
-37.1545
 31
0.0
  0
LINE
  5
245
  8
0
 10
37.5608
 20
-37.1545
 30
0.0
 11
38.9729
 21
-36.6568
 31
0.0
  0
LINE
  5
246
  8
0
 10
38.9729
 20
-36.6568
 30
0.0
 11
39.0373
 21
-36.6054
 31
0.0
  0
LINE
  5
247
  8
0
 10
39.0373
 20
-36.6054
 30
0.0
 11
40.8478
 21
-38.763
 31
0.0
  0
LINE
  5
248
  8
0
 10
40.8478
 20
-38.763
 30
0.0
 11
40.7859
 21
-38.8175
 31
0.0
  0
LINE
  5
249
  8
0
 10
40.7859
 20
-38.8175
 30
0.0
 11
40.0506
 21
-40.1217
 31
0.0
  0
LINE
  5
24A
  8
0
 10
40.0506
 20
-40.1217
 30
0.0
 11
39.275
 21
-41.787
 31
0.0
  0
LINE
  5
24B
  8
0
 10
39.275
 20
-41.787
 30
0.0
 11
38.5116
 21
-43.8257
 31
0.0
  0
LINE
  5
24C
  8
0
 10
38.5116
 20
-43.8257
 30
0.0
 11
37.8146
 21
-46.244
 31
0.0
  0
LINE
  5
24D
  8
0
 10
37.8146
 20
-46.244
 30
0.0
 11
37.2388
 21
-49.042
 31
0.0
  0
LINE
  5
24E
  8
0
 10
37.2388
 20
-49.042
 30
0.0
 11
38.6622
 21
-50.385
 31
0.0
  0
LINE
  5
24F
  8
0
 10
38.6622
 20
-50.385
 30
0.0
 11
41.422
 21
-49.6475
 31
0.0
  0
LINE
  5
250
  8
0
 10
41.422
 20
-49.6475
 30
0.0
 11
43.7957
 21
-48.811
 31
0.0
  0
LINE
  5
251
  8
0
 10
43.7957
 20
-48.811
 30
0.0
 11
45.7866
 21
-47.9304
 31
0.0
  0
LINE
  5
252
  8
0
 10
45.7866
 20
-47.9304
 30
0.0
 11
47.404
 21
-47.0592
 31
0.0
  0
LINE
  5
253
  8
0
 10
47.404
 20
-47.0592
 30
0.0
 11
48.6632
 21
-46.2494
 31
0.0
  0
LINE
  5
254
  8
0
 10
48.6632
 20
-46.2494
 30
0.0
 11
48.714
 21
-46.1844
 31
0.0
  0
LINE
  5
255
  8
0
 10
48.714
 20
-46.1844
 30
0.0
 11
50.9733
 21
-47.8664
 31
0.0
  0
LINE
  5
256
  8
0
 10
50.9733
 20
-47.8664
 30
0.0
 11
50.9257
 21
-47.9337
 31
0.0
  0
LINE
  5
257
  8
0
 10
50.9257
 20
-47.9337
 30
0.0
 11
50.511
 21
-49.3723
 31
0.0
  0
LINE
  5
258
  8
0
 10
50.511
 20
-49.3723
 30
0.0
 11
50.1403
 21
-51.1716
 31
0.0
  0
LINE
  5
259
  8
0
 10
50.1403
 20
-51.1716
 30
0.0
 11
49.8677
 21
-53.3314
 31
0.0
  0
LINE
  5
25A
  8
0
 10
49.8677
 20
-53.3314
 30
0.0
 11
49.7471
 21
-55.8453
 31
0.0
  0
LINE
  5
25B
  8
0
 10
49.7471
 20
-55.8453
 30
0.0
 11
49.8321
 21
-58.7007
 31
0.0
  0
LINE
  5
25C
  8
0
 10
49.8321
 20
-58.7007
 30
0.0
 11
51.5269
 21
-59.6792
 31
0.0
  0
LINE
  5
25D
  8
0
 10
51.5269
 20
-59.6792
 30
0.0
 11
54.0422
 21
-58.3251
 31
0.0
  0
LINE
  5
25E
  8
0
 10
54.0422
 20
-58.3251
 30
0.0
 11
56.159
 21
-56.9637
 31
0.0
  0
LINE
  5
25F
  8
0
 10
56.159
 20
-56.9637
 30
0.0
 11
57.8932
 21
-55.6477
 31
0.0
  0
LINE
  5
260
  8
0
 10
57.8932
 20
-55.6477
 30
0.0
 11
59.266
 21
-54.4271
 31
0.0
  0
LINE
  5
261
  8
0
 10
59.266
 20
-54.4271
 30
0.0
 11
60.3046
 21
-53.3486
 31
0.0
  0
LINE
  5
262
  8
0
 10
60.3046
 20
-53.3486
 30
0.0
 11
60.339
 21
-53.2737
 31
0.0
  0
LINE
  5
263
  8
0
 10
60.339
 20
-53.2737
 30
0.0
 11
62.9253
 21
-54.3893
 31
0.0
  0
LINE
  5
264
  8
0
 10
62.9253
 20
-54.3893
 30
0.0
 11
62.8945
 21
-54.4658
 31
0.0
  0
LINE
  5
265
  8
0
 10
62.8945
 20
-54.4658
 30
0.0
 11
62.8227
 21
-55.9613
 31
0.0
  0
LINE
  5
266
  8
0
 10
62.8227
 20
-55.9613
 30
0.0
 11
62.877
 21
-57.7975
 31
0.0
  0
LINE
  5
267
  8
0
 10
62.877
 20
-57.7975
 30
0.0
 11
63.1098
 21
-59.962
 31
0.0
  0
LINE
  5
268
  8
0
 10
63.1098
 20
-59.962
 30
0.0
 11
63.5722
 21
-62.4359
 31
0.0
  0
LINE
  5
269
  8
0
 10
63.5722
 20
-62.4359
 30
0.0
 11
64.3134
 21
-65.1947
 31
0.0
  0
LINE
  5
26A
  8
0
 10
64.3134
 20
-65.1947
 30
0.0
 11
66.1882
 21
-65.756
 31
0.0
  0
LINE
  5
26B
  8
0
 10
66.1882
 20
-65.756
 30
0.0
 11
68.3234
 21
-63.8583
 31
0.0
  0
LINE
  5
26C
  8
0
 10
68.3234
 20
-63.8583
 30
0.0
 11
70.0692
 21
-62.0455
 31
0.0
  0
LINE
  5
26D
  8
0
 10
70.0692
 20
-62.0455
 30
0.0
 11
71.4531
 21
-60.365
 31
0.0
  0
LINE
  5
26E
  8
0
 10
71.4531
 20
-60.365
 30
0.0
 11
72.5075
 21
-58.8607
 31
0.0
  0
LINE
  5
26F
  8
0
 10
72.5075
 20
-58.8607
 30
0.0
 11
73.2693
 21
-57.5718
 31
0.0
  0
LINE
  5
270
  8
0
 10
73.2693
 20
-57.5718
 30
0.0
 11
73.2855
 21
-57.491
 31
0.0
  0
LINE
  5
271
  8
0
 10
73.2855
 20
-57.491
 30
0.0
 11
76.0594
 21
-57.9801
 31
0.0
  0
LINE
  5
272
  8
0
 10
76.0594
 20
-57.9801
 30
0.0
 11
76.047
 21
-58.0616
 31
0.0
  0
LINE
  5
273
  8
0
 10
76.047
 20
-58.0616
 30
0.0
 11
76.3221
 21
-59.5333
 31
0.0
  0
LINE
  5
274
  8
0
 10
76.3221
 20
-59.5333
 30
0.0
 11
76.7984
 21
-61.3075
 31
0.0
  0
LINE
  5
275
  8
0
 10
76.7984
 20
-61.3075
 30
0.0
 11
77.524
 21
-63.36
 31
0.0
  0
LINE
  5
276
  8
0
 10
77.524
 20
-63.36
 30
0.0
 11
78.5445
 21
-65.6606
 31
0.0
  0
LINE
  5
277
  8
0
 10
78.5445
 20
-65.6606
 30
0.0
 11
79.9019
 21
-68.1741
 31
0.0
  0
LINE
  5
278
  8
0
 10
79.9019
 20
-68.1741
 30
0.0
 11
81.8557
 21
-68.2879
 31
0.0
  0
LINE
  5
279
  8
0
 10
81.8557
 20
-68.2879
 30
0.0
 11
83.4957
 21
-65.9489
 31
0.0
  0
LINE
  5
27A
  8
0
 10
83.8173
 20
-6.41698
 30
0.0
 11
82.5853
 21
-6.09166
 31
0.0
  0
LINE
  5
27B
  8
0
 10
82.5853
 20
-6.09166
 30
0.0
 11
81.4405
 21
-5.53226
 31
0.0
  0
LINE
  5
27C
  8
0
 10
81.4405
 20
-5.53226
 30
0.0
 11
80.4267
 21
-4.76024
 31
0.0
  0
LINE
  5
27D
  8
0
 10
80.4267
 20
-4.76024
 30
0.0
 11
79.5831
 21
-3.80528
 31
0.0
  0
LINE
  5
27E
  8
0
 10
79.5831
 20
-3.80528
 30
0.0
 11
78.942
 21
-2.7041
 31
0.0
  0
LINE
  5
27F
  8
0
 10
78.942
 20
-2.7041
 30
0.0
 11
78.528
 21
-1.49899
 31
0.0
  0
LINE
  5
280
  8
0
 10
78.528
 20
-1.49899
 30
0.0
 11
78.3571
 21
-0.236282
 31
0.0
  0
LINE
  5
281
  8
0
 10
78.3571
 20
-0.236282
 30
0.0
 11
78.4358
 21
1.03549
 31
0.0
  0
LINE
  5
282
  8
0
 10
78.4358
 20
1.03549
 30
0.0
 11
78.7611
 21
2.26749
 31
0.0
  0
LINE
  5
283
  8
0
 10
78.7611
 20
2.26749
 30
0.0
 11
79.3206
 21
3.41234
 31
0.0
  0
LINE
  5
284
  8
0
 10
79.3206
 20
3.41234
 30
0.0
 11
80.0926
 21
4.42606
 31
0.0
  0
LINE
  5
285
  8
0
 10
80.0926
 20
4.42606
 30
0.0
 11
81.0475
 21
5.2697
 31
0.0
  0
LINE
  5
286
  8
0
 10
81.0475
 20
5.2697
 30
0.0
 11
82.1487
 21
5.91081
 31
0.0
  0
LINE
  5
287
  8
0
 10
82.1487
 20
5.91081
 30
0.0
 11
83.3538
 21
6.32478
 31
0.0
  0
LINE
  5
288
  8
0
 10
83.3538
 20
6.32478
 30
0.0
 11
84.6165
 21
6.4957
 31
0.0
  0
LINE
  5
289
  8
0
 10
84.6165
 20
6.4957
 30
0.0
 11
85.8883
 21
6.41698
 31
0.0
  0
LINE
  5
28A
  8
0
 10
85.8883
 20
6.41698
 30
0.0
 11
87.1203
 21
6.09166
 31
0.0
  0
LINE
  5
28B
  8
0
 10
87.1203
 20
6.09166
 30
0.0
 11
88.2652
 21
5.53226
 31
0.0
  0
LINE
  5
28C
  8
0
 10
88.2652
 20
5.53226
 30
0.0
 11
89.2789
 21
4.76024
 31
0.0
  0
LINE
  5
28D
  8
0
 10
89.2789
 20
4.76024
 30
0.0
 11
90.1225
 21
3.80528
 31
0.0
  0
LINE
  5
28E
  8
0
 10
90.1225
 20
3.80528
 30
0.0
 11
90.7636
 21
2.7041
 31
0.0
  0
LINE
  5
28F
  8
0
 10
90.7636
 20
2.7041
 30
0.0
 11
91.1776
 21
1.49899
 31
0.0
  0
LINE
  5
290
  8
0
 10
91.1776
 20
1.49899
 30
0.0
 11
91.3485
 21
0.236282
 31
0.0
  0
LINE
  5
291
  8
0
 10
91.3485
 20
0.236282
 30
0.0
 11
91.2698
 21
-1.03549
 31
0.0
  0
LINE
  5
292
  8
0
 10
91.2698
 20
-1.03549
 30
0.0
 11
90.9445
 21
-2.26749
 31
0.0
  0
LINE
  5
293
  8
0
 10
90.9445
 20
-2.26749
 30
0.0
 11
90.3851
 21
-3.41234
 31
0.0
  0
LINE
  5
294
  8
0
 10
90.3851
 20
-3.41234
 30
0.0
 11
89.6131
 21
-4.42606
 31
0.0
  0
LINE
  5
295
  8
0
 10
89.6131
 20
-4.42606
 30
0.0
 11
88.6581
 21
-5.2697
 31
0.0
  0
LINE
  5
296
  8
0
 10
88.6581
 20
-5.2697
 30
0.0
 11
87.5569
 21
-5.91081
 31
0.0
  0
LINE
  5
297
  8
0
 10
87.5569
 20
-5.91081
 30
0.0
 11
86.3518
 21
-6.32478
 31
0.0
  0
LINE
  5
298
  8
0
 10
86.3518
 20
-6.32478
 30
0.0
 11
85.0891
 21
-6.4957
 31
0.0
  0
LINE
  5
299
  8
0
 10
85.0891
 20
-6.4957
 30
0.0
 11
83.8173
 21
-6.41698
 31
0.0
  0
LINE
  5
29A
  8
0
 10
5.11119
 20
-25.4184
 30
0.0
 11
6.5159
 21
-22.6729
 31
0.0
  0
LINE
  5
29B
  8
0
 10
6.5159
 20
-22.6729
 30
0.0
 11
7.18454
 21
-20.3692
 31
0.0
  0
LINE
  5
29C
  8
0
 10
7.18454
 20
-20.3692
 30
0.0
 11
7.34344
 21
-18.6632
 31
0.0
  0
LINE
  5
29D
  8
0
 10
7.34344
 20
-18.6632
 30
0.0
 11
7.24664
 21
-17.6397
 31
0.0
  0
LINE
  5
29E
  8
0
 10
7.24664
 20
-17.6397
 30
0.0
 11
7.15704
 21
-17.3088
 31
0.0
  0
LINE
  5
29F
  8
0
 10
7.15704
 20
-17.3088
 30
0.0
 11
6.18694
 21
-14.9627
 31
0.0
  0
LINE
  5
2A0
  8
0
 10
6.18694
 20
-14.9627
 30
0.0
 11
9.86458
 21
-12.8394
 31
0.0
  0
LINE
  5
2A1
  8
0
 10
9.86458
 20
-12.8394
 30
0.0
 11
11.4113
 21
-14.8526
 31
0.0
  0
LINE
  5
2A2
  8
0
 10
11.4113
 20
-14.8526
 30
0.0
 11
11.6531
 21
-15.0956
 31
0.0
  0
LINE
  5
2A3
  8
0
 10
11.6531
 20
-15.0956
 30
0.0
 11
12.4911
 21
-15.6912
 31
0.0
  0
LINE
  5
2A4
  8
0
 10
12.4911
 20
-15.6912
 30
0.0
 11
14.048
 21
-16.4066
 31
0.0
  0
LINE
  5
2A5
  8
0
 10
14.048
 20
-16.4066
 30
0.0
 11
16.3773
 21
-16.9794
 31
0.0
  0
LINE
  5
2A6
  8
0
 10
16.3773
 20
-16.9794
 30
0.0
 11
19.4574
 21
-17.1356
 31
0.0
  0
LINE
  5
2A7
  8
0
 10
19.4574
 20
-17.1356
 30
0.0
 11
20.2541
 21
-16.1862
 31
0.0
  0
LINE
  5
2A8
  8
0
 10
20.2541
 20
-16.1862
 30
0.0
 11
19.5653
 21
-13.1801
 31
0.0
  0
LINE
  5
2A9
  8
0
 10
19.5653
 20
-13.1801
 30
0.0
 11
18.5968
 21
-10.9856
 31
0.0
  0
LINE
  5
2AA
  8
0
 10
18.5968
 20
-10.9856
 30
0.0
 11
17.6219
 21
-9.57657
 31
0.0
  0
LINE
  5
2AB
  8
0
 10
17.6219
 20
-9.57657
 30
0.0
 11
16.8898
 21
-8.85475
 31
0.0
  0
LINE
  5
2AC
  8
0
 10
16.8898
 20
-8.85475
 30
0.0
 11
16.6085
 21
-8.65884
 31
0.0
  0
LINE
  5
2AD
  8
0
 10
16.6085
 20
-8.65884
 30
0.0
 11
14.3573
 21
-7.48518
 31
0.0
  0
LINE
  5
2AE
  8
0
 10
14.3573
 20
-7.48518
 30
0.0
 11
15.8097
 21
-3.49471
 31
0.0
  0
LINE
  5
2AF
  8
0
 10
15.8097
 20
-3.49471
 30
0.0
 11
18.2887
 21
-4.04268
 31
0.0
  0
LINE
  5
2B0
  8
0
 10
18.2887
 20
-4.04268
 30
0.0
 11
18.6301
 21
-4.07346
 31
0.0
  0
LINE
  5
2B1
  8
0
 10
18.6301
 20
-4.07346
 30
0.0
 11
19.6549
 21
-3.99106
 31
0.0
  0
LINE
  5
2B2
  8
0
 10
19.6549
 20
-3.99106
 30
0.0
 11
21.3074
 21
-3.53831
 31
0.0
  0
LINE
  5
2B3
  8
0
 10
21.3074
 20
-3.53831
 30
0.0
 11
23.4599
 21
-2.47981
 31
0.0
  0
LINE
  5
2B4
  8
0
 10
23.4599
 20
-2.47981
 30
0.0
 11
25.9198
 21
-0.619675
 31
0.0
  0
LINE
  5
2B5
  8
0
 10
25.9198
 20
-0.619675
 30
0.0
 11
25.9198
 21
0.619675
 31
0.0
  0
LINE
  5
2B6
  8
0
 10
25.9198
 20
0.619675
 30
0.0
 11
23.4599
 21
2.47981
 31
0.0
  0
LINE
  5
2B7
  8
0
 10
23.4599
 20
2.47981
 30
0.0
 11
21.3074
 21
3.53831
 31
0.0
  0
LINE
  5
2B8
  8
0
 10
21.3074
 20
3.53831
 30
0.0
 11
19.6549
 21
3.99106
 31
0.0
  0
LINE
  5
2B9
  8
0
 10
19.6549
 20
3.99106
 30
0.0
 11
18.6301
 21
4.07346
 31
0.0
  0
LINE
  5
2BA
  8
0
 10
18.6301
 20
4.07346
 30
0.0
 11
18.2887
 21
4.04268
 31
0.0
  0
LINE
  5
2BB
  8
0
 10
18.2887
 20
4.04268
 30
0.0
 11
15.8097
 21
3.49471
 31
0.0
  0
LINE
  5
2BC
  8
0
 10
15.8097
 20
3.49471
 30
0.0
 11
14.3573
 21
7.48518
 31
0.0
  0
LINE
  5
2BD
  8
0
 10
14.3573
 20
7.48518
 30
0.0
 11
16.6085
 21
8.65884
 31
0.0
  0
LINE
  5
2BE
  8
0
 10
16.6085
 20
8.65884
 30
0.0
 11
16.8898
 21
8.85475
 31
0.0
  0
LINE
  5
2BF
  8
0
 10
16.8898
 20
8.85475
 30
0.0
 11
17.6219
 21
9.57657
 31
0.0
  0
LINE
  5
2C0
  8
0
 10
17.6219
 20
9.57657
 30
0.0
 11
18.5968
 21
10.9856
 31
0.0
  0
LINE
  5
2C1
  8
0
 10
18.5968
 20
10.9856
 30
0.0
 11
19.5653
 21
13.1801
 31
0.0
  0
LINE
  5
2C2
  8
0
 10
19.5653
 20
13.1801
 30
0.0
 11
20.2541
 21
16.1862
 31
0.0
  0
LINE
  5
2C3
  8
0
 10
20.2541
 20
16.1862
 30
0.0
 11
19.4574
 21
17.1356
 31
0.0
  0
LINE
  5
2C4
  8
0
 10
19.4574
 20
17.1356
 30
0.0
 11
16.3773
 21
16.9794
 31
0.0
  0
LINE
  5
2C5
  8
0
 10
16.3773
 20
16.9794
 30
0.0
 11
14.048
 21
16.4066
 31
0.0
  0
LINE
  5
2C6
  8
0
 10
14.048
 20
16.4066
 30
0.0
 11
12.4911
 21
15.6912
 31
0.0
  0
LINE
  5
2C7
  8
0
 10
12.4911
 20
15.6912
 30
0.0
 11
11.6531
 21
15.0956
 31
0.0
  0
LINE
  5
2C8
  8
0
 10
11.6531
 20
15.0956
 30
0.0
 11
11.4113
 21
14.8526
 31
0.0
  0
LINE
  5
2C9
  8
0
 10
11.4113
 20
14.8526
 30
0.0
 11
9.86458
 21
12.8394
 31
0.0
  0
LINE
  5
2CA
  8
0
 10
9.86458
 20
12.8394
 30
0.0
 11
6.18694
 21
14.9627
 31
0.0
  0
LINE
  5
2CB
  8
0
 10
6.18694
 20
14.9627
 30
0.0
 11
7.15704
 21
17.3088
 31
0.0
  0
LINE
  5
2CC
  8
0
 10
7.15704
 20
17.3088
 30
0.0
 11
7.24664
 21
17.6397
 31
0.0
  0
LINE
  5
2CD
  8
0
 10
7.24664
 20
17.6397
 30
0.0
 11
7.34344
 21
18.6632
 31
0.0
  0
LINE
  5
2CE
  8
0
 10
7.34344
 20
18.6632
 30
0.0
 11
7.18454
 21
20.3692
 31
0.0
  0
LINE
  5
2CF
  8
0
 10
7.18454
 20
20.3692
 30
0.0
 11
6.5159
 21
22.6729
 31
0.0
  0
LINE
  5
2D0
  8
0
 10
6.5159
 20
22.6729
 30
0.0
 11
5.11119
 21
25.4184
 31
0.0
  0
LINE
  5
2D1
  8
0
 10
5.11119
 20
25.4184
 30
0.0
 11
3.89067
 21
25.6337
 31
0.0
  0
LINE
  5
2D2
  8
0
 10
3.89067
 20
25.6337
 30
0.0
 11
1.63162
 21
23.5341
 31
0.0
  0
LINE
  5
2D3
  8
0
 10
1.63162
 20
23.5341
 30
0.0
 11
0.215424
 21
21.5981
 31
0.0
  0
LINE
  5
2D4
  8
0
 10
0.215424
 20
21.5981
 30
0.0
 11
-0.51738
 21
20.0493
 31
0.0
  0
LINE
  5
2D5
  8
0
 10
-0.51738
 20
20.0493
 30
0.0
 11
-0.776474
 21
19.0544
 31
0.0
  0
LINE
  5
2D6
  8
0
 10
-0.776474
 20
19.0544
 30
0.0
 11
-0.805466
 21
18.7128
 31
0.0
  0
LINE
  5
2D7
  8
0
 10
-0.805466
 20
18.7128
 30
0.0
 11
-0.696289
 21
16.1764
 31
0.0
  0
LINE
  5
2D8
  8
0
 10
-0.696289
 20
16.1764
 30
0.0
 11
-4.87834
 21
15.439
 31
0.0
  0
LINE
  5
2D9
  8
0
 10
-4.87834
 20
15.439
 30
0.0
 11
-5.64325
 21
17.8598
 31
0.0
  0
LINE
  5
2DA
  8
0
 10
-5.64325
 20
17.8598
 30
0.0
 11
-5.78734
 21
18.1709
 31
0.0
  0
LINE
  5
2DB
  8
0
 10
-5.78734
 20
18.1709
 30
0.0
 11
-6.37108
 21
19.0172
 31
0.0
  0
LINE
  5
2DC
  8
0
 10
-6.37108
 20
19.0172
 30
0.0
 11
-7.5894
 21
20.2219
 31
0.0
  0
LINE
  5
2DD
  8
0
 10
-7.5894
 20
20.2219
 30
0.0
 11
-9.58237
 21
21.5568
 31
0.0
  0
LINE
  5
2DE
  8
0
 10
-9.58237
 20
21.5568
 30
0.0
 11
-12.4232
 21
22.7571
 31
0.0
  0
LINE
  5
2DF
  8
0
 10
-12.4232
 20
22.7571
 30
0.0
 11
-13.4966
 21
22.1374
 31
0.0
  0
LINE
  5
2E0
  8
0
 10
-13.4966
 20
22.1374
 30
0.0
 11
-13.8775
 21
19.077
 31
0.0
  0
LINE
  5
2E1
  8
0
 10
-13.8775
 20
19.077
 30
0.0
 11
-13.7179
 21
16.6835
 31
0.0
  0
LINE
  5
2E2
  8
0
 10
-13.7179
 20
16.6835
 30
0.0
 11
-13.2838
 21
15.0261
 31
0.0
  0
LINE
  5
2E3
  8
0
 10
-13.2838
 20
15.0261
 30
0.0
 11
-12.8428
 21
14.0974
 31
0.0
  0
LINE
  5
2E4
  8
0
 10
-12.8428
 20
14.0974
 30
0.0
 11
-12.6454
 21
13.8171
 31
0.0
  0
LINE
  5
2E5
  8
0
 10
-12.6454
 20
13.8171
 30
0.0
 11
-10.9314
 21
11.9442
 31
0.0
  0
LINE
  5
2E6
  8
0
 10
-10.9314
 20
11.9442
 30
0.0
 11
-13.661
 21
8.69119
 31
0.0
  0
LINE
  5
2E7
  8
0
 10
-13.661
 20
8.69119
 30
0.0
 11
-15.803
 21
10.054
 31
0.0
  0
LINE
  5
2E8
  8
0
 10
-15.803
 20
10.054
 30
0.0
 11
-16.1134
 21
10.1997
 31
0.0
  0
LINE
  5
2E9
  8
0
 10
-16.1134
 20
10.1997
 30
0.0
 11
-17.1045
 21
10.4727
 31
0.0
  0
LINE
  5
2EA
  8
0
 10
-17.1045
 20
10.4727
 30
0.0
 11
-18.8122
 21
10.6125
 31
0.0
  0
LINE
  5
2EB
  8
0
 10
-18.8122
 20
10.6125
 30
0.0
 11
-21.1969
 21
10.354
 31
0.0
  0
LINE
  5
2EC
  8
0
 10
-21.1969
 20
10.354
 30
0.0
 11
-24.1447
 21
9.4474
 31
0.0
  0
LINE
  5
2ED
  8
0
 10
-24.1447
 20
9.4474
 30
0.0
 11
-24.5686
 21
8.28279
 31
0.0
  0
LINE
  5
2EE
  8
0
 10
-24.5686
 20
8.28279
 30
0.0
 11
-22.8932
 21
5.6935
 31
0.0
  0
LINE
  5
2EF
  8
0
 10
-22.8932
 20
5.6935
 30
0.0
 11
-21.2325
 21
3.96262
 31
0.0
  0
LINE
  5
2F0
  8
0
 10
-21.2325
 20
3.96262
 30
0.0
 11
-19.8346
 21
2.97198
 31
0.0
  0
LINE
  5
2F1
  8
0
 10
-19.8346
 20
2.97198
 30
0.0
 11
-18.8998
 21
2.54407
 31
0.0
  0
LINE
  5
2F2
  8
0
 10
-18.8998
 20
2.54407
 30
0.0
 11
-18.5684
 21
2.45621
 31
0.0
  0
LINE
  5
2F3
  8
0
 10
-18.5684
 20
2.45621
 30
0.0
 11
-16.0515
 21
2.12328
 31
0.0
  0
LINE
  5
2F4
  8
0
 10
-16.0515
 20
2.12328
 30
0.0
 11
-16.0515
 21
-2.12328
 31
0.0
  0
LINE
  5
2F5
  8
0
 10
-16.0515
 20
-2.12328
 30
0.0
 11
-18.5684
 21
-2.45621
 31
0.0
  0
LINE
  5
2F6
  8
0
 10
-18.5684
 20
-2.45621
 30
0.0
 11
-18.8998
 21
-2.54407
 31
0.0
  0
LINE
  5
2F7
  8
0
 10
-18.8998
 20
-2.54407
 30
0.0
 11
-19.8346
 21
-2.97198
 31
0.0
  0
LINE
  5
2F8
  8
0
 10
-19.8346
 20
-2.97198
 30
0.0
 11
-21.2325
 21
-3.96262
 31
0.0
  0
LINE
  5
2F9
  8
0
 10
-21.2325
 20
-3.96262
 30
0.0
 11
-22.8932
 21
-5.6935
 31
0.0
  0
LINE
  5
2FA
  8
0
 10
-22.8932
 20
-5.6935
 30
0.0
 11
-24.5686
 21
-8.28279
 31
0.0
  0
LINE
  5
2FB
  8
0
 10
-24.5686
 20
-8.28279
 30
0.0
 11
-24.1447
 21
-9.4474
 31
0.0
  0
LINE
  5
2FC
  8
0
 10
-24.1447
 20
-9.4474
 30
0.0
 11
-21.1969
 21
-10.354
 31
0.0
  0
LINE
  5
2FD
  8
0
 10
-21.1969
 20
-10.354
 30
0.0
 11
-18.8122
 21
-10.6125
 31
0.0
  0
LINE
  5
2FE
  8
0
 10
-18.8122
 20
-10.6125
 30
0.0
 11
-17.1045
 21
-10.4727
 31
0.0
  0
LINE
  5
2FF
  8
0
 10
-17.1045
 20
-10.4727
 30
0.0
 11
-16.1134
 21
-10.1997
 31
0.0
  0
LINE
  5
300
  8
0
 10
-16.1134
 20
-10.1997
 30
0.0
 11
-15.803
 21
-10.054
 31
0.0
  0
LINE
  5
301
  8
0
 10
-15.803
 20
-10.054
 30
0.0
 11
-13.661
 21
-8.69119
 31
0.0
  0
LINE
  5
302
  8
0
 10
-13.661
 20
-8.69119
 30
0.0
 11
-10.9314
 21
-11.9442
 31
0.0
  0
LINE
  5
303
  8
0
 10
-10.9314
 20
-11.9442
 30
0.0
 11
-12.6454
 21
-13.8171
 31
0.0
  0
LINE
  5
304
  8
0
 10
-12.6454
 20
-13.8171
 30
0.0
 11
-12.8428
 21
-14.0974
 31
0.0
  0
LINE
  5
305
  8
0
 10
-12.8428
 20
-14.0974
 30
0.0
 11
-13.2838
 21
-15.0261
 31
0.0
  0
LINE
  5
306
  8
0
 10
-13.2838
 20
-15.0261
 30
0.0
 11
-13.7179
 21
-16.6835
 31
0.0
  0
LINE
  5
307
  8
0
 10
-13.7179
 20
-16.6835
 30
0.0
 11
-13.8775
 21
-19.077
 31
0.0
  0
LINE
  5
308
  8
0
 10
-13.8775
 20
-19.077
 30
0.0
 11
-13.4966
 21
-22.1374
 31
0.0
  0
LINE
  5
309
  8
0
 10
-13.4966
 20
-22.1374
 30
0.0
 11
-12.4232
 21
-22.7571
 31
0.0
  0
LINE
  5
30A
  8
0
 10
-12.4232
 20
-22.7571
 30
0.0
 11
-9.58237
 21
-21.5568
 31
0.0
  0
LINE
  5
30B
  8
0
 10
-9.58237
 20
-21.5568
 30
0.0
 11
-7.5894
 21
-20.2219
 31
0.0
  0
LINE
  5
30C
  8
0
 10
-7.5894
 20
-20.2219
 30
0.0
 11
-6.37108
 21
-19.0172
 31
0.0
  0
LINE
  5
30D
  8
0
 10
-6.37108
 20
-19.0172
 30
0.0
 11
-5.78734
 21
-18.1709
 31
0.0
  0
LINE
  5
30E
  8
0
 10
-5.78734
 20
-18.1709
 30
0.0
 11
-5.64325
 21
-17.8598
 31
0.0
  0
LINE
  5
30F
  8
0
 10
-5.64325
 20
-17.8598
 30
0.0
 11
-4.87834
 21
-15.439
 31
0.0
  0
LINE
  5
310
  8
0
 10
-4.87834
 20
-15.439
 30
0.0
 11
-0.696289
 21
-16.1764
 31
0.0
  0
LINE
  5
311
  8
0
 10
-0.696289
 20
-16.1764
 30
0.0
 11
-0.805466
 21
-18.7128
 31
0.0
  0
LINE
  5
312
  8
0
 10
-0.805466
 20
-18.7128
 30
0.0
 11
-0.776474
 21
-19.0544
 31
0.0
  0
LINE
  5
313
  8
0
 10
-0.776474
 20
-19.0544
 30
0.0
 11
-0.51738
 21
-20.0493
 31
0.0
  0
LINE
  5
314
  8
0
 10
-0.51738
 20
-20.0493
 30
0.0
 11
0.215424
 21
-21.5981
 31
0.0
  0
LINE
  5
315
  8
0
 10
0.215424
 20
-21.5981
 30
0.0
 11
1.63162
 21
-23.5341
 31
0.0
  0
LINE
  5
316
  8
0
 10
1.63162
 20
-23.5341
 30
0.0
 11
3.89067
 21
-25.6337
 31
0.0
  0
LINE
  5
317
  8
0
 10
3.89067
 20
-25.6337
 30
0.0
 11
5.11119
 21
-25.4184
 31
0.0
  0
LINE
  5
318
  8
0
 10
-1.26808
 20
-6.37509
 30
0.0
 11
-2.48744
 21
-6.0052
 31
0.0
  0
LINE
  5
319
  8
0
 10
-2.48744
 20
-6.0052
 30
0.0
 11
-3.61121
 21
-5.40454
 31
0.0
  0
LINE
  5
31A
  8
0
 10
-3.61121
 20
-5.40454
 30
0.0
 11
-4.59619
 21
-4.59619
 31
0.0
  0
LINE
  5
31B
  8
0
 10
-4.59619
 20
-4.59619
 30
0.0
 11
-5.40454
 21
-3.61121
 31
0.0
  0
LINE
  5
31C
  8
0
 10
-5.40454
 20
-3.61121
 30
0.0
 11
-6.0052
 21
-2.48744
 31
0.0
  0
LINE
  5
31D
  8
0
 10
-6.0052
 20
-2.48744
 30
0.0
 11
-6.37509
 21
-1.26808
 31
0.0
  0
LINE
  5
31E
  8
0
 10
-6.37509
 20
-1.26808
 30
0.0
 11
-6.5
 21
0.0
 31
0.0
  0
LINE
  5
31F
  8
0
 10
-6.5
 20
0.0
 30
0.0
 11
-6.37509
 21
1.26808
 31
0.0
  0
LINE
  5
320
  8
0
 10
-6.37509
 20
1.26808
 30
0.0
 11
-6.0052
 21
2.48744
 31
0.0
  0
LINE
  5
321
  8
0
 10
-6.0052
 20
2.48744
 30
0.0
 11
-5.40454
 21
3.61121
 31
0.0
  0
LINE
  5
322
  8
0
 10
-5.40454
 20
3.61121
 30
0.0
 11
-4.59619
 21
4.59619
 31
0.0
  0
LINE
  5
323
  8
0
 10
-4.59619
 20
4.59619
 30
0.0
 11
-3.61121
 21
5.40454
 31
0.0
  0
LINE
  5
324
  8
0
 10
-3.61121
 20
5.40454
 30
0.0
 11
-2.48744
 21
6.0052
 31
0.0
  0
LINE
  5
325
  8
0
 10
-2.48744
 20
6.0052
 30
0.0
 11
-1.26808
 21
6.37509
 31
0.0
  0
LINE
  5
326
  8
0
 10
-1.26808
 20
6.37509
 30
0.0
 11
0.0
 21
6.5
 31
0.0
  0
LINE
  5
327
  8
0
 10
0.0
 20
6.5
 30
0.0
 11
1.26808
 21
6.37509
 31
0.0
  0
LINE
  5
328
  8
0
 10
1.26808
 20
6.37509
 30
0.0
 11
2.48744
 21
6.0052
 31
0.0
  0
LINE
  5
329
  8
0
 10
2.48744
 20
6.0052
 30
0.0
 11
3.61121
 21
5.40454
 31
0.0
  0
LINE
  5
32A
  8
0
 10
3.61121
 20
5.40454
 30
0.0
 11
4.59619
 21
4.59619
 31
0.0
  0
LINE
  5
32B
  8
0
 10
4.59619
 20
4.59619
 30
0.0
 11
5.40454
 21
3.61121
 31
0.0
  0
LINE
  5
32C
  8
0
 10
5.40454
 20
3.61121
 30
0.0
 11
6.0052
 21
2.48744
 31
0.0
  0
LINE
  5
32D
  8
0
 10
6.0052
 20
2.48744
 30
0.0
 11
6.37509
 21
1.26808
 31
0.0
  0
LINE
  5
32E
  8
0
 10
6.37509
 20
1.26808
 30
0.0
 11
6.5
 21
0.0
 31
0.0
  0
LINE
  5
32F
  8
0
 10
6.5
 20
0.0
 30
0.0
 11
6.37509
 21
-1.26808
 31
0.0
  0
LINE
  5
330
  8
0
 10
6.37509
 20
-1.26808
 30
0.0
 11
6.0052
 21
-2.48744
 31
0.0
  0
LINE
  5
331
  8
0
 10
6.0052
 20
-2.48744
 30
0.0
 11
5.40454
 21
-3.61121
 31
0.0
  0
LINE
  5
332
  8
0
 10
5.40454
 20
-3.61121
 30
0.0
 11
4.59619
 21
-4.59619
 31
0.0
  0
LINE
  5
333
  8
0
 10
4.59619
 20
-4.59619
 30
0.0
 11
3.61121
 21
-5.40454
 31
0.0
  0
LINE
  5
334
  8
0
 10
3.61121
 20
-5.40454
 30
0.0
 11
2.48744
 21
-6.0052
 31
0.0
  0
LINE
  5
335
  8
0
 10
2.48744
 20
-6.0052
 30
0.0
 11
1.26808
 21
-6.37509
 31
0.0
  0
LINE
  5
336
  8
0
 10
1.26808
 20
-6.37509
 30
0.0
 11
0.0
 21
-6.5
 31
0.0
  0
LINE
  5
337
  8
0
 10
0.0
 20
-6.5
 30
0.0
 11
-1.26808
 21
-6.37509
 31
0.0
  0
TEXT
  5
36D
  8
0
 62
5
 10
0.0
 20
0.0
 30
0.0
 40
3.0
  1
4
  7
OpenSans-Regular
  0
ENDSEC
  0
EOF
